<svg width="25" height="78" viewBox="0 0 25 78" fill="none" xmlns="http://www.w3.org/2000/svg">
<path d="M0.999877 16.32L4.35988 16.32L4.35988 5.504C6.31188 6.496 7.20788 7.296 9.38388 10.432C11.4959 13.472 13.6079 16.128 17.3519 16.128C21.4479 16.128 24.7759 13.024 24.7759 8.224C24.7759 0.992 18.2159 0.736 16.1359 0.672L16.1359 4.736C17.8639 4.768 21.2239 4.864 21.2239 8.096C21.2239 10.208 19.5599 11.744 17.3519 11.744C15.3039 11.744 14.0239 10.72 11.5279 7.296C7.65588 2.016 5.15988 0.575999 0.999878 -1.03928e-06L0.999877 16.32Z" fill="#FF0000"/>
<path d="M12.6799 36.6292C15.6879 36.6292 18.7919 36.2452 21.3519 34.6452C23.3359 33.3972 24.7759 31.4453 24.7759 28.5013C24.7759 21.0453 16.1039 20.3732 12.2639 20.3732C9.25588 20.3732 0.551877 21.0772 0.551877 28.5013C0.551876 36.1492 9.73588 36.6292 12.6799 36.6292ZM12.6799 32.2132C5.79988 32.2132 4.00788 30.8372 4.00788 28.5013C4.00788 26.4212 5.28788 24.7252 12.6799 24.7572C19.7519 24.7572 21.3199 26.2932 21.3199 28.4372C21.3199 30.5492 20.0719 32.2132 12.6799 32.2132Z" fill="#FF0000"/>
<path d="M0.999876 51.5305L24.3599 51.5305L24.3599 48.0745C21.3199 47.3705 20.2959 44.6825 20.2959 42.9865L20.2959 41.1305L17.2559 41.1305L17.2559 47.4665L0.999876 47.4665L0.999876 51.5305Z" fill="#FF0000"/>
<path d="M7.75188 77.3118C11.3359 77.3118 12.9039 74.9117 13.7359 73.5677C14.9839 76.3837 17.3839 76.6077 18.5359 76.6077C21.7679 76.6077 24.7759 73.9838 24.7759 69.1838C24.7759 64.3518 21.7679 61.7277 18.5359 61.7277C17.4479 61.7277 14.9839 61.9518 13.7359 64.7678C12.9039 63.4558 11.3359 61.0558 7.75188 61.0558C3.81588 61.0558 0.519875 63.9358 0.551875 69.1838C0.551875 74.3998 3.81588 77.3118 7.75188 77.3118ZM17.9919 72.3838C16.4879 72.3838 14.8559 71.4878 14.8559 69.1838C14.8559 66.8478 16.4879 65.9518 17.9919 65.9518C19.5919 65.9518 21.1599 67.0398 21.1599 69.1838C21.1599 71.3278 19.5919 72.3838 17.9919 72.3838ZM7.87988 72.9918C6.05588 72.9918 4.00787 71.7758 4.00787 69.1838C4.00787 66.5598 6.05588 65.3757 7.87988 65.3757C9.41588 65.3757 11.7519 66.2718 11.7519 69.1838C11.7519 72.0638 9.41588 72.9918 7.87988 72.9918Z" fill="#FF0000"/>
</svg>
