<svg width="38" height="65" viewBox="0 0 38 65" fill="none" xmlns="http://www.w3.org/2000/svg">
<path d="M16.1119 9.79201L13.3279 9.79201L13.3279 4.51201C15.4079 4.51201 17.4239 7.07201 19.7279 9.37601C22.2239 11.872 23.9519 12.928 26.2559 12.928C30.1599 12.928 32.4319 10.944 32.4319 7.04001C32.4319 2.94401 29.7439 1.15201 25.9359 1.15201L24.6559 1.15201L24.6559 4.41601L25.9359 4.41601C26.8639 4.41601 29.1679 4.44801 29.1679 7.04001C29.1679 9.37601 27.4399 9.60001 26.2559 9.60001C24.4959 9.60001 22.9279 8.03201 21.9039 7.00801C18.9599 4.06401 16.7199 1.08801 12.2399 1.08801L9.99988 1.08801L9.99988 12.928L16.1119 12.928L16.1119 9.79201Z" fill="#FF0000"/>
<path d="M32.4319 23.6938C32.4319 19.7258 29.7439 17.8058 25.9359 17.8058L16.0799 17.8058C12.2719 17.8058 9.58388 19.7258 9.58388 23.6938C9.58388 27.6618 12.2719 29.5818 16.0799 29.5818L25.9359 29.5818C29.7439 29.5818 32.4319 27.6618 32.4319 23.6938ZM12.7839 23.6938C12.7839 21.7738 14.1279 21.1018 15.1519 21.1018L21.9359 26.3498L16.0799 26.3498C15.1519 26.3498 12.7839 26.2858 12.7839 23.6938ZM29.2319 23.6938C29.2319 25.6138 27.8879 26.3178 26.8639 26.3178L20.0479 21.0378L25.9359 21.0378C26.8639 21.0378 29.2319 21.1018 29.2319 23.6938Z" fill="#FF0000"/>
<path d="M16.1119 43.0995L13.3279 43.0995L13.3279 37.8195C15.4079 37.8195 17.4239 40.3795 19.7279 42.6835C22.2239 45.1795 23.9519 46.2355 26.2559 46.2355C30.1599 46.2355 32.4319 44.2515 32.4319 40.3475C32.4319 36.2515 29.7439 34.4595 25.9359 34.4595L24.6559 34.4595L24.6559 37.7235L25.9359 37.7235C26.8639 37.7235 29.1679 37.7555 29.1679 40.3475C29.1679 42.6835 27.4399 42.9075 26.2559 42.9075C24.4959 42.9075 22.9279 41.3395 21.9039 40.3155C18.9599 37.3715 16.7199 34.3955 12.2399 34.3955L9.99988 34.3955L9.99988 46.2355L16.1119 46.2355L16.1119 43.0995Z" fill="#FF0000"/>
<path d="M16.5919 51.1133L15.9519 51.1133C10.1919 51.1133 9.58388 54.8893 9.58388 57.0013C9.58388 58.9853 10.1599 62.9533 16.4959 62.9533C20.4959 62.9533 23.1839 61.1293 23.1839 58.3133L28.8799 62.8893L32.0159 62.8893L32.0159 51.1133L26.8959 51.1133L26.8959 54.2493L29.0719 54.2493L29.0719 59.3053L21.3599 53.0653L19.5359 55.2413C20.1119 55.8813 20.1439 56.7133 20.1439 57.0013C20.1439 57.7693 19.8239 59.6253 16.4959 59.6253C13.9999 59.6253 12.8159 58.5373 12.8159 57.0013C12.8159 55.4653 13.6159 54.4413 15.9519 54.4413L16.5919 54.4413L16.5919 51.1133Z" fill="#FF0000"/>
</svg>
