<svg width="25" height="77" viewBox="0 0 25 77" fill="none" xmlns="http://www.w3.org/2000/svg">
<path d="M0.999877 16.32L4.35988 16.32L4.35988 5.504C6.31188 6.496 7.20788 7.296 9.38388 10.432C11.4959 13.472 13.6079 16.128 17.3519 16.128C21.4479 16.128 24.7759 13.024 24.7759 8.224C24.7759 0.992 18.2159 0.736 16.1359 0.672L16.1359 4.736C17.8639 4.768 21.2239 4.864 21.2239 8.096C21.2239 10.208 19.5599 11.744 17.3519 11.744C15.3039 11.744 14.0239 10.72 11.5279 7.296C7.65588 2.016 5.15988 0.575999 0.999878 -1.03928e-06L0.999877 16.32Z" fill="#FF0000"/>
<path d="M12.6799 36.6292C15.6879 36.6292 18.7919 36.2452 21.3519 34.6452C23.3359 33.3972 24.7759 31.4453 24.7759 28.5013C24.7759 21.0453 16.1039 20.3732 12.2639 20.3732C9.25588 20.3732 0.551877 21.0772 0.551877 28.5013C0.551876 36.1492 9.73588 36.6292 12.6799 36.6292ZM12.6799 32.2132C5.79988 32.2132 4.00788 30.8372 4.00788 28.5013C4.00788 26.4212 5.28788 24.7252 12.6799 24.7572C19.7519 24.7572 21.3199 26.2932 21.3199 28.4372C21.3199 30.5492 20.0719 32.2132 12.6799 32.2132Z" fill="#FF0000"/>
<path d="M0.999875 57.0025L4.35988 57.0025L4.35988 46.1865C6.31188 47.1785 7.20788 47.9785 9.38388 51.1145C11.4959 54.1545 13.6079 56.8105 17.3519 56.8105C21.4479 56.8105 24.7759 53.7065 24.7759 48.9065C24.7759 41.6745 18.2159 41.4185 16.1359 41.3545L16.1359 45.4185C17.8639 45.4505 21.2239 45.5465 21.2239 48.7785C21.2239 50.8905 19.5599 52.4265 17.3519 52.4265C15.3039 52.4265 14.0239 51.4025 11.5279 47.9785C7.65588 42.6985 5.15988 41.2585 0.999876 40.6825L0.999875 57.0025Z" fill="#FF0000"/>
<path d="M12.6799 76.3518C15.6879 76.3518 18.7919 75.9678 21.3519 74.3678C23.3359 73.1198 24.7759 71.1678 24.7759 68.2238C24.7759 60.7678 16.1039 60.0958 12.2639 60.0958C9.25587 60.0958 0.551875 60.7998 0.551875 68.2238C0.551875 75.8718 9.73587 76.3518 12.6799 76.3518ZM12.6799 71.9358C5.79987 71.9358 4.00787 70.5598 4.00787 68.2238C4.00787 66.1438 5.28788 64.4478 12.6799 64.4798C19.7519 64.4798 21.3199 66.0158 21.3199 68.1598C21.3199 70.2718 20.0719 71.9358 12.6799 71.9358Z" fill="#FF0000"/>
</svg>
