<svg width="38" height="65" viewBox="0 0 38 65" fill="none" xmlns="http://www.w3.org/2000/svg">
<path d="M16.1119 9.792L13.3279 9.792L13.3279 4.512C15.4079 4.512 17.4239 7.072 19.7279 9.376C22.2239 11.872 23.9519 12.928 26.2559 12.928C30.1599 12.928 32.4319 10.944 32.4319 7.04C32.4319 2.944 29.7439 1.152 25.9359 1.152L24.6559 1.152L24.6559 4.416L25.9359 4.416C26.8639 4.416 29.1679 4.448 29.1679 7.04C29.1679 9.376 27.4399 9.6 26.2559 9.6C24.4959 9.6 22.9279 8.032 21.9039 7.008C18.9599 4.064 16.7199 1.088 12.2399 1.088L9.99988 1.088L9.99988 12.928L16.1119 12.928L16.1119 9.792Z" fill="#FF0000"/>
<path d="M32.4319 23.6937C32.4319 19.7257 29.7439 17.8057 25.9359 17.8057L16.0799 17.8057C12.2719 17.8057 9.58388 19.7257 9.58388 23.6937C9.58388 27.6617 12.2719 29.5817 16.0799 29.5817L25.9359 29.5817C29.7439 29.5817 32.4319 27.6617 32.4319 23.6937ZM12.7839 23.6937C12.7839 21.7737 14.1279 21.1017 15.1519 21.1017L21.9359 26.3497L16.0799 26.3497C15.1519 26.3497 12.7839 26.2857 12.7839 23.6937ZM29.2319 23.6937C29.2319 25.6137 27.8879 26.3177 26.8639 26.3177L20.0479 21.0377L25.9359 21.0377C26.8639 21.0377 29.2319 21.1017 29.2319 23.6937Z" fill="#FF0000"/>
<path d="M9.99988 34.7795L9.99988 46.5555L13.3279 46.5555L13.3279 42.4275L32.0159 42.4275L32.0159 38.9075C29.7119 38.7795 28.6879 36.9555 28.6879 34.7795L26.1279 34.7795L26.1279 38.9075L13.3279 38.9075L13.3279 34.7795L9.99988 34.7795Z" fill="#FF0000"/>
<path d="M9.58388 56.8412C9.58388 61.3212 12.5599 62.7612 16.1439 62.7612L25.4559 62.7612C28.3359 62.7612 32.4319 61.6092 32.4319 56.8092C32.4319 52.0092 28.3359 50.8572 25.4559 50.8572C21.5839 50.8572 18.5119 52.3292 18.5119 56.4892C18.5119 58.1532 19.3759 59.1772 19.6319 59.4332L16.1439 59.4332C14.3199 59.4332 12.7199 58.9852 12.7199 56.8412C12.7199 54.4732 14.5119 54.2812 15.8879 54.2812L16.0799 54.2812L16.0799 51.0812L15.7279 51.0812C12.2079 51.0812 9.58388 52.5212 9.58388 56.8412ZM29.1999 56.8092C29.1999 58.4092 28.2399 59.4012 25.4559 59.4012C22.6719 59.4012 21.7119 58.4092 21.7119 56.8092C21.7119 55.2092 22.6719 54.2172 25.4559 54.2172C28.2399 54.2172 29.1999 55.2092 29.1999 56.8092Z" fill="#FF0000"/>
</svg>
