<svg width="153" height="30" viewBox="0 0 153 30" fill="none" xmlns="http://www.w3.org/2000/svg">
<path d="M26.152 8.55207L23.208 5.57607C23.016 5.80007 22.504 6.28007 22.088 6.28007L0.552002 6.28007L0.552002 9.73607H20.584C18.888 12.6481 16.744 14.8241 14.76 16.6481L17.736 19.1761C21.224 15.7521 24.584 10.8561 26.152 8.55207ZM15.08 11.0801C15.08 10.8241 14.984 10.8241 14.312 10.7921L10.568 10.6001C10.824 17.2561 9.32 22.3441 2.568 27.0161L5.992 29.0321C7.688 27.7841 13.096 23.7841 14.184 14.6321C14.248 14.2161 14.376 11.9761 14.44 11.9121C14.472 11.7841 14.856 11.4641 14.92 11.3681C15.016 11.2401 15.08 11.1761 15.08 11.0801Z" fill="#FF0000"/>
<path d="M55.656 18.8561V14.7921H32.904V18.8561H55.656Z" fill="#FF0000"/>
<path d="M87.752 9.92807H77.704C77.896 7.68807 77.928 6.92007 77.928 5.57607C77.928 5.12807 77.928 5.09607 78.216 4.80807C78.536 4.52007 78.568 4.48807 78.568 4.32807C78.568 4.13607 78.536 3.97607 77.672 3.91207L73.896 3.59207C73.992 6.82407 73.832 8.58407 73.736 9.92807H64.456V13.4481H73.224C72.936 14.9201 72.36 17.5441 70.632 20.4241C68.136 24.5521 65 26.3441 63.24 27.3361L66.472 29.8961C68.232 28.7761 71.432 26.7601 74.12 22.0241C76.104 18.5041 76.84 15.0801 77.192 13.4481H83.752C83.624 18.1841 82.792 23.3041 81.544 24.9681C81.096 25.6081 80.648 25.8641 79.528 25.8641C79.016 25.8641 78.344 25.8001 76.264 25.5121L78.088 29.6401C81.704 29.6081 83.336 29.1921 84.584 27.5281C85.832 25.8321 87.56 20.1361 87.752 9.92807Z" fill="#FF0000"/>
<path d="M117.096 6.63207C117.096 6.37607 116.68 5.96007 116.552 5.86407L113.768 3.56007C108.936 9.28807 101.896 14.5361 95.208 17.1601L97.992 20.0081C101.736 18.2481 103.88 16.9041 106.056 15.4641V29.5441H110.056V12.4881C111.944 10.9841 113.736 9.32007 115.336 7.49607C115.784 7.01607 115.848 6.95207 116.328 6.92007C116.968 6.88807 117.096 6.85607 117.096 6.63207Z" fill="#FF0000"/>
<path d="M152.808 3.78407C152.2 2.98407 151.208 1.76807 150.088 0.87207L148.52 2.28007C149.576 3.11207 150.376 4.10407 151.144 5.16007L152.808 3.78407ZM148.008 3.91207C147.624 3.40007 146.504 2.02407 145.352 1.09607L143.784 2.50407C144.968 3.46407 145.96 4.71207 146.44 5.32007L148.008 3.91207ZM149.832 8.93607L146.696 5.99207C146.312 6.24807 145.992 6.50407 145.64 6.50407L127.528 6.50407V10.2161H144.584C140.84 21.2561 133.576 24.9681 130.024 26.6321L133.384 29.3841C135.624 28.1681 139.336 26.1201 142.76 21.8001C145.928 17.7681 147.368 13.8321 148.584 10.5361C148.84 9.86407 149.32 9.38407 149.832 8.93607Z" fill="#FF0000"/>
</svg>
