<svg width="38" height="65" viewBox="0 0 38 65" fill="none" xmlns="http://www.w3.org/2000/svg">
<path d="M16.112 9.792L13.328 9.792L13.328 4.512C15.408 4.512 17.424 7.072 19.728 9.376C22.224 11.872 23.952 12.928 26.256 12.928C30.16 12.928 32.432 10.944 32.432 7.04C32.432 2.944 29.744 1.152 25.936 1.152L24.656 1.152L24.656 4.416L25.936 4.416C26.864 4.416 29.168 4.448 29.168 7.04C29.168 9.376 27.44 9.6 26.256 9.6C24.496 9.6 22.928 8.032 21.904 7.008C18.96 4.064 16.72 1.088 12.24 1.088L10 1.088L10 12.928L16.112 12.928L16.112 9.792Z" fill="#FF0000"/>
<path d="M32.432 23.6937C32.432 19.7257 29.744 17.8057 25.936 17.8057L16.08 17.8057C12.272 17.8057 9.584 19.7257 9.584 23.6937C9.584 27.6617 12.272 29.5817 16.08 29.5817L25.936 29.5817C29.744 29.5817 32.432 27.6617 32.432 23.6937ZM12.784 23.6937C12.784 21.7737 14.128 21.1017 15.152 21.1017L21.936 26.3497L16.08 26.3497C15.152 26.3497 12.784 26.2857 12.784 23.6937ZM29.232 23.6937C29.232 25.6137 27.888 26.3177 26.864 26.3177L20.048 21.0377L25.936 21.0377C26.864 21.0377 29.232 21.1017 29.232 23.6937Z" fill="#FF0000"/>
<path d="M16.112 43.0995L13.328 43.0995L13.328 37.8195C15.408 37.8195 17.424 40.3795 19.728 42.6835C22.224 45.1795 23.952 46.2355 26.256 46.2355C30.16 46.2355 32.432 44.2515 32.432 40.3475C32.432 36.2515 29.744 34.4595 25.936 34.4595L24.656 34.4595L24.656 37.7235L25.936 37.7235C26.864 37.7235 29.168 37.7555 29.168 40.3475C29.168 42.6835 27.44 42.9075 26.256 42.9075C24.496 42.9075 22.928 41.3395 21.904 40.3155C18.96 37.3715 16.72 34.3955 12.24 34.3955L10 34.3955L10 46.2355L16.112 46.2355L16.112 43.0995Z" fill="#FF0000"/>
<path d="M32.432 56.0412C32.432 52.0732 29.744 50.1532 25.936 50.1532L16.08 50.1532C12.272 50.1532 9.584 52.0732 9.584 56.0412C9.584 60.0092 12.272 61.9292 16.08 61.9292L25.936 61.9292C29.744 61.9292 32.432 60.0092 32.432 56.0412ZM12.784 56.0412C12.784 54.1212 14.128 53.4492 15.152 53.4492L21.936 58.6972L16.08 58.6972C15.152 58.6972 12.784 58.6332 12.784 56.0412ZM29.232 56.0412C29.232 57.9612 27.888 58.6652 26.864 58.6652L20.048 53.3852L25.936 53.3852C26.864 53.3852 29.232 53.4492 29.232 56.0412Z" fill="#FF0000"/>
</svg>
