<svg width="38" height="65" viewBox="0 0 38 65" fill="none" xmlns="http://www.w3.org/2000/svg">
<path d="M16.112 9.792L13.328 9.792L13.328 4.512C15.408 4.512 17.424 7.072 19.728 9.376C22.224 11.872 23.952 12.928 26.256 12.928C30.16 12.928 32.432 10.944 32.432 7.04C32.432 2.944 29.744 1.152 25.936 1.152L24.656 1.152L24.656 4.416L25.936 4.416C26.864 4.416 29.168 4.448 29.168 7.04C29.168 9.376 27.44 9.6 26.256 9.6C24.496 9.6 22.928 8.032 21.904 7.008C18.96 4.064 16.72 1.088 12.24 1.088L10 1.088L10 12.928L16.112 12.928L16.112 9.792Z" fill="#FF0000"/>
<path d="M32.432 23.6937C32.432 19.7257 29.744 17.8057 25.936 17.8057L16.08 17.8057C12.272 17.8057 9.584 19.7257 9.584 23.6937C9.584 27.6617 12.272 29.5817 16.08 29.5817L25.936 29.5817C29.744 29.5817 32.432 27.6617 32.432 23.6937ZM12.784 23.6937C12.784 21.7737 14.128 21.1017 15.152 21.1017L21.936 26.3497L16.08 26.3497C15.152 26.3497 12.784 26.2857 12.784 23.6937ZM29.232 23.6937C29.232 25.6137 27.888 26.3177 26.864 26.3177L20.048 21.0377L25.936 21.0377C26.864 21.0377 29.232 21.1017 29.232 23.6937Z" fill="#FF0000"/>
<path d="M10 34.7795L10 46.5555L13.328 46.5555L13.328 42.4275L32.016 42.4275L32.016 38.9075C29.712 38.7795 28.688 36.9555 28.688 34.7795L26.128 34.7795L26.128 38.9075L13.328 38.9075L13.328 34.7795L10 34.7795Z" fill="#FF0000"/>
<path d="M21.968 60.5852C22.736 61.6412 24.4 62.8252 26.576 62.8252C29.648 62.8252 32.432 60.8412 32.432 57.0012C32.432 53.1612 29.648 51.1772 26.576 51.1772C24.4 51.1772 22.736 52.3292 21.968 53.4172C21.808 53.0652 20.496 51.0492 16.848 51.0492L15.824 51.0492C12.976 51.0492 9.584 52.5212 9.584 57.0012C9.584 61.4812 12.976 62.9532 15.824 62.9532L16.848 62.9532C20.496 62.9532 21.808 60.9372 21.968 60.5852ZM29.296 57.0012C29.296 58.5372 28.304 59.4972 26.448 59.4972C24.592 59.4972 23.6 58.5372 23.6 57.0012C23.6 55.4652 24.592 54.5052 26.448 54.5052C28.304 54.5052 29.296 55.4652 29.296 57.0012ZM12.72 57.0012C12.72 55.4652 13.776 54.3772 15.824 54.3772L16.848 54.3772C18.896 54.3772 19.952 55.4652 19.952 57.0012C19.952 58.5372 18.896 59.6252 16.848 59.6252L15.824 59.6252C13.776 59.6252 12.72 58.5372 12.72 57.0012Z" fill="#FF0000"/>
</svg>
