<svg width="63" height="96" viewBox="0 0 63 96" fill="none" xmlns="http://www.w3.org/2000/svg">
<path d="M9.53995 19.004C9.53995 17.042 8.27995 16.232 7.59595 15.782C8.00995 15.548 9.16195 14.9 9.16195 13.064C9.16195 10.868 7.10995 9.62598 5.07595 9.62598C3.52795 9.62598 2.14195 10.31 1.36795 11.516C0.773951 12.452 0.719951 13.226 0.701951 13.874H2.87995C2.89795 13.298 2.96995 11.624 4.91395 11.624C6.47995 11.624 6.80395 12.794 6.80395 13.442C6.80395 14.504 6.01195 15.35 4.75195 15.35H3.74395V16.952H4.75195C6.15595 16.952 7.09195 17.528 7.09195 19.022C7.09195 20.39 6.19195 21.254 4.93195 21.254C3.85195 21.254 2.91595 20.642 2.84395 18.788H0.449951C0.611951 20.624 0.935951 21.272 1.60195 21.956C2.39395 22.748 3.56395 23.252 4.93195 23.252C7.39795 23.252 9.53995 21.65 9.53995 19.004Z" fill="#FF0000"/>
<path d="M13.1879 23V20.516H10.7579V23H13.1879Z" fill="#FF0000"/>
<path d="M31.696 22.456C32.032 22.096 32.08 22.072 32.416 21.76C34.6 24.064 35.2 24.712 36.232 25.816L38.776 24.808C38.8 21.88 38.8 21.448 38.824 17.632C39.664 17.32 41.056 16.792 42.472 16.792C44.656 16.792 45.808 18.376 45.808 19.984C45.808 21.664 44.824 22.528 43.96 22.528C43.216 22.528 43.024 21.904 42.736 20.92L40.504 21.808C40.84 23.56 41.176 25.216 43.816 25.216C46.384 25.216 48.304 22.888 48.304 19.936C48.304 16.936 46.24 14.464 42.52 14.464C40.816 14.464 39.52 14.824 38.824 15.016L38.848 12.64C39.952 12.424 41.08 12.184 42.592 11.608V8.87202C41.248 9.49602 40.432 9.78402 38.896 10.12C38.92 9.66402 38.992 7.31202 39.088 7.16802C39.136 7.09602 39.496 6.80802 39.496 6.71202C39.496 6.59202 39.496 6.42402 38.824 6.32802L36.16 5.96802C36.184 7.52802 36.184 7.74402 36.208 10.456C35.512 10.504 35.152 10.528 34.552 10.528C33.448 10.528 32.872 10.48 32.2 10.408L32.56 13.12C33.904 13.168 34.768 13.144 36.208 13L36.232 16.096C34.624 16.96 34.168 17.224 30.232 19.768L31.696 22.456ZM36.232 22.648C35.8 22.264 34.816 21.352 34.048 20.392C35.056 19.648 35.56 19.336 36.232 18.928V22.648ZM50.128 12.496C48.952 11.584 47.368 10.504 45.4 9.78402L43.84 11.896C46.24 12.784 47.488 13.696 48.568 14.632L50.128 12.496Z" fill="#FF0000"/>
<path d="M40.24 40.2V37.848H30.136C30.328 42.024 30.4 43.632 30.4 46.44C30.4 51.528 29.968 54.72 28.984 57.36L31.456 57.888C31.624 57.48 31.864 56.904 32.248 55.08L33.856 55.8L34.312 58.32C36.448 58.368 37.864 58.392 37.864 56.232V50.256H40.216V41.976H37.384C37.816 41.136 37.864 41.064 38.248 40.2H40.24ZM47.2 45.408H43.312V44.016H47.2V45.408ZM50.824 56.64C49.288 55.968 48.28 55.296 47.272 54.264H49.6V41.976H45.976C46.552 40.872 46.624 40.752 46.888 40.176H50.344V37.896H40.816V40.176H44.032C43.72 41.04 43.576 41.352 43.312 41.976H40.984V54.264H42.832C41.8 55.32 40.48 56.04 39.064 56.472L40.816 58.344C41.776 57.912 42.928 57.312 44.272 55.992C44.632 56.016 44.992 56.016 44.992 55.752C44.992 55.584 44.872 55.488 44.8 55.416L43.456 54.264H46.288L45.04 55.392C46.192 56.64 47.32 57.48 48.856 58.272L50.824 56.64ZM47.2 48.648H43.312V47.256H47.2V48.648ZM47.2 52.056H43.312V50.496H47.2V52.056ZM38.08 45.096H35.44V43.68H38.08V45.096ZM38.08 48.408H35.44V46.824H38.08V48.408ZM35.632 51.288C35.488 51.192 35.296 51.12 35.224 51.096L33.52 50.808C33.28 52.104 32.992 53.208 32.296 54.696C32.728 51.744 32.824 48.792 32.824 45.816C32.824 43.224 32.728 41.256 32.656 40.2H35.488C35.368 40.56 35.224 41.016 34.84 41.976H33.304V50.256H35.632V51.288ZM35.632 55.248C35.632 55.416 35.536 55.992 34.96 55.992C34.792 55.992 34.624 55.968 34.24 55.896C34.72 54.96 35.056 53.88 35.368 52.272C35.392 52.224 35.416 52.176 35.632 51.888V55.248ZM40.888 54.768C40.576 53.112 40.24 52.032 39.832 50.856L37.96 51.384C38.464 52.896 38.728 53.952 39.016 55.32L40.888 54.768Z" fill="#FF0000"/>
<path d="M50.032 82.88C49.384 77.336 47.248 74.312 46.096 72.68L43.624 73.88C44.872 75.8 46.456 78.632 47.152 83.624L50.032 82.88ZM39.448 82.52L37.456 80.744C37 81.896 36.016 84.44 35.152 84.44C34.672 84.44 33.52 83.576 33.52 78.896C33.52 76.256 33.712 74.864 33.976 73.544C34.384 73.4 34.672 73.304 34.672 73.04C34.672 72.752 34.288 72.632 34.12 72.584L31.48 71.864C31.096 73.472 30.76 75.032 30.76 78.104C30.76 82.664 31.528 85.472 33.208 87.104C33.616 87.488 34.216 87.896 34.984 87.896C36.928 87.896 38.128 85.352 39.448 82.52Z" fill="#FF0000"/>
</svg>
