<svg width="64" height="79" viewBox="0 0 64 79" fill="none" xmlns="http://www.w3.org/2000/svg">
<path d="M50.32 12.096V9.696H45.184C46.12 7.992 46.336 7.512 46.768 6.456C46.816 6.336 46.84 6.336 47.104 6.216C47.2 6.168 47.272 6.096 47.272 6.024C47.272 5.808 46.984 5.664 46.864 5.616L45.112 4.848L49.264 4.848V2.52H41.344V1.152C41.344 1.08 41.416 1.008 41.584 0.863999C41.704 0.767999 41.8 0.672 41.8 0.552C41.8 0.383999 41.632 0.311999 41.368 0.287999L38.752 0V2.52L30.832 2.52V4.848H34.432L32.584 5.712C33.184 6.696 34.048 8.664 34.48 9.696H29.656V12.096H36.904C35.224 14.568 32.728 16.704 29.416 18.504L31.456 20.448C35.032 18.24 37.048 16.128 38.752 13.68V20.712H41.344V14.064C42.52 15.744 44.368 18.24 48.136 20.256L50.104 18.192C47.224 16.728 44.56 14.832 42.856 12.096H50.32ZM44.608 4.848C44.128 6.264 43.672 7.56 42.832 8.952L44.056 9.696H41.344V4.848H44.608ZM38.752 9.696H35.344L36.88 8.856C36.448 7.56 35.488 5.496 35.008 4.848H38.752V9.696Z" fill="#00FFFF" style="mix-blend-mode:difference"/>
<path d="M48.28 37.088V29.528H38.536V37.088H48.28ZM45.952 32.552H40.864V31.544H45.952V32.552ZM45.952 35.288H40.864V34.256H45.952V35.288ZM50.08 39.944V38H36.76V39.944H39.04C38.56 40.952 38.128 41.6 37.288 42.512V40.52C36.496 40.808 35.704 41.048 34.864 41.288V36.392H37.36V33.92H34.864V30.368C34.864 30.2 35.056 30.08 35.176 30.008C35.32 29.888 35.44 29.792 35.44 29.624C35.44 29.456 35.272 29.384 35.128 29.36L32.344 29.144V33.92H30.016V36.392H32.344V41.984C31.504 42.2 30.448 42.464 29.68 42.608L30.112 45.296C30.136 45.416 30.232 45.464 30.28 45.464C30.4 45.464 30.472 45.368 30.736 45.08C30.88 44.912 30.976 44.888 31.864 44.672C32.56 44.504 35.2 43.616 36.832 42.992C35.896 43.808 35.392 44.168 34.72 44.576L36.616 45.848C37.648 45.08 38.608 44.24 39.832 42.8H40.936C40.456 43.544 38.392 46.16 35.224 47.6L37.096 48.92C38.44 48.056 39.712 47.072 40.864 45.944C42.16 44.696 42.88 43.4 43.216 42.8H44.416C43.552 44.432 41.56 47.024 38.944 48.56L40.744 49.76C42.16 48.824 43 47.984 43.696 47.24L44.656 49.592C46.576 49.568 47.752 49.232 48.472 48.104C49.312 46.784 49.768 43.256 49.792 40.808H41.056C41.2 40.568 41.368 40.232 41.488 39.944H50.08ZM47.248 42.8C47.176 44.072 47.056 45.344 46.48 46.472C46.216 47 45.832 47.144 45.208 47.144C45.112 47.144 44.608 47.144 43.912 47C45.688 45.008 46.24 43.808 46.672 42.8H47.248Z" fill="#00FFFF" style="mix-blend-mode:difference"/>
<path d="M36.664 74.824V59.944H29.656L29.656 75.76H32.08V74.032H34.216V74.824H36.664ZM34.216 65.728H32.08V62.32H34.216V65.728ZM34.216 71.656H32.08V68.128H34.216V71.656ZM50.296 67.096V64.84H44.896V62.896H49.288V60.64H44.896V59.032C44.896 58.912 44.944 58.912 45.184 58.72C45.304 58.648 45.424 58.504 45.424 58.384C45.424 58.192 45.28 58.12 45.112 58.12L42.16 57.976V60.64H38.152V62.896H42.16V64.84H37.48V67.096H44.944V69.4H37.528V71.656H44.944V75.208C44.944 75.952 44.488 76.048 43.96 76.048C43.888 76.048 43.216 76.048 42.376 75.952L43.552 78.808C46.6 78.784 47.632 78.352 47.632 76.456V71.656H50.2V69.4H47.632V67.096H50.296ZM42.544 74.416C41.272 72.976 40.288 72.256 39.712 71.824L38.2 73.6C38.704 73.984 39.64 74.656 40.984 76.24L42.544 74.416Z" fill="#00FFFF" style="mix-blend-mode:difference"/>
</svg>
