<svg width="127" height="126" viewBox="0 0 127 126" fill="none" xmlns="http://www.w3.org/2000/svg">
<path d="M29.76 23.0799V19.8799H22.912C24.16 17.6079 24.448 16.9679 25.024 15.5599C25.088 15.3999 25.12 15.3999 25.472 15.2399C25.6 15.1759 25.696 15.0799 25.696 14.9839C25.696 14.6959 25.312 14.5039 25.152 14.4399L22.816 13.4159H28.352V10.3119H17.792V8.4879C17.792 8.3919 17.888 8.2959 18.112 8.1039C18.272 7.9759 18.4 7.8479 18.4 7.6879C18.4 7.4639 18.176 7.3679 17.824 7.3359L14.336 6.9519V10.3119H3.77598V13.4159H8.57598L6.11198 14.5679C6.91198 15.8799 8.06398 18.5039 8.63998 19.8799H2.20798V23.0799H11.872C9.63198 26.3759 6.30398 29.2239 1.88798 31.6239L4.60798 34.2159C9.37598 31.2719 12.064 28.4559 14.336 25.1919V34.5679H17.792V25.7039C19.36 27.9439 21.824 31.2719 26.848 33.9599L29.472 31.2079C25.632 29.2559 22.08 26.7279 19.808 23.0799H29.76ZM22.144 13.4159C21.504 15.3039 20.896 17.0319 19.776 18.8879L21.408 19.8799H17.792V13.4159H22.144ZM14.336 19.8799H9.79198L11.84 18.7599C11.264 17.0319 9.98398 14.2799 9.34398 13.4159H14.336V19.8799Z" fill="#FF0000"/>
<path d="M58.4 17.7359V7.6559L45.408 7.6559V17.7359H58.4ZM55.296 11.6879L48.512 11.6879V10.3439H55.296V11.6879ZM55.296 15.3359H48.512V13.9599L55.296 13.9599V15.3359ZM60.8 21.5439V18.9519H43.04V21.5439H46.08C45.44 22.8879 44.864 23.7519 43.744 24.9679V22.3119C42.688 22.6959 41.632 23.0159 40.512 23.3359V16.8079H43.84V13.5119H40.512V8.7759C40.512 8.5519 40.768 8.3919 40.928 8.2959C41.12 8.1359 41.28 8.0079 41.28 7.7839C41.28 7.5599 41.056 7.4639 40.864 7.4319L37.152 7.1439V13.5119H34.048V16.8079H37.152V24.2639C36.032 24.5519 34.624 24.9039 33.6 25.0959L34.176 28.6799C34.208 28.8399 34.336 28.9039 34.4 28.9039C34.56 28.9039 34.656 28.7759 35.008 28.3919C35.2 28.1679 35.328 28.1359 36.512 27.8479C37.44 27.6239 40.96 26.4399 43.136 25.6079C41.888 26.6959 41.216 27.1759 40.32 27.7199L42.848 29.4159C44.224 28.3919 45.504 27.2719 47.136 25.3519H48.608C47.968 26.3439 45.216 29.8319 40.992 31.7519L43.488 33.5119C45.28 32.3599 46.976 31.0479 48.512 29.5439C50.24 27.8799 51.2 26.1519 51.648 25.3519H53.248C52.096 27.5279 49.44 30.9839 45.952 33.0319L48.352 34.6319C50.24 33.3839 51.36 32.2639 52.288 31.2719L53.568 34.4079C56.128 34.3759 57.696 33.9279 58.656 32.4239C59.776 30.6639 60.384 25.9599 60.416 22.6959H48.768C48.96 22.3759 49.184 21.9279 49.344 21.5439H60.8ZM57.024 25.3519C56.928 27.0479 56.768 28.7439 56 30.2479C55.648 30.9519 55.136 31.1439 54.304 31.1439C54.176 31.1439 53.504 31.1439 52.576 30.9519C54.944 28.2959 55.68 26.6959 56.256 25.3519H57.024Z" fill="#FF0000"/>
<path d="M91.744 20.7759C91.744 13.6399 86.496 9.1279 79.84 9.1279C71.584 9.1279 65.728 15.5919 65.728 22.6959C65.728 28.4239 70.976 31.3039 72.128 31.3039C73.792 31.3039 75.264 28.6159 76.224 26.6319C77.28 24.4879 79.168 20.0079 80.192 12.3919C81.376 12.4879 83.616 12.6159 85.632 14.5359C87.424 16.2319 87.936 18.3759 87.936 20.1359C87.936 21.5439 87.584 24.1999 85.632 26.5039C83.68 28.8399 81.312 29.5119 79.872 29.9279L82.24 33.2239C83.968 32.5199 87.296 31.1439 89.696 27.5919C90.88 25.8319 91.744 23.5919 91.744 20.7759ZM76.384 12.9679C75.744 17.9599 72.992 26.3119 71.328 26.3119C70.752 26.3119 69.28 24.9679 69.28 22.3759C69.28 20.4239 70.208 17.4479 72.48 15.2719C74.016 13.7679 75.456 13.2879 76.384 12.9679Z" fill="#FF0000"/>
<path d="M30.688 52.4719L29.056 50.9039H23.232C23.104 50.2639 23.04 50.0079 22.944 49.3039L19.808 49.5599C19.904 50.3279 19.936 50.3919 20.032 50.9039H16.32L16.384 50.7119C17.024 50.3279 17.088 50.2639 17.088 50.1039C17.088 49.7839 16.768 49.6879 16.096 49.5279L13.888 48.9839C13.088 51.5439 12 54.0079 10.112 55.9279C10.656 54.3599 10.752 54.0079 11.808 50.9359L10.688 49.7199H2.52798L2.52798 76.6639H5.88798V66.9679L7.00798 70.0719C8.06398 70.0399 11.968 69.8479 11.968 65.3039C11.968 64.1839 11.712 63.2879 11.616 62.9039L12.96 64.0239C14.016 63.1919 14.656 62.5839 15.552 61.6879V62.9999H25.344V61.8799C26.112 62.5519 26.784 63.0639 27.808 63.6399L30.496 61.1759C29.536 60.6639 27.296 59.4159 26.368 58.0079C27.488 56.7919 28.928 55.1599 30.688 52.4719ZM29.152 67.7359V64.7919H12.704V67.7359H19.008L19.008 72.4079C19.008 73.3679 18.304 73.3679 17.952 73.3679C17.12 73.3679 16.512 73.2719 16.032 73.1759L17.312 76.6319C20.48 76.5999 22.592 76.3119 22.592 74.2319L22.592 67.7359H29.152ZM26.272 53.5279C25.856 54.1999 25.344 54.8079 24.736 55.3839C24.576 55.0319 24.352 54.5519 23.968 53.5279H26.272ZM23.68 59.9599H17.024C18.144 58.4559 19.136 57.0479 20.672 53.7839C21.6 56.7599 22.528 58.3279 23.68 59.9599ZM17.472 53.5279C17.312 53.9439 17.088 54.4239 16.928 54.7759C16.16 54.3279 15.776 54.1359 15.008 53.8159L15.136 53.5279H17.472ZM8.89598 64.4719C8.89598 66.1999 7.77598 66.2319 5.88798 66.2319L5.88798 52.7279H7.83998L6.33598 58.8079C7.03998 59.7679 8.89598 62.1999 8.89598 64.4719ZM30.304 72.9199C28.96 71.3199 27.584 69.7199 25.888 68.5039L23.456 70.5839C25.024 71.9919 26.368 73.4639 27.584 75.1919L30.304 72.9199ZM17.12 70.2319C17.12 69.9119 16.768 69.7839 16.48 69.6559L13.76 68.5999C12.384 71.1279 11.072 72.7919 9.95198 74.0399L13.088 75.6719C14.336 74.0079 15.136 72.7279 16.128 70.9039C16.736 70.6799 17.12 70.5839 17.12 70.2319ZM15.872 56.7599C15.584 57.2399 15.52 57.3679 15.392 57.5279C14.24 56.7599 14.112 56.6639 13.472 56.3119C13.6 56.1839 13.664 56.0879 14.016 55.5439C14.688 55.9279 15.296 56.3439 15.872 56.7599ZM14.144 59.1919C13.248 60.2159 12.512 60.8879 11.168 61.7199C10.592 60.5359 10.144 59.8319 9.18398 58.5199C9.43998 57.8159 9.50398 57.6879 9.75998 56.9199L11.648 58.5519C11.84 58.3279 12.064 58.1039 12.256 57.8799C12.608 58.0399 13.12 58.3279 14.144 59.1919Z" fill="#FF0000"/>
<path d="M60.384 62.7759C60.384 55.6399 55.136 51.1279 48.48 51.1279C40.224 51.1279 34.368 57.5919 34.368 64.6959C34.368 70.4239 39.616 73.3039 40.768 73.3039C42.432 73.3039 43.904 70.6159 44.864 68.6319C45.92 66.4879 47.808 62.0079 48.832 54.3919C50.016 54.4879 52.256 54.6159 54.272 56.5359C56.064 58.2319 56.576 60.3759 56.576 62.1359C56.576 63.5439 56.224 66.1999 54.272 68.5039C52.32 70.8399 49.952 71.5119 48.512 71.9279L50.88 75.2239C52.608 74.5199 55.936 73.1439 58.336 69.5919C59.52 67.8319 60.384 65.5919 60.384 62.7759ZM45.024 54.9679C44.384 59.9599 41.632 68.3119 39.968 68.3119C39.392 68.3119 37.92 66.9679 37.92 64.3759C37.92 62.4239 38.848 59.4479 41.12 57.2719C42.656 55.7679 44.096 55.2879 45.024 54.9679Z" fill="#FF0000"/>
<path d="M29.856 117.896V114.44H22.08V107.976H27.648V104.296H22.08V99.2399H29.6V95.6559H21.056L22.432 94.5039C21.536 93.2239 20.544 92.1039 18.688 90.7919L15.808 92.9999C16.896 93.8319 17.664 94.5679 18.528 95.6559H11.04V99.2399H17.952V104.296H12.16V107.976H17.952V114.44H10.048V117.896H29.856ZM11.296 93.8959C9.79198 92.5519 8.31998 91.6879 6.17598 90.8239L4.35198 93.8959C6.46398 94.8239 7.80798 95.6239 9.27998 96.8399L11.296 93.8959ZM8.63998 101.512C6.91198 100.072 5.27998 99.2079 3.00798 98.3759L1.37598 101.64C3.90398 102.664 5.37598 103.496 6.91198 104.584L8.63998 101.512ZM10.304 108.872L7.45598 106.536C5.24798 111.88 3.00798 114.856 1.79198 116.392L4.03198 118.024C4.31998 118.248 5.02398 118.696 5.34398 118.696C5.63198 118.696 5.79198 118.44 5.79198 118.184C5.79198 118.088 5.72798 117.576 5.72798 117.448C5.72798 117.32 5.79198 117.224 6.33598 116.296C6.52798 115.976 8.60798 112.456 10.304 108.872Z" fill="#FF0000"/>
<path d="M56.896 110.984V101.512H37.952V110.984H47.232L46.112 111.944C47.104 112.936 47.648 113.576 48.384 114.568L50.848 113.16C50.496 112.68 50.112 112.136 48.864 110.984H56.896ZM53.28 105.032H41.472V103.56H53.28V105.032ZM53.28 108.616H41.472V107.112H53.28V108.616ZM61.248 100.2V97.4159H53.824C54.272 96.6479 54.432 96.2319 54.72 95.5279H59.264V92.9039H49.248V92.3279C49.248 92.2319 49.28 92.1679 49.472 92.0399C49.6 91.9759 49.792 91.8479 49.792 91.7199C49.792 91.5919 49.6 91.4319 49.152 91.3999L45.344 91.1759V92.9039H35.328V95.5279H39.872C40.096 95.9439 40.384 96.4879 40.704 97.4159H33.504V100.2H61.248ZM50.688 95.5279C50.432 96.2639 50.24 96.6799 49.888 97.4159H44.768C44.576 96.9679 44.256 96.2959 43.776 95.5279H50.688ZM60.96 116.168C59.776 114.408 58.816 113.224 57.472 111.816L54.944 113.256C56.064 114.44 57.024 115.592 58.592 117.928L60.96 116.168ZM54.912 114.632L52.032 113.32C52.032 114.696 51.712 115.688 50.848 115.688H45.28C44.672 115.688 44.48 115.24 44.48 114.952V112.808C44.48 112.712 44.608 112.584 44.768 112.424C44.864 112.328 44.96 112.232 44.96 112.104C44.96 111.976 44.768 111.816 44.288 111.784L41.536 111.656V116.36C41.536 117.832 42.24 118.536 44.64 118.536H51.84C54.496 118.536 54.816 115.4 54.912 114.632ZM40.256 113.608C40.256 113.384 39.936 113.16 39.744 113.064L37.408 111.688C36.544 113.288 35.072 115.304 33.856 116.648L36.448 118.28C37.504 116.968 38.464 115.56 39.36 114.12C39.456 113.96 39.488 113.96 39.84 113.896C39.936 113.896 40.256 113.864 40.256 113.608Z" fill="#FF0000"/>
<path d="M92.192 109.96V107.464H90.4V103.752H80.48V102.536H88.32V96.6479H80.48V95.5279H92.064V92.7759H80.48V92.1679C80.48 92.0079 80.608 91.9119 80.672 91.8799C80.96 91.6559 81.024 91.6239 81.024 91.4319C81.024 91.2399 80.8 91.1759 80.64 91.1439L76.864 90.6639V92.7759H65.248V95.5279H76.864V96.6479H68.992V102.536H76.864V103.752H67.104V106.248H76.864V107.464H65.248V109.96H76.864V111.336H67.104V113.832H76.864V114.792C76.864 115.368 76.384 115.528 75.872 115.528C75.328 115.528 74.432 115.432 73.6 115.368L75.2 118.856C79.68 118.824 80.48 117.992 80.48 116.136V113.832H87.04V114.696H90.4V109.96H92.192ZM85.024 100.36H80.48V98.8239H85.024V100.36ZM76.864 100.36H72.256V98.8239H76.864V100.36ZM87.04 107.464H80.48V106.248H87.04V107.464ZM87.04 111.336H80.48V109.96H87.04V111.336Z" fill="#FF0000"/>
<path d="M124.352 116.104C121.056 115.208 119.36 114.024 118.24 113.16H122.24V97.3519H115.744C116.48 95.8159 116.672 95.1759 116.864 94.5999H123.872V91.7199H106.432V93.7359H96.224V96.8399H99.648V108.296C98.368 108.552 96.96 108.84 95.616 109.032L96.224 112.584C96.224 112.712 96.288 112.84 96.48 112.84C96.64 112.84 96.672 112.808 96.928 112.552C97.12 112.36 97.312 112.296 97.952 112.168C102.112 111.24 105.568 110.152 106.944 109.704V106.504C105.696 106.92 104 107.336 103.296 107.496V96.8399H107.104V94.5999H112.96C112.704 95.7199 112.48 96.3599 112.128 97.3519H108.128V113.16H110.592C108.992 114.76 107.392 115.688 104.992 116.52L107.488 118.888C109.76 117.928 111.424 116.648 112.864 115.432C113.216 115.144 113.28 115.144 113.76 115.08C113.792 115.08 114.08 115.016 114.08 114.824C114.08 114.728 114.048 114.632 113.984 114.568L112.544 113.16H117.888L115.968 115.016C118.048 116.968 120.192 117.896 122.208 118.632L124.352 116.104ZM118.688 106.024H111.68V104.264H118.688V106.024ZM118.688 101.832H111.68V100.104H118.688V101.832ZM118.688 110.312H111.68V108.456H118.688V110.312Z" fill="#FF0000"/>
</svg>
