<svg width="64" height="79" viewBox="0 0 64 79" fill="none" xmlns="http://www.w3.org/2000/svg">
<path d="M50.2961 5.496V3.12H47.3201C47.4161 2.856 47.8481 1.44 47.8721 1.416C47.9201 1.368 48.2081 1.224 48.2561 1.176C48.3041 1.152 48.3041 1.104 48.3041 1.056C48.3041 0.864 47.9921 0.768 47.8961 0.744L45.8081 0.12C45.5681 1.656 44.9921 3.384 43.9361 5.232V3.768H42.5681V2.472H44.3681V0.672L37.9841 0.672V3.288C37.4321 2.904 36.5201 2.28 35.9921 1.368C36.0641 1.224 36.0881 1.152 36.0881 1.032C36.0881 0.864 35.9201 0.648 35.6561 0.576L33.3041 0C32.5121 1.968 31.0721 3.768 28.8401 5.232L30.4481 7.128C30.6881 6.96 30.9281 6.768 31.1201 6.6V7.512H32.6561V8.952H30.3521V11.256H32.6561V17.136C32.0321 17.232 30.8081 17.448 29.6081 17.52L30.2081 19.944C30.2081 19.992 30.3281 20.448 30.5441 20.448C30.6401 20.448 30.6881 20.376 30.8801 20.088C30.9521 19.944 31.0001 19.92 31.4801 19.8C33.4001 19.344 35.2961 18.816 37.1681 18.264V20.016H50.2721V17.88H49.4561V12.504H38.6081V17.88H38.0321L38.0801 15.72C37.0241 16.176 36.0161 16.416 35.1281 16.656V11.256H37.6961V8.952H35.1281V7.512H37.4321V5.304H36.8801L37.9841 4.032V11.472H44.3681V9.912H42.5681V8.352H43.9361V6.48L45.4001 7.248C45.8561 6.648 46.1441 6 46.3841 5.496H50.2961ZM42.2801 6.792H39.7841V5.304H42.2801V6.792ZM40.7921 3.768H39.7841V2.472H40.7921V3.768ZM40.7921 9.912H39.7841V8.352H40.7921V9.912ZM44.5841 17.88H43.4321V14.304H44.5841V17.88ZM47.3921 17.88H46.2641V14.304H47.3921V17.88ZM41.8001 17.88H40.6721V14.304H41.8001V17.88ZM37.9121 12.432L36.0641 12.048C35.9201 13.056 35.6561 14.256 35.1761 15.36L37.2161 15.768C37.6001 14.664 37.8401 13.32 37.8881 13.032C38.1761 12.912 38.3201 12.864 38.3201 12.72C38.3201 12.552 38.1041 12.48 37.9121 12.432ZM36.7601 5.304H32.5121C33.1601 4.608 33.8081 3.864 34.5041 2.88C35.1761 3.792 35.9681 4.656 36.7601 5.304ZM49.7441 10.56V8.352H45.2801V10.56H49.7441ZM32.5601 15.768C32.2961 14.28 32.0801 13.272 31.7681 12.216L29.6081 12.672C29.9921 13.728 30.2321 14.688 30.4241 16.416L32.5601 15.768Z" fill="#FF0000"/>
<path d="M50.3921 47.384C47.3921 47.312 45.4961 46.52 44.4641 46.088H47.9681V38.432H32.0081V46.088H35.6321C33.2801 47.408 31.1201 47.6 29.7281 47.648L31.6241 49.856C33.7841 49.52 35.9201 48.944 38.5361 47.624C39.0401 47.672 39.4001 47.696 39.4001 47.408C39.4001 47.288 39.3281 47.216 39.2321 47.144L38.0561 46.088H41.7761L40.8641 47.24C41.9681 47.816 44.4881 49.136 48.4961 49.832L50.3921 47.384ZM45.3041 42.56H34.6721V41.864H45.3041V42.56ZM45.3041 40.64H34.6721V39.968H45.3041V40.64ZM45.3041 44.552H34.6721V43.784H45.3041V44.552ZM46.4801 37.664V33.944H33.4961V37.664H46.4801ZM50.0081 36.392V31.328H45.8561C46.5281 30.44 46.5761 30.392 46.7441 30.344C47.1521 30.248 47.2241 30.224 47.2241 30.032C47.2241 29.84 46.8641 29.696 46.6241 29.6L44.4641 28.808C44.1761 29.384 43.4081 30.464 43.0001 30.944L44.1521 31.328H41.4881V29.936C41.4881 29.792 41.5601 29.696 41.7761 29.528C41.8961 29.456 42.0161 29.36 42.0161 29.192C42.0161 28.952 41.5601 28.904 41.5361 28.904L38.4641 28.736V31.328H35.6801L36.7841 30.8C36.2081 29.984 35.8241 29.528 34.9601 28.712L32.7041 29.696C33.4481 30.464 33.5441 30.56 34.0961 31.328H29.9441V36.56H32.6081V33.296H47.3201V36.392H50.0081ZM43.8161 36.272H36.1601V35.336H43.8161V36.272Z" fill="#FF0000"/>
<path d="M49.6961 72.568V61.888H41.4161V59.032C41.4161 58.888 41.5601 58.792 41.7521 58.672C41.8481 58.6 42.0161 58.504 42.0161 58.336C42.0161 58.12 41.8001 58.096 41.6561 58.072L38.6561 57.808V61.888H30.4241L30.4241 72.664H33.1841V71.608H38.6561V78.424H41.4161V71.608H46.9361V72.568H49.6961ZM46.9361 69.016H41.4161V64.504H46.9361V69.016ZM38.6561 69.016H33.1841V64.504H38.6561V69.016Z" fill="#FF0000"/>
</svg>
