<svg width="64" height="119" viewBox="0 0 64 119" fill="none" xmlns="http://www.w3.org/2000/svg">
<path d="M50.296 6.768V4.75201H42.592C42.616 4.53601 42.616 4.32 42.616 4.104C43.312 4.08 44.872 4.03201 47.08 3.79201C47.368 3.768 48.616 3.60001 48.808 3.60001C48.928 3.60001 49.504 3.69601 49.624 3.69601C49.72 3.69601 49.888 3.64801 49.888 3.48001C49.888 3.38401 49.816 3.216 49.648 3L48.256 1.29601C46.384 1.776 44.704 2.08801 42.208 2.232L40.024 1.992C40.12 2.90401 40.168 3.672 40.168 4.08001C40.168 7.27201 38.056 8.28001 37.168 8.68801L38.272 9.55201H35.968V7.22401C36.568 7.12801 38.272 6.91201 38.92 6.81601L38.992 4.92001C38.008 5.01601 37.792 5.04001 35.968 5.25601V4.51201H39.328V2.40001H35.968C35.968 2.328 36.184 2.112 36.232 2.04001C36.28 1.992 36.328 1.92001 36.328 1.82401C36.328 1.656 36.232 1.56 35.608 1.51201L33.136 1.29601V2.40001H29.776V4.51201H33.136V5.56801C31.504 5.76 30.52 5.856 29.704 5.90401L29.968 7.84801C30.016 8.25601 30.04 8.37601 30.184 8.37601C30.256 8.37601 30.28 8.35201 30.544 8.13601C30.664 8.01601 30.808 7.92001 30.952 7.89601C31.288 7.84801 32.824 7.656 33.136 7.63201C33.136 8.25601 33.136 8.52 32.32 8.52C31.984 8.52 31.648 8.49601 31.288 8.44801L32.704 11.04C33.76 11.04 34.312 10.944 34.936 10.728V11.328H45.208V10.584H47.56V6.768H50.296ZM44.992 9.55201H40.504C41.56 8.25601 41.896 7.68001 42.232 6.768H44.992V9.55201ZM47.944 22.248V18.024H32.128V22.224H34.792V21.624H45.256V22.248H47.944ZM45.256 20.16H34.792V19.56H45.256V20.16ZM50.248 13.56V11.88H29.752V13.56H50.248ZM47.224 15.504V14.04H32.728V15.504H47.224ZM47.2 17.52V16.032H32.728V17.52H47.2Z" fill="#00FFFF" style="mix-blend-mode:difference"/>
<path d="M50.128 41.504V37.016H43.552C43.84 36.44 43.888 36.272 44.176 35.504C44.296 35.192 44.32 35.168 44.68 35C44.776 34.952 44.848 34.88 44.848 34.76C44.848 34.64 44.728 34.568 44.608 34.52L42.064 33.68C40.744 37.64 39.592 39.32 38.512 40.712L40.384 42.224C41.056 41.48 41.488 40.808 42.184 39.608H47.632V41.24C47.632 44.912 47.2 48.104 46.72 49.688C46.264 51.2 45.784 51.392 45.016 51.392C44.152 51.392 43.384 51.296 42.88 51.248L44.2 54.056H45.232C46.792 54.056 48.088 53.744 48.76 51.824C49.648 49.328 50.128 44.912 50.128 41.504ZM45.232 47.072C44.584 44.792 43.96 43.376 43.36 42.2L41.2 43.064C41.728 44.12 42.376 45.488 43.072 47.792L45.232 47.072ZM39.592 44.984C39.352 43.52 38.992 42.176 38.488 40.76L36.328 41.264C36.496 41.72 36.616 42.224 36.736 42.656C35.704 42.776 35.2 42.824 34.432 42.872C35.776 41.432 37.072 39.92 38.296 38.36C38.632 37.928 38.656 37.88 39.04 37.856C39.064 37.856 39.304 37.808 39.304 37.592C39.304 37.544 39.28 37.4 39.136 37.328L36.952 36.008C36.376 36.992 35.728 38.048 34.336 39.968C34.024 39.56 33.76 39.272 33.352 38.864C34.408 37.496 34.6 37.208 35.824 35.36C35.872 35.288 35.944 35.24 36.256 35.096C36.352 35.048 36.4 34.976 36.4 34.904C36.4 34.856 36.352 34.76 36.232 34.688L34.096 33.536C33.496 34.952 32.944 36.08 31.912 37.568C31.696 37.376 31.48 37.208 31.096 36.944L29.608 38.96C30.712 39.704 31.72 40.472 32.944 41.84C32.608 42.296 32.248 42.68 32.008 42.968C31 43.016 30.472 43.016 29.44 43.016L29.92 45.8C29.944 45.92 30.064 46.016 30.136 46.016C30.256 46.016 30.328 45.944 30.52 45.752C30.712 45.536 30.88 45.512 31.048 45.512C31.36 45.464 32.32 45.368 33.184 45.272V54.176H35.632V44.936C36.04 44.864 36.376 44.84 37.216 44.624C37.312 45.08 37.36 45.392 37.408 45.608L39.592 44.984ZM39.616 50.888C39.328 50.024 38.896 48.512 38.608 46.4L36.664 46.808C36.856 48.392 37.096 49.616 37.6 51.416L39.616 50.888ZM32.824 47.336C32.824 47.192 32.536 47.12 32.392 47.096L30.424 46.736C30.256 49.448 29.872 50.888 29.416 52.16L31.48 52.712C32.176 50.984 32.32 49.736 32.44 47.744C32.704 47.552 32.824 47.456 32.824 47.336Z" fill="#00FFFF" style="mix-blend-mode:difference"/>
<path d="M50.104 79.72V77.848H48.76V75.064H41.32V74.152H47.2V69.736H41.32V68.896H50.008V66.832H41.32V66.376C41.32 66.256 41.416 66.184 41.464 66.16C41.68 65.992 41.728 65.968 41.728 65.824C41.728 65.68 41.56 65.632 41.44 65.608L38.608 65.248V66.832H29.896L29.896 68.896H38.608V69.736H32.704V74.152H38.608V75.064H31.288V76.936H38.608V77.848H29.896V79.72H38.608V80.752H31.288V82.624H38.608V83.344C38.608 83.776 38.248 83.896 37.864 83.896C37.456 83.896 36.784 83.824 36.16 83.776L37.36 86.392C40.72 86.368 41.32 85.744 41.32 84.352V82.624H46.24V83.272H48.76V79.72H50.104ZM44.728 72.52H41.32V71.368H44.728V72.52ZM38.608 72.52H35.152V71.368H38.608V72.52ZM46.24 77.848H41.32V76.936H46.24V77.848ZM46.24 80.752H41.32V79.72H46.24V80.752Z" fill="#00FFFF" style="mix-blend-mode:difference"/>
<path d="M50.704 116.328C48.232 115.656 46.96 114.768 46.12 114.12H49.12V102.264H44.248C44.8 101.112 44.944 100.632 45.088 100.2H50.344V98.04H37.264V99.552H29.608V101.88H32.176V110.472C31.216 110.664 30.16 110.88 29.152 111.024L29.608 113.688C29.608 113.784 29.656 113.88 29.8 113.88C29.92 113.88 29.944 113.856 30.136 113.664C30.28 113.52 30.424 113.472 30.904 113.376C34.024 112.68 36.616 111.864 37.648 111.528V109.128C36.712 109.44 35.44 109.752 34.912 109.872V101.88H37.768V100.2H42.16C41.968 101.04 41.8 101.52 41.536 102.264H38.536V114.12H40.384C39.184 115.32 37.984 116.016 36.184 116.64L38.056 118.416C39.76 117.696 41.008 116.736 42.088 115.824C42.352 115.608 42.4 115.608 42.76 115.56C42.784 115.56 43 115.512 43 115.368C43 115.296 42.976 115.224 42.928 115.176L41.848 114.12H45.856L44.416 115.512C45.976 116.976 47.584 117.672 49.096 118.224L50.704 116.328ZM46.456 108.768H41.2V107.448H46.456V108.768ZM46.456 105.624H41.2V104.328H46.456V105.624ZM46.456 111.984H41.2V110.592H46.456V111.984Z" fill="#00FFFF" style="mix-blend-mode:difference"/>
<path d="M9.59394 19V17.11H3.50994C4.06794 16.012 4.51794 15.508 6.28194 14.284C7.99194 13.096 9.48594 11.908 9.48594 9.80201C9.48594 7.49801 7.73994 5.62601 5.03994 5.62601C0.971941 5.62601 0.82794 9.31601 0.79194 10.486H3.07794C3.09594 9.51401 3.14994 7.62401 4.96794 7.62401C6.15594 7.62401 7.01994 8.56001 7.01994 9.80201C7.01994 10.954 6.44394 11.674 4.51794 13.078C1.54794 15.256 0.73794 16.66 0.41394 19H9.59394Z" fill="#00FFFF" style="mix-blend-mode:difference"/>
<path d="M13.1879 19V16.516H10.7579V19H13.1879Z" fill="#00FFFF" style="mix-blend-mode:difference"/>
</svg>
