<svg width="248" height="75" viewBox="0 0 248 75" fill="none" xmlns="http://www.w3.org/2000/svg">
<path d="M29.176 9.72005C26.648 8.98405 24.088 7.57604 22.968 6.90405C20.952 5.65604 19.128 4.12004 17.56 2.32804C17.72 2.26404 17.848 2.10404 17.848 1.91204C17.848 1.68805 17.624 1.52804 17.368 1.49604L12.792 0.696045C9.88001 5.33604 6.55201 8.31204 1.11201 10.456L3.54401 13.272C4.95201 12.664 5.91201 12.184 7.54401 11.192V13.816H22.968V11.096C23.928 11.64 25.016 12.248 26.648 12.792L29.176 9.72005ZM22.168 10.648H8.40801C11.032 8.76004 12.728 7.19205 15.032 4.37605C17.56 7.38404 19.448 8.85604 22.168 10.648ZM27.448 26.392C25.56 23.96 22.744 21.016 19.992 18.84H26.744V15.736H3.22401V18.84H10.488C9.04801 21.592 8.37601 22.712 7.57601 23.992C5.97601 24.056 5.08001 24.088 3.06401 24.088L4.08801 28.28C4.12001 28.44 4.28001 28.568 4.37601 28.568C4.47201 28.568 4.56801 28.472 4.76001 28.088C4.82401 27.96 4.92001 27.896 5.08001 27.864C5.84801 27.736 9.24001 27.448 9.91201 27.384C10.84 27.288 18.04 26.488 22.424 25.944C23.832 27.608 24.216 28.312 24.536 28.792L27.448 26.392ZM19.832 23.16C17.176 23.48 14.52 23.64 11.832 23.768C12.408 22.904 13.336 21.496 14.84 18.84H19.64L17.336 21.176C18.616 22.04 19.384 22.744 19.832 23.16Z" fill="#00FFFF" style="mix-blend-mode:difference"/>
<path d="M57.4 11.736V1.65604L44.408 1.65604V11.736H57.4ZM54.296 5.68805L47.512 5.68805V4.34405H54.296V5.68805ZM54.296 9.33604H47.512V7.96004L54.296 7.96004V9.33604ZM59.8 15.544V12.952H42.04V15.544H45.08C44.44 16.888 43.864 17.752 42.744 18.968V16.312C41.688 16.696 40.632 17.016 39.512 17.336V10.808H42.84V7.51204H39.512V2.77604C39.512 2.55204 39.768 2.39204 39.928 2.29605C40.12 2.13605 40.28 2.00805 40.28 1.78404C40.28 1.56005 40.056 1.46404 39.864 1.43204L36.152 1.14404V7.51204H33.048V10.808H36.152V18.264C35.032 18.552 33.624 18.904 32.6 19.096L33.176 22.68C33.208 22.84 33.336 22.904 33.4 22.904C33.56 22.904 33.656 22.776 34.008 22.392C34.2 22.168 34.328 22.136 35.512 21.848C36.44 21.624 39.96 20.44 42.136 19.608C40.888 20.696 40.216 21.176 39.32 21.72L41.848 23.416C43.224 22.392 44.504 21.272 46.136 19.352H47.608C46.968 20.344 44.216 23.832 39.992 25.752L42.488 27.512C44.28 26.36 45.976 25.048 47.512 23.544C49.24 21.88 50.2 20.152 50.648 19.352H52.248C51.096 21.528 48.44 24.984 44.952 27.032L47.352 28.632C49.24 27.384 50.36 26.264 51.288 25.272L52.568 28.408C55.128 28.376 56.696 27.928 57.656 26.424C58.776 24.664 59.384 19.96 59.416 16.696H47.768C47.96 16.376 48.184 15.928 48.344 15.544H59.8ZM56.024 19.352C55.928 21.048 55.768 22.744 55 24.248C54.648 24.952 54.136 25.144 53.304 25.144C53.176 25.144 52.504 25.144 51.576 24.952C53.944 22.296 54.68 20.696 55.256 19.352H56.024Z" fill="#00FFFF" style="mix-blend-mode:difference"/>
<path d="M63.704 21.752C66.2 23.768 68.216 26.072 69.88 28.856L73.208 26.2C71.224 22.84 68.792 20.824 66.104 19.256L63.704 21.752Z" fill="#00FFFF" style="mix-blend-mode:difference"/>
<path d="M121.24 23.16C118.616 20.312 115.864 17.592 112.76 15.256C114.776 12.12 115.384 10.648 116.472 8.08805C116.856 7.16005 117.56 6.61604 118.2 6.16805L115.736 3.44804C115.16 3.83204 114.68 4.15204 114.072 4.15204L100.28 4.15204V7.86404H112.472C111.736 9.68805 110.488 12.92 107.032 16.6C102.968 20.92 98.904 22.616 96.824 23.512L99.64 26.424C105.656 23.48 108.024 21.048 110.584 18.2C113.208 20.312 115.48 22.616 118.392 26.2L121.24 23.16Z" fill="#00FFFF" style="mix-blend-mode:difference"/>
<path d="M151.512 8.24804L149.144 5.78404C148.664 6.10404 148.088 6.55204 147.704 6.55204L140.344 6.55204C140.984 5.46404 141.592 4.21605 141.976 3.44804C142.424 3.25604 142.712 3.12804 142.712 2.93604C142.712 2.71204 142.264 2.52004 142.072 2.45605L138.552 1.43204C137.176 5.43204 134.104 10.904 129.592 13.976L132.568 16.184C134.68 14.52 136.248 12.632 138.36 9.68805H146.552C146.104 11.288 145.592 12.76 143.672 15.608C141.464 14.104 140.152 13.4 138.232 12.568L136.28 14.968C138.712 16.28 140.216 17.336 141.56 18.328C139.16 20.856 136.44 23.576 131.256 25.368L134.136 28.376C139.512 25.56 141.816 23.32 144.28 20.568C145.624 21.752 146.232 22.392 146.776 22.904L149.144 20.152C148.024 19.064 147.256 18.392 146.456 17.72C148.6 14.36 149.24 12.536 150.136 10.04C150.392 9.30404 150.936 8.72804 151.512 8.24804Z" fill="#00FFFF" style="mix-blend-mode:difference"/>
<path d="M173.176 13.848C172.824 12.536 172.184 10.552 171 8.66405L168.152 9.75204C169.144 11.384 169.88 13.016 170.424 14.936L173.176 13.848ZM181.592 10.424C181.592 10.2 181.368 9.97605 180.952 9.84805L177.816 8.88804C176.6 17.944 172.248 22.328 166.04 25.4L168.6 27.672C171.672 25.88 178.136 22.136 180.536 12.312C180.856 11.064 180.888 10.936 181.176 10.776C181.528 10.648 181.592 10.616 181.592 10.424ZM167.512 15.384C166.968 13.592 166.136 11.928 165.048 10.232L162.104 11.352C163.16 12.984 163.992 14.68 164.536 16.504L167.512 15.384Z" fill="#00FFFF" style="mix-blend-mode:difference"/>
<path d="M214.52 6.64804L211.352 3.76805C211.032 4.02404 210.68 4.28004 210.296 4.28004H192.216V8.02404L209.24 8.02404C205.944 17.688 200.248 21.816 194.712 24.408L198.2 27.224C200.12 26.168 203.672 24.248 206.968 20.216C210.424 16.024 211.96 11.992 213.4 8.24804C213.656 7.57604 213.944 7.19205 214.52 6.64804Z" fill="#00FFFF" style="mix-blend-mode:difference"/>
<path d="M247.544 14.776C247.544 7.64005 242.296 3.12804 235.64 3.12804C227.384 3.12804 221.528 9.59204 221.528 16.696C221.528 22.424 226.776 25.304 227.928 25.304C229.592 25.304 231.064 22.616 232.024 20.632C233.08 18.488 234.968 14.008 235.992 6.39204C237.176 6.48804 239.416 6.61604 241.432 8.53605C243.224 10.232 243.736 12.376 243.736 14.136C243.736 15.544 243.384 18.2 241.432 20.504C239.48 22.84 237.112 23.512 235.672 23.928L238.04 27.224C239.768 26.52 243.096 25.144 245.496 21.592C246.68 19.832 247.544 17.592 247.544 14.776ZM232.184 6.96804C231.544 11.96 228.792 20.312 227.128 20.312C226.552 20.312 225.08 18.968 225.08 16.376C225.08 14.424 226.008 11.448 228.28 9.27205C229.816 7.76805 231.256 7.28804 232.184 6.96804Z" fill="#00FFFF" style="mix-blend-mode:difference"/>
<path d="M28.824 61.384L26.008 59.656C25.944 60.552 25.848 61.864 25.08 61.864C24.504 61.864 23.608 61.096 23.096 60.616C24.216 59.048 25.272 57.448 25.976 55.816C26.04 55.688 26.168 55.656 26.328 55.624C26.52 55.592 26.744 55.56 26.744 55.368C26.744 55.272 26.712 55.144 26.104 54.856L23.32 53.48C22.52 55.496 21.912 56.616 21.144 57.864C20.696 57 20.12 55.816 19.64 53.192H28.664V50.056H24.504L26.008 49.096C25.208 48.072 24.504 47.4 23.704 46.792L21.08 48.232C21.912 49.096 22.328 49.512 22.808 50.056H19.32C19.32 49.896 19.256 48.296 19.32 48.168C19.416 48.04 20.056 47.656 20.056 47.528C20.056 47.272 19.704 47.176 19.128 47.144L15.96 46.952C15.928 48.072 15.928 48.808 16.024 50.056H3.19201C3.25601 51.496 3.32001 52.968 3.32001 54.312C3.32001 59.848 2.20001 62.056 0.76001 64.648L3.86401 66.248C5.94401 62.888 6.58401 60.072 6.52001 53.192H16.472C17.272 57.256 18.2 59.144 19.064 60.68C17.496 62.408 16.44 63.016 15.704 63.464V57.928H7.19201V64.84H9.91201V63.784H15.416L17.976 66.088C19.16 65.32 20.024 64.392 21.016 63.272C23.544 65.768 25.4 66.056 25.944 66.056C28.056 66.056 28.76 62.216 28.824 61.384ZM13.304 61.64H9.91201V59.912H13.304V61.64ZM15.832 56.712V54.28H7.38401V56.712H15.832ZM28.984 71.688C27.896 69.544 26.168 67.24 25.272 66.088L22.2 67.976C23.352 69.192 24.6 70.76 26.072 73.608L28.984 71.688ZM18.264 68.424C17.624 67.432 16.568 66.088 15.416 64.872L12.984 66.536C13.976 67.624 15.032 69.128 15.576 70.056L18.264 68.424ZM22.808 70.024L19.864 68.2C19.64 71.016 18.456 71.112 17.592 71.112H13.56C13.176 71.112 12.056 71.048 12.056 70.152V67.432C12.056 67.304 12.216 67.208 12.312 67.144C12.536 67.016 12.6 66.888 12.6 66.76C12.6 66.504 12.408 66.504 11.896 66.472L8.56801 66.28V72.488C8.56801 73.608 9.97601 74.376 11.192 74.376H18.584C21.112 74.376 21.752 73.288 22.04 72.808C22.776 71.56 22.808 70.696 22.808 70.024ZM7.96001 68.008C7.96001 67.752 7.57601 67.56 7.38401 67.464L4.40801 66.056C3.86401 67.656 2.77601 70.344 1.11201 72.488L3.99201 74.408C5.59201 72.424 6.55201 70.216 7.19201 68.456C7.25601 68.36 7.32001 68.328 7.76801 68.2C7.89601 68.168 7.96001 68.136 7.96001 68.008Z" fill="#00FFFF" style="mix-blend-mode:difference"/>
<path d="M40.536 49.256C39.352 48.584 37.656 47.72 35.512 47.144L34.136 50.024C35.384 50.376 37.08 50.92 38.872 51.848L40.536 49.256ZM60.856 56.488L57.208 55.56C57.208 56.232 57.144 56.904 56.984 57.576C56.792 58.28 56.504 58.504 56.088 58.504C55.576 58.504 55.416 58.248 55.416 57.544C55.416 57.416 55.64 50.888 55.672 49.64L49.976 49.96C50.008 49.576 49.944 49 50.008 48.616C50.04 48.488 50.104 48.36 50.36 48.168C50.648 47.976 50.712 47.912 50.712 47.752C50.712 47.4 50.264 47.304 49.944 47.304L46.328 47.144C46.328 48.68 46.296 49.256 46.296 50.184L41.432 50.44L41.496 53.96L45.976 53.704C45.336 57.288 43.864 58.632 39.672 60.52L42.552 62.888C43.032 62.728 43.576 62.504 44.376 62.056V63.336H35.32C35.352 62.504 35.448 62.408 36.248 61.8C38.2 60.296 40.024 58.92 41.656 57.544L40.248 54.728C37.528 57.064 35.704 58.312 32.504 60.04L34.296 63.016C34.36 63.112 34.392 63.144 34.52 63.336H32.664V66.472H41.496C39.224 68.936 37.24 70.024 32.024 71.752L34.968 74.568C38.616 73.16 41.784 71.176 44.376 68.264V74.568H48.216V68.424C51.224 71.176 53.304 72.488 57.72 74.28L60.824 71.112C56.472 70.216 53.72 69.064 51.096 66.472H60.088V63.336H48.216V62.184C48.216 62.024 48.344 61.928 48.536 61.768C48.696 61.672 48.856 61.576 48.856 61.384C48.856 61 48.344 60.936 48.024 60.904L46.104 60.808C47.576 59.368 48.856 57.768 49.656 53.448L51.992 53.32C51.896 55.144 51.768 58.184 51.768 59.4C51.768 61.608 52.216 62.056 54.296 62.056H56.76C58.744 62.056 60.088 62.024 60.856 56.488ZM38.296 53.352C36.44 52.36 34.712 51.848 33.336 51.528L32.184 54.536C33.656 54.888 35.512 55.4 37.144 56.264L38.296 53.352Z" fill="#00FFFF" style="mix-blend-mode:difference"/>
<path d="M91.416 58.792V55.528H88.664V48.68C88.664 48.488 88.728 48.424 89.176 48.04C89.368 47.88 89.464 47.752 89.464 47.56C89.464 47.176 88.984 47.08 88.728 47.08L85.144 46.888V55.528H77.976V58.792H85.144V69.992C85.144 71.112 84.888 71.336 81.592 71.144L83.32 74.6C87.64 74.536 88.664 74.152 88.664 70.76V58.792H91.416ZM83.192 65.736C82.584 63.592 81.624 61.992 80.44 60.488L77.336 62.216C78.712 64.104 79.384 65.672 79.896 67.304L83.192 65.736ZM79.384 54.824V51.56H73.56V48.424C73.912 48.072 74.2 48.008 74.2 47.688C74.2 47.432 73.944 47.336 73.784 47.336L69.752 47.08V51.56H63.992V54.824H73.176C72.44 58.504 72.312 59.08 71.512 61.16C69.624 58.632 68.632 57.672 67.448 56.648L64.6 58.728C66.776 60.648 68.024 62.184 69.752 64.68C67.576 68.456 65.08 70.568 62.744 72.488L66.072 74.664C69.24 71.976 70.712 69.864 71.864 68.104C72.728 69.736 73.304 70.952 74.072 72.808L77.432 70.76C75.96 67.848 74.872 66.088 73.88 64.488C74.744 62.568 75.832 60.104 76.824 54.824H79.384Z" fill="#00FFFF" style="mix-blend-mode:difference"/>
<path d="M122.712 58.312V55.464H110.84V54.888C110.84 54.728 110.872 54.664 111.16 54.376C111.224 54.312 111.288 54.216 111.288 54.056C111.288 53.896 111.192 53.8 111.064 53.736L110.616 53.48C111.032 53.064 111.224 52.84 111.768 52.104H113.784C114.104 52.936 114.264 53.736 114.36 54.344L117.784 54.184C117.656 53.576 117.496 52.968 117.144 52.104H122.616V49.256H113.592C113.656 49.096 113.944 48.456 114.008 48.328C114.04 48.264 114.392 48.104 114.424 48.104C114.552 48.04 114.584 47.912 114.584 47.816C114.584 47.656 114.456 47.56 114.296 47.528L110.968 46.696C110.68 47.656 110.264 49.032 108.568 51.368V49.256H101.624C101.72 49.096 102.04 48.328 102.136 48.2C102.2 48.104 102.68 47.848 102.776 47.784C102.808 47.752 102.904 47.656 102.904 47.56C102.904 47.432 102.776 47.336 102.584 47.272L99.416 46.408C97.976 49.704 96.632 51.336 95.224 52.84L97.88 54.248C98.424 53.704 98.84 53.256 99.736 52.104H101.368C101.592 52.68 101.784 53.288 102.008 54.376L105.368 54.056C105.272 53.352 105.144 52.808 104.856 52.104H107.96C107.48 52.68 107.224 52.936 106.872 53.256L107.128 53.384V55.464H95.608V58.312H107.128V60.04H97.4V67.816H101.208V62.984H106.328C102.008 68.328 98.808 70.28 95.16 71.688L97.624 74.344C101.4 72.552 104.632 70.088 107.128 67.08V74.632H110.84V67.304C113.272 70.248 116.568 72.648 119.704 74.344L122.36 71.56C117.88 69.864 113.944 67.208 111.512 62.984H117.24V64.36C117.24 64.904 116.888 64.968 116.632 64.968C116.248 64.968 115.832 64.904 115.448 64.84L116.536 68.072H118.264C120.088 68.072 120.888 67.368 120.888 65.928V60.04H110.84V58.312H122.712Z" fill="#00FFFF" style="mix-blend-mode:difference"/>
</svg>
