<svg width="252" height="84" viewBox="0 0 252 84" fill="none" xmlns="http://www.w3.org/2000/svg">
<path d="M29.7599 23.08V19.88H22.9119C24.1599 17.608 24.4479 16.968 25.0239 15.56C25.0879 15.4 25.1199 15.4 25.4719 15.24C25.5999 15.176 25.6959 15.08 25.6959 14.984C25.6959 14.696 25.3119 14.504 25.1519 14.44L22.8159 13.416H28.3519V10.312H17.7919V8.48803C17.7919 8.39203 17.8879 8.29603 18.1119 8.10403C18.2719 7.97603 18.3999 7.84803 18.3999 7.68803C18.3999 7.46403 18.1759 7.36803 17.8239 7.33603L14.3359 6.95203V10.312H3.77594V13.416H8.57594L6.11194 14.568C6.91194 15.88 8.06394 18.504 8.63994 19.88H2.20794V23.08H11.8719C9.63194 26.376 6.30394 29.224 1.88794 31.624L4.60794 34.216C9.37594 31.272 12.0639 28.456 14.3359 25.192V34.568H17.7919V25.704C19.3599 27.944 21.8239 31.272 26.8479 33.96L29.4719 31.208C25.6319 29.256 22.0799 26.728 19.8079 23.08H29.7599ZM22.1439 13.416C21.5039 15.304 20.8959 17.032 19.7759 18.888L21.4079 19.88H17.7919V13.416H22.1439ZM14.3359 19.88H9.79194L11.8399 18.76C11.2639 17.032 9.98394 14.28 9.34394 13.416H14.3359V19.88Z" fill="#FF0000"/>
<path d="M58.3999 17.736V7.65603L45.4079 7.65603V17.736H58.3999ZM55.2959 11.688L48.5119 11.688V10.344H55.2959V11.688ZM55.2959 15.336H48.5119V13.96L55.2959 13.96V15.336ZM60.7999 21.544V18.952H43.0399V21.544H46.0799C45.4399 22.888 44.8639 23.752 43.7439 24.968V22.312C42.6879 22.696 41.6319 23.016 40.5119 23.336V16.808H43.8399V13.512H40.5119V8.77603C40.5119 8.55203 40.7679 8.39203 40.9279 8.29603C41.1199 8.13603 41.2799 8.00803 41.2799 7.78403C41.2799 7.56003 41.0559 7.46403 40.8639 7.43203L37.1519 7.14403V13.512H34.0479V16.808H37.1519V24.264C36.0319 24.552 34.6239 24.904 33.5999 25.096L34.1759 28.68C34.2079 28.84 34.3359 28.904 34.3999 28.904C34.5599 28.904 34.6559 28.776 35.0079 28.392C35.1999 28.168 35.3279 28.136 36.5119 27.848C37.4399 27.624 40.9599 26.44 43.1359 25.608C41.8879 26.696 41.2159 27.176 40.3199 27.72L42.8479 29.416C44.2239 28.392 45.5039 27.272 47.1359 25.352H48.6079C47.9679 26.344 45.2159 29.832 40.9919 31.752L43.4879 33.512C45.2799 32.36 46.9759 31.048 48.5119 29.544C50.2399 27.88 51.1999 26.152 51.6479 25.352H53.2479C52.0959 27.528 49.4399 30.984 45.9519 33.032L48.3519 34.632C50.2399 33.384 51.3599 32.264 52.2879 31.272L53.5679 34.408C56.1279 34.376 57.6959 33.928 58.6559 32.424C59.7759 30.664 60.3839 25.96 60.4159 22.696H48.7679C48.9599 22.376 49.1839 21.928 49.3439 21.544H60.7999ZM57.0239 25.352C56.9279 27.048 56.7679 28.744 55.9999 30.248C55.6479 30.952 55.1359 31.144 54.3039 31.144C54.1759 31.144 53.5039 31.144 52.5759 30.952C54.9439 28.296 55.6799 26.696 56.2559 25.352H57.0239Z" fill="#FF0000"/>
<path d="M92.2879 18.44V15.336H85.4399C86.4639 14.088 87.6159 12.456 87.8399 12.104C88.8639 10.376 88.9599 10.344 89.4079 10.28C90.0479 10.216 90.3039 10.152 90.3039 9.89603C90.3039 9.70403 90.1439 9.57603 90.0479 9.51203L86.4639 7.40003C85.6319 9.03203 84.8639 10.344 83.5199 12.2V9.89603H79.8719V8.39203C79.8719 8.20003 80.1279 8.07203 80.3199 7.97603C80.4479 7.88003 80.6399 7.78403 80.6399 7.56003C80.6399 7.43203 80.4799 7.30403 80.1919 7.30403L76.0959 7.14403V9.89603H67.7439V12.904H76.0959V15.336H65.0559V18.44H77.2159C72.8319 21.48 69.1199 22.952 64.9599 24.136L66.9439 27.24C68.7999 26.536 69.6319 26.216 71.0719 25.608V34.664H74.5279V33.832H85.3759V34.504H88.8959V21.128H79.4239C81.1199 19.848 81.9839 19.048 82.6239 18.44H92.2879ZM85.3759 25.96H74.5279V23.88H85.3759V25.96ZM85.3759 30.984H74.5279V28.712H85.3759V30.984ZM82.9439 12.904C82.5279 13.448 81.9839 14.184 80.8639 15.336H79.8719V12.904L82.9439 12.904Z" fill="#FF0000"/>
<path d="M123.104 20.776C123.104 13.64 117.856 9.12803 111.2 9.12803C102.944 9.12803 97.0879 15.592 97.0879 22.696C97.0879 28.424 102.336 31.304 103.488 31.304C105.152 31.304 106.624 28.616 107.584 26.632C108.64 24.488 110.528 20.008 111.552 12.392C112.736 12.488 114.976 12.616 116.992 14.536C118.784 16.232 119.296 18.376 119.296 20.136C119.296 21.544 118.944 24.2 116.992 26.504C115.04 28.84 112.672 29.512 111.232 29.928L113.6 33.224C115.328 32.52 118.656 31.144 121.056 27.592C122.24 25.832 123.104 23.592 123.104 20.776ZM107.744 12.968C107.104 17.96 104.352 26.312 102.688 26.312C102.112 26.312 100.64 24.968 100.64 22.376C100.64 20.424 101.568 17.448 103.84 15.272C105.376 13.768 106.816 13.288 107.744 12.968Z" fill="#FF0000"/>
<path d="M155.328 16.36L152.512 14.824C152.48 15.24 152.448 15.88 152.064 16.68C151.648 17.48 151.2 17.704 150.176 17.704H146.912C145.696 17.704 145.44 17.352 145.44 16.456V14.376C147.744 13.608 149.952 12.552 152.096 11.432C152.64 11.144 152.704 11.112 152.96 11.112C153.088 11.112 153.792 11.176 153.92 11.144C154.016 11.112 154.048 11.016 154.048 10.92C154.048 10.76 153.856 10.568 153.568 10.344L151.232 8.48803C149.728 9.57603 148.16 10.504 145.44 11.496V8.61603C145.44 8.48803 145.504 8.32803 145.792 8.10403C146.08 7.91203 146.144 7.88003 146.144 7.72003C146.144 7.36803 145.536 7.30403 145.28 7.30403L141.856 7.14403V16.52C141.856 18.632 142.048 19.112 142.208 19.432L138.912 18.856C139.136 18.792 140.256 18.568 140.48 18.536V15.688C138.88 15.976 137.504 16.232 134.24 16.744V13.256H140.992V10.44H134.24V8.45603C134.24 8.26403 134.272 8.26403 134.848 7.88003C135.008 7.78403 135.104 7.68803 135.104 7.52803C135.104 7.36803 135.008 7.17603 134.304 7.14403L130.88 6.95203V17.256C129.504 17.448 128.896 17.544 127.616 17.704L128.384 20.36C128.608 21.096 128.736 21.224 128.928 21.224C129.056 21.224 129.088 21.16 129.408 20.712C129.504 20.616 129.536 20.584 130.592 20.424C134.208 19.816 136.448 19.368 138.464 18.952C138.272 19.848 137.888 21.16 137.44 22.12H131.168V34.504H134.816V33.736H147.968V34.504H151.648V22.12H141.152C141.504 21.32 141.792 20.584 141.888 20.328C141.952 20.2 141.984 20.2 142.208 20.04C142.336 19.944 142.368 19.88 142.4 19.784C142.784 20.2 143.168 20.52 145.472 20.52H151.36C154.016 20.52 154.784 19.432 155.328 16.36ZM147.968 26.6H134.816V24.744H147.968V26.6ZM147.968 30.92H134.816V29.064H147.968V30.92Z" fill="#FF0000"/>
<path d="M186.464 23.24C186.464 23.016 186.112 22.792 186.016 22.728L183.712 21.192C183.136 22.408 182.176 23.976 181.152 24.808L183.52 26.568C184.672 25.416 185.344 24.328 185.76 23.656C185.824 23.592 185.856 23.56 186.144 23.528C186.24 23.528 186.464 23.496 186.464 23.24ZM187.36 30.312C181.344 27.336 179.04 22.6 179.04 21.672V20.872H186.592V18.44H179.04V16.808H184.416V14.376H179.04V12.84H185.92V10.408H181.92C182.08 10.12 182.816 8.61603 182.848 8.58403C182.912 8.48803 182.976 8.48803 183.264 8.39203C183.648 8.29603 183.712 8.16803 183.712 8.00803C183.712 7.65603 183.008 7.49603 182.784 7.43203L180.16 6.82403C179.776 8.13603 179.424 9.12803 178.816 10.408H176.096C175.776 9.73603 174.976 8.00803 174.112 6.72803L171.584 7.68803C172.16 8.61603 172.704 9.67203 172.992 10.408L169.536 10.408V12.84H175.648V14.376H170.848V16.808H175.648V18.44H169.12V20.872H175.648V25.352C173.28 26.696 170.112 27.976 167.648 28.712L168.704 31.176C168.832 31.464 169.12 32.104 169.376 32.104C169.504 32.104 169.6 31.784 169.728 31.432C169.824 31.176 169.888 31.176 170.4 30.952C171.008 30.696 174.272 28.904 175.648 28.072V30.824C175.648 31.496 174.976 31.656 172.832 31.496L174.304 34.664C178.112 34.6 179.04 33.96 179.04 31.08V27.432C180.736 29.768 182.656 31.496 185.088 32.968L187.36 30.312ZM173.792 24.904C173.344 24.104 172.512 22.76 171.424 21.608L169.152 23.4C170.24 24.424 171.072 25.832 171.52 26.6L173.792 24.904ZM169.504 22.248C168.48 21.288 166.656 19.176 166.144 17.64V15.432H168.64V12.488H166.144V8.52003C166.144 8.42403 166.464 8.16803 166.624 8.00803C166.688 7.94403 166.784 7.88003 166.784 7.75203C166.784 7.46403 166.24 7.40003 165.696 7.36803L162.944 7.20803V12.488H159.008V15.432L162.592 15.432C162.24 18.856 160.512 23.272 158.24 26.44L160.96 28.072C161.664 27.016 162.464 25.736 162.944 24.328V34.472H166.144V22.856C166.464 23.304 166.624 23.496 167.552 24.488L169.504 22.248Z" fill="#FF0000"/>
<path d="M218.176 26.696C214.208 23.976 211.008 20.584 205.28 14.024C203.744 12.232 203.072 11.496 201.568 11.496C199.744 11.496 198.624 13.064 198.144 13.704C195.008 17.928 193.088 20.552 190.176 23.144L193.76 25.448C195.456 23.592 198.912 18.952 199.968 17.512C200.256 17.096 200.928 16.2 201.824 16.2C202.624 16.2 203.008 16.712 204.064 18.024C207.456 22.376 211.04 26.6 215.296 30.152L218.176 26.696Z" fill="#FF0000"/>
<path d="M248.544 20.776C248.544 13.64 243.296 9.12803 236.64 9.12803C228.384 9.12803 222.528 15.592 222.528 22.696C222.528 28.424 227.776 31.304 228.928 31.304C230.592 31.304 232.064 28.616 233.024 26.632C234.08 24.488 235.968 20.008 236.992 12.392C238.176 12.488 240.416 12.616 242.432 14.536C244.224 16.232 244.736 18.376 244.736 20.136C244.736 21.544 244.384 24.2 242.432 26.504C240.48 28.84 238.112 29.512 236.672 29.928L239.04 33.224C240.768 32.52 244.096 31.144 246.496 27.592C247.68 25.832 248.544 23.592 248.544 20.776ZM233.184 12.968C232.544 17.96 229.792 26.312 228.128 26.312C227.552 26.312 226.08 24.968 226.08 22.376C226.08 20.424 227.008 17.448 229.28 15.272C230.816 13.768 232.256 13.288 233.184 12.968Z" fill="#FF0000"/>
<path d="M4.92794 71.608C5.37594 71.128 5.43994 71.096 5.88794 70.68C8.79994 73.752 9.59994 74.616 10.9759 76.088L14.3679 74.744C14.3999 70.84 14.3999 70.264 14.4319 65.176C15.5519 64.76 17.4079 64.056 19.2959 64.056C22.2079 64.056 23.7439 66.168 23.7439 68.312C23.7439 70.552 22.4319 71.704 21.2799 71.704C20.2879 71.704 20.0319 70.872 19.6479 69.56L16.6719 70.744C17.1199 73.08 17.5679 75.288 21.0879 75.288C24.5119 75.288 27.0719 72.184 27.0719 68.248C27.0719 64.248 24.3199 60.952 19.3599 60.952C17.0879 60.952 15.3599 61.432 14.4319 61.688L14.4639 58.52C15.9359 58.232 17.4399 57.912 19.4559 57.144V53.496C17.6639 54.328 16.5759 54.712 14.5279 55.16C14.5599 54.552 14.6559 51.416 14.7839 51.224C14.8479 51.128 15.3279 50.744 15.3279 50.616C15.3279 50.456 15.3279 50.232 14.4319 50.104L10.8799 49.624C10.9119 51.704 10.9119 51.992 10.9439 55.608C10.0159 55.672 9.53594 55.704 8.73594 55.704C7.26394 55.704 6.49594 55.64 5.59994 55.544L6.07994 59.16C7.87194 59.224 9.02394 59.192 10.9439 59L10.9759 63.128C8.83194 64.28 8.22394 64.632 2.97594 68.024L4.92794 71.608ZM10.9759 71.864C10.3999 71.352 9.08794 70.136 8.06394 68.856C9.40794 67.864 10.0799 67.448 10.9759 66.904V71.864ZM29.5039 58.328C27.9359 57.112 25.8239 55.672 23.1999 54.712L21.1199 57.528C24.3199 58.712 25.9839 59.928 27.4239 61.176L29.5039 58.328Z" fill="#FF0000"/>
<path d="M47.6799 52.6V49.464H34.2079C34.4639 55.032 34.5599 57.176 34.5599 60.92C34.5599 67.704 33.9839 71.96 32.6719 75.48L35.9679 76.184C36.1919 75.64 36.5119 74.872 37.0239 72.44L39.1679 73.4L39.7759 76.76C42.6239 76.824 44.5119 76.856 44.5119 73.976V66.008H47.6479V54.968H43.8719C44.4479 53.848 44.5119 53.752 45.0239 52.6H47.6799ZM56.9599 59.544H51.7759V57.688H56.9599V59.544ZM61.7919 74.52C59.7439 73.624 58.3999 72.728 57.0559 71.352H60.1599V54.968H55.3279C56.0959 53.496 56.1919 53.336 56.5439 52.568H61.1519V49.528H48.4479V52.568H52.7359C52.3199 53.72 52.1279 54.136 51.7759 54.968H48.6719V71.352H51.1359C49.7599 72.76 47.9999 73.72 46.1119 74.296L48.4479 76.792C49.7279 76.216 51.2639 75.416 53.0559 73.656C53.5359 73.688 54.0159 73.688 54.0159 73.336C54.0159 73.112 53.8559 72.984 53.7599 72.888L51.9679 71.352H55.7439L54.0799 72.856C55.6159 74.52 57.1199 75.64 59.1679 76.696L61.7919 74.52ZM56.9599 63.864H51.7759V62.008H56.9599V63.864ZM56.9599 68.408H51.7759V66.328H56.9599V68.408ZM44.7999 59.128H41.2799V57.24H44.7999V59.128ZM44.7999 63.544H41.2799V61.432H44.7999V63.544ZM41.5359 67.384C41.3439 67.256 41.0879 67.16 40.9919 67.128L38.7199 66.744C38.3999 68.472 38.0159 69.944 37.0879 71.928C37.6639 67.992 37.7919 64.056 37.7919 60.088C37.7919 56.632 37.6639 54.008 37.5679 52.6H41.3439C41.1839 53.08 40.9919 53.688 40.4799 54.968H38.4319V66.008H41.5359V67.384ZM41.5359 72.664C41.5359 72.888 41.4079 73.656 40.6399 73.656C40.4159 73.656 40.1919 73.624 39.6799 73.528C40.3199 72.28 40.7679 70.84 41.1839 68.696C41.2159 68.632 41.2479 68.568 41.5359 68.184V72.664ZM48.5439 72.024C48.1279 69.816 47.6799 68.376 47.1359 66.808L44.6399 67.512C45.3119 69.528 45.6639 70.936 46.0479 72.76L48.5439 72.024Z" fill="#FF0000"/>
<path d="M92.0959 66.84C91.2319 59.448 88.3839 55.416 86.8479 53.24L83.5519 54.84C85.2159 57.4 87.3279 61.176 88.2559 67.832L92.0959 66.84ZM77.9839 66.36L75.3279 63.992C74.7199 65.528 73.4079 68.92 72.2559 68.92C71.6159 68.92 70.0799 67.768 70.0799 61.528C70.0799 58.008 70.3359 56.152 70.6879 54.392C71.2319 54.2 71.6159 54.072 71.6159 53.72C71.6159 53.336 71.1039 53.176 70.8799 53.112L67.3599 52.152C66.8479 54.296 66.3999 56.376 66.3999 60.472C66.3999 66.552 67.4239 70.296 69.6639 72.472C70.2079 72.984 71.0079 73.528 72.0319 73.528C74.6239 73.528 76.2239 70.136 77.9839 66.36Z" fill="#FF0000"/>
</svg>
