<svg width="64" height="84" viewBox="0 0 64 84" fill="none" xmlns="http://www.w3.org/2000/svg">
<path d="M9.53995 14.004C9.53995 12.042 8.27995 11.232 7.59595 10.782C8.00995 10.548 9.16195 9.9 9.16195 8.064C9.16195 5.868 7.10995 4.626 5.07595 4.626C3.52795 4.626 2.14195 5.31 1.36795 6.516C0.773951 7.452 0.719951 8.226 0.701951 8.874H2.87995C2.89795 8.298 2.96995 6.624 4.91395 6.624C6.47995 6.624 6.80395 7.794 6.80395 8.442C6.80395 9.504 6.01195 10.35 4.75195 10.35H3.74395V11.952H4.75195C6.15595 11.952 7.09195 12.528 7.09195 14.022C7.09195 15.39 6.19195 16.254 4.93195 16.254C3.85195 16.254 2.91595 15.642 2.84395 13.788H0.449951C0.611951 15.624 0.935951 16.272 1.60195 16.956C2.39395 17.748 3.56395 18.252 4.93195 18.252C7.39795 18.252 9.53995 16.65 9.53995 14.004Z" fill="#00FFFF" style="mix-blend-mode:difference"/>
<path d="M13.1879 18V15.516H10.7579V18H13.1879Z" fill="#00FFFF" style="mix-blend-mode:difference"/>
<path d="M31.696 17.456C32.032 17.096 32.08 17.072 32.416 16.76C34.6 19.064 35.2 19.712 36.232 20.816L38.776 19.808C38.8 16.88 38.8 16.448 38.824 12.632C39.664 12.32 41.056 11.792 42.472 11.792C44.656 11.792 45.808 13.376 45.808 14.984C45.808 16.664 44.824 17.528 43.96 17.528C43.216 17.528 43.024 16.904 42.736 15.92L40.504 16.808C40.84 18.56 41.176 20.216 43.816 20.216C46.384 20.216 48.304 17.888 48.304 14.936C48.304 11.936 46.24 9.464 42.52 9.464C40.816 9.464 39.52 9.824 38.824 10.016L38.848 7.64C39.952 7.424 41.08 7.184 42.592 6.608V3.872C41.248 4.496 40.432 4.784 38.896 5.12C38.92 4.664 38.992 2.312 39.088 2.168C39.136 2.096 39.496 1.808 39.496 1.712C39.496 1.592 39.496 1.424 38.824 1.328L36.16 0.967999C36.184 2.528 36.184 2.744 36.208 5.456C35.512 5.504 35.152 5.528 34.552 5.528C33.448 5.528 32.872 5.48 32.2 5.408L32.56 8.12C33.904 8.168 34.768 8.144 36.208 8L36.232 11.096C34.624 11.96 34.168 12.224 30.232 14.768L31.696 17.456ZM36.232 17.648C35.8 17.264 34.816 16.352 34.048 15.392C35.056 14.648 35.56 14.336 36.232 13.928V17.648ZM50.128 7.496C48.952 6.584 47.368 5.504 45.4 4.784L43.84 6.896C46.24 7.784 47.488 8.696 48.568 9.632L50.128 7.496Z" fill="#00FFFF" style="mix-blend-mode:difference"/>
<path d="M40.24 35.2V32.848H30.136C30.328 37.024 30.4 38.632 30.4 41.44C30.4 46.528 29.968 49.72 28.984 52.36L31.456 52.888C31.624 52.48 31.864 51.904 32.248 50.08L33.856 50.8L34.312 53.32C36.448 53.368 37.864 53.392 37.864 51.232V45.256H40.216V36.976H37.384C37.816 36.136 37.864 36.064 38.248 35.2H40.24ZM47.2 40.408H43.312V39.016H47.2V40.408ZM50.824 51.64C49.288 50.968 48.28 50.296 47.272 49.264H49.6V36.976H45.976C46.552 35.872 46.624 35.752 46.888 35.176H50.344V32.896H40.816V35.176H44.032C43.72 36.04 43.576 36.352 43.312 36.976H40.984V49.264H42.832C41.8 50.32 40.48 51.04 39.064 51.472L40.816 53.344C41.776 52.912 42.928 52.312 44.272 50.992C44.632 51.016 44.992 51.016 44.992 50.752C44.992 50.584 44.872 50.488 44.8 50.416L43.456 49.264H46.288L45.04 50.392C46.192 51.64 47.32 52.48 48.856 53.272L50.824 51.64ZM47.2 43.648H43.312V42.256H47.2V43.648ZM47.2 47.056H43.312V45.496H47.2V47.056ZM38.08 40.096H35.44V38.68H38.08V40.096ZM38.08 43.408H35.44V41.824H38.08V43.408ZM35.632 46.288C35.488 46.192 35.296 46.12 35.224 46.096L33.52 45.808C33.28 47.104 32.992 48.208 32.296 49.696C32.728 46.744 32.824 43.792 32.824 40.816C32.824 38.224 32.728 36.256 32.656 35.2H35.488C35.368 35.56 35.224 36.016 34.84 36.976H33.304V45.256H35.632V46.288ZM35.632 50.248C35.632 50.416 35.536 50.992 34.96 50.992C34.792 50.992 34.624 50.968 34.24 50.896C34.72 49.96 35.056 48.88 35.368 47.272C35.392 47.224 35.416 47.176 35.632 46.888V50.248ZM40.888 49.768C40.576 48.112 40.24 47.032 39.832 45.856L37.96 46.384C38.464 47.896 38.728 48.952 39.016 50.32L40.888 49.768Z" fill="#00FFFF" style="mix-blend-mode:difference"/>
<path d="M50.032 77.88C49.384 72.336 47.248 69.312 46.096 67.68L43.624 68.88C44.872 70.8 46.456 73.632 47.152 78.624L50.032 77.88ZM39.448 77.52L37.456 75.744C37 76.896 36.016 79.44 35.152 79.44C34.672 79.44 33.52 78.576 33.52 73.896C33.52 71.256 33.712 69.864 33.976 68.544C34.384 68.4 34.672 68.304 34.672 68.04C34.672 67.752 34.288 67.632 34.12 67.584L31.48 66.864C31.096 68.472 30.76 70.032 30.76 73.104C30.76 77.664 31.528 80.472 33.208 82.104C33.616 82.488 34.216 82.896 34.984 82.896C36.928 82.896 38.128 80.352 39.448 77.52Z" fill="#00FFFF" style="mix-blend-mode:difference"/>
</svg>
