<svg width="124" height="113" viewBox="0 0 124 113" fill="none" xmlns="http://www.w3.org/2000/svg">
<path d="M28.76 17.0799V13.8799H21.912C23.16 11.6079 23.448 10.9679 24.024 9.5599C24.088 9.3999 24.12 9.3999 24.472 9.2399C24.6 9.1759 24.696 9.0799 24.696 8.9839C24.696 8.6959 24.312 8.5039 24.152 8.4399L21.816 7.4159H27.352V4.3119L16.792 4.3119V2.4879C16.792 2.3919 16.888 2.2959 17.112 2.1039C17.272 1.9759 17.4 1.8479 17.4 1.6879C17.4 1.4639 17.176 1.3679 16.824 1.3359L13.336 0.951904V4.3119H2.77598V7.4159H7.57598L5.11198 8.5679C5.91198 9.8799 7.06398 12.5039 7.63998 13.8799H1.20798V17.0799H10.872C8.63198 20.3759 5.30398 23.2239 0.887977 25.6239L3.60798 28.2159C8.37598 25.2719 11.064 22.4559 13.336 19.1919V28.5679H16.792V19.7039C18.36 21.9439 20.824 25.2719 25.848 27.9599L28.472 25.2079C24.632 23.2559 21.08 20.7279 18.808 17.0799H28.76ZM21.144 7.4159C20.504 9.3039 19.896 11.0319 18.776 12.8879L20.408 13.8799H16.792V7.4159H21.144ZM13.336 13.8799H8.79198L10.84 12.7599C10.264 11.0319 8.98398 8.2799 8.34398 7.4159H13.336V13.8799Z" fill="#00FFFF" style="mix-blend-mode:difference"/>
<path d="M57.4 11.7359V1.6559L44.408 1.6559V11.7359H57.4ZM54.296 5.6879L47.512 5.6879V4.3439H54.296V5.6879ZM54.296 9.3359H47.512V7.9599L54.296 7.9599V9.3359ZM59.8 15.5439V12.9519H42.04V15.5439H45.08C44.44 16.8879 43.864 17.7519 42.744 18.9679V16.3119C41.688 16.6959 40.632 17.0159 39.512 17.3359V10.8079H42.84V7.5119H39.512V2.7759C39.512 2.5519 39.768 2.3919 39.928 2.2959C40.12 2.1359 40.28 2.0079 40.28 1.7839C40.28 1.5599 40.056 1.4639 39.864 1.4319L36.152 1.1439V7.5119H33.048V10.8079H36.152V18.2639C35.032 18.5519 33.624 18.9039 32.6 19.0959L33.176 22.6799C33.208 22.8399 33.336 22.9039 33.4 22.9039C33.56 22.9039 33.656 22.7759 34.008 22.3919C34.2 22.1679 34.328 22.1359 35.512 21.8479C36.44 21.6239 39.96 20.4399 42.136 19.6079C40.888 20.6959 40.216 21.1759 39.32 21.7199L41.848 23.4159C43.224 22.3919 44.504 21.2719 46.136 19.3519H47.608C46.968 20.3439 44.216 23.8319 39.992 25.7519L42.488 27.5119C44.28 26.3599 45.976 25.0479 47.512 23.5439C49.24 21.8799 50.2 20.1519 50.648 19.3519H52.248C51.096 21.5279 48.44 24.9839 44.952 27.0319L47.352 28.6319C49.24 27.3839 50.36 26.2639 51.288 25.2719L52.568 28.4079C55.128 28.3759 56.696 27.9279 57.656 26.4239C58.776 24.6639 59.384 19.9599 59.416 16.6959H47.768C47.96 16.3759 48.184 15.9279 48.344 15.5439H59.8ZM56.024 19.3519C55.928 21.0479 55.768 22.7439 55 24.2479C54.648 24.9519 54.136 25.1439 53.304 25.1439C53.176 25.1439 52.504 25.1439 51.576 24.9519C53.944 22.2959 54.68 20.6959 55.256 19.3519H56.024Z" fill="#00FFFF" style="mix-blend-mode:difference"/>
<path d="M90.744 14.7759C90.744 7.6399 85.496 3.1279 78.84 3.1279C70.584 3.1279 64.728 9.5919 64.728 16.6959C64.728 22.4239 69.976 25.3039 71.128 25.3039C72.792 25.3039 74.264 22.6159 75.224 20.6319C76.28 18.4879 78.168 14.0079 79.192 6.3919C80.376 6.4879 82.616 6.6159 84.632 8.5359C86.424 10.2319 86.936 12.3759 86.936 14.1359C86.936 15.5439 86.584 18.1999 84.632 20.5039C82.68 22.8399 80.312 23.5119 78.872 23.9279L81.24 27.2239C82.968 26.5199 86.296 25.1439 88.696 21.5919C89.88 19.8319 90.744 17.5919 90.744 14.7759ZM75.384 6.9679C74.744 11.9599 71.992 20.3119 70.328 20.3119C69.752 20.3119 68.28 18.9679 68.28 16.3759C68.28 14.4239 69.208 11.4479 71.48 9.2719C73.016 7.7679 74.456 7.2879 75.384 6.9679Z" fill="#00FFFF" style="mix-blend-mode:difference"/>
<path d="M29.688 46.4719L28.056 44.9039H22.232C22.104 44.2639 22.04 44.0079 21.944 43.3039L18.808 43.5599C18.904 44.3279 18.936 44.3919 19.032 44.9039H15.32L15.384 44.7119C16.024 44.3279 16.088 44.2639 16.088 44.1039C16.088 43.7839 15.768 43.6879 15.096 43.5279L12.888 42.9839C12.088 45.5439 11 48.0079 9.11198 49.9279C9.65598 48.3599 9.75198 48.0079 10.808 44.9359L9.68798 43.7199H1.52798L1.52798 70.6639H4.88798V60.9679L6.00798 64.0719C7.06398 64.0399 10.968 63.8479 10.968 59.3039C10.968 58.1839 10.712 57.2879 10.616 56.9039L11.96 58.0239C13.016 57.1919 13.656 56.5839 14.552 55.6879V56.9999H24.344V55.8799C25.112 56.5519 25.784 57.0639 26.808 57.6399L29.496 55.1759C28.536 54.6639 26.296 53.4159 25.368 52.0079C26.488 50.7919 27.928 49.1599 29.688 46.4719ZM28.152 61.7359V58.7919H11.704V61.7359H18.008L18.008 66.4079C18.008 67.3679 17.304 67.3679 16.952 67.3679C16.12 67.3679 15.512 67.2719 15.032 67.1759L16.312 70.6319C19.48 70.5999 21.592 70.3119 21.592 68.2319L21.592 61.7359H28.152ZM25.272 47.5279C24.856 48.1999 24.344 48.8079 23.736 49.3839C23.576 49.0319 23.352 48.5519 22.968 47.5279H25.272ZM22.68 53.9599H16.024C17.144 52.4559 18.136 51.0479 19.672 47.7839C20.6 50.7599 21.528 52.3279 22.68 53.9599ZM16.472 47.5279C16.312 47.9439 16.088 48.4239 15.928 48.7759C15.16 48.3279 14.776 48.1359 14.008 47.8159L14.136 47.5279H16.472ZM7.89598 58.4719C7.89598 60.1999 6.77598 60.2319 4.88798 60.2319L4.88798 46.7279H6.83998L5.33598 52.8079C6.03998 53.7679 7.89598 56.1999 7.89598 58.4719ZM29.304 66.9199C27.96 65.3199 26.584 63.7199 24.888 62.5039L22.456 64.5839C24.024 65.9919 25.368 67.4639 26.584 69.1919L29.304 66.9199ZM16.12 64.2319C16.12 63.9119 15.768 63.7839 15.48 63.6559L12.76 62.5999C11.384 65.1279 10.072 66.7919 8.95198 68.0399L12.088 69.6719C13.336 68.0079 14.136 66.7279 15.128 64.9039C15.736 64.6799 16.12 64.5839 16.12 64.2319ZM14.872 50.7599C14.584 51.2399 14.52 51.3679 14.392 51.5279C13.24 50.7599 13.112 50.6639 12.472 50.3119C12.6 50.1839 12.664 50.0879 13.016 49.5439C13.688 49.9279 14.296 50.3439 14.872 50.7599ZM13.144 53.1919C12.248 54.2159 11.512 54.8879 10.168 55.7199C9.59198 54.5359 9.14398 53.8319 8.18398 52.5199C8.43998 51.8159 8.50398 51.6879 8.75998 50.9199L10.648 52.5519C10.84 52.3279 11.064 52.1039 11.256 51.8799C11.608 52.0399 12.12 52.3279 13.144 53.1919Z" fill="#00FFFF" style="mix-blend-mode:difference"/>
<path d="M59.384 56.7759C59.384 49.6399 54.136 45.1279 47.48 45.1279C39.224 45.1279 33.368 51.5919 33.368 58.6959C33.368 64.4239 38.616 67.3039 39.768 67.3039C41.432 67.3039 42.904 64.6159 43.864 62.6319C44.92 60.4879 46.808 56.0079 47.832 48.3919C49.016 48.4879 51.256 48.6159 53.272 50.5359C55.064 52.2319 55.576 54.3759 55.576 56.1359C55.576 57.5439 55.224 60.1999 53.272 62.5039C51.32 64.8399 48.952 65.5119 47.512 65.9279L49.88 69.2239C51.608 68.5199 54.936 67.1439 57.336 63.5919C58.52 61.8319 59.384 59.5919 59.384 56.7759ZM44.024 48.9679C43.384 53.9599 40.632 62.3119 38.968 62.3119C38.392 62.3119 36.92 60.9679 36.92 58.3759C36.92 56.4239 37.848 53.4479 40.12 51.2719C41.656 49.7679 43.096 49.2879 44.024 48.9679Z" fill="#00FFFF" style="mix-blend-mode:difference"/>
<path d="M28.856 111.896V108.44H21.08V101.976H26.648V98.2959H21.08V93.2399H28.6V89.6559H20.056L21.432 88.5039C20.536 87.2239 19.544 86.1039 17.688 84.7919L14.808 86.9999C15.896 87.8319 16.664 88.5679 17.528 89.6559H10.04V93.2399H16.952V98.2959H11.16V101.976H16.952V108.44H9.04798V111.896H28.856ZM10.296 87.8959C8.79198 86.5519 7.31998 85.6879 5.17598 84.8239L3.35198 87.8959C5.46398 88.8239 6.80798 89.6239 8.27998 90.8399L10.296 87.8959ZM7.63998 95.5119C5.91198 94.0719 4.27998 93.2079 2.00798 92.3759L0.375977 95.6399C2.90398 96.6639 4.37598 97.4959 5.91198 98.5839L7.63998 95.5119ZM9.30398 102.872L6.45598 100.536C4.24798 105.88 2.00798 108.856 0.791977 110.392L3.03198 112.024C3.31998 112.248 4.02398 112.696 4.34398 112.696C4.63198 112.696 4.79198 112.44 4.79198 112.184C4.79198 112.088 4.72798 111.576 4.72798 111.448C4.72798 111.32 4.79198 111.224 5.33598 110.296C5.52798 109.976 7.60798 106.456 9.30398 102.872Z" fill="#00FFFF" style="mix-blend-mode:difference"/>
<path d="M55.896 104.984V95.5119H36.952V104.984H46.232L45.112 105.944C46.104 106.936 46.648 107.576 47.384 108.568L49.848 107.16C49.496 106.68 49.112 106.136 47.864 104.984H55.896ZM52.28 99.0319H40.472V97.5599H52.28V99.0319ZM52.28 102.616H40.472V101.112H52.28V102.616ZM60.248 94.1999V91.4159H52.824C53.272 90.6479 53.432 90.2319 53.72 89.5279H58.264V86.9039H48.248V86.3279C48.248 86.2319 48.28 86.1679 48.472 86.0399C48.6 85.9759 48.792 85.8479 48.792 85.7199C48.792 85.5919 48.6 85.4319 48.152 85.3999L44.344 85.1759V86.9039H34.328V89.5279H38.872C39.096 89.9439 39.384 90.4879 39.704 91.4159H32.504V94.1999H60.248ZM49.688 89.5279C49.432 90.2639 49.24 90.6799 48.888 91.4159H43.768C43.576 90.9679 43.256 90.2959 42.776 89.5279H49.688ZM59.96 110.168C58.776 108.408 57.816 107.224 56.472 105.816L53.944 107.256C55.064 108.44 56.024 109.592 57.592 111.928L59.96 110.168ZM53.912 108.632L51.032 107.32C51.032 108.696 50.712 109.688 49.848 109.688H44.28C43.672 109.688 43.48 109.24 43.48 108.952V106.808C43.48 106.712 43.608 106.584 43.768 106.424C43.864 106.328 43.96 106.232 43.96 106.104C43.96 105.976 43.768 105.816 43.288 105.784L40.536 105.656V110.36C40.536 111.832 41.24 112.536 43.64 112.536H50.84C53.496 112.536 53.816 109.4 53.912 108.632ZM39.256 107.608C39.256 107.384 38.936 107.16 38.744 107.064L36.408 105.688C35.544 107.288 34.072 109.304 32.856 110.648L35.448 112.28C36.504 110.968 37.464 109.56 38.36 108.12C38.456 107.96 38.488 107.96 38.84 107.896C38.936 107.896 39.256 107.864 39.256 107.608Z" fill="#00FFFF" style="mix-blend-mode:difference"/>
<path d="M91.192 103.96V101.464H89.4V97.7519H79.48V96.5359H87.32V90.6479H79.48V89.5279H91.064V86.7759H79.48V86.1679C79.48 86.0079 79.608 85.9119 79.672 85.8799C79.96 85.6559 80.024 85.6239 80.024 85.4319C80.024 85.2399 79.8 85.1759 79.64 85.1439L75.864 84.6639V86.7759H64.248V89.5279H75.864V90.6479H67.992V96.5359H75.864V97.7519H66.104V100.248H75.864V101.464H64.248V103.96H75.864V105.336H66.104V107.832H75.864V108.792C75.864 109.368 75.384 109.528 74.872 109.528C74.328 109.528 73.432 109.432 72.6 109.368L74.2 112.856C78.68 112.824 79.48 111.992 79.48 110.136V107.832H86.04V108.696H89.4V103.96H91.192ZM84.024 94.3599H79.48V92.8239H84.024V94.3599ZM75.864 94.3599H71.256V92.8239H75.864V94.3599ZM86.04 101.464H79.48V100.248H86.04V101.464ZM86.04 105.336H79.48V103.96H86.04V105.336Z" fill="#00FFFF" style="mix-blend-mode:difference"/>
<path d="M123.352 110.104C120.056 109.208 118.36 108.024 117.24 107.16H121.24V91.3519H114.744C115.48 89.8159 115.672 89.1759 115.864 88.5999H122.872V85.7199H105.432V87.7359H95.224V90.8399H98.648V102.296C97.368 102.552 95.96 102.84 94.616 103.032L95.224 106.584C95.224 106.712 95.288 106.84 95.48 106.84C95.64 106.84 95.672 106.808 95.928 106.552C96.12 106.36 96.312 106.296 96.952 106.168C101.112 105.24 104.568 104.152 105.944 103.704V100.504C104.696 100.92 103 101.336 102.296 101.496V90.8399H106.104V88.5999H111.96C111.704 89.7199 111.48 90.3599 111.128 91.3519H107.128V107.16H109.592C107.992 108.76 106.392 109.688 103.992 110.52L106.488 112.888C108.76 111.928 110.424 110.648 111.864 109.432C112.216 109.144 112.28 109.144 112.76 109.08C112.792 109.08 113.08 109.016 113.08 108.824C113.08 108.728 113.048 108.632 112.984 108.568L111.544 107.16H116.888L114.968 109.016C117.048 110.968 119.192 111.896 121.208 112.632L123.352 110.104ZM117.688 100.024H110.68V98.2639H117.688V100.024ZM117.688 95.8319H110.68V94.1039H117.688V95.8319ZM117.688 104.312H110.68V102.456H117.688V104.312Z" fill="#00FFFF" style="mix-blend-mode:difference"/>
</svg>
