<svg width="50" height="29" viewBox="0 0 50 29" fill="none" xmlns="http://www.w3.org/2000/svg">
<path d="M12.1938 10.59C11.6338 10.1 11.1158 9.638 10.0098 8.91C8.80582 8.126 8.34382 7.944 7.62982 7.636L6.97182 8.672L6.97182 4.99C6.97182 4.92 7.33582 4.696 7.33582 4.612C7.33582 4.444 7.04182 4.402 6.99982 4.388L5.31982 4.094L5.31982 15.182L6.97182 15.182L6.97182 9.134C8.65182 9.834 10.0518 10.968 11.0878 11.934L12.1938 10.59Z" fill="#FF0000"/>
<path d="M21.6018 9.246C21.4478 8.672 21.1678 7.804 20.6498 6.978L19.4038 7.454C19.8378 8.168 20.1598 8.882 20.3978 9.722L21.6018 9.246ZM25.2838 7.748C25.2838 7.65 25.1858 7.552 25.0038 7.496L23.6318 7.076C23.0998 11.038 21.1958 12.956 18.4798 14.3L19.5998 15.294C20.9438 14.51 23.7718 12.872 24.8218 8.574C24.9618 8.028 24.9758 7.972 25.1018 7.902C25.2558 7.846 25.2838 7.832 25.2838 7.748ZM19.1238 9.918C18.8858 9.134 18.5218 8.406 18.0458 7.664L16.7578 8.154C17.2198 8.868 17.5838 9.61 17.8218 10.408L19.1238 9.918Z" fill="#FF0000"/>
<path d="M41.6778 4.08001C41.6778 3.35201 41.1038 2.75001 40.3618 2.75001C39.6338 2.75001 39.0598 3.35201 39.0598 4.08001C39.0598 4.82201 39.6478 5.42401 40.3618 5.42401C41.0898 5.42401 41.6778 4.83601 41.6778 4.08001ZM39.9978 6.25001L38.6118 4.99001C38.4718 5.10201 38.3178 5.21401 38.1498 5.21401L30.2258 5.214L30.2258 6.83801L37.6878 6.83801C37.4358 7.56601 37.0018 8.84001 35.9378 10.268C34.2298 12.578 32.2418 13.502 31.2898 13.936L32.8158 15.168C33.7818 14.636 35.4618 13.698 36.9598 11.752C38.2898 10.03 38.8918 8.43401 39.4238 7.02001C39.5638 6.65601 39.7738 6.44601 39.9978 6.25001ZM41.1318 4.08001C41.1318 4.55601 40.7678 4.87801 40.3618 4.87801C39.9698 4.87801 39.5918 4.54201 39.5918 4.08001C39.5918 3.63201 39.9558 3.29601 40.3618 3.29601C40.7818 3.29601 41.1318 3.63201 41.1318 4.08001Z" fill="#FF0000"/>
<path d="M0 28L49.5 28" stroke="#FF0000" stroke-width="1.5"/>
</svg>
