<svg width="147" height="23" viewBox="0 0 147 23" fill="none" xmlns="http://www.w3.org/2000/svg">
<path d="M1.84821 10.728C2.01621 10.548 2.04021 10.536 2.20821 10.38C3.30021 11.532 3.60021 11.856 4.11621 12.408L5.38821 11.904C5.40021 10.44 5.40021 10.224 5.41221 8.31599C5.83221 8.15999 6.52821 7.89599 7.23621 7.89599C8.32821 7.89599 8.90421 8.68799 8.90421 9.49199C8.90421 10.332 8.41221 10.764 7.98021 10.764C7.60821 10.764 7.51221 10.452 7.36821 9.95999L6.25221 10.404C6.42021 11.28 6.58821 12.108 7.90821 12.108C9.19221 12.108 10.1522 10.944 10.1522 9.46799C10.1522 7.96799 9.12021 6.73199 7.26021 6.73199C6.40821 6.73199 5.76021 6.91199 5.41221 7.00799L5.42421 5.81999C5.97621 5.71199 6.54021 5.59199 7.29621 5.30399V3.93599C6.62421 4.24799 6.21621 4.39199 5.44821 4.55999C5.46021 4.33199 5.49621 3.15599 5.54421 3.08399C5.56821 3.04799 5.74821 2.90399 5.74821 2.85599C5.74821 2.79599 5.74821 2.71199 5.41221 2.66399L4.08021 2.48399C4.09221 3.26399 4.09221 3.37199 4.10421 4.72799C3.75621 4.75199 3.57621 4.76399 3.27621 4.76399C2.72421 4.76399 2.43621 4.73999 2.10021 4.70399L2.28021 6.05999C2.95221 6.08399 3.38421 6.07199 4.10421 5.99999L4.11621 7.54799C3.31221 7.97999 3.08421 8.11199 1.11621 9.38399L1.84821 10.728ZM4.11621 10.824C3.90021 10.632 3.40821 10.176 3.02421 9.69599C3.52821 9.32399 3.78021 9.16799 4.11621 8.96399V10.824ZM11.0642 5.74799C10.4762 5.29199 9.68421 4.75199 8.70021 4.39199L7.92021 5.44799C9.12021 5.89199 9.74421 6.34799 10.2842 6.81599L11.0642 5.74799Z" fill="#FF0000"/>
<path d="M23.1122 11.4V2.53199H18.7682V6.61199H21.8162V10.824C21.8162 11.172 21.6962 11.292 21.4202 11.292C21.2282 11.292 21.0602 11.28 20.7002 11.244L21.3242 12.636H21.9242C22.8842 12.636 23.1122 12.264 23.1122 11.4ZM21.8162 4.10399H20.0762V3.46799H21.8162V4.10399ZM21.8162 5.67599H20.0762V5.01599H21.8162V5.67599ZM17.7842 6.61199V2.53199H13.3802V12.6H14.7122V6.61199H17.7842ZM16.4882 4.10399H14.7122V3.46799H16.4882V4.10399ZM16.4882 5.67599H14.7122V5.01599H16.4882V5.67599ZM20.4842 10.788V7.35599H15.9482V11.352H17.2802V10.788H20.4842ZM19.1522 9.71999H17.2802V8.42399H19.1522V9.71999Z" fill="#FF0000"/>
<path d="M35.4962 8.93999C35.1722 6.16799 34.1042 4.65599 33.5282 3.83999L32.2922 4.43999C32.9162 5.39999 33.7082 6.81599 34.0562 9.31199L35.4962 8.93999ZM30.2042 8.75999L29.2082 7.87199C28.9802 8.44799 28.4882 9.71999 28.0562 9.71999C27.8162 9.71999 27.2402 9.28799 27.2402 6.94799C27.2402 5.62799 27.3362 4.93199 27.4682 4.27199C27.6722 4.19999 27.8162 4.15199 27.8162 4.01999C27.8162 3.87599 27.6242 3.81599 27.5402 3.79199L26.2202 3.43199C26.0282 4.23599 25.8602 5.01599 25.8602 6.55199C25.8602 8.83199 26.2442 10.236 27.0842 11.052C27.2882 11.244 27.5882 11.448 27.9722 11.448C28.9442 11.448 29.5442 10.176 30.2042 8.75999Z" fill="#FF0000"/>
<path d="M48.3962 6.02399C47.8082 5.85599 46.6562 5.51999 45.3842 4.63199C44.2802 3.85199 43.7642 3.11999 43.4882 2.74799C43.5602 2.69999 43.6682 2.60399 43.6682 2.55599C43.6682 2.51999 43.6082 2.44799 43.5002 2.42399L42.0962 2.14799C40.8482 4.45199 38.6522 5.75999 37.1282 6.44399L38.1362 7.46399C38.5562 7.27199 39.1922 6.99599 40.2722 6.21599V6.95999H45.0962V5.98799C45.9962 6.61199 46.6082 6.91199 47.3642 7.22399L48.3962 6.02399ZM44.7482 5.73599H40.8962C42.0002 4.77599 42.4202 4.15199 42.6962 3.74399C43.5362 4.75199 44.1482 5.25599 44.7482 5.73599ZM46.2602 12.504V7.89599H39.2522V12.552H40.5602V12.144H44.9042V12.504H46.2602ZM44.9042 10.908H40.5602V9.07199H44.9042V10.908Z" fill="#FF0000"/>
<path d="M59.6762 8.05199C59.6762 5.97599 57.9722 4.94399 56.5802 4.94399C55.4882 4.94399 54.6362 5.48399 54.2882 5.69999C54.3962 5.51999 54.5402 5.25599 54.8762 4.78799L54.1322 4.13999L53.7602 4.27199C53.7362 3.75599 53.7722 3.11999 53.8442 3.04799C53.8802 2.99999 54.0842 2.83199 54.0842 2.77199C54.0842 2.66399 53.8682 2.63999 53.7602 2.62799L52.4762 2.50799C52.5242 3.13199 52.5122 3.76799 52.5002 4.63199C51.5762 4.85999 51.0962 4.95599 50.6402 5.03999L50.8562 6.59999C51.2402 6.41999 51.5282 6.31199 52.4762 5.96399L52.4522 6.77999C51.0122 8.81999 50.8442 9.04799 50.2682 9.71999L51.4442 10.596C51.8162 9.99599 52.0322 9.67199 52.4162 9.13199C52.3802 10.524 52.3562 10.992 52.2842 12.312L53.7122 12.192C53.6882 11.34 53.6282 10.32 53.6402 8.69999L53.6522 7.60799C54.5762 6.65999 55.5722 6.20399 56.3882 6.20399C57.3602 6.20399 58.2842 6.92399 58.2842 8.07599C58.2842 8.89199 57.7082 9.59999 57.3242 9.94799C56.5322 10.68 55.8002 10.824 55.3922 10.896L56.3402 12.108C57.2162 11.808 59.6762 10.944 59.6762 8.05199Z" fill="#FF0000"/>
<path d="M71.9402 6.23999L71.9282 4.91999C70.8242 5.09999 70.4402 5.14799 69.7682 5.24399L69.8282 3.45599C69.8402 3.40799 69.8402 3.37199 69.9362 3.31199C70.0442 3.23999 70.0682 3.21599 70.0682 3.15599C70.0682 3.08399 70.0682 3.01199 69.6722 2.96399L68.4482 2.81999C68.5802 3.95999 68.5682 4.83599 68.5562 5.39999C67.1762 5.59199 66.7322 5.63999 66.0122 5.72399C66.0122 4.34399 66.0242 4.27199 66.0362 4.07999C66.0362 4.05599 66.0482 3.98399 66.1562 3.89999C66.3362 3.77999 66.3602 3.76799 66.3602 3.70799C66.3602 3.55199 66.2042 3.53999 65.9522 3.50399L64.5962 3.32399C64.6562 4.16399 64.6682 5.39999 64.6682 5.89199C63.7682 5.98799 63.4082 6.02399 62.4602 6.10799L62.5082 7.42799C63.5882 7.25999 63.7082 7.24799 64.6682 7.10399L64.6802 8.74799C64.6922 10.98 65.0162 11.82 67.7162 11.82C69.3242 11.82 70.4042 11.7 70.9322 11.64L71.0402 10.2C70.4882 10.356 69.5642 10.62 67.9562 10.62C66.1802 10.62 65.9642 10.272 65.9642 8.90399C65.9642 8.83199 65.9642 8.11199 65.9882 6.91199C67.0682 6.76799 67.2722 6.73199 68.5442 6.57599C68.5442 7.88399 68.5082 8.09999 67.7762 8.09999C67.4162 8.09999 67.2482 8.05199 67.0682 8.01599L67.3682 9.27599C67.4882 9.29999 67.7522 9.32399 68.0642 9.32399C68.9642 9.32399 69.3482 9.05999 69.5282 8.55599C69.6482 8.21999 69.6722 7.85999 69.7322 6.44399C70.8602 6.31199 71.4122 6.26399 71.9402 6.23999Z" fill="#FF0000"/>
<path d="M84.4802 10.26C83.4002 9.52799 82.8842 9.32399 82.4162 9.13199C82.2842 7.78799 82.2602 7.21199 82.2482 5.91599C82.6322 5.84399 83.2562 5.74799 83.7482 5.57999V4.28399C83.2922 4.55999 82.5962 4.70399 82.2602 4.77599C82.3202 4.11599 82.3562 3.58799 82.4282 3.28799C82.5482 3.21599 82.6562 3.15599 82.6562 3.09599C82.6562 3.02399 82.6202 2.96399 82.3682 2.92799L81.0242 2.71199C81.0002 3.89999 81.0002 4.03199 80.9762 4.93199C80.6402 4.96799 80.3162 5.00399 79.8602 5.00399C79.2962 5.00399 78.9962 4.96799 78.7802 4.93199L78.7922 6.16799C79.5362 6.20399 80.1842 6.15599 80.9642 6.07199C80.9882 6.88799 81.0242 7.39199 81.1202 8.81999C80.8802 8.79599 80.6282 8.77199 80.3882 8.77199C79.2242 8.77199 78.2762 9.23999 78.2762 10.32C78.2762 12.048 80.2922 12.048 80.6402 12.048C82.2722 12.048 82.5122 11.424 82.5362 10.5C83.0402 10.8 83.3642 11.04 83.7962 11.448L84.4802 10.26ZM77.6282 9.20399L76.8722 8.68799L76.3802 9.40799C76.3202 8.91599 76.3202 8.27999 76.3202 8.14799C76.3202 7.22399 76.6562 4.96799 76.7642 4.42799C76.8002 4.28399 76.9442 3.67199 77.0282 3.61199C77.0642 3.59999 77.2202 3.53999 77.2562 3.51599C77.2922 3.49199 77.3042 3.45599 77.3042 3.43199C77.3042 3.31199 77.0522 3.20399 77.0162 3.19199L75.8522 2.73599C75.3842 4.57199 75.1202 6.45599 75.1202 8.35199C75.1202 9.61199 75.2162 10.872 75.5762 12.072L76.6802 11.892C76.8122 10.932 77.3642 9.76799 77.6282 9.20399ZM81.1922 9.95999C81.2162 10.584 81.2402 10.86 80.4482 10.86C79.7402 10.86 79.3922 10.608 79.3922 10.332C79.3922 10.056 79.7762 9.85199 80.3402 9.85199C80.7002 9.85199 81.0122 9.92399 81.1922 9.95999Z" fill="#FF0000"/>
<path d="M94.8962 4.29599L94.3322 3.28799C93.4562 3.40799 92.5682 3.43199 91.6922 3.43199C90.6002 3.43199 89.5202 3.33599 88.4522 3.15599L88.7762 4.53599C89.4842 4.59599 90.3002 4.60799 92.2922 4.60799L91.0682 5.63999L91.9442 6.58799C92.6042 6.03599 93.8402 5.01599 94.8962 4.29599ZM95.3762 11.556L95.3042 10.068C94.4042 10.248 93.6242 10.392 91.5602 10.392C91.0322 10.392 89.8562 10.392 89.5202 10.104C89.4482 10.044 89.3522 9.94799 89.3522 9.71999C89.3522 9.31199 89.7602 8.93999 90.0602 8.68799L88.9562 7.78799C88.3922 8.33999 87.7562 9.01199 87.7562 10.08C87.7562 10.584 87.9602 10.848 88.1522 11.016C88.8482 11.676 90.5642 11.772 91.6322 11.772C93.0242 11.772 94.3202 11.652 95.3762 11.556Z" fill="#FF0000"/>
<path d="M107.904 9.26399C107.904 7.79999 106.716 6.83999 105.24 6.83999C104.748 6.83999 103.908 6.97199 102.696 7.76399C102.936 6.97199 103.188 6.02399 103.284 5.65199C104.784 5.43599 105.564 5.24399 106.62 4.84799V3.53999C105.708 3.98399 105 4.21199 103.584 4.47599C103.644 4.22399 103.932 3.04799 103.992 2.81999C104.136 2.73599 104.292 2.73599 104.292 2.60399C104.292 2.51999 104.124 2.47199 104.04 2.44799L102.672 2.13599C102.588 3.07199 102.372 4.06799 102.24 4.63199C102.048 4.64399 101.844 4.65599 101.616 4.65599C101.544 4.65599 100.764 4.65599 99.9362 4.46399L100.104 5.73599C100.584 5.78399 101.124 5.78399 101.232 5.78399C101.46 5.78399 101.724 5.78399 101.976 5.75999C101.784 6.53999 101.448 7.87199 101.04 8.91599L102.048 9.70799C102.96 8.85599 103.944 7.96799 105.048 7.96799C105.876 7.96799 106.608 8.51999 106.608 9.33599C106.608 10.332 105.516 11.304 103.14 11.304C102.996 11.304 102.312 11.304 101.58 11.208L101.976 12.576C103.356 12.552 105.168 12.492 106.224 11.952C107.28 11.412 107.904 10.416 107.904 9.26399Z" fill="#FF0000"/>
<path d="M117.672 3.61199C116.748 3.05999 115.608 2.62799 114.804 2.37599L114.288 3.56399C115.716 4.06799 116.292 4.37999 117.06 4.87199L117.672 3.61199ZM119.88 8.96399C119.88 7.22399 118.476 6.33599 117.216 6.33599C116.604 6.33599 115.344 6.56399 114.264 7.54799C114.42 6.64799 114.672 5.75999 114.984 4.90799L113.604 4.36799C113.34 5.27999 112.764 7.31999 112.668 8.95199L113.712 9.50399C114.948 8.06399 116.16 7.58399 116.988 7.58399C117.888 7.58399 118.5 8.07599 118.5 8.84399C118.5 9.94799 117.48 11.112 115.248 11.112C114.696 11.112 114.132 11.028 113.748 10.98L114.384 12.456C115.872 12.42 119.88 12.348 119.88 8.96399Z" fill="#FF0000"/>
<path d="M133.284 7.55999C133.284 7.12799 132.984 5.71199 131.412 4.03199L130.416 4.75199C131.076 5.50799 131.748 6.70799 131.748 7.07999C131.748 7.36799 131.472 7.39199 130.956 7.43999L131.772 8.67599C132.54 8.53199 133.284 8.24399 133.284 7.55999ZM130.44 7.03199C130.44 6.29999 130.308 4.96799 128.676 4.96799C128.352 4.96799 127.992 5.01599 127.728 5.06399C127.812 4.60799 127.896 4.18799 127.956 3.75599C127.968 3.63599 127.992 3.62399 128.208 3.49199C128.34 3.40799 128.364 3.37199 128.364 3.32399C128.364 3.21599 128.124 3.14399 128.028 3.13199L126.564 2.92799C126.552 3.92399 126.444 4.55999 126.3 5.32799C125.772 5.41199 124.668 5.61599 123.792 5.68799L124.272 7.13999C124.896 6.91199 125.388 6.76799 125.976 6.62399C125.268 8.90399 124.656 9.97199 123.6 11.316L124.968 11.928C126.192 9.93599 126.828 8.53199 127.452 6.33599C127.68 6.29999 127.92 6.27599 128.136 6.27599C129 6.27599 129.132 6.65999 129.132 7.29599C129.132 8.50799 128.628 9.95999 128.4 10.284C128.232 10.524 128.04 10.584 127.68 10.584C127.212 10.584 126.864 10.476 126.6 10.392L126.768 11.844C127.104 11.892 127.476 11.916 127.8 11.916C128.316 11.916 129.084 11.868 129.6 10.992C130.236 9.88799 130.44 8.02799 130.44 7.03199Z" fill="#FF0000"/>
<path d="M142.152 3.61199C141.228 3.05999 140.088 2.62799 139.284 2.37599L138.768 3.56399C140.196 4.06799 140.772 4.37999 141.54 4.87199L142.152 3.61199ZM144.36 8.96399C144.36 7.22399 142.956 6.33599 141.696 6.33599C141.084 6.33599 139.824 6.56399 138.744 7.54799C138.9 6.64799 139.152 5.75999 139.464 4.90799L138.084 4.36799C137.82 5.27999 137.244 7.31999 137.148 8.95199L138.192 9.50399C139.428 8.06399 140.64 7.58399 141.468 7.58399C142.368 7.58399 142.98 8.07599 142.98 8.84399C142.98 9.94799 141.96 11.112 139.728 11.112C139.176 11.112 138.612 11.028 138.228 10.98L138.864 12.456C140.352 12.42 144.36 12.348 144.36 8.96399Z" fill="#FF0000"/>
<path d="M0 22H147" stroke="#FF0000"/>
</svg>
