<svg width="216" height="125" viewBox="0 0 216 125" fill="none" xmlns="http://www.w3.org/2000/svg">
<path d="M3.29812 35.4401C3.15984 37.7891 2.89709 39.9322 2.54274 41.4111C2.5099 41.5504 2.37336 41.6384 2.23335 41.6149C1.75973 41.5359 0.732975 41.3648 0.226515 41.2806C0.0692182 41.2543 -0.0310358 41.0998 0.0087205 40.9451C0.247258 40.0029 0.606796 38.4226 0.867805 35.0667C0.879904 34.9132 1.01645 34.7976 1.16856 34.8136L2.9334 34.9967C3.01291 34.9967 3.31886 35.0797 3.29812 35.4404V35.4401ZM7.55377 34.0263C7.52265 33.8393 7.49673 33.6979 7.4708 33.5764C7.44315 33.4365 7.31177 33.344 7.17003 33.361C7.07842 33.372 6.99891 33.3786 6.90211 33.3855C6.75864 33.3961 6.64801 33.515 6.64801 33.6586V43.9298C6.64801 44.0807 6.52529 44.2034 6.37491 44.2034H3.9757C3.82532 44.2034 3.7026 44.081 3.7026 43.9298V34.0277C3.7026 33.8469 3.55221 33.7029 3.37072 33.7117C2.7761 33.7406 1.48143 33.7846 0.971513 33.8289C0.653462 33.8555 0.492709 33.8555 0.466781 33.5371L0.281824 31.7116C0.281824 31.4458 0.35789 31.3121 0.551485 31.1175C1.2429 30.4282 2.40101 29.0856 2.8003 28.5254C2.87981 28.4148 2.85734 28.2516 2.75536 28.1621C2.22124 27.6962 2.0311 27.6205 0.563578 26.4171C0.435667 26.3124 0.408004 26.1274 0.503073 25.9915C0.503073 25.9915 3.65074 22.2628 4.30413 21.0739C4.37673 20.942 4.54266 20.8965 4.67403 20.9696L6.42331 21.9387C6.63419 22.0676 6.49936 22.2683 6.30749 22.5409C5.4536 23.821 5.05949 24.1939 4.1209 25.4754C4.03447 25.5936 4.05349 25.7603 4.15375 25.8671C4.21771 25.9357 4.48389 26.1001 4.52883 26.1461C4.66884 26.2946 4.8901 26.2527 5.0232 26.0966C6.01365 24.9328 6.36627 24.2717 6.75864 23.7111C6.86063 23.5654 7.03521 23.4943 7.1925 23.5806L8.90375 24.7164C9.24946 24.902 8.69287 25.3532 8.55978 25.539C8.05677 26.2812 5.66621 29.0797 4.26264 30.7855C4.09497 30.9903 4.1451 31.248 4.40956 31.2406C4.77774 31.2306 6.17094 31.1398 6.52874 31.1191C6.72752 31.1077 6.86755 30.9142 6.81742 30.7208C6.69815 30.2724 6.49591 29.5171 6.36627 29.1159C6.30923 28.9392 6.41293 28.7508 6.59443 28.7093C7.09916 28.5944 8.03775 28.3799 8.46989 28.2813C8.60299 28.2511 8.73608 28.3213 8.78448 28.4478C9.36181 29.961 9.81643 31.7486 10.1068 33.3264C10.1327 33.4624 10.0498 33.5936 9.91668 33.6337L8.05677 34.196C7.74564 34.2901 7.58142 34.1881 7.55377 34.0263ZM7.69205 39.7846C7.33252 37.9836 7.26684 36.5102 7.28066 35.364C7.28239 35.2115 7.39302 35.084 7.5434 35.0582C7.93059 34.9922 8.94523 34.8672 9.38428 34.7924C9.57442 34.7601 9.74556 34.9052 9.75074 35.0978C9.79395 36.5361 9.95989 37.8005 10.2814 39.1832C10.3212 39.3488 10.2226 39.5165 10.0601 39.5616L8.08788 40.0276C7.91157 40.0763 7.72835 39.9643 7.69205 39.7847V39.7846ZM15.3304 34.2959C15.2769 40.3266 13.7039 42.5464 10.3177 44.2525C10.2174 44.3029 10.0947 44.2869 10.01 44.2124L7.90639 42.3436C7.75082 42.2052 7.80095 41.9497 7.99801 41.8814C11.6867 40.6056 12.3453 38.3514 12.2035 33.6498C12.1983 33.4901 12.3297 33.3579 12.4905 33.366L14.8205 33.4837C15.403 33.5103 15.3443 33.7974 15.3304 34.2958V34.2959ZM21.0986 33.3624C20.8808 32.9779 20.6561 32.6158 20.4054 32.243C20.3501 32.1583 20.2499 32.1114 20.1479 32.1223C18.5196 32.2971 11.64 32.8664 10.8916 32.9468C10.8484 32.9513 10.4421 33.0329 10.4145 32.741L10.1345 30.6237C10.1085 30.4287 10.3298 30.2508 10.5199 30.0949C11.9149 28.9473 12.9848 28.1093 13.7195 27.3153C13.8733 27.1479 13.7557 26.8771 13.5276 26.8771H9.99964C9.84753 26.8771 9.72481 26.7545 9.72481 26.6033V24.5503C9.72481 24.3994 9.84753 24.2767 9.99964 24.2767H14.3331C14.4852 24.2767 14.6079 24.1541 14.6079 24.0029V21.4325C14.6079 21.2766 14.7376 21.152 14.8931 21.1593L17.4997 21.2789C17.8973 21.3038 17.8178 21.7967 17.8178 21.8766V24.0036C17.8178 24.1546 17.9405 24.2774 18.0909 24.2774H23.0103C23.1607 24.2774 23.2834 24.3997 23.2834 24.551V26.604C23.2834 26.755 23.1607 26.8778 23.0103 26.8778H18.001C17.88 26.8778 17.7417 26.8696 17.4894 27.1175C16.7893 27.8024 15.1818 29.0822 14.4869 29.8756C14.3244 30.0612 14.359 30.2422 14.6045 30.2327C15.4463 30.2005 17.5499 30.0588 18.2188 29.9936C18.4712 29.9691 18.5922 29.6721 18.4314 29.477C18.2672 29.2778 18.103 29.0784 17.9319 28.8792C17.8282 28.7584 17.8472 28.5752 17.9751 28.4808L19.854 27.0988C19.9647 27.0178 20.1185 27.0306 20.2136 27.1293C21.4667 28.4269 22.4676 29.7117 23.6775 31.718C23.7536 31.8438 23.7173 32.0084 23.5946 32.0884C23.1158 32.3992 21.9836 33.1351 21.484 33.459C21.3527 33.5447 21.1763 33.4998 21.0986 33.3629V33.3624ZM20.9482 44.0974H18.3485C16.836 44.0974 16.333 43.0093 16.333 42.2137V33.5331C16.333 33.3765 16.4626 33.2519 16.6199 33.2599L18.9327 33.3779C19.2767 33.4044 19.2508 33.6566 19.2508 33.7361V40.2765C19.2508 40.6215 19.4098 41.0991 20.0735 41.0991C20.7736 41.0991 20.9551 40.8395 21.2403 38.8524C21.268 38.6672 21.4685 38.5606 21.6361 38.6449L23.598 39.6368C23.6965 39.6869 23.7571 39.7939 23.7467 39.9043C23.5254 42.6997 22.974 44.0976 20.9499 44.0976L20.9482 44.0974Z" fill="#00FFFF" style="mix-blend-mode:difference"/>
<path d="M47.8427 32.1067C46.3751 31.4937 45.1323 30.8799 43.4401 29.7422C43.2586 29.6202 43.0131 29.7493 43.0131 29.9683V31.3261C43.0131 31.4772 42.8904 31.5999 42.74 31.5999H32.6194C32.4691 31.5999 32.3463 31.4773 32.3463 31.3261V30.485C32.3463 30.2635 32.0957 30.1349 31.9142 30.2622C29.9229 31.6581 28.6646 32.2396 27.7968 32.6349C27.6931 32.6826 27.5704 32.66 27.4892 32.5782L25.6707 30.7375C25.5359 30.6022 25.5791 30.3764 25.752 30.2964C29.0604 28.7615 33.6064 25.9452 36.2839 21.1341C36.341 21.0308 36.4585 20.9754 36.5743 20.9983L38.9096 21.4574C39.1481 21.5104 39.5405 22.3999 39.639 22.5304C40.2872 23.4047 41.4315 24.8845 43.6492 26.4525C46.1919 28.2273 48.5185 29.005 49.9013 29.4122C50.0932 29.4684 50.1623 29.7021 50.0327 29.8532L48.1572 32.0327C48.0812 32.1226 47.9533 32.1525 47.8427 32.1067ZM42.2716 43.4028H33.3005C33.1259 43.4028 32.8424 43.4054 32.6678 43.4054H30.3654C30.2133 43.4054 30.0906 43.283 30.0906 43.1318V33.9429C30.0906 33.792 30.2133 33.6693 30.3654 33.6693H45.3138C45.4642 33.6693 45.5869 33.7917 45.5869 33.9429V43.1304C45.5869 43.2815 45.4642 43.404 45.3138 43.404H42.9042C42.7296 43.404 42.4462 43.4028 42.2716 43.4028ZM42.3148 36.2695H33.2573C33.1069 36.2695 32.9842 36.3921 32.9842 36.5433V40.3962C32.9842 40.5473 33.1069 40.6698 33.2573 40.6698H42.3148C42.4669 40.6698 42.5896 40.5475 42.5896 40.3962V36.5433C42.5896 36.3922 42.4669 36.2695 42.3148 36.2695ZM37.5043 24.7862C36.9391 25.6088 36.0782 26.77 34.265 28.4156C34.0783 28.5841 34.1959 28.893 34.4465 28.893H41.4695C41.7254 28.893 41.8429 28.5713 41.6441 28.4085C40.5569 27.5192 39.4057 26.4912 37.9399 24.7654C37.8223 24.6275 37.6063 24.6367 37.5043 24.786V24.7862Z" fill="#00FFFF" style="mix-blend-mode:difference"/>
<path d="M64.6972 32.2951C64.469 38.1332 62.1545 41.1424 57.3768 43.3641C57.2178 43.4383 57.0277 43.4094 56.8963 43.2922L55.1885 41.765C54.943 41.5457 55.0174 41.1443 55.3251 41.0261C59.3716 39.4673 61.4147 37.3352 61.6204 32.3212C61.6307 32.0728 61.4285 31.8673 61.1796 31.8673H53.2957C53.052 31.8673 52.855 31.6699 52.855 31.4265V29.5742C52.855 29.3308 53.052 29.1334 53.2957 29.1334H72.1541C72.3978 29.1334 72.5948 29.3308 72.5948 29.5742V31.4265C72.5948 31.6699 72.3978 31.8673 72.1541 31.8673H65.1362C64.8977 31.8673 64.7058 32.0571 64.6972 32.2951ZM56.4037 24.9077V22.9242C56.4037 22.6808 56.6007 22.4834 56.8444 22.4834H68.8163C69.06 22.4834 69.257 22.6808 69.257 22.9242V24.9077C69.257 25.1511 69.06 25.3485 68.8163 25.3485H56.8444C56.6007 25.3485 56.4037 25.1511 56.4037 24.9077ZM73.2482 26.6385C72.4496 25.9813 71.7928 25.5561 71.25 25.2204C71.0374 25.0887 70.9787 24.806 71.1187 24.5991L71.6286 23.849L72.2215 23.7181C73.0494 24.2083 73.6371 24.6339 74.3199 25.2193C74.491 25.3657 74.5256 25.6176 74.3994 25.8036L73.8947 26.5474C73.7495 26.7621 73.4487 26.8034 73.25 26.6386L73.2482 26.6385ZM74.0209 23.2913C73.6596 22.9904 73.148 22.6319 72.1471 22.062C71.9224 21.9341 71.8533 21.6418 72.0002 21.429L72.4721 20.741C72.6018 20.5516 72.8576 20.4944 73.0564 20.6088C74.1678 21.2453 74.695 21.6223 75.058 21.9284C75.2309 22.0744 75.2637 22.3272 75.1358 22.5138L74.6656 23.2009L74.0209 23.2913Z" fill="#00FFFF" style="mix-blend-mode:difference"/>
<path d="M92.9553 30.2547C92.6459 37.7275 90.8967 40.3501 86.1224 43.2984C85.953 43.4033 85.7318 43.3804 85.5866 43.2426L84.107 41.8357C83.8944 41.6337 83.9359 41.2833 84.1899 41.1364C88.316 38.7442 89.8803 36.255 90.0289 30.7052C90.0358 30.4585 89.8353 30.2547 89.5882 30.2547H85.5105C85.2668 30.2547 85.0698 30.452 85.0698 30.6953V35.7019C85.0698 35.9452 84.8727 36.1426 84.629 36.1426H82.3819C82.1382 36.1426 81.9411 35.9452 81.9411 35.7019V30.6953C81.9411 30.452 81.7441 30.2547 81.5003 30.2547H77.4417C77.198 30.2547 77.001 30.0573 77.001 29.8139V27.7252C77.001 27.4818 77.198 27.2844 77.4417 27.2844H81.5003C81.7441 27.2844 81.9411 27.0872 81.9411 26.8438V22.729C81.9411 22.4666 82.1693 22.2625 82.4303 22.2907L84.6808 22.5363C85.2858 22.6151 85.0698 23.263 85.0698 23.5781V26.8435C85.0698 27.0868 85.2668 27.2842 85.5105 27.2842H89.5951C89.8388 27.2842 90.0376 27.0851 90.0376 26.8417C90.0376 24.9585 90.0358 23.6268 90.0013 22.3617C89.9944 22.09 90.2312 21.877 90.5008 21.914L92.6667 22.2112C93.2181 22.29 92.9813 23.1575 92.9813 23.5255V26.8435C92.9813 27.0868 93.1783 27.2842 93.4221 27.2842H96.931C97.1747 27.2842 97.3717 27.4816 97.3717 27.725V29.8138C97.3717 30.0572 97.1747 30.2544 96.931 30.2544H92.9553V30.2547ZM96.0961 22.4048C96.8117 22.8414 97.4599 23.3366 98.0839 23.8794C98.2602 24.0329 98.2827 24.3001 98.1375 24.4838L97.5774 25.1899C97.4219 25.3861 97.1367 25.4119 96.9448 25.2501C96.3433 24.7404 95.7314 24.2728 95.0624 23.8567C94.8394 23.7183 94.7928 23.4127 94.9587 23.209L95.5274 22.5069C95.6657 22.337 95.9094 22.2907 96.0961 22.4048ZM97.733 20.0611C98.4901 20.502 99.1141 20.9526 99.7329 21.4826C99.9127 21.6371 99.9404 21.9069 99.7917 22.0929L99.2368 22.7926C99.083 22.9888 98.7943 23.0174 98.6059 22.8528C98.0217 22.3444 97.4253 21.8779 96.7495 21.4629C96.5248 21.3251 96.4746 21.0199 96.6406 20.8145L97.1626 20.1638C97.3009 19.9928 97.5429 19.9507 97.733 20.0611Z" fill="#00FFFF" style="mix-blend-mode:difference"/>
<path d="M116.63 24.9252C115.316 26.4235 113.843 27.7903 112.293 29.0258V42.5952C112.293 42.8387 112.096 43.036 111.852 43.036H109.449C109.205 43.036 109.008 42.8387 109.008 42.5952V32.2864C109.008 31.9365 108.62 31.7269 108.327 31.9172C106.81 32.9017 105.19 33.8682 102.67 35.0674C102.5 35.1483 102.295 35.1125 102.163 34.9779L100.556 33.333C100.34 33.1119 100.411 32.7399 100.696 32.6203C105.88 30.4483 111.252 26.4265 115.062 22.0198C115.219 21.8384 115.49 21.8146 115.675 21.9677L117.629 23.5849C117.734 23.6636 116.998 24.5311 116.63 24.9254V24.9252ZM117.629 23.5848C117.973 23.8757 116.998 24.5308 116.63 24.9252C115.371 26.3604 113.968 27.6748 112.49 28.8686" fill="#00FFFF" style="mix-blend-mode:difference"/>
<path d="M127.666 29.0591C126.42 28.0621 123.355 26.2489 121.668 25.4549C121.426 25.3409 121.342 25.0411 121.487 24.8168L122.609 23.0891L123.158 22.9263C124.66 23.6035 128.01 25.4403 129.45 26.5754C129.633 26.7197 129.673 26.98 129.54 27.1721L128.309 28.9623C128.164 29.1753 127.869 29.2199 127.666 29.0588V29.0591ZM134.3 35.7048C130.244 38.9914 127.767 40.1212 124.615 41.4703C124.47 41.5326 123.603 42.2236 123.418 41.8819L121.876 39.2384C121.729 38.9852 121.864 38.6601 122.149 38.5894C124.277 38.0584 127.485 37.0643 131.331 34.1804C134.971 31.4671 137.384 28.366 138.667 26.6329C138.846 26.3897 139.211 26.3972 139.382 26.6462L140.665 28.5046C140.772 28.6609 140.77 28.8667 140.656 29.0181C139.578 30.454 137.569 33.0563 134.3 35.705V35.7048Z" fill="#00FFFF" style="mix-blend-mode:difference"/>
<path d="M179.521 38.5136V43.7071C179.521 43.8337 179.419 43.9362 179.292 43.9362H176.461C176.333 43.9362 176.231 43.8337 176.231 43.7071V38.5136C176.231 38.3871 176.129 38.2847 176.003 38.2847H166.723C166.596 38.2847 166.493 38.1822 166.493 38.0557V35.7275C166.493 35.601 166.596 35.4985 166.723 35.4985H176.003C176.129 35.4985 176.231 35.396 176.231 35.2695V33.3719C176.231 33.0478 176.511 32.7954 176.834 32.8295C177.049 32.8525 177.173 32.5927 177.021 32.44L176.556 31.9752C176.456 31.8755 176.47 31.7106 176.584 31.6275C177.038 31.297 177.32 31.0228 178.566 29.8467C178.99 29.4237 179.996 28.277 180.995 26.5817C181.085 26.4301 180.973 26.2384 180.796 26.2384H174.912L174.928 25.9959C175.3 26.1817 174.48 27.671 174.401 27.7509C174.364 27.7863 174.174 28.085 174.027 28.3177C173.937 28.4615 173.976 28.6495 174.116 28.7451C174.835 29.2365 177.154 30.5921 178.089 31.0079C178.223 31.0671 178.269 31.2311 178.184 31.3499L176.622 33.5617C175.239 32.8445 173.089 31.5574 172.463 31.0109L172.131 31.048C170.944 32.5951 170.057 33.4995 169.25 34.3084C169.174 34.3841 169.056 34.3967 168.966 34.3399L166.736 32.9354C166.605 32.8519 166.595 32.6644 166.716 32.5652C168.722 30.9238 170.441 28.9413 171.457 26.5559C171.521 26.4057 171.409 26.2381 171.244 26.2381H167.969C167.843 26.2381 167.741 26.1357 167.741 26.0092V23.8136C167.741 23.6871 167.843 23.5846 167.969 23.5846H176.134C176.262 23.5846 176.364 23.4821 176.364 23.3556V21.3181C176.364 21.137 176.516 20.9926 176.696 21.0022L179.161 21.1439C179.555 21.1474 179.628 21.4969 179.628 21.709V23.3561C179.628 23.4826 179.73 23.5851 179.856 23.5851H188.022C188.149 23.5851 188.251 23.6876 188.251 23.8141V26.0095C188.251 26.1361 188.149 26.2386 188.022 26.2386H184.969C184.705 26.2386 184.191 27.3265 184.139 27.3796C184.096 27.4216 183.804 27.8819 183.631 28.1363C183.572 28.2235 183.581 28.3412 183.65 28.42C185.512 30.5067 187.258 31.5227 188.559 32.1562C188.696 32.2231 188.729 32.4034 188.625 32.5157L186.869 34.4277C186.794 34.51 186.668 34.5255 186.575 34.4647C184.414 33.0713 183.121 31.726 182.132 30.5542C182.043 30.4467 181.877 30.4476 181.785 30.5535C181.095 31.3416 180.423 31.9579 179.763 32.5847C179.604 32.7354 179.434 32.7762 179.377 32.8233C179.327 32.8651 179.533 32.853 179.533 32.9985C179.534 33.3738 179.522 33.8872 179.522 33.9862V35.2698C179.522 35.3963 179.624 35.4988 179.751 35.4988H189.19C189.316 35.4988 189.418 35.6012 189.418 35.7277V38.0559C189.418 38.1824 189.316 38.2849 189.19 38.2849H179.751C179.624 38.2849 179.522 38.3874 179.522 38.5139L179.521 38.5136Z" fill="#00FFFF" style="mix-blend-mode:difference"/>
<path d="M214.117 44.5785C214.031 44.6664 213.901 44.6963 213.785 44.6537C212.914 44.3339 210.029 43.029 207.891 41.3452C205.341 39.3393 204.206 37.1924 203.654 36.0601C203.616 35.9811 203.537 35.9327 203.449 35.9327H202.6C202.474 35.9327 202.372 36.0341 202.37 36.1603L202.346 40.0971C202.346 40.2372 202.472 40.3451 202.61 40.3247C203.672 40.169 204.603 40.0229 205.682 39.7716C205.83 39.737 205.972 39.8528 205.964 40.0051L205.856 42.1004C205.851 42.2029 205.779 42.2897 205.678 42.3124C202.273 43.0838 198.859 43.6774 197.241 43.9386C196.837 44.0141 196.427 44.1048 196.401 43.7864L196.113 41.3579C196.097 41.2253 196.197 41.107 196.33 41.1024C196.716 41.0882 197.317 41.0305 199.063 40.8135C199.179 40.7994 199.267 40.7015 199.267 40.5861V36.1617C199.267 36.0352 199.163 35.9327 199.037 35.9327H196.47C196.355 35.9327 196.26 36.0172 196.244 36.132C196.019 37.9385 195.445 40.4402 194.101 43.2344C194.052 43.3374 193.933 43.3892 193.824 43.3547L191.433 42.5953C191.299 42.5523 191.233 42.3993 191.299 42.2729C191.658 41.5751 192.215 40.4296 192.687 38.6124C193.297 36.3569 193.694 33.6508 193.694 30.4403C193.694 27.806 193.544 24.4936 193.388 21.5784C193.382 21.4474 193.487 21.3394 193.618 21.3394H213.816C213.944 21.3394 214.046 21.4419 214.046 21.5684V27.2928C214.046 27.4193 213.944 27.5216 213.816 27.5216H209.109C209.481 27.575 209.562 27.8056 209.562 27.9067V29.1769C209.562 29.3034 209.664 29.4059 209.791 29.4059H213.657C213.783 29.4059 213.887 29.5084 213.887 29.6349V31.4589C213.887 31.5854 213.783 31.6879 213.657 31.6879H209.791C209.664 31.6879 209.562 31.7904 209.562 31.9169V33.3426C209.562 33.4692 209.664 33.5717 209.791 33.5717H214.401C214.527 33.5717 214.629 33.6742 214.629 33.8007V35.7045C214.629 35.831 214.527 35.9335 214.401 35.9335H212.561C212.271 35.9335 212.133 36.2907 212.349 36.4848L213.085 37.1852C213.246 37.3248 213.102 37.5155 212.926 37.651C212.513 37.9908 211.389 38.9021 210.618 39.5953C210.491 39.7094 210.504 39.8741 210.651 39.9631C211.675 40.5885 214.478 41.5309 215.756 41.8297C215.996 41.8859 216.082 42.1834 215.91 42.359L214.117 44.5785ZM199.755 31.6871H197.48C197.354 31.6871 197.25 31.5846 197.25 31.458V29.6341C197.25 29.5075 197.354 29.405 197.48 29.405H199.755C199.881 29.405 199.985 29.3025 199.985 29.176V27.7498C199.985 27.6233 199.881 27.5208 199.755 27.5208H196.763C196.636 27.5208 196.534 27.6233 196.534 27.7498V30.5455C196.534 31.0926 196.534 32.1525 196.491 33.3318C196.486 33.4614 196.59 33.5703 196.719 33.5703H199.755C199.881 33.5703 199.983 33.468 199.983 33.3414V31.9156C199.983 31.789 199.881 31.6871 199.755 31.6871ZM210.873 23.6475H196.763C196.636 23.6475 196.534 23.75 196.534 23.8765V24.984C196.534 25.1105 196.636 25.213 196.763 25.213H210.873C210.999 25.213 211.101 25.1105 211.101 24.984V23.8765C211.101 23.75 210.999 23.6475 210.873 23.6475ZM206.591 27.7503C206.591 27.6238 206.487 27.5213 206.361 27.5213H202.612C202.97 27.5987 202.902 27.9221 202.902 28.0205V29.1765C202.902 29.3031 203.004 29.4056 203.13 29.4056H206.361C206.487 29.4056 206.591 29.3031 206.591 29.1765V27.7503ZM206.361 31.6871H203.13C203.004 31.6871 202.902 31.7896 202.902 31.9161V33.3418C202.902 33.4683 203.004 33.5708 203.13 33.5708H206.361C206.487 33.5708 206.591 33.4683 206.591 33.3418V31.9161C206.591 31.7896 206.487 31.6871 206.361 31.6871ZM206.824 36.2841C207.386 37.1999 207.917 37.7355 208.28 38.0634C208.363 38.1369 208.485 38.1409 208.574 38.0747C209.32 37.5065 209.863 36.9211 210.357 36.305C210.478 36.1553 210.371 35.9327 210.179 35.9327H207.018C206.838 35.9327 206.729 36.1313 206.824 36.2841Z" fill="#00FFFF" style="mix-blend-mode:difference"/>
<path d="M161.817 37.6562C160.163 40.1024 157.921 41.1669 156.569 41.7304C156.381 41.809 156.163 41.7461 156.044 41.58L154.839 39.9038C154.664 39.6591 154.78 39.3161 155.067 39.2254C156.134 38.8892 157.565 38.298 158.78 36.8434C160.239 35.1227 160.502 33.1387 160.502 32.087C160.502 30.7727 160.12 29.1712 158.78 27.9043C157.487 26.6724 156.071 26.4282 155.136 26.3385C154.901 26.316 154.694 26.4849 154.659 26.7184C153.883 32.155 152.523 35.3771 151.753 36.9392C151.036 38.4209 149.937 40.4288 148.694 40.4288C147.833 40.4288 143.915 38.2776 143.915 33.999C143.915 28.6929 148.288 23.8647 154.455 23.8647C159.426 23.8647 163.347 27.235 163.347 32.5651C163.347 34.6683 162.7 36.3415 161.815 37.6562H161.817ZM148.957 28.454C147.259 30.0793 146.568 32.3022 146.568 33.7603C146.568 35.6962 147.667 36.7001 148.098 36.7001C149.261 36.7001 151.135 31.2363 151.762 27.4791C151.821 27.135 151.48 26.8639 151.157 26.9967C150.531 27.2547 149.762 27.6665 148.957 28.454Z" fill="#00FFFF" style="mix-blend-mode:difference"/>
<path d="M0.699484 13.5222L0.0699009 12.6351C-0.0985181 12.3982 0.0547782 12.0705 0.344184 12.0424C1.94991 11.8858 3.6339 11.5905 5.30542 10.9469C5.54681 10.854 5.62125 10.5436 5.45548 10.3454C5.22657 10.0717 4.99009 9.81906 4.71905 9.56638C4.59816 9.45354 4.41138 9.43783 4.2683 9.52042C3.37956 10.0328 2.82834 10.2672 2.21123 10.481C2.07463 10.5285 1.92231 10.4918 1.82087 10.3886L1.17508 9.73529C0.978087 9.53613 1.06117 9.2046 1.32573 9.11121C2.55298 8.67656 3.6177 8.10914 4.48317 7.50715C4.85732 7.24691 4.52579 6.66545 4.11009 6.85331C3.3553 7.19398 2.44554 7.5536 1.36413 7.89319C1.21397 7.94013 1.04555 7.88936 0.948332 7.76572L0.37119 7.03037C0.203262 6.81658 0.309125 6.49752 0.572605 6.43163C2.18903 6.02565 3.25219 5.55752 4.03339 5.17315C4.26123 5.0608 4.31632 4.75628 4.13818 4.57489C3.89522 4.32703 3.63822 4.1046 3.30237 3.86812C3.17657 3.77964 3.00707 3.78121 2.87803 3.86488C2.46067 4.13651 2.07404 4.35403 1.52125 4.63048C1.39221 4.6947 1.234 4.68125 1.1195 4.59375L0.398785 4.04361C0.176256 3.87352 0.209743 3.52638 0.46193 3.40441C2.90504 2.22793 3.84661 1.02287 4.36817 0.175181C4.4486 0.0444717 4.60248 -0.0213247 4.75362 0.00617231L6.34098 0.292337C6.52236 0.322584 6.68872 0.398201 6.68872 0.51909C6.68872 0.60983 6.62822 0.6552 6.56773 0.670225C6.52236 0.700472 6.26487 0.745841 6.2195 0.776088C6.17413 0.806335 6.00728 1.03309 5.96191 1.07846H9.82985C9.94593 1.07846 10.055 1.13139 10.1268 1.22262L10.5404 1.74791C10.6575 1.89639 10.6495 2.10586 10.5183 2.24197C10.0588 2.71757 9.07614 3.64736 8.08056 4.45607C7.85213 4.64128 7.91587 5.00414 8.1929 5.10342L8.81973 5.32753C8.94062 5.3729 9.07673 5.43339 9.07673 5.5694C9.07673 5.67467 9.01624 5.70541 8.98599 5.72005C8.91037 5.75078 8.57786 5.82581 8.51736 5.88689C8.44126 5.96241 8.0946 6.40089 8.00386 6.49153H11.3001C11.414 6.49153 11.5219 6.54289 11.5938 6.63196L11.8151 6.90565C11.9209 7.03636 11.9285 7.22364 11.8329 7.36191C9.64091 10.5296 6.96074 12.6714 1.07629 13.6778C0.932717 13.7026 0.783153 13.6421 0.698894 13.5228L0.699484 13.5222ZM4.78337 2.37906C4.61653 2.52971 4.60189 2.54542 4.36061 2.75705C4.85624 3.07444 5.28814 3.43514 5.69097 3.8476C5.82266 3.98263 6.03272 4.00639 6.18493 3.89572C6.5915 3.59983 6.92892 3.32712 7.23885 3.02485C7.47965 2.78995 7.30691 2.37906 6.97046 2.37906H4.78337ZM6.37172 8.04383C6.27833 8.12043 6.21243 8.17503 6.15096 8.2263C5.97006 8.37635 5.9679 8.64955 6.14663 8.80236C6.41385 9.03078 6.70914 9.30722 7.01426 9.63385C7.14978 9.77909 7.3727 9.80119 7.52875 9.67863C7.90565 9.38274 8.24848 9.07183 8.67714 8.59181C8.89525 8.34777 8.72467 7.958 8.39746 7.958H6.61202C6.52452 7.958 6.43928 7.98874 6.37172 8.04432V8.04383Z" fill="#00FFFF" style="mix-blend-mode:difference"/>
<path d="M25.4006 6.31475C25.284 6.41247 25.1183 6.43083 24.9833 6.36012C24.303 6.00325 23.8101 5.68301 23.1822 5.05402V5.76511C23.1822 5.97409 23.0132 6.1431 22.8042 6.1431H22.1391C21.9301 6.1431 21.7611 5.97409 21.7611 5.76511V5.15988C21.5155 5.45518 21.1402 5.83965 20.7812 6.10362C20.6435 6.20457 20.4572 6.203 20.3223 6.09822L19.5993 5.53787L19.418 5.65934C19.1912 5.53787 18.9952 5.3721 18.7987 5.1755V5.99245C18.7987 6.20133 18.6297 6.37034 18.4207 6.37034H17.8161C17.6071 6.37034 17.4381 6.20133 17.4381 5.99245V5.05461C17.1039 5.50919 16.7313 5.8693 16.4107 6.14202C16.2719 6.25966 16.0716 6.2629 15.9291 6.15007L15.5031 5.81156C15.4318 8.81403 15.252 10.6118 14.5933 12.244C14.5269 12.4082 14.3509 12.5021 14.176 12.4713L13.1399 12.2899C12.8985 12.2478 12.7603 11.9897 12.8596 11.7656C13.4886 10.3446 13.9611 8.92255 13.9611 5.66043C13.9611 4.40352 13.8747 2.70332 13.7797 1.39614C13.764 1.17695 13.9367 0.990162 14.1565 0.990162H18.4202C18.6291 0.990162 18.7981 0.821154 18.7981 0.612275V0.5836C18.7981 0.36824 18.9773 0.196482 19.1923 0.206204L20.5361 0.264536C20.7629 0.27966 21.0199 0.355768 21.0199 0.522026C21.0199 0.58252 20.9291 0.643013 20.8686 0.67326C20.7024 0.764 20.7024 0.794148 20.7024 0.990751H25.8266C26.0356 0.990751 26.2046 1.15966 26.2046 1.36864V1.8956C26.2046 2.10458 26.0356 2.27358 25.8266 2.27358H23.1816V3.03103H25.8266C26.0356 3.03103 26.2046 3.20004 26.2046 3.40901V3.78474C26.2046 3.99372 26.0356 4.16272 25.8266 4.16272H25.0378C24.668 4.16272 24.5163 4.63616 24.8181 4.84995C25.0718 5.02976 25.3677 5.21439 25.6949 5.38339C25.9351 5.50811 25.9746 5.83474 25.7673 6.00866L25.4001 6.31584L25.4006 6.31475ZM17.437 2.27191H15.4717C15.4804 2.33133 15.4884 2.49543 15.4944 2.66551C15.5014 2.8685 15.6688 3.02946 15.8723 3.02946H17.437V2.27191ZM15.8945 4.22204C15.6861 4.22204 15.5176 4.38889 15.5165 4.59727C15.5154 4.85427 15.5117 5.13396 15.502 5.34126C15.7892 5.20525 16.3793 4.69126 16.7567 4.22204H15.8945ZM21.7757 11.0249C21.5667 11.0249 21.3977 11.1939 21.3977 11.4029V12.1145C21.3977 13.1284 19.98 13.2466 19.1841 13.2709C19.0313 13.2758 18.8936 13.1878 18.8305 13.0485L18.4866 12.2867C18.3727 12.0345 18.5627 11.7489 18.8397 11.7533C19.6976 11.7673 19.7505 11.6928 19.7505 11.2365V11.0238H15.8956C15.6866 11.0238 15.5176 10.8548 15.5176 10.6459V10.2399C15.5176 10.031 15.6866 9.86196 15.8956 9.86196H19.7505V9.42191H16.5758C16.3669 9.42191 16.1979 9.2529 16.1979 9.04403V8.63795C16.1979 8.42908 16.3669 8.26007 16.5758 8.26007H19.7505V7.8044C18.1335 7.83131 17.5498 7.83455 16.9171 7.82434C16.7729 7.82218 16.6428 7.73851 16.5807 7.60839L16.4392 7.31034C16.314 7.04529 16.5272 6.74508 16.8194 6.77258C17.3495 6.82276 17.694 6.83956 18.1929 6.83956C19.0092 6.83956 19.8557 6.77906 20.5966 6.71808C22.0673 6.57931 22.7864 6.38978 23.5612 6.16038C23.6908 6.12198 23.8317 6.15498 23.9299 6.24837L24.6637 6.94483C24.769 7.03557 24.8597 7.17109 24.8597 7.24661C24.8597 7.32272 24.769 7.33735 24.7236 7.33735C24.6782 7.33735 24.4666 7.32271 24.4212 7.32271C24.3306 7.32271 23.8765 7.42809 23.7712 7.44311C22.7583 7.62459 21.9269 7.6845 21.3977 7.71523V8.26115H24.8748C25.0837 8.26115 25.2527 8.43016 25.2527 8.63903V9.04511C25.2527 9.25398 25.0837 9.42299 24.8748 9.42299H21.3977V9.86304H25.7818C25.9908 9.86304 26.1597 10.0321 26.1597 10.2409V10.647C26.1597 10.8559 25.9908 11.0249 25.7818 11.0249H21.7757ZM21.7606 2.27191H18.7981V3.02946H19.5535C19.7624 3.02946 19.9314 3.19837 19.9314 3.40734V4.22204H19.2214C19.3364 4.3117 19.744 4.6394 20.1776 4.84838C20.3163 4.91536 20.4826 4.88992 20.5977 4.78789C20.9319 4.49151 21.0744 4.34303 21.2164 4.16105H20.4762V3.40685C20.4762 3.19787 20.6451 3.02887 20.8541 3.02887H21.7606V2.27142V2.27191Z" fill="#00FFFF" style="mix-blend-mode:difference"/>
<path d="M39.762 13.4239C38.4631 13.1329 36.5086 12.5293 34.8025 10.6439C34.6443 10.469 34.376 10.4744 34.2237 10.6542C32.9047 12.208 31.0776 13.0454 29.2166 13.425C29.0611 13.4569 28.9023 13.3851 28.8186 13.2501L28.2302 12.2955C28.0876 12.0645 28.2285 11.7594 28.498 11.7249C30.2413 11.5003 31.6387 10.8286 32.5251 9.93561C32.7633 9.69589 32.5932 9.28766 32.2558 9.28766H28.776C28.567 9.28766 28.398 9.11875 28.398 8.90977V8.33744C28.398 8.12846 28.567 7.95955 28.776 7.95955H33.2238C33.4187 7.95955 33.5791 7.81107 33.6001 7.61771C33.6044 7.57784 33.6087 7.53679 33.612 7.49515C33.6303 7.27331 33.4581 7.08054 33.2351 7.08054H28.4272C28.2183 7.08054 28.0493 6.91153 28.0493 6.70265V6.14544C28.0493 5.93646 28.2183 5.76746 28.4272 5.76746H33.6277V5.14602H30.3169C30.108 5.14602 29.9389 4.97702 29.9389 4.76814V4.2563C29.9389 4.04732 30.108 3.87832 30.3169 3.87832H33.6277V3.28664H28.715C28.5061 3.28664 28.3371 3.11763 28.3371 2.90866V2.35145C28.3371 2.14257 28.5061 1.97356 28.715 1.97356H30.8638C31.1792 1.97356 31.3557 1.60805 31.1613 1.36018C31.0458 1.21278 30.9308 1.07461 30.8223 0.950968C30.6457 0.749062 30.7305 0.435892 30.9831 0.347312L31.8508 0.0450413C31.9934 -0.00464963 32.1542 0.0336498 32.2552 0.146486C32.6008 0.532033 32.9025 0.935256 33.1336 1.26198C33.2788 1.46713 33.1859 1.75221 32.9484 1.83529L32.5548 1.97356H35.31C35.439 1.97356 35.5573 1.9115 35.6269 1.80239C35.9066 1.36293 36.2256 0.850015 36.5426 0.248519C36.6317 0.0795108 36.8309 -0.00199823 37.0096 0.0649766L38.1175 0.47802C38.239 0.52339 38.4658 0.614033 38.4658 0.780389C38.4658 0.825661 38.4506 0.856496 38.435 0.886154C38.3897 0.931524 38.0868 1.02226 38.0414 1.06754C38.0117 1.09778 37.4972 1.82341 37.4064 1.97464H40.4602C40.6692 1.97464 40.8382 2.14365 40.8382 2.35253V2.90974C40.8382 3.11871 40.6692 3.28772 40.4602 3.28772H35.5923V3.8794H38.8427C39.0515 3.8794 39.2206 4.0484 39.2206 4.25738V4.76922C39.2206 4.9781 39.0515 5.14711 38.8427 5.14711H35.5923V5.76854H40.7323C40.9413 5.76854 41.1103 5.93755 41.1103 6.14652V6.70373C41.1103 6.91261 40.9413 7.08162 40.7323 7.08162H35.8532C35.6528 7.08162 35.4887 7.23707 35.4763 7.43692C35.4741 7.47364 35.4714 7.51135 35.4682 7.55024C35.4503 7.77002 35.6237 7.96005 35.8445 7.96005H40.4305C40.6394 7.96005 40.8084 8.12905 40.8084 8.33803V8.91026C40.8084 9.11924 40.6394 9.28825 40.4305 9.28825H36.7267C36.3784 9.28825 36.2143 9.71966 36.4735 9.95181C37.569 10.9334 39.2437 11.4489 40.6908 11.6605C40.9758 11.7022 41.107 12.0347 40.931 12.2631L40.1389 13.2862C40.0493 13.4018 39.9036 13.4569 39.761 13.425L39.762 13.4239Z" fill="#00FFFF" style="mix-blend-mode:difference"/>
<path d="M55.4741 5.93142V12.8855C55.4741 13.0944 55.3052 13.2634 55.0962 13.2634H53.0726C52.909 13.2634 52.7644 13.1581 52.7136 13.0027L52.4334 12.1452C52.3529 11.8996 52.537 11.6474 52.7957 11.6496C53.1088 11.6524 53.4457 11.6539 53.5262 11.6453C53.693 11.6302 53.814 11.5848 53.814 11.1918V5.93142C53.814 5.72254 53.645 5.55353 53.436 5.55353H52.4069C52.1979 5.55353 52.029 5.38452 52.029 5.17555V4.96392C52.029 4.75494 51.86 4.58603 51.6511 4.58603H50.7883C50.5794 4.58603 50.4104 4.75494 50.4104 4.96392V12.9C50.4104 13.109 50.2413 13.278 50.0325 13.278H49.188C48.979 13.278 48.81 13.109 48.81 12.9V4.96392C48.81 4.75494 48.6411 4.58603 48.4321 4.58603H46.9193V4.29879C46.8134 4.46563 46.692 4.69239 46.2682 5.31166C46.3595 5.35703 46.556 5.44767 46.556 5.61452C46.556 5.69013 46.5106 5.7355 46.4501 5.78077C46.2536 5.96225 46.2229 5.9925 46.2229 6.11339V10.2102C46.6418 8.8297 46.8162 7.74504 46.888 6.13824C46.8977 5.91472 47.0959 5.7468 47.3177 5.77753L48.4311 5.93201C48.5822 5.94654 48.7183 6.0529 48.7183 6.15876C48.7183 6.29477 48.5218 6.37039 48.4311 6.41576C48.3641 7.84167 48.153 9.50779 47.8518 10.4958C47.7934 10.6869 47.5985 10.7982 47.4041 10.7534L46.6855 10.5881C46.4485 10.5336 46.2229 10.7134 46.2229 10.9564V12.9C46.2229 13.109 46.0538 13.278 45.8449 13.278H44.9254C44.7165 13.278 44.5475 13.109 44.5475 12.9V7.5339C44.4222 7.6759 44.3569 7.74877 44.2824 7.82871C44.1507 7.97071 43.933 7.99124 43.7781 7.87565L43.0298 7.31628C42.843 7.17644 42.8295 6.90648 42.9964 6.74297C44.0028 5.75652 44.8477 4.60597 45.5124 3.35446C45.6079 3.17416 45.826 3.09962 46.0096 3.18928L46.9193 3.63306V2.96793H48.4326C48.6416 2.96793 48.8106 2.79892 48.8106 2.58995V0.537789C48.8106 0.32184 48.9909 0.149591 49.2069 0.160394L50.3812 0.217056C50.5318 0.217056 50.7143 0.292674 50.7143 0.428686C50.7143 0.458932 50.6987 0.534548 50.6079 0.594943C50.4719 0.700807 50.4109 0.761792 50.4109 0.882189V2.59054C50.4109 2.79942 50.5798 2.96842 50.7888 2.96842H51.7115C51.9205 2.96842 52.0894 3.13743 52.0894 3.34641V3.64868C52.0894 3.85766 52.2584 4.02666 52.4674 4.02666H55.8683C56.0773 4.02666 56.2462 4.19567 56.2462 4.40455V5.17555C56.2462 5.38452 56.0773 5.55353 55.8683 5.55353H55.8537C55.6448 5.55353 55.4758 5.72254 55.4758 5.93142H55.4741ZM46.8275 1.53171C46.6606 1.54683 46.6154 1.54683 46.5101 1.65318C45.7137 2.44961 45.075 2.96842 44.3655 3.47977C44.217 3.58661 44.0125 3.57041 43.8813 3.44245L43.2167 2.79401C43.0449 2.62668 43.0725 2.34591 43.2706 2.21098C44.0318 1.69158 44.7565 1.11974 45.3881 0.45304C45.5215 0.312609 45.7353 0.290513 45.8892 0.40767L46.7509 1.06308C46.963 1.21422 47.0084 1.28983 47.0084 1.36594C47.0084 1.50205 46.9031 1.51658 46.827 1.5323L46.8275 1.53171ZM50.9481 2.32863C50.8585 1.9421 50.7715 1.67155 50.6959 1.47337C50.6172 1.26607 50.7262 1.03558 50.939 0.97234L51.3411 0.852532C51.5237 0.798029 51.7164 0.889751 51.7958 1.06308C51.9432 1.38538 52.055 1.68294 52.1521 2.01222C52.2131 2.21795 52.0922 2.43557 51.8843 2.48899L51.4113 2.61155C51.2062 2.66497 50.9961 2.53486 50.9481 2.32814V2.32863ZM51.2045 10.0823C51.1819 9.15632 51.1182 7.92259 50.8904 6.27317C50.8612 6.06321 51.0086 5.86503 51.2192 5.84078L51.9097 5.76084C52.111 5.73766 52.2973 5.87908 52.3287 6.07941C52.5279 7.35085 52.6213 8.51928 52.6553 9.89599C52.6596 10.0758 52.536 10.2383 52.3605 10.2783L51.6662 10.4375C51.4335 10.491 51.2099 10.3209 51.204 10.0823H51.2045ZM52.4674 1.87886V1.1387C52.4674 0.929719 52.6364 0.760711 52.8453 0.760711H55.7473C55.9563 0.760711 56.1253 0.929719 56.1253 1.1387V1.87886C56.1253 2.08783 55.9563 2.25684 55.7473 2.25684H52.8453C52.6364 2.25684 52.4674 2.08783 52.4674 1.87886Z" fill="#00FFFF" style="mix-blend-mode:difference"/>
<path d="M69.467 13.1683C66.9191 11.574 65.8156 10.3134 64.8745 8.41343C64.7379 8.13748 64.3454 8.13266 64.2029 8.40528C62.9449 10.8203 61.5977 12.1587 59.3242 13.312C59.1849 13.3827 59.0132 13.36 58.8971 13.2554L58.0495 12.4946C57.8438 12.3099 57.9021 11.9795 58.1542 11.8656C61.0822 10.5471 62.3898 8.72012 63.1397 5.9827C63.2051 5.74406 63.0204 5.5071 62.7726 5.5071H58.3939C58.185 5.5071 58.0161 5.33809 58.0161 5.12911V4.25235C58.0161 4.04338 58.185 3.87437 58.3939 3.87437H63.0922C63.292 3.87437 63.4583 3.71891 63.4702 3.51966C63.5041 2.95656 63.5042 2.39886 63.5042 2.21149C63.5042 1.56354 63.488 1.04041 63.4669 0.615485C63.4561 0.391974 63.6408 0.211083 63.8643 0.222966L65.4544 0.306635C65.5601 0.306635 65.7114 0.321267 65.7114 0.488115C65.7114 0.609003 65.5607 0.745113 65.4246 0.866002C65.3939 1.18349 65.3939 0.986989 65.3939 1.74286C65.3939 1.85678 65.3728 2.77243 65.3485 3.48509C65.341 3.69888 65.5121 3.87437 65.7265 3.87437H70.6396C70.8486 3.87437 71.0176 4.04338 71.0176 4.25235V5.12911C71.0176 5.33809 70.8486 5.5071 70.6396 5.5071H66.0088C65.7464 5.5071 65.5672 5.76734 65.653 6.01461C66.5131 8.48463 67.6863 10.038 70.7859 11.628C71.0208 11.7484 71.0694 12.0632 70.8761 12.243L69.9296 13.1246C69.8044 13.2413 69.6122 13.258 69.467 13.1673V13.1683Z" fill="#00FFFF" style="mix-blend-mode:difference"/>
<path d="M83.5212 6.23334V5.1751C83.5212 4.96613 83.3522 4.79712 83.1433 4.79712H74.935C74.7261 4.79712 74.5571 4.96613 74.5571 5.1751V6.30886C74.5571 6.51784 74.388 6.68685 74.1792 6.68685H73.3023C73.0933 6.68685 72.9244 6.51784 72.9244 6.30886V3.77079C72.9244 3.56182 73.0933 3.39281 73.3023 3.39281H80.2418C80.3563 3.39281 80.4653 3.34155 80.5371 3.25297C81.1472 2.50466 81.7081 1.7207 82.1272 0.854739C82.2102 0.683079 82.403 0.596071 82.5839 0.656073L83.763 1.04908C83.8538 1.07992 84.0206 1.18519 84.0206 1.30667C84.0206 1.36707 83.9898 1.38219 83.9606 1.39731C83.9153 1.44268 83.5821 1.5183 83.5222 1.57879C83.2976 1.99557 83.0811 2.35941 82.7756 2.79838C82.6017 3.04841 82.7798 3.39281 83.0849 3.39281H84.8072C85.0162 3.39281 85.1851 3.56182 85.1851 3.77079V6.23334C85.1851 6.44222 85.0162 6.61123 84.8072 6.61123H83.9002C83.6913 6.61123 83.5222 6.44222 83.5222 6.23334H83.5212ZM80.3611 9.83073C80.1521 9.83073 79.9832 9.99974 79.9832 10.2086V12.115C79.9832 13.1717 79.1069 13.4287 78.1842 13.4287H77.4845C77.3317 13.4287 77.194 13.3369 77.1351 13.1954L76.8058 12.4018C76.6973 12.141 76.9035 11.857 77.1848 11.8802C77.4375 11.9008 77.6869 11.919 77.776 11.919C78.0336 11.919 78.1388 11.6918 78.1388 11.465V10.2086C78.1388 9.99974 77.9698 9.83073 77.7608 9.83073H73.3018C73.0928 9.83073 72.9238 9.66172 72.9238 9.45275V8.72928C72.9238 8.52031 73.0928 8.3514 73.3018 8.3514H77.7608C77.9698 8.3514 78.1388 8.18239 78.1388 7.97341V7.41296L78.6852 7.50429C78.7986 7.52315 78.9174 7.49025 79.0015 7.41188C79.2338 7.19593 79.3363 7.05236 79.4389 6.89848H75.7811C75.5721 6.89848 75.4031 6.72947 75.4031 6.52049V5.87264C75.4031 5.66367 75.5721 5.49475 75.7811 5.49475H82.044C82.173 5.49475 82.2934 5.56055 82.363 5.66965L82.5024 5.88826C82.6028 6.04597 82.5731 6.25161 82.4333 6.37535C81.9906 6.76561 81.415 7.24562 80.8675 7.6786C80.5867 7.90054 80.7455 8.35189 81.1035 8.35189H84.7305C84.9395 8.35189 85.1085 8.5209 85.1085 8.72987V9.45334C85.1085 9.66222 84.9395 9.83122 84.7305 9.83122H80.3617L80.3611 9.83073ZM75.0527 2.8956C74.8071 2.43179 74.5484 2.02523 74.1991 1.57339C74.0625 1.39682 74.1127 1.13874 74.3033 1.02267L75.0511 0.567493C75.2098 0.470861 75.4171 0.502679 75.5364 0.645762C75.8847 1.06372 76.2038 1.49935 76.505 2.03662C76.6022 2.20995 76.5417 2.43238 76.3738 2.53873L75.5861 3.03653C75.4015 3.15309 75.1547 3.08946 75.0522 2.89609L75.0527 2.8956ZM78.4984 2.62024C78.2252 2.10025 77.9272 1.62789 77.5254 1.10683C77.3884 0.929275 77.4418 0.670115 77.635 0.55561L78.3591 0.125873C78.5195 0.0308115 78.7295 0.0675391 78.8472 0.211702C79.3272 0.802887 79.6646 1.32828 79.9415 1.84168C80.042 2.02798 79.9745 2.25954 79.7877 2.35892L79.0075 2.77305C78.8245 2.87017 78.5945 2.80329 78.4984 2.61965V2.62024Z" fill="#00FFFF" style="mix-blend-mode:difference"/>
<path d="M0.00097684 101.162V100.245C0.00097684 100.037 0.169088 99.8686 0.376292 99.8686H4.8605C5.06868 99.8686 5.23679 99.7005 5.23679 99.4925V89.5038C5.23679 89.284 5.42444 89.111 5.64338 89.1287L7.26778 89.2609C7.35868 89.2609 7.49356 89.306 7.49356 89.4264C7.49356 89.5467 7.40362 89.5924 7.32739 89.6376C7.23747 89.6827 7.1026 89.7429 7.1026 89.8181V93.1282C7.1026 93.3361 7.27071 93.5043 7.47791 93.5043H11.6005C11.8087 93.5043 11.9768 93.6725 11.9768 93.8805V94.8735C11.9768 95.0814 11.8087 95.2496 11.6005 95.2496H7.47791C7.27071 95.2496 7.1026 95.4178 7.1026 95.6257V99.4919C7.1026 99.6999 7.27071 99.8681 7.47791 99.8681H12.5788C12.787 99.8681 12.9551 100.036 12.9551 100.244V101.161C12.9551 101.369 12.787 101.538 12.5788 101.538H0.376292C0.168111 101.538 0 101.369 0 101.161L0.00097684 101.162Z" fill="#00FFFF" style="mix-blend-mode:difference"/>
<path d="M17.8327 100.815C17.5933 100.86 16.3892 101.056 16.1038 101.101C15.8926 101.131 15.4108 101.222 15.3209 101.326C15.1704 101.477 15.1254 101.522 15.0355 101.522C14.9592 101.522 14.8547 101.492 14.839 101.402L14.5703 100.166C14.5214 99.9444 14.6836 99.7299 14.9094 99.7112C15.7509 99.6402 16.1458 99.595 16.8221 99.515C17.0117 99.4924 17.1564 99.3317 17.1564 99.141V98.3619C17.1564 98.1539 16.9883 97.9857 16.7801 97.9857H15.3365C15.1283 97.9857 14.9602 97.8175 14.9602 97.6096V97.0701C14.9602 96.8621 15.1283 96.6939 15.3365 96.6939H16.7801C16.9883 96.6939 17.1564 96.5257 17.1564 96.3178V95.9696C17.1564 95.7616 16.9883 95.5935 16.7801 95.5935H15.3365C15.1283 95.5935 14.9602 95.4253 14.9602 95.2173V89.9244C14.9602 89.7164 15.1283 89.5483 15.3365 89.5483H20.3915C20.5997 89.5483 20.7678 89.7164 20.7678 89.9244V95.2183C20.7678 95.4263 20.5997 95.5945 20.3915 95.5945H18.8717C18.6635 95.5945 18.4954 95.7626 18.4954 95.9706V96.3189C18.4954 96.5268 18.6635 96.695 18.8717 96.695H20.3915C20.5997 96.695 20.7678 96.8632 20.7678 97.0712V97.6107C20.7678 97.8186 20.5997 97.9868 20.3915 97.9868H18.8717C18.6635 97.9868 18.4954 98.155 18.4954 98.363V98.86C18.4954 99.0905 18.7036 99.2662 18.9313 99.2318C19.6438 99.1243 20.1217 99.0411 20.4853 98.9696C20.7179 98.9239 20.9339 99.1013 20.9339 99.3388V99.8938C20.9339 100.072 20.8079 100.227 20.6339 100.264C19.6976 100.463 18.771 100.64 17.8327 100.815V100.815ZM16.7801 90.84H16.6892C16.482 90.84 16.3139 91.0082 16.3139 91.2162V91.5187C16.3139 91.7267 16.482 91.8949 16.6892 91.8949H16.7801C16.9883 91.8949 17.1564 91.7267 17.1564 91.5187V91.2162C17.1564 91.0082 16.9883 90.84 16.7801 90.84ZM16.7801 93.2022H16.6892C16.482 93.2022 16.3139 93.3704 16.3139 93.5784V93.911C16.3139 94.1189 16.482 94.2871 16.6892 94.2871H16.7801C16.9883 94.2871 17.1564 94.1189 17.1564 93.911V93.5784C17.1564 93.3704 16.9883 93.2022 16.7801 93.2022ZM19.0369 90.84H18.8717C18.6635 90.84 18.4954 91.0082 18.4954 91.2162V91.5187C18.4954 91.7267 18.6635 91.8949 18.8717 91.8949H19.0369C19.245 91.8949 19.4131 91.7267 19.4131 91.5187V91.2162C19.4131 91.0082 19.245 90.84 19.0369 90.84ZM19.0369 93.2022H18.8717C18.6635 93.2022 18.4954 93.3704 18.4954 93.5784V93.911C18.4954 94.1189 18.6635 94.2871 18.8717 94.2871H19.0369C19.245 94.2871 19.4131 94.1189 19.4131 93.911V93.5784C19.4131 93.3704 19.245 93.2022 19.0369 93.2022ZM25.9557 98.0776L25.51 97.8782C25.2608 97.767 24.9803 97.9491 24.9803 98.2216V100.485C24.9803 101.52 24.5962 101.855 22.9102 101.962C22.7626 101.971 22.6189 101.89 22.5505 101.757L21.88 100.455H22.7685C23.1585 100.455 23.3393 100.35 23.3393 99.9739V95.9712C23.3393 95.7632 23.1702 95.595 22.963 95.595H21.6992C21.491 95.595 21.3229 95.4268 21.3229 95.2189V94.544C21.3229 94.336 21.491 94.1678 21.6992 94.1678H23.35C23.7292 94.1678 23.8739 93.6681 23.5484 93.4714C23.2493 93.2904 22.8799 93.0883 22.4108 92.8637C22.2143 92.7697 22.141 92.5262 22.2495 92.3376L22.5662 91.789C22.658 91.6305 22.8535 91.5617 23.0246 91.6246C23.2924 91.7224 23.4898 91.8089 23.7175 91.9131C23.8543 91.976 24.0166 91.9507 24.128 91.8503C24.2433 91.7471 24.3538 91.6439 24.4672 91.5316C24.7037 91.2946 24.5356 90.8879 24.2003 90.8879H21.9846C21.7764 90.8879 21.6083 90.7197 21.6083 90.5117V89.8798C21.6083 89.6718 21.7764 89.5037 21.9846 89.5037H26.9546C27.066 89.5037 27.1716 89.5526 27.2429 89.638L27.4755 89.9153C27.5967 90.0598 27.5938 90.2694 27.4677 90.4091C27.0201 90.9024 26.375 91.5816 25.5061 92.3597C25.3263 92.5214 25.3419 92.8073 25.5384 92.9497C25.7172 93.0797 25.857 93.192 25.9772 93.2952C26.1219 93.4204 26.1522 93.6326 26.0446 93.7917L25.7905 94.1689H27.2292C27.3377 94.1689 27.4413 94.2157 27.5127 94.2973L27.8577 94.6928C27.9554 94.8041 27.9808 94.9583 27.9193 95.0921C27.5752 95.8482 27.0983 96.8304 26.4317 97.9293C26.333 98.0911 26.1258 98.156 25.9528 98.0786L25.9557 98.0776ZM25.3556 95.5945C25.1484 95.5945 24.9803 95.7626 24.9803 95.9706V97.4602C25.4015 96.9013 25.6302 96.5418 25.8394 96.1442C25.9694 95.8943 25.7866 95.5945 25.5051 95.5945H25.3556Z" fill="#00FFFF" style="mix-blend-mode:difference"/>
<path d="M36.2389 97.9363C36.0483 97.9567 35.9036 98.1184 35.9036 98.3103V99.5075C35.9036 100.275 36.0835 100.44 36.8204 100.44H38.9716C40.0262 100.44 40.3253 100.125 40.4856 99.1373C40.5256 98.8847 40.7954 98.7396 41.0241 98.8535L41.8774 99.2758C42.0279 99.3505 42.1119 99.5193 42.0797 99.6843C41.6965 101.648 41.0485 102.004 39.7545 102.004H35.887C34.6399 102.004 34.1121 101.298 34.1121 100.139V98.587C34.1121 98.3635 33.9186 98.1888 33.6957 98.2129L29.7325 98.6397C29.5262 98.6617 29.3405 98.5123 29.319 98.3054L29.232 97.4881C29.2105 97.2823 29.3591 97.0969 29.5653 97.0744L33.7778 96.6106C33.9684 96.5896 34.1131 96.4285 34.1131 96.2366V95.2614C34.1131 95.0378 33.9195 94.8637 33.6977 94.8873L29.9563 95.2855C29.751 95.3076 29.5653 95.1598 29.5419 94.9545L29.4481 94.1377C29.4236 93.9298 29.5741 93.7423 29.7823 93.7202L33.7768 93.299C33.9684 93.2785 34.114 93.1173 34.114 92.925V92.0029C34.114 91.7772 33.9147 91.6031 33.6908 91.6294C32.8425 91.7304 32.4642 91.7654 30.7147 91.918C30.5691 91.9309 30.4254 91.8583 30.3521 91.732L29.5409 90.329C30.0824 90.3591 30.2915 90.3591 30.5339 90.3591C31.7977 90.3591 35.6739 90.1436 38.8543 88.8304C38.9921 88.7734 39.1485 88.8019 39.256 88.9061L40.2226 89.8476C40.3575 89.983 40.5384 90.1635 40.5384 90.2989C40.5384 90.4198 40.4484 90.48 40.3439 90.48C40.209 90.48 40.035 90.4107 39.862 90.3441C39.7838 90.314 39.6939 90.314 39.6137 90.3387C38.2806 90.7578 37.4303 90.9658 36.2125 91.2028C36.0356 91.2371 35.9046 91.3919 35.9046 91.5724V92.6649C35.9046 92.8884 36.0981 93.0625 36.321 93.0389L40.9479 92.5504C41.1541 92.5284 41.3398 92.6783 41.3613 92.8846L41.4473 93.6869C41.4688 93.8933 41.3193 94.0786 41.113 94.1007L36.2408 94.6262C36.0502 94.6466 35.9056 94.8078 35.9056 95.0002V95.9739C35.9056 96.198 36.1001 96.3721 36.3219 96.3478L41.6242 95.7719C41.8304 95.7493 42.0171 95.8992 42.0386 96.106L42.1256 96.9223C42.1471 97.1286 41.9976 97.3135 41.7913 97.336L36.2408 97.9363H36.2389Z" fill="#00FFFF" style="mix-blend-mode:difference"/>
<path d="M51.4057 97.2321L52.1007 101.161C52.1368 101.362 52.0039 101.556 51.8035 101.595L50.7998 101.794C50.5916 101.836 50.3902 101.697 50.356 101.488L49.6679 97.4266C49.6347 97.2272 49.45 97.0902 49.2496 97.116L45.087 97.6539C44.8827 97.6802 44.6951 97.5367 44.6667 97.332L44.5436 96.4368C44.5152 96.2299 44.6609 96.0397 44.8681 96.0123L48.9339 95.4803C49.146 95.4524 49.2917 95.2546 49.2565 95.044L49.0522 93.8457C49.018 93.6463 48.8323 93.5093 48.6319 93.5356L45.7213 93.9204C45.5161 93.9478 45.3274 93.8032 45.2991 93.5974L45.1896 92.7812C45.1613 92.5738 45.3079 92.3841 45.5161 92.3578L48.3436 92.0026C48.5567 91.9757 48.7043 91.7764 48.6681 91.5652L48.3407 89.6764C48.3026 89.455 48.4658 89.2492 48.6906 89.2369L49.8488 89.1708C50.1791 89.1557 50.3003 89.2009 50.3003 89.3212C50.3003 89.3809 50.0442 89.6522 50.0599 89.7275L50.357 91.3621C50.3932 91.5593 50.5769 91.6936 50.7753 91.6678L53.3331 91.339C53.5364 91.3126 53.7241 91.455 53.7534 91.6587L53.8717 92.4792C53.902 92.6866 53.7563 92.879 53.5472 92.9059L51.0822 93.2272C50.8701 93.2551 50.7235 93.455 50.7607 93.6668L50.9728 94.8511C51.0089 95.0488 51.1927 95.1837 51.392 95.1579L55.0406 94.6813C55.2468 94.6544 55.4364 94.8 55.4628 95.0069L55.5782 95.9151C55.6045 96.1208 55.4589 96.3088 55.2537 96.3357L51.7283 96.7936C51.5152 96.821 51.3686 97.0209 51.4057 97.2321Z" fill="#00FFFF" style="mix-blend-mode:difference"/>
<path d="M64.4164 98.0062L63.746 97.7193C63.5388 97.63 63.4547 97.3796 63.5691 97.1841C63.6873 96.981 63.8017 96.7859 64.0783 96.3329C64.3637 95.8665 64.394 95.8213 64.6794 95.3248L62.3073 95.8073C62.105 95.8488 61.973 96.0454 62.0131 96.2485L62.9993 101.273C63.0383 101.472 62.9132 101.666 62.7158 101.712L61.845 101.915C61.6348 101.964 61.4276 101.827 61.3895 101.615L60.4894 96.5785C60.4522 96.37 60.2499 96.2335 60.0427 96.2765L57.9755 96.7052C57.7977 96.7424 57.6178 96.6461 57.5504 96.4763L57.2953 95.838C57.2073 95.6188 57.3412 95.3738 57.5729 95.3291L59.7983 94.8992C60.0007 94.86 60.1346 94.665 60.0974 94.4618L59.7417 92.5306C59.7026 92.3167 59.8521 92.1136 60.0681 92.0889L61.0983 91.9696C61.1735 91.9546 61.4892 91.9395 61.4892 92.105C61.4892 92.1351 61.4892 92.1652 61.369 92.3162C61.3377 92.3614 61.2634 92.4661 61.2781 92.5419L61.6104 94.1631C61.6514 94.3651 61.8479 94.4962 62.0492 94.457L65.2052 93.8503C65.3332 93.8278 65.4427 93.7563 65.5287 93.6773C65.6587 93.5591 65.8591 93.5634 66.0008 93.6671L66.6566 94.1443C66.814 94.2587 66.857 94.4764 66.7563 94.6435C66.2109 95.5537 65.7291 96.378 64.8905 97.845C64.7957 98.011 64.5904 98.082 64.4145 98.0067L64.4164 98.0062Z" fill="#00FFFF" style="mix-blend-mode:difference"/>
<path d="M71.1972 93.014C70.5062 92.4799 69.7145 91.985 68.8163 91.5502C68.612 91.4514 68.5358 91.1983 68.659 91.0075L69.1662 90.2251C69.2679 90.0688 69.4663 90.0065 69.6354 90.0849C70.47 90.4696 71.421 90.9876 72.2254 91.5991C72.3837 91.7195 72.414 91.9474 72.3016 92.1112L71.7377 92.9323C71.6145 93.1112 71.3692 93.1467 71.1972 93.014ZM75.9179 97.3557C73.6103 99.2257 72.1951 99.8754 70.4085 100.641C70.3049 100.685 70.2237 100.774 70.1934 100.883C70.1485 101.039 70.1084 101.177 70.0204 101.177C69.9305 101.177 69.7947 101.087 69.6891 100.891L68.8896 99.5196C68.7635 99.3036 68.8779 99.0291 69.1193 98.9667C70.3361 98.6529 72.1101 98.0639 74.2183 96.4831C76.2092 94.9995 77.559 93.3133 78.3154 92.3004C78.4699 92.094 78.7797 92.1 78.9263 92.3122L79.5108 93.1601C79.6036 93.2939 79.5997 93.4697 79.502 93.5992C78.8725 94.4342 77.7359 95.8823 75.9179 97.3557Z" fill="#00FFFF" style="mix-blend-mode:difference"/>
<path d="M85.0867 91.9696C85.0408 92.0147 84.77 92.1501 84.7251 92.2103C84.6655 92.27 84.424 93.2936 84.3644 93.4892C83.3489 96.9083 82.0011 98.8767 81.2554 99.8923C81.1547 100.03 80.9749 100.081 80.8156 100.019L79.6711 99.5683C79.4287 99.4732 79.3593 99.1711 79.5274 98.9723C81.3043 96.8713 82.4302 94.1034 82.9247 91.5805C82.9658 91.3726 83.1652 91.2404 83.3724 91.2866L84.815 91.6085C84.8609 91.6235 85.1766 91.6988 85.1766 91.8492C85.1766 91.9089 85.1317 91.9395 85.0867 91.9696ZM90.6099 99.2142C90.0488 96.9707 88.7919 94.0932 87.4705 92.2963C87.3347 92.1125 87.3845 91.8541 87.5829 91.7412L88.4821 91.2313C88.6483 91.1372 88.8574 91.1781 88.9698 91.3318C90.2179 93.0502 91.6732 95.8895 92.4972 98.4833C92.5548 98.665 92.4639 98.8595 92.2909 98.9384L91.1308 99.4672C90.9148 99.5655 90.6675 99.4435 90.6099 99.2136V99.2142ZM91.6918 92.5413C90.9236 92.5413 90.2766 91.8944 90.2766 91.0813C90.2766 90.2845 90.9089 89.637 91.6918 89.637C92.504 89.637 93.1217 90.2984 93.1217 91.0813C93.1217 91.8788 92.4737 92.5413 91.6918 92.5413ZM91.6918 90.2393C91.21 90.2393 90.864 90.6456 90.864 91.0813C90.864 91.5478 91.2403 91.9395 91.6918 91.9395C92.1434 91.9395 92.5333 91.5634 92.5333 91.0813C92.5333 90.63 92.1727 90.2393 91.6918 90.2393Z" fill="#00FFFF" style="mix-blend-mode:difference"/>
<path d="M103.86 100.527C102.72 99.1513 101.777 98.1922 100.74 97.327C100.586 97.1986 100.357 97.2174 100.222 97.3657C99.1386 98.5527 98.0312 99.6043 95.5692 100.841C95.4216 100.915 95.2398 100.886 95.1245 100.768L94.3699 99.9869C94.1891 99.7999 94.2468 99.4894 94.4843 99.3834C95.535 98.9138 97.1642 98.0788 98.7926 96.3475C100.126 94.9278 100.76 93.65 101.135 92.7633C101.241 92.514 101.06 92.2394 100.789 92.2394H95.9934C95.7861 92.2394 95.618 92.0712 95.618 91.8633V90.8703C95.618 90.6623 95.7861 90.4941 95.9934 90.4941H102.102C102.294 90.4941 102.458 90.4269 102.626 90.3291C102.78 90.2389 102.977 90.2652 103.098 90.3979L103.763 91.133C103.904 91.2894 103.899 91.5371 103.739 91.673C103.538 91.8434 103.351 92.054 103.23 92.3453C102.754 93.4673 102.473 94.1449 101.669 95.4259C101.566 95.5892 101.603 95.8037 101.755 95.9218C103.012 96.9004 104.148 98.0111 105.232 99.1728C105.367 99.3179 105.366 99.5436 105.231 99.6886L104.426 100.548C104.271 100.714 104.004 100.702 103.859 100.527H103.86Z" fill="#00FFFF" style="mix-blend-mode:difference"/>
<path d="M24.9395 74.6799V75.0179C24.9395 76.2506 25.478 76.6724 26.2853 76.6724C27.0936 76.6724 27.6654 76.0475 27.6654 74.731C27.6654 72.975 26.6889 72.8062 26.2853 72.8062C26.1641 72.8062 25.8592 72.8169 25.5698 72.9776C25.432 73.0544 25.261 73.0432 25.1408 72.9417L24.5006 72.4016C24.3442 72.2699 24.3217 72.0373 24.4498 71.8777L27.0037 68.7074C27.2021 68.4613 27.0271 68.0952 26.7114 68.0952H25.216C25.0079 68.0952 24.8398 68.2634 24.8398 68.4714V68.8642C24.8398 69.0722 24.6717 69.2403 24.4635 69.2403H23.5741C23.3659 69.2403 23.1978 69.0722 23.1978 68.8642V66.9249C23.1978 66.7169 23.3659 66.5488 23.5741 66.5488H28.9995C29.2076 66.5488 29.3758 66.7169 29.3758 66.9249V68.0652C29.3758 68.1507 29.3464 68.2333 29.2937 68.3L27.3839 70.6902C27.2197 70.8954 27.3096 71.2076 27.5617 71.2801C28.7014 71.6079 29.41 72.9126 29.41 74.73C29.41 78.0685 27.3301 78.3705 26.2863 78.3705C25.1769 78.3705 23.1978 78.0507 23.1978 75.0168V74.6794H24.9404L24.9395 74.6799Z" fill="#00FFFF" style="mix-blend-mode:difference"/>
<path d="M6.24348 75.3049V77.766C6.24348 77.974 6.07537 78.1422 5.86718 78.1422H0.375315C0.168111 78.1422 0 77.974 0 77.766V76.9691C0 74.608 1.56771 73.4258 3.12174 71.8718C3.66321 71.3312 4.49105 70.5038 4.49105 69.5747C4.49105 68.9497 4.37181 68.0379 3.13836 68.0379C1.77003 68.0379 1.75341 69.2539 1.75341 69.7412V70.4145H0.0332275V69.7412C0.0332275 67.7375 0.978353 66.3237 3.13836 66.3237C5.19867 66.3237 6.24348 67.5194 6.24348 69.573C6.24348 70.7869 5.68735 71.6993 4.3718 73.0186C3.32894 74.0626 2.18542 74.9949 1.88145 75.9331C1.8062 76.1658 2.00264 76.4001 2.24699 76.4001H4.21543C4.42361 76.4001 4.59171 76.2319 4.59171 76.0239V75.306C4.59171 75.098 4.75982 74.9299 4.968 74.9299H5.86718C6.07537 74.9299 6.24348 75.098 6.24348 75.306V75.3049Z" fill="#00FFFF" style="mix-blend-mode:difference"/>
<path d="M13.948 69.7452V74.9484C13.948 76.9581 12.9394 78.3719 10.8498 78.3719C8.76012 78.3719 7.75049 76.9581 7.75049 74.9484V69.7452C7.75049 67.7361 8.76012 66.3218 10.8498 66.3218C12.9394 66.3218 13.948 67.7361 13.948 69.7452ZM9.44918 69.7452V71.7523C9.44918 72.1112 9.90267 72.266 10.1226 71.9823L12.1458 69.3681C12.2015 69.295 12.2357 69.2042 12.2249 69.1123C12.1643 68.5975 11.7744 68.0048 10.8498 68.0048C9.48338 68.0048 9.44918 69.2547 9.44918 69.7447V69.7452ZM12.2494 74.9484V72.9596C12.2494 72.6007 11.7949 72.4454 11.5759 72.7297L9.57036 75.3262C9.51465 75.3987 9.48143 75.489 9.4912 75.5803C9.54887 76.0951 9.92418 76.6888 10.8498 76.6888C12.2161 76.6888 12.2494 75.4389 12.2494 74.9489V74.9484Z" fill="#00FFFF" style="mix-blend-mode:difference"/>
<path d="M21.6751 75.3049V77.766C21.6751 77.974 21.507 78.1422 21.2998 78.1422H15.8079C15.6007 78.1422 15.4316 77.974 15.4316 77.766V76.9691C15.4316 74.608 17.0003 73.4258 18.5544 71.8718C19.0958 71.3312 19.9237 70.5038 19.9237 69.5747C19.9237 68.9497 19.8054 68.0379 18.571 68.0379C17.2036 68.0379 17.187 69.2539 17.187 69.7412V70.4145H15.4668V69.7412C15.4668 67.7375 16.411 66.3237 18.571 66.3237C20.6313 66.3237 21.6751 67.5194 21.6751 69.573C21.6751 70.7869 21.12 71.6993 19.8054 73.0186C18.7616 74.0626 17.618 74.9949 17.314 75.9331C17.2388 76.1658 17.4353 76.4001 17.6796 76.4001H19.648C19.8562 76.4001 20.0243 76.2319 20.0243 76.0239V75.306C20.0243 75.098 20.1924 74.9299 20.4006 74.9299H21.2998C21.507 74.9299 21.6751 75.098 21.6751 75.306V75.3049Z" fill="#00FFFF" style="mix-blend-mode:difference"/>
<path d="M31.6527 76.0957H32.9887C33.1969 76.0957 33.365 76.2639 33.365 76.4719V77.8088C33.365 78.0167 33.1969 78.1849 32.9887 78.1849H31.6527C31.4445 78.1849 31.2764 78.0167 31.2764 77.8088V76.4719C31.2764 76.2639 31.4445 76.0957 31.6527 76.0957Z" fill="#00FFFF" style="mix-blend-mode:difference"/>
<path d="M48.1761 75.4753H49.5122C49.7204 75.4753 49.8885 75.6435 49.8885 75.8515V77.1884C49.8885 77.3964 49.7204 77.5646 49.5122 77.5646H48.1761C47.9679 77.5646 47.7998 77.3964 47.7998 77.1884V75.8515C47.7998 75.6435 47.9679 75.4753 48.1761 75.4753Z" fill="#00FFFF" style="mix-blend-mode:difference"/>
<path d="M83.7261 71.8022H86.9368C87.1039 71.8022 87.2964 71.6765 87.3629 71.5227L87.4558 71.3116C87.5232 71.1579 87.6219 71.1622 87.6767 71.3202L88.1282 72.6265C88.1829 72.785 88.267 72.7829 88.3139 72.6222L89.1056 69.9398C89.1525 69.7791 89.2092 69.7834 89.2307 69.9494L89.7692 74.0547C89.7917 74.2208 89.8435 74.224 89.8865 74.0622L90.6928 70.9725C90.7349 70.8102 90.8042 70.8102 90.8463 70.9725L90.9899 71.5244C91.032 71.6866 91.204 71.8194 91.3711 71.8194H94.9767" fill="#00FFFF" style="mix-blend-mode:difference"/>
<path d="M83.7261 71.8022H86.9368C87.1039 71.8022 87.2964 71.6765 87.3629 71.5227L87.4558 71.3116C87.5232 71.1579 87.6219 71.1622 87.6767 71.3202L88.1282 72.6265C88.1829 72.785 88.267 72.7829 88.3139 72.6222L89.1056 69.9398C89.1525 69.7791 89.2092 69.7834 89.2307 69.9494L89.7692 74.0547C89.7917 74.2208 89.8435 74.224 89.8865 74.0622L90.6928 70.9725C90.7349 70.8102 90.8042 70.8102 90.8463 70.9725L90.9899 71.5244C91.032 71.6866 91.204 71.8194 91.3711 71.8194H94.9767" fill="#00FFFF" style="mix-blend-mode:difference"/>
<path d="M83.7261 71.8022H86.9368C87.1039 71.8022 87.2964 71.6765 87.3629 71.5227L87.4558 71.3116C87.5232 71.1579 87.6219 71.1622 87.6767 71.3202L88.1282 72.6265C88.1829 72.785 88.267 72.7829 88.3139 72.6222L89.1056 69.9398C89.1525 69.7791 89.2092 69.7834 89.2307 69.9494L89.7692 74.0547C89.7917 74.2208 89.8435 74.224 89.8865 74.0622L90.6928 70.9725C90.7349 70.8102 90.8042 70.8102 90.8463 70.9725L90.9899 71.5244C91.032 71.6866 91.204 71.8194 91.3711 71.8194H94.9767" stroke="#00FFFF" stroke-width="0.6" stroke-linejoin="bevel" style="mix-blend-mode:difference"/>
<path d="M39.4715 75.8183H40.8995C41.1067 75.8183 41.2748 75.6501 41.2748 75.4421V69.4539C41.2748 69.246 41.1067 69.0778 40.8995 69.0778H39.4715C39.2633 69.0778 39.0952 68.9096 39.0952 68.7016V68.0848C39.0952 67.8951 39.2369 67.7318 39.4256 67.7129C40.3287 67.6254 41.0617 67.1648 41.2396 66.2573C41.2728 66.0864 41.4292 65.9666 41.6032 65.9666H42.7467C42.9549 65.9666 43.123 66.1348 43.123 66.3427V75.4421C43.123 75.6501 43.2911 75.8183 43.4983 75.8183H44.9204C45.1276 75.8183 45.2967 75.9865 45.2967 76.1944V77.1854C45.2967 77.3933 45.1276 77.5615 44.9204 77.5615H39.4715C39.2633 77.5615 39.0952 77.3933 39.0952 77.1854V76.1944C39.0952 75.9865 39.2633 75.8183 39.4715 75.8183Z" fill="#00FFFF" style="mix-blend-mode:difference"/>
<path d="M53.0941 75.8183H54.522C54.7292 75.8183 54.8973 75.6501 54.8973 75.4421V69.4539C54.8973 69.246 54.7292 69.0778 54.522 69.0778H53.0941C52.8869 69.0778 52.7178 68.9096 52.7178 68.7016V68.0848C52.7178 67.8951 52.8595 67.7318 53.0481 67.7129C53.9512 67.6254 54.6843 67.1648 54.8621 66.2573C54.8954 66.0864 55.0518 65.9666 55.2257 65.9666H56.3692C56.5764 65.9666 56.7455 66.1348 56.7455 66.3427V75.4421C56.7455 75.6501 56.9137 75.8183 57.1209 75.8183H58.5429C58.7511 75.8183 58.9192 75.9865 58.9192 76.1944V77.1854C58.9192 77.3933 58.7511 77.5615 58.5429 77.5615H53.0941C52.8869 77.5615 52.7178 77.3933 52.7178 77.1854V76.1944C52.7178 75.9865 52.8869 75.8183 53.0941 75.8183Z" fill="#00FFFF" style="mix-blend-mode:difference"/>
<path d="M66.2044 73.9644V74.5039C66.2044 76.0058 65.4303 77.7919 63.0758 77.7919C60.7223 77.7919 59.9482 76.0058 59.9482 74.5039V73.9644C59.9482 72.6006 60.4819 71.8564 60.8582 71.5092C61.0136 71.3652 60.9999 71.1234 60.8533 70.9703C60.4047 70.5017 60.0157 69.7542 60.0157 68.8317C60.0157 67.2067 61.0595 65.7402 63.0768 65.7402C65.0941 65.7402 66.137 67.2067 66.137 68.8317C66.137 69.7531 65.7382 70.5002 65.2945 70.9692C65.1498 71.1224 65.1371 71.3637 65.2925 71.5066C65.6678 71.8527 66.2044 72.5974 66.2044 73.965V73.9644ZM64.453 74.5039V73.9644C64.453 72.8844 63.8822 72.3277 63.0758 72.3277C62.2695 72.3277 61.6987 72.8844 61.6987 73.9644V74.5039C61.6987 75.584 62.2695 76.1407 63.0758 76.1407C63.8822 76.1407 64.453 75.584 64.453 74.5039ZM61.7652 68.8988C61.7652 69.8816 62.2695 70.4066 63.0758 70.4066C63.8812 70.4066 64.3855 69.8816 64.3855 68.8988C64.3855 67.916 63.8812 67.391 63.0758 67.391C62.2695 67.391 61.7652 67.9166 61.7652 68.8988Z" fill="#00FFFF" style="mix-blend-mode:difference"/>
<path d="M69.7328 76.7634C69.6986 76.7371 69.6673 76.7038 69.6419 76.6683C65.7441 71.082 69.5734 65.3447 74.6646 65.3447C78.2975 65.3447 81.2873 68.2652 81.2873 71.967C81.2873 77.2019 75.2276 81.0095 69.7328 76.7639V76.7634ZM74.6646 65.8332C69.9497 65.8332 66.3686 71.1917 70.0543 76.3551C70.0788 76.39 70.111 76.4227 70.1452 76.4485C75.2403 80.3239 80.7986 76.7833 80.7986 71.9666C80.7986 68.5436 78.018 65.8332 74.6646 65.8332ZM70.6515 75.3539L70.2811 75.1374C70.0573 75.0068 70.0289 74.6925 70.2273 74.5275C71.6846 73.3169 72.2358 72.0143 72.4323 70.9977C72.4772 70.7671 72.2955 70.5554 72.0599 70.5554H70.8773C70.6701 70.5554 70.502 70.3872 70.502 70.1793V69.8139C70.502 69.6059 70.6701 69.4378 70.8773 69.4378H73.3813C73.5993 69.4378 73.7771 69.6248 73.7596 69.8418C73.566 72.197 72.574 74.0724 71.0835 75.3217C70.9623 75.4232 70.7874 75.434 70.6505 75.3539H70.6515ZM77.9271 75.2798C77.3749 74.8467 76.6125 74.1992 75.9303 73.2916C75.7114 73.0009 75.251 73.1476 75.251 73.5114V75.082C75.251 76.1611 74.7311 76.3572 73.6012 76.3905C73.4439 76.3953 73.2992 76.2981 73.2415 76.1514L72.876 75.2218C73.0441 75.2502 73.3227 75.3201 73.6306 75.3201C73.8817 75.3201 74.0919 75.2363 74.0919 74.9708V67.8375C74.0919 67.6166 74.2815 67.4432 74.5014 67.463L75.1817 67.5237C75.4045 67.5377 75.5169 67.5522 75.5169 67.6639C75.5169 67.7338 75.251 67.9294 75.251 67.9993V68.7677C75.251 69.0594 75.2784 69.5764 75.4915 70.247C75.5745 70.5076 75.9049 70.5947 76.1062 70.4093C76.5529 69.9961 76.9957 69.4727 77.3622 68.8902C77.4677 68.7221 77.6798 68.658 77.8558 68.7499L78.5624 69.118C78.7442 69.2158 78.8556 69.2997 78.8556 69.383C78.8556 69.4533 78.7442 69.4668 78.6044 69.4947C78.5204 69.5086 78.5057 69.5366 78.2965 69.7887C78.1939 69.9171 77.5342 70.7327 76.4923 71.5598C76.3379 71.6817 76.2929 71.9036 76.4034 72.066C77.0885 73.0729 77.9828 73.7876 78.7051 74.2723C78.8888 74.3964 78.923 74.6511 78.7803 74.822L78.4461 75.224C78.3151 75.3802 78.0864 75.4071 77.9261 75.2814L77.9271 75.2798Z" fill="#00FFFF" style="mix-blend-mode:difference"/>
<path d="M103.294 74.7241V77.1852C103.294 77.3932 103.125 77.5614 102.917 77.5614H97.4256C97.2184 77.5614 97.0503 77.3932 97.0503 77.1852V76.3883C97.0503 74.0272 98.618 72.845 100.172 71.291C100.713 70.7504 101.541 69.923 101.541 68.9939C101.541 68.3689 101.422 67.457 100.189 67.457C98.8203 67.457 98.8037 68.6731 98.8037 69.1604V69.8337H97.0835V69.1604C97.0835 67.1567 98.0286 65.7429 100.189 65.7429C102.249 65.7429 103.294 66.9385 103.294 68.9923C103.294 70.2061 102.738 71.1186 101.422 72.4378C100.379 73.4818 99.2357 74.4141 98.9317 75.3523C98.8565 75.585 99.0529 75.8193 99.2973 75.8193H101.266C101.474 75.8193 101.642 75.6511 101.642 75.4431V74.7252C101.642 74.5172 101.81 74.3491 102.018 74.3491H102.917C103.125 74.3491 103.294 74.5172 103.294 74.7252V74.7241Z" fill="#00FFFF" style="mix-blend-mode:difference"/>
<path d="M110.708 74.7241V77.1852C110.708 77.3932 110.54 77.5614 110.332 77.5614H104.841C104.633 77.5614 104.465 77.3932 104.465 77.1852V76.3883C104.465 74.0272 106.034 72.845 107.587 71.291C108.128 70.7504 108.956 69.923 108.956 68.9939C108.956 68.3689 108.838 67.457 107.604 67.457C106.236 67.457 106.219 68.6731 106.219 69.1604V69.8337H104.499V69.1604C104.499 67.1567 105.443 65.7429 107.604 65.7429C109.664 65.7429 110.708 66.9385 110.708 68.9923C110.708 70.2061 110.152 71.1186 108.838 72.4378C107.794 73.4818 106.65 74.4141 106.347 75.3523C106.272 75.585 106.467 75.8193 106.712 75.8193H108.68C108.888 75.8193 109.057 75.6511 109.057 75.4431V74.7252C109.057 74.5172 109.225 74.3491 109.433 74.3491H110.332C110.54 74.3491 110.708 74.5172 110.708 74.7252V74.7241Z" fill="#00FFFF" style="mix-blend-mode:difference"/>
<path d="M114.263 76.7625C114.229 76.7362 114.198 76.7029 114.172 76.6674C110.276 71.0812 114.104 65.3455 119.195 65.3455C122.827 65.3455 125.817 68.2649 125.817 71.9662C125.817 77.2015 119.757 81.0076 114.263 76.7625ZM119.195 65.8324C114.481 65.8324 110.895 71.1935 114.586 76.3537C114.61 76.3885 114.642 76.4208 114.676 76.4466C119.767 80.3273 125.33 76.7824 125.33 71.9662C125.33 68.5438 122.547 65.8324 119.196 65.8324H119.195ZM121.166 75.9479V75.4164H117.253V76.0038H116.401C116.193 76.0038 116.024 75.8356 116.024 75.6277V68.3621C116.024 68.1542 116.193 67.986 116.401 67.986H121.989C122.198 67.986 122.366 68.1542 122.366 68.3621V75.5718C122.366 75.7797 122.198 75.9479 121.989 75.9479H121.166ZM120.79 69.1155H117.629C117.421 69.1155 117.253 69.2837 117.253 69.4917V70.711C117.253 70.9189 117.421 71.0871 117.629 71.0871H120.79C120.998 71.0871 121.166 70.9189 121.166 70.711V69.4917C121.166 69.2837 120.998 69.1155 120.79 69.1155ZM120.79 72.1612H117.629C117.421 72.1612 117.253 72.3294 117.253 72.5374V73.9103C117.253 74.1182 117.421 74.2864 117.629 74.2864H120.79C120.998 74.2864 121.166 74.1182 121.166 73.9103V72.5374C121.166 72.3294 120.998 72.1612 120.79 72.1612Z" fill="#00FFFF" style="mix-blend-mode:difference"/>
<path d="M133.041 75.1328V74.9469H134.728V75.048C134.728 75.775 134.829 76.7213 136.075 76.7213C137.204 76.7213 137.439 75.8765 137.439 74.9131V73.7771C137.439 73.5041 137.156 73.3167 136.91 73.4344C136.653 73.5579 136.31 73.6622 135.89 73.6622C133.699 73.6622 132.923 72.0458 132.923 70.0001C132.923 68.4778 133.53 66.3225 136.058 66.3225C138.586 66.3225 139.193 68.4778 139.193 70.0001V74.9131C139.193 76.8051 138.434 78.3726 136.075 78.3726C133.8 78.3726 133.041 76.991 133.041 75.1324V75.1328ZM134.694 70.0007C134.694 71.4719 135.216 71.9797 136.058 71.9797C136.901 71.9797 137.422 71.4725 137.422 70.0007C137.422 68.5289 136.9 68.0211 136.058 68.0211C135.217 68.0211 134.694 68.5283 134.694 70.0007Z" fill="#00FFFF" style="mix-blend-mode:difference"/>
<path d="M142.309 68.925H143.646C143.854 68.925 144.022 69.0932 144.022 69.3012V70.6381C144.022 70.8461 143.854 71.0143 143.646 71.0143H142.309C142.101 71.0143 141.933 70.8461 141.933 70.6381V69.3012C141.933 69.0932 142.101 68.925 142.309 68.925ZM144.023 74.0561V75.3931C144.023 75.6011 143.855 75.7693 143.647 75.7693H142.31C142.102 75.7693 141.934 75.6011 141.934 75.3931V74.0561C141.934 73.8483 142.102 73.68 142.31 73.68H143.647C143.855 73.68 144.023 73.8483 144.023 74.0561Z" fill="#00FFFF" style="mix-blend-mode:difference"/>
<path d="M152.88 69.7452V74.9483C152.88 76.958 151.871 78.3718 149.781 78.3718C147.692 78.3718 146.683 76.958 146.683 74.9483V69.7452C146.683 67.7361 147.692 66.3218 149.781 66.3218C151.871 66.3218 152.88 67.7361 152.88 69.7452ZM148.382 69.7452V71.7522C148.382 72.1112 148.836 72.2659 149.055 71.9822L151.078 69.368C151.134 69.2949 151.167 69.2041 151.157 69.1122C151.096 68.5974 150.707 68.0048 149.781 68.0048C148.415 68.0048 148.382 69.2546 148.382 69.7447V69.7452ZM151.182 74.9483V72.9597C151.182 72.6007 150.727 72.4454 150.508 72.7297L148.503 75.3261C148.447 75.3986 148.413 75.4889 148.424 75.5803C148.481 76.0951 148.856 76.6889 149.782 76.6889C151.148 76.6889 151.182 75.439 151.182 74.9489V74.9483Z" fill="#00FFFF" style="mix-blend-mode:difference"/>
<path d="M160.295 69.7452V74.9483C160.295 76.958 159.286 78.3718 157.196 78.3718C155.106 78.3718 154.098 76.958 154.098 74.9483V69.7452C154.098 67.7361 155.106 66.3218 157.196 66.3218C159.286 66.3218 160.295 67.7361 160.295 69.7452ZM155.796 69.7452V71.7522C155.796 72.1112 156.25 72.2659 156.47 71.9822L158.493 69.368C158.55 69.2949 158.583 69.2041 158.572 69.1122C158.512 68.5974 158.122 68.0048 157.196 68.0048C155.829 68.0048 155.796 69.2546 155.796 69.7447V69.7452ZM158.597 74.9483V72.9591C158.597 72.6002 158.143 72.4449 157.923 72.7291L155.917 75.3256C155.861 75.3981 155.828 75.4889 155.838 75.5797C155.896 76.0945 156.271 76.6883 157.197 76.6883C158.563 76.6883 158.597 75.4384 158.597 74.9483Z" fill="#00FFFF" style="mix-blend-mode:difference"/>
<path d="M176.884 76.3994H178.313C178.521 76.3994 178.689 76.2312 178.689 76.0232V70.035C178.689 69.827 178.521 69.6589 178.313 69.6589H176.884C176.676 69.6589 176.508 69.4907 176.508 69.2827V68.6658C176.508 68.4761 176.65 68.3128 176.838 68.294C177.742 68.2064 178.475 67.7459 178.653 66.8383C178.686 66.6674 178.843 66.5476 179.017 66.5476H180.161C180.369 66.5476 180.537 66.7158 180.537 66.9238V76.0232C180.537 76.2312 180.705 76.3994 180.913 76.3994H182.334C182.542 76.3994 182.71 76.5675 182.71 76.7755V77.7663C182.71 77.9743 182.542 78.1425 182.334 78.1425H176.885C176.677 78.1425 176.509 77.9743 176.509 77.7663V76.7755C176.509 76.5675 176.677 76.3994 176.885 76.3994H176.884Z" fill="#00FFFF" style="mix-blend-mode:difference"/>
<path d="M189.999 66.9228V68.0926C189.999 68.1614 189.979 68.228 189.944 68.2866C188.583 70.4757 187.539 73.0088 187.573 76.1216C187.575 76.3274 187.748 76.4957 187.954 76.4957H188.326C188.533 76.4957 188.702 76.6639 188.702 76.8717V77.7707C188.702 77.9787 188.533 78.1469 188.326 78.1469H184.974C184.766 78.1469 184.597 77.9787 184.597 77.7707V76.8717C184.597 76.6639 184.766 76.4957 184.974 76.4957H185.428C185.637 76.4957 185.806 76.3274 185.803 76.1184C185.777 74.5279 186.17 71.8686 187.876 68.76C188.014 68.5069 187.838 68.1974 187.55 68.1974H185.783C185.575 68.1974 185.407 68.3655 185.407 68.5735V69.3715C185.407 69.5794 185.239 69.7476 185.031 69.7476H184.131C183.923 69.7476 183.755 69.5794 183.755 69.3715V66.9228C183.755 66.7148 183.923 66.5466 184.131 66.5466H189.623C189.831 66.5466 189.999 66.7148 189.999 66.9228H189.999Z" fill="#00FFFF" style="mix-blend-mode:difference"/>
<path d="M193.004 68.925H194.34C194.548 68.925 194.717 69.0932 194.717 69.3012V70.6381C194.717 70.8461 194.548 71.0143 194.34 71.0143H193.004C192.796 71.0143 192.627 70.8461 192.627 70.6381V69.3012C192.627 69.0932 192.796 68.925 193.004 68.925ZM194.717 74.0561V75.3931C194.717 75.6011 194.549 75.7693 194.341 75.7693H193.004C192.796 75.7693 192.628 75.6011 192.628 75.3931V74.0561C192.628 73.8483 192.796 73.68 193.004 73.68H194.341C194.549 73.68 194.717 73.8483 194.717 74.0561Z" fill="#00FFFF" style="mix-blend-mode:difference"/>
<path d="M203.581 69.7452V74.9483C203.581 76.958 202.572 78.3718 200.483 78.3718C198.393 78.3718 197.384 76.958 197.384 74.9483V69.7452C197.384 67.7361 198.393 66.3218 200.483 66.3218C202.572 66.3218 203.581 67.7361 203.581 69.7452ZM199.083 69.7452V71.7522C199.083 72.1112 199.537 72.2659 199.757 71.9822L201.779 69.368C201.835 69.2949 201.868 69.2041 201.858 69.1122C201.798 68.5974 201.408 68.0048 200.483 68.0048C199.116 68.0048 199.083 69.2546 199.083 69.7447V69.7452ZM201.883 74.9483V72.9597C201.883 72.6007 201.428 72.4454 201.209 72.7297L199.204 75.3261C199.148 75.3986 199.115 75.4889 199.125 75.5803C199.182 76.0951 199.557 76.6889 200.483 76.6889C201.85 76.6889 201.883 75.439 201.883 74.9489V74.9483Z" fill="#00FFFF" style="mix-blend-mode:difference"/>
<path d="M210.996 69.7452V74.9483C210.996 76.958 209.986 78.3718 207.897 78.3718C205.807 78.3718 204.798 76.958 204.798 74.9483V69.7452C204.798 67.7361 205.807 66.3218 207.897 66.3218C209.986 66.3218 210.996 67.7361 210.996 69.7452ZM206.497 69.7452V71.7522C206.497 72.1112 206.951 72.2659 207.171 71.9822L209.194 69.368C209.25 69.2949 209.284 69.2041 209.273 69.1122C209.213 68.5974 208.822 68.0048 207.897 68.0048C206.53 68.0048 206.497 69.2546 206.497 69.7447V69.7452ZM209.298 74.9483V72.9591C209.298 72.6002 208.844 72.4449 208.624 72.7291L206.618 75.3256C206.562 75.3981 206.528 75.4889 206.539 75.5797C206.596 76.0945 206.972 76.6883 207.897 76.6883C209.264 76.6883 209.298 75.4384 209.298 74.9483Z" fill="#00FFFF" style="mix-blend-mode:difference"/>
<path d="M162.871 72.383H166.081C166.249 72.383 166.441 72.2573 166.508 72.1036L166.6 71.8924C166.668 71.7388 166.767 71.7431 166.822 71.901L167.273 73.2073C167.328 73.3658 167.411 73.3637 167.459 73.203L168.25 70.5206C168.297 70.3599 168.354 70.3642 168.376 70.5302L168.914 74.6355C168.936 74.8016 168.988 74.8048 169.031 74.6431L169.837 71.5534C169.88 71.3911 169.949 71.3911 169.991 71.5534L170.134 72.1052C170.176 72.2674 170.348 72.4002 170.515 72.4002H174.121" fill="#00FFFF" style="mix-blend-mode:difference"/>
<path d="M162.871 72.383H166.081C166.249 72.383 166.441 72.2573 166.508 72.1036L166.6 71.8924C166.668 71.7388 166.767 71.7431 166.822 71.901L167.273 73.2073C167.328 73.3658 167.411 73.3637 167.459 73.203L168.25 70.5206C168.297 70.3599 168.354 70.3642 168.376 70.5302L168.914 74.6355C168.936 74.8016 168.988 74.8048 169.031 74.6431L169.837 71.5534C169.88 71.3911 169.949 71.3911 169.991 71.5534L170.134 72.1052C170.176 72.2674 170.348 72.4002 170.515 72.4002H174.121" fill="#00FFFF" style="mix-blend-mode:difference"/>
<path d="M162.871 72.383H166.081C166.249 72.383 166.441 72.2573 166.508 72.1036L166.6 71.8924C166.668 71.7388 166.767 71.7431 166.822 71.901L167.273 73.2073C167.328 73.3658 167.411 73.3637 167.459 73.203L168.25 70.5206C168.297 70.3599 168.354 70.3642 168.376 70.5302L168.914 74.6355C168.936 74.8016 168.988 74.8048 169.031 74.6431L169.837 71.5534C169.88 71.3911 169.949 71.3911 169.991 71.5534L170.134 72.1052C170.176 72.2674 170.348 72.4002 170.515 72.4002H174.121" stroke="#00FFFF" stroke-width="0.6" stroke-linejoin="bevel" style="mix-blend-mode:difference"/>
<path d="M11.9075 124.479C11.7707 124.59 11.5772 124.592 11.4393 124.484C10.7239 123.919 9.57255 122.944 8.47007 121.222C7.68328 119.983 7.2503 118.867 6.98544 117.993C6.88183 117.651 6.40389 117.644 6.27683 117.979C5.19976 120.834 3.7337 122.995 1.54633 124.585C1.41438 124.68 1.23357 124.679 1.10162 124.585L0.159441 123.916C-0.0536272 123.765 -0.0536362 123.449 0.162364 123.301C1.01855 122.717 2.27252 121.729 3.36816 120.003C4.56936 118.091 4.90167 116.341 5.0473 115.258C5.07759 115.035 5.29262 114.89 5.51057 114.945L5.91424 115.046C6.16249 115.107 6.39607 114.91 6.38044 114.654C6.37164 114.515 6.36479 114.371 6.35893 114.201C6.35209 113.998 6.18594 113.834 5.98265 113.834H3.68483C3.47665 113.834 3.30855 113.666 3.30855 113.458V112.42C3.30855 112.212 3.47665 112.044 3.68483 112.044H7.73313C7.94815 112.044 8.12115 112.223 8.10844 112.438C8.08694 112.81 8.07912 113.211 8.07912 113.564C8.07912 115.159 8.34985 117.205 9.46211 119.282C10.6095 121.413 12.0219 122.466 12.9279 123.017C13.1488 123.151 13.1654 123.464 12.9641 123.627L11.9075 124.48V124.479Z" fill="#00FFFF" style="mix-blend-mode:difference"/>
<path d="M21.8649 118.573C21.7202 118.573 21.5892 118.656 21.5267 118.787C21.47 118.905 21.4075 119.022 21.3518 119.115H26.4429C26.654 119.115 26.827 119.289 26.8192 119.5C26.7654 120.998 26.4859 122.928 26.0011 123.689C25.5838 124.342 24.9211 124.571 23.8724 124.614C23.715 124.621 23.5694 124.524 23.5098 124.379L23.2244 123.68C23.1237 123.434 22.8051 123.365 22.6155 123.552C22.291 123.87 21.8991 124.214 21.3693 124.582C21.2432 124.669 21.0722 124.67 20.9442 124.586L20.5053 124.293C20.2864 124.148 20.2786 123.826 20.4946 123.676C21.904 122.702 22.9683 121.288 23.458 120.364H22.9243C22.7904 120.364 22.6683 120.432 22.6008 120.549C22.3604 120.97 21.9284 121.664 21.2305 122.336C20.5708 122.983 19.8476 123.553 19.0852 124.06C18.9562 124.146 18.7852 124.142 18.6581 124.052L18.2056 123.733C17.9798 123.574 17.9974 123.234 18.2388 123.1C19.917 122.171 21.0038 120.786 21.2755 120.363H20.7546C20.6461 120.363 20.5415 120.414 20.4692 120.496C19.8397 121.223 19.3178 121.696 18.7822 122.112C18.6542 122.211 18.4773 122.215 18.3434 122.125L17.8508 121.794C17.6328 121.648 17.625 121.328 17.8391 121.177C18.0834 121.005 18.3414 120.798 18.7021 120.484C17.6787 120.875 16.0241 121.432 15.5872 121.538C15.031 121.673 14.9714 121.688 14.8815 121.794C14.7154 121.975 14.6704 122.034 14.5951 122.034C14.5639 122.034 14.5042 122.004 14.4896 121.93L14.2765 120.599C14.2443 120.402 14.3703 120.215 14.5648 120.173C14.8942 120.101 15.2646 120.011 15.6048 119.925C15.7719 119.883 15.8892 119.733 15.8892 119.56V116.724C15.8892 116.516 15.7211 116.348 15.5129 116.348H14.8062C14.5981 116.348 14.43 116.179 14.43 115.971V115.174C14.43 114.967 14.5981 114.798 14.8062 114.798H15.5129C15.7211 114.798 15.8892 114.63 15.8892 114.422V112.21C15.8892 111.991 16.0759 111.818 16.2948 111.835L17.6348 111.939C17.7247 111.954 17.8293 111.999 17.8293 112.105C17.8293 112.21 17.755 112.27 17.6641 112.345C17.5888 112.39 17.4686 112.465 17.4686 112.571V114.421C17.4686 114.629 17.6367 114.797 17.8449 114.797H18.6571C18.8653 114.797 19.0334 114.965 19.0334 115.173V115.97C19.0334 116.178 18.8653 116.346 18.6571 116.346H17.8449C17.6367 116.346 17.4686 116.514 17.4686 116.722V118.914C17.4686 119.165 17.71 119.347 17.9514 119.275C18.1332 119.22 18.3131 119.164 18.491 119.106C18.7363 119.025 18.9884 119.202 18.9884 119.46V120.182C19.3393 119.802 19.5768 119.495 19.786 119.145C19.9355 118.893 19.7557 118.572 19.4635 118.572H19.0344C18.8262 118.572 18.6581 118.404 18.6581 118.196V117.732C18.6581 117.524 18.8262 117.356 19.0344 117.356H26.6315C26.8397 117.356 27.0078 117.524 27.0078 117.732V118.196C27.0078 118.404 26.8397 118.572 26.6315 118.572H21.8649V118.573ZM19.7723 116.406V112.421C19.7723 112.213 19.9404 112.045 20.1486 112.045H25.5036C25.7118 112.045 25.8799 112.213 25.8799 112.421V116.406C25.8799 116.614 25.7118 116.782 25.5036 116.782H20.1486C19.9404 116.782 19.7723 116.614 19.7723 116.406ZM24.4217 113.306H21.2305V113.94H24.4217V113.306ZM24.4217 115.006H21.2305V115.655H24.4217V115.006ZM24.8723 120.363C24.6015 120.996 24.2555 121.748 23.1413 122.998C23.5782 123.088 23.8939 123.088 23.9545 123.088C24.3464 123.088 24.5859 122.998 24.752 122.666C25.1127 121.959 25.1879 121.161 25.2329 120.363H24.8723Z" fill="#00FFFF" style="mix-blend-mode:difference"/>
<path d="M39.4445 118.017V119.16C39.4445 119.368 39.6126 119.536 39.8198 119.536H40.7082C40.9154 119.536 41.0835 119.705 41.0835 119.913V120.56C41.0835 120.767 40.9154 120.936 40.7082 120.936H29.6658C29.4576 120.936 29.2895 120.767 29.2895 120.56V119.913C29.2895 119.705 29.4576 119.536 29.6658 119.536H30.5386C30.7468 119.536 30.9149 119.368 30.9149 119.16V118.017C30.9149 117.809 30.7468 117.641 30.5386 117.641H29.1097C28.9015 117.641 28.7334 117.473 28.7334 117.265V116.573C28.7334 116.365 28.9015 116.197 29.1097 116.197H30.5386C30.7468 116.197 30.9149 116.029 30.9149 115.821V114.542C30.6539 114.862 30.4203 115.098 30.1799 115.317C30.0636 115.421 29.8965 115.448 29.7557 115.378L29.0256 115.017C28.7862 114.899 28.7353 114.57 28.9386 114.397C29.8515 113.618 30.5484 112.698 31.0429 111.835C31.129 111.684 31.3019 111.612 31.4691 111.658L32.8843 112.059C32.9146 112.074 33.1414 112.135 33.1414 112.27C33.1414 112.321 33.0251 112.391 32.7934 112.481C32.6888 112.526 32.5989 112.571 32.3282 112.917H40.5577C40.7649 112.917 40.934 113.086 40.934 113.294V113.94C40.934 114.148 40.7649 114.316 40.5577 114.316H39.8198C39.6116 114.316 39.4435 114.484 39.4435 114.692V115.821C39.4435 116.029 39.6116 116.197 39.8198 116.197H41.2184C41.4266 116.197 41.5947 116.365 41.5947 116.573V117.265C41.5947 117.473 41.4266 117.641 41.2184 117.641H39.8198C39.6116 117.641 39.4435 117.809 39.4435 118.017H39.4445ZM32.0731 122.591C31.862 122.606 31.8473 122.606 31.7867 122.682C31.1113 123.57 30.4829 124.17 30.0998 124.509C29.9561 124.636 29.743 124.636 29.6003 124.509L28.9992 123.977C28.8223 123.82 28.837 123.547 29.0208 123.397C29.6717 122.87 30.1965 122.265 30.6197 121.648C30.7429 121.469 30.9862 121.423 31.1592 121.554L32.0575 122.23C32.1933 122.335 32.2236 122.396 32.2236 122.456C32.2236 122.561 32.119 122.576 32.0741 122.591H32.0731ZM32.9615 114.316H32.8237C32.6155 114.316 32.4474 114.484 32.4474 114.692V115.821C32.4474 116.029 32.6155 116.197 32.8237 116.197H32.9615C33.1697 116.197 33.3378 116.029 33.3378 115.821V114.692C33.3378 114.484 33.1697 114.316 32.9615 114.316ZM32.9615 117.641H32.8237C32.6155 117.641 32.4474 117.809 32.4474 118.017V119.16C32.4474 119.368 32.6155 119.536 32.8237 119.536H32.9615C33.1697 119.536 33.3378 119.368 33.3378 119.16V118.017C33.3378 117.809 33.1697 117.641 32.9615 117.641ZM33.2342 124.253C33.2068 123.589 33.1345 123.032 32.9449 122.402C32.8843 122.199 33.0094 121.987 33.2147 121.936L33.8187 121.783C34.0034 121.736 34.193 121.835 34.2624 122.013C34.4882 122.583 34.6954 123.273 34.7306 124.068C34.7394 124.249 34.6074 124.409 34.4305 124.446L33.6877 124.604C33.461 124.651 33.244 124.484 33.2342 124.252V124.253ZM35.2633 114.316H35.1255C34.9173 114.316 34.7492 114.484 34.7492 114.692V115.82C34.7492 116.028 34.9173 116.196 35.1255 116.196H35.2633C35.4705 116.196 35.6386 116.028 35.6386 115.82V114.692C35.6386 114.484 35.4705 114.316 35.2633 114.316ZM35.2633 117.641H35.1255C34.9173 117.641 34.7492 117.809 34.7492 118.017V119.16C34.7492 119.368 34.9173 119.536 35.1255 119.536H35.2633C35.4705 119.536 35.6386 119.368 35.6386 119.16V118.017C35.6386 117.809 35.4705 117.641 35.2633 117.641ZM36.2807 124.089C36.1566 123.448 35.9484 122.88 35.7783 122.482C35.6914 122.279 35.8018 122.047 36.0119 121.98L36.6042 121.792C36.7714 121.739 36.9531 121.805 37.0411 121.957C37.2718 122.355 37.5894 122.992 37.7448 123.721C37.7859 123.919 37.6725 124.117 37.478 124.171L36.7489 124.374C36.5397 124.432 36.3227 124.302 36.2807 124.089ZM37.5806 114.316H37.3978C37.1897 114.316 37.0215 114.484 37.0215 114.692V115.82C37.0215 116.028 37.1897 116.196 37.3978 116.196H37.5806C37.7888 116.196 37.9569 116.028 37.9569 115.82V114.692C37.9569 114.484 37.7888 114.316 37.5806 114.316ZM37.5806 117.641H37.3978C37.1897 117.641 37.0215 117.809 37.0215 118.017V119.16C37.0215 119.368 37.1897 119.536 37.3978 119.536H37.5806C37.7888 119.536 37.9569 119.368 37.9569 119.16V118.017C37.9569 117.809 37.7888 117.641 37.5806 117.641ZM39.9752 124.307C39.4425 123.548 38.9871 123.037 38.6117 122.649C38.4612 122.493 38.4739 122.244 38.6391 122.103L39.1992 121.625C39.3399 121.505 39.5491 121.504 39.6878 121.625C40.2459 122.112 40.7424 122.622 41.2546 123.313C41.3719 123.471 41.3425 123.697 41.192 123.823L40.5274 124.383C40.3573 124.527 40.1023 124.489 39.9742 124.307L39.9752 124.307Z" fill="#00FFFF" style="mix-blend-mode:difference"/>
<path d="M47.6088 118.295C48.03 118.851 48.5451 119.34 48.897 119.658C49.0407 119.787 49.0612 120.004 48.9458 120.159L48.5471 120.697C48.4112 120.881 48.1454 120.904 47.9831 120.744C47.9411 120.703 47.8981 120.66 47.8541 120.615C47.6195 120.373 47.209 120.539 47.209 120.876V124.321C47.209 124.529 47.04 124.697 46.8328 124.697H46.0362C45.828 124.697 45.6599 124.529 45.6599 124.321V122.198C45.6599 121.827 45.1829 121.681 44.9738 121.987C44.8233 122.207 44.662 122.427 44.4949 122.627C44.3796 122.766 44.1772 122.795 44.0208 122.704L43.3025 122.282C43.0972 122.162 43.0591 121.887 43.2145 121.707C44.1939 120.582 44.8868 119.326 45.2406 118.18C45.3169 117.935 45.138 117.686 44.8809 117.686H43.6133C43.4051 117.686 43.237 117.518 43.237 117.31V116.678C43.237 116.47 43.4051 116.302 43.6133 116.302H45.2826C45.4908 116.302 45.6589 116.134 45.6589 115.926V112.214C45.6589 111.993 45.8485 111.82 46.0684 111.84L47.0126 111.924C47.4182 111.954 47.4798 112.044 47.4798 112.135C47.4798 112.194 47.4485 112.255 47.3586 112.315C47.2374 112.406 47.2071 112.421 47.2071 112.496V115.926C47.2071 116.134 47.3752 116.302 47.5834 116.302H48.8774C49.0856 116.302 49.2537 116.471 49.2537 116.679V117.31C49.2537 117.518 49.0856 117.687 48.8774 117.687H47.9039C47.5902 117.687 47.4172 118.046 47.6068 118.296L47.6088 118.295ZM43.7521 115.246C43.6201 114.704 43.4276 114.164 43.237 113.732C43.151 113.537 43.2429 113.314 43.4403 113.234L44.1498 112.947C44.3414 112.869 44.5604 112.962 44.6405 113.154C44.8868 113.746 45.0598 114.363 45.1741 114.816C45.221 115.003 45.1175 115.192 44.9357 115.257L44.2437 115.508C44.0335 115.583 43.8048 115.462 43.7521 115.245V115.246ZM49.8128 113.428C49.6613 113.503 49.6466 113.518 49.632 113.564C49.5929 113.693 49.3739 114.586 49.0446 115.34C48.9605 115.532 48.7396 115.624 48.5471 115.541L47.9968 115.303C47.816 115.225 47.7231 115.019 47.7916 114.834C48.0095 114.245 48.1463 113.62 48.2294 113.157C48.2666 112.944 48.4728 112.806 48.6829 112.854L49.5567 113.052C49.8724 113.127 49.9623 113.172 49.9623 113.263C49.9623 113.338 49.8411 113.413 49.8128 113.429V113.428ZM54.7173 120.987V124.291C54.7173 124.499 54.5491 124.667 54.341 124.667H53.4691C53.261 124.667 53.0929 124.499 53.0929 124.291V121.587C53.0929 121.341 52.8603 121.161 52.6218 121.223L49.7307 121.972C49.5108 122.029 49.2909 121.88 49.2625 121.655L49.1775 120.978C49.154 120.79 49.2733 120.615 49.456 120.567L52.8104 119.699C52.9766 119.656 53.0929 119.507 53.0929 119.335V112.216C53.0929 111.994 53.2834 111.82 53.5033 111.841L54.7026 111.954C55.0036 111.984 55.0632 112.044 55.0632 112.134C55.0632 112.194 55.0183 112.224 54.9587 112.27C54.8082 112.375 54.7173 112.435 54.7173 112.495V118.733C54.7173 118.979 54.9508 119.159 55.1883 119.097L55.5382 119.005C55.7679 118.945 55.9947 119.109 56.0093 119.346L56.0523 120.038C56.0631 120.219 55.9448 120.381 55.7699 120.426L55.0007 120.623C54.8345 120.665 54.7173 120.815 54.7173 120.987ZM51.2622 118.888C50.9328 118.459 50.5341 118.034 50.1275 117.679C49.9682 117.538 49.9623 117.291 50.1099 117.138L50.5781 116.657C50.7188 116.512 50.9456 116.505 51.098 116.638C51.531 117.013 51.9796 117.474 52.3383 117.955C52.4478 118.101 52.4273 118.307 52.2992 118.437L51.8242 118.92C51.6649 119.081 51.4 119.068 51.2622 118.888V118.888ZM51.3551 115.262C51.0404 114.859 50.6797 114.521 50.3709 114.265C50.2018 114.125 50.1891 113.874 50.3425 113.716L50.8224 113.222C50.9612 113.079 51.184 113.069 51.3375 113.196C51.6805 113.483 52.0744 113.858 52.4234 114.312C52.5358 114.458 52.5162 114.668 52.3882 114.8L51.9161 115.287C51.7597 115.449 51.4939 115.439 51.3551 115.262Z" fill="#00FFFF" style="mix-blend-mode:difference"/>
<path d="M76.6231 121.025V122.5C76.6231 122.708 76.455 122.876 76.2468 122.876H75.0437V122.47H72.3354C72.1272 122.47 71.9591 122.638 71.9591 122.846V123.554C71.9591 124.39 71.6141 124.783 69.7278 124.827C69.5782 124.831 69.4365 124.743 69.3739 124.607L68.9928 123.778C68.8735 123.517 69.0797 123.224 69.3671 123.247C69.5303 123.259 69.6779 123.269 69.7922 123.269C70.0327 123.269 70.2585 123.193 70.2585 122.922V122.469H66.046C65.8378 122.469 65.6697 122.301 65.6697 122.093V121.674C65.6697 121.466 65.8378 121.298 66.046 121.298H70.2585V120.649H65.1722C64.965 120.649 64.7969 120.48 64.7969 120.272V119.854C64.7969 119.646 64.965 119.478 65.1722 119.478H70.2585V118.904H66.046C65.8378 118.904 65.6697 118.736 65.6697 118.528V118.109C65.6697 117.901 65.8378 117.733 66.046 117.733H70.2585V117.159H66.9334C66.7252 117.159 66.5571 116.991 66.5571 116.783V114.769C66.5571 114.561 66.7252 114.393 66.9334 114.393H70.2585V113.864H65.1722C64.965 113.864 64.7969 113.696 64.7969 113.488V112.949C64.7969 112.741 64.965 112.573 65.1722 112.573H69.8822C70.0904 112.573 70.2585 112.405 70.2585 112.197V112.007C70.2585 111.78 70.4569 111.605 70.6817 111.633L72.0334 111.805C72.1096 111.82 72.2142 111.85 72.2142 111.941C72.2142 112.031 72.1839 112.046 72.048 112.151C72.0187 112.166 71.9581 112.212 71.9581 112.287V112.573H77.0288C77.2369 112.573 77.405 112.741 77.405 112.949V113.488C77.405 113.696 77.2369 113.864 77.0288 113.864H71.9581V114.393H75.2685C75.4767 114.393 75.6448 114.561 75.6448 114.769V116.783C75.6448 116.991 75.4767 117.159 75.2685 117.159H71.9581V117.733H76.2459C76.4541 117.733 76.6222 117.901 76.6222 118.109V119.102C76.6222 119.31 76.7903 119.478 76.9985 119.478H77.0884C77.2966 119.478 77.4647 119.646 77.4647 119.854V120.273C77.4647 120.481 77.2966 120.649 77.0884 120.649H76.9985C76.7903 120.649 76.6222 120.817 76.6222 121.025H76.6231ZM70.2585 115.414H68.0926V116.137H70.2585V115.414ZM74.0956 115.414H71.9591V116.137H74.0956V115.414ZM75.0437 118.904H71.9591V119.478H75.0437V118.904ZM75.0437 120.649H71.9591V121.298H75.0437V120.649Z" fill="#00FFFF" style="mix-blend-mode:difference"/>
<path d="M79.3887 114.661V114.031C79.3887 113.823 79.5568 113.655 79.764 113.655H81.8605C82.1703 113.655 82.3492 113.302 82.1625 113.054C82.1038 112.975 82.0403 112.893 81.9739 112.81C81.8204 112.618 81.8937 112.333 82.1185 112.234L83.0382 111.83C83.1936 111.761 83.3744 111.805 83.4819 111.938C83.7107 112.221 84.0527 112.663 84.5326 113.385L83.9765 113.655H86.7239C86.85 113.655 86.9692 113.591 87.0386 113.486C87.3621 112.996 87.5498 112.681 87.8166 112.09C87.8938 111.919 88.0854 111.83 88.2643 111.882L89.8603 112.347C89.9199 112.362 89.9659 112.437 89.9659 112.497C89.9659 112.557 89.9346 112.602 89.8447 112.633C89.8154 112.647 89.6189 112.693 89.5739 112.723C89.529 112.753 89.0764 113.52 88.9709 113.655H92.0252C92.2334 113.655 92.4015 113.824 92.4015 114.032V114.662C92.4015 114.87 92.2334 115.038 92.0252 115.038H79.765C79.5568 115.038 79.3887 114.87 79.3887 114.662V114.661ZM83.1623 124.447L82.8349 123.559C82.7401 123.302 82.9444 123.032 83.2171 123.054C83.4634 123.074 83.6158 123.074 83.6158 123.074C83.9178 123.074 84.0381 122.953 84.0381 122.697V121.974C84.0381 121.766 83.87 121.598 83.6618 121.598H82.185C81.9768 121.598 81.8087 121.766 81.8087 121.974V124.261C81.8087 124.469 81.6406 124.637 81.4324 124.637H80.5918C80.3837 124.637 80.2155 124.469 80.2155 124.261V116.349C80.2155 116.141 80.3837 115.972 80.5918 115.972H85.2842C85.4924 115.972 85.6605 116.141 85.6605 116.349V123.059C85.6605 124.388 84.7095 124.662 83.522 124.694C83.3627 124.698 83.2181 124.597 83.1623 124.447ZM83.6618 117.295H82.185C81.9768 117.295 81.8087 117.463 81.8087 117.671V117.748C81.8087 117.956 81.9768 118.124 82.185 118.124H83.6618C83.87 118.124 84.0381 117.956 84.0381 117.748V117.671C84.0381 117.463 83.87 117.295 83.6618 117.295ZM83.6618 119.446H82.185C81.9768 119.446 81.8087 119.615 81.8087 119.823V119.899C81.8087 120.107 81.9768 120.276 82.185 120.276H83.6618C83.87 120.276 84.0381 120.107 84.0381 119.899V119.823C84.0381 119.615 83.87 119.446 83.6618 119.446ZM88.6405 116.393C88.4294 116.543 88.3991 116.559 88.3991 116.618V121.644C88.3991 121.852 88.231 122.02 88.0228 122.02H87.153C86.9448 122.02 86.7767 121.852 86.7767 121.644V116.352C86.7767 116.137 86.9565 115.966 87.1715 115.977L88.5653 116.047C88.6865 116.047 88.7608 116.137 88.7608 116.213C88.7608 116.303 88.6855 116.363 88.6405 116.393ZM91.7994 116.167C91.6949 116.257 91.5893 116.378 91.5893 116.423V122.923C91.5893 124.33 90.9853 124.559 89.3081 124.59C89.1605 124.593 89.0227 124.508 88.9592 124.374L88.2652 122.908C88.5809 122.938 88.8516 122.968 89.1683 122.968C89.6941 122.968 89.8447 122.847 89.8447 122.442V116.121C89.8447 115.902 90.0304 115.73 90.2483 115.746L91.7095 115.852C91.8151 115.867 91.8893 115.927 91.8893 115.988C91.8893 116.063 91.8297 116.122 91.7994 116.167Z" fill="#00FFFF" style="mix-blend-mode:difference"/>
<path d="M103.317 120.98L102.504 120.461C102.313 120.339 102.273 120.076 102.419 119.902C102.814 119.432 103.156 118.995 103.619 118.362C103.801 118.113 103.625 117.761 103.317 117.761H101.569C101.361 117.761 101.193 117.929 101.193 118.137V122.756C101.193 124.581 100.58 124.705 98.3871 124.725C98.2307 124.727 98.087 124.63 98.0303 124.484L97.6794 123.576C97.5739 123.303 97.8046 123.021 98.0929 123.069C98.348 123.112 98.6216 123.147 98.8318 123.147C99.2823 123.147 99.4035 122.816 99.4035 122.395V118.137C99.4035 117.929 99.2345 117.761 99.0272 117.761H94.242C94.0348 117.761 93.8667 117.593 93.8667 117.385V116.498C93.8667 116.29 94.0348 116.121 94.242 116.121H99.342C98.8767 115.862 98.4672 115.649 97.7205 115.345C97.5123 115.261 97.4224 115.012 97.5309 114.815L97.9385 114.071C98.0342 113.896 98.2483 113.825 98.4281 113.911C98.7516 114.065 99.1905 114.271 100.093 114.702C100.215 114.76 100.361 114.751 100.473 114.673C100.61 114.577 100.763 114.461 100.95 114.301C101.216 114.075 101.055 113.638 100.706 113.638H95.5214C95.3142 113.638 95.1461 113.47 95.1461 113.262V112.435C95.1461 112.227 95.3142 112.059 95.5214 112.059H104.657C104.769 112.059 104.876 112.109 104.947 112.196L105.278 112.598C105.413 112.764 105.384 113.009 105.212 113.138C104.37 113.767 103.343 114.521 101.795 115.535C101.856 115.565 102.111 115.701 102.172 115.73L101.825 116.122H105.913C106.013 116.122 106.108 116.162 106.179 116.232L106.5 116.554C106.625 116.679 106.644 116.879 106.547 117.027C105.164 119.166 104.45 120.108 103.812 120.9C103.691 121.05 103.478 121.084 103.316 120.981L103.317 120.98Z" fill="#00FFFF" style="mix-blend-mode:difference"/>
<path d="M110.024 120.665C109.957 121.784 109.877 122.528 109.549 123.448C109.482 123.635 109.286 123.743 109.094 123.692L108.516 123.537C108.308 123.482 108.189 123.265 108.255 123.06C108.461 122.414 108.634 121.645 108.731 120.445C108.749 120.225 108.955 120.069 109.173 120.109L109.994 120.259C110.084 120.273 110.265 120.318 110.265 120.408C110.265 120.484 110.19 120.544 110.024 120.665V120.665ZM113.139 119.326C113.107 119.191 113.079 118.995 113.017 118.709C112.707 118.789 112.506 118.828 112.341 118.854C112.158 118.884 112.024 119.041 112.024 119.226V124.321C112.024 124.529 111.856 124.698 111.648 124.698H110.866C110.659 124.698 110.49 124.529 110.49 124.321V119.535C110.49 119.311 110.296 119.137 110.074 119.161C109.669 119.204 109.297 119.243 109.151 119.265C109.046 119.265 108.94 119.281 108.821 119.416C108.7 119.536 108.654 119.581 108.579 119.581C108.534 119.581 108.459 119.522 108.444 119.446L108.22 118.14C108.179 117.911 108.357 117.701 108.59 117.7C108.933 117.699 109.208 117.694 109.587 117.678C109.69 117.674 109.789 117.627 109.858 117.549C109.941 117.453 110.035 117.346 110.133 117.227C110.254 117.081 110.25 116.863 110.121 116.725C109.563 116.134 109.071 115.735 108.563 115.375C108.392 115.254 108.355 115.015 108.48 114.846L109.182 113.894C109.422 114.06 109.558 114.165 109.693 114.286C110.247 113.486 110.581 112.853 110.901 112.129C110.99 111.93 111.231 111.849 111.422 111.953L112.4 112.48C112.476 112.526 112.506 112.586 112.506 112.616C112.506 112.661 112.475 112.706 112.415 112.737C112.22 112.827 112.174 112.857 112.145 112.902C111.461 113.934 111.291 114.19 110.794 114.839C110.682 114.986 110.693 115.195 110.819 115.329C110.851 115.362 110.881 115.395 110.91 115.427C111.072 115.607 111.359 115.588 111.499 115.391C112.046 114.619 112.383 114.092 112.66 113.632C112.767 113.454 112.999 113.396 113.177 113.504L114.222 114.135C114.312 114.181 114.327 114.271 114.327 114.301C114.327 114.437 114.176 114.467 114.161 114.467C113.92 114.482 113.905 114.512 113.694 114.783C112.927 115.761 112.114 116.709 111.272 117.612C111.631 117.589 111.896 117.567 112.277 117.526C112.507 117.501 112.664 117.275 112.601 117.051C112.594 117.027 112.587 117.003 112.582 116.98C112.522 116.774 112.648 116.56 112.857 116.511L113.483 116.365C113.671 116.321 113.866 116.428 113.926 116.612C114.148 117.274 114.32 117.919 114.448 118.598C114.484 118.788 114.365 118.976 114.18 119.03L113.139 119.327V119.326ZM113.16 122.606C112.944 121.792 112.816 121.154 112.716 120.423C112.69 120.229 112.82 120.047 113.013 120.007L113.5 119.904C113.712 119.86 113.916 120.006 113.949 120.219C114.088 121.091 114.261 121.778 114.406 122.268C114.467 122.472 114.347 122.681 114.141 122.736L113.62 122.872C113.419 122.924 113.213 122.805 113.16 122.606V122.606ZM120.255 123.222C119.834 124.426 119.021 124.622 118.043 124.622H117.636C117.49 124.622 117.357 124.537 117.294 124.406L116.85 123.457C116.727 123.196 116.93 122.901 117.218 122.923C117.428 122.939 117.662 122.952 117.907 122.952C118.389 122.952 118.69 122.831 118.976 121.883C119.278 120.89 119.547 118.89 119.547 116.588V115.941C119.547 115.733 119.379 115.565 119.171 115.565H116.348C116.214 115.565 116.089 115.639 116.022 115.754C115.732 116.247 115.511 116.591 115.248 116.919C115.118 117.081 114.879 117.104 114.718 116.974L114.114 116.486C113.958 116.36 113.926 116.133 114.047 115.972C114.628 115.19 115.245 114.185 115.936 112.204C116.003 112.009 116.214 111.901 116.41 111.966L117.651 112.376C117.726 112.406 117.802 112.451 117.802 112.526C117.802 112.601 117.757 112.646 117.697 112.676C117.471 112.781 117.456 112.796 117.38 112.992C117.309 113.183 117.261 113.315 117.218 113.427C117.122 113.674 117.304 113.94 117.568 113.94H120.736C120.943 113.94 121.112 114.108 121.112 114.316V116.753C121.112 118.89 120.81 121.658 120.254 123.223L120.255 123.222ZM116.575 120.327C116.256 119.332 115.955 118.64 115.694 118.092C115.599 117.895 115.69 117.661 115.892 117.58L116.548 117.319C116.731 117.245 116.941 117.326 117.027 117.505C117.323 118.116 117.627 118.85 117.941 119.892C117.999 120.086 117.891 120.295 117.698 120.359L117.053 120.574C116.853 120.641 116.64 120.528 116.575 120.327V120.327Z" fill="#00FFFF" style="mix-blend-mode:difference"/>
<path d="M127.507 117.685V117.867C127.507 118.075 127.675 118.243 127.884 118.243H129.793C130.002 118.243 130.17 118.411 130.17 118.619V122.591C130.17 123.455 129.508 123.631 128.572 123.792C128.407 123.821 128.241 123.735 128.169 123.584L127.866 122.954C127.756 122.724 127.897 122.439 128.151 122.414C128.437 122.386 128.579 122.296 128.579 122.005V120.063C128.579 119.855 128.41 119.686 128.202 119.686H127.884C127.676 119.686 127.508 119.855 127.508 120.063V124.351C127.508 124.559 127.339 124.727 127.132 124.727H126.306C126.098 124.727 125.93 124.559 125.93 124.351V120.063C125.93 119.855 125.762 119.686 125.554 119.686H125.251C125.043 119.686 124.875 119.855 124.875 120.063V123.599C124.875 123.807 124.707 123.975 124.499 123.975H123.674C123.466 123.975 123.298 123.807 123.298 123.599V118.619C123.298 118.411 123.466 118.243 123.674 118.243H125.554C125.762 118.243 125.93 118.075 125.93 117.867V117.685C125.93 117.477 125.762 117.309 125.554 117.309H123.133C122.924 117.309 122.756 117.141 122.756 116.933V116.228C122.756 116.02 122.924 115.851 123.133 115.851H125.554C125.762 115.851 125.93 115.683 125.93 115.475V115.188C125.93 114.98 125.762 114.812 125.554 114.812H124.699C124.553 114.812 124.419 114.897 124.358 115.031C124.325 115.104 124.287 115.184 124.236 115.286C124.156 115.448 123.969 115.53 123.795 115.48L122.997 115.251C122.761 115.184 122.649 114.912 122.774 114.702C123.058 114.225 123.408 113.544 123.719 112.621C123.78 112.441 123.963 112.329 124.151 112.366L125.237 112.586C125.282 112.601 125.508 112.646 125.508 112.782C125.508 112.933 125.341 112.933 125.175 112.993L125.04 113.354H125.553C125.761 113.354 125.929 113.186 125.929 112.978V112.12C125.929 111.906 126.107 111.735 126.321 111.743L127.432 111.787C127.522 111.787 127.779 111.833 127.779 111.954C127.779 112.074 127.643 112.164 127.508 112.285V112.977C127.508 113.185 127.676 113.353 127.884 113.353H129.689C129.897 113.353 130.065 113.522 130.065 113.729V114.435C130.065 114.643 129.897 114.811 129.689 114.811H127.884C127.676 114.811 127.508 114.979 127.508 115.187V115.475C127.508 115.683 127.676 115.851 127.884 115.851H130.218C130.425 115.851 130.593 116.019 130.593 116.227V116.932C130.593 117.14 130.425 117.308 130.218 117.308H127.884C127.676 117.308 127.508 117.476 127.508 117.684L127.507 117.685ZM132.578 114.152V121.357C132.578 121.565 132.41 121.733 132.202 121.733H131.451C131.243 121.733 131.075 121.565 131.075 121.357V113.817C131.075 113.604 131.251 113.434 131.464 113.441L132.413 113.473C132.517 113.473 132.849 113.488 132.849 113.654C132.849 113.729 132.794 113.79 132.701 113.873C132.623 113.944 132.577 114.047 132.577 114.152H132.578ZM135.391 112.285C135.286 112.39 135.256 112.42 135.256 112.496V123.162C135.256 124.595 134.587 124.718 133.042 124.766C132.899 124.77 132.762 124.691 132.695 124.563L132.264 123.741C132.13 123.486 132.325 123.18 132.613 123.191C132.898 123.202 133.096 123.207 133.15 123.207C133.316 123.207 133.693 123.207 133.693 122.741V112.165C133.693 111.945 133.88 111.772 134.099 111.79L135.21 111.878C135.301 111.878 135.54 111.923 135.54 112.058C135.54 112.119 135.481 112.194 135.391 112.285V112.285Z" fill="#00FFFF" style="mix-blend-mode:difference"/>
</svg>
