<svg width="137" height="28" viewBox="0 0 137 28" fill="none" xmlns="http://www.w3.org/2000/svg">
<path d="M16.6498 11.396L15.8758 10.622H10.7998L11.2138 10.154C11.1418 10.118 10.8358 9.95597 10.7638 9.91997C12.8518 8.55197 14.1478 7.57997 15.2278 6.76997L14.3998 5.76197H2.80783V7.65197H10.6018C9.77383 8.47997 9.34183 8.78597 8.96383 9.03797C7.30783 8.24597 6.83983 8.02997 6.35383 7.79597L5.41783 9.50597C6.62383 9.97397 7.18183 10.262 7.82983 10.622H1.27783V12.584H7.90183V18.128C7.90183 18.632 7.75783 19.028 7.21783 19.028C6.69583 19.028 5.84983 18.848 5.54383 18.776L6.37183 20.918C9.25183 20.9 10.0438 20.828 10.0438 18.56V12.584H13.4638C12.4738 13.97 11.9518 14.636 11.1778 15.536L12.9238 16.652C13.7878 15.59 14.6698 14.474 16.6498 11.396Z" fill="#FF0000"/>
<path d="M34.5958 11.378V8.01197H29.6638C29.8798 7.57997 29.9158 7.45397 30.1318 6.87797C30.2218 6.64397 30.2398 6.62597 30.5098 6.49997C30.5818 6.46397 30.6358 6.40997 30.6358 6.31997C30.6358 6.22997 30.5458 6.17597 30.4558 6.13997L28.5478 5.50997C27.5578 8.47997 26.6938 9.73997 25.8838 10.784L27.2878 11.918C27.7918 11.36 28.1158 10.856 28.6378 9.95597H32.7238V11.18C32.7238 13.934 32.3998 16.328 32.0398 17.516C31.6978 18.65 31.3378 18.794 30.7618 18.794C30.1138 18.794 29.5378 18.722 29.1598 18.686L30.1498 20.792H30.9238C32.0938 20.792 33.0658 20.558 33.5698 19.118C34.2358 17.246 34.5958 13.934 34.5958 11.378ZM30.9238 15.554C30.4378 13.844 29.9698 12.782 29.5198 11.9L27.8998 12.548C28.2958 13.34 28.7818 14.366 29.3038 16.094L30.9238 15.554ZM26.6938 13.988C26.5138 12.89 26.2438 11.882 25.8658 10.82L24.2458 11.198C24.3718 11.54 24.4618 11.918 24.5518 12.242C23.7778 12.332 23.3998 12.368 22.8238 12.404C23.8318 11.324 24.8038 10.19 25.7218 9.01997C25.9738 8.69597 25.9918 8.65997 26.2798 8.64197C26.2978 8.64197 26.4778 8.60597 26.4778 8.44397C26.4778 8.40797 26.4598 8.29997 26.3518 8.24597L24.7138 7.25597C24.2818 7.99397 23.7958 8.78597 22.7518 10.226C22.5178 9.91997 22.3198 9.70397 22.0138 9.39797C22.8058 8.37197 22.9498 8.15597 23.8678 6.76997C23.9038 6.71597 23.9578 6.67997 24.1918 6.57197C24.2638 6.53597 24.2998 6.48197 24.2998 6.42797C24.2998 6.39197 24.2638 6.31997 24.1738 6.26597L22.5718 5.40197C22.1218 6.46397 21.7078 7.30997 20.9338 8.42597C20.7718 8.28197 20.6098 8.15597 20.3218 7.95797L19.2058 9.46997C20.0338 10.028 20.7898 10.604 21.7078 11.63C21.4558 11.972 21.1858 12.26 21.0058 12.476C20.2498 12.512 19.8538 12.512 19.0798 12.512L19.4398 14.6C19.4578 14.69 19.5478 14.762 19.6018 14.762C19.6918 14.762 19.7458 14.708 19.8898 14.564C20.0338 14.402 20.1598 14.384 20.2858 14.384C20.5198 14.348 21.2398 14.276 21.8878 14.204V20.882H23.7238V13.952C24.0298 13.898 24.2818 13.88 24.9118 13.718C24.9838 14.06 25.0198 14.294 25.0558 14.456L26.6938 13.988ZM26.7118 18.416C26.4958 17.768 26.1718 16.634 25.9558 15.05L24.4978 15.356C24.6418 16.544 24.8218 17.462 25.1998 18.812L26.7118 18.416ZM21.6178 15.752C21.6178 15.644 21.4018 15.59 21.2938 15.572L19.8178 15.302C19.6918 17.336 19.4038 18.416 19.0618 19.37L20.6098 19.784C21.1318 18.488 21.2398 17.552 21.3298 16.058C21.5278 15.914 21.6178 15.842 21.6178 15.752Z" fill="#FF0000"/>
<path d="M52.4518 18.812V5.88797H45.5038V11.414H50.5618V18.326C50.5618 18.776 50.3278 18.956 49.8778 18.956H48.6898L49.5538 20.846H50.6518C52.0558 20.846 52.4518 19.964 52.4518 18.812ZM49.6438 16.724V15.122H47.4118V13.808H49.1758V12.26H40.7158V13.808H42.5338C42.5338 14.366 42.5338 14.582 42.4978 15.122H40.1938V16.724H42.3178C41.9938 17.93 41.6158 18.578 39.9958 19.586L41.5618 20.792C43.0198 19.568 43.7218 18.686 44.0998 16.724H45.5578V20.468H47.4118V16.724H49.6438ZM50.5618 8.01197H47.4658V7.29197H50.5618V8.01197ZM50.5618 10.01H47.4658V9.23597H50.5618V10.01ZM45.5578 15.122H44.2618C44.2798 14.78 44.2798 14.564 44.2978 13.808H45.5578V15.122ZM44.4238 11.414V5.88797H37.4758V20.756H39.4738V11.414H44.4238ZM42.6058 8.01197H39.4738V7.29197H42.6058V8.01197ZM42.6058 10.01H39.4738V9.23597H42.6058V10.01Z" fill="#FF0000"/>
<path d="M70.0198 20.972V13.898H62.5858V20.972H64.6558V20.36H67.9498V20.972H70.0198ZM67.9498 18.416H64.6558V15.788H67.9498V18.416ZM62.0638 18.002C61.8658 17.66 61.5058 16.976 60.3898 15.644C61.4878 12.71 61.5238 10.136 61.4878 8.20997H58.8598C58.9138 7.88597 59.0578 7.14797 59.1838 6.31997C59.2018 6.22997 59.2198 6.17597 59.3818 6.06797C59.4898 5.99597 59.5438 5.95997 59.5438 5.86997C59.5438 5.70797 59.3278 5.65397 59.1838 5.63597L57.2398 5.36597C57.1858 6.31997 57.0778 7.00397 56.8618 8.20997H55.2778V10.262H56.4478C55.9618 12.386 55.6918 13.52 55.0978 15.194L56.9698 15.644C57.0778 15.41 57.1318 15.212 57.2038 15.014C57.7078 15.464 57.7798 15.536 58.2118 16.022C57.3838 17.822 56.3038 18.956 55.1158 19.91L57.0418 20.936C58.0498 19.964 58.7158 19.1 59.4718 17.714C60.0118 18.524 60.1918 18.902 60.3898 19.334L62.0638 18.002ZM59.4898 10.262C59.3638 12.26 59.1478 13.196 58.9138 14.042C58.4098 13.574 58.1938 13.394 57.7618 13.07C58.0138 12.134 58.2478 11.198 58.4278 10.262H59.4898ZM71.1898 12.764C70.5598 10.64 69.5158 8.92997 68.6158 7.70597L66.8878 8.55197C67.5358 9.57797 67.7518 9.97397 68.0578 10.604C66.5278 10.694 66.3838 10.694 65.2678 10.73C65.9518 8.82197 66.2218 8.06597 66.7438 6.51797C66.7978 6.42797 66.8158 6.39197 67.0138 6.31997C67.1398 6.28397 67.2838 6.21197 67.2838 6.06797C67.2838 5.88797 67.0318 5.81597 66.8338 5.77997L64.7278 5.36597C64.2778 7.74197 63.8278 9.36197 63.3958 10.802C62.0998 10.838 61.9558 10.838 61.7038 10.838L62.0278 12.782C62.0818 13.088 62.1358 13.196 62.2438 13.196C62.3338 13.196 62.6218 12.908 62.6938 12.89C62.7658 12.872 63.5938 12.818 63.7198 12.818C65.6638 12.692 67.6798 12.494 68.8318 12.368C69.0838 13.034 69.1738 13.376 69.2458 13.61L71.1898 12.764Z" fill="#FF0000"/>
<path d="M88.5598 17.39C86.9398 16.292 86.1658 15.986 85.4638 15.698C85.2658 13.682 85.2298 12.818 85.2118 10.874C85.7878 10.766 86.7238 10.622 87.4618 10.37V8.42597C86.7778 8.83997 85.7338 9.05597 85.2298 9.16397C85.3198 8.17397 85.3738 7.38197 85.4818 6.93197C85.6618 6.82397 85.8238 6.73397 85.8238 6.64397C85.8238 6.53597 85.7698 6.44597 85.3918 6.39197L83.3758 6.06797C83.3398 7.84997 83.3398 8.04797 83.3038 9.39797C82.7998 9.45197 82.3138 9.50597 81.6298 9.50597C80.7838 9.50597 80.3338 9.45197 80.0098 9.39797L80.0278 11.252C81.1438 11.306 82.1158 11.234 83.2858 11.108C83.3218 12.332 83.3758 13.088 83.5198 15.23C83.1598 15.194 82.7818 15.158 82.4218 15.158C80.6758 15.158 79.2538 15.86 79.2538 17.48C79.2538 20.072 82.2778 20.072 82.7998 20.072C85.2478 20.072 85.6078 19.136 85.6438 17.75C86.3998 18.2 86.8858 18.56 87.5338 19.172L88.5598 17.39ZM78.2818 15.806L77.1478 15.032L76.4098 16.112C76.3198 15.374 76.3198 14.42 76.3198 14.222C76.3198 12.836 76.8238 9.45197 76.9858 8.64197C77.0398 8.42597 77.2558 7.50797 77.3818 7.41797C77.4358 7.39997 77.6698 7.30997 77.7238 7.27397C77.7778 7.23797 77.7958 7.18397 77.7958 7.14797C77.7958 6.96797 77.4178 6.80597 77.3638 6.78797L75.6178 6.10397C74.9158 8.85797 74.5198 11.684 74.5198 14.528C74.5198 16.418 74.6638 18.308 75.2038 20.108L76.8598 19.838C77.0578 18.398 77.8858 16.652 78.2818 15.806ZM83.6278 16.94C83.6638 17.876 83.6998 18.29 82.5118 18.29C81.4498 18.29 80.9278 17.912 80.9278 17.498C80.9278 17.084 81.5038 16.778 82.3498 16.778C82.8898 16.778 83.3578 16.886 83.6278 16.94Z" fill="#FF0000"/>
<path d="M92.5398 20H99.8998V17.92H97.3198V6.23997H95.1198C95.0398 7.67997 93.8998 8.31997 92.5398 8.31997V9.91997H95.1198V17.92H92.5398V20Z" fill="#FF0000"/>
<path d="M106.548 16.18V17.92H103.248C103.248 16.62 104.848 15.36 106.288 13.92C107.848 12.36 108.508 11.28 108.508 9.83997C108.508 7.39997 107.268 5.97997 104.828 5.97997C102.268 5.97997 101.148 7.65997 101.148 10.04V10.84H103.188V10.04C103.188 9.45997 103.208 8.01997 104.828 8.01997C106.288 8.01997 106.428 9.09997 106.428 9.83997C106.428 10.94 105.448 11.92 104.808 12.56C102.968 14.4 101.108 15.8 101.108 18.6V20H108.508V16.18H106.548Z" fill="#FF0000"/>
<path d="M112.797 20H115.277V17.52H112.797V20Z" fill="#FF0000"/>
<path d="M124.966 16.18V17.92H121.666C121.666 16.62 123.266 15.36 124.706 13.92C126.266 12.36 126.926 11.28 126.926 9.83997C126.926 7.39997 125.686 5.97997 123.246 5.97997C120.686 5.97997 119.566 7.65997 119.566 10.04V10.84H121.606V10.04C121.606 9.45997 121.626 8.01997 123.246 8.01997C124.706 8.01997 124.846 9.09997 124.846 9.83997C124.846 10.94 123.866 11.92 123.226 12.56C121.386 14.4 119.526 15.8 119.526 18.6V20H126.926V16.18H124.966Z" fill="#FF0000"/>
<path d="M128.374 20H135.734V17.92H133.154V6.23997H130.954C130.874 7.67997 129.734 8.31997 128.374 8.31997V9.91997H130.954V17.92H128.374V20Z" fill="#FF0000"/>
</svg>
