<svg width="220" height="102" viewBox="0 0 220 102" fill="none" xmlns="http://www.w3.org/2000/svg">
<g clip-path="url(#clip0_1268_2325)">
<path d="M49.1832 30.7714C47.9271 30.2415 46.8137 29.6896 45.4096 28.7881C45.0146 28.5313 44.4936 28.81 44.4936 29.2799V29.9847C44.4936 30.3125 44.2303 30.5747 43.9012 30.5747H34.2642C33.9351 30.5747 33.6718 30.3125 33.6718 29.9847V29.8153C33.6718 29.34 33.1398 29.0668 32.7449 29.329C31.1433 30.4108 30.0463 30.9408 29.2565 31.3014C29.0316 31.4052 28.7683 31.356 28.5928 31.1812L27.2106 29.788C26.9254 29.5039 27.0077 29.0231 27.3697 28.8482C30.688 27.2583 35.054 24.45 37.6703 19.7732C37.7307 19.6694 37.8459 19.6147 37.9665 19.6366H40.1166C40.3141 19.6366 40.4457 19.7732 40.528 19.9207C41.1149 21.0134 43.0017 23.3956 45.2505 24.98C47.5761 26.5972 49.6384 27.5315 51.0535 28.0014C51.4539 28.1325 51.5856 28.6242 51.3113 28.9411L49.8688 30.613C49.6988 30.8042 49.4245 30.8698 49.1887 30.7714H49.1832ZM43.7421 42.2778H34.6372C34.4617 42.2778 34.171 42.2778 33.9954 42.2778H31.9715C31.6424 42.2778 31.3791 42.0155 31.3791 41.6877V33.0279C31.3791 32.7001 31.6424 32.4378 31.9715 32.4378H46.512C46.8411 32.4378 47.1044 32.7001 47.1044 33.0279V41.6877C47.1044 42.0155 46.8411 42.2778 46.512 42.2778H44.3839C44.2084 42.2778 43.9177 42.2778 43.7421 42.2778ZM43.4734 35.0713H34.9114C34.5823 35.0713 34.3191 35.3335 34.3191 35.6613V38.9286C34.3191 39.2564 34.5823 39.5187 34.9114 39.5187H43.4734C43.8025 39.5187 44.0657 39.2564 44.0657 38.9286V35.6613C44.0657 35.3335 43.8025 35.0713 43.4734 35.0713ZM38.685 23.7835C38.1804 24.4883 37.4509 25.4007 36.2004 26.5972C35.8164 26.9633 36.0687 27.6135 36.6063 27.6135H42.0747C42.6177 27.6135 42.8755 26.936 42.4642 26.5808C41.614 25.8542 40.698 24.9855 39.612 23.7398C39.3597 23.4557 38.9099 23.4721 38.6905 23.778L38.685 23.7835Z" fill="#FF0000"/>
<path d="M66.6086 32.3013C66.3453 38.1091 63.9978 40.901 59.1875 43.1247C59.023 43.2012 58.831 43.1684 58.6993 43.0536L56.7412 41.5129C56.4944 41.2889 56.5657 40.8846 56.8784 40.7644C60.9427 39.2073 63.016 37.295 63.2573 32.345C63.2738 32.0117 62.9995 31.7331 62.6649 31.7331H55.0738C54.7447 31.7331 54.4814 31.4708 54.4814 31.143V29.3345C54.4814 29.0067 54.7447 28.7445 55.0738 28.7445H73.92C74.2491 28.7445 74.5124 29.0067 74.5124 29.3345V31.143C74.5124 31.4708 74.2491 31.7331 73.92 31.7331H67.19C66.8719 31.7331 66.6141 31.9844 66.6031 32.3013H66.6086ZM58.0905 24.5539V22.6143C58.0905 22.2865 58.3538 22.0242 58.6829 22.0242H70.5413C70.8704 22.0242 71.1337 22.2865 71.1337 22.6143V24.5539C71.1337 24.8817 70.8704 25.144 70.5413 25.144H58.6829C58.3538 25.144 58.0905 24.8817 58.0905 24.5539V24.5539ZM74.2765 22.0133C74.9182 22.4122 75.5106 22.8602 76.0756 23.3464C76.3169 23.5486 76.3443 23.9092 76.1469 24.155L75.7574 24.6468C75.549 24.909 75.1651 24.9418 74.9128 24.7287C74.3807 24.2862 73.8432 23.8764 73.2618 23.5103C72.9601 23.3191 72.8833 22.9148 73.1082 22.6416L73.5031 22.1554C73.6896 21.9259 74.0187 21.8658 74.271 22.0188L74.2765 22.0133ZM75.9275 19.6366C76.6076 20.0355 77.1835 20.4507 77.7485 20.9206C77.9953 21.1282 78.0337 21.4888 77.8362 21.7401L77.4523 22.2209C77.2439 22.4832 76.8599 22.5214 76.6076 22.3029C76.0865 21.8549 75.5545 21.4451 74.9621 21.0736C74.6659 20.8878 74.6056 20.4835 74.825 20.2158L75.176 19.7787C75.357 19.5547 75.6806 19.4891 75.9275 19.6366V19.6366Z" fill="#FF0000"/>
<path d="M95.1685 29.9902C94.8559 37.5409 93.194 40.1907 88.3508 43.1738C88.1807 43.2777 87.9559 43.2558 87.8078 43.1192L86.0855 41.5839C85.8716 41.3818 85.91 41.0266 86.1678 40.8791C90.3144 38.4806 91.9105 36.0985 92.086 30.5966C92.097 30.2688 91.8282 29.9902 91.4936 29.9902H87.8736C87.5445 29.9902 87.2812 30.2524 87.2812 30.5802V35.2407C87.2812 35.5685 87.0179 35.8308 86.6888 35.8308H84.5826C84.2535 35.8308 83.9903 35.5685 83.9903 35.2407V30.5802C83.9903 30.2524 83.727 29.9902 83.3979 29.9902H79.5694C79.2403 29.9902 78.9771 29.7279 78.9771 29.4001V27.466C78.9771 27.1382 79.2403 26.8759 79.5694 26.8759H83.3979C83.727 26.8759 83.9903 26.6137 83.9903 26.2858V22.2701C83.9903 22.0024 84.2206 21.8002 84.4839 21.8276L86.8808 21.8713C87.4951 21.9532 87.2757 22.6034 87.2757 22.9257V26.2858C87.2757 26.6137 87.539 26.8759 87.8681 26.8759H91.4991C91.8227 26.8759 92.0915 26.6082 92.0915 26.2858C92.0915 24.4555 92.0915 23.1497 92.0531 21.8986C92.0476 21.6254 92.2889 21.4069 92.5632 21.4451H94.8723C95.4318 21.5216 95.1905 22.3958 95.1905 22.7673V26.2804C95.1905 26.6082 95.4537 26.8705 95.7828 26.8705H99.0518C99.3809 26.8705 99.6442 27.1327 99.6442 27.4605V29.3946C99.6442 29.7225 99.3809 29.9847 99.0518 29.9847H95.163L95.1685 29.9902ZM98.465 22.0133C99.1067 22.4122 99.6991 22.8602 100.264 23.3464C100.505 23.5486 100.533 23.9092 100.335 24.155L99.9459 24.6468C99.7375 24.909 99.3535 24.9418 99.1012 24.7287C98.5692 24.2862 98.0316 23.8764 97.4502 23.5103C97.1486 23.3191 97.0718 22.9148 97.2967 22.6416L97.6916 22.1554C97.8781 21.9259 98.2072 21.8658 98.4595 22.0188L98.465 22.0133ZM100.116 19.6366C100.796 20.0355 101.372 20.4507 101.937 20.9206C102.184 21.1282 102.222 21.4888 102.025 21.7401L101.641 22.2209C101.432 22.4832 101.048 22.5214 100.796 22.3029C100.275 21.8549 99.7429 21.4451 99.1506 21.0736C98.8544 20.8878 98.7941 20.4835 99.0135 20.2158L99.3645 19.7787C99.5455 19.5547 99.8691 19.4891 100.116 19.6366V19.6366Z" fill="#FF0000"/>
<path d="M119.078 24.6031C117.805 26.0455 116.511 27.466 115.008 28.6735C114.871 28.7827 114.788 28.9467 114.788 29.127V42.2068C114.788 42.5346 114.525 42.7969 114.196 42.7969H111.931C111.602 42.7969 111.338 42.5346 111.338 42.2068V32.3068C111.338 31.8424 110.823 31.5583 110.428 31.815C108.953 32.7603 107.345 33.7 104.91 34.8583C104.74 34.9402 104.532 34.902 104.395 34.7654L102.766 32.9897C102.546 32.7657 102.617 32.3887 102.908 32.2685C108.168 30.0722 113.615 26.0072 117.482 21.5544C117.641 21.3686 117.915 21.3468 118.101 21.4998L119.835 23.0241C120.038 23.1826 120.016 23.494 119.878 23.6907C119.665 23.9912 119.341 24.3135 119.078 24.5976V24.6031Z" fill="#FF0000"/>
<path d="M130.042 29.0017C128.775 27.9964 125.67 26.1607 123.954 25.3575C123.707 25.2428 123.625 24.9368 123.767 24.7128C123.767 24.7128 124.859 23.112 125.018 22.8552C125.177 22.5984 125.341 22.5765 125.577 22.6913C127.102 23.3742 130.497 25.2319 131.962 26.3792C132.148 26.5267 132.186 26.789 132.055 26.9802L130.695 28.9034C130.547 29.1165 130.245 29.1656 130.042 29.0017V29.0017ZM136.997 35.7165C132.883 39.0384 130.366 40.1803 127.173 41.5407C127.025 41.6063 126.054 42.1362 125.824 41.7319L124.283 39.175C124.135 38.9182 124.272 38.6068 124.557 38.5193C126.817 37.8364 129.971 36.8639 133.87 33.9518C137.567 31.209 140.013 28.0729 141.313 26.3246C141.494 26.0787 141.867 26.0842 142.037 26.3355L143.853 27.838C143.963 27.9964 143.957 28.2041 143.842 28.357C142.745 29.8104 140.31 33.0339 136.991 35.711L136.997 35.7165Z" fill="#FF0000"/>
<path d="M182.988 38.3055V42.5016C182.988 42.8294 182.725 43.0917 182.395 43.0917H180.24C179.911 43.0917 179.647 42.8294 179.647 42.5016V38.3055C179.647 37.9777 179.384 37.7155 179.055 37.7155H170.356C170.027 37.7155 169.764 37.4532 169.764 37.1254V35.153C169.764 34.8252 170.027 34.563 170.356 34.563H179.055C179.384 34.563 179.647 34.3007 179.647 33.9729V32.4103C179.647 32.0825 179.933 31.8257 180.262 31.8639C180.481 31.8858 180.607 31.6235 180.448 31.4706L180.267 31.2903C180.02 31.0444 180.037 30.6401 180.306 30.4216C180.646 30.1429 181.041 29.7714 182.017 28.8535C182.401 28.4711 183.246 27.5149 184.145 26.1053C184.392 25.7174 184.107 25.2093 183.641 25.2093H178.309L178.326 24.9634C178.704 25.1492 177.87 26.6571 177.788 26.7391C177.75 26.7773 177.558 27.0778 177.41 27.3128C177.316 27.4603 177.355 27.646 177.497 27.7444C178.145 28.1869 180.075 29.3179 181.167 29.8588C181.49 30.0173 181.589 30.4325 181.381 30.7221L180.042 32.6125C178.792 31.9678 176.921 30.8641 176.082 30.2413L175.271 30.356C174.272 31.629 173.482 32.4486 172.769 33.1697C172.572 33.3664 172.27 33.3992 172.034 33.2517L170.433 32.2464C170.093 32.0333 170.065 31.558 170.372 31.2957C172.095 29.826 173.587 28.0995 174.563 26.0671C174.755 25.6737 174.47 25.2147 174.031 25.2147H171.629C171.299 25.2147 171.036 24.9525 171.036 24.6247V22.8982C171.036 22.5704 171.299 22.3081 171.629 22.3081H179.198C179.527 22.3081 179.79 22.0459 179.79 21.718V20.2374C179.79 20.0516 179.944 19.9096 180.13 19.9205H182.631C183.032 19.9205 183.103 20.2756 183.103 20.4887V21.718C183.103 22.0459 183.366 22.3081 183.695 22.3081H191.265C191.594 22.3081 191.857 22.5704 191.857 22.8982V24.6247C191.857 24.9525 191.594 25.2147 191.265 25.2147H188.528C188.259 25.2147 187.738 26.3129 187.683 26.3676C187.65 26.4003 187.48 26.6626 187.321 26.903C187.173 27.127 187.195 27.4275 187.376 27.6242C188.999 29.3835 190.53 30.356 191.747 30.9788C192.093 31.1591 192.181 31.6126 191.917 31.9022L190.661 33.2626C190.464 33.4757 190.14 33.514 189.899 33.3555C188.039 32.1262 186.838 30.9351 185.906 29.8697C185.675 29.6075 185.27 29.602 185.034 29.8588C184.425 30.5199 183.832 31.0663 183.246 31.6181C183.087 31.7711 182.911 31.8093 182.856 31.8585C182.807 31.9022 183.015 31.8858 183.015 32.0333C183.015 32.4103 183.004 32.9294 183.004 33.0332V33.9729C183.004 34.3007 183.268 34.563 183.597 34.563H192.455C192.784 34.563 193.047 34.8252 193.047 35.153V37.1254C193.047 37.4532 192.784 37.7155 192.455 37.7155H183.597C183.268 37.7155 183.004 37.9777 183.004 38.3055H182.988Z" fill="#FF0000"/>
<path d="M218.091 44.1302C218.003 44.2176 217.872 44.2504 217.757 44.2067C216.874 43.8843 213.945 42.5622 211.778 40.863C209.332 38.9453 208.169 36.9019 207.577 35.7163C207.478 35.5141 207.275 35.3939 207.05 35.3939H205.805C205.481 35.3939 205.218 35.6562 205.213 35.9785L205.191 39.3004C205.191 39.6555 205.498 39.9342 205.854 39.8905C206.809 39.7703 208.142 39.6501 209.107 39.4698C209.48 39.4042 209.82 39.6992 209.804 40.0762L209.727 41.6224C209.716 41.8901 209.518 42.1141 209.261 42.1688C205.975 42.8845 204.127 42.8681 202.591 43.032C202.415 43.0648 202.163 43.0757 202.169 42.7097C202.174 42.1688 202.185 41.0979 202.174 40.639C202.174 40.5242 202.174 40.2128 202.174 40.0926V35.9785C202.174 35.6507 201.911 35.3884 201.582 35.3884H200.501C200.21 35.3884 199.958 35.6015 199.92 35.8856C199.673 37.6176 199.119 39.9232 197.918 42.4802C197.792 42.7479 197.484 42.879 197.199 42.7916L195.477 42.2453C195.131 42.136 194.967 41.7535 195.126 41.4312C195.482 40.71 195.943 39.6446 196.349 38.0929C196.969 35.8146 197.369 33.0773 197.369 29.832C197.369 27.2805 197.227 24.1061 197.079 21.2541C197.062 20.9154 197.331 20.6367 197.671 20.6367H217.428C217.757 20.6367 218.02 20.899 218.02 21.2268V26.297C218.02 26.6248 217.757 26.8871 217.428 26.8871H213.012C213.391 26.9417 213.467 27.1712 213.467 27.275V28.2038C213.467 28.5316 213.731 28.7939 214.06 28.7939H217.263C217.592 28.7939 217.855 29.0561 217.855 29.3839V30.5149C217.855 30.8427 217.592 31.105 217.263 31.105H214.06C213.731 31.105 213.467 31.3672 213.467 31.695V32.4217C213.467 32.7495 213.731 33.0118 214.06 33.0118H218.02C218.349 33.0118 218.612 33.274 218.612 33.6018V34.8093C218.612 35.1371 218.349 35.3994 218.02 35.3994H216.512C216.215 35.3994 216.078 35.76 216.298 35.9567L217.044 36.6669C217.208 36.809 217.06 37.0002 216.885 37.1368C216.534 37.4264 215.667 38.1257 214.932 38.7595C214.553 39.0873 214.614 39.5189 215.064 39.7375C216.325 40.3439 218.623 41.0979 219.748 41.3602C219.989 41.4148 220.077 41.7153 219.901 41.8956L218.08 44.1411L218.091 44.1302ZM203.161 31.105H201.571C201.242 31.105 200.978 30.8427 200.978 30.5149V29.3839C200.978 29.0561 201.242 28.7939 201.571 28.7939H203.161C203.49 28.7939 203.754 28.5316 203.754 28.2038V27.4771C203.754 27.1493 203.49 26.8871 203.161 26.8871H200.841C200.512 26.8871 200.249 27.1493 200.249 27.4771V29.9467C200.249 30.4439 200.249 31.3563 200.216 32.3944C200.205 32.7277 200.474 33.0009 200.808 33.0009H203.156C203.485 33.0009 203.748 32.7386 203.748 32.4108V31.6841C203.748 31.3563 203.485 31.0941 203.156 31.0941L203.161 31.105ZM214.438 22.9806H200.841C200.512 22.9806 200.249 23.2429 200.249 23.5707V23.975C200.249 24.3028 200.512 24.565 200.841 24.565H214.438C214.767 24.565 215.031 24.3028 215.031 23.975V23.5707C215.031 23.2429 214.767 22.9806 214.438 22.9806ZM210.451 27.4826C210.451 27.1548 210.187 26.8925 209.858 26.8925H206.414C206.776 26.969 206.71 27.2968 206.71 27.3952V28.2038C206.71 28.5316 206.973 28.7939 207.302 28.7939H209.864C210.193 28.7939 210.456 28.5316 210.456 28.2038V27.4771L210.451 27.4826ZM209.858 31.105H207.297C206.968 31.105 206.705 31.3672 206.705 31.695V32.4217C206.705 32.7495 206.968 33.0118 207.297 33.0118H209.858C210.187 33.0118 210.451 32.7495 210.451 32.4217V31.695C210.451 31.3672 210.187 31.105 209.858 31.105ZM211.071 36.3227C211.389 36.7598 211.685 37.0876 211.932 37.328C212.14 37.5356 212.475 37.552 212.705 37.3717C213.105 37.0439 213.451 36.7161 213.764 36.3719C214.104 35.9949 213.829 35.3939 213.319 35.3939H211.559C211.082 35.3939 210.796 35.9348 211.076 36.3227H211.071Z" fill="#FF0000"/>
<path d="M164.58 37.7972C162.946 40.2067 160.741 41.2884 159.364 41.8676C159.112 41.9769 158.821 41.8894 158.656 41.6654L157.614 40.2231C157.384 39.9007 157.527 39.4472 157.905 39.3216C158.964 38.9719 160.329 38.3654 161.498 36.9722C162.979 35.2348 163.242 33.2296 163.242 32.1642C163.242 30.8366 162.852 29.2194 161.498 27.9354C160.253 26.7553 158.892 26.4712 157.949 26.3674C157.631 26.3346 157.345 26.5586 157.296 26.8755C156.506 32.2844 155.141 35.5025 154.367 37.0651C153.638 38.5621 152.524 40.5891 151.263 40.5891C150.391 40.5891 146.414 38.4146 146.414 34.0929C146.414 28.7331 150.851 23.8486 157.11 23.8486C162.156 23.8486 166.132 27.2525 166.132 32.6396C166.132 34.7649 165.48 36.4586 164.58 37.7863V37.7972ZM151.531 28.4982C149.809 30.1427 149.107 32.3882 149.107 33.8634C149.107 35.8194 150.221 36.8356 150.659 36.8356C151.811 36.8356 153.654 31.5578 154.334 27.777C154.417 27.318 153.945 26.9465 153.512 27.1377C152.925 27.4054 152.245 27.8097 151.531 28.5036V28.4982Z" fill="#FF0000"/>
<path d="M4.20139 34.2298C4.06975 36.4535 3.82841 38.4914 3.5048 39.9666C3.43899 40.2725 3.1428 40.4692 2.83016 40.4201C2.41879 40.349 1.85385 40.2562 1.42054 40.1851C1.08047 40.1305 0.866561 39.8027 0.943349 39.4694C1.17372 38.5187 1.47539 36.9998 1.71124 34.1697C1.73866 33.8419 2.02936 33.596 2.36394 33.6288L3.8339 33.7818C3.91617 33.7818 4.22333 33.8637 4.20139 34.2298V34.2298ZM8.51802 32.7983C8.48511 32.6071 8.45768 32.4651 8.43574 32.3449C8.40832 32.2028 8.2712 32.1099 8.12859 32.1263C8.03535 32.1372 7.95307 32.1427 7.85983 32.1536C7.71722 32.1646 7.60204 32.2848 7.60204 32.4268V42.4962C7.60204 42.824 7.33876 43.0863 7.00967 43.0863H5.20513C4.87603 43.0863 4.61276 42.824 4.61276 42.4962V32.8038C4.61276 32.6235 4.45918 32.476 4.27818 32.4869C3.67484 32.5142 2.35846 32.5634 1.84288 32.6071C1.51927 32.6344 1.35472 32.6344 1.32729 32.3121L1.14081 30.4654C1.14081 30.1977 1.2176 30.0611 1.41505 29.8644C2.02936 29.2525 3.00568 28.1379 3.51029 27.4932C3.70226 27.2473 3.65838 26.8813 3.41705 26.6846C3.01665 26.3567 2.68207 26.1437 1.42602 25.1165C1.29438 25.0127 1.26696 24.8215 1.36569 24.6849C1.36569 24.6849 4.18493 21.3576 5.07349 19.9589C5.24352 19.6912 5.58359 19.6037 5.85783 19.7567L7.36619 20.5872C7.5801 20.7183 7.44297 20.9205 7.251 21.1936C6.38439 22.4885 5.98399 22.8655 5.02961 24.1604C4.94185 24.2806 4.96379 24.4499 5.06252 24.5538C5.12834 24.6248 5.3971 24.7887 5.44098 24.8379C5.58359 24.9854 5.80847 24.9471 5.94559 24.7887C6.94933 23.614 7.30585 22.942 7.70625 22.3792C7.81046 22.2317 7.98598 22.1607 8.14504 22.2481L9.88376 23.3955C10.2348 23.5812 9.66985 24.0402 9.53273 24.2259C9.02263 24.9745 6.5983 27.8046 5.17222 29.5256C5.00219 29.7333 5.05155 29.9955 5.32031 29.9846C5.69329 29.9737 7.10839 29.8808 7.4704 29.8644C7.67334 29.8535 7.81595 29.6568 7.7611 29.4601C7.64043 29.0066 7.43749 28.2417 7.30585 27.8374C7.24552 27.6571 7.35522 27.4659 7.53622 27.4276L9.17072 27.0561C9.46142 26.9905 9.75761 27.1435 9.85634 27.4221C10.361 28.8044 10.7723 30.3834 11.0466 31.8149C11.1014 32.1099 10.9259 32.3995 10.6352 32.4869L9.01715 32.9732C8.69902 33.0661 8.53447 32.9677 8.50705 32.8038L8.51802 32.7983ZM8.66063 38.6171C8.29862 36.7977 8.22732 35.3061 8.24377 34.1478C8.24377 33.9949 8.35896 33.8637 8.51253 33.8364C8.90745 33.7709 9.93313 33.6452 10.3774 33.5687C10.5694 33.5359 10.7449 33.6834 10.7504 33.8747C10.7943 35.328 10.9643 36.6065 11.2879 38.0051C11.3263 38.1745 11.2276 38.3439 11.063 38.3876L9.06103 38.8575C8.88002 38.9066 8.69902 38.7919 8.66063 38.6116V38.6171ZM16.4108 33.9785C16.4218 40.879 14.6118 41.7969 11.4908 43.0699C11.2824 43.1519 11.0411 43.1136 10.871 42.9661L9.28042 41.562C8.94036 41.2615 9.05554 40.7151 9.47788 40.5676C12.2532 39.5896 13.438 38.8302 13.2405 33.443C13.235 33.2791 13.3667 33.148 13.5312 33.1589H15.8952C16.4876 33.1917 16.4273 33.4813 16.4108 33.9839V33.9785ZM22.1316 32.9786C21.989 32.7382 21.8409 32.5033 21.6873 32.2684C21.5776 32.099 21.3856 32.0006 21.1772 32.0061C19.0984 32.0717 12.6427 32.1208 11.9022 32.2028C11.8583 32.2028 11.447 32.2902 11.4195 31.9952L11.1343 29.8535C11.1069 29.6568 11.3318 29.4765 11.5238 29.318C12.6591 28.3892 13.5806 27.3457 14.2881 26.5534C14.6282 26.171 14.354 25.5755 13.8439 25.5755H11.3098C10.9807 25.5755 10.7175 25.3132 10.7175 24.9854V23.5375C10.7175 23.2097 10.9807 22.9475 11.3098 22.9475H15.0835C15.4126 22.9475 15.6758 22.6852 15.6758 22.3574V20.0736C15.6758 19.9152 15.8075 19.7895 15.9665 19.795H18.6103C19.0161 19.8223 18.9339 20.3195 18.9339 20.4014V22.3574C18.9339 22.6852 19.1971 22.9475 19.5262 22.9475H23.8868C24.2158 22.9475 24.4791 23.2097 24.4791 23.5375V24.9854C24.4791 25.3132 24.2158 25.5755 23.8868 25.5755H19.1149C18.9942 25.5755 18.8516 25.57 18.5938 25.8159C18.0453 26.3513 17.2006 27.3511 16.5205 28.1488C16.0653 28.6842 16.2682 29.1159 16.9758 29.1159C17.6065 29.1159 18.2428 29.1213 18.7035 29.0776C18.9613 29.0503 19.082 28.7553 18.9174 28.5531C18.7529 28.351 18.7803 28.3947 18.6048 28.198C18.5006 28.0778 18.517 27.892 18.6487 27.7937L20.7384 26.6409C20.8481 26.5589 21.0072 26.5698 21.1059 26.6736C22.3236 27.9303 23.5631 29.4218 24.7479 31.3232C24.9179 31.5963 24.8356 31.9515 24.5669 32.1263L22.9598 33.1644C22.6801 33.3447 22.3016 33.2573 22.1316 32.9732V32.9786ZM22.1096 42.977H19.4714C17.9356 42.977 17.4255 41.8788 17.4255 41.0757V33.3228C17.4255 33.1644 17.5572 33.0387 17.7162 33.0442L20.0638 33.0169C20.4148 33.0442 20.3874 33.301 20.3874 33.3775V39.1143C20.3874 39.4639 20.5464 39.9447 21.2211 39.9447C21.8957 39.9447 22.0877 39.7207 22.34 38.0926C22.4003 37.6992 22.8336 37.4752 23.1902 37.6555L24.6053 38.3657C24.8192 38.475 24.9508 38.7045 24.9289 38.9449C24.693 41.6275 24.1116 42.9716 22.1096 42.9716V42.977Z" fill="#FF0000"/>
<path d="M69.3897 13.0199L69.077 12.5773C68.8137 12.2113 69.0441 11.7032 69.4939 11.654C70.8486 11.5065 72.2473 11.2442 73.6514 10.747C74.0518 10.605 74.1835 10.1023 73.8983 9.79089C73.7831 9.66523 73.6624 9.53956 73.5363 9.4139C73.3498 9.22814 73.0591 9.18989 72.8287 9.31556C72.1047 9.72533 71.611 9.93841 71.09 10.1242C70.8761 10.2007 70.6347 10.146 70.4702 9.98212L70.1795 9.68708C69.8778 9.38658 69.993 8.87847 70.3934 8.72549C71.4629 8.32118 72.4009 7.81306 73.1742 7.27763C73.5417 7.02631 73.2181 6.45809 72.8122 6.64385C72.1102 6.96074 71.271 7.29402 70.2782 7.61091C70.0424 7.6874 69.7846 7.61091 69.631 7.41422L69.3677 7.08094C69.1044 6.74766 69.2745 6.25594 69.6858 6.14667C70.898 5.82431 71.7701 5.46372 72.4393 5.14683C72.8177 4.97199 72.9 4.46388 72.5874 4.18523C72.4557 4.06503 72.3186 3.95576 72.1595 3.83556C71.9621 3.68805 71.6933 3.67712 71.4849 3.80824C71.1558 4.01586 70.8322 4.19616 70.4098 4.40924C70.2069 4.51305 69.9601 4.49119 69.7791 4.3546L69.4664 4.11967C69.1209 3.85742 69.1757 3.32198 69.5652 3.12529C71.6056 2.08721 72.4831 1.04366 72.9823 0.262366C73.1139 0.0602132 73.3498 -0.0435953 73.5856 0.000113565L74.9898 0.251439C75.1653 0.278757 75.3298 0.355248 75.3298 0.469983C75.3298 0.557401 75.2695 0.60111 75.2091 0.617501C75.1653 0.644819 74.913 0.688527 74.8691 0.721309C74.8252 0.748627 74.6607 0.972635 74.6168 1.01634H78.2862C78.4672 1.01634 78.6372 1.0983 78.7524 1.24035L78.9663 1.51353C79.1528 1.74847 79.1363 2.08175 78.9224 2.28936C78.4891 2.72645 77.7541 3.4094 76.9753 4.05957C76.6243 4.34914 76.734 4.91189 77.1618 5.06487L77.4031 5.15229C77.5238 5.196 77.6554 5.2561 77.6554 5.38723C77.6554 5.49103 77.5951 5.51835 77.5677 5.53474C77.4964 5.56206 77.1673 5.63855 77.1124 5.69865C77.0356 5.76968 76.701 6.2013 76.6133 6.28872H79.8329C79.9426 6.28872 80.0523 6.33789 80.1182 6.42531L80.3321 6.69303C80.4363 6.81869 80.4418 7.00445 80.3485 7.13558C78.2259 10.1952 75.6315 12.2659 69.982 13.2548C69.7571 13.2931 69.5268 13.2002 69.3951 13.0144L69.3897 13.0199ZM73.4595 2.29483C73.2949 2.44234 73.2839 2.45873 73.0481 2.66089C73.4814 2.93407 73.8599 3.24549 74.2164 3.59516C74.4248 3.79732 74.7484 3.8301 74.9843 3.65526C75.1269 3.55146 75.2585 3.44765 75.3847 3.34384C75.8125 2.9887 75.5657 2.30029 75.0117 2.30029H73.4595V2.29483ZM75.0117 7.8076C74.9184 7.88409 74.8581 7.93326 74.7978 7.9879C74.6223 8.13542 74.6168 8.39767 74.7978 8.55065C75.0227 8.74188 75.264 8.96588 75.5163 9.22267C75.7302 9.44122 76.0812 9.46307 76.3171 9.26638C76.5091 9.10794 76.701 8.93857 76.904 8.73641C77.277 8.36489 77.0137 7.72565 76.4871 7.72565H75.253C75.1653 7.72565 75.083 7.75297 75.0172 7.8076H75.0117Z" fill="#FF0000"/>
<path d="M93.9399 6.02664C93.7535 6.17962 93.4902 6.20694 93.2763 6.0922C92.6839 5.77531 92.2286 5.46389 91.6582 4.89567V5.36554C91.6582 5.69336 91.3949 5.95561 91.0658 5.95561H90.8574C90.5283 5.95561 90.265 5.69336 90.265 5.36554V4.99948C90.0621 5.24534 89.7659 5.55131 89.4697 5.7917C89.2558 5.96654 88.9487 5.97747 88.7238 5.80809L88.1534 5.36554L87.9778 5.48574C87.7584 5.36554 87.5665 5.2071 87.3745 5.01587V5.58955C87.3745 5.91737 87.1112 6.17962 86.7821 6.17962H86.634C86.3049 6.17962 86.0417 5.91737 86.0417 5.58955V4.89567C85.7619 5.27266 85.4603 5.58409 85.1805 5.82995C84.9666 6.02118 84.6485 6.02664 84.4236 5.84634L84.1548 5.63326C84.089 8.43609 83.9245 10.1626 83.3431 11.6979C83.2389 11.9656 82.9646 12.1295 82.6849 12.0803L82.1254 11.982C81.747 11.9164 81.5385 11.5176 81.6866 11.1679C82.2461 9.86209 82.652 8.46341 82.652 5.48574C82.652 4.33292 82.5752 2.80311 82.4929 1.56834C82.471 1.2296 82.7397 0.945488 83.0798 0.945488H87.007C87.2099 0.945488 87.3745 0.78158 87.3745 0.579427V0.552109C87.3745 0.344492 87.55 0.17512 87.7584 0.186048L89.0693 0.240684C89.2887 0.257074 89.541 0.328101 89.541 0.492009C89.541 0.552109 89.4533 0.612209 89.3929 0.639527C89.2284 0.726944 89.2284 0.759726 89.2284 0.950952H94.0112C94.3403 0.950952 94.6036 1.2132 94.6036 1.54102V1.61205C94.6036 1.93986 94.3403 2.20212 94.0112 2.20212H91.6472V2.9397H94.2306C94.4336 2.9397 94.5981 3.10361 94.5981 3.30576V3.67183C94.5981 3.87398 94.4336 4.03789 94.2306 4.03789H93.4627C93.1007 4.03789 92.9527 4.49683 93.2488 4.70445C93.4957 4.87928 93.7864 5.05958 94.1045 5.22349C94.3403 5.34369 94.3787 5.66058 94.1758 5.82995L93.9345 6.0321L93.9399 6.02664ZM86.0471 2.19119H84.1274C84.1384 2.25129 84.1439 2.40973 84.1494 2.57364C84.1548 2.77033 84.3194 2.92878 84.5169 2.92878H86.0471V2.19119V2.19119ZM84.7582 4.08706C84.4346 4.08706 84.1713 4.34931 84.1658 4.67167C84.1658 4.85196 84.1603 5.03226 84.1548 5.17978C84.4346 5.04865 85.0105 4.546 85.378 4.09252H84.7582V4.08706ZM90.5064 10.7035C90.1773 10.7035 89.914 10.9657 89.914 11.2936V11.7634C89.914 12.6868 88.7073 12.8452 87.912 12.8835C87.6707 12.8944 87.4458 12.7578 87.3471 12.5393L87.2099 12.2388C87.0344 11.8563 87.3142 11.4301 87.7365 11.4192C88.2685 11.4028 88.3069 11.2936 88.3069 10.9166V10.7089H84.5443C84.3413 10.7089 84.1768 10.545 84.1768 10.3429V9.94951C84.1768 9.74735 84.3413 9.58344 84.5443 9.58344H88.3069V9.15728H85.208C85.005 9.15728 84.8405 8.99337 84.8405 8.79122V8.39784C84.8405 8.19569 85.005 8.03178 85.208 8.03178H88.3069V7.58923C86.7273 7.61655 86.1568 7.61655 85.537 7.61108C85.3944 7.61108 85.2683 7.52913 85.208 7.398L85.0708 7.10843C84.9502 6.85164 85.1586 6.55661 85.4438 6.58393C85.9594 6.6331 86.2994 6.64949 86.7876 6.64949C87.5829 6.64949 88.4111 6.58939 89.1351 6.52929C90.4954 6.40363 91.203 6.22879 91.916 6.02118C92.1189 5.96108 92.3329 6.02118 92.4864 6.15777L93.1117 6.74783C93.2159 6.83525 93.3037 6.96638 93.3037 7.04287C93.3037 7.11936 93.2159 7.13029 93.172 7.13029C93.1282 7.13029 92.9197 7.1139 92.8759 7.1139C92.7881 7.1139 92.3438 7.2177 92.2396 7.22863C91.2523 7.40347 90.4406 7.46357 89.9195 7.49088V8.02085H93.3147C93.5176 8.02085 93.6822 8.18476 93.6822 8.38692V8.78029C93.6822 8.98245 93.5176 9.14636 93.3147 9.14636H89.9195V9.57252H94.2032C94.4062 9.57252 94.5707 9.73643 94.5707 9.93858V10.332C94.5707 10.5341 94.4062 10.698 94.2032 10.698H90.5119L90.5064 10.7035ZM90.2705 2.18573H87.3745V2.92331H87.8901C88.2192 2.92331 88.4825 3.18557 88.4825 3.51338V4.08706H87.7913C87.8901 4.16355 88.2027 4.41488 88.5647 4.61157C88.7841 4.73176 89.0638 4.70445 89.2503 4.53508C89.4972 4.31107 89.6178 4.1854 89.7385 4.02696H89.0145V3.51338C89.0145 3.18557 89.2778 2.92331 89.6069 2.92331H90.2705V2.18573V2.18573Z" fill="#FF0000"/>
<path d="M107.702 13.0039C106.473 12.7144 104.718 12.1352 103.155 10.4907C102.925 10.2503 102.53 10.2448 102.305 10.4907C101.065 11.862 99.4033 12.6324 97.703 12.9985C97.4617 13.0531 97.2094 12.9384 97.0832 12.7307L96.7651 12.2172C96.5457 11.862 96.7651 11.3976 97.1765 11.3321C98.4435 11.1244 99.5076 10.6655 100.297 10.0645C100.742 9.72576 100.495 9.01003 99.9299 9.01003H97.3465C97.0174 9.01003 96.7541 8.74778 96.7541 8.41996V8.30523C96.7541 7.97741 97.0174 7.71516 97.3465 7.71516H101.471C101.663 7.71516 101.817 7.5731 101.839 7.38188C101.839 7.34363 101.844 7.30539 101.85 7.26168C101.866 7.04313 101.702 6.85737 101.482 6.85737H97.0064C96.6773 6.85737 96.4141 6.59512 96.4141 6.2673V6.16896C96.4141 5.84114 96.6773 5.57889 97.0064 5.57889H101.866V4.97243H98.8548C98.5258 4.97243 98.2625 4.71018 98.2625 4.38236V4.32772C98.2625 3.99991 98.5258 3.73766 98.8548 3.73766H101.866V3.16398H97.2917C96.9626 3.16398 96.6993 2.90172 96.6993 2.57391V2.47556C96.6993 2.14775 96.9626 1.88549 97.2917 1.88549H99.1675C99.4746 1.88549 99.6502 1.53036 99.4582 1.28996C99.4143 1.23533 99.3704 1.17523 99.3266 1.12059C99.0688 0.8037 99.2059 0.328367 99.5898 0.197241L99.9902 0.0551869C100.221 -0.0267671 100.478 0.0442597 100.637 0.230022C100.928 0.563302 101.186 0.907509 101.383 1.18615C101.526 1.38831 101.433 1.66149 101.202 1.74344L100.818 1.88003H103.385C103.588 1.88003 103.775 1.78169 103.885 1.60685C104.115 1.24625 104.367 0.836482 104.625 0.366612C104.768 0.104359 105.075 -0.0158399 105.354 0.0879685L106.254 0.421248C106.375 0.464957 106.594 0.552375 106.594 0.716283C106.594 0.759992 106.578 0.792773 106.567 0.820091C106.523 0.8638 106.227 0.951218 106.183 0.994927C106.155 1.02224 105.651 1.73251 105.563 1.87457H108.322C108.651 1.87457 108.914 2.13682 108.914 2.46464V2.56298C108.914 2.8908 108.651 3.15305 108.322 3.15305H103.791V3.72673H106.742C107.071 3.72673 107.335 3.98898 107.335 4.3168V4.37143C107.335 4.69925 107.071 4.9615 106.742 4.9615H103.791V5.56796H108.591C108.92 5.56796 109.183 5.83021 109.183 6.15803V6.25638C109.183 6.58419 108.92 6.84644 108.591 6.84644H104.049C103.852 6.84644 103.693 6.99943 103.682 7.19065C103.682 7.2289 103.682 7.26168 103.676 7.29992C103.66 7.513 103.83 7.69877 104.044 7.69877H108.3C108.629 7.69877 108.892 7.96102 108.892 8.28884V8.40357C108.892 8.73139 108.629 8.99364 108.3 8.99364H105.557C104.971 8.99364 104.74 9.75855 105.234 10.0809C106.166 10.6874 107.34 11.0534 108.426 11.2446C108.859 11.3211 109.046 11.8347 108.777 12.1844L108.322 12.7745C108.179 12.9602 107.943 13.0422 107.718 12.9875L107.702 13.0039Z" fill="#FF0000"/>
<path d="M123.196 5.74797V12.2934C123.196 12.6212 122.933 12.8834 122.604 12.8834H121.008C120.75 12.8834 120.525 12.7195 120.449 12.4791L120.322 12.0912C120.196 11.7088 120.481 11.3208 120.887 11.3208C121.079 11.3208 121.244 11.3208 121.293 11.3154C121.458 11.299 121.573 11.2553 121.573 10.8728V5.96652C121.573 5.6387 121.31 5.37645 120.981 5.37645H120.196C119.993 5.37645 119.829 5.21254 119.829 5.01039V4.80277C119.829 4.60062 119.664 4.43671 119.461 4.43671H118.841C118.512 4.43671 118.249 4.69896 118.249 5.02678V12.3043C118.249 12.6321 117.986 12.8944 117.657 12.8944H117.278C116.949 12.8944 116.686 12.6321 116.686 12.3043V5.02678C116.686 4.69896 116.423 4.43671 116.094 4.43671H114.837V4.15806C114.733 4.32197 114.618 4.54052 114.201 5.14151C114.289 5.18522 114.481 5.27264 114.481 5.43655C114.481 5.50757 114.437 5.55675 114.377 5.60045C114.185 5.77529 114.157 5.80807 114.157 5.92281V9.91124C114.547 8.63822 114.717 7.62199 114.794 6.18506C114.81 5.84085 115.123 5.58406 115.463 5.63324L116.313 5.74797C116.461 5.76436 116.593 5.86817 116.593 5.96652C116.593 6.09764 116.401 6.17413 116.313 6.21784C116.253 7.50179 116.072 8.98789 115.814 9.96041C115.732 10.2718 115.424 10.4631 115.106 10.392L114.881 10.3429C114.514 10.2609 114.157 10.5396 114.157 10.9165V12.3098C114.157 12.6376 113.894 12.8998 113.565 12.8998H113.11C112.781 12.8998 112.517 12.6376 112.517 12.3098V7.3051C112.397 7.44169 112.331 7.51272 112.26 7.59467C112.133 7.73126 111.92 7.75311 111.766 7.63838L111.245 7.25046C110.954 7.03192 110.932 6.61668 111.19 6.35443C112.046 5.48572 112.77 4.49681 113.362 3.42594C113.516 3.1473 113.856 3.03256 114.141 3.16915L114.837 3.5079V2.86319H116.094C116.423 2.86319 116.686 2.60094 116.686 2.27312V0.732385C116.686 0.393642 116.966 0.125925 117.306 0.142316L118.222 0.186025C118.37 0.186025 118.545 0.257052 118.545 0.393642C118.545 0.42096 118.529 0.49745 118.441 0.55755C118.309 0.661358 118.249 0.721458 118.249 0.836193V2.27858C118.249 2.6064 118.512 2.86865 118.841 2.86865H119.522C119.725 2.86865 119.889 3.03256 119.889 3.23472V3.52975C119.889 3.7319 120.054 3.89581 120.257 3.89581H123.356C123.685 3.89581 123.948 4.15806 123.948 4.48588V5.01585C123.948 5.218 123.783 5.38191 123.58 5.38191H123.564C123.361 5.38191 123.196 5.54582 123.196 5.74797V5.74797ZM114.75 1.46997C114.585 1.48636 114.541 1.48636 114.437 1.59017C113.719 2.3059 113.132 2.79216 112.501 3.25111C112.265 3.42048 111.941 3.39862 111.738 3.19647L111.415 2.88504C111.152 2.62826 111.185 2.19663 111.486 1.98901C112.101 1.56285 112.682 1.09298 113.208 0.568477C113.422 0.355396 113.757 0.317151 113.998 0.502914L114.678 1.02196C114.887 1.16947 114.931 1.2405 114.931 1.31699C114.931 1.44812 114.827 1.46451 114.755 1.4809L114.75 1.46997ZM118.776 2.2458C118.688 1.86881 118.606 1.60656 118.529 1.41534C118.452 1.22411 118.556 0.989174 118.765 0.929075L119.16 0.814339C119.341 0.759703 119.527 0.852584 119.604 1.01649C119.714 1.25689 119.801 1.4809 119.878 1.71583C119.982 2.03819 119.79 2.38239 119.461 2.46435L119.225 2.52445C119.022 2.57362 118.82 2.44796 118.776 2.25127V2.2458ZM119.017 9.52332C118.99 8.69832 118.924 7.64931 118.748 6.30526C118.704 5.97744 118.935 5.67695 119.264 5.6387L119.5 5.61138C119.812 5.57314 120.108 5.79168 120.152 6.10311C120.317 7.20675 120.399 8.23938 120.432 9.43044C120.438 9.70908 120.246 9.96041 119.971 10.0205L119.736 10.0751C119.374 10.1571 119.022 9.89485 119.011 9.52332H119.017ZM120.257 1.58471V1.30606C120.257 0.978247 120.52 0.715994 120.849 0.715994H123.24C123.569 0.715994 123.833 0.978247 123.833 1.30606V1.58471C123.833 1.91252 123.569 2.17478 123.24 2.17478H120.849C120.52 2.17478 120.257 1.91252 120.257 1.58471Z" fill="#FF0000"/>
<path d="M136.717 12.6975C134.49 11.2879 133.426 10.1405 132.559 8.52332C132.34 8.11902 131.753 8.10809 131.528 8.51239C130.376 10.594 129.115 11.8124 127.091 12.8614C126.871 12.9762 126.603 12.9379 126.422 12.774L125.956 12.3588C125.643 12.0801 125.72 11.572 126.098 11.3917C128.649 10.1679 129.872 8.51239 130.59 6.10295C130.705 5.72596 130.42 5.33804 130.025 5.33804H126.268C125.939 5.33804 125.676 5.07579 125.676 4.74797V4.3382C125.676 4.01039 125.939 3.74813 126.268 3.74813H130.426C130.744 3.74813 131.002 3.50227 131.018 3.18538C131.04 2.71551 131.04 2.28935 131.04 2.13091C131.04 1.61733 131.029 1.1857 131.013 0.814179C130.996 0.469972 131.287 0.191328 131.632 0.207719L132.943 0.278746C133.048 0.278746 133.196 0.295137 133.196 0.453581C133.196 0.573781 133.048 0.704907 132.916 0.819643C132.888 1.13107 132.888 0.939842 132.888 1.67196C132.888 1.77031 132.872 2.49151 132.85 3.14167C132.839 3.47495 133.108 3.74813 133.442 3.74813H137.792C138.121 3.74813 138.384 4.01039 138.384 4.3382V4.74797C138.384 5.07579 138.121 5.33804 137.792 5.33804H133.81C133.399 5.33804 133.113 5.74781 133.256 6.13573C134.062 8.29385 135.187 9.72532 137.896 11.1568C138.253 11.348 138.319 11.8288 138.022 12.1074L137.452 12.6374C137.254 12.8177 136.958 12.845 136.728 12.703L136.717 12.6975Z" fill="#FF0000"/>
<path d="M150.583 5.81847V5.2284C150.583 4.90058 150.32 4.63833 149.991 4.63833H142.416C142.087 4.63833 141.824 4.90058 141.824 5.2284V5.88949C141.824 6.21731 141.56 6.47956 141.231 6.47956H140.82C140.491 6.47956 140.228 6.21731 140.228 5.88949V3.8625C140.228 3.53468 140.491 3.27243 140.82 3.27243H147.27C147.451 3.27243 147.621 3.19047 147.731 3.05388C148.257 2.40372 148.746 1.72077 149.13 0.977716C149.267 0.715463 149.568 0.578873 149.848 0.671754L150.813 0.994107C150.901 1.02142 151.066 1.12523 151.066 1.24543C151.066 1.30553 151.038 1.31646 151.005 1.33285C150.962 1.37656 150.638 1.45305 150.578 1.50769C150.419 1.80272 150.259 2.0759 150.073 2.36547C149.821 2.75885 150.1 3.27243 150.567 3.27243H151.609C151.938 3.27243 152.201 3.53468 152.201 3.8625V5.81847C152.201 6.14628 151.938 6.40854 151.609 6.40854H151.164C150.835 6.40854 150.572 6.14628 150.572 5.81847H150.583ZM147.72 9.53918C147.391 9.53918 147.128 9.80143 147.128 10.1293V11.7629C147.128 12.79 146.272 13.0414 145.372 13.0414H144.835C144.594 13.0414 144.38 12.8993 144.286 12.6808L144.16 12.3748C143.99 11.9705 144.308 11.5334 144.747 11.5607C144.846 11.5662 144.928 11.5716 144.966 11.5716C145.219 11.5716 145.323 11.3531 145.323 11.1291V10.1293C145.323 9.80143 145.06 9.53918 144.731 9.53918H140.82C140.491 9.53918 140.228 9.27693 140.228 8.94911V8.68686C140.228 8.35904 140.491 8.09679 140.82 8.09679H144.731C145.06 8.09679 145.323 7.83454 145.323 7.50672V7.18437L145.745 7.25539C145.932 7.28818 146.124 7.22808 146.261 7.09149C146.425 6.92758 146.508 6.80738 146.596 6.68172H143.244C142.915 6.68172 142.652 6.41946 142.652 6.09165V5.90042C142.652 5.57261 142.915 5.31035 143.244 5.31035H149.141C149.267 5.31035 149.382 5.37592 149.453 5.47972L149.59 5.6928C149.689 5.84579 149.662 6.04794 149.524 6.16814C149.223 6.43585 148.855 6.74182 148.482 7.04778C148.055 7.39745 148.301 8.09133 148.855 8.09133H151.548C151.877 8.09133 152.141 8.35358 152.141 8.6814V8.94365C152.141 9.27146 151.877 9.53372 151.548 9.53372H147.725L147.72 9.53918ZM142.202 2.58401C142.032 2.28352 141.851 1.99941 141.632 1.69891C141.423 1.42027 141.495 1.02142 141.796 0.841126L142.153 0.628045C142.405 0.475064 142.734 0.5297 142.921 0.764635C143.167 1.0706 143.398 1.38749 143.617 1.75355C143.782 2.02673 143.699 2.38733 143.425 2.56216L143.036 2.80802C142.745 2.98832 142.367 2.88998 142.202 2.58948V2.58401ZM145.581 2.33269C145.378 1.96116 145.153 1.61149 144.879 1.24543C144.67 0.966789 144.747 0.567946 145.049 0.387647L145.378 0.190957C145.636 0.0379761 145.965 0.103539 146.151 0.338474C146.491 0.775562 146.76 1.17441 146.979 1.56232C147.144 1.84643 147.029 2.21249 146.738 2.36547L146.371 2.56216C146.085 2.71514 145.734 2.60587 145.575 2.32723L145.581 2.33269Z" fill="#FF0000"/>
<path d="M143.343 47.9102H12.4288C12.1016 47.9102 11.8364 48.1743 11.8364 48.5002V48.8991C11.8364 49.225 12.1016 49.4891 12.4288 49.4891H143.343C143.67 49.4891 143.935 49.225 143.935 48.8991V48.5002C143.935 48.1743 143.67 47.9102 143.343 47.9102Z" fill="#FF0000"/>
<path d="M9.01736 47.9102H1.26718C0.940018 47.9102 0.674805 48.1743 0.674805 48.5002V48.8991C0.674805 49.225 0.940018 49.4891 1.26718 49.4891H9.01736C9.34452 49.4891 9.60973 49.225 9.60973 48.8991V48.5002C9.60973 48.1743 9.34452 47.9102 9.01736 47.9102Z" fill="#FF0000"/>
<path d="M0 101.245V100.721C0 100.393 0.263276 100.131 0.592371 100.131H3.93269C4.2563 100.131 4.52506 99.8687 4.52506 99.5408V91.4984C4.52506 91.1542 4.82124 90.881 5.16131 90.9138L6.28023 91.0067C6.35702 91.0067 6.4722 91.0449 6.4722 91.1487C6.4722 91.2526 6.39541 91.2908 6.32959 91.329C6.2528 91.3673 6.13762 91.4219 6.13762 91.4875V94.0718C6.13762 94.3996 6.4009 94.6618 6.72999 94.6618H9.75767C10.0868 94.6618 10.35 94.9241 10.35 95.2519V95.5743C10.35 95.9021 10.0868 96.1643 9.75767 96.1643H6.72999C6.4009 96.1643 6.13762 96.4266 6.13762 96.7544V99.5518C6.13762 99.8796 6.4009 100.142 6.72999 100.142H10.6023C10.9314 100.142 11.1947 100.404 11.1947 100.732V100.989C11.1947 101.317 10.9314 101.579 10.6023 101.579H0.32361C0.142608 101.579 0 101.431 0 101.256V101.245Z" fill="#FF0000"/>
<path d="M15.4015 100.946C15.1931 100.984 14.1565 101.153 13.9096 101.192C13.7286 101.219 13.3118 101.295 13.235 101.383C13.1034 101.514 13.065 101.552 12.9882 101.552C12.9224 101.552 12.8346 101.525 12.8181 101.448L12.6481 100.678C12.5713 100.334 12.8236 99.995 13.1747 99.9677C13.6189 99.9295 13.9151 99.8967 14.2936 99.853C14.5898 99.8202 14.8201 99.5689 14.8201 99.2684V99.099C14.8201 98.7712 14.5569 98.5089 14.2278 98.5089H13.246C13.065 98.5089 12.9224 98.3614 12.9224 98.1866V97.7222C12.9224 97.5419 13.0704 97.3998 13.246 97.3998H14.491C14.672 97.3998 14.8146 97.2523 14.8146 97.0775V96.777C14.8146 96.5967 14.6666 96.4546 14.491 96.4546H13.5092C13.1801 96.4546 12.9169 96.1924 12.9169 95.8646V91.8379C12.9169 91.5101 13.1801 91.2478 13.5092 91.2478H17.3432C17.6723 91.2478 17.9356 91.5101 17.9356 91.8379V95.8646C17.9356 96.1924 17.6723 96.4546 17.3432 96.4546H16.2956C16.1146 96.4546 15.972 96.6021 15.972 96.777V97.0775C15.972 97.2578 16.1201 97.3998 16.2956 97.3998H17.6065C17.7875 97.3998 17.9301 97.5473 17.9301 97.7222V98.1866C17.9301 98.3669 17.782 98.5089 17.6065 98.5089H16.2956C16.1146 98.5089 15.972 98.6565 15.972 98.8313V99.2575C15.972 99.4541 16.153 99.6071 16.3504 99.5743C16.9647 99.4815 17.3761 99.4104 17.6942 99.3503C17.8972 99.3121 18.0837 99.4651 18.0837 99.6672V100.143C18.0837 100.296 17.974 100.427 17.8259 100.459C17.0141 100.629 16.2188 100.782 15.407 100.935L15.4015 100.946ZM14.491 92.3624H14.4142C14.2332 92.3624 14.0906 92.5099 14.0906 92.6847V92.947C14.0906 93.1273 14.2387 93.2694 14.4142 93.2694H14.491C14.672 93.2694 14.8146 93.1273 14.8146 92.947V92.6847C14.8146 92.5044 14.6666 92.3624 14.491 92.3624ZM14.491 94.3949H14.4142C14.2332 94.3949 14.0906 94.5424 14.0906 94.7172V95.0013C14.0906 95.1816 14.2387 95.3237 14.4142 95.3237H14.491C14.672 95.3237 14.8146 95.1761 14.8146 95.0013V94.7172C14.8146 94.5369 14.6666 94.3949 14.491 94.3949ZM16.4437 92.3624H16.3011C16.1201 92.3624 15.9774 92.5099 15.9774 92.6847V92.947C15.9774 93.1273 16.1255 93.2694 16.3011 93.2694H16.4437C16.6247 93.2694 16.7673 93.1273 16.7673 92.947V92.6847C16.7673 92.5044 16.6192 92.3624 16.4437 92.3624ZM16.4437 94.3949H16.3011C16.1201 94.3949 15.9774 94.5424 15.9774 94.7172V95.0013C15.9774 95.1816 16.1255 95.3237 16.3011 95.3237H16.4437C16.6247 95.3237 16.7673 95.1761 16.7673 95.0013V94.7172C16.7673 94.5369 16.6192 94.3949 16.4437 94.3949ZM22.4222 98.5909L22.0383 98.4215C21.8244 98.3232 21.583 98.4816 21.583 98.7166V100.662C21.583 101.514 21.2814 101.814 19.9869 101.918C19.7456 101.94 19.5152 101.814 19.4055 101.601L18.9064 100.634H19.6743C20.0089 100.634 20.1679 100.541 20.1679 100.219V97.0392C20.1679 96.7114 19.9046 96.4492 19.5756 96.4492H19.0161C18.687 96.4492 18.4237 96.1869 18.4237 95.8591V95.8099C18.4237 95.4821 18.687 95.2199 19.0161 95.2199H20.1734C20.5025 95.2199 20.6232 94.7882 20.3434 94.6189C20.1405 94.4987 19.9046 94.3675 19.6139 94.22C19.3068 94.067 19.1916 93.69 19.3616 93.395L19.3781 93.3622C19.5262 93.1109 19.8388 93.0016 20.1131 93.1109C20.2447 93.1655 20.3599 93.2147 20.4861 93.2748C20.6067 93.3294 20.7438 93.3076 20.8426 93.2202C20.9413 93.1328 21.0345 93.0453 21.1333 92.947C21.3362 92.7448 21.1936 92.3952 20.9029 92.3952H19.2574C18.9283 92.3952 18.6651 92.1329 18.6651 91.8051V91.7942C18.6651 91.4664 18.9283 91.2041 19.2574 91.2041H23.2834C23.3766 91.2041 23.4698 91.2478 23.5302 91.3188L23.7331 91.5592C23.8373 91.6849 23.8373 91.8652 23.7276 91.9854C23.3437 92.4116 22.7842 92.9962 22.0328 93.6627C21.8792 93.7993 21.8902 94.0506 22.0602 94.1708C22.2138 94.2856 22.3345 94.3785 22.4387 94.4713C22.5648 94.5806 22.5923 94.7609 22.499 94.8975L22.2796 95.2199H23.5247C23.6179 95.2199 23.7057 95.2581 23.7715 95.3291L24.0677 95.6679C24.15 95.7608 24.1719 95.8973 24.1226 96.0121C23.8264 96.6622 23.415 97.5091 22.8391 98.4543C22.7513 98.5964 22.5758 98.651 22.4277 98.5854L22.4222 98.5909ZM21.9066 96.4546C21.7256 96.4546 21.583 96.5967 21.583 96.777V98.0609C21.945 97.5801 22.148 97.2687 22.3235 96.93C22.4387 96.7169 22.2796 96.4546 22.0328 96.4546H21.9066Z" fill="#FF0000"/>
<path d="M31.2972 98.4704C31.1326 98.4868 31.0065 98.6289 31.0065 98.7928V99.8254C31.0065 100.486 31.16 100.629 31.7963 100.629H33.6557C34.4455 100.629 34.7472 100.426 34.9008 99.8145C34.994 99.4429 35.3889 99.2462 35.7345 99.4156L35.9813 99.5358C36.2281 99.656 36.3543 99.9347 36.2939 100.197C35.9593 101.694 35.3999 101.973 34.3303 101.973H30.99C29.9095 101.973 29.4542 101.366 29.4542 100.366V99.3227C29.4542 98.9731 29.1471 98.6999 28.8015 98.7381L25.9384 99.0441C25.6148 99.0769 25.3241 98.8419 25.2857 98.5196L25.2692 98.3447C25.2363 98.0224 25.4667 97.7328 25.7903 97.7L28.9277 97.3558C29.2294 97.3231 29.4542 97.0717 29.4542 96.7712V96.4653C29.4542 96.1156 29.1471 95.8424 28.8015 95.8807L26.1249 96.1648C25.8013 96.1975 25.5106 95.9681 25.4777 95.6457L25.4557 95.4709C25.4173 95.1431 25.6532 94.8535 25.9823 94.8207L28.9277 94.5093C29.2294 94.4765 29.4542 94.2252 29.4542 93.9247V93.6679C29.4542 93.3182 29.1471 93.045 28.796 93.0833C28.264 93.1434 27.8526 93.1816 26.6844 93.2855C26.454 93.3073 26.2346 93.1926 26.1194 92.9959L25.5051 91.9359C25.9713 91.9633 26.1523 91.9633 26.3607 91.9633C27.4303 91.9633 30.6719 91.783 33.3869 90.7121C33.6063 90.6247 33.8477 90.6684 34.0177 90.8323L34.7307 91.5207C34.8459 91.6354 35.005 91.7939 35.005 91.9086C35.005 92.0124 34.9282 92.0671 34.8349 92.0671C34.7198 92.0671 34.5717 92.007 34.4181 91.9523C34.3523 91.925 34.2755 91.925 34.2042 91.9523C33.1291 92.2856 32.4216 92.4659 31.4782 92.6517C31.2039 92.7063 31.001 92.9467 31.001 93.2308V93.657C31.001 94.0066 31.3026 94.2798 31.6537 94.2416L35.0927 93.881C35.4163 93.8482 35.707 94.0831 35.7399 94.4055L35.7838 94.8317C35.8058 95.012 35.6741 95.1704 35.4931 95.1868L31.522 95.6129C31.2204 95.6457 30.9955 95.8971 30.9955 96.1976V96.5035C30.9955 96.8532 31.3027 97.1264 31.6482 97.0881L35.6686 96.651C35.9923 96.6182 36.283 96.8477 36.3213 97.1755L36.3378 97.3504C36.3707 97.6727 36.1403 97.9623 35.8113 98.0005L31.2807 98.4868L31.2972 98.4704Z" fill="#FF0000"/>
<path d="M44.5648 97.9078L45.1353 101.137C45.1901 101.454 44.9817 101.754 44.6691 101.814L44.2851 101.891C43.956 101.956 43.6434 101.738 43.5885 101.41L43.062 98.323C43.0071 98.0116 42.7164 97.7985 42.4038 97.8367L39.2061 98.2465C38.8825 98.2902 38.5918 98.0607 38.5424 97.7439L38.504 97.4598C38.4601 97.1374 38.685 96.8369 39.0141 96.7932L42.1021 96.3889C42.4367 96.3452 42.6671 96.0338 42.6067 95.7059L42.5135 95.1541C42.4586 94.8427 42.1679 94.6296 41.8553 94.6679L39.771 94.941C39.4474 94.9847 39.1512 94.7553 39.1073 94.4384L39.0799 94.2253C39.036 93.903 39.2664 93.6025 39.59 93.5642L41.5756 93.3129C41.9101 93.2692 42.1405 92.9577 42.0857 92.6299L41.8882 91.5044C41.8279 91.1602 42.0857 90.8379 42.4367 90.816L43.1772 90.7723C43.4679 90.7614 43.5775 90.7996 43.5775 90.9034C43.5775 90.9581 43.3527 91.1985 43.3636 91.264L43.583 92.4715C43.6379 92.7774 43.9286 92.9905 44.2412 92.9523L46.0183 92.7228C46.3365 92.6791 46.6326 92.9031 46.6765 93.2255L46.7094 93.444C46.7588 93.7664 46.5284 94.0669 46.1993 94.1106L44.5374 94.3236C44.2028 94.3674 43.9725 94.6788 44.0328 95.0121L44.1315 95.553C44.1864 95.8644 44.4771 96.072 44.7897 96.0338L47.5322 95.6786C47.8558 95.6349 48.152 95.8644 48.1959 96.1867L48.2342 96.4818C48.2781 96.8041 48.0478 97.0992 47.7241 97.1374L44.85 97.5089C44.6581 97.5362 44.5319 97.7111 44.5648 97.8968V97.9078Z" fill="#FF0000"/>
<path d="M56.1162 98.5908L55.7871 98.4488C55.458 98.3067 55.3264 97.9133 55.5128 97.6074C55.5841 97.4872 55.6774 97.3342 55.8145 97.1047C56.0668 96.695 56.0942 96.6513 56.3466 96.2142L54.4926 96.5912C54.1745 96.6567 53.9661 96.9627 54.0319 97.2796L54.8108 101.23C54.8711 101.541 54.6737 101.842 54.3665 101.918L54.0977 101.978C53.7686 102.055 53.4395 101.842 53.3792 101.508L52.6717 97.5801C52.6113 97.2523 52.2932 97.0392 51.9696 97.1047L50.6038 97.3888C50.3241 97.4489 50.0389 97.296 49.9347 97.0337L49.9018 96.9572C49.7647 96.613 49.9731 96.2306 50.3406 96.1595L51.7612 95.8864C52.0793 95.8263 52.2877 95.5203 52.2329 95.2034L52.0135 94.0123C51.9531 93.6791 52.189 93.3622 52.529 93.3185L53.1708 93.2474C53.2366 93.231 53.5163 93.2201 53.5163 93.3676C53.5163 93.395 53.5163 93.4223 53.4066 93.5534C53.3792 93.5916 53.3134 93.6845 53.3244 93.7556L53.5657 94.9412C53.6315 95.258 53.9387 95.4602 54.2568 95.4001L56.8073 94.9138C56.8841 94.9029 56.9554 94.8647 57.0157 94.8264C57.2132 94.6898 57.4764 94.7226 57.6684 94.8647L57.9043 95.0395C58.1511 95.2198 58.2224 95.5585 58.0633 95.8153C57.6245 96.5474 57.2077 97.2577 56.5275 98.4488C56.4453 98.5963 56.2588 98.6564 56.1052 98.5908H56.1162Z" fill="#FF0000"/>
<path d="M62.1388 94.176C61.5848 93.7498 60.9595 93.3565 60.2629 92.9959C59.9558 92.8374 59.8571 92.444 60.0435 92.1545L60.2136 91.8922C60.3781 91.6409 60.6963 91.5535 60.9705 91.6846C61.5793 91.9742 62.2375 92.3402 62.8299 92.7609C63.0932 92.9467 63.1645 93.3127 62.978 93.5805L62.616 94.105C62.5063 94.2634 62.2869 94.2962 62.1388 94.176V94.176ZM66.3293 98.0169C64.3273 99.6287 63.0822 100.219 61.5464 100.874C61.3873 100.94 61.2667 101.077 61.2118 101.24C61.1844 101.328 61.146 101.393 61.0912 101.393C61.0089 101.393 60.8937 101.311 60.795 101.142L60.252 100.219C60.06 99.8855 60.2246 99.4593 60.5975 99.3555C61.6616 99.0605 63.1151 98.5141 64.8154 97.2411C66.4115 96.0555 67.5469 94.7224 68.2435 93.8154C68.4848 93.4985 68.9675 93.5149 69.1979 93.8427L69.4118 94.1487C69.5544 94.3563 69.5544 94.6349 69.4008 94.8371C68.8249 95.5911 67.8431 96.7931 66.3293 98.0114V98.0169Z" fill="#FF0000"/>
<path d="M74.4631 93.2527C74.4247 93.291 74.1834 93.4112 74.145 93.4658C74.0901 93.5205 73.8762 94.422 73.8268 94.5968C72.9767 97.4488 71.8632 99.1589 71.1831 100.099C71.024 100.317 70.7388 100.399 70.492 100.301L69.9874 100.104C69.6199 99.9621 69.4938 99.5086 69.7351 99.2026C71.1392 97.4488 72.0497 95.2306 72.494 93.1708C72.5653 92.8484 72.8725 92.6408 73.2016 92.7118L74.2272 92.9413C74.2656 92.9522 74.5454 93.0233 74.5454 93.1544C74.5454 93.209 74.507 93.2364 74.4631 93.2582V93.2527ZM79.3666 99.6561C78.8894 97.7602 77.8473 95.3508 76.7338 93.7554C76.5364 93.4713 76.6241 93.0834 76.9258 92.914L77.2768 92.7173C77.5456 92.5643 77.8802 92.6408 78.0557 92.8921C79.0924 94.3728 80.2606 96.662 80.9737 98.7983C81.0669 99.0824 80.9243 99.3884 80.6556 99.514L79.8328 99.8856C79.6408 99.973 79.4215 99.8637 79.3721 99.6616L79.3666 99.6561ZM80.3265 93.7554C79.6463 93.7554 79.0704 93.1817 79.0704 92.466C79.0704 91.7503 79.6299 91.1875 80.3265 91.1875C81.023 91.1875 81.5935 91.7721 81.5935 92.466C81.5935 93.1599 81.0176 93.7554 80.3265 93.7554ZM80.3265 91.7175C79.8986 91.7175 79.5915 92.0781 79.5915 92.4605C79.5915 92.8703 79.9261 93.22 80.3265 93.22C80.7269 93.22 81.0724 92.8867 81.0724 92.4605C81.0724 92.0617 80.7543 91.7175 80.3265 91.7175Z" fill="#FF0000"/>
<path d="M90.9125 100.819C89.9746 99.6884 89.1848 98.8798 88.3401 98.1586C88.0988 97.951 87.7368 97.9674 87.5229 98.1969C86.6343 99.1475 85.669 100.016 83.7218 101.011C83.4915 101.131 83.2062 101.082 83.0252 100.896L82.74 100.601C82.4548 100.311 82.548 99.8305 82.9155 99.6556C83.8425 99.2185 85.126 98.481 86.4149 97.1205C87.4241 96.0497 87.9836 95.0717 88.3291 94.3232C88.5102 93.9352 88.2195 93.4927 87.7916 93.4927H84.188C83.8589 93.4927 83.5957 93.2304 83.5957 92.9026V92.5366C83.5957 92.2087 83.8589 91.9465 84.188 91.9465H89.4316C89.5523 91.9465 89.6784 91.9192 89.7662 91.8427C89.9088 91.717 90.1172 91.7279 90.2434 91.8645L90.6712 92.3344C90.8742 92.5584 90.8851 92.9026 90.6712 93.1212C90.5451 93.2468 90.4354 93.3998 90.3586 93.5856C89.9582 94.5198 89.7168 95.1044 89.0916 96.1207C88.9325 96.3775 88.9928 96.7053 89.2287 96.891C90.2105 97.6723 91.11 98.5411 91.9711 99.448C92.185 99.672 92.185 100.027 91.9711 100.257L91.4226 100.841C91.2855 100.989 91.0497 100.978 90.918 100.825L90.9125 100.819Z" fill="#FF0000"/>
<path d="M181.145 101.655C181.03 101.754 180.86 101.754 180.739 101.655C180.119 101.169 179.127 100.328 178.172 98.8471C177.679 98.0712 177.344 97.35 177.114 96.7272C176.927 96.23 176.231 96.2191 176.022 96.7053C175.145 98.7815 173.987 100.399 172.347 101.628C172.144 101.781 171.859 101.781 171.651 101.628L171.3 101.382C170.971 101.153 170.965 100.666 171.289 100.432C172.002 99.9125 172.94 99.0984 173.768 97.798C174.804 96.1535 175.095 94.6455 175.216 93.7167C175.243 93.5255 175.43 93.3998 175.616 93.449L175.962 93.5364C176.176 93.5911 176.379 93.4217 176.362 93.1977C176.351 93.0775 176.346 92.9518 176.346 92.8098C176.34 92.6349 176.198 92.4929 176.022 92.4929H174.305C173.976 92.4929 173.713 92.2306 173.713 91.9028V91.5422C173.713 91.2144 173.976 90.9521 174.305 90.9521H177.256C177.596 90.9521 177.86 91.2308 177.849 91.5695C177.838 91.8045 177.838 92.0449 177.838 92.2579C177.838 93.6293 178.073 95.3886 179.033 97.1752C179.905 98.787 180.953 99.683 181.726 100.197C182.061 100.421 182.083 100.896 181.77 101.142L181.145 101.644V101.655Z" fill="#FF0000"/>
<path d="M189.746 96.5742C189.619 96.5742 189.51 96.6452 189.455 96.76C189.406 96.8638 189.351 96.9621 189.301 97.0441H193.42C193.761 97.0441 194.029 97.3282 194.013 97.6615C193.942 98.9017 193.706 100.371 193.322 100.978C192.993 101.491 192.483 101.705 191.698 101.759C191.44 101.781 191.194 101.633 191.1 101.393L191.073 101.322C190.919 100.951 190.442 100.83 190.14 101.098C189.916 101.3 189.652 101.513 189.329 101.737C189.219 101.814 189.071 101.814 188.961 101.737L188.583 101.486C188.391 101.36 188.385 101.082 188.572 100.956C189.789 100.12 190.711 98.9017 191.133 98.104H190.673C190.557 98.104 190.453 98.1641 190.393 98.2625C190.184 98.6231 189.811 99.224 189.208 99.7977C188.681 100.311 188.111 100.77 187.508 101.18C187.305 101.317 187.036 101.311 186.833 101.169L186.592 101C186.394 100.863 186.411 100.568 186.619 100.453C188.067 99.6557 189.005 98.4646 189.241 98.0985H188.791C188.698 98.0985 188.605 98.1422 188.544 98.2133C188.062 98.7651 187.656 99.1476 187.25 99.4754C187.047 99.6393 186.762 99.6502 186.548 99.5027L186.285 99.3279C186.098 99.2022 186.087 98.929 186.274 98.7979C186.482 98.6504 186.707 98.4701 187.02 98.2024C186.137 98.5411 184.705 99.0164 184.332 99.1093C183.849 99.224 183.8 99.2404 183.723 99.3279C183.581 99.4863 183.542 99.5355 183.476 99.5355C183.449 99.5355 183.4 99.5081 183.383 99.4426L183.24 98.5466C183.191 98.2406 183.389 97.951 183.696 97.88C183.844 97.8472 183.997 97.809 184.145 97.7707C184.409 97.7052 184.595 97.4702 184.595 97.197V95.2302C184.595 94.9023 184.332 94.6401 184.003 94.6401H183.926C183.597 94.6401 183.334 94.3778 183.334 94.05V93.8916C183.334 93.5638 183.597 93.3015 183.926 93.3015H184.003C184.332 93.3015 184.595 93.0392 184.595 92.7114V91.3619C184.595 91.0177 184.886 90.75 185.231 90.7773L186.104 90.8429C186.18 90.8538 186.274 90.892 186.274 90.9849C186.274 91.0778 186.208 91.127 186.131 91.1925C186.065 91.2308 185.961 91.2964 185.961 91.3838V92.7114C185.961 93.0392 186.224 93.3015 186.553 93.3015H186.723C187.052 93.3015 187.316 93.5638 187.316 93.8916V94.05C187.316 94.3778 187.052 94.6401 186.723 94.6401H186.553C186.224 94.6401 185.961 94.9023 185.961 95.2302V96.8528C185.961 97.0714 186.169 97.2244 186.378 97.1643C186.537 97.1151 186.69 97.0714 186.844 97.0168C187.052 96.9457 187.272 97.0987 187.272 97.3227V97.9456C187.574 97.6177 187.782 97.3555 187.957 97.055C188.089 96.8364 187.93 96.5633 187.678 96.5633H187.31C187.129 96.5633 186.987 96.4157 186.987 96.2409V95.8421C186.987 95.6618 187.135 95.5197 187.31 95.5197H193.87C194.051 95.5197 194.194 95.6672 194.194 95.8421V96.2409C194.194 96.4212 194.051 96.5633 193.87 96.5633H189.751L189.746 96.5742ZM187.936 94.4434V91.5422C187.936 91.2144 188.199 90.9521 188.528 90.9521H192.62C192.949 90.9521 193.212 91.2144 193.212 91.5422V94.4434C193.212 94.7712 192.949 95.0335 192.62 95.0335H188.528C188.199 95.0335 187.936 94.7712 187.936 94.4434ZM191.951 92.0394H189.197V92.5858H191.951V92.0394ZM191.951 93.5037H189.197V94.0609H191.951V93.5037ZM192.34 98.1095C192.104 98.6558 191.808 99.3005 190.848 100.377C191.227 100.453 191.495 100.453 191.55 100.453C191.89 100.453 192.093 100.377 192.241 100.093C192.554 99.4863 192.62 98.7979 192.658 98.1095H192.345H192.34Z" fill="#FF0000"/>
<path d="M204.933 96.0939V96.8151C204.933 97.1429 205.196 97.4051 205.526 97.4051H205.761C206.091 97.4051 206.354 97.6674 206.354 97.9952V98.0225C206.354 98.3503 206.091 98.6126 205.761 98.6126H196.755C196.426 98.6126 196.163 98.3503 196.163 98.0225V97.9952C196.163 97.6674 196.426 97.4051 196.755 97.4051H196.975C197.304 97.4051 197.567 97.1429 197.567 96.8151V96.3616C197.567 96.0338 197.304 95.7715 196.975 95.7715H196.273C195.943 95.7715 195.68 95.5093 195.68 95.1814V95.1159C195.68 94.7881 195.943 94.5258 196.273 94.5258H196.975C197.304 94.5258 197.567 94.2636 197.567 93.9357V93.0998C197.391 93.3129 197.232 93.4823 197.073 93.6352C196.892 93.8101 196.624 93.8483 196.404 93.7336L196.284 93.6735C195.916 93.4932 195.845 93.0015 196.146 92.7174C196.739 92.1601 197.21 91.5427 197.578 90.9417C197.721 90.7122 197.989 90.592 198.247 90.6685L199.273 90.9581C199.273 90.9581 199.492 91.0236 199.492 91.1384C199.492 91.1821 199.393 91.2422 199.191 91.3187C199.097 91.3569 199.02 91.3952 198.79 91.6957H205.63C205.959 91.6957 206.222 91.9579 206.222 92.2857V92.3131C206.222 92.6409 205.959 92.9031 205.63 92.9031H205.526C205.196 92.9031 204.933 93.1654 204.933 93.4932V93.9357C204.933 94.2636 205.196 94.5258 205.526 94.5258H206.2C206.529 94.5258 206.793 94.7881 206.793 95.1159V95.1814C206.793 95.5093 206.529 95.7715 206.2 95.7715H205.257C205.076 95.7715 204.933 95.919 204.933 96.0939V96.0939ZM198.565 100.028C198.384 100.039 198.373 100.039 198.318 100.104C197.836 100.738 197.38 101.202 197.046 101.508C196.821 101.716 196.475 101.721 196.251 101.519L196.135 101.421C195.872 101.186 195.872 100.776 196.135 100.547C196.536 100.197 196.876 99.8091 197.167 99.4157C197.359 99.1535 197.732 99.0988 197.995 99.2955L198.554 99.7162C198.669 99.8091 198.697 99.8583 198.697 99.9075C198.697 100 198.609 100.011 198.565 100.022V100.028ZM199.333 92.9086H199.212C199.031 92.9086 198.889 93.0506 198.889 93.2309V94.2035C198.889 94.3838 199.037 94.5258 199.212 94.5258H199.333C199.514 94.5258 199.657 94.3783 199.657 94.2035V93.2309C199.657 93.0506 199.509 92.9086 199.333 92.9086ZM199.333 95.7715H199.212C199.031 95.7715 198.889 95.919 198.889 96.0939V97.0773C198.889 97.2576 199.037 97.3997 199.212 97.3997H199.333C199.514 97.3997 199.657 97.2576 199.657 97.0773V96.0939C199.657 95.9136 199.509 95.7715 199.333 95.7715ZM199.569 101.459C199.547 100.978 199.503 100.563 199.388 100.126C199.306 99.8091 199.492 99.4813 199.81 99.4048H199.838C200.128 99.3229 200.436 99.4758 200.54 99.7599C200.677 100.131 200.792 100.563 200.841 101.033C200.874 101.333 200.671 101.612 200.375 101.678L199.964 101.765C199.766 101.809 199.58 101.661 199.574 101.465L199.569 101.459ZM201.319 92.9086H201.198C201.017 92.9086 200.874 93.0506 200.874 93.2309V94.2035C200.874 94.3838 201.022 94.5258 201.198 94.5258H201.319C201.5 94.5258 201.642 94.3783 201.642 94.2035V93.2309C201.642 93.0506 201.494 92.9086 201.319 92.9086ZM201.319 95.7715H201.198C201.017 95.7715 200.874 95.919 200.874 96.0939V97.0773C200.874 97.2576 201.022 97.3997 201.198 97.3997H201.319C201.5 97.3997 201.642 97.2576 201.642 97.0773V96.0939C201.642 95.9136 201.494 95.7715 201.319 95.7715ZM202.196 101.317C202.114 100.885 201.982 100.498 201.862 100.181C201.741 99.8638 201.917 99.5195 202.24 99.4157L202.268 99.4048C202.536 99.3174 202.833 99.4321 202.964 99.6835C203.112 99.9676 203.282 100.334 203.397 100.743C203.485 101.049 203.288 101.366 202.981 101.454L202.597 101.557C202.416 101.607 202.229 101.497 202.191 101.312L202.196 101.317ZM203.321 92.9086H203.162C202.981 92.9086 202.838 93.0506 202.838 93.2309V94.2035C202.838 94.3838 202.986 94.5258 203.162 94.5258H203.321C203.502 94.5258 203.644 94.3783 203.644 94.2035V93.2309C203.644 93.0506 203.496 92.9086 203.321 92.9086ZM203.321 95.7715H203.162C202.981 95.7715 202.838 95.919 202.838 96.0939V97.0773C202.838 97.2576 202.986 97.3997 203.162 97.3997H203.321C203.502 97.3997 203.644 97.2576 203.644 97.0773V96.0939C203.644 95.9136 203.496 95.7715 203.321 95.7715ZM205.388 101.508C205.01 100.973 204.681 100.585 204.396 100.274C204.165 100.028 204.193 99.6452 204.451 99.4267L204.544 99.3447C204.769 99.1535 205.109 99.1589 205.328 99.3556C205.679 99.6725 206.003 100.011 206.332 100.427C206.529 100.678 206.491 101.038 206.25 101.246L205.871 101.563C205.723 101.689 205.504 101.656 205.394 101.497L205.388 101.508Z" fill="#FF0000"/>
<path d="M211.987 96.3346C212.288 96.728 212.639 97.0831 212.925 97.3453C213.144 97.553 213.177 97.8862 212.996 98.1266L212.793 98.3998C212.678 98.5583 212.447 98.5746 212.305 98.4381C212.266 98.3998 212.228 98.367 212.195 98.3288C211.992 98.1212 211.636 98.2632 211.636 98.5528V101.252C211.636 101.574 211.372 101.842 211.043 101.842H210.89C210.561 101.842 210.297 101.58 210.297 101.252V99.6892C210.297 99.3723 209.886 99.2467 209.705 99.5089C209.623 99.6291 209.535 99.7493 209.447 99.8641C209.266 100.099 208.937 100.159 208.679 100.012L208.531 99.9242C208.219 99.7439 208.142 99.3286 208.372 99.05C209.025 98.2578 209.513 97.4 209.815 96.5914C209.957 96.2144 209.661 95.8101 209.255 95.8101H208.795C208.465 95.8101 208.202 95.5478 208.202 95.22V95.2091C208.202 94.8867 208.465 94.619 208.795 94.619H209.705C210.034 94.619 210.297 94.3568 210.297 94.0289V91.39C210.297 91.0458 210.594 90.7726 210.939 90.8054L211.466 90.8491C211.817 90.8764 211.872 90.9529 211.872 91.0294C211.872 91.0786 211.844 91.1332 211.767 91.1879C211.663 91.2643 211.636 91.2807 211.636 91.3408V94.0289C211.636 94.3568 211.899 94.619 212.228 94.619H212.815C213.144 94.619 213.407 94.8813 213.407 95.2091V95.22C213.407 95.5478 213.144 95.8101 212.815 95.8101H212.239C211.97 95.8101 211.817 96.1215 211.981 96.3346H211.987ZM208.586 93.4443C208.504 93.1602 208.411 92.8816 208.306 92.6357C208.186 92.3407 208.339 91.9965 208.635 91.8763L208.751 91.8326C209.052 91.7124 209.409 91.8544 209.524 92.1604C209.65 92.4882 209.749 92.816 209.82 93.1001C209.902 93.3952 209.738 93.7011 209.447 93.8049L209.359 93.8377C209.036 93.9524 208.674 93.7776 208.581 93.4498L208.586 93.4443ZM213.89 92.144C213.758 92.2095 213.747 92.2205 213.736 92.2587C213.709 92.3571 213.561 92.9526 213.331 93.5372C213.21 93.8432 212.853 93.9852 212.552 93.8541C212.277 93.7339 212.135 93.4061 212.228 93.122C212.338 92.7887 212.415 92.4609 212.475 92.1658C212.541 91.838 212.859 91.6359 213.182 91.7069L213.671 91.8162C213.945 91.8817 214.022 91.92 214.022 91.9965C214.022 92.062 213.917 92.1276 213.89 92.1385V92.144ZM218.124 98.6457V101.225C218.124 101.552 217.861 101.815 217.532 101.815H217.313C216.984 101.815 216.72 101.552 216.72 101.225V99.5035C216.72 99.121 216.353 98.8369 215.98 98.9352L214.109 99.416C213.764 99.5035 213.418 99.274 213.374 98.9189V98.8697C213.331 98.5747 213.517 98.3015 213.808 98.225L216.281 97.5857C216.545 97.5202 216.726 97.2852 216.726 97.0175V91.39C216.726 91.0458 217.027 90.7726 217.373 90.8054L218.119 90.8764C218.377 90.9038 218.432 90.9529 218.432 91.0349C218.432 91.084 218.393 91.1114 218.338 91.1496C218.207 91.2425 218.13 91.2917 218.13 91.3408V96.7061C218.13 96.9192 218.333 97.0722 218.536 97.0175L218.837 96.941C219.035 96.8919 219.232 97.0285 219.243 97.2361L219.265 97.6131C219.282 97.8972 219.095 98.1485 218.821 98.2195L218.371 98.3342C218.229 98.3725 218.13 98.4982 218.13 98.6457H218.124ZM215.141 96.8427C214.91 96.5422 214.641 96.2472 214.362 95.9849C214.12 95.7554 214.109 95.3839 214.34 95.1435L214.373 95.1107C214.598 94.8813 214.96 94.8649 215.195 95.0834C215.442 95.3129 215.695 95.5697 215.914 95.8374C216.106 96.0723 216.089 96.4111 215.876 96.6241L215.629 96.8755C215.492 97.0121 215.261 97.0011 215.141 96.8481V96.8427ZM215.223 93.723C215.014 93.4607 214.79 93.2312 214.576 93.04C214.323 92.816 214.307 92.4336 214.543 92.1932L214.587 92.1495C214.811 91.92 215.173 91.9145 215.415 92.1276C215.601 92.2915 215.793 92.4827 215.974 92.7013C216.172 92.9307 216.161 93.2804 215.947 93.4935L215.706 93.7448C215.568 93.8814 215.344 93.8759 215.223 93.723V93.723Z" fill="#FF0000"/>
<path d="M111.031 98.6944V99.6997C111.031 100.027 110.768 100.29 110.439 100.29H109.666V99.9401H107.592C107.263 99.9401 107 100.202 107 100.53V100.874C107 101.563 106.726 101.901 105.261 101.962C105.02 101.973 104.795 101.836 104.691 101.617L104.439 101.066C104.334 100.842 104.515 100.59 104.762 100.607C104.905 100.618 105.031 100.628 105.13 100.628C105.338 100.628 105.53 100.563 105.53 100.328V99.9401H101.894C101.713 99.9401 101.57 99.798 101.57 99.6177V99.2571C101.57 99.0768 101.718 98.9348 101.894 98.9348H105.53V98.3775H101.137C100.956 98.3775 100.813 98.2299 100.813 98.0551V97.6945C100.813 97.5142 100.956 97.3722 101.137 97.3722H105.53V96.8804H101.894C101.713 96.8804 101.57 96.7329 101.57 96.5581V96.1975C101.57 96.0172 101.718 95.8751 101.894 95.8751H105.53V95.3834H102.925C102.596 95.3834 102.332 95.1212 102.332 94.7933V93.5913C102.332 93.2635 102.596 93.0013 102.925 93.0013H105.53V92.5478H101.137C100.956 92.5478 100.813 92.4003 100.813 92.2254V91.761C100.813 91.5807 100.956 91.4387 101.137 91.4387H105.206C105.387 91.4387 105.53 91.2966 105.53 91.1163V90.9524C105.53 90.7557 105.7 90.6082 105.898 90.6301L107.066 90.7776C107.132 90.7885 107.225 90.8158 107.225 90.8923C107.225 90.9688 107.197 90.9852 107.082 91.0726C107.055 91.0836 107.005 91.1218 107.005 91.1874V91.4332H111.388C111.569 91.4332 111.712 91.5807 111.712 91.7556V92.22C111.712 92.4003 111.569 92.5423 111.388 92.5423H107.005V92.9958H109.6C109.929 92.9958 110.192 93.2581 110.192 93.5859V94.7879C110.192 95.1157 109.929 95.3779 109.6 95.3779H107.005V95.8697H110.445C110.768 95.8697 111.037 96.1319 111.037 96.4597V97.0498C111.037 97.2301 111.179 97.3722 111.36 97.3722H111.437C111.618 97.3722 111.761 97.5142 111.761 97.6945V98.0551C111.761 98.2354 111.618 98.3775 111.437 98.3775H111.36C111.179 98.3775 111.037 98.5195 111.037 98.6998L111.031 98.6944ZM105.536 93.8645H103.665V94.4874H105.536V93.8645ZM108.848 93.8645H107V94.4874H108.848V93.8645ZM109.666 96.8695H107V97.3612H109.666V96.8695ZM109.666 98.372H107V98.9293H109.666V98.372Z" fill="#FF0000"/>
<path d="M113.34 93.2197V92.941C113.34 92.6132 113.604 92.3509 113.933 92.3509H115.474C115.743 92.3509 115.896 92.045 115.737 91.8319C115.688 91.7663 115.633 91.6953 115.573 91.6243C115.441 91.4604 115.502 91.2145 115.699 91.1271L116.308 90.8594C116.555 90.7501 116.845 90.8211 117.01 91.0342C117.202 91.2746 117.454 91.6188 117.783 92.1105L117.301 92.3455H119.527C119.73 92.3455 119.917 92.2417 120.027 92.0778C120.224 91.7773 120.361 91.5369 120.526 91.1927C120.646 90.9359 120.948 90.8047 121.222 90.8867L122.38 91.2254C122.429 91.2364 122.473 91.3019 122.473 91.3566C122.473 91.4112 122.445 91.4494 122.369 91.4713C122.341 91.4822 122.171 91.5205 122.133 91.5478C122.094 91.5751 121.705 92.2362 121.612 92.3509H123.981C124.31 92.3509 124.574 92.6132 124.574 92.941V92.9519C124.574 93.2798 124.31 93.542 123.981 93.542H113.659C113.478 93.542 113.335 93.3945 113.335 93.2197H113.34ZM116.598 101.639L116.313 100.874C116.231 100.65 116.407 100.421 116.642 100.437C116.856 100.453 116.988 100.453 116.988 100.453C117.246 100.453 117.355 100.35 117.355 100.131V99.776C117.355 99.4482 117.092 99.1859 116.763 99.1859H116.017C115.688 99.1859 115.425 99.4482 115.425 99.776V101.213C115.425 101.541 115.161 101.803 114.832 101.803H114.64C114.311 101.803 114.048 101.541 114.048 101.213V94.9352C114.048 94.6074 114.311 94.3452 114.64 94.3452H118.162C118.491 94.3452 118.754 94.6074 118.754 94.9352V100.443C118.754 101.584 117.931 101.825 116.906 101.847C116.769 101.847 116.642 101.765 116.593 101.634L116.598 101.639ZM117.032 95.4871H115.759C115.578 95.4871 115.436 95.6291 115.436 95.8094V95.875C115.436 96.0553 115.584 96.1973 115.759 96.1973H117.032C117.213 96.1973 117.355 96.0498 117.355 95.875V95.8094C117.355 95.6291 117.207 95.4871 117.032 95.4871ZM117.032 97.3392H115.759C115.578 97.3392 115.436 97.4867 115.436 97.6616V97.7271C115.436 97.9074 115.584 98.0495 115.759 98.0495H117.032C117.213 98.0495 117.355 97.9074 117.355 97.7271V97.6616C117.355 97.4813 117.207 97.3392 117.032 97.3392ZM121.332 94.7112C121.151 94.8424 121.124 94.8533 121.124 94.9024V98.9619C121.124 99.2897 120.86 99.552 120.531 99.552H120.312C119.983 99.552 119.719 99.2897 119.719 98.9619V94.9516C119.719 94.6129 120.005 94.3452 120.339 94.3616L121.261 94.4107C121.365 94.4107 121.431 94.4872 121.431 94.5528C121.431 94.6293 121.365 94.6839 121.326 94.7058L121.332 94.7112ZM124.058 94.5145C123.965 94.591 123.877 94.6948 123.877 94.7331V100.328C123.877 101.486 123.4 101.716 122.094 101.759C121.859 101.765 121.634 101.634 121.535 101.421L121.008 100.317C121.283 100.344 121.513 100.372 121.787 100.372C122.242 100.372 122.374 100.268 122.374 99.918V94.7659C122.374 94.4216 122.665 94.1539 123.01 94.1813L123.987 94.2523C124.08 94.2632 124.146 94.3178 124.146 94.367C124.146 94.4326 124.096 94.4818 124.069 94.52L124.058 94.5145Z" fill="#FF0000"/>
<path d="M134.008 98.6559L133.558 98.3717C133.262 98.1805 133.196 97.7762 133.421 97.503C133.596 97.29 133.761 97.0769 133.948 96.8365C134.244 96.4486 133.964 95.8913 133.476 95.8913H132.763C132.434 95.8913 132.17 96.1535 132.17 96.4813V100.191C132.17 101.705 131.677 101.858 129.938 101.885C129.691 101.885 129.461 101.737 129.373 101.508L129.296 101.317C129.137 100.907 129.472 100.481 129.911 100.519C129.987 100.524 130.064 100.53 130.13 100.53C130.519 100.53 130.624 100.246 130.624 99.8797V96.4813C130.624 96.1535 130.36 95.8913 130.031 95.8913H126.433C126.104 95.8913 125.841 95.629 125.841 95.3012V95.0663C125.841 94.7384 126.104 94.4762 126.433 94.4762H130.574C130.229 94.285 129.922 94.1211 129.433 93.9189C129.115 93.7823 128.984 93.3999 129.148 93.0939L129.236 92.93C129.384 92.6568 129.719 92.5475 130.004 92.6787C130.267 92.8043 130.629 92.9737 131.216 93.2523C131.32 93.3015 131.452 93.2961 131.545 93.225C131.666 93.1431 131.797 93.0447 131.957 92.9081C132.187 92.7115 132.044 92.3399 131.748 92.3399H127.536C127.207 92.3399 126.943 92.0777 126.943 91.7499V91.5696C126.943 91.2417 127.207 90.9795 127.536 90.9795H135.16C135.258 90.9795 135.346 91.0232 135.412 91.0997L135.697 91.4439C135.812 91.5859 135.79 91.799 135.642 91.9083C134.913 92.4492 134.024 93.0994 132.691 93.9681C132.746 93.9954 132.966 94.1101 133.015 94.1375L132.713 94.4762H136.246C136.333 94.4762 136.416 94.509 136.476 94.5691L136.756 94.8477C136.866 94.957 136.882 95.1264 136.8 95.2575C135.604 97.0987 134.99 97.9073 134.436 98.5903C134.331 98.7214 134.15 98.7487 134.008 98.6613V98.6559Z" fill="#FF0000"/>
<path d="M139.8 98.388C139.75 99.2512 139.69 99.8522 139.471 100.535C139.377 100.836 139.059 101.005 138.752 100.929L138.494 100.858C138.313 100.808 138.215 100.623 138.27 100.448C138.429 99.9451 138.566 99.355 138.653 98.4863C138.686 98.1421 139.004 97.8962 139.35 97.9618L139.772 98.0383C139.849 98.0492 140.008 98.0874 140.008 98.1694C140.008 98.235 139.942 98.2841 139.8 98.388V98.388ZM142.493 97.2351C142.465 97.1204 142.444 96.951 142.389 96.7052C142.235 96.7434 142.109 96.7707 142.005 96.7926C141.731 96.8472 141.533 97.0876 141.533 97.3717V101.273C141.533 101.601 141.27 101.863 140.941 101.863H140.798C140.474 101.863 140.206 101.601 140.206 101.273V97.7159C140.206 97.3663 139.899 97.0931 139.548 97.1313C139.323 97.1532 139.136 97.175 139.048 97.1914C138.955 97.1914 138.867 97.2023 138.763 97.3225C138.659 97.4264 138.621 97.4646 138.555 97.4646C138.516 97.4646 138.451 97.4154 138.44 97.3499L138.297 96.5358C138.237 96.1807 138.505 95.8528 138.867 95.8474C139.043 95.8474 139.213 95.8419 139.421 95.831C139.509 95.831 139.597 95.7873 139.657 95.7217C139.729 95.6398 139.811 95.5469 139.893 95.4431C139.997 95.3174 139.992 95.1316 139.882 95.0114C139.482 94.5853 139.114 94.2739 138.752 94.0061C138.489 93.8094 138.429 93.4434 138.626 93.1811L139.076 92.5747C139.284 92.7167 139.399 92.8096 139.52 92.9134C139.931 92.3233 140.2 91.8371 140.447 91.3126C140.59 91.0012 140.963 90.8755 141.264 91.0394L141.857 91.3563C141.922 91.3945 141.95 91.4492 141.95 91.471C141.95 91.5093 141.922 91.5475 141.873 91.5748C141.703 91.6513 141.665 91.6786 141.637 91.7169C141.05 92.602 140.902 92.826 140.469 93.3833C140.37 93.509 140.381 93.6893 140.491 93.804C140.518 93.8313 140.546 93.8586 140.568 93.8859C140.71 94.0389 140.957 94.0225 141.078 93.8532C141.467 93.3068 141.731 92.908 141.944 92.5583C142.114 92.2851 142.476 92.1977 142.751 92.3671L143.425 92.7714C143.502 92.8096 143.519 92.8861 143.519 92.9134C143.519 93.0282 143.387 93.0555 143.376 93.0555C143.168 93.0664 143.157 93.0937 142.97 93.3287C142.306 94.1701 141.604 94.9841 140.88 95.76C141.188 95.7436 141.418 95.7217 141.747 95.6889C141.944 95.6671 142.082 95.4704 142.027 95.2792L142.01 95.2191C141.961 95.0442 142.071 94.8585 142.246 94.8147L142.548 94.7437C142.844 94.6727 143.151 94.8421 143.244 95.1316C143.376 95.5469 143.486 95.9512 143.573 96.3719C143.634 96.6724 143.447 96.962 143.151 97.0494L142.487 97.2406L142.493 97.2351ZM142.509 100.054C142.323 99.355 142.213 98.8032 142.125 98.1749C142.103 98.0055 142.213 97.8525 142.383 97.8143L142.806 97.7269C142.987 97.6886 143.162 97.8143 143.195 98C143.316 98.7485 143.464 99.3386 143.59 99.7648C143.645 99.9396 143.541 100.12 143.36 100.169L142.91 100.284C142.74 100.328 142.559 100.224 142.515 100.054H142.509ZM148.636 100.584C148.274 101.617 147.572 101.786 146.727 101.786H146.376C146.25 101.786 146.135 101.715 146.08 101.601L145.883 101.185C145.696 100.792 145.992 100.333 146.426 100.349C146.486 100.349 146.546 100.349 146.607 100.349C147.023 100.349 147.281 100.246 147.528 99.4315C147.786 98.5792 148.022 96.8581 148.022 94.8748V94.5853C148.022 94.2575 147.758 93.9952 147.429 93.9952H145.405C145.197 93.9952 145.005 94.1045 144.901 94.2793C144.747 94.5306 144.616 94.7383 144.484 94.9295C144.286 95.2027 143.903 95.2518 143.634 95.0388L143.519 94.9459C143.272 94.7492 143.228 94.3995 143.409 94.1427C143.842 93.5308 144.303 92.7331 144.808 91.3399C144.917 91.0394 145.246 90.881 145.548 90.9793L146.371 91.2525C146.437 91.2798 146.502 91.318 146.502 91.3836C146.502 91.4492 146.464 91.4874 146.409 91.5147C146.217 91.6076 146.201 91.6185 146.135 91.7879C146.075 91.9518 146.031 92.0666 145.992 92.1649C145.91 92.378 146.069 92.6075 146.294 92.6075H148.762C149.091 92.6075 149.355 92.8697 149.355 93.1975V95.0278C149.355 96.8636 149.097 99.2457 148.614 100.595L148.636 100.584ZM145.455 98.0929C145.224 97.3772 145.005 96.8472 144.808 96.4156C144.665 96.1096 144.808 95.749 145.126 95.6288L145.197 95.6015C145.488 95.4868 145.822 95.6124 145.948 95.8965C146.146 96.3227 146.343 96.8199 146.546 97.4646C146.645 97.7706 146.48 98.1038 146.168 98.2077L145.861 98.3115C145.691 98.3716 145.504 98.2732 145.449 98.0984L145.455 98.0929Z" fill="#FF0000"/>
<path d="M155.196 95.8205V95.979C155.196 96.1593 155.344 96.3013 155.52 96.3013H156.902C157.231 96.3013 157.494 96.5636 157.494 96.8914V100.044C157.494 100.721 157.017 100.907 156.321 101.038C156.057 101.087 155.794 100.956 155.679 100.716L155.503 100.355C155.421 100.18 155.503 99.9674 155.679 99.9073C155.931 99.8199 156.118 99.6068 156.118 99.3391V97.8694C156.118 97.6891 155.969 97.547 155.794 97.547H155.52C155.339 97.547 155.196 97.6945 155.196 97.8694V101.295C155.196 101.623 154.933 101.885 154.604 101.885H154.423C154.099 101.885 153.83 101.623 153.83 101.295V97.8694C153.83 97.6891 153.688 97.547 153.507 97.547H153.243C153.062 97.547 152.92 97.6945 152.92 97.8694V100.645C152.92 100.973 152.657 101.235 152.327 101.235H152.146C151.823 101.235 151.554 100.973 151.554 100.645V96.8914C151.554 96.5636 151.817 96.3013 152.146 96.3013H153.507C153.688 96.3013 153.83 96.1593 153.83 95.979V95.8205C153.83 95.6402 153.688 95.4982 153.507 95.4982H151.68C151.351 95.4982 151.088 95.2359 151.088 94.9081V94.8316C151.088 94.5038 151.351 94.2415 151.68 94.2415H153.507C153.688 94.2415 153.83 94.094 153.83 93.9192V93.6733C153.83 93.493 153.688 93.351 153.507 93.351H152.772C152.646 93.351 152.53 93.422 152.476 93.5422C152.448 93.6023 152.415 93.6733 152.371 93.7607C152.3 93.9028 152.141 93.9684 151.993 93.9301L151.636 93.8263C151.274 93.7225 151.088 93.3073 151.269 92.9794C151.45 92.6516 151.664 92.2036 151.856 91.6682C151.955 91.395 152.24 91.242 152.525 91.2967L153.232 91.4387C153.271 91.4496 153.468 91.4933 153.468 91.6081C153.468 91.7392 153.326 91.7392 153.183 91.7884L153.068 92.0998H153.512C153.693 92.0998 153.836 91.9577 153.836 91.7775V91.313C153.836 90.9798 154.116 90.7121 154.45 90.723L155.136 90.7503C155.213 90.7503 155.432 90.7885 155.432 90.8923C155.432 90.9962 155.317 91.0727 155.196 91.1765V91.5043C155.196 91.8321 155.459 92.0943 155.788 92.0943H156.814C157.143 92.0943 157.407 92.3566 157.407 92.6844V92.7609C157.407 93.0887 157.143 93.351 156.814 93.351H155.52C155.339 93.351 155.196 93.493 155.196 93.6733V93.9192C155.196 94.0995 155.339 94.2415 155.52 94.2415H157.269C157.598 94.2415 157.862 94.5038 157.862 94.8316V94.9081C157.862 95.2359 157.598 95.4982 157.269 95.4982H155.52C155.339 95.4982 155.196 95.6402 155.196 95.8205V95.8205ZM159.573 92.7773V98.7108C159.573 99.0386 159.31 99.3008 158.981 99.3008H158.866C158.536 99.3008 158.273 99.0386 158.273 98.7108V92.7609C158.273 92.4276 158.553 92.1599 158.882 92.1708L159.425 92.1872C159.518 92.1872 159.803 92.1981 159.803 92.3402C159.803 92.4058 159.754 92.4549 159.677 92.5314C159.611 92.5915 159.568 92.6789 159.568 92.7718L159.573 92.7773ZM162.003 91.171C161.91 91.2639 161.888 91.2857 161.888 91.3513V100.53C161.888 101.705 161.361 101.858 160.154 101.902C159.924 101.912 159.705 101.787 159.6 101.585L159.304 101.027C159.189 100.809 159.354 100.547 159.606 100.552C159.853 100.563 160.023 100.568 160.067 100.568C160.209 100.568 160.538 100.568 160.538 100.17V91.3568C160.538 91.0126 160.835 90.7448 161.175 90.7721L161.849 90.8268C161.926 90.8268 162.135 90.865 162.135 90.9798C162.135 91.0344 162.085 91.0945 162.003 91.1765V91.171Z" fill="#FF0000"/>
<path d="M49.9347 79.8772H51.9641C52.2932 79.8772 52.5565 79.6149 52.5565 79.2871V70.7147C52.5565 70.3869 52.2932 70.1247 51.9641 70.1247H49.9786C49.6495 70.1247 49.3862 69.8624 49.3862 69.5346V68.726C49.3862 68.4255 49.6166 68.1742 49.9183 68.1414C51.1908 68.0048 52.2219 67.3546 52.4907 66.0871C52.551 65.8139 52.7869 65.6172 53.0666 65.6172H54.6463C54.9754 65.6172 55.2386 65.8794 55.2386 66.2073V79.2762C55.2386 79.604 55.5019 79.8663 55.831 79.8663H57.8056C58.1347 79.8663 58.3979 80.1285 58.3979 80.4563V81.8004C58.3979 82.1282 58.1347 82.3904 57.8056 82.3904H49.9841C49.655 82.3904 49.3917 82.1282 49.3917 81.8004V80.4126C49.3917 80.1121 49.6385 79.8663 49.9402 79.8663L49.9347 79.8772Z" fill="#FF0000"/>
<path d="M62.4898 79.3809H64.3383C64.6673 79.3809 64.9306 79.6431 64.9306 79.9709V81.8122C64.9306 82.14 64.6673 82.4022 64.3383 82.4022H62.4898C62.1607 82.4022 61.8975 82.14 61.8975 81.8122V79.9709C61.8975 79.6431 62.1607 79.3809 62.4898 79.3809Z" fill="#FF0000"/>
<path d="M69.4502 79.8772H71.4797C71.8088 79.8772 72.072 79.6149 72.072 79.2871V70.7147C72.072 70.3869 71.8088 70.1247 71.4797 70.1247H69.4996C69.1705 70.1247 68.9072 69.8624 68.9072 69.5346V68.726C68.9072 68.4255 69.1376 68.1742 69.4393 68.1414C70.7118 68.0048 71.7429 67.3546 72.0117 66.0871C72.072 65.8139 72.3079 65.6172 72.5876 65.6172H74.1673C74.4964 65.6172 74.7596 65.8794 74.7596 66.2073V79.2762C74.7596 79.604 75.0229 79.8663 75.352 79.8663H77.3266C77.6557 79.8663 77.9189 80.1285 77.9189 80.4563V81.8004C77.9189 82.1282 77.6557 82.3904 77.3266 82.3904H69.5051C69.176 82.3904 68.9127 82.1282 68.9127 81.8004V80.4126C68.9127 80.1121 69.1595 79.8663 69.4557 79.8663L69.4502 79.8772Z" fill="#FF0000"/>
<path d="M88.8394 77.195V77.9763C88.8394 80.1454 87.715 82.7297 84.2979 82.7297C80.8808 82.7297 79.7563 80.1454 79.7563 77.9763V77.195C79.7563 75.2773 80.4858 74.2119 81.0288 73.6874C81.2647 73.4579 81.2866 73.0919 81.0618 72.8515C80.4145 72.174 79.8551 71.0977 79.8551 69.77C79.8551 67.4207 81.3689 65.3008 84.2979 65.3008C87.2268 65.3008 88.7406 67.4207 88.7406 69.77C88.7406 71.0977 88.1702 72.174 87.5285 72.8515C87.3036 73.0919 87.3255 73.4579 87.5614 73.6874C88.1044 74.2065 88.8394 75.2773 88.8394 77.195ZM86.2944 77.9763V77.195C86.2944 75.6325 85.4661 74.8293 84.2924 74.8293C83.1186 74.8293 82.2904 75.6325 82.2904 77.195V77.9763C82.2904 79.5389 83.1186 80.3421 84.2924 80.3421C85.4661 80.3421 86.2944 79.5389 86.2944 77.9763ZM82.3946 69.8684C82.3946 71.2889 83.1241 72.0483 84.2979 72.0483C85.4716 72.0483 86.2011 71.2889 86.2011 69.8684C86.2011 68.4478 85.4716 67.6884 84.2979 67.6884C83.1241 67.6884 82.3946 68.4478 82.3946 69.8684V69.8684Z" fill="#FF0000"/>
<path d="M86.9304 80.8502C86.8645 80.7846 86.8152 80.7081 86.7823 80.6207C85.4275 76.9109 88.1206 73.5508 91.5486 73.5508C94.3624 73.5508 96.677 75.8018 96.677 78.6593C96.677 82.1013 93.2709 84.7402 89.6289 83.418C89.5467 83.3853 89.4699 83.3361 89.404 83.276L86.9304 80.8502V80.8502Z" fill="#FF0000"/>
<path d="M88.444 81.2711L88.1588 81.1017C87.9833 81.0034 87.9613 80.7575 88.1149 80.6319C89.0583 79.8506 89.5081 79.0256 89.722 78.3153C89.8317 77.9438 89.541 77.5722 89.1516 77.5722H88.6195C88.4605 77.5722 88.3288 77.4411 88.3288 77.2827V76.9986C88.3288 76.8401 88.4605 76.709 88.6195 76.709H90.2266C90.5831 76.709 90.8629 77.0259 90.8135 77.381C90.5996 79.031 89.8536 80.3478 88.7786 81.2492C88.6853 81.3257 88.5482 81.3367 88.444 81.2766V81.2711Z" fill="white"/>
<path d="M94.0719 81.2111C93.7757 80.9816 93.4082 80.6757 93.0297 80.2768C92.6513 79.878 91.9986 80.1293 91.9986 80.6702V81.0636C91.9986 81.8176 91.6695 82.0142 90.9564 82.0634C90.6987 82.0798 90.4573 81.9268 90.3641 81.6919L90.1611 81.1783C90.2928 81.2002 90.5067 81.2548 90.748 81.2548C90.94 81.2548 91.1045 81.1892 91.1045 80.9871V75.4852C91.1045 75.3159 91.2526 75.1793 91.4227 75.1957L91.9492 75.2448C92.1192 75.2558 92.207 75.2667 92.207 75.3541C92.207 75.4087 92.0041 75.5563 92.0041 75.6109V76.201C92.0041 76.3321 92.0096 76.5179 92.0479 76.7528C92.1247 77.2336 92.7445 77.4194 93.0681 77.0533C93.2217 76.8785 93.3698 76.6927 93.5069 76.496C93.677 76.2556 94.0006 76.1737 94.2584 76.3102L94.5655 76.4687C94.7081 76.5452 94.7904 76.6107 94.7904 76.6708C94.7904 76.7255 94.7026 76.7364 94.5984 76.7583C94.5326 76.7692 94.5216 76.791 94.3626 76.9823C94.2913 77.0751 93.858 77.5997 93.1778 78.1733C92.931 78.381 92.8926 78.7415 93.0901 78.9983C93.5892 79.6376 94.1871 80.1074 94.6807 80.4407C94.8233 80.5391 94.8507 80.7303 94.741 80.8669L94.4832 81.1783C94.3845 81.2985 94.2035 81.3204 94.0828 81.222L94.0719 81.2111Z" fill="white"/>
<path d="M129.549 78.2932V81.8063C129.549 82.1341 129.285 82.3964 128.956 82.3964H121.074C120.745 82.3964 120.482 82.1341 120.482 81.8063V80.6972C120.482 77.2825 122.758 75.5724 125.018 73.3268C125.802 72.5455 127.003 71.349 127.003 70.0049C127.003 69.098 126.833 67.7813 125.04 67.7813C123.054 67.7813 123.027 69.5405 123.027 70.2453V70.6278C123.027 70.9556 122.764 71.2179 122.435 71.2179H121.118C120.789 71.2179 120.526 70.9556 120.526 70.6278V70.2453C120.526 67.3496 121.897 65.3008 125.034 65.3008C128.172 65.3008 129.543 67.0273 129.543 69.9995C129.543 71.7533 128.737 73.0755 126.828 74.9823C125.353 76.452 123.745 77.7687 123.252 79.0855C123.109 79.4679 123.405 79.8722 123.811 79.8722H126.554C126.883 79.8722 127.146 79.61 127.146 79.2821V78.3315C127.146 78.0037 127.409 77.7414 127.738 77.7414H129C129.302 77.7414 129.549 77.9873 129.549 78.2878V78.2932Z" fill="#FF0000"/>
<path d="M140.672 78.2932V81.8063C140.672 82.1341 140.408 82.3964 140.079 82.3964H132.197C131.868 82.3964 131.605 82.1341 131.605 81.8063V80.6972C131.605 77.2825 133.881 75.5724 136.136 73.3268C136.92 72.5455 138.121 71.349 138.121 70.0049C138.121 69.098 137.951 67.7813 136.157 67.7813C134.172 67.7813 134.15 69.5405 134.15 70.2453V70.6278C134.15 70.9556 133.887 71.2179 133.558 71.2179H132.241C131.912 71.2179 131.649 70.9556 131.649 70.6278V70.2453C131.649 67.3496 133.02 65.3008 136.157 65.3008C139.295 65.3008 140.666 67.0273 140.666 69.9995C140.666 71.7533 139.86 73.0755 137.951 74.9823C136.476 76.452 134.863 77.7687 134.375 79.0855C134.232 79.4679 134.528 79.8722 134.934 79.8722H137.677C138.006 79.8722 138.269 79.61 138.269 79.2821V78.3315C138.269 78.0037 138.532 77.7414 138.862 77.7414H140.123C140.425 77.7414 140.672 77.9873 140.672 78.2878V78.2932Z" fill="#FF0000"/>
<path d="M141.462 83.3689C140.173 82.8717 139.147 81.8008 138.697 80.495C137.441 76.8289 140.112 73.5508 143.508 73.5508C146.321 73.5508 148.636 75.8018 148.636 78.6538C148.636 82.1341 145.147 84.7949 141.462 83.3634V83.3689Z" fill="#FF0000"/>
<path d="M145.032 81.73V81.3202H142.005V81.7737H141.643C141.314 81.7737 141.05 81.5114 141.05 81.1836V76.1789C141.05 75.8511 141.314 75.5889 141.643 75.5889H145.367C145.696 75.5889 145.959 75.8511 145.959 76.1789V81.1399C145.959 81.4677 145.696 81.73 145.367 81.73H145.027H145.032ZM144.44 76.463H142.592C142.262 76.463 141.999 76.7253 141.999 77.0531V77.3973C141.999 77.7251 142.262 77.9874 142.592 77.9874H144.44C144.769 77.9874 145.032 77.7251 145.032 77.3973V77.0531C145.032 76.7253 144.769 76.463 144.44 76.463ZM144.44 78.8124H142.592C142.262 78.8124 141.999 79.0746 141.999 79.4025V79.8614C141.999 80.1892 142.262 80.4515 142.592 80.4515H144.44C144.769 80.4515 145.032 80.1892 145.032 79.8614V79.4025C145.032 79.0746 144.769 78.8124 144.44 78.8124Z" fill="white"/>
<path d="M105.568 74.0758C105.365 74.2943 105.085 74.4528 104.8 74.4528H100.341C100.231 74.4528 100.144 74.3653 100.144 74.2561V73.8845C100.144 73.7753 100.231 73.6878 100.341 73.6878H104.8C104.904 73.6878 105.025 73.6114 105.069 73.513L105.206 73.2071C105.36 72.8574 105.607 72.8137 105.722 72.8137H105.738C105.842 72.8191 106.111 72.8683 106.243 73.2453L106.451 73.8518C106.479 73.9337 106.55 74.0157 106.638 74.0102C106.725 74.0102 106.775 73.9501 106.824 73.808C106.874 73.666 107.576 71.2675 107.576 71.2675C107.696 70.8577 107.932 70.8085 108.08 70.8249C108.217 70.8358 108.453 70.9178 108.508 71.344C108.508 71.344 108.804 73.666 108.837 73.7698C108.881 73.9119 108.952 73.9993 109.051 74.043C109.15 74.0812 109.254 74.0867 109.347 74.0539C109.484 74.0047 109.567 73.9337 109.616 73.7698C109.654 73.6441 109.874 72.7754 109.874 72.7754C109.983 72.3602 110.247 72.3165 110.356 72.3165C110.444 72.3219 110.735 72.3711 110.839 72.7809L110.971 73.2726C111.037 73.513 111.294 73.7097 111.541 73.7097H116.264C116.373 73.7097 116.461 73.7971 116.461 73.9064V74.2779C116.461 74.3872 116.373 74.4746 116.264 74.4746H111.229C110.938 74.4746 110.686 74.3052 110.505 74.0812H110.329L109.451 77.4304C109.347 77.8238 109.128 77.8894 108.991 77.8894H108.963C108.826 77.8784 108.59 77.8019 108.53 77.3758C108.53 77.3758 108.146 74.5511 108.119 74.3927C108.091 74.2342 108.031 74.0812 107.899 74.0703C107.768 74.0594 107.74 74.0539 107.647 74.0922C107.554 74.1304 107.515 74.1741 107.471 74.3271C107.428 74.4855 107.164 75.3542 107.164 75.3542C107.044 75.764 106.78 75.8077 106.665 75.8077C106.55 75.8077 106.292 75.764 106.161 75.3816L105.705 74.0703C105.705 74.0703 105.705 74.0484 105.645 74.0375C105.612 74.0321 105.579 74.0594 105.563 74.0703L105.568 74.0758Z" fill="#FF0000"/>
<path d="M156.88 80.2601V80.1126H158.213V80.1945C158.213 80.7682 158.295 81.5112 159.277 81.5112C160.171 81.5112 160.352 80.8447 160.352 80.0852V79.5935C160.352 79.2056 159.979 78.9433 159.595 79.0417C159.458 79.0745 159.299 79.1018 159.123 79.1018C157.39 79.1018 156.781 77.8288 156.781 76.217C156.781 75.0205 157.258 73.3213 159.26 73.3213C161.262 73.3213 161.74 75.0205 161.74 76.217V80.0852C161.74 81.5768 161.142 82.8061 159.277 82.8061C157.412 82.8061 156.88 81.7188 156.88 80.2546V80.2601ZM158.185 76.2225C158.185 77.3807 158.597 77.7796 159.266 77.7796C159.935 77.7796 160.341 77.3807 160.341 76.2225C160.341 75.0642 159.93 74.6653 159.266 74.6653C158.602 74.6653 158.185 75.0642 158.185 76.2225Z" fill="#FF0000"/>
<path d="M164.427 75.376H164.894C165.223 75.376 165.486 75.6382 165.486 75.966V76.4304C165.486 76.7583 165.223 77.0205 164.894 77.0205H164.427C164.098 77.0205 163.835 76.7583 163.835 76.4304V75.966C163.835 75.6437 164.098 75.376 164.427 75.376ZM165.486 79.7086V80.173C165.486 80.5008 165.223 80.7631 164.894 80.7631H164.427C164.098 80.7631 163.835 80.5008 163.835 80.173V79.7086C163.835 79.3808 164.098 79.1185 164.427 79.1185H164.894C165.223 79.1185 165.486 79.3808 165.486 79.7086Z" fill="#FF0000"/>
<path d="M172.413 76.0207V80.1184C172.413 81.7028 171.618 82.812 169.967 82.812C168.316 82.812 167.521 81.6974 167.521 80.1184V76.0207C167.521 74.4363 168.316 73.3271 169.967 73.3271C171.618 73.3271 172.413 74.4417 172.413 76.0207ZM168.859 76.0207V76.7474C168.859 77.3101 169.572 77.5505 169.917 77.108L170.899 75.8404C171.02 75.682 171.064 75.4689 170.992 75.2831C170.866 74.9553 170.554 74.6493 169.967 74.6493C168.886 74.6493 168.859 75.6328 168.859 76.0207V76.0207ZM171.075 80.1184V79.4081C171.075 78.8454 170.362 78.605 170.016 79.0475L169.045 80.2987C168.925 80.4571 168.886 80.6648 168.952 80.8505C169.073 81.1783 169.38 81.4843 169.972 81.4843C171.053 81.4843 171.08 80.5009 171.08 80.1129L171.075 80.1184Z" fill="#FF0000"/>
<path d="M178.469 76.0207V80.1184C178.469 81.7028 177.674 82.812 176.017 82.812C174.361 82.812 173.571 81.6974 173.571 80.1184V76.0207C173.571 74.4363 174.366 73.3271 176.017 73.3271C177.668 73.3271 178.469 74.4417 178.469 76.0207ZM174.915 76.0207V76.7474C174.915 77.3101 175.628 77.5505 175.973 77.108L176.955 75.8404C177.076 75.682 177.12 75.4689 177.048 75.2831C176.922 74.9553 176.609 74.6548 176.023 74.6548C174.942 74.6548 174.915 75.6382 174.915 76.0262V76.0207ZM177.131 80.1184V79.4081C177.131 78.8454 176.417 78.605 176.072 79.0475L175.101 80.2987C174.98 80.4571 174.937 80.6648 175.008 80.8505C175.129 81.1783 175.436 81.4843 176.028 81.4843C177.109 81.4843 177.136 80.5009 177.136 80.1129L177.131 80.1184Z" fill="#FF0000"/>
<path d="M191.583 81.2599H192.417C192.746 81.2599 193.009 80.9976 193.009 80.6698V76.5393C193.009 76.2115 192.746 75.9492 192.417 75.9492H191.583C191.418 75.9492 191.287 75.8181 191.287 75.6542V75.168C191.287 75.0204 191.396 74.8893 191.55 74.8729C192.197 74.8128 192.729 74.5069 192.932 73.9223C193.009 73.6928 193.256 73.4961 193.497 73.4961H193.881C194.21 73.4961 194.473 73.7583 194.473 74.0862V80.6643C194.473 80.9922 194.737 81.2544 195.066 81.2544H195.603C195.932 81.2544 196.196 81.5167 196.196 81.8445V82.0412C196.196 82.369 195.932 82.6312 195.603 82.6312H191.884C191.555 82.6312 191.292 82.369 191.292 82.0412V81.5549C191.292 81.391 191.424 81.2599 191.588 81.2599H191.583Z" fill="#FF0000"/>
<path d="M202.147 73.797V74.6384C202.12 74.7422 202.092 74.8351 202.059 74.9389C201.006 76.649 200.2 78.6214 200.227 81.0363C200.227 81.2002 200.364 81.3313 200.529 81.3313H200.825C200.99 81.3313 201.121 81.4624 201.121 81.6263V82.0416C201.121 82.3694 200.858 82.6316 200.529 82.6316H198.467C198.138 82.6316 197.874 82.3694 197.874 82.0416V81.6263C197.874 81.4624 198.006 81.3313 198.17 81.3313H198.532C198.697 81.3313 198.834 81.2002 198.829 81.0363C198.807 79.8561 199.081 77.9275 200.244 75.6601C200.447 75.2667 200.161 74.8023 199.723 74.8023H199.103C198.774 74.8023 198.51 75.0645 198.51 75.3924V75.4361C198.51 75.7639 198.247 76.0261 197.918 76.0261H197.797C197.468 76.0261 197.205 75.7639 197.205 75.4361V74.092C197.205 73.7642 197.468 73.502 197.797 73.502H201.845C202.01 73.502 202.142 73.6331 202.142 73.797H202.147Z" fill="#FF0000"/>
<path d="M204.741 75.376H205.208C205.537 75.376 205.8 75.6382 205.8 75.966V76.4304C205.8 76.7583 205.537 77.0205 205.208 77.0205H204.741C204.412 77.0205 204.149 76.7583 204.149 76.4304V75.966C204.149 75.6382 204.412 75.376 204.741 75.376ZM205.8 79.7086V80.173C205.8 80.5008 205.537 80.7631 205.208 80.7631H204.741C204.412 80.7631 204.149 80.5008 204.149 80.173V79.7086C204.149 79.3808 204.412 79.1185 204.741 79.1185H205.208C205.537 79.1185 205.8 79.3808 205.8 79.7086Z" fill="#FF0000"/>
<path d="M212.733 76.0207V80.1184C212.733 81.7028 211.938 82.812 210.287 82.812C208.636 82.812 207.84 81.6974 207.84 80.1184V76.0207C207.84 74.4363 208.636 73.3271 210.287 73.3271C211.938 73.3271 212.733 74.4417 212.733 76.0207ZM209.179 76.0207V76.7474C209.179 77.3101 209.892 77.5505 210.237 77.108L211.219 75.8404C211.34 75.682 211.384 75.4689 211.312 75.2831C211.186 74.9553 210.874 74.6493 210.287 74.6493C209.206 74.6493 209.179 75.6328 209.179 76.0207V76.0207ZM211.395 80.1184V79.4081C211.395 78.8454 210.682 78.605 210.336 79.0475L209.365 80.2987C209.244 80.4571 209.206 80.6648 209.272 80.8505C209.393 81.1783 209.7 81.4843 210.292 81.4843C211.373 81.4843 211.4 80.5009 211.4 80.1129L211.395 80.1184Z" fill="#FF0000"/>
<path d="M218.788 76.0207V80.1184C218.788 81.7028 217.993 82.812 216.336 82.812C214.68 82.812 213.89 81.6974 213.89 80.1184V76.0207C213.89 74.4363 214.685 73.3271 216.336 73.3271C217.987 73.3271 218.788 74.4417 218.788 76.0207ZM215.234 76.0207V76.7474C215.234 77.3101 215.947 77.5505 216.293 77.108L217.28 75.8404C217.4 75.682 217.444 75.4689 217.373 75.2831C217.247 74.9553 216.934 74.6493 216.347 74.6493C215.267 74.6493 215.239 75.6328 215.239 76.0207H215.234ZM217.45 80.1184V79.4081C217.45 78.8454 216.737 78.605 216.391 79.0475L215.42 80.2987C215.3 80.4571 215.261 80.6648 215.327 80.8505C215.448 81.1783 215.755 81.4843 216.347 81.4843C217.428 81.4843 217.455 80.5009 217.455 80.1129L217.45 80.1184Z" fill="#FF0000"/>
<path d="M183.405 78.1016C183.295 78.2218 183.142 78.3037 182.988 78.3037H180.558C180.498 78.3037 180.449 78.2545 180.449 78.1944V77.9923C180.449 77.9322 180.498 77.883 180.558 77.883H182.988C183.038 77.883 183.114 77.8338 183.136 77.7847L183.208 77.6208C183.29 77.4295 183.427 77.4077 183.487 77.4077H183.498C183.559 77.4077 183.701 77.435 183.773 77.6426L183.888 77.9704C183.904 78.0142 183.943 78.0579 183.992 78.0579C184.041 78.0579 184.069 78.0251 184.096 77.9486C184.124 77.8721 184.508 76.5663 184.508 76.5663C184.573 76.3423 184.7 76.3204 184.782 76.3259C184.859 76.3314 184.985 76.3751 185.018 76.61C185.018 76.61 185.182 77.8776 185.199 77.9322C185.221 78.0087 185.259 78.0579 185.314 78.0797C185.369 78.1016 185.424 78.1016 185.473 78.0852C185.55 78.0579 185.594 78.0196 185.621 77.9322C185.643 77.8612 185.758 77.3913 185.758 77.3913C185.818 77.1673 185.961 77.14 186.021 77.14C186.065 77.14 186.23 77.1728 186.285 77.3968L186.4 77.8284C186.411 77.8721 186.455 77.9049 186.499 77.9049H189.241C189.301 77.9049 189.351 77.954 189.351 78.0141V78.2163C189.351 78.2764 189.301 78.3256 189.241 78.3256H186.499C186.34 78.3256 186.202 78.2327 186.104 78.1125H186.005L185.528 79.9373C185.473 80.1504 185.352 80.1887 185.275 80.1887H185.259C185.182 80.1887 185.056 80.1395 185.023 79.91C185.023 79.91 184.815 78.3693 184.798 78.2873C184.782 78.1999 184.749 78.118 184.678 78.1125C184.606 78.1125 184.59 78.1016 184.54 78.1234C184.491 78.1453 184.469 78.1671 184.447 78.2545C184.425 78.342 184.283 78.8173 184.283 78.8173C184.217 79.0413 184.074 79.0632 184.008 79.0632C183.943 79.0632 183.806 79.0358 183.734 78.8282L183.487 78.1125C183.487 78.1125 183.487 78.1016 183.454 78.0961C183.438 78.0961 183.416 78.107 183.411 78.1125L183.405 78.1016Z" fill="#FF0000"/>
<path d="M7.04834 82.8115C6.19817 82.8115 5.61677 82.6039 5.10119 82.3963C4.21812 82.0302 3.85612 81.8882 3.37893 81.8882C2.90174 81.8882 2.7701 82.0849 2.72074 82.3034C2.68234 82.4564 2.55619 82.5602 2.4081 82.5602H1.48115C1.29466 82.5657 1.1356 82.3963 1.15205 82.1996C1.31111 80.1344 2.08449 79.3531 4.61303 78.1074C5.73196 77.5665 6.63148 77.0857 6.63148 75.9165C6.63148 74.627 5.36447 74.2555 4.67337 74.2555C3.42829 74.2555 2.97304 75.0915 2.83592 75.3264C2.97304 75.2718 3.14856 75.2499 3.30762 75.2499C3.57638 75.2499 4.49237 75.4575 4.49237 76.3699C4.49237 77.2824 3.71899 77.6375 3.11565 77.6375C2.37519 77.6375 1.4263 77.0529 1.4263 75.911C1.4263 74.5123 2.74816 72.8623 5.63871 72.8623C8.52926 72.8623 9.76885 74.4905 9.76885 76.0858C9.76885 78.4079 7.50907 78.9815 6.54372 79.2219C4.28394 79.7902 3.66414 80.0032 3.2089 80.7408C3.63672 80.5441 4.16327 80.2983 5.06828 80.2983C5.22734 80.2983 5.70453 80.3092 6.42306 80.484C7.13061 80.6589 7.48713 80.6916 7.6791 80.6916C8.40311 80.6916 8.5896 80.1945 8.62799 79.7191C8.64445 79.5443 8.78157 79.4132 8.9516 79.4132H9.71949C9.90598 79.4132 10.0541 79.5771 10.0431 79.7738C9.98825 81.1998 9.57688 82.8061 7.05931 82.8061L7.04834 82.8115Z" fill="#FF0000"/>
<path d="M20.448 78.9486C20.0147 81.2925 18.2047 82.8114 15.7858 82.8114C13.0104 82.8114 11.0249 80.8007 11.0249 77.8395C11.0249 75.2497 12.5607 73.3593 14.8424 72.955C18.1224 72.3704 21.0733 75.5284 20.4425 78.9486H20.448ZM15.7858 74.0969C14.4091 74.0969 14.0745 76.1676 14.0745 77.8395C14.0745 79.5113 14.4091 81.582 15.7858 81.582C17.1625 81.582 17.5081 79.5113 17.5081 77.8395C17.519 76.1676 17.1625 74.0969 15.7858 74.0969Z" fill="#FF0000"/>
<path d="M30.0576 79.419C30.2441 79.419 30.3922 79.5829 30.3813 79.7796C30.3264 81.2002 29.915 82.8119 27.3975 82.8119C26.5473 82.8119 25.9659 82.6043 25.4503 82.3967C24.5672 82.0306 24.2052 81.8886 23.728 81.8886C23.2509 81.8886 23.1192 82.0853 23.0699 82.3093C23.0315 82.4622 22.9053 82.5661 22.7572 82.5661H21.8303C21.6438 82.5715 21.4847 82.4022 21.5012 82.2055C21.6602 80.1457 22.4336 79.3589 24.9622 78.1132C26.0811 77.5723 26.9806 77.0915 26.9806 75.9223C26.9806 74.6329 25.7136 74.2614 25.0225 74.2614C23.7774 74.2614 23.3222 75.0973 23.185 75.3323C23.3222 75.2776 23.4977 75.2558 23.6567 75.2558C23.9255 75.2558 24.8415 75.4634 24.8415 76.3758C24.8415 77.2882 24.0681 77.6434 23.4648 77.6434C22.7243 77.6434 21.7754 77.0587 21.7754 75.9169C21.7754 74.5182 23.0973 72.8682 25.9878 72.8682C28.8784 72.8682 30.118 74.4963 30.118 76.0917C30.118 78.4137 27.8582 78.9874 26.8928 79.2278C24.6331 79.796 24.0133 80.0091 23.558 80.7467C23.9858 80.55 24.5124 80.3041 25.4174 80.3041C25.5765 80.3041 26.0537 80.3151 26.7722 80.4899C27.4797 80.6647 27.8362 80.6975 28.0282 80.6975C28.7522 80.6975 28.9387 80.2003 28.9771 79.725C28.9936 79.5502 29.1307 79.419 29.3007 79.419H30.0686H30.0576Z" fill="#FF0000"/>
<path d="M34.7692 77.2439C34.7692 77.0527 34.9173 76.9052 35.0983 76.8997C35.7565 76.8943 36.8316 76.7358 36.8316 75.5939C36.8316 74.452 35.7565 74.1734 34.9612 74.1734C34.0452 74.1734 33.7765 74.3919 33.4748 74.6323C34.2701 74.7416 34.6047 75.2005 34.6047 75.725C34.6047 76.3534 34.1549 76.9926 33.2938 76.9926C32.4327 76.9926 31.8129 76.3861 31.8129 75.4737C31.8129 73.9767 33.6393 72.873 36.0253 72.873C37.3033 72.873 39.9689 73.2391 39.9689 75.359C39.9689 76.1567 39.585 76.6593 39.1243 76.9817C38.7787 77.2275 38.8226 77.7466 39.1901 77.9651C40.1774 78.5388 40.3255 79.4676 40.3255 79.9375C40.3255 82.0737 37.9395 82.8113 35.8882 82.8113C33.5571 82.8113 31.4893 81.8552 31.4893 80.1342C31.4893 79.0797 32.2955 78.4732 33.0689 78.4732C33.8423 78.4732 34.4785 79.0578 34.4785 79.7353C34.4785 79.8227 34.4785 80.167 34.1988 80.4838C33.8862 80.8335 34.1001 81.4017 34.5663 81.4509C34.6924 81.4673 34.8186 81.4728 34.9393 81.4728C35.8004 81.4728 37.0235 81.0575 37.0235 79.8009C37.0235 78.435 35.8333 78.2438 35.0819 78.211C34.9064 78.2055 34.7692 78.0525 34.7692 77.8722V77.2494V77.2439Z" fill="#FF0000"/>
</g>
<defs>
<clipPath id="clip0_1268_2325">
<rect width="220" height="102" fill="white"/>
</clipPath>
</defs>
</svg>
