<svg width="827" height="832" viewBox="0 0 827 832" fill="none" xmlns="http://www.w3.org/2000/svg">
<path d="M807.357 65.3807C773.22 3.235 687.793 -14.0385 618.232 11.1338C553.412 34.5911 501.846 83.6348 445.387 123.18C434.885 130.534 423.655 137.778 410.931 139.375C388.879 142.145 368.928 127.704 349.541 116.835C278.321 76.9075 191.152 85.368 118.856 124.351C-3.7475 192.561 -37.9979 366.859 46.7716 524.829C118.566 658.619 242.134 777.248 304.178 832C406.502 717.286 577.327 525.672 650.186 443.331C710.395 375.291 778.417 295.902 813.11 214.862C832.873 168.7 831.699 109.697 807.357 65.3807Z" fill="#00FFFF" style="mix-blend-mode:difference"/>
</svg>
