<svg width="127" height="42" viewBox="0 0 127 42" fill="none" xmlns="http://www.w3.org/2000/svg">
<path d="M24.704 15.336V11.528H7.39202V15.336H24.704ZM28 30.12V26.312H3.96802V30.12H28Z" fill="white"/>
<path d="M57.888 31.464V28.616H51.808L53.792 16.36H40.928V19.304H50.048L48.544 28.616H36.832V31.464H57.888Z" fill="white"/>
<path d="M90.016 22.856V18.792H67.264V22.856H90.016Z" fill="white"/>
<path d="M122.24 29.16C119.616 26.312 116.864 23.592 113.76 21.256C115.776 18.12 116.384 16.648 117.472 14.088C117.856 13.16 118.56 12.616 119.2 12.168L116.736 9.448C116.16 9.832 115.68 10.152 115.072 10.152H101.28V13.864H113.472C112.736 15.688 111.488 18.92 108.032 22.6C103.968 26.92 99.904 28.616 97.824 29.512L100.64 32.424C106.656 29.48 109.024 27.048 111.584 24.2C114.208 26.312 116.48 28.616 119.392 32.2L122.24 29.16Z" fill="white"/>
</svg>
