<svg width="124" height="35" viewBox="0 0 124 35" fill="none" xmlns="http://www.w3.org/2000/svg">
<path d="M6.5521 11.4581V9.08211C4.5721 9.13611 3.9241 9.69411 2.9521 11.4401L3.1321 10.0181V9.31611H0.756104L0.756104 19.0001H3.1321L3.1321 13.7981C3.1321 12.6101 4.0501 11.4581 5.7241 11.4581H6.5521Z" fill="#FF0000"/>
<path d="M17.6422 14.8601C17.5882 13.4921 17.4982 12.1781 16.6702 10.9181C15.9502 9.82011 14.7082 9.08211 13.1062 9.08211C10.7122 9.08211 8.57021 10.7201 8.57021 14.1761C8.57021 17.4881 10.5502 19.2341 13.1782 19.2341C16.3282 19.2341 17.1562 16.9481 17.4622 16.1381H15.0682C14.6722 17.2001 13.7362 17.3081 13.3042 17.3081C11.3962 17.3081 11.0362 15.3461 10.9462 14.8601H17.6422ZM15.0682 13.3121H10.9462C11.0542 12.7001 11.3602 11.0261 13.1242 11.0261C14.3122 11.0261 15.0142 11.8001 15.0682 13.3121Z" fill="#FF0000"/>
<path d="M29.3182 19.0001C28.8502 18.6941 28.7782 18.2261 28.7782 17.8841V12.5561C28.7782 10.0541 26.8342 9.08211 24.6022 9.08211C23.3062 9.08211 20.6242 9.47811 20.4442 12.4841H22.5862C22.6402 12.0161 22.6942 11.8001 22.9642 11.5301C23.5762 10.9181 24.6022 10.9361 24.8182 10.9361C25.5562 10.9361 26.3842 11.1701 26.3842 11.9441C26.3842 12.8441 25.2142 13.0421 24.1702 13.1861C22.0102 13.4921 20.0122 14.1581 20.0122 16.3901C20.0122 17.6141 20.7322 19.2341 23.3962 19.2341C25.6642 19.2341 26.2582 18.1181 26.5282 17.5961C26.5282 18.0101 26.5462 18.6401 26.8162 19.0001H29.3182ZM26.5102 13.8521L26.3842 14.4821V15.5801C26.3842 16.9301 24.9442 17.5421 23.9722 17.5421C23.1082 17.5421 22.4422 17.0021 22.4422 16.3181C22.4422 15.1481 23.7742 14.8241 24.6742 14.6801C25.7002 14.5001 26.0962 14.3381 26.5102 13.8521Z" fill="#FF0000"/>
<path d="M40.2201 19.0001V5.86011H37.8261V9.60411L37.9341 10.6121C37.6461 10.1261 37.0341 9.08211 35.3601 9.08211C33.0921 9.08211 31.4541 11.0801 31.4541 14.2661C31.4541 17.3441 33.0201 19.2341 35.5041 19.2341C37.1241 19.2341 37.6281 18.2981 37.9341 17.7221L37.8261 18.5141V19.0001H40.2201ZM37.8261 14.1941C37.8261 16.2821 36.7821 17.0561 35.8281 17.0561C34.5501 17.0561 33.8301 15.7781 33.8301 14.1761C33.8301 13.6181 33.9021 11.1701 35.8641 11.1701C37.7001 11.1701 37.8261 13.3661 37.8261 14.1941Z" fill="#FF0000"/>
<path d="M64.5682 19.0001V12.8261C64.5682 10.7201 63.8302 9.08211 61.6342 9.08211C59.9242 9.08211 59.0782 10.0721 58.5562 10.6841C58.0882 9.98211 57.4762 9.08211 55.8382 9.08211C54.1282 9.08211 53.5342 10.0541 53.1202 10.7021L53.1922 9.83811V9.31611H50.8162V19.0001H53.1922V12.9701C53.1922 12.3221 53.6962 11.1161 54.9382 11.1161C56.2702 11.1161 56.4862 12.3581 56.4862 13.1141V19.0001H58.8622V13.1141C58.8622 12.3581 59.3482 11.0801 60.6982 11.0801C61.8682 11.0801 62.1922 11.9801 62.1922 13.1141V19.0001H64.5682Z" fill="#FF0000"/>
<path d="M77.6923 14.1941C77.6923 11.3861 75.8563 9.08211 72.6343 9.08211C69.8803 9.08211 67.5583 11.0081 67.5583 14.2301C67.5583 16.6061 68.8363 19.2341 72.5803 19.2341C76.1803 19.2341 77.6923 16.6781 77.6923 14.1941ZM75.2803 14.1581C75.2803 15.3641 74.9383 17.3441 72.7063 17.3441C70.9963 17.3441 69.9883 15.9761 69.9883 14.1401C69.9883 12.0161 71.3023 10.9721 72.6343 10.9721C73.9663 10.9721 75.2803 11.9441 75.2803 14.1581Z" fill="#FF0000"/>
<path d="M86.2942 11.4581V9.08211C84.3142 9.13611 83.6662 9.69411 82.6942 11.4401L82.8742 10.0181V9.31611H80.4982V19.0001H82.8742V13.7981C82.8742 12.6101 83.7922 11.4581 85.4662 11.4581H86.2942Z" fill="#FF0000"/>
<path d="M97.3843 14.8601C97.3303 13.4921 97.2403 12.1781 96.4123 10.9181C95.6923 9.82011 94.4503 9.08211 92.8483 9.08211C90.4543 9.08211 88.3123 10.7201 88.3123 14.1761C88.3123 17.4881 90.2923 19.2341 92.9203 19.2341C96.0703 19.2341 96.8983 16.9481 97.2043 16.1381L94.8103 16.1381C94.4143 17.2001 93.4783 17.3081 93.0463 17.3081C91.1383 17.3081 90.7783 15.3461 90.6883 14.8601L97.3843 14.8601ZM94.8103 13.3121H90.6883C90.7963 12.7001 91.1023 11.0261 92.8663 11.0261C94.0543 11.0261 94.7563 11.8001 94.8103 13.3121Z" fill="#FF0000"/>
<path d="M110.266 19.0001V16.5161H107.836V19.0001H110.266Z" fill="#FF0000"/>
<path d="M116.365 19.0001V16.5161H113.935V19.0001H116.365Z" fill="#FF0000"/>
<path d="M122.463 19.0001V16.5161H120.033V19.0001H122.463Z" fill="#FF0000"/>
<path d="M0 34H124" stroke="#FF0000"/>
</svg>
