<svg width="304" height="70" viewBox="0 0 304 70" fill="none" xmlns="http://www.w3.org/2000/svg">
<g clip-path="url(#clip0_1312_4177)">
<path d="M185.94 47.62C183.98 46.45 181.56 45.53 179.86 45L178.77 47.52C181.8 48.59 183.02 49.25 184.65 50.29L185.95 47.62H185.94Z" fill="#FF0000"/>
<path d="M140.97 47.24C138.65 47.24 136.37 47.04 134.1 46.65L134.79 49.58C136.29 49.71 138.02 49.73 142.24 49.73L139.64 51.92L141.5 53.93C142.9 52.76 145.52 50.6 147.76 49.07L146.56 46.93C144.7 47.18 142.82 47.24 140.96 47.24H140.97Z" fill="#FF0000"/>
<path d="M239.82 59.99C239.67 59.64 239.56 59.17 239.59 58.9C239.63 58.47 239.57 58.45 237.88 58.39C237.24 58.37 236.52 58.3 235.96 58.22C235.59 55.03 232.84 53.4 230.36 53.4C229.06 53.4 226.39 53.88 224.1 55.97C224.43 54.06 224.97 52.18 225.63 50.37L224.65 49.99C224.98 49.88 225.34 49.68 225.55 49.5C225.85 49.23 226.18 49.02 226.29 49.02C226.39 49.02 226.69 48.84 226.94 48.62C228.16 49.16 229.02 49.66 230.03 50.31L231.33 47.64C229.37 46.47 226.95 45.55 225.25 45.02L225.04 45.51C224.42 45.23 223.49 44.91 222.75 44.73C221.85 44.51 221.08 44.3 221.02 44.26C220.96 44.22 220 43.92 218.88 43.59C217.76 43.24 216.45 42.97 215.96 42.95C215.49 42.93 214.89 42.83 214.65 42.72C214.39 42.61 213.22 42.44 212.03 42.34C210.72 42.21 209.67 42.19 209.35 42.32C209.06 42.41 207.24 42.53 205.33 42.54C203.41 42.57 201.79 42.55 201.73 42.51C201.67 42.49 199.56 42.31 197.01 42.15C194.46 41.97 190.58 41.79 188.38 41.73C186.18 41.67 184.31 41.66 184.2 41.7C184.12 41.74 182.04 41.74 179.57 41.71C177.12 41.66 174.63 41.71 174.07 41.81C173.49 41.91 172.21 42.03 171.18 42.09C170.15 42.15 167 42.18 164.18 42.13C161.34 42.11 158.44 42.13 157.69 42.25C156.94 42.34 155.56 42.41 154.6 42.4C153.63 42.38 150.17 42.38 146.88 42.4C143.59 42.4 140.31 42.42 139.57 42.43C138.83 42.44 137.81 42.55 137.3 42.65C136.78 42.73 135.73 42.9 134.92 42.97C134.11 43.06 132.5 43.25 131.3 43.38C130.1 43.52 128.38 43.78 127.47 43.95C126.56 44.12 125.58 44.27 125.3 44.26C125.01 44.25 124.37 44.35 123.85 44.49C123.33 44.63 122.21 44.77 121.37 44.8C120.52 44.83 119.45 44.89 119 44.93C118.54 44.97 117.27 45.01 116.15 45.03C115.06 45.05 113.94 45.13 113.67 45.22C113.42 45.31 112.28 45.45 111.15 45.55C110.01 45.65 108.38 45.77 107.54 45.82C106.69 45.87 105.85 45.96 105.68 46.04C105.51 46.09 103.18 46.15 100.53 46.19C99.4999 46.19 98.3999 46.21 97.3599 46.22C97.3799 46.18 97.3999 46.15 97.3999 46.1C97.3999 45.97 97.2699 45.9 97.1499 45.85L94.4499 44.96C94.2999 45.42 94.1499 45.84 93.9999 46.24C93.8299 46.24 93.6599 46.24 93.5299 46.24C92.3399 46.26 90.7299 46.32 89.9199 46.39C89.2899 46.45 88.5199 46.54 87.9599 46.62C88.0299 46.58 88.1299 46.53 88.2899 46.45C88.3899 46.4 88.4399 46.32 88.4399 46.25C88.4399 46.2 88.3899 46.1 88.2599 46.02L85.9999 44.8C85.6899 45.52 85.3999 46.17 85.0499 46.83C84.4299 46.84 83.7699 46.85 83.0999 46.85C81.1599 46.85 79.2699 46.89 78.8799 46.94C78.4899 46.97 77.5999 47.01 76.9199 47.05C76.2399 47.07 74.9399 47.18 74.0299 47.33C73.9599 47.34 73.8699 47.35 73.7899 47.36C74.0699 47.15 74.3499 46.94 74.6099 46.75L73.4399 45.33H57.0599V48H66.1399C65.7599 48.03 65.3599 48.07 64.9499 48.1C64.2699 48.16 63.3299 48.23 62.2799 48.31C62.2099 48.28 62.1399 48.24 62.0699 48.21L61.9999 48.33C59.9399 48.48 57.4699 48.66 55.4399 48.81C52.2599 49.04 49.0599 49.24 48.3199 49.28C48.2499 49.28 48.1899 49.28 48.1199 49.28V45.31H37.7899V49.96C36.7899 49.97 35.2799 49.96 33.8999 49.89V46.2C33.8999 46.02 34.0999 45.89 34.2299 45.82C34.3799 45.69 34.5099 45.59 34.5099 45.41C34.5099 45.23 34.3299 45.16 34.1799 45.13L31.2299 44.9V49.82C30.4999 49.82 29.9999 49.82 29.9699 49.87C29.9499 49.89 29.8599 49.93 29.7599 49.97H28.7599V50.28C28.2499 50.4 27.5699 50.55 27.1599 50.6C26.6999 50.68 25.8099 50.81 25.1899 50.91C24.5699 51.01 23.6399 51.18 23.1199 51.28C22.5999 51.36 21.5199 51.57 20.7399 51.7C20.5099 51.74 20.2399 51.8 19.9599 51.86C19.9999 51.77 20.0299 51.69 20.0699 51.6C20.1199 51.47 20.1499 51.47 20.4299 51.35C20.5299 51.3 20.6099 51.22 20.6099 51.15C20.6099 50.92 20.2999 50.77 20.1799 50.72L18.3199 49.91H22.7199V47.44H14.2599V45.99C14.2599 45.91 14.3399 45.84 14.5099 45.68C14.6399 45.58 14.7399 45.48 14.7399 45.35C14.7399 45.17 14.5599 45.1 14.2799 45.07L11.5099 44.76V47.43H3.11993V49.9H6.93993L4.97993 50.82C5.61993 51.86 6.52993 53.95 6.98993 55.04H1.86993V57.58H9.54993C7.76993 60.2 5.11993 62.46 1.60993 64.37L3.56993 66.23C2.96993 66.4 2.33993 66.55 2.00993 66.6C1.55993 66.64 0.929931 66.86 0.589931 67.08C0.229931 67.33 0.00993121 67.65 -6.87854e-05 67.97C-0.0100688 68.25 0.159931 68.65 0.379931 68.84C0.599931 69.05 1.03993 69.27 1.34993 69.34C1.65993 69.41 2.78993 69.43 3.85993 69.39C4.92993 69.35 6.04993 69.25 6.33993 69.16C6.64993 69.05 7.03993 69.06 7.30993 69.18C7.58993 69.31 8.04993 69.31 8.43993 69.18C8.80993 69.07 9.78993 68.93 10.5699 68.85C11.3599 68.78 12.2899 68.67 12.6399 68.64C12.9899 68.59 13.9199 68.53 14.6999 68.51C15.4799 68.5 16.4099 68.39 16.7699 68.26C17.1199 68.15 17.9099 68 18.5299 67.94C19.1499 67.88 20.4499 67.69 21.4299 67.54C22.3999 67.37 23.5199 67.23 23.9099 67.21C24.2999 67.21 25.0699 67.11 25.6099 67.01C26.1699 66.91 26.6899 66.87 26.8099 66.93C26.9299 66.99 27.4499 66.85 27.9899 66.63C28.8299 66.3 29.1799 66.27 30.1199 66.45C30.7299 66.55 31.3899 66.64 31.5499 66.65C31.7199 66.64 32.1899 66.59 32.5799 66.53C32.9699 66.46 33.3899 66.34 33.5199 66.24C33.6499 66.16 34.0999 66.06 34.5599 66.03C35.0099 66.01 35.9399 65.96 36.6199 65.92C37.2999 65.9 38.0899 65.77 38.3799 65.64L40.0699 66.76C40.8399 66.25 41.4399 65.77 41.9499 65.32C42.6699 65.32 43.2999 65.32 43.6999 65.32L44.2099 66.57C46.2499 66.54 47.4899 66.19 48.2499 64.99C48.3299 64.86 48.4099 64.69 48.4899 64.51C49.0199 64.49 49.6099 64.49 50.2499 64.5C52.1899 64.51 53.6699 64.42 54.2099 64.26C54.8099 64.1 56.0499 64.04 58.0199 64.12C58.9599 64.14 60.0399 64.14 60.9899 64.11L62.0099 66.74C66.0799 66.71 67.1999 66.61 67.1999 63.41V63.34C68.0599 63.28 69.0299 63.16 69.4499 63.04C69.9499 62.9 70.4899 62.86 70.7899 62.97C71.0699 63.06 71.6699 63.12 72.1199 63.1C72.5699 63.08 73.4599 63.01 74.0799 62.91C74.6999 62.81 75.5899 62.76 76.0399 62.8C76.4899 62.82 77.1499 62.78 77.4799 62.73C77.8099 62.68 78.2299 62.55 78.3599 62.44C78.5399 62.31 78.6699 62.32 78.7299 62.45C78.7899 62.57 79.4599 62.66 80.3099 62.65C80.7599 62.64 81.1799 62.6 81.5399 62.55C81.3699 63.32 81.1699 63.96 80.9599 64.55L83.1499 65.14C83.5899 64.04 83.8199 63.12 83.9699 62.11C84.1399 62.1 84.3299 62.08 84.5199 62.06C84.6399 62.05 84.7899 62.03 84.9599 62.02V66.69H87.5499V61.89C87.6799 61.89 87.7999 61.89 87.9199 61.89C88.3599 61.88 88.7799 61.86 89.1399 61.83C89.2699 62.43 89.4299 63.06 89.6399 63.77L91.7799 63.21C91.6399 62.78 91.4599 62.21 91.2899 61.49C91.6099 61.44 91.9899 61.4 92.3799 61.36C93.4099 61.26 94.7999 61.13 95.4799 61.05C96.1599 60.99 97.5399 60.96 98.5699 60.96C98.9099 60.96 99.2399 60.96 99.5599 60.96C99.4799 61.33 99.3999 61.67 99.3099 61.95C98.8299 63.55 98.3199 63.76 97.4999 63.76C96.5799 63.76 95.7699 63.66 95.2399 63.61L96.6399 66.59H97.7299C99.3799 66.59 100.76 66.26 101.47 64.22C101.81 63.27 102.09 62.06 102.31 60.73C102.54 60.73 102.77 60.74 103 60.75C103.84 60.8 104.67 60.79 104.79 60.74C104.94 60.66 106.01 60.5 107.17 60.38C107.63 60.33 108.22 60.27 108.84 60.21C108.95 62.04 109.2 63.86 109.73 65.61L112.07 65.23C112.33 63.32 113.37 61.05 113.96 59.79C114.17 59.79 114.31 59.79 114.36 59.79C114.5 59.81 115.36 59.79 116.34 59.76C115.79 60.28 115.46 60.98 115.46 61.9C115.46 65.56 119.73 65.56 120.47 65.56C123.93 65.56 124.44 64.24 124.49 62.28C125.56 62.92 126.25 63.42 127.16 64.29L128.61 61.77C126.32 60.22 125.23 59.79 124.23 59.38C124.23 59.35 124.23 59.32 124.23 59.29C124.68 59.26 125.03 59.23 125.2 59.22C125.65 59.2 126.77 59.14 127.68 59.11C128.59 59.06 129.79 58.9 130.37 58.76C130.93 58.6 132.15 58.46 133.06 58.47C133.19 58.47 133.34 58.47 133.5 58.47C132.99 59.27 132.62 60.22 132.62 61.39C132.62 62.46 133.05 63.02 133.46 63.37C134.94 64.77 138.57 64.97 140.84 64.97C143.79 64.97 146.54 64.72 148.78 64.51L148.63 61.36C146.72 61.74 145.07 62.05 140.69 62.05C139.57 62.05 137.08 62.05 136.36 61.44C136.21 61.31 136 61.11 136 60.63C136 59.77 136.86 58.98 137.5 58.44L137.43 58.39C138.29 58.35 139.27 58.3 139.96 58.25C140.93 58.16 142.01 58.02 142.34 57.93C142.67 57.82 143.33 57.76 143.79 57.78C144.24 57.8 145.03 57.7 145.55 57.54C146.13 57.38 147.52 57.27 149.16 57.29C150.62 57.29 152.29 57.22 152.87 57.12C153.29 57.06 154.59 57 156.05 56.97C155.84 57.64 155.61 58.3 155.37 58.92L157.51 60.6C159.35 58.88 161.34 57.1 163.55 56.94C163.72 56.94 163.9 56.94 164.08 56.93C165.75 57.02 167.18 58.15 167.18 59.81C167.18 61.92 164.86 63.98 159.83 63.98C159.53 63.98 158.07 63.98 156.52 63.78L157.36 66.68C160.29 66.63 164.13 66.5 166.37 65.36C168.61 64.22 169.93 62.1 169.93 59.66C169.93 58.56 169.61 57.6 169.07 56.82C169.18 56.68 169.3 56.67 169.48 56.82C169.61 56.91 171.77 57.07 175.5 57.25C175.42 57.85 175.35 58.44 175.32 59.01L177.53 60.18C178.56 58.98 179.58 58.11 180.54 57.47C180.61 57.47 180.68 57.47 180.76 57.47C183.27 57.58 185.59 57.68 187.48 57.76C187.61 58.06 187.68 58.4 187.68 58.77C187.68 61.11 185.52 63.58 180.79 63.58C179.62 63.58 178.42 63.4 177.61 63.3L178.96 66.43C182.11 66.35 190.61 66.2 190.61 59.03C190.61 58.63 190.57 58.25 190.5 57.9C191.4 57.94 191.93 57.96 191.97 57.96C192.07 57.96 193.78 58.01 195.74 58.04C197.4 58.08 198.32 58.08 198.85 58.04C197.84 60.42 196.75 62.09 195.23 64.03L198.13 65.33C199.78 62.64 200.93 60.46 201.88 58.02C202.36 58.11 202.83 58.17 203.12 58.18C203.61 58.2 204.21 58.12 204.47 58.01C204.83 57.86 205.15 57.89 205.76 58.12C206.05 58.24 206.34 58.29 206.62 58.32C206.27 59.97 205.72 61.4 205.4 61.84C205.04 62.35 204.64 62.48 203.87 62.48C202.88 62.48 202.14 62.25 201.58 62.07L201.94 65.15C202.65 65.25 203.44 65.3 204.13 65.3C205.22 65.3 206.85 65.2 207.95 63.34C208.72 62.01 209.18 60.17 209.44 58.43C209.58 58.43 209.72 58.43 209.87 58.43C210.78 58.43 211.74 58.43 212.03 58.45C212.32 58.48 214.35 58.62 216.55 58.78C218.39 58.92 220.11 59.03 220.81 59.06L222.93 60.18C223.1 59.98 223.26 59.82 223.43 59.64C223.6 59.66 223.77 59.69 223.93 59.7C224.67 59.77 225.94 59.88 226.74 59.97C227.56 60.06 228.36 60.19 228.48 60.28C228.62 60.35 229.34 60.45 230.08 60.5C230.82 60.57 231.82 60.79 232.33 61.01C232.34 61.01 232.36 61.02 232.37 61.03C231.39 62.47 229.37 63.59 226.19 63.59C225.02 63.59 223.82 63.41 223.01 63.31L224.36 66.44C226.85 66.38 232.66 66.26 235 62.68C235.49 63.01 235.95 63.28 236.16 63.35C236.55 63.47 236.88 63.35 237.52 62.91C237.98 62.58 238.47 62.34 238.57 62.34C238.67 62.34 239.01 62.19 239.3 62C239.6 61.81 239.9 61.41 239.97 61.15C240.06 60.87 240 60.42 239.83 60.05L239.82 59.99ZM85.1599 50.42C85.5199 49.95 85.7799 49.61 86.0199 49.28C86.2299 49.28 86.4399 49.3 86.5999 49.3C86.9299 49.3 87.2999 49.33 87.4199 49.33C87.4699 49.33 87.5899 49.34 87.7599 49.34C87.3499 49.96 86.8599 50.67 86.1999 51.58C85.8699 51.15 85.5899 50.84 85.1599 50.41V50.42ZM40.2099 47.39H45.5999V48.46H40.2099V47.39ZM17.7199 49.83C17.3799 50.83 17.0399 51.78 16.5899 52.74C16.0199 52.91 15.4199 53.09 14.9599 53.21C14.7299 53.27 14.4899 53.34 14.2599 53.4V49.83H17.7199V49.83ZM7.89993 54.97L9.52993 54.08C9.06993 52.71 8.04993 50.52 7.54993 49.83H11.5199V54.97H7.90993H7.89993ZM10.5199 64.74C9.83993 64.82 9.00993 64.93 8.65993 64.98C8.30993 65.03 7.47993 65.18 6.78993 65.32C6.19993 65.42 5.25993 65.66 4.52993 65.89C7.84993 63.72 9.83993 61.62 11.5199 59.2V64.62C11.1599 64.67 10.7999 64.72 10.5299 64.74H10.5199ZM14.2599 64.17V59.6C15.0799 60.78 16.2299 62.33 18.0599 63.87C17.9199 63.87 17.7899 63.89 17.6499 63.89C16.4699 63.96 15.1999 64.07 14.2599 64.17V64.17ZM33.4599 62.36C32.7799 62.42 31.2899 62.54 30.1599 62.6C29.0199 62.68 27.7599 62.84 27.3699 62.98C26.9699 63.13 25.7899 63.29 24.7799 63.31C24.0599 63.34 23.2099 63.4 22.5999 63.46C20.1099 62.09 17.8399 60.36 16.2399 58.04C16.2499 58.04 16.2599 58.04 16.2699 58.04C16.5199 57.97 16.8099 57.76 17.0099 57.51H23.7699V54.97H23.5999C24.0199 54.85 24.4899 54.65 24.6899 54.47C24.9199 54.28 25.2799 54.11 25.4699 54.11C25.6799 54.11 26.0899 54.01 26.4099 53.86C26.7499 53.71 27.4099 53.51 27.9299 53.39C28.4499 53.27 29.0099 53.13 29.1799 53.03C29.3199 52.97 30.1699 52.89 31.1799 52.83V58.45C30.2899 58.68 29.1699 58.96 28.3599 59.11L28.8199 61.96C28.8499 62.09 28.9499 62.14 28.9999 62.14C29.1299 62.14 29.1999 62.04 29.4799 61.73C29.6299 61.55 29.7299 61.53 30.6799 61.3C31.4199 61.12 34.2199 60.18 35.9499 59.52C34.9599 60.38 34.4199 60.77 33.7099 61.2L35.1299 62.15C34.4599 62.24 33.8499 62.32 33.4799 62.36H33.4599ZM46.8299 60.82C46.4099 60.82 45.9899 60.84 45.5999 60.86C45.9399 60.28 46.1599 59.77 46.3599 59.32H46.9699C46.9399 59.82 46.8999 60.32 46.8299 60.82ZM42.7499 61.19C42.4399 61.22 42.1099 61.24 41.8399 61.23C41.7299 61.23 41.5999 61.23 41.4599 61.23C42.0699 60.43 42.4699 59.72 42.6899 59.32H43.9599C43.6699 59.86 43.2499 60.51 42.7399 61.19H42.7499ZM38.2099 61.68C37.7699 61.75 37.3099 61.82 36.8699 61.9C36.7299 61.92 36.5899 61.94 36.4499 61.96C37.2799 61.28 38.1099 60.49 39.0999 59.32H40.2699C40.0099 59.73 39.2899 60.66 38.1999 61.68H38.2099ZM57.7299 60.18C56.0799 60.24 53.6199 60.39 52.2599 60.52C51.5099 60.58 50.4499 60.65 49.3999 60.71C49.5599 59.51 49.6499 58.27 49.6599 57.21H40.3999C40.5499 56.96 40.7299 56.6 40.8599 56.29H49.9699V54.23H35.8499V56.29H38.2699C37.7599 57.36 37.2999 58.05 36.4099 59.01V56.9C35.5699 57.21 34.7299 57.46 33.8399 57.71V52.75C34.2899 52.75 34.6499 52.76 34.8399 52.79C35.2899 52.85 36.1199 52.79 36.6999 52.72C36.9599 52.67 37.3399 52.63 37.7299 52.59V53.26H48.0599V51.98C48.9399 51.91 50.0999 51.81 51.0399 51.73C52.3399 51.6 54.1999 51.48 55.1699 51.46C56.1399 51.44 57.2999 51.32 57.7499 51.21C58.2099 51.13 59.1399 51.06 59.8099 51.1C60.4099 51.14 61.2399 51.1 61.8299 51.03C62.7899 51.44 63.3999 51.76 64.0699 52.13H54.8099V54.9H64.1699V59.8C63.4699 59.86 62.8099 59.91 62.3499 59.95C61.4399 60.02 59.3599 60.1 57.7099 60.16L57.7299 60.18ZM62.5599 63.98C62.6199 63.98 62.6799 63.98 62.7299 63.96C63.0999 63.92 63.4699 63.87 63.7999 63.82C63.6499 63.94 63.4799 64.02 63.2099 64.02C63.0099 64.02 62.7899 64 62.5499 63.97L62.5599 63.98ZM67.2099 54.92H72.0399C70.6399 56.88 69.8999 57.82 68.8099 59.09L69.1299 59.29C68.5099 59.36 67.8399 59.44 67.2099 59.51V54.91V54.92ZM83.2399 58.02C81.2999 58.13 79.1699 58.27 78.4899 58.35C77.8099 58.41 76.1399 58.55 74.7699 58.68C74.1599 58.73 73.4199 58.8 72.6899 58.87C73.6099 57.65 74.7599 56.01 76.5399 53.23L75.4499 52.14H68.2799L68.8699 51.48C68.7699 51.43 68.3399 51.2 68.2299 51.15C68.6899 50.85 69.1099 50.57 69.5099 50.3C69.5499 50.3 69.5899 50.3 69.6299 50.3C70.8299 50.22 72.2599 50.03 72.8399 49.89C73.3999 49.73 74.1699 49.63 74.4999 49.65C74.8299 49.66 76.0599 49.67 77.2199 49.65C78.3899 49.63 79.7399 49.5 80.2199 49.36C80.7799 49.2 81.1499 49.19 81.2099 49.32C81.2599 49.4 81.5399 49.5 81.8999 49.57L81.1899 50.53C82.3599 51.32 83.4299 52.13 84.7299 53.58C84.3699 54.06 83.9899 54.47 83.7399 54.78C82.6699 54.83 82.1099 54.83 81.0199 54.83L81.5299 57.78C81.5599 57.91 81.6799 58.01 81.7599 58.01C81.8899 58.01 81.9599 57.93 82.1699 57.73C82.3699 57.5 82.5499 57.48 82.7299 57.48C83.0599 57.43 84.0799 57.33 84.9899 57.23V57.92C84.4399 57.96 83.8499 58 83.2599 58.04L83.2399 58.02ZM87.6799 57.62C87.6799 57.62 87.5999 57.63 87.5599 57.64V56.86C87.9899 56.78 88.3499 56.76 89.2399 56.53C89.3199 56.91 89.3699 57.19 89.4099 57.41C88.6499 57.49 87.9899 57.58 87.6799 57.63V57.62ZM100.11 56.82C99.3899 56.84 98.1699 56.87 97.0399 56.9C96.5999 55.69 96.1799 54.76 95.7599 53.95L93.4699 54.87C93.7699 55.46 94.0999 56.15 94.4499 57.02C93.2499 57.09 91.8999 57.17 90.9899 57.25C90.7799 57.26 90.5699 57.28 90.3599 57.3L91.7699 56.9C91.5199 55.35 91.1299 53.92 90.5999 52.42L88.3099 52.95C88.4899 53.43 88.6199 53.97 88.7399 54.43C87.6499 54.56 87.1099 54.61 86.2999 54.66C87.7199 53.13 89.0999 51.53 90.3999 49.88C90.7599 49.42 90.7799 49.37 91.1899 49.35C91.2099 49.35 91.4299 49.3 91.4599 49.11C91.7699 49.08 92.2299 49.05 92.7499 49.02C91.9999 50.53 91.2999 51.51 90.6299 52.38L92.6099 53.98C93.3199 53.19 93.7799 52.48 94.5199 51.21H100.29V52.94C100.29 54.32 100.23 55.63 100.13 56.83C100.13 56.83 100.12 56.83 100.11 56.83V56.82ZM106.37 56.38C106.27 56.44 105.61 56.47 104.92 56.47C104.24 56.47 103.29 56.53 102.8 56.61C102.89 55.44 102.94 54.28 102.94 53.21V48.65C102.94 48.65 102.98 48.66 102.99 48.67C103.31 48.82 103.6 48.81 103.92 48.67C104.19 48.56 104.77 48.44 105.23 48.41C105.69 48.37 106.57 48.34 107.19 48.32C107.81 48.3 108.74 48.26 109.25 48.19C109.41 48.17 109.6 48.15 109.8 48.13C109.25 50.8 108.92 53.51 108.83 56.24C108.68 56.24 108.53 56.24 108.37 56.24C107.38 56.24 106.47 56.29 106.37 56.37V56.38ZM112.7 56.06C112.22 56.06 111.76 56.06 111.37 56.08C111.54 53.81 112.07 50.3 112.26 49.34C112.32 49.12 112.49 48.37 112.65 47.93C113.05 47.91 113.48 47.88 113.89 47.85C115.03 47.77 116.47 47.68 117.09 47.66C117.71 47.62 118.55 47.61 118.94 47.63C119.3 47.64 120.3 47.56 121.26 47.44C121.24 48.52 121.23 49.06 121.19 50.41C120.48 50.49 119.79 50.56 118.82 50.56C117.62 50.56 116.99 50.48 116.53 50.41L116.56 53.03C118.14 53.11 119.51 53 121.16 52.83C121.19 53.76 121.22 54.5 121.28 55.45C121.1 55.47 120.93 55.49 120.81 55.51C119.9 55.66 118.18 55.84 116.99 55.92C115.79 56 113.88 56.07 112.7 56.06V56.06ZM120.07 62.97C118.57 62.97 117.83 62.44 117.83 61.85C117.83 61.26 118.64 60.83 119.84 60.83C120.6 60.83 121.27 60.98 121.65 61.06C121.7 62.38 121.75 62.97 120.07 62.97V62.97ZM154.88 54.24C154.57 54.35 153.99 54.43 153.6 54.42C153.21 54.41 152.86 54.29 152.83 54.19C152.81 54.05 152.2 54.06 151.08 54.23C150.15 54.36 149.32 54.43 149.22 54.36C149.14 54.32 147.92 54.37 146.5 54.48C145.08 54.59 143.28 54.75 142.47 54.84C141.66 54.93 138.88 54.95 136.29 54.91C133.7 54.87 131.14 54.86 130.63 54.91C130.12 54.93 128.07 55.04 126.09 55.11C125.4 55.14 124.66 55.18 123.95 55.23C123.92 54.43 123.91 53.59 123.89 52.51C124.7 52.36 126.03 52.15 127.07 51.8V49.05C126.1 49.64 124.63 49.94 123.92 50.09C124.05 48.71 124.12 47.6 124.27 46.96C124.73 46.86 125.53 46.77 126.09 46.75C126.65 46.75 127.35 46.72 127.64 46.69C127.93 46.66 128.3 46.59 128.47 46.52C128.64 46.47 129.3 46.33 129.92 46.21C130.54 46.11 131.47 46.02 131.99 46C132.5 45.98 133.81 45.91 134.88 45.8C135.95 45.72 137.17 45.58 137.57 45.49C137.96 45.4 138.83 45.29 139.52 45.22C140.18 45.16 140.76 45.06 140.78 45C140.82 44.94 141.48 44.94 142.26 45C143.02 45.05 143.8 45.16 143.96 45.23C144.12 45.32 144.64 45.28 145.1 45.15C145.64 44.99 146.94 44.97 148.81 45.06C150.39 45.14 152.04 45.12 152.46 45.03C152.98 44.91 153.35 44.92 153.55 45.07C153.75 45.22 154.29 45.2 155.24 45.05C156.17 44.88 156.81 44.88 157.09 45.02C157.35 45.13 157.62 45.18 157.7 45.14C157.75 45.12 158.16 45.09 158.79 45.06C158.58 46.87 158.19 48.69 157.94 49.77C157.53 49.8 157.1 49.82 156.62 49.82C156.47 49.82 154.81 49.82 153.06 49.41L153.42 52.11C154.44 52.21 155.58 52.21 155.81 52.21C156.29 52.21 156.85 52.21 157.39 52.16C157.26 52.7 157.09 53.38 156.89 54.11C156.06 54.08 155.2 54.14 154.9 54.24H154.88ZM174.51 52.43C173.75 52.46 172.88 52.59 172.54 52.7C172.23 52.81 171.15 52.95 170.12 53.02C169.09 53.08 167.7 53.19 167.02 53.27C166.34 53.35 165.14 53.48 164.33 53.58C163.52 53.69 162.47 53.77 161.95 53.8C161.43 53.82 160.5 53.93 159.88 54.03C159.79 54.04 159.68 54.06 159.56 54.07C159.81 53.17 160.02 52.37 160.13 51.94C163.31 51.48 164.96 51.08 167.2 50.24V47.47C165.27 48.41 163.77 48.89 160.76 49.45C160.89 48.92 161.5 46.42 161.62 45.94C161.93 45.76 162.26 45.76 162.26 45.48C162.26 45.3 161.9 45.2 161.73 45.15L160.95 44.97C161.08 44.97 161.21 44.96 161.35 44.95C163.29 44.9 165.27 44.81 165.78 44.77C166.3 44.73 167.68 44.72 168.87 44.74C170.06 44.76 171.18 44.7 171.35 44.61C171.52 44.51 172.74 44.48 174.03 44.51C175.33 44.54 177.92 44.57 179.79 44.58C181.66 44.57 184.07 44.54 185.15 44.52C186.22 44.48 188.45 44.5 190.09 44.58C191.74 44.64 193.26 44.72 193.48 44.75C193.71 44.75 194.08 44.77 194.3 44.76C194.53 44.75 196.15 44.85 197.9 44.98C199.65 45.11 202.11 45.24 203.35 45.26C204.58 45.31 206.44 45.38 207.46 45.43C208.49 45.49 210.13 45.61 211.16 45.71C212.18 45.83 213.27 45.93 213.62 45.96C214.11 46 214.23 46.08 214.22 46.49C214.21 46.86 214.01 47.03 213.26 47.31C212.74 47.49 212.01 47.63 211.64 47.62C211.29 47.62 210.67 47.77 210.29 47.94C209.93 48.11 208.69 48.35 207.55 48.43C206.64 48.51 205.33 48.65 204.31 48.78C204.36 48.49 204.41 48.21 204.45 47.92C204.48 47.67 204.53 47.64 204.98 47.36C205.26 47.18 205.31 47.11 205.31 47C205.31 46.77 204.8 46.62 204.6 46.59L201.5 46.16C201.49 47.35 201.4 48.3 201.28 49.2C201.1 49.23 200.94 49.25 200.82 49.27C200.3 49.37 199 49.55 197.92 49.67C196.84 49.81 195.25 49.96 194.4 50.05C193.55 50.12 192.17 50.29 191.34 50.44C190.53 50.57 189.5 50.68 189.07 50.66C188.66 50.64 187.15 50.77 185.72 50.94C184.29 51.11 182.35 51.36 181.38 51.49C180.93 51.56 180.34 51.65 179.73 51.75C179.88 51.28 180.04 50.82 180.21 50.36L177.28 49.22C177.07 49.95 176.76 51.02 176.45 52.26C175.71 52.35 174.96 52.43 174.48 52.44L174.51 52.43ZM189 54.72C189 54.72 188.83 54.69 188.68 54.7C187.62 53.83 186.25 53.38 184.96 53.38C184.58 53.38 184.08 53.43 183.52 53.54C183.6 53.41 183.71 53.28 183.85 53.17C184.32 52.74 184.57 52.69 185.51 52.76C186.11 52.8 187.15 52.86 187.83 52.87C188.51 52.9 189.21 52.84 189.38 52.79C189.55 52.71 190.39 52.67 191.24 52.68C192.08 52.69 193.94 52.6 195.37 52.47C195.5 52.46 195.64 52.45 195.78 52.43L196.66 55.1C197.98 54.62 199.03 54.31 200.27 54.01C200.13 54.45 200 54.86 199.86 55.26C193.95 55 189.1 54.78 189 54.74V54.72ZM202.79 55.37C202.99 54.74 203.2 54.08 203.39 53.38C203.87 53.3 204.38 53.25 204.84 53.25C206.67 53.25 206.95 54.06 206.95 55.41C206.95 55.45 206.95 55.5 206.95 55.55C205.61 55.49 204.2 55.42 202.79 55.36V55.37ZM209.71 55.69C209.72 55.39 209.73 55.11 209.73 54.86C209.73 53.94 209.62 52.56 208.81 51.6C209.15 51.57 209.53 51.55 209.91 51.54C210.16 51.54 210.46 51.52 210.8 51.51C211.75 52.9 212.5 54.39 212.5 54.97C212.5 55.58 211.92 55.63 210.82 55.73V55.75C210.47 55.73 210.09 55.71 209.71 55.69V55.69ZM215.75 56.02C215.75 56.02 215.75 55.99 215.75 55.98C215.75 55.32 215.41 53.55 213.96 51.28C214.27 51.25 214.58 51.22 214.86 51.19C216.45 51.03 217.9 50.86 218.07 50.8C218.24 50.75 219.42 50.61 220.65 50.51C221.28 50.45 221.89 50.39 222.36 50.34C221.92 51.92 221.34 54.17 220.99 56.39C219.66 56.28 217.54 56.13 215.74 56.01L215.75 56.02ZM230.28 57.48C228.9 57.35 227.49 57.2 226.46 57.07C227.75 56.33 228.93 56.02 229.87 56.02C231.37 56.02 232.48 56.67 232.89 57.74C232.1 57.65 231.2 57.56 230.29 57.47L230.28 57.48Z" fill="#FF0000"/>
<path d="M273.74 0C273.27 0 272.34 0.02 271.67 0.06C271 0.1 270.06 0.12 269.58 0.12C268.92 0.12 268.49 0.19 267.89 0.39C267.44 0.54 266.53 0.81 265.88 0.99C264.09 1.48 261.71 2.4 260.09 3.25C257.24 4.74 256.51 5.14 256.42 5.24C256.28 5.4 256.27 5.77 256.38 5.86C256.45 5.91 259.89 6.31 264.03 6.76C272.46 7.67 272.04 7.59 272.46 8.39C272.7 8.85 272.68 9.22 272.37 9.53C272.16 9.75 269.63 11.2 268.17 11.95C267.13 12.48 266.77 12.78 266.73 13.15C266.71 13.35 266.77 13.55 266.88 13.68C267.05 13.88 267.3 13.92 270.12 14.28C273.39 14.7 273.38 14.69 273.79 15.31C274.18 15.89 274.03 16.18 272.48 18.02C270.44 20.44 268.78 22.17 268.4 22.29C267.98 22.4 267.67 22.28 266.94 21.67C265.99 20.89 266.01 20.58 267.14 19.48C267.99 18.63 268.11 18.43 268.03 17.96C267.99 17.75 267.85 17.43 267.71 17.24C267.46 16.9 267.45 16.9 266.41 16.78C265.53 16.68 265.32 16.69 265.11 16.83L264.85 16.99L264.28 21.6C263.74 25.99 263.7 26.22 263.46 26.63C263.13 27.19 262.54 27.58 261.87 27.71C261.57 27.77 260.78 27.78 260.12 27.74C258.58 27.64 258.38 27.54 258.08 26.61C257.74 25.54 257.7 25.12 257.93 24.84C258.13 24.61 258.15 24.61 258.96 24.76C259.62 24.89 259.86 24.9 260.14 24.8C260.76 24.59 260.79 24.51 261.23 20.84C261.45 19.01 261.63 17.32 261.62 17.1C261.59 16.25 261.9 16.35 257.27 15.77C254.32 15.4 253.11 15.23 252.97 15.12C252.36 14.67 252.67 13.01 253.45 12.62C253.63 12.53 254.36 12.57 256.91 12.81C258.69 12.98 260.23 13.09 260.34 13.06C260.61 12.97 260.55 12.71 260.18 12.41C258.93 11.4 258.91 11.34 259.54 10.36C260.04 9.58 260.06 9.51 259.86 9.28C259.75 9.14 259.43 9.07 258 8.91C256.56 8.75 256.17 8.68 255.66 8.45C255.33 8.3 254.79 8.15 254.46 8.11C253.94 8.05 253.76 8.08 253.18 8.34C252.6 8.6 252.34 8.81 251.47 9.74C250.01 11.29 249.39 12.07 248.64 13.25C246.61 16.48 245.36 19.43 244.73 22.48C244.37 24.23 243.89 28.45 243.89 29.94C243.87 35.14 244.09 37.16 244.92 39.16C245.54 40.69 247.21 43.64 248.6 45.69C249.52 47.04 251.54 49.43 252.56 50.4C255.49 53.15 260.33 56 264.23 57.24C266.76 58.05 267.16 58.12 270.95 58.53C274.13 58.88 274.6 58.9 275.65 58.82C278.63 58.59 280.65 58.14 283.1 57.16C284.12 56.75 285.11 56.41 285.3 56.4C285.49 56.38 285.81 56.31 286.01 56.23C286.53 56.04 288.66 54.68 288.89 54.4C289.22 54 289 53.78 287.52 52.95C285.04 51.55 285.02 51.55 283.77 52.02C281.53 52.84 278.03 53.32 275.27 53.2C274.38 53.16 274.3 53.14 274.06 52.89C273.76 52.59 273.35 51.49 273.39 51.1C273.45 50.57 273.68 50.53 275.58 50.65C278.14 50.8 279.97 50.69 280.25 50.34C280.53 50 280.28 49.47 279.81 49.41C279.67 49.39 279.3 49.46 278.99 49.57C278.34 49.78 278.11 49.72 277.43 49.19C276.43 48.4 276.33 47.98 276.99 47.47C277.21 47.31 277.46 47.05 277.57 46.9C277.73 46.66 277.73 46.62 277.61 46.45C277.49 46.31 277.17 46.23 275.8 46.06C274.89 45.94 274.03 45.78 273.88 45.72C273.75 45.64 273.59 45.45 273.55 45.28C273.43 44.85 273.61 44.12 273.9 43.88C274.13 43.7 274.23 43.71 277.37 44.01C280.44 44.3 280.61 44.31 280.9 44.14C281.06 44.05 281.31 43.81 281.44 43.62L281.68 43.27L281.46 43.04C281.26 42.84 281.08 42.81 278.88 42.56C277.5 42.41 276.41 42.24 276.24 42.16C275.72 41.9 275.7 41.73 276.02 38.87C276.35 35.93 276.38 35.83 277.1 35.72C277.32 35.68 278.26 35.74 279.18 35.84C281.08 36.05 281.33 36.01 281.39 35.48C281.45 34.91 281.31 34.87 278.26 34.53C276.6 34.34 275.4 34.17 275.23 34.09C274.78 33.87 274.63 33.2 274.88 32.48C275.15 31.7 274.24 31.66 285.67 32.94L295.85 34.08L296.08 34.34C296.38 34.65 296.41 35.34 296.16 35.88C295.89 36.46 295.69 36.48 292.64 36.14C289.69 35.81 289.52 35.82 289.46 36.38C289.4 36.89 289.56 36.95 291.72 37.26C292.82 37.41 293.79 37.58 293.88 37.63C294.28 37.87 294.29 38.2 293.99 40.87C293.83 42.3 293.66 43.51 293.58 43.65C293.33 44.14 293.03 44.14 289.51 43.75C286.32 43.39 286.29 43.39 285.92 43.58C285.72 43.68 285.45 43.92 285.32 44.12C285.09 44.45 285.09 44.47 285.24 44.65C285.38 44.84 285.76 44.89 289.94 45.41C292.43 45.72 294.55 46.01 294.63 46.06C295.01 46.31 295.02 47.47 294.63 47.85C294.41 48.07 294.36 48.06 292.33 47.89C290.95 47.78 290.18 47.75 290.02 47.81C289.89 47.87 289.44 48.24 289.01 48.65C288.057 49.5633 288.17 50.3433 289.35 50.99C290.2 51.46 290.42 51.53 291.07 51.61C292.37 51.74 293.04 51.41 294.52 49.86C299.18 44.99 301.79 39.45 303.11 31.51C303.37 29.96 303.46 29.21 303.44 28.53C303.42 27.67 302.72 22.74 302.51 22.01C302.45 21.82 302.09 20.96 301.71 20.1C301.09 18.7 300.78 18.1 299.95 16.73C299.83 16.55 299.65 16.37 299.55 16.36C299.22 16.32 298.52 16.56 298.39 16.74C298.33 16.84 298.09 18.16 297.87 19.66C297.24 23.95 296.41 27.11 295.41 29.11C294.6 30.72 293.45 31.29 291.48 31.07L290.54 30.96L290.26 30.58C289.97 30.2 289.5 28.81 289.54 28.44C289.58 28.05 289.86 27.96 290.72 28.06C291.79 28.18 292.21 28.09 292.63 27.71C293.09 27.3 293.3 26.9 293.72 25.68C294.33 23.95 295.05 20.52 295.29 18.35C295.4 17.38 295.23 16.78 294.78 16.43C294.5 16.22 294.31 16.18 292.43 15.97C289.96 15.69 289.99 15.69 289.04 16.79C288.67 17.22 288.24 17.65 288.07 17.74C287.8 17.89 287.74 17.89 287.37 17.74C287.15 17.64 286.85 17.53 286.7 17.48C286.45 17.4 286.42 17.42 286.39 17.75C286.37 17.95 286.39 18.51 286.45 18.99C286.64 20.63 286.47 21 285.36 21.19C284.72 21.3 284.5 21.23 284.07 20.83C283.68 20.44 283.09 20.39 282.72 20.7L282.45 20.93L281.91 25.29C281.37 29.63 281.37 29.65 281.13 29.85C280.94 30 280.74 30.04 280.25 30.01C279.41 29.97 278.96 29.73 278.87 29.25C278.83 29.06 278.92 27.71 279.07 26.24C279.25 24.35 279.29 23.54 279.22 23.45C279.02 23.21 278.88 23.47 278.49 24.86C278 26.5 277.64 27.37 277.31 27.65C276.73 28.14 275.22 27.5 275.3 26.8C275.31 26.68 275.49 26.13 275.69 25.57C275.88 25.02 276.17 24.04 276.33 23.41C276.73 21.74 277 21.57 278.34 22.12C279.32 22.52 279.26 22.52 279.43 22.17C279.65 21.71 279.68 21.15 279.49 20.87C279.35 20.65 279.25 20.61 278.77 20.57C278.46 20.55 277.85 20.57 277.42 20.61L276.65 20.71L276.45 20.42C276.23 20.11 276.12 19.31 276.17 18.56C276.22 17.86 276.47 17.72 277.64 17.77C278.37 17.79 278.66 17.77 278.92 17.62C279.83 17.11 279.73 16.5 278.48 15.19C276.86 13.49 276.84 13.44 277.6 12.53C278.13 11.89 278.49 11.71 279.08 11.78C279.37 11.81 279.55 11.78 279.74 11.62C280.02 11.4 280.74 10.45 281.34 9.51C281.86 8.69 282.01 8.58 282.44 8.62C282.89 8.67 283.9 9.41 284.02 9.76C284.13 10.08 284.05 10.21 283.28 11.08C281.52 13.05 281.2 13.46 281.17 13.77C281.13 14.13 281.36 14.45 281.69 14.48C281.98 14.51 282.29 14.23 283.34 12.96C283.83 12.37 284.33 11.8 284.46 11.68C284.82 11.38 285.28 11.48 286.02 12.04C286.92 12.72 287.02 13.1 286.42 13.56C285.84 14 285.07 14.87 285.05 15.12C285.01 15.46 285.22 15.95 285.45 16.11C285.74 16.31 286.05 16.11 286.82 15.19C287.68 14.17 288.7 12.63 289.45 11.19C290.16 9.84 290.25 9.74 290.61 9.63C290.85 9.57 291.04 9.61 291.69 9.89C293.02 10.48 293.11 10.65 292.51 11.62C292.13 12.27 292.05 12.69 292.29 12.9C292.51 13.11 296.69 13.59 297.2 13.48C297.6 13.38 297.76 13.18 297.66 12.84C297.58 12.5 295.3 9.69 294.31 8.7C292.98 7.37 290.89 5.69 289.3 4.67C286.6 2.95 284.07 1.84 280.77 0.94C279.58 0.59 275.08 0 273.74 0ZM290.81 18.73C291.16 18.97 292.18 22.51 292.1 23.22C292.06 23.6 291.68 23.92 291.13 24.04C290.45 24.19 290.06 24.12 289.84 23.83C289.68 23.62 289.21 22.04 288.71 20.04C288.51 19.23 288.7 18.95 289.64 18.7C290.22 18.54 290.52 18.56 290.79 18.74L290.81 18.73ZM285.24 22.64C285.33 22.76 285.42 23.03 285.44 23.24C285.48 23.59 285.64 25.11 285.76 26.24C285.83 26.89 285.61 27.15 284.86 27.29C283.75 27.48 283.5 27.09 283.32 24.91C283.14 22.88 283.24 22.56 284.1 22.36C284.61 22.24 285.05 22.35 285.25 22.65L285.24 22.64ZM271.97 31.68C272.38 31.9 272.47 32.2 272.37 33.03C272.29 33.72 272.12 34.1 271.85 34.2C271.76 34.23 270.31 34.13 268.62 33.97C265.74 33.7 265.55 33.69 265.26 33.86C264.79 34.13 263.4 35.8 263.36 36.17C263.31 36.64 263.45 36.72 264.39 36.83C265.38 36.94 265.43 36.97 266.77 38.33C268.55 40.13 270.71 42.77 270.99 43.48C271.15 43.91 271.04 44.13 270.29 44.74C269.04 45.79 268.76 45.74 267.79 44.31C267 43.15 264.67 40.32 264.14 39.85C263.73 39.49 263.2 39.21 262.93 39.18C262.46 39.14 262.49 38.94 261.75 45.16C260.99 51.54 261.03 51.34 260.4 51.49C259.96 51.59 258.79 51.43 258.41 51.22C258.21 51.12 258.05 50.93 258.01 50.77C257.97 50.6 258.15 48.62 258.48 45.64C258.81 42.72 258.99 40.67 258.95 40.52C258.86 40.15 258.5 40.13 257.93 40.48C257.67 40.63 257.05 41.02 256.55 41.32C255.27 42.09 253.46 43 252.34 43.41C251.06 43.89 250.92 43.83 250.08 42.38C249.63 41.6 249.59 41.18 249.93 40.94C250.03 40.86 250.74 40.58 251.48 40.3C254.06 39.33 255.64 38.42 257.74 36.67C259.26 35.4 260.48 34.1 260.53 33.69C260.59 33.14 260.64 33.15 255.75 32.55C252.737 32.1767 251.177 31.9133 251.07 31.76C250.79 31.31 250.89 30 251.25 29.61C251.33 29.52 251.51 29.42 251.65 29.38C251.81 29.34 255.69 29.73 261.78 30.41C270.2 31.34 271.71 31.53 271.98 31.69L271.97 31.68Z" fill="#FF0000"/>
<path d="M261.75 9.47003C261.61 9.55003 261.593 9.66669 261.7 9.82003C261.96 10.18 263.31 11.02 263.71 11.06C264.14 11.11 264.4 11.01 264.93 10.61C265.35 10.28 265.44 10.06 265.27 9.84003C265.11 9.64003 262.03 9.31003 261.76 9.47003H261.75Z" fill="#FF0000"/>
<path d="M282.56 17.27C282.27 17.52 282.27 17.84 282.57 17.96C282.86 18.07 283.3 17.96 283.4 17.74C283.5 17.54 283.22 17.17 282.95 17.14C282.83 17.13 282.65 17.19 282.55 17.28L282.56 17.27Z" fill="#FF0000"/>
<path d="M284.9 35.35C284.67 35.41 284.46 35.64 284.44 35.89C284.4 36.22 284.75 36.47 285.32 36.53C285.95 36.6 286.29 36.44 286.33 36.04C286.37 35.65 286.08 35.41 285.5 35.35C285.25 35.32 284.98 35.32 284.9 35.35Z" fill="#FF0000"/>
<path d="M279.44 38.21C279.07 38.31 278.86 38.72 278.83 39.4C278.81 40.13 278.95 40.29 279.74 40.43C280.32 40.54 280.4 40.52 280.66 40.32C280.92 40.12 280.96 40 281.02 39.45C281.12 38.58 280.97 38.35 280.24 38.22C279.94 38.17 279.58 38.16 279.44 38.2V38.21Z" fill="#FF0000"/>
<path d="M284.51 38.7701C284.14 38.8701 283.93 39.2801 283.9 39.9601C283.88 40.6701 284.02 40.8501 284.76 40.9801C285.29 41.0801 285.38 41.0701 285.63 40.8701C285.88 40.6701 285.93 40.5501 285.99 40.0001C286.08 39.1501 285.93 38.9101 285.26 38.7801C284.99 38.7301 284.65 38.7201 284.51 38.7701V38.7701Z" fill="#FF0000"/>
<path d="M289.43 39.31C289.1 39.4 288.96 39.67 288.88 40.36C288.82 40.87 288.85 41.01 289.03 41.23C289.21 41.46 289.33 41.52 289.89 41.58C290.43 41.64 290.59 41.62 290.84 41.44C291.12 41.25 291.15 41.17 291.21 40.56C291.3 39.67 291.14 39.46 290.28 39.33C289.93 39.28 289.55 39.26 289.43 39.31V39.31Z" fill="#FF0000"/>
<path d="M282.82 46.93C282.38 46.99 282.25 47.1 282.27 47.39C282.27 47.68 282.53 47.85 283.58 48.25C284.53 48.61 284.82 48.6 285.35 48.18C285.75 47.86 285.84 47.58 285.62 47.34C285.45 47.17 283.36 46.86 282.82 46.93V46.93Z" fill="#FF0000"/>
</g>
<defs>
<clipPath id="clip0_1312_4177">
<rect width="303.41" height="69.36" fill="white"/>
</clipPath>
</defs>
</svg>
