<svg width="157" height="45" viewBox="0 0 157 45" fill="none" xmlns="http://www.w3.org/2000/svg">
<path d="M13.5181 24.9999L13.5181 17.9439L7.75806 17.9439L7.75806 19.9959L11.2321 19.9959C11.0521 21.1479 10.8541 21.6519 10.2061 22.2819C9.48606 22.9659 8.53206 23.3439 7.48806 23.3439C5.76006 23.3439 3.42006 22.2999 3.42006 18.3759C3.42006 15.7839 4.73406 13.5699 7.45206 13.5699C8.89206 13.5699 10.4401 14.2899 10.7281 15.9459L13.3201 15.9459C13.1761 14.7039 12.9961 14.0019 12.0961 13.1019C10.8721 11.9139 9.18006 11.4279 7.47006 11.4279C1.94406 11.4279 0.810058 16.1439 0.810057 18.6099C0.810056 22.2999 3.06006 25.4319 7.02006 25.4319C9.03606 25.4319 10.8541 24.6399 11.5381 22.7139L11.5921 23.6139L11.8081 24.9999L13.5181 24.9999Z" fill="#FF0000"/>
<path d="M25.4058 20.1939C25.4058 17.3859 23.5698 15.0819 20.3478 15.0819C17.5938 15.0819 15.2718 17.0079 15.2718 20.2299C15.2718 22.6059 16.5498 25.2339 20.2938 25.2339C23.8938 25.2339 25.4058 22.6779 25.4058 20.1939ZM22.9938 20.1579C22.9938 21.3639 22.6518 23.3439 20.4198 23.3439C18.7098 23.3439 17.7018 21.9759 17.7018 20.1399C17.7018 18.0159 19.0158 16.9719 20.3478 16.9719C21.6798 16.9719 22.9938 17.9439 22.9938 20.1579Z" fill="#FF0000"/>
<path d="M36.7437 20.1939C36.7437 17.3859 34.9077 15.0819 31.6857 15.0819C28.9317 15.0819 26.6097 17.0079 26.6097 20.2299C26.6097 22.6059 27.8877 25.2339 31.6317 25.2339C35.2317 25.2339 36.7437 22.6779 36.7437 20.1939ZM34.3317 20.1579C34.3317 21.3639 33.9897 23.3439 31.7577 23.3439C30.0477 23.3439 29.0397 21.9759 29.0397 20.1399C29.0397 18.0159 30.3537 16.9719 31.6857 16.9719C33.0177 16.9719 34.3317 17.9439 34.3317 20.1579Z" fill="#FF0000"/>
<path d="M47.1636 16.8279L47.1636 15.0819C46.1916 15.0819 45.9036 15.2259 45.1836 16.0359C44.8236 15.7119 44.0676 15.0819 42.3216 15.0819C40.1076 15.0819 38.2176 16.1439 38.2176 18.1959C38.2176 19.6539 39.0996 20.2479 39.5496 20.5359C39.0096 20.8779 38.1276 21.4359 38.1276 22.3539C38.1276 23.2359 38.9376 23.5239 39.4056 23.6859C38.9916 23.7579 37.8396 23.9559 37.8396 25.3419C37.8396 26.9259 39.6936 27.4119 41.9616 27.4119C44.9856 27.4119 46.8756 26.4939 46.8756 24.7659C46.8756 24.1359 46.6416 23.5779 46.2636 23.1999C45.5436 22.4799 44.4636 22.3719 41.9796 22.1919C41.3316 22.1379 40.5396 22.0479 40.5396 21.5979C40.5396 21.3459 40.7196 21.2199 41.1696 21.0939C41.4216 21.1299 41.6736 21.1659 42.1956 21.1659C44.9856 21.1659 46.1196 19.6539 46.1196 18.1059C46.1196 17.7639 46.0656 17.5659 46.0116 17.3859C46.5156 16.8279 46.7316 16.8279 47.1636 16.8279ZM43.9776 18.1419C43.9776 19.3299 42.5376 19.4019 42.1236 19.4019C41.6916 19.4019 40.3596 19.3659 40.3596 18.2319C40.3596 17.5119 40.9536 16.8819 42.2316 16.8819C43.1496 16.8819 43.9776 17.2239 43.9776 18.1419ZM44.3016 24.8919C44.3016 25.2879 44.1576 25.6479 42.3756 25.6479C40.3776 25.6479 40.3596 25.1799 40.3596 24.8739C40.3596 24.3699 40.6656 24.2259 41.3136 23.9919C41.5476 24.0099 42.6456 24.0279 42.8616 24.0459C43.5276 24.1179 44.3016 24.2979 44.3016 24.8919Z" fill="#FF0000"/>
<path d="M50.8835 24.9999L50.8835 11.8599L48.5075 11.8599L48.5075 24.9999L50.8835 24.9999Z" fill="#FF0000"/>
<path d="M61.5537 20.8599C61.4997 19.4919 61.4097 18.1779 60.5817 16.9179C59.8617 15.8199 58.6197 15.0819 57.0177 15.0819C54.6237 15.0819 52.4817 16.7199 52.4817 20.1759C52.4817 23.4879 54.4617 25.2339 57.0897 25.2339C60.2397 25.2339 61.0677 22.9479 61.3737 22.1379L58.9797 22.1379C58.5837 23.1999 57.6477 23.3079 57.2157 23.3079C55.3077 23.3079 54.9477 21.3459 54.8577 20.8599L61.5537 20.8599ZM58.9797 19.3119L54.8577 19.3119C54.9657 18.6999 55.2717 17.0259 57.0357 17.0259C58.2237 17.0259 58.9257 17.7999 58.9797 19.3119Z" fill="#FF0000"/>
<path d="M80.8438 24.9999L80.8438 11.8599L77.0458 11.8599L74.7058 20.9319L74.3998 23.0199L74.0938 20.9319L71.7718 11.8599L67.9558 11.8599L67.9558 24.9999L70.1878 24.9999L70.1878 13.4619L73.0858 24.9999L75.7138 24.9999L78.6118 13.4619L78.6118 24.9999L80.8438 24.9999Z" fill="#FF0000"/>
<path d="M92.0059 24.9999C91.5379 24.6939 91.4659 24.2259 91.4659 23.8839L91.4659 18.5559C91.4659 16.0539 89.5219 15.0819 87.2899 15.0819C85.9939 15.0819 83.3119 15.4779 83.1319 18.4839L85.2739 18.4839C85.3279 18.0159 85.3819 17.7999 85.6519 17.5299C86.2639 16.9179 87.2899 16.9359 87.5059 16.9359C88.2439 16.9359 89.0719 17.1699 89.0719 17.9439C89.0719 18.8439 87.9019 19.0419 86.8579 19.1859C84.6979 19.4919 82.6999 20.1579 82.6999 22.3899C82.6999 23.6139 83.4199 25.2339 86.0839 25.2339C88.3519 25.2339 88.9459 24.1179 89.2159 23.5959C89.2159 24.0099 89.2339 24.6399 89.5039 24.9999L92.0059 24.9999ZM89.1979 19.8519L89.0719 20.4819L89.0719 21.5799C89.0719 22.9299 87.6319 23.5419 86.6599 23.5419C85.7959 23.5419 85.1299 23.0019 85.1299 22.3179C85.1299 21.1479 86.4619 20.8239 87.3619 20.6799C88.3879 20.4999 88.7839 20.3379 89.1979 19.8519Z" fill="#FF0000"/>
<path d="M101.756 19.9779C101.756 17.5119 100.604 15.0819 97.8679 15.0819C96.1939 15.0819 95.6359 16.0719 95.2939 16.7019L95.3839 15.9279L95.3839 15.3159L93.0079 15.3159L93.0079 27.4119L95.3839 27.4119L95.3839 25.2879L95.2399 23.4519C95.4739 23.9199 95.5999 24.1179 95.8699 24.3879C96.4099 24.9279 97.1659 25.2339 97.9939 25.2339C100.46 25.2339 101.756 22.5879 101.756 19.9779ZM99.3799 20.0319C99.3799 21.3459 98.9119 23.2539 97.3459 23.2539C95.6359 23.2539 95.3839 21.3819 95.3839 20.1579C95.3839 18.7539 96.0319 17.1159 97.4539 17.1159C98.8579 17.1159 99.3799 18.6639 99.3799 20.0319Z" fill="#FF0000"/>
<path d="M118.436 16.3239C118.058 15.8919 117.698 15.5139 116.942 14.9559L116.186 15.8199C116.78 16.2519 117.212 16.6479 117.68 17.1879L118.436 16.3239ZM116.978 17.9619C116.528 17.4039 116.078 17.0259 115.484 16.5759L114.746 17.4399C115.448 17.9799 115.826 18.3399 116.222 18.8259L116.978 17.9619ZM117.572 13.2639L117.572 11.1759C114.17 12.2199 108.59 12.6519 104.702 12.6159L105.008 14.6319C106.808 14.3799 109.454 14.1639 111.866 13.9659C111.236 14.5419 110.336 15.3879 109.49 16.7019C108.716 17.8719 108.266 19.0779 108.266 20.2839C108.266 21.5079 108.734 22.6779 109.598 23.5239C111.056 24.9819 113.072 25.3599 114.026 25.5219L114.728 23.3259C113.99 23.2899 112.73 23.2359 111.56 22.4079C111.056 22.0479 110.264 21.3099 110.264 20.0679C110.264 18.6999 111.128 17.0799 112.46 15.7479C114.746 13.4439 116.726 13.3179 117.572 13.2639Z" fill="#FF0000"/>
<path d="M136.958 14.9739L136.958 11.8059L133.034 11.8059C133.178 11.3019 133.196 11.2479 133.34 11.1219C133.556 10.9239 133.61 10.8879 133.61 10.7439C133.61 10.5639 133.412 10.5099 133.25 10.4919L131.126 10.2759C131.072 10.7619 131.018 11.3739 130.91 11.8059L127.796 11.8059L127.796 15.1539L129.524 15.1539L129.524 13.3899L130.532 13.3899C129.668 16.0539 128.3 17.2959 127.436 17.9799L127.436 16.5759L124.538 16.5759C124.862 15.8919 125.348 14.7759 125.546 13.1919L127.274 13.1919L127.274 11.4279L121.586 11.4279L121.586 13.1919L123.656 13.1919C123.404 14.8479 122.846 17.1339 120.38 19.6179L121.964 20.8419C122.288 20.5179 122.468 20.2839 122.846 19.7079L122.846 25.8819L124.574 25.8819L124.574 23.6139L125.816 23.6139L125.816 24.4419L127.436 24.4419L127.436 18.7539L128.336 19.6359C128.642 19.4199 128.714 19.3659 129.038 19.0599L129.038 25.8819L130.784 25.8819L130.784 25.2699L136.922 25.2699L136.922 23.7219L134.258 23.7219L134.258 22.6239L136.022 22.6239L136.022 21.2199L134.258 21.2199L134.258 20.1759L136.022 20.1759L136.022 18.7539L134.258 18.7539L134.258 17.7639L136.904 17.7639L136.904 16.3059L133.916 16.3059C134.114 15.9999 134.618 15.2079 134.744 14.9919C134.906 14.9739 135.032 14.9379 135.032 14.7939C135.032 14.6679 134.942 14.6139 134.69 14.5419L133.214 14.1459C132.926 15.0639 132.656 15.6399 132.296 16.3059L131.306 16.3059C131.846 15.4599 132.26 14.4879 132.638 13.3899L135.194 13.3899L135.194 14.9739L136.958 14.9739ZM132.44 21.2199L130.784 21.2199L130.784 20.1759L132.44 20.1759L132.44 21.2199ZM132.44 18.7539L130.784 18.7539L130.784 17.7639L132.44 17.7639L132.44 18.7539ZM132.44 23.7219L130.784 23.7219L130.784 22.6239L132.44 22.6239L132.44 23.7219ZM125.816 21.9219L124.574 21.9219L124.574 18.3219L125.816 18.3219L125.816 21.9219Z" fill="#FF0000"/>
<path d="M154.616 10.8519L146.264 10.8519L146.264 12.6339L148.622 12.6339C148.586 13.0299 148.532 13.3359 148.406 13.8939C147.578 13.5519 147.254 13.4619 147.038 13.3899L146.138 14.9559C146.768 15.2079 147.128 15.3699 147.632 15.6039C147.236 16.1979 146.912 16.5759 145.706 17.4399L147.146 18.7179C148.172 17.9259 148.712 17.3319 149.288 16.4319C149.648 16.6119 149.954 16.7919 150.386 17.0619L150.674 16.5939L151.124 18.2319C150.548 17.7639 150.278 17.6019 150.08 17.4759L148.91 18.7899C149.216 19.0059 149.558 19.2399 150.278 19.8519L150.206 19.8339L148.334 19.7619L148.334 24.3699C148.334 25.2159 148.964 25.7739 149.882 25.7739L152.078 25.7739C152.834 25.7739 153.212 25.3779 153.824 23.4339L151.97 22.2999C151.898 22.7139 151.754 23.2719 151.61 23.6139C151.538 23.8119 151.412 23.9919 151.178 23.9919L150.728 23.9919C150.404 23.9919 150.296 23.8659 150.296 23.5239L150.296 20.5539C150.296 20.4639 150.584 20.2119 150.602 20.1399C150.872 20.3739 150.908 20.3919 151.25 20.6979L152.312 19.2939C152.024 18.9699 151.574 18.5919 151.34 18.3939C152.24 18.4299 153.194 18.3939 153.698 17.6019C154.742 15.9819 154.634 10.9779 154.616 10.8519ZM152.582 12.6339C152.528 13.7499 152.384 15.0099 152.24 15.7659C152.096 16.4679 151.88 16.5039 151.52 16.5039C151.268 16.5039 151.016 16.5039 150.746 16.4499L151.412 15.3699C151.16 15.2259 150.926 15.0639 150.116 14.6499C150.332 13.9479 150.422 13.4619 150.476 12.6339L152.582 12.6339ZM148.298 21.1839C148.298 21.0579 148.208 21.0039 148.1 20.9679L146.516 20.4819C146.228 21.9219 145.526 23.5959 145.436 23.8119L145.436 20.0859L140.018 20.0859L140.018 25.7559L141.728 25.7559L141.728 25.0179L143.708 25.0179L143.708 25.5399L145.436 25.5399L145.436 24.3879L146.93 24.7659C147.632 23.3979 148.01 21.5259 148.028 21.4179C148.118 21.3819 148.298 21.3279 148.298 21.1839ZM143.69 23.3619L141.728 23.3619L141.728 21.7239L143.69 21.7239L143.69 23.3619ZM155.66 22.8399C155.228 21.7959 154.454 20.5359 153.824 19.7799L152.384 20.6259C152.834 21.2739 153.608 22.5519 154.148 23.8839L155.66 22.8399ZM144.896 12.2199L144.896 10.6899L140.27 10.6899L140.27 12.2199L144.896 12.2199ZM145.706 14.6319L145.706 13.0659L139.604 13.0659L139.604 14.6319L145.706 14.6319ZM145.004 16.8639L145.004 15.3879L140.27 15.3879L140.27 16.8639L145.004 16.8639ZM145.04 19.2039L145.04 17.7099L140.27 17.7099L140.27 19.2039L145.04 19.2039Z" fill="#FF0000"/>
<path d="M0 44L157 44" stroke="#FF0000"/>
</svg>
