<svg width="64" height="126" viewBox="0 0 64 126" fill="none" xmlns="http://www.w3.org/2000/svg">
<path d="M29.1841 34.3441V7.65608L2.78406 7.65608L2.78406 34.4721H6.36806V33.2241H25.5681V34.3441H29.1841ZM25.5681 30.0561H10.0801C12.2561 28.9361 14.2721 27.6561 16.8001 25.2881C19.4241 27.1121 20.4801 28.2321 21.3441 29.1921L24.0001 26.4721C23.2001 25.6401 21.8561 24.3281 19.3601 22.5361C21.3761 20.0401 22.5281 17.9601 23.7441 15.4001C23.9361 15.1121 24.0001 15.0801 24.7041 14.7601C24.8961 14.6961 25.0241 14.6001 25.0241 14.3761C25.0241 14.0561 24.7041 13.8001 24.1601 13.6081L20.9281 12.4561C19.6481 15.8481 18.1441 18.3121 16.3521 20.5841C14.0161 19.2721 12.6721 18.6961 10.9441 18.1521L8.99206 20.9681C10.4001 21.3841 10.5601 21.4801 13.5041 23.1441C13.6001 23.1761 13.6961 23.2401 13.8241 23.3041C11.0721 25.7681 8.73606 26.6321 6.88006 27.1761L9.56806 30.0561H6.36806L6.36806 10.9201H25.5681V30.0561ZM18.2721 16.3601C17.9521 15.0801 17.4721 13.5761 16.0961 11.4321L13.0881 12.9041C14.1761 14.5041 14.7841 15.8161 15.2641 17.4801L18.2721 16.3601ZM13.0881 15.6881C11.8081 13.6721 10.4961 12.4881 9.76006 11.8801L7.16806 14.0241C8.73606 15.4001 9.63206 16.4241 10.5921 17.7361L13.0881 15.6881Z" fill="#00FFFF" style="mix-blend-mode:difference"/>
<path d="M45.8881 12.1041C43.6161 10.7281 42.5601 9.64008 41.6641 8.52008C41.7601 8.42408 41.7921 8.36008 41.7921 8.26408C41.7921 7.94408 41.3761 7.72008 41.2161 7.68808L38.4961 7.08008C37.3761 9.86408 35.1041 12.2321 32.6081 13.8001L35.0081 16.1681C35.2641 15.9441 35.3281 15.8481 35.5521 15.5921V17.6721H38.1761V19.5601H34.2401V22.8561H38.1761V29.9281C36.6401 30.0561 35.0081 30.2161 33.4401 30.2801L33.6961 33.6081C33.7281 33.8961 33.7601 34.4721 34.1121 34.4721C34.3361 34.4721 34.9441 33.6721 35.1361 33.6081C35.2641 33.5441 37.2161 33.2241 37.5361 33.1601C41.9841 32.3921 43.6161 32.0401 44.6721 31.7841L44.9281 28.8081C44.3521 28.9681 43.6801 29.1601 41.4721 29.5121V22.8561H44.5761V19.5601H41.4721V17.6721H43.9681V14.3761L45.8881 12.1041ZM62.1761 30.1841C58.4321 28.1041 55.6161 25.2561 54.8161 23.6241V20.6161H61.0561V17.5121H59.2961V7.94408L46.2401 7.94408V11.0161H55.8081V12.7441L47.6801 12.7441V15.6881H55.8081V17.5121H45.6321V20.6161H51.3921V25.7041C49.7281 26.9841 47.6481 27.8481 45.4401 28.5201L45.9841 31.2721C46.0161 31.4321 46.1441 32.0721 46.4961 32.0721C46.6561 32.0721 46.7521 31.8481 46.8801 31.5921C47.0401 31.3041 47.0721 31.2401 48.0001 30.8241C49.1521 30.3441 50.4001 29.6081 51.3921 29.0321V29.9921C51.3921 30.7601 50.9761 30.8881 50.3681 30.8881C49.4401 30.8881 48.7041 30.7921 48.2881 30.7601L49.6641 34.3761C53.6961 34.3121 54.8161 34.0561 54.8161 31.6561V28.2961C56.4161 30.5681 58.2081 31.8801 59.8401 32.9041L62.1761 30.1841ZM46.0801 24.8401C46.0801 24.8081 46.0801 24.4881 45.3761 24.3281L42.8481 23.7201C42.5601 25.9921 42.1121 27.1441 41.6001 28.2641L44.3841 28.9041C44.6081 28.3281 44.9921 27.3681 45.3441 25.2241C45.6321 25.1601 46.0801 25.0641 46.0801 24.8401ZM43.3921 14.3761H37.1201C37.7601 13.7361 38.6881 12.8401 39.9361 11.1121C40.8001 12.1681 41.6961 13.0321 43.3921 14.3761ZM61.1841 23.1121C61.1841 23.0161 61.1841 22.8241 60.7361 22.6001L58.0801 21.1921C57.1841 22.9201 56.6401 23.6241 55.8401 24.4881L58.4961 26.2161C59.4241 25.1601 60.2241 23.8481 60.4481 23.4001C60.8001 23.3681 61.1841 23.3361 61.1841 23.1121ZM51.0721 25.1921C50.5601 24.2001 49.9521 23.1441 48.4481 21.4161L45.8241 22.9841C46.6561 23.9761 47.3601 24.9041 48.2241 26.6641L51.0721 25.1921ZM37.9201 28.6481C37.6961 26.9841 37.3761 25.4801 36.6081 23.6241L33.8561 24.6161C34.4001 26.0561 34.7841 27.4001 35.2321 29.4161L37.9201 28.6481Z" fill="#00FFFF" style="mix-blend-mode:difference"/>
<path d="M29.0241 62.7761C29.0241 55.6401 23.7761 51.1281 17.1201 51.1281C8.86406 51.1281 3.00806 57.5921 3.00806 64.6961C3.00806 70.4241 8.25606 73.3041 9.40806 73.3041C11.0721 73.3041 12.5441 70.6161 13.5041 68.6321C14.5601 66.4881 16.4481 62.0081 17.4721 54.3921C18.6561 54.4881 20.8961 54.6161 22.9121 56.5361C24.7041 58.2321 25.2161 60.3761 25.2161 62.1361C25.2161 63.5441 24.8641 66.2001 22.9121 68.5041C20.9601 70.8401 18.5921 71.5121 17.1521 71.9281L19.5201 75.2241C21.2481 74.5201 24.5761 73.1441 26.9761 69.5921C28.1601 67.8321 29.0241 65.5921 29.0241 62.7761ZM13.6641 54.9681C13.0241 59.9601 10.2721 68.3121 8.60806 68.3121C8.03206 68.3121 6.56006 66.9681 6.56006 64.3761C6.56006 62.4241 7.48806 59.4481 9.76006 57.2721C11.2961 55.7681 12.7361 55.2881 13.6641 54.9681Z" fill="#00FFFF" style="mix-blend-mode:difference"/>
<path d="M30.4001 115.816C27.8401 114.376 26.5601 113.352 25.1521 111.752C25.8881 110.472 26.4641 109.448 27.2961 106.824C28.2241 103.88 28.5121 101.896 28.7361 100.296L27.4561 99.2721H17.8241C17.7601 96.6801 17.7281 96.0081 17.6641 94.6961H29.6001V91.4641H13.9521C14.1121 93.6081 14.4001 97.8001 14.4001 101C14.4001 102.92 14.3361 106.152 13.7601 109.128C13.4401 110.76 13.1201 111.656 12.6081 113.032C12.2241 112.52 11.5841 111.56 11.1361 110.6H12.3841L12.3841 91.5281H3.07206V110.6H4.60806C4.00006 113 3.32806 114.632 1.66406 117.032L4.92806 118.568C6.14406 116.488 7.07206 114.312 7.58406 112.904C7.61606 112.808 7.64806 112.808 7.77606 112.744C7.84006 112.712 8.12806 112.584 8.19206 112.552C8.64006 113.384 9.53606 114.696 10.1441 115.496L12.0641 114.248C11.5201 115.24 10.9761 116.072 9.92006 117.096L13.3761 118.568C14.0161 117.8 14.3681 117.288 14.8161 116.488L17.7601 118.92C20.0001 117.608 21.3441 116.552 23.0721 114.632C24.5761 116.392 25.6641 117.32 27.4241 118.408L30.4001 115.816ZM9.44006 102.184H6.01606V99.7841H9.44006V102.184ZM9.44006 107.432H6.01606V104.84H9.44006V107.432ZM9.44006 97.1281H6.01606V94.7281H9.44006V97.1281ZM24.7681 102.568C24.3201 105.768 23.5521 107.432 23.1041 108.488C22.4641 107.048 21.7601 104.488 21.4401 102.568H24.7681ZM21.0241 111.752C19.5841 113.448 17.9841 115.048 14.9441 116.264C16.9601 112.104 17.5681 108.68 17.8241 102.728C18.6241 107.208 20.2561 110.28 21.0241 111.752ZM10.4321 110.6L8.22406 112.072C8.16006 112.008 8.03206 111.944 7.96806 111.912L4.89606 110.6H10.4321Z" fill="#00FFFF" style="mix-blend-mode:difference"/>
<path d="M60.8961 112.712L57.4081 111.528C57.1521 114.44 56.6401 114.824 55.6161 114.824H53.1841C52.1601 114.824 51.9041 114.536 51.9041 113.544V107.784C51.9041 107.688 52.0321 107.56 52.0961 107.496C52.3521 107.336 52.4481 107.24 52.4481 107.048C52.4481 106.856 52.2881 106.728 52.0641 106.696L48.4161 106.312V115.752C48.4161 117.48 49.7281 118.248 51.3281 118.248H56.8001C58.6561 118.248 59.9361 117.768 60.8961 112.712ZM60.2241 108.744V102.44H34.5601V108.744H38.1121V105.384H56.6721V108.744H60.2241ZM60.6081 96.8401V93.8321H49.3121V92.9041C49.3121 92.7441 49.4401 92.6481 49.7281 92.3281C49.7921 92.2641 49.9201 92.1361 49.9201 92.0401C49.9201 91.8481 49.7281 91.7201 49.5041 91.6881L45.4721 91.3041V93.8321H34.3361V96.8401H45.4721V98.3761H37.1201V101.16H57.6001V98.3761H49.3121V96.8401H60.6081ZM46.4961 107.272C46.4961 107.08 46.3041 106.952 46.0481 106.92L42.1121 106.344C42.0161 111.752 39.9681 113.96 33.9841 115.816L36.6401 118.76C42.9121 116.424 44.7361 113.832 45.6641 108.168C45.6961 107.944 45.7281 107.816 46.1441 107.624C46.2721 107.56 46.4961 107.464 46.4961 107.272Z" fill="#00FFFF" style="mix-blend-mode:difference"/>
</svg>
