<svg width="94" height="36" viewBox="0 0 94 36" fill="none" xmlns="http://www.w3.org/2000/svg">
<path d="M16.1999 14.434L16.1999 12.526L5.99388 12.526C6.10188 12.346 6.53388 11.554 6.62388 11.392C6.69588 11.302 6.83988 11.23 7.12788 11.104C7.25388 11.05 7.32588 11.014 7.32588 10.888C7.32588 10.744 7.27188 10.654 6.74988 10.51L4.94988 10.042C4.15788 11.986 3.09588 13.768 1.22388 15.748L2.89788 16.72C3.95988 15.658 4.49988 14.848 4.78788 14.434L16.1999 14.434ZM16.3799 22.714L14.4899 21.724C14.1659 23.632 13.4099 24.262 11.9879 24.262L6.58787 24.262C6.01187 24.262 5.48987 24.1 5.48987 23.578C5.48987 22.84 8.27988 20.842 9.34188 20.086C9.86388 19.708 12.5099 18.088 12.8159 17.854L12.0599 16.504L3.63588 16.504L3.63588 18.376L8.38788 18.376C7.48788 18.97 5.50788 20.302 4.26588 21.634C3.52787 22.426 3.07787 23.092 3.07787 23.776C3.07787 25.162 4.49987 26.044 6.53387 26.044L12.8339 26.044C15.2639 26.044 15.6239 25.342 16.3799 22.714Z" fill="white"/>
<path d="M27.9899 10.816C25.9199 10.78 24.6779 10.69 22.5899 10.186L22.7519 12.4C24.6059 12.67 26.6039 12.814 27.7379 12.85L27.9899 10.816ZM30.3119 17.98C30.3119 17.224 30.1859 16.144 29.5379 15.424C28.7279 14.524 27.6119 14.434 27.1439 14.434C24.8399 14.434 21.4019 15.802 20.0699 16.324L20.8979 18.412C22.2119 17.764 25.1099 16.324 26.6039 16.324C27.1619 16.324 28.2239 16.648 28.2239 18.232C28.2239 19.546 27.6659 20.734 26.9099 21.67C25.4159 23.488 23.4719 24.064 22.4099 24.37L23.7959 26.098C25.0199 25.648 26.9459 24.964 28.4759 23.11C29.6639 21.67 30.3119 19.852 30.3119 17.98Z" fill="white"/>
<path d="M49.3559 11.608C48.8519 10.978 48.3479 10.528 47.8259 10.132L47.0519 10.942C47.7899 11.536 48.1499 11.968 48.5279 12.472L49.3559 11.608ZM48.3479 13.66C47.7899 12.886 47.3759 12.49 46.8539 12.058L46.0799 12.868C46.7099 13.372 47.1059 13.822 47.5739 14.47L48.3479 13.66ZM45.5759 13.462L44.7659 12.004C43.3979 12.202 42.0299 12.292 40.6619 12.292C39.1499 12.292 37.6199 12.184 36.1259 11.968L36.6659 13.948C37.5119 14.002 38.0339 14.02 39.1139 14.02C40.4819 14.02 41.1119 13.984 41.8859 13.93C41.2019 14.56 40.4819 15.208 40.0679 15.568L41.3099 16.864C42.7859 15.604 44.1719 14.434 45.5759 13.462ZM46.4219 24.154L46.2959 21.994C45.0359 22.246 43.4519 22.57 40.7339 22.57C37.6739 22.57 37.5479 22.066 37.5479 21.562C37.5479 20.914 38.2679 20.284 38.5559 20.05L36.9899 18.772C36.4499 19.258 35.2439 20.338 35.2439 21.958C35.2439 23.776 36.9719 24.532 41.0399 24.532C43.2359 24.532 45.0359 24.316 46.4219 24.154Z" fill="white"/>
<path d="M59.6159 13.606L59.6159 12.094L58.3919 12.094L58.3919 11.302C58.3919 11.212 58.4639 11.122 58.5179 11.068C58.5899 10.978 58.6439 10.924 58.6439 10.87C58.6439 10.816 58.5899 10.726 58.4099 10.708L56.5379 10.6L56.5379 12.094L54.6299 12.094L54.6299 11.158C54.6299 11.104 54.8819 10.906 54.8819 10.852C54.8819 10.708 54.7199 10.69 54.6479 10.69L52.7759 10.528L52.7759 12.094L51.4979 12.094L51.4979 13.606L52.7759 13.606L52.7759 19.528L51.3899 19.528L51.3899 21.04L59.5799 21.04L59.5799 19.528L58.3919 19.528L58.3919 13.606L59.6159 13.606ZM56.5379 17.044L54.6299 17.044L54.6299 16L56.5379 16L56.5379 17.044ZM56.5379 14.632L54.6299 14.632L54.6299 13.606L56.5379 13.606L56.5379 14.632ZM56.5379 19.528L54.6299 19.528L54.6299 18.412L56.5379 18.412L56.5379 19.528ZM66.4199 23.758L66.4199 11.122L60.4259 11.122C60.5159 12.832 60.5339 14.056 60.5339 14.704C60.5339 21.13 59.9219 22.822 57.7979 24.82L59.5619 25.882C60.9479 24.532 61.8839 22.372 62.1719 20.014L64.5659 20.014L64.5659 23.344C64.5659 23.992 64.3859 23.992 63.0539 23.938L63.6479 25.684C66.1319 25.612 66.4199 25.504 66.4199 23.758ZM64.5659 14.722L62.3879 14.722L62.3879 12.832L64.5659 12.832L64.5659 14.722ZM64.5659 18.322L62.3339 18.322C62.3699 17.746 62.3879 17.152 62.3879 16.414L64.5659 16.414L64.5659 18.322ZM58.4639 23.686C58.0139 23.11 57.4919 22.408 57.0599 21.544L55.6379 22.426C56.0159 23.236 56.4119 23.884 56.9699 24.604L58.4639 23.686ZM55.1519 22.66C55.1519 22.516 54.9899 22.408 54.8639 22.354L53.3879 21.634C52.7039 23.092 52.0199 23.956 51.2279 24.712L52.7939 25.63C53.2079 25.18 53.8559 24.442 54.6839 22.912C54.9359 22.84 55.1519 22.804 55.1519 22.66Z" fill="white"/>
<path d="M74.2679 11.734C74.2679 11.59 74.0519 11.446 73.9979 11.41L72.3779 10.294C71.4959 11.482 70.4339 12.58 68.7959 13.66L70.4339 15.136C71.8379 14.092 72.7199 13.066 73.4219 12.238C73.6559 11.986 73.6739 11.968 73.9439 11.95C74.0699 11.932 74.2679 11.932 74.2679 11.734ZM84.8519 17.35L84.8519 15.658L80.2799 15.658L80.2799 14.002L84.2759 14.002L84.2759 12.31L80.2799 12.31L80.2799 11.284C80.2799 11.158 80.3699 11.086 80.4419 11.014C80.4779 10.996 80.6579 10.852 80.6579 10.744C80.6579 10.51 80.2979 10.492 80.2439 10.492L78.1379 10.402L78.1379 12.31L74.7179 12.31L74.7179 14.002L78.1379 14.002L78.1379 15.658L74.1599 15.658C74.2679 15.622 74.4659 15.55 74.4659 15.334C74.4659 15.172 74.2319 15.046 74.1959 15.028L72.3959 14.092C71.4059 15.946 70.0559 17.566 68.4179 18.88L69.9839 20.194C70.5239 19.744 70.8299 19.456 71.0459 19.24L71.0459 26.332L73.0439 26.332L73.0439 18.16C73.0439 18.052 73.1159 17.944 73.1339 17.908C73.2779 17.71 73.3139 17.656 73.3139 17.584C73.3139 17.368 73.0259 17.278 72.8999 17.26C73.1339 16.972 73.5119 16.54 73.8179 16.072L73.8179 17.35L80.4419 17.35L80.4419 19.042L74.0879 19.042L74.0879 20.752L76.7159 20.752L75.1319 21.904C75.8159 22.678 76.2299 23.326 76.7879 24.298L78.5699 23.218C78.0299 22.264 77.4899 21.526 76.8779 20.752L80.4419 20.752L80.4419 23.722C80.4419 24.19 80.1539 24.28 79.8299 24.28C79.4879 24.28 78.8039 24.208 78.0839 24.136L79.2359 26.368C81.1079 26.332 82.4399 26.098 82.4399 24.46L82.4399 20.752L84.6539 20.752L84.6539 19.042L82.4399 19.042L82.4399 17.35L84.8519 17.35Z" fill="white"/>
<path d="M92.4659 15.514L92.4659 11.86L90.0359 11.86L90.0359 15.514L90.6659 21.454L91.8539 21.454L92.4659 15.514ZM92.4659 25L92.4659 22.57L90.0359 22.57L90.0359 25L92.4659 25Z" fill="white"/>
</svg>
