<svg width="200" height="39" viewBox="0 0 200 39" fill="none" xmlns="http://www.w3.org/2000/svg">
<path d="M18.4999 12.4401L17.6399 11.5801L11.9999 11.5801L12.4599 11.0601C12.3799 11.0201 12.0399 10.8401 11.9599 10.8001C14.2799 9.28006 15.7199 8.20006 16.9199 7.30006L15.9999 6.18006L3.11992 6.18006L3.11992 8.28006L11.7799 8.28006C10.8599 9.20006 10.3799 9.54006 9.95992 9.82006C8.11992 8.94006 7.59992 8.70006 7.05992 8.44006L6.01992 10.3401C7.35992 10.8601 7.97992 11.1801 8.69992 11.5801L1.41992 11.5801L1.41992 13.7601L8.77992 13.7601L8.77992 19.9201C8.77992 20.4801 8.61992 20.9201 8.01992 20.9201C7.43992 20.9201 6.49992 20.7201 6.15992 20.6401L7.07992 23.0201C10.2799 23.0001 11.1599 22.9201 11.1599 20.4001L11.1599 13.7601L14.9599 13.7601C13.8599 15.3001 13.2799 16.0401 12.4199 17.0401L14.3599 18.2801C15.3199 17.1001 16.2999 15.8601 18.4999 12.4401Z" fill="white"/>
<path d="M38.4399 12.4201L38.4399 8.68006L32.9599 8.68006C33.1999 8.20006 33.2399 8.06006 33.4799 7.42006C33.5799 7.16006 33.5999 7.14006 33.8999 7.00006C33.9799 6.96006 34.0399 6.90006 34.0399 6.80006C34.0399 6.70006 33.9399 6.64006 33.8399 6.60006L31.7199 5.90006C30.6199 9.20006 29.6599 10.6001 28.7599 11.7601L30.3199 13.0201C30.8799 12.4001 31.2399 11.8401 31.8199 10.8401L36.3599 10.8401L36.3599 12.2001C36.3599 15.2601 35.9999 17.9201 35.5999 19.2401C35.2199 20.5001 34.8199 20.6601 34.1799 20.6601C33.4599 20.6601 32.8199 20.5801 32.3999 20.5401L33.4999 22.8801L34.3599 22.8801C35.6599 22.8801 36.7399 22.6201 37.2999 21.0201C38.0399 18.9401 38.4399 15.2601 38.4399 12.4201ZM34.3599 17.0601C33.8199 15.1601 33.2999 13.9801 32.7999 13.0001L30.9999 13.7201C31.4399 14.6001 31.9799 15.7401 32.5599 17.6601L34.3599 17.0601ZM29.6599 15.3201C29.4599 14.1001 29.1599 12.9801 28.7399 11.8001L26.9399 12.2201C27.0799 12.6001 27.1799 13.0201 27.2799 13.3801C26.4199 13.4801 25.9999 13.5201 25.3599 13.5601C26.4799 12.3601 27.5599 11.1001 28.5799 9.80006C28.8599 9.44006 28.8799 9.40006 29.1999 9.38006C29.2199 9.38006 29.4199 9.34006 29.4199 9.16006C29.4199 9.12006 29.3999 9.00006 29.2799 8.94006L27.4599 7.84006C26.9799 8.66006 26.4399 9.54006 25.2799 11.1401C25.0199 10.8001 24.7999 10.5601 24.4599 10.2201C25.3399 9.08006 25.4999 8.84006 26.5199 7.30006C26.5599 7.24006 26.6199 7.20006 26.8799 7.08006C26.9599 7.04006 26.9999 6.98006 26.9999 6.92006C26.9999 6.88006 26.9599 6.80006 26.8599 6.74006L25.0799 5.78006C24.5799 6.96006 24.1199 7.90006 23.2599 9.14006C23.0799 8.98006 22.8999 8.84006 22.5799 8.62006L21.3399 10.3001C22.2599 10.9201 23.0999 11.5601 24.1199 12.7001C23.8399 13.0801 23.5399 13.4001 23.3399 13.6401C22.4999 13.6801 22.0599 13.6801 21.1999 13.6801L21.5999 16.0001C21.6199 16.1001 21.7199 16.1801 21.7799 16.1801C21.8799 16.1801 21.9399 16.1201 22.0999 15.9601C22.2599 15.7801 22.3999 15.7601 22.5399 15.7601C22.7999 15.7201 23.5999 15.6401 24.3199 15.5601L24.3199 22.9801L26.3599 22.9801L26.3599 15.2801C26.6999 15.2201 26.9799 15.2001 27.6799 15.0201C27.7599 15.4001 27.7999 15.6601 27.8399 15.8401L29.6599 15.3201ZM29.6799 20.2401C29.4399 19.5201 29.0799 18.2601 28.8399 16.5001L27.2199 16.8401C27.3799 18.1601 27.5799 19.1801 27.9999 20.6801L29.6799 20.2401ZM24.0199 17.2801C24.0199 17.1601 23.7799 17.1001 23.6599 17.0801L22.0199 16.7801C21.8799 19.0401 21.5599 20.2401 21.1799 21.3001L22.8999 21.7601C23.4799 20.3201 23.5999 19.2801 23.6999 17.6201C23.9199 17.4601 24.0199 17.3801 24.0199 17.2801Z" fill="white"/>
<path d="M58.6599 13.3001L58.6599 11.7401L55.5199 11.7401V10.8401L57.3199 10.8401V9.42006L55.5199 9.42006V8.52006L58.4799 8.52006L58.4799 6.92006L55.5199 6.92006C55.5199 6.50006 55.5199 6.44006 55.6999 6.30006C55.8599 6.18006 55.8799 6.10006 55.8799 6.02006C55.8799 5.88006 55.7399 5.84006 55.4799 5.82006L53.4599 5.70006V6.92006L51.6399 6.92006V6.56006C51.6399 6.48006 51.7599 6.38006 51.8399 6.34006C51.8799 6.30006 52.0399 6.20006 52.0399 6.10006C52.0399 5.92006 51.7999 5.88006 51.5999 5.86006L49.6199 5.70006V6.92006L47.6199 6.92006L47.6199 8.52006L49.6199 8.52006V9.42006L47.9999 9.42006V10.8401L49.6199 10.8401V11.7401L47.4999 11.7401L47.4999 13.3001L51.4799 13.3001V13.8801L47.9199 13.8801L47.9199 18.4801H47.0199V20.0401H47.9199L47.9199 22.9801L49.8799 22.9801L49.8799 20.0401L55.1199 20.0401L55.1199 20.4001C55.1199 20.7801 54.7599 20.9401 54.4199 20.9401C54.1799 20.9401 53.7599 20.9001 53.1399 20.7801L53.9399 22.9401L55.1399 22.9401C56.0599 22.9401 57.0799 22.7001 57.0799 21.6001L57.0799 20.0401L58.4799 20.0401V18.4801L57.0799 18.4801L57.0799 13.8801L53.4799 13.8801V13.3001L58.6599 13.3001ZM55.1199 16.2601L53.4799 16.2601L53.4799 15.3201L55.1199 15.3201L55.1199 16.2601ZM55.1199 18.4801L53.4799 18.4801V17.5201L55.1199 17.5201V18.4801ZM51.4799 16.2601H49.8799L49.8799 15.3201L51.4799 15.3201L51.4799 16.2601ZM51.4799 18.4801H49.8799V17.5201H51.4799V18.4801ZM53.4599 9.42006L51.6399 9.42006V8.52006L53.4599 8.52006V9.42006ZM53.4599 11.7401L51.6399 11.7401V10.8401L53.4599 10.8401V11.7401ZM47.5599 21.4401C47.1999 20.7201 46.6199 19.4001 46.2799 18.3801H46.9799L46.9799 6.08006L41.7799 6.08006L41.7799 18.3801H42.4399C42.2599 19.0601 41.9199 20.2601 40.6799 22.0001L42.6599 22.7001C43.3599 21.6201 43.8399 20.3601 44.0799 19.7401C44.0999 19.6801 44.1199 19.6401 44.3199 19.5801C44.4799 19.5401 44.4999 19.5201 44.5399 19.4401C44.7799 20.2001 45.1799 21.3201 45.7199 22.4001L47.5599 21.4401ZM45.3199 13.0001L43.5799 13.0001L43.5799 11.3001L45.3199 11.3001L45.3199 13.0001ZM45.3199 16.4801L43.5799 16.4801L43.5799 14.7001L45.3199 14.7001L45.3199 16.4801ZM45.3199 9.56006L43.5799 9.56006V7.90006L45.3199 7.90006V9.56006ZM46.0199 18.3801L44.3999 19.1601L42.9799 18.3801L46.0199 18.3801Z" fill="white"/>
<path d="M79.0999 21.1001C78.0199 20.5001 75.6999 19.1601 73.8799 15.7801C72.3999 13.0201 72.0399 10.3001 72.0399 8.18006C72.0399 7.54006 72.0599 6.78006 72.1199 6.16006L65.6999 6.16006V8.54006L69.7399 8.54006C69.7599 9.34006 69.7799 9.72006 69.8399 10.3201L68.0799 9.88006C67.9199 11.2201 67.5999 13.8401 65.7799 16.7401C64.0399 19.4801 61.9999 20.8201 60.9199 21.5201L63.0599 23.0401C66.5199 20.6401 68.6599 17.2201 70.1799 12.5201C70.4599 13.7001 70.9599 15.8401 72.5599 18.3601C74.1999 20.9201 75.9199 22.2401 76.8199 22.9401L79.0999 21.1001Z" fill="white"/>
<path d="M98.3999 19.1001C96.5999 17.8801 95.7399 17.5401 94.9599 17.2201C94.7399 14.9801 94.6999 14.0201 94.6799 11.8601C95.3199 11.7401 96.3599 11.5801 97.1799 11.3001L97.1799 9.14006C96.4199 9.60006 95.2599 9.84006 94.6999 9.96006C94.7999 8.86006 94.8599 7.98006 94.9799 7.48006C95.1799 7.36006 95.3599 7.26006 95.3599 7.16006C95.3599 7.04006 95.2999 6.94006 94.8799 6.88006L92.6399 6.52006C92.5999 8.50006 92.5999 8.72006 92.5599 10.2201C91.9999 10.2801 91.4599 10.3401 90.6999 10.3401C89.7599 10.3401 89.2599 10.2801 88.8999 10.2201L88.9199 12.2801C90.1599 12.3401 91.2399 12.2601 92.5399 12.1201C92.5799 13.4801 92.6399 14.3201 92.7999 16.7001C92.3999 16.6601 91.9799 16.6201 91.5799 16.6201C89.6399 16.6201 88.0599 17.4001 88.0599 19.2001C88.0599 22.0801 91.4199 22.0801 91.9999 22.0801C94.7199 22.0801 95.1199 21.0401 95.1599 19.5001C95.9999 20.0001 96.5399 20.4001 97.2599 21.0801L98.3999 19.1001ZM86.9799 17.3401L85.7199 16.4801L84.8999 17.6801C84.7999 16.8601 84.7999 15.8001 84.7999 15.5801C84.7999 14.0401 85.3599 10.2801 85.5399 9.38006C85.5999 9.14006 85.8399 8.12006 85.9799 8.02006C86.0399 8.00006 86.2999 7.90006 86.3599 7.86006C86.4199 7.82006 86.4399 7.76006 86.4399 7.72006C86.4399 7.52006 86.0199 7.34006 85.9599 7.32006L84.0199 6.56006C83.2399 9.62006 82.7999 12.7601 82.7999 15.9201C82.7999 18.0201 82.9599 20.1201 83.5599 22.1201L85.3999 21.8201C85.6199 20.2201 86.5399 18.2801 86.9799 17.3401ZM92.9199 18.6001C92.9599 19.6401 92.9999 20.1001 91.6799 20.1001C90.4999 20.1001 89.9199 19.6801 89.9199 19.2201C89.9199 18.7601 90.5599 18.4201 91.4999 18.4201C92.0999 18.4201 92.6199 18.5401 92.9199 18.6001Z" fill="white"/>
<path d="M115.36 9.16006L114.42 7.48006C112.96 7.68006 111.48 7.72006 110.02 7.72006C108.2 7.72006 106.4 7.56006 104.62 7.26006L105.16 9.56006C106.34 9.66006 107.7 9.68006 111.02 9.68006L108.98 11.4001L110.44 12.9801C111.54 12.0601 113.6 10.3601 115.36 9.16006ZM116.16 21.2601L116.04 18.7801C114.54 19.0801 113.24 19.3201 109.8 19.3201C108.92 19.3201 106.96 19.3201 106.4 18.8401C106.28 18.7401 106.12 18.5801 106.12 18.2001C106.12 17.5201 106.8 16.9001 107.3 16.4801L105.46 14.9801C104.52 15.9001 103.46 17.0201 103.46 18.8001C103.46 19.6401 103.8 20.0801 104.12 20.3601C105.28 21.4601 108.14 21.6201 109.92 21.6201C112.24 21.6201 114.4 21.4201 116.16 21.2601Z" fill="white"/>
<path d="M136.64 17.4401C136.64 15.0001 134.66 13.4001 132.2 13.4001C131.38 13.4001 129.98 13.6201 127.96 14.9401C128.36 13.6201 128.78 12.0401 128.94 11.4201C131.44 11.0601 132.74 10.7401 134.5 10.0801V7.90006C132.98 8.64006 131.8 9.02006 129.44 9.46006C129.54 9.04006 130.02 7.08006 130.12 6.70006C130.36 6.56006 130.62 6.56006 130.62 6.34006C130.62 6.20006 130.34 6.12006 130.2 6.08006L127.92 5.56006C127.78 7.12006 127.42 8.78006 127.2 9.72006C126.88 9.74006 126.54 9.76006 126.16 9.76006C126.04 9.76006 124.74 9.76006 123.36 9.44006L123.64 11.5601C124.44 11.6401 125.34 11.6401 125.52 11.6401C125.9 11.6401 126.34 11.6401 126.76 11.6001C126.44 12.9001 125.88 15.1201 125.2 16.8601L126.88 18.1801C128.4 16.7601 130.04 15.2801 131.88 15.2801C133.26 15.2801 134.48 16.2001 134.48 17.5601C134.48 19.2201 132.66 20.8401 128.7 20.8401C128.46 20.8401 127.32 20.8401 126.1 20.6801L126.76 22.9601C129.06 22.9201 132.08 22.8201 133.84 21.9201C135.6 21.0201 136.64 19.3601 136.64 17.4401Z" fill="white"/>
<path d="M152.52 8.02006C150.98 7.10006 149.08 6.38006 147.74 5.96006L146.88 7.94006C149.26 8.78006 150.22 9.30006 151.5 10.1201L152.52 8.02006ZM156.2 16.9401C156.2 14.0401 153.86 12.5601 151.76 12.5601C150.74 12.5601 148.64 12.9401 146.84 14.5801C147.1 13.0801 147.52 11.6001 148.04 10.1801L145.74 9.28006C145.3 10.8001 144.34 14.2001 144.18 16.9201L145.92 17.8401C147.98 15.4401 150 14.6401 151.38 14.6401C152.88 14.6401 153.9 15.4601 153.9 16.7401C153.9 18.5801 152.2 20.5201 148.48 20.5201C147.56 20.5201 146.62 20.3801 145.98 20.3001L147.04 22.7601C149.52 22.7001 156.2 22.5801 156.2 16.9401Z" fill="white"/>
<path d="M178.14 14.6001C178.14 13.8801 177.64 11.5201 175.02 8.72006L173.36 9.92006C174.46 11.1801 175.58 13.1801 175.58 13.8001C175.58 14.2801 175.12 14.3201 174.26 14.4001L175.62 16.4601C176.9 16.2201 178.14 15.7401 178.14 14.6001ZM173.4 13.7201C173.4 12.5001 173.18 10.2801 170.46 10.2801C169.92 10.2801 169.32 10.3601 168.88 10.4401C169.02 9.68006 169.16 8.98006 169.26 8.26006C169.28 8.06006 169.32 8.04006 169.68 7.82006C169.9 7.68006 169.94 7.62006 169.94 7.54006C169.94 7.36006 169.54 7.24006 169.38 7.22006L166.94 6.88006C166.92 8.54006 166.74 9.60006 166.5 10.8801C165.62 11.0201 163.78 11.3601 162.32 11.4801L163.12 13.9001C164.16 13.5201 164.98 13.2801 165.96 13.0401C164.78 16.8401 163.76 18.6201 162 20.8601L164.28 21.8801C166.32 18.5601 167.38 16.2201 168.42 12.5601C168.8 12.5001 169.2 12.4601 169.56 12.4601C171 12.4601 171.22 13.1001 171.22 14.1601C171.22 16.1801 170.38 18.6001 170 19.1401C169.72 19.5401 169.4 19.6401 168.8 19.6401C168.02 19.6401 167.44 19.4601 167 19.3201L167.28 21.7401C167.84 21.8201 168.46 21.8601 169 21.8601C169.86 21.8601 171.14 21.7801 172 20.3201C173.06 18.4801 173.4 15.3801 173.4 13.7201Z" fill="white"/>
<path d="M192.52 8.02006C190.98 7.10006 189.08 6.38006 187.74 5.96006L186.88 7.94006C189.26 8.78006 190.22 9.30006 191.5 10.1201L192.52 8.02006ZM196.2 16.9401C196.2 14.0401 193.86 12.5601 191.76 12.5601C190.74 12.5601 188.64 12.9401 186.84 14.5801C187.1 13.0801 187.52 11.6001 188.04 10.1801L185.74 9.28006C185.3 10.8001 184.34 14.2001 184.18 16.9201L185.92 17.8401C187.98 15.4401 190 14.6401 191.38 14.6401C192.88 14.6401 193.9 15.4601 193.9 16.7401C193.9 18.5801 192.2 20.5201 188.48 20.5201C187.56 20.5201 186.62 20.3801 185.98 20.3001L187.04 22.7601C189.52 22.7001 196.2 22.5801 196.2 16.9401Z" fill="white"/>
<path d="M0 38H200" stroke="white" stroke-width="1.5"/>
</svg>
