<svg width="126" height="45" viewBox="0 0 126 45" fill="none" xmlns="http://www.w3.org/2000/svg">
<path d="M16.7939 25.504L16.7939 23.56L12.4199 23.56L12.4199 19.924L15.5519 19.924L15.5519 17.854L12.4199 17.854L12.4199 15.01L16.6499 15.01L16.6499 12.994L11.8439 12.994L12.6179 12.346C12.1139 11.626 11.5559 10.996 10.5119 10.258L8.89193 11.5C9.50393 11.968 9.93593 12.382 10.4219 12.994L6.20993 12.994L6.20993 15.01L10.0979 15.01L10.0979 17.854L6.83992 17.854L6.83992 19.924L10.0979 19.924L10.0979 23.56L5.65192 23.56L5.65192 25.504L16.7939 25.504ZM6.35393 12.004C5.50793 11.248 4.67993 10.762 3.47393 10.276L2.44793 12.004C3.63593 12.526 4.39193 12.976 5.21993 13.66L6.35393 12.004ZM4.85992 16.288C3.88792 15.478 2.96992 14.992 1.69193 14.524L0.773925 16.36C2.19592 16.936 3.02392 17.404 3.88792 18.016L4.85992 16.288ZM5.79592 20.428L4.19392 19.114C2.95192 22.12 1.69192 23.794 1.00792 24.658L2.26792 25.576C2.42992 25.702 2.82592 25.954 3.00592 25.954C3.16792 25.954 3.25792 25.81 3.25792 25.666C3.25792 25.612 3.22192 25.324 3.22192 25.252C3.22192 25.18 3.25792 25.126 3.56392 24.604C3.67192 24.424 4.84192 22.444 5.79592 20.428Z" fill="#FF0000"/>
<path d="M32.3639 21.616L32.3639 16.288L21.7079 16.288L21.7079 21.616L26.9279 21.616L26.2979 22.156C26.8559 22.714 27.1619 23.074 27.5759 23.632L28.9619 22.84C28.7639 22.57 28.5479 22.264 27.8459 21.616L32.3639 21.616ZM30.3299 18.268L23.6879 18.268L23.6879 17.44L30.3299 17.44L30.3299 18.268ZM30.3299 20.284L23.6879 20.284L23.6879 19.438L30.3299 19.438L30.3299 20.284ZM34.8119 15.55L34.8119 13.984L30.6359 13.984C30.8879 13.552 30.9779 13.318 31.1399 12.922L33.6959 12.922L33.6959 11.446L28.0619 11.446L28.0619 11.122C28.0619 11.068 28.0799 11.032 28.1879 10.96C28.2599 10.924 28.3679 10.852 28.3679 10.78C28.3679 10.708 28.2599 10.618 28.0079 10.6L25.8659 10.474L25.8659 11.446L20.2319 11.446L20.2319 12.922L22.7879 12.922C22.9139 13.156 23.0759 13.462 23.2559 13.984L19.2059 13.984L19.2059 15.55L34.8119 15.55ZM28.8719 12.922C28.7279 13.336 28.6199 13.57 28.4219 13.984L25.5419 13.984C25.4339 13.732 25.2539 13.354 24.9839 12.922L28.8719 12.922ZM34.6499 24.532C33.9839 23.542 33.4439 22.876 32.6879 22.084L31.2659 22.894C31.8959 23.56 32.4359 24.208 33.3179 25.522L34.6499 24.532ZM31.2479 23.668L29.6279 22.93C29.6279 23.704 29.4479 24.262 28.9619 24.262L25.8299 24.262C25.4879 24.262 25.3799 24.01 25.3799 23.848L25.3799 22.642C25.3799 22.588 25.4519 22.516 25.5419 22.426C25.5959 22.372 25.6499 22.318 25.6499 22.246C25.6499 22.174 25.5419 22.084 25.2719 22.066L23.7239 21.994L23.7239 24.64C23.7239 25.468 24.1199 25.864 25.4699 25.864L29.5199 25.864C31.0139 25.864 31.1939 24.1 31.2479 23.668ZM23.0039 23.092C23.0039 22.966 22.8239 22.84 22.7159 22.786L21.4019 22.012C20.9159 22.912 20.0879 24.046 19.4039 24.802L20.8619 25.72C21.4559 24.982 21.9959 24.19 22.4999 23.38C22.5539 23.29 22.5719 23.29 22.7699 23.254C22.8239 23.254 23.0039 23.236 23.0039 23.092Z" fill="#FF0000"/>
<path d="M52.5779 21.04L52.5779 19.636L51.5699 19.636L51.5699 17.548L45.9899 17.548L45.9899 16.864L50.3999 16.864L50.3999 13.552L45.9899 13.552L45.9899 12.922L52.5059 12.922L52.5059 11.374L45.9899 11.374L45.9899 11.032C45.9899 10.942 46.0619 10.888 46.0979 10.87C46.2599 10.744 46.2959 10.726 46.2959 10.618C46.2959 10.51 46.1699 10.474 46.0799 10.456L43.9559 10.186L43.9559 11.374L37.4219 11.374L37.4219 12.922L43.9559 12.922L43.9559 13.552L39.5279 13.552L39.5279 16.864L43.9559 16.864L43.9559 17.548L38.4659 17.548L38.4659 18.952L43.9559 18.952L43.9559 19.636L37.4219 19.636L37.4219 21.04L43.9559 21.04L43.9559 21.814L38.4659 21.814L38.4659 23.218L43.9559 23.218L43.9559 23.758C43.9559 24.082 43.6859 24.172 43.3979 24.172C43.0919 24.172 42.5879 24.118 42.1199 24.082L43.0199 26.044C45.5399 26.026 45.9899 25.558 45.9899 24.514L45.9899 23.218L49.6799 23.218L49.6799 23.704L51.5699 23.704L51.5699 21.04L52.5779 21.04ZM48.5459 15.64L45.9899 15.64L45.9899 14.776L48.5459 14.776L48.5459 15.64ZM43.9559 15.64L41.3639 15.64L41.3639 14.776L43.9559 14.776L43.9559 15.64ZM49.6799 19.636L45.9899 19.636L45.9899 18.952L49.6799 18.952L49.6799 19.636ZM49.6799 21.814L45.9899 21.814L45.9899 21.04L49.6799 21.04L49.6799 21.814Z" fill="#FF0000"/>
<path d="M71.0279 24.496C69.1739 23.992 68.2199 23.326 67.5899 22.84L69.8399 22.84L69.8399 13.948L66.1859 13.948C66.5999 13.084 66.7079 12.724 66.8159 12.4L70.7579 12.4L70.7579 10.78L60.9479 10.78L60.9479 11.914L55.2059 11.914L55.2059 13.66L57.1319 13.66L57.1319 20.104C56.4119 20.248 55.6199 20.41 54.8639 20.518L55.2059 22.516C55.2059 22.588 55.2419 22.66 55.3499 22.66C55.4399 22.66 55.4579 22.642 55.6019 22.498C55.7099 22.39 55.8179 22.354 56.1779 22.282C58.5179 21.76 60.4619 21.148 61.2359 20.896L61.2359 19.096C60.5339 19.33 59.5799 19.564 59.1839 19.654L59.1839 13.66L61.3259 13.66L61.3259 12.4L64.6199 12.4C64.4759 13.03 64.3499 13.39 64.1519 13.948L61.9019 13.948L61.9019 22.84L63.2879 22.84C62.3879 23.74 61.4879 24.262 60.1379 24.73L61.5419 26.062C62.8199 25.522 63.7559 24.802 64.5659 24.118C64.7639 23.956 64.7999 23.956 65.0699 23.92C65.0879 23.92 65.2499 23.884 65.2499 23.776C65.2499 23.722 65.2319 23.668 65.1959 23.632L64.3859 22.84L67.3919 22.84L66.3119 23.884C67.4819 24.982 68.6879 25.504 69.8219 25.918L71.0279 24.496ZM67.8419 18.826L63.8999 18.826L63.8999 17.836L67.8419 17.836L67.8419 18.826ZM67.8419 16.468L63.8999 16.468L63.8999 15.496L67.8419 15.496L67.8419 16.468ZM67.8419 21.238L63.8999 21.238L63.8999 20.194L67.8419 20.194L67.8419 21.238Z" fill="#FF0000"/>
<path d="M87.2819 17.998L86.6699 15.946C85.8239 16.324 85.5899 16.432 83.4839 17.422C83.0699 16.234 82.2779 15.604 81.0359 15.604C80.2619 15.604 79.7219 15.874 79.4879 15.982C79.7939 15.514 79.9379 15.262 80.5139 14.2C81.7199 14.056 83.1959 13.894 84.8159 13.516L84.9419 11.5C83.8799 11.914 83.0699 12.148 81.4139 12.418C81.5039 12.22 81.9539 11.212 81.9719 11.194C81.9899 11.194 82.3499 11.032 82.3859 11.014C82.4939 10.978 82.5659 10.924 82.5659 10.816C82.5659 10.69 82.2599 10.654 82.2059 10.636L79.9559 10.24C79.7399 11.032 79.5059 11.662 79.0559 12.634C77.4899 12.688 76.6979 12.652 75.6179 12.562L75.8339 14.434C76.5899 14.434 77.1479 14.416 78.1739 14.362C76.9499 16.504 76.0499 17.782 74.6279 19.312L76.3919 20.41C77.3819 18.79 78.4619 17.152 80.2259 17.152C81.2699 17.152 81.4859 17.8 81.5939 18.34C78.8939 19.726 77.2379 20.572 77.2379 22.804C77.2379 23.056 77.2379 23.848 77.9219 24.568C79.0559 25.774 81.1439 25.774 82.1519 25.774C82.7279 25.774 84.7259 25.774 86.4359 25.504L86.4359 23.47C84.9239 23.812 83.3939 24.046 81.8459 24.046C80.5319 24.046 79.1459 23.812 79.1459 22.642C79.1459 21.382 81.0179 20.446 81.7019 20.104C81.6839 20.896 81.6659 21.778 81.6119 22.804L83.6999 22.804C83.6999 22.192 83.6639 19.96 83.6639 19.258C84.9959 18.754 85.8599 18.448 87.2819 17.998Z" fill="#FF0000"/>
<path d="M106.722 14.9741L106.722 11.8061L102.798 11.8061C102.942 11.3021 102.96 11.2481 103.104 11.1221C103.32 10.9241 103.374 10.8881 103.374 10.7441C103.374 10.5641 103.176 10.5101 103.014 10.4921L100.89 10.2761C100.836 10.7621 100.782 11.3741 100.674 11.8061L97.5599 11.8061L97.5599 15.1541L99.2879 15.1541L99.2879 13.3901L100.296 13.3901C99.4319 16.0541 98.0639 17.2961 97.1999 17.9801L97.1999 16.5761L94.3019 16.5761C94.6259 15.8921 95.1119 14.7761 95.3099 13.1921L97.0379 13.1921L97.0379 11.4281L91.3499 11.4281L91.3499 13.1921L93.4199 13.1921C93.1679 14.8481 92.6099 17.1341 90.1439 19.6181L91.7279 20.8421C92.0519 20.5181 92.2319 20.2841 92.6099 19.7081L92.6099 25.8821L94.3379 25.8821L94.3379 23.6141L95.5799 23.6141L95.5799 24.4421L97.1999 24.4421L97.1999 18.7541L98.0999 19.6361C98.4059 19.4201 98.4779 19.3661 98.8019 19.0601L98.8019 25.8821L100.548 25.8821L100.548 25.2701L106.686 25.2701L106.686 23.7221L104.022 23.7221L104.022 22.6241L105.786 22.6241L105.786 21.2201L104.022 21.2201L104.022 20.1761L105.786 20.1761L105.786 18.7541L104.022 18.7541L104.022 17.7641L106.668 17.7641L106.668 16.3061L103.68 16.3061C103.878 16.0001 104.382 15.2081 104.508 14.9921C104.67 14.9741 104.796 14.9381 104.796 14.7941C104.796 14.6681 104.706 14.6141 104.454 14.5421L102.978 14.1461C102.69 15.0641 102.42 15.6401 102.06 16.3061L101.07 16.3061C101.61 15.4601 102.024 14.4881 102.402 13.3901L104.958 13.3901L104.958 14.9741L106.722 14.9741ZM102.204 21.2201L100.548 21.2201L100.548 20.1761L102.204 20.1761L102.204 21.2201ZM102.204 18.7541L100.548 18.7541L100.548 17.7641L102.204 17.7641L102.204 18.7541ZM102.204 23.7221L100.548 23.7221L100.548 22.6241L102.204 22.6241L102.204 23.7221ZM95.5799 21.9221L94.3379 21.9221L94.3379 18.3221L95.5799 18.3221L95.5799 21.9221Z" fill="#FF0000"/>
<path d="M124.38 10.8521L116.028 10.8521L116.028 12.6341L118.386 12.6341C118.35 13.0301 118.296 13.3361 118.17 13.8941C117.342 13.5521 117.018 13.4621 116.802 13.3901L115.902 14.9561C116.532 15.2081 116.892 15.3701 117.396 15.6041C117 16.1981 116.676 16.5761 115.47 17.4401L116.91 18.7181C117.936 17.9261 118.476 17.3321 119.052 16.4321C119.412 16.6121 119.718 16.7921 120.15 17.0621L120.438 16.5941L120.888 18.2321C120.312 17.7641 120.042 17.6021 119.844 17.4761L118.674 18.7901C118.98 19.0061 119.322 19.2401 120.042 19.8521L119.97 19.8341L118.098 19.7621L118.098 24.3701C118.098 25.2161 118.728 25.7741 119.646 25.7741L121.842 25.7741C122.598 25.7741 122.976 25.3781 123.588 23.4341L121.734 22.3001C121.662 22.7141 121.518 23.2721 121.374 23.6141C121.302 23.8121 121.176 23.9921 120.942 23.9921L120.492 23.9921C120.168 23.9921 120.06 23.8661 120.06 23.5241L120.06 20.5541C120.06 20.4641 120.348 20.2121 120.366 20.1401C120.636 20.3741 120.672 20.3921 121.014 20.6981L122.076 19.2941C121.788 18.9701 121.338 18.5921 121.104 18.3941C122.004 18.4301 122.958 18.3941 123.462 17.6021C124.506 15.9821 124.398 10.9781 124.38 10.8521ZM122.346 12.6341C122.292 13.7501 122.148 15.0101 122.004 15.7661C121.86 16.4681 121.644 16.5041 121.284 16.5041C121.032 16.5041 120.78 16.5041 120.51 16.4501L121.176 15.3701C120.924 15.2261 120.69 15.0641 119.88 14.6501C120.096 13.9481 120.186 13.4621 120.24 12.6341L122.346 12.6341ZM118.062 21.1841C118.062 21.0581 117.972 21.0041 117.864 20.9681L116.28 20.4821C115.992 21.9221 115.29 23.5961 115.2 23.8121L115.2 20.0861L109.782 20.0861L109.782 25.7561L111.492 25.7561L111.492 25.0181L113.472 25.0181L113.472 25.5401L115.2 25.5401L115.2 24.3881L116.694 24.7661C117.396 23.3981 117.774 21.5261 117.792 21.4181C117.882 21.3821 118.062 21.3281 118.062 21.1841ZM113.454 23.3621L111.492 23.3621L111.492 21.7241L113.454 21.7241L113.454 23.3621ZM125.424 22.8401C124.992 21.7961 124.218 20.5361 123.588 19.7801L122.148 20.6261C122.598 21.2741 123.372 22.5521 123.912 23.8841L125.424 22.8401ZM114.66 12.2201L114.66 10.6901L110.034 10.6901L110.034 12.2201L114.66 12.2201ZM115.47 14.6321L115.47 13.0661L109.368 13.0661L109.368 14.6321L115.47 14.6321ZM114.768 16.8641L114.768 15.3881L110.034 15.3881L110.034 16.8641L114.768 16.8641ZM114.804 19.2041L114.804 17.7101L110.034 17.7101L110.034 19.2041L114.804 19.2041Z" fill="#FF0000"/>
<path d="M0 44L126 44" stroke="#FF0000"/>
</svg>
