<svg width="32" height="140" viewBox="0 0 32 140" fill="none" xmlns="http://www.w3.org/2000/svg">
<path d="M29.1518 9.55199L26.2078 6.57599C26.0158 6.79999 25.5038 7.27999 25.0878 7.27999L3.55176 7.27999V10.736H23.5838C21.8878 13.648 19.7438 15.824 17.7598 17.648L20.7358 20.176C24.2238 16.752 27.5838 11.856 29.1518 9.55199ZM18.0798 12.08C18.0798 11.824 17.9838 11.824 17.3118 11.792L13.5678 11.6C13.8238 18.256 12.3198 23.344 5.56776 28.016L8.99176 30.032C10.6878 28.784 16.0958 24.784 17.1838 15.632C17.2478 15.216 17.3758 12.976 17.4398 12.912C17.4718 12.784 17.8558 12.464 17.9198 12.368C18.0158 12.24 18.0798 12.176 18.0798 12.08Z" fill="#FF0000"/>
<path d="M27.0398 46.056L24.4478 43.016C23.9358 43.336 23.4238 43.624 23.0398 43.624H15.8718C16.1918 43.016 16.5758 42.376 16.7678 41.896C17.2158 41.768 17.5678 41.704 17.5678 41.448C17.5678 41.128 16.9278 40.84 16.7358 40.776L13.4398 39.528C12.1598 43.368 9.18376 48.136 4.60776 51.816L7.77576 53.992C11.0078 50.888 12.7678 48.424 13.8558 46.856H22.0478C21.5358 48.584 20.5758 51.56 17.8238 55.272C14.0158 60.392 9.79176 62.568 7.80776 63.624L11.2958 66.024C13.3438 64.744 16.7358 62.6 19.9678 58.44C23.1038 54.408 24.5118 50.696 25.6638 47.592C25.9198 46.92 26.3998 46.504 27.0398 46.056Z" fill="#FF0000"/>
<path d="M28.5438 83.84L25.8238 81.088C25.4078 81.44 25.0238 81.792 24.4158 81.856L14.2718 83.072V76.992C14.2718 76.832 14.3358 76.768 14.7198 76.416C14.9758 76.192 15.0078 76.128 15.0078 76.032C15.0078 75.68 14.3998 75.616 13.8558 75.552L10.7198 75.168V83.456L3.87176 84.288L4.15976 87.68L10.7198 86.912V95.296C10.7198 98.656 11.2958 99.776 18.9438 99.776C19.6158 99.776 22.9118 99.776 26.0798 99.424L26.1118 95.552C22.7198 96.128 21.0558 96.32 18.1438 96.32C14.5598 96.32 14.2718 95.872 14.2718 93.984V86.496L23.0398 85.408C21.7278 87.616 19.8398 89.984 18.9438 91.104L21.8878 92.8C23.1998 91.136 25.1198 88.48 27.2318 85.216C27.5838 84.64 27.9358 84.352 28.5438 83.84Z" fill="#FF0000"/>
<path d="M28.1598 131.16C25.5358 128.312 22.7838 125.592 19.6798 123.256C21.6958 120.12 22.3038 118.648 23.3918 116.088C23.7758 115.16 24.4798 114.616 25.1198 114.168L22.6558 111.448C22.0798 111.832 21.5998 112.152 20.9918 112.152H7.19976V115.864H19.3918C18.6558 117.688 17.4078 120.92 13.9518 124.6C9.88776 128.92 5.82376 130.616 3.74376 131.512L6.55976 134.424C12.5758 131.48 14.9438 129.048 17.5038 126.2C20.1278 128.312 22.3998 130.616 25.3118 134.2L28.1598 131.16Z" fill="#FF0000"/>
</svg>
