<svg width="240" height="45" viewBox="0 0 240 45" fill="none" xmlns="http://www.w3.org/2000/svg">
<path d="M22.32 18.56L22.32 16.16L17.184 16.16C18.12 14.456 18.336 13.976 18.768 12.92C18.816 12.8 18.84 12.8 19.104 12.68C19.2 12.632 19.272 12.56 19.272 12.488C19.272 12.272 18.984 12.128 18.864 12.08L17.112 11.312L21.264 11.312L21.264 8.98397L13.344 8.98397L13.344 7.61597C13.344 7.54397 13.416 7.47197 13.584 7.32797C13.704 7.23197 13.8 7.13597 13.8 7.01597C13.8 6.84797 13.632 6.77597 13.368 6.75197L10.752 6.46397L10.752 8.98397L2.83202 8.98397L2.83202 11.312L6.43202 11.312L4.58402 12.176C5.18402 13.16 6.04802 15.128 6.48002 16.16L1.65602 16.16L1.65602 18.56L8.90402 18.56C7.22402 21.032 4.72802 23.168 1.41602 24.968L3.45602 26.912C7.03202 24.704 9.04802 22.592 10.752 20.144L10.752 27.176L13.344 27.176L13.344 20.528C14.52 22.208 16.368 24.704 20.136 26.72L22.104 24.656C19.224 23.192 16.56 21.296 14.856 18.56L22.32 18.56ZM16.608 11.312C16.128 12.728 15.672 14.024 14.832 15.416L16.056 16.16L13.344 16.16L13.344 11.312L16.608 11.312ZM10.752 16.16L7.34402 16.16L8.88002 15.32C8.44802 14.024 7.48802 11.96 7.00802 11.312L10.752 11.312L10.752 16.16Z" fill="#FF0000"/>
<path d="M44.28 14.552L44.28 6.99197L34.536 6.99197L34.536 14.552L44.28 14.552ZM41.952 10.016L36.864 10.016V9.00797L41.952 9.00797V10.016ZM41.952 12.752L36.864 12.752L36.864 11.72L41.952 11.72L41.952 12.752ZM46.08 17.408L46.08 15.464L32.76 15.464V17.408L35.04 17.408C34.56 18.416 34.128 19.064 33.288 19.976L33.288 17.984C32.496 18.272 31.704 18.512 30.864 18.752L30.864 13.856L33.36 13.856L33.36 11.384L30.864 11.384L30.864 7.83197C30.864 7.66397 31.056 7.54397 31.176 7.47197C31.32 7.35197 31.44 7.25597 31.44 7.08797C31.44 6.91997 31.272 6.84797 31.128 6.82397L28.344 6.60797L28.344 11.384L26.016 11.384L26.016 13.856L28.344 13.856L28.344 19.448C27.504 19.664 26.448 19.928 25.68 20.072L26.112 22.76C26.136 22.88 26.232 22.928 26.28 22.928C26.4 22.928 26.472 22.832 26.736 22.544C26.88 22.376 26.976 22.352 27.864 22.136C28.56 21.968 31.2 21.08 32.832 20.456C31.896 21.272 31.392 21.632 30.72 22.04L32.616 23.312C33.648 22.544 34.608 21.704 35.832 20.264L36.936 20.264C36.456 21.008 34.392 23.624 31.224 25.064L33.096 26.384C34.44 25.52 35.712 24.536 36.864 23.408C38.16 22.16 38.88 20.864 39.216 20.264L40.416 20.264C39.552 21.896 37.56 24.488 34.944 26.024L36.744 27.224C38.16 26.288 39 25.448 39.696 24.704L40.656 27.056C42.576 27.032 43.752 26.696 44.472 25.568C45.312 24.248 45.768 20.72 45.792 18.272L37.056 18.272C37.2 18.032 37.368 17.696 37.488 17.408L46.08 17.408ZM43.248 20.264C43.176 21.536 43.056 22.808 42.48 23.936C42.216 24.464 41.832 24.608 41.208 24.608C41.112 24.608 40.608 24.608 39.912 24.464C41.688 22.472 42.24 21.272 42.672 20.264H43.248Z" fill="#FF0000"/>
<path d="M70.2 14.528L69.168 13.496L62.4 13.496L62.952 12.872C62.856 12.824 62.448 12.608 62.352 12.56C65.136 10.736 66.864 9.43997 68.304 8.35997L67.2 7.01597L51.744 7.01597L51.744 9.53597L62.136 9.53597C61.032 10.64 60.456 11.048 59.952 11.384C57.744 10.328 57.12 10.04 56.472 9.72797L55.224 12.008C56.832 12.632 57.576 13.016 58.44 13.496L49.704 13.496V16.112L58.536 16.112L58.536 23.504C58.536 24.176 58.344 24.704 57.624 24.704C56.928 24.704 55.8 24.464 55.392 24.368L56.496 27.224C60.336 27.2 61.392 27.104 61.392 24.08L61.392 16.112L65.952 16.112C64.632 17.96 63.936 18.848 62.904 20.048L65.232 21.536C66.384 20.12 67.56 18.632 70.2 14.528Z" fill="#FF0000"/>
<path d="M94.128 14.504L94.128 10.016L87.552 10.016C87.84 9.43997 87.888 9.27197 88.176 8.50397C88.296 8.19197 88.32 8.16797 88.68 7.99997C88.776 7.95197 88.848 7.87997 88.848 7.75997C88.848 7.63997 88.728 7.56797 88.608 7.51997L86.064 6.67997C84.744 10.64 83.592 12.32 82.512 13.712L84.384 15.224C85.056 14.48 85.488 13.808 86.184 12.608L91.632 12.608V14.24C91.632 17.912 91.2 21.104 90.72 22.688C90.264 24.2 89.784 24.392 89.016 24.392C88.152 24.392 87.384 24.296 86.88 24.248L88.2 27.056H89.232C90.792 27.056 92.088 26.744 92.76 24.824C93.648 22.328 94.128 17.912 94.128 14.504ZM89.232 20.072C88.584 17.792 87.96 16.376 87.36 15.2L85.2 16.064C85.728 17.12 86.376 18.488 87.072 20.792L89.232 20.072ZM83.592 17.984C83.352 16.52 82.992 15.176 82.488 13.76L80.328 14.264C80.496 14.72 80.616 15.224 80.736 15.656C79.704 15.776 79.2 15.824 78.432 15.872C79.776 14.432 81.072 12.92 82.296 11.36C82.632 10.928 82.656 10.88 83.04 10.856C83.064 10.856 83.304 10.808 83.304 10.592C83.304 10.544 83.28 10.4 83.136 10.328L80.952 9.00797C80.376 9.99197 79.728 11.048 78.336 12.968C78.024 12.56 77.76 12.272 77.352 11.864C78.408 10.496 78.6 10.208 79.824 8.35997C79.872 8.28797 79.944 8.23997 80.256 8.09597C80.352 8.04797 80.4 7.97597 80.4 7.90397C80.4 7.85597 80.352 7.75997 80.232 7.68797L78.096 6.53597C77.496 7.95197 76.944 9.07997 75.912 10.568C75.696 10.376 75.48 10.208 75.096 9.94397L73.608 11.96C74.712 12.704 75.72 13.472 76.944 14.84C76.608 15.296 76.248 15.68 76.008 15.968C75 16.016 74.472 16.016 73.44 16.016L73.92 18.8C73.944 18.92 74.064 19.016 74.136 19.016C74.256 19.016 74.328 18.944 74.52 18.752C74.712 18.536 74.88 18.512 75.048 18.512C75.36 18.464 76.32 18.368 77.184 18.272L77.184 27.176L79.632 27.176L79.632 17.936C80.04 17.864 80.376 17.84 81.216 17.624C81.312 18.08 81.36 18.392 81.408 18.608L83.592 17.984ZM83.616 23.888C83.328 23.024 82.896 21.512 82.608 19.4L80.664 19.808C80.856 21.392 81.096 22.616 81.6 24.416L83.616 23.888ZM76.824 20.336C76.824 20.192 76.536 20.12 76.392 20.096L74.424 19.736C74.256 22.448 73.872 23.888 73.416 25.16L75.48 25.712C76.176 23.984 76.32 22.736 76.44 20.744C76.704 20.552 76.824 20.456 76.824 20.336Z" fill="#FF0000"/>
<path d="M118.08 22.52C115.92 21.056 114.888 20.648 113.952 20.264C113.688 17.576 113.64 16.424 113.616 13.832C114.384 13.688 115.632 13.496 116.616 13.16V10.568C115.704 11.12 114.312 11.408 113.64 11.552C113.76 10.232 113.832 9.17597 113.976 8.57597C114.216 8.43197 114.432 8.31197 114.432 8.19197C114.432 8.04797 114.36 7.92797 113.856 7.85597L111.168 7.42397C111.12 9.79997 111.12 10.064 111.072 11.864C110.4 11.936 109.752 12.008 108.84 12.008C107.712 12.008 107.112 11.936 106.68 11.864L106.704 14.336C108.192 14.408 109.488 14.312 111.048 14.144C111.096 15.776 111.168 16.784 111.36 19.64C110.88 19.592 110.376 19.544 109.896 19.544C107.568 19.544 105.672 20.48 105.672 22.64C105.672 26.096 109.704 26.096 110.4 26.096C113.664 26.096 114.144 24.848 114.192 23C115.2 23.6 115.848 24.08 116.712 24.896L118.08 22.52ZM104.376 20.408L102.864 19.376L101.88 20.816C101.76 19.832 101.76 18.56 101.76 18.296C101.76 16.448 102.432 11.936 102.648 10.856C102.72 10.568 103.008 9.34397 103.176 9.22397C103.248 9.19997 103.56 9.07997 103.632 9.03197C103.704 8.98397 103.728 8.91197 103.728 8.86397C103.728 8.62397 103.224 8.40797 103.152 8.38397L100.824 7.47197C99.888 11.144 99.36 14.912 99.36 18.704C99.36 21.224 99.552 23.744 100.272 26.144L102.48 25.784C102.744 23.864 103.848 21.536 104.376 20.408ZM111.504 21.92C111.552 23.168 111.6 23.72 110.016 23.72C108.6 23.72 107.904 23.216 107.904 22.664C107.904 22.112 108.672 21.704 109.8 21.704C110.52 21.704 111.144 21.848 111.504 21.92Z" fill="#FF0000"/>
<path d="M138.432 10.592L137.304 8.57597C135.552 8.81597 133.776 8.86397 132.024 8.86397C129.84 8.86397 127.68 8.67197 125.544 8.31197L126.192 11.072C127.608 11.192 129.24 11.216 133.224 11.216L130.776 13.28L132.528 15.176C133.848 14.072 136.32 12.032 138.432 10.592ZM139.392 25.112L139.248 22.136C137.448 22.496 135.888 22.784 131.76 22.784C130.704 22.784 128.352 22.784 127.68 22.208C127.536 22.088 127.344 21.896 127.344 21.44C127.344 20.624 128.16 19.88 128.76 19.376L126.552 17.576C125.424 18.68 124.152 20.024 124.152 22.16C124.152 23.168 124.56 23.696 124.944 24.032C126.336 25.352 129.768 25.544 131.904 25.544C134.688 25.544 137.28 25.304 139.392 25.112Z" fill="#FF0000"/>
<path d="M163.968 20.528C163.968 17.6 161.592 15.68 158.64 15.68C157.656 15.68 155.976 15.944 153.552 17.528C154.032 15.944 154.536 14.048 154.728 13.304C157.728 12.872 159.288 12.488 161.4 11.696V9.07997C159.576 9.96797 158.16 10.424 155.328 10.952C155.448 10.448 156.024 8.09597 156.144 7.63997C156.432 7.47197 156.744 7.47197 156.744 7.20797C156.744 7.03997 156.408 6.94397 156.24 6.89597L153.504 6.27197C153.336 8.14397 152.904 10.136 152.64 11.264C152.256 11.288 151.848 11.312 151.392 11.312C151.248 11.312 149.688 11.312 148.032 10.928L148.368 13.472C149.328 13.568 150.408 13.568 150.624 13.568C151.08 13.568 151.608 13.568 152.112 13.52C151.728 15.08 151.056 17.744 150.24 19.832L152.256 21.416C154.08 19.712 156.048 17.936 158.256 17.936C159.912 17.936 161.376 19.04 161.376 20.672C161.376 22.664 159.192 24.608 154.44 24.608C154.152 24.608 152.784 24.608 151.32 24.416L152.112 27.152C154.872 27.104 158.496 26.984 160.608 25.904C162.72 24.824 163.968 22.832 163.968 20.528Z" fill="#FF0000"/>
<path d="M183.024 9.22397C181.176 8.11997 178.896 7.25597 177.288 6.75197L176.256 9.12797C179.112 10.136 180.264 10.76 181.8 11.744L183.024 9.22397ZM187.44 19.928C187.44 16.448 184.632 14.672 182.112 14.672C180.888 14.672 178.368 15.128 176.208 17.096C176.52 15.296 177.024 13.52 177.648 11.816L174.888 10.736C174.36 12.56 173.208 16.64 173.016 19.904L175.104 21.008C177.576 18.128 180 17.168 181.656 17.168C183.456 17.168 184.68 18.152 184.68 19.688C184.68 21.896 182.64 24.224 178.176 24.224C177.072 24.224 175.944 24.056 175.176 23.96L176.448 26.912C179.424 26.84 187.44 26.696 187.44 19.928Z" fill="#FF0000"/>
<path d="M213.768 17.12C213.768 16.256 213.168 13.424 210.024 10.064L208.032 11.504C209.352 13.016 210.696 15.416 210.696 16.16C210.696 16.736 210.144 16.784 209.112 16.88L210.744 19.352C212.28 19.064 213.768 18.488 213.768 17.12ZM208.08 16.064C208.08 14.6 207.816 11.936 204.552 11.936C203.904 11.936 203.184 12.032 202.656 12.128C202.824 11.216 202.992 10.376 203.112 9.51197C203.136 9.27197 203.184 9.24797 203.616 8.98397C203.88 8.81597 203.928 8.74397 203.928 8.64797C203.928 8.43197 203.448 8.28797 203.256 8.26397L200.328 7.85597C200.304 9.84797 200.088 11.12 199.8 12.656C198.744 12.824 196.536 13.232 194.784 13.376L195.744 16.28C196.992 15.824 197.976 15.536 199.152 15.248C197.736 19.808 196.512 21.944 194.4 24.632L197.136 25.856C199.584 21.872 200.856 19.064 202.104 14.672C202.56 14.6 203.04 14.552 203.472 14.552C205.2 14.552 205.464 15.32 205.464 16.592C205.464 19.016 204.456 21.92 204 22.568C203.664 23.048 203.28 23.168 202.56 23.168C201.624 23.168 200.928 22.952 200.4 22.784L200.736 25.688C201.408 25.784 202.152 25.832 202.8 25.832C203.832 25.832 205.368 25.736 206.4 23.984C207.672 21.776 208.08 18.056 208.08 16.064Z" fill="#FF0000"/>
<path d="M231.024 9.22397C229.176 8.11997 226.896 7.25597 225.288 6.75197L224.256 9.12797C227.112 10.136 228.264 10.76 229.8 11.744L231.024 9.22397ZM235.44 19.928C235.44 16.448 232.632 14.672 230.112 14.672C228.888 14.672 226.368 15.128 224.208 17.096C224.52 15.296 225.024 13.52 225.648 11.816L222.888 10.736C222.36 12.56 221.208 16.64 221.016 19.904L223.104 21.008C225.576 18.128 228 17.168 229.656 17.168C231.456 17.168 232.68 18.152 232.68 19.688C232.68 21.896 230.64 24.224 226.176 24.224C225.072 24.224 223.944 24.056 223.176 23.96L224.448 26.912C227.424 26.84 235.44 26.696 235.44 19.928Z" fill="#FF0000"/>
<path d="M0 44H240" stroke="#FF0000"/>
</svg>
