<svg width="180" height="45" viewBox="0 0 180 45" fill="none" xmlns="http://www.w3.org/2000/svg">
<path d="M16.74 19.4201L16.74 17.6201L12.888 17.6201C13.59 16.3421 13.752 15.9821 14.076 15.1901C14.112 15.1001 14.13 15.1001 14.328 15.0101C14.4 14.9741 14.454 14.9201 14.454 14.8661C14.454 14.7041 14.238 14.5961 14.148 14.5601L12.834 13.9841L15.948 13.9841L15.948 12.2381L10.008 12.2381L10.008 11.2121C10.008 11.1581 10.062 11.1041 10.188 10.9961C10.278 10.9241 10.35 10.8521 10.35 10.7621C10.35 10.6361 10.224 10.5821 10.026 10.5641L8.06401 10.3481L8.06401 12.2381L2.12401 12.2381L2.12401 13.9841L4.82401 13.9841L3.43801 14.6321C3.88801 15.3701 4.53601 16.8461 4.86001 17.6201L1.24201 17.6201L1.24201 19.4201L6.67801 19.4201C5.41801 21.2741 3.54601 22.8761 1.06201 24.2261L2.59201 25.6841C5.27401 24.0281 6.78601 22.4441 8.06401 20.6081L8.06401 25.8821L10.008 25.8821L10.008 20.8961C10.89 22.1561 12.276 24.0281 15.102 25.5401L16.578 23.9921C14.418 22.8941 12.42 21.4721 11.142 19.4201L16.74 19.4201ZM12.456 13.9841C12.096 15.0461 11.754 16.0181 11.124 17.0621L12.042 17.6201L10.008 17.6201L10.008 13.9841L12.456 13.9841ZM8.06401 17.6201L5.50801 17.6201L6.66001 16.9901C6.33601 16.0181 5.61601 14.4701 5.25601 13.9841L8.06401 13.9841L8.06401 17.6201Z" fill="#00FFFF" style="mix-blend-mode:difference"/>
<path d="M33.21 16.4141L33.21 10.7441L25.902 10.7441L25.902 16.4141L33.21 16.4141ZM31.464 13.0121L27.648 13.0121L27.648 12.2561L31.464 12.2561L31.464 13.0121ZM31.464 15.0641L27.648 15.0641L27.648 14.2901L31.464 14.2901L31.464 15.0641ZM34.56 18.5561L34.56 17.0981L24.57 17.0981L24.57 18.5561L26.28 18.5561C25.92 19.3121 25.596 19.7981 24.966 20.4821L24.966 18.9881C24.372 19.2041 23.778 19.3841 23.148 19.5641L23.148 15.8921L25.02 15.8921L25.02 14.0381L23.148 14.0381L23.148 11.3741C23.148 11.2481 23.292 11.1581 23.382 11.1041C23.49 11.0141 23.58 10.9421 23.58 10.8161C23.58 10.6901 23.454 10.6361 23.346 10.6181L21.258 10.4561L21.258 14.0381L19.512 14.0381L19.512 15.8921L21.258 15.8921L21.258 20.0861C20.628 20.2481 19.836 20.4461 19.26 20.5541L19.584 22.5701C19.602 22.6601 19.674 22.6961 19.71 22.6961C19.8 22.6961 19.854 22.6241 20.052 22.4081C20.16 22.2821 20.232 22.2641 20.898 22.1021C21.42 21.9761 23.4 21.3101 24.624 20.8421C23.922 21.4541 23.544 21.7241 23.04 22.0301L24.462 22.9841C25.236 22.4081 25.956 21.7781 26.874 20.6981L27.702 20.6981C27.342 21.2561 25.794 23.2181 23.418 24.2981L24.822 25.2881C25.83 24.6401 26.784 23.9021 27.648 23.0561C28.62 22.1201 29.16 21.1481 29.412 20.6981L30.312 20.6981C29.664 21.9221 28.17 23.8661 26.208 25.0181L27.558 25.9181C28.62 25.2161 29.25 24.5861 29.772 24.0281L30.492 25.7921C31.932 25.7741 32.814 25.5221 33.354 24.6761C33.984 23.6861 34.326 21.0401 34.344 19.2041L27.792 19.2041C27.9 19.0241 28.026 18.7721 28.116 18.5561L34.56 18.5561ZM32.436 20.6981C32.382 21.6521 32.292 22.6061 31.86 23.4521C31.662 23.8481 31.374 23.9561 30.906 23.9561C30.834 23.9561 30.456 23.9561 29.934 23.8481C31.266 22.3541 31.68 21.4541 32.004 20.6981L32.436 20.6981Z" fill="#00FFFF" style="mix-blend-mode:difference"/>
<path d="M52.65 16.3961L51.876 15.6221L46.8 15.6221L47.214 15.1541C47.142 15.1181 46.836 14.9561 46.764 14.9201C48.852 13.5521 50.148 12.5801 51.228 11.7701L50.4 10.7621L38.808 10.7621L38.808 12.6521L46.602 12.6521C45.774 13.4801 45.342 13.7861 44.964 14.0381C43.308 13.2461 42.84 13.0301 42.354 12.7961L41.418 14.5061C42.624 14.9741 43.182 15.2621 43.83 15.6221L37.278 15.6221L37.278 17.5841L43.902 17.5841L43.902 23.1281C43.902 23.6321 43.758 24.0281 43.218 24.0281C42.696 24.0281 41.85 23.8481 41.544 23.7761L42.372 25.9181C45.252 25.9001 46.044 25.8281 46.044 23.5601L46.044 17.5841L49.464 17.5841C48.474 18.9701 47.952 19.6361 47.178 20.5361L48.924 21.6521C49.788 20.5901 50.67 19.4741 52.65 16.3961Z" fill="#00FFFF" style="mix-blend-mode:difference"/>
<path d="M70.596 16.3781L70.596 13.0121L65.664 13.0121C65.88 12.5801 65.916 12.4541 66.132 11.8781C66.222 11.6441 66.24 11.6261 66.51 11.5001C66.582 11.4641 66.636 11.4101 66.636 11.3201C66.636 11.2301 66.546 11.1761 66.456 11.1401L64.548 10.5101C63.558 13.4801 62.694 14.7401 61.884 15.7841L63.288 16.9181C63.792 16.3601 64.116 15.8561 64.638 14.9561L68.724 14.9561L68.724 16.1801C68.724 18.9341 68.4 21.3281 68.04 22.5161C67.698 23.6501 67.338 23.7941 66.762 23.7941C66.114 23.7941 65.538 23.7221 65.16 23.6861L66.15 25.7921L66.924 25.7921C68.094 25.7921 69.066 25.5581 69.57 24.1181C70.236 22.2461 70.596 18.9341 70.596 16.3781ZM66.924 20.5541C66.438 18.8441 65.97 17.7821 65.52 16.9001L63.9 17.5481C64.296 18.3401 64.782 19.3661 65.304 21.0941L66.924 20.5541ZM62.694 18.9881C62.514 17.8901 62.244 16.8821 61.866 15.8201L60.246 16.1981C60.372 16.5401 60.462 16.9181 60.552 17.2421C59.778 17.3321 59.4 17.3681 58.824 17.4041C59.832 16.3241 60.804 15.1901 61.722 14.0201C61.974 13.6961 61.992 13.6601 62.28 13.6421C62.298 13.6421 62.478 13.6061 62.478 13.4441C62.478 13.4081 62.46 13.3001 62.352 13.2461L60.714 12.2561C60.282 12.9941 59.796 13.7861 58.752 15.2261C58.518 14.9201 58.32 14.7041 58.014 14.3981C58.806 13.3721 58.95 13.1561 59.868 11.7701C59.904 11.7161 59.958 11.6801 60.192 11.5721C60.264 11.5361 60.3 11.4821 60.3 11.4281C60.3 11.3921 60.264 11.3201 60.174 11.2661L58.572 10.4021C58.122 11.4641 57.708 12.3101 56.934 13.4261C56.772 13.2821 56.61 13.1561 56.322 12.9581L55.206 14.4701C56.034 15.0281 56.79 15.6041 57.708 16.6301C57.456 16.9721 57.186 17.2601 57.006 17.4761C56.25 17.5121 55.854 17.5121 55.08 17.5121L55.44 19.6001C55.458 19.6901 55.548 19.7621 55.602 19.7621C55.692 19.7621 55.746 19.7081 55.89 19.5641C56.034 19.4021 56.16 19.3841 56.286 19.3841C56.52 19.3481 57.24 19.2761 57.888 19.2041L57.888 25.8821L59.724 25.8821L59.724 18.9521C60.03 18.8981 60.282 18.8801 60.912 18.7181C60.984 19.0601 61.02 19.2941 61.056 19.4561L62.694 18.9881ZM62.712 23.4161C62.496 22.7681 62.172 21.6341 61.956 20.0501L60.498 20.3561C60.642 21.5441 60.822 22.4621 61.2 23.8121L62.712 23.4161ZM57.618 20.7521C57.618 20.6441 57.402 20.5901 57.294 20.5721L55.818 20.3021C55.692 22.3361 55.404 23.4161 55.062 24.3701L56.61 24.7841C57.132 23.4881 57.24 22.5521 57.33 21.0581C57.528 20.9141 57.618 20.8421 57.618 20.7521Z" fill="#00FFFF" style="mix-blend-mode:difference"/>
<path d="M88.56 22.3901C86.94 21.2921 86.166 20.9861 85.464 20.6981C85.266 18.6821 85.23 17.8181 85.212 15.8741C85.788 15.7661 86.724 15.6221 87.462 15.3701L87.462 13.4261C86.778 13.8401 85.734 14.0561 85.23 14.1641C85.32 13.1741 85.374 12.3821 85.482 11.9321C85.662 11.8241 85.824 11.7341 85.824 11.6441C85.824 11.5361 85.77 11.4461 85.392 11.3921L83.376 11.0681C83.34 12.8501 83.34 13.0481 83.304 14.3981C82.8 14.4521 82.314 14.5061 81.63 14.5061C80.784 14.5061 80.334 14.4521 80.01 14.3981L80.028 16.2521C81.144 16.3061 82.116 16.2341 83.286 16.1081C83.322 17.3321 83.376 18.0881 83.52 20.2301C83.16 20.1941 82.782 20.1581 82.422 20.1581C80.676 20.1581 79.254 20.8601 79.254 22.4801C79.254 25.0721 82.278 25.0721 82.8 25.0721C85.248 25.0721 85.608 24.1361 85.644 22.7501C86.4 23.2001 86.886 23.5601 87.534 24.1721L88.56 22.3901ZM78.282 20.8061L77.148 20.0321L76.41 21.1121C76.32 20.3741 76.32 19.4201 76.32 19.2221C76.32 17.8361 76.824 14.4521 76.986 13.6421C77.04 13.4261 77.256 12.5081 77.382 12.4181C77.436 12.4001 77.67 12.3101 77.724 12.2741C77.778 12.2381 77.796 12.1841 77.796 12.1481C77.796 11.9681 77.418 11.8061 77.364 11.7881L75.618 11.1041C74.916 13.8581 74.52 16.6841 74.52 19.5281C74.52 21.4181 74.664 23.3081 75.204 25.1081L76.86 24.8381C77.058 23.3981 77.886 21.6521 78.282 20.8061ZM83.628 21.9401C83.664 22.8761 83.7 23.2901 82.512 23.2901C81.45 23.2901 80.928 22.9121 80.928 22.4981C80.928 22.0841 81.504 21.7781 82.35 21.7781C82.89 21.7781 83.358 21.8861 83.628 21.9401Z" fill="#00FFFF" style="mix-blend-mode:difference"/>
<path d="M103.824 13.4441L102.978 11.9321C101.664 12.1121 100.332 12.1481 99.018 12.1481C97.38 12.1481 95.76 12.0041 94.158 11.7341L94.644 13.8041C95.706 13.8941 96.93 13.9121 99.918 13.9121L98.082 15.4601L99.396 16.8821C100.386 16.0541 102.24 14.5241 103.824 13.4441ZM104.544 24.3341L104.436 22.1021C103.086 22.3721 101.916 22.5881 98.82 22.5881C98.028 22.5881 96.264 22.5881 95.76 22.1561C95.652 22.0661 95.508 21.9221 95.508 21.5801C95.508 20.9681 96.12 20.4101 96.57 20.0321L94.914 18.6821C94.068 19.5101 93.114 20.5181 93.114 22.1201C93.114 22.8761 93.42 23.2721 93.708 23.5241C94.752 24.5141 97.326 24.6581 98.928 24.6581C101.016 24.6581 102.96 24.4781 104.544 24.3341Z" fill="#00FFFF" style="mix-blend-mode:difference"/>
<path d="M122.976 20.8961C122.976 18.7001 121.194 17.2601 118.98 17.2601C118.242 17.2601 116.982 17.4581 115.164 18.6461C115.524 17.4581 115.902 16.0361 116.046 15.4781C118.296 15.1541 119.466 14.8661 121.05 14.2721L121.05 12.3101C119.682 12.9761 118.62 13.3181 116.496 13.7141C116.586 13.3361 117.018 11.5721 117.108 11.2301C117.324 11.1041 117.558 11.1041 117.558 10.9061C117.558 10.7801 117.306 10.7081 117.18 10.6721L115.128 10.2041C115.002 11.6081 114.678 13.1021 114.48 13.9481C114.192 13.9661 113.886 13.9841 113.544 13.9841C113.436 13.9841 112.266 13.9841 111.024 13.6961L111.276 15.6041C111.996 15.6761 112.806 15.6761 112.968 15.6761C113.31 15.6761 113.706 15.6761 114.084 15.6401C113.796 16.8101 113.292 18.8081 112.68 20.3741L114.192 21.5621C115.56 20.2841 117.036 18.9521 118.692 18.9521C119.934 18.9521 121.032 19.7801 121.032 21.0041C121.032 22.4981 119.394 23.9561 115.83 23.9561C115.614 23.9561 114.588 23.9561 113.49 23.8121L114.084 25.8641C116.154 25.8281 118.872 25.7381 120.456 24.9281C122.04 24.1181 122.976 22.6241 122.976 20.8961Z" fill="#00FFFF" style="mix-blend-mode:difference"/>
<path d="M137.268 12.4181C135.882 11.5901 134.172 10.9421 132.966 10.5641L132.192 12.3461C134.334 13.1021 135.198 13.5701 136.35 14.3081L137.268 12.4181ZM140.58 20.4461C140.58 17.8361 138.474 16.5041 136.584 16.5041C135.666 16.5041 133.776 16.8461 132.156 18.3221C132.39 16.9721 132.768 15.6401 133.236 14.3621L131.166 13.5521C130.77 14.9201 129.906 17.9801 129.762 20.4281L131.328 21.2561C133.182 19.0961 135 18.3761 136.242 18.3761C137.592 18.3761 138.51 19.1141 138.51 20.2661C138.51 21.9221 136.98 23.6681 133.632 23.6681C132.804 23.6681 131.958 23.5421 131.382 23.4701L132.336 25.6841C134.568 25.6301 140.58 25.5221 140.58 20.4461Z" fill="#00FFFF" style="mix-blend-mode:difference"/>
<path d="M160.326 18.3401C160.326 17.6921 159.876 15.5681 157.518 13.0481L156.024 14.1281C157.014 15.2621 158.022 17.0621 158.022 17.6201C158.022 18.0521 157.608 18.0881 156.834 18.1601L158.058 20.0141C159.21 19.7981 160.326 19.3661 160.326 18.3401ZM156.06 17.5481C156.06 16.4501 155.862 14.4521 153.414 14.4521C152.928 14.4521 152.388 14.5241 151.992 14.5961C152.118 13.9121 152.244 13.2821 152.334 12.6341C152.352 12.4541 152.388 12.4361 152.712 12.2381C152.91 12.1121 152.946 12.0581 152.946 11.9861C152.946 11.8241 152.586 11.7161 152.442 11.6981L150.246 11.3921C150.228 12.8861 150.066 13.8401 149.85 14.9921C149.058 15.1181 147.402 15.4241 146.088 15.5321L146.808 17.7101C147.744 17.3681 148.482 17.1521 149.364 16.9361C148.302 20.3561 147.384 21.9581 145.8 23.9741L147.852 24.8921C149.688 21.9041 150.642 19.7981 151.578 16.5041C151.92 16.4501 152.28 16.4141 152.604 16.4141C153.9 16.4141 154.098 16.9901 154.098 17.9441C154.098 19.7621 153.342 21.9401 153 22.4261C152.748 22.7861 152.46 22.8761 151.92 22.8761C151.218 22.8761 150.696 22.7141 150.3 22.5881L150.552 24.7661C151.056 24.8381 151.614 24.8741 152.1 24.8741C152.874 24.8741 154.026 24.8021 154.8 23.4881C155.754 21.8321 156.06 19.0421 156.06 17.5481Z" fill="#00FFFF" style="mix-blend-mode:difference"/>
<path d="M173.268 12.4181C171.882 11.5901 170.172 10.9421 168.966 10.5641L168.192 12.3461C170.334 13.1021 171.198 13.5701 172.35 14.3081L173.268 12.4181ZM176.58 20.4461C176.58 17.8361 174.474 16.5041 172.584 16.5041C171.666 16.5041 169.776 16.8461 168.156 18.3221C168.39 16.9721 168.768 15.6401 169.236 14.3621L167.166 13.5521C166.77 14.9201 165.906 17.9801 165.762 20.4281L167.328 21.2561C169.182 19.0961 171 18.3761 172.242 18.3761C173.592 18.3761 174.51 19.1141 174.51 20.2661C174.51 21.9221 172.98 23.6681 169.632 23.6681C168.804 23.6681 167.958 23.5421 167.382 23.4701L168.336 25.6841C170.568 25.6301 176.58 25.5221 176.58 20.4461Z" fill="#00FFFF" style="mix-blend-mode:difference"/>
<path d="M0 44L180 44" stroke="#00FFFF" style="mix-blend-mode:difference"/>
</svg>
