<svg width="24" height="26" viewBox="0 0 24 26" fill="none" xmlns="http://www.w3.org/2000/svg">
<path d="M7.33205 13L7.33205 11.632L2.47205 11.632L2.47205 4.23999L0.852051 4.23999L0.852049 13L7.33205 13Z" fill="#FF0000"/>
<path d="M9.91064 5.79999L9.91064 4.23999L8.32664 4.23999L8.32664 5.79999L9.91064 5.79999ZM9.91064 13L9.91064 6.54399L8.32664 6.54399L8.32664 13L9.91064 13Z" fill="#FF0000"/>
<path d="M16.8321 13L16.8321 8.66799C16.8321 7.20399 16.0401 6.38799 14.6721 6.38799C13.4121 6.38799 12.9321 7.19199 12.6801 7.63599L12.7401 7.08399L12.7401 6.54399L11.1561 6.54399L11.1561 13L12.7401 13L12.7401 9.23199C12.7401 8.04399 13.5081 7.71999 14.1561 7.71999C14.9481 7.71999 15.2481 8.19999 15.2481 8.91999L15.2481 13L16.8321 13Z" fill="#FF0000"/>
<path d="M23.6921 10.24C23.6561 9.32799 23.5961 8.45199 23.0441 7.61199C22.5641 6.87999 21.7361 6.38799 20.6681 6.38799C19.0721 6.38799 17.6441 7.47999 17.6441 9.78399C17.6441 11.992 18.9641 13.156 20.7161 13.156C22.8161 13.156 23.3681 11.632 23.5721 11.092L21.9761 11.092C21.7121 11.8 21.0881 11.872 20.8001 11.872C19.5281 11.872 19.2881 10.564 19.2281 10.24L23.6921 10.24ZM21.9761 9.20799L19.2281 9.20799C19.3001 8.79999 19.5041 7.68399 20.6801 7.68399C21.4721 7.68399 21.9401 8.19999 21.9761 9.20799Z" fill="#FF0000"/>
<path d="M0 25L24 25" stroke="#FF0000" stroke-width="1.5"/>
</svg>
