<svg width="56" height="29" viewBox="0 0 56 29" fill="none" xmlns="http://www.w3.org/2000/svg">
<path d="M10.8078 7.27205L10.8078 5.60605L3.23384 5.60605L3.23384 7.27205L10.8078 7.27205ZM12.2498 13.74L12.2498 12.074L1.73584 12.074L1.73584 13.74L12.2498 13.74Z" fill="#FF0000"/>
<path d="M25.6058 14.3281L25.6058 13.082L22.9458 13.082L23.8138 7.72005L18.1858 7.72005L18.1858 9.00805L22.1758 9.00805L21.5178 13.082L16.3938 13.082L16.3938 14.328L25.6058 14.3281Z" fill="#FF0000"/>
<path d="M39.9418 10.5621L39.9418 8.78405L29.9878 8.78405L29.9878 10.5621L39.9418 10.5621Z" fill="#FF0000"/>
<path d="M54.3198 13.3201C53.1718 12.0741 51.9678 10.8841 50.6098 9.86205C51.4918 8.49005 51.7578 7.84605 52.2338 6.72605C52.4018 6.32005 52.7098 6.08205 52.9898 5.88605L51.9118 4.69605C51.6598 4.86405 51.4498 5.00405 51.1838 5.00405L45.1498 5.00405L45.1498 6.62805L50.4838 6.62805C50.1618 7.42605 49.6158 8.84005 48.1038 10.4501C46.3258 12.3401 44.5478 13.0821 43.6378 13.4741L44.8698 14.7481C47.5018 13.4601 48.5378 12.3961 49.6578 11.1501C50.8058 12.0741 51.7998 13.0821 53.0738 14.6501L54.3198 13.3201Z" fill="#FF0000"/>
<path d="M0 28L56 28" stroke="#FF0000" stroke-width="1.5"/>
</svg>
