<svg width="749" height="15" viewBox="0 0 749 15" fill="none" xmlns="http://www.w3.org/2000/svg">
<path d="M286.237 11.4614H287.604C287.817 11.4614 287.989 11.6335 287.989 11.8463V13.2141C287.989 13.4269 287.817 13.599 287.604 13.599H286.237C286.024 13.599 285.852 13.4269 285.852 13.2141V11.8463C285.852 11.6335 286.024 11.4614 286.237 11.4614Z" fill="#00FFFF" style="mix-blend-mode:difference"/>
<path d="M322.609 7.70322H325.894C326.065 7.70322 326.262 7.57462 326.33 7.41732L326.425 7.20132C326.494 7.04402 326.595 7.04842 326.651 7.21012L327.113 8.54662C327.169 8.70882 327.255 8.70662 327.303 8.54222L328.113 5.79772C328.161 5.63332 328.219 5.63772 328.241 5.80762L328.792 10.0079C328.815 10.1778 328.868 10.1811 328.912 10.0156L329.737 6.85432C329.78 6.68832 329.851 6.68832 329.894 6.85432L330.041 7.41902C330.084 7.58502 330.26 7.72082 330.431 7.72082H334.12" fill="#00FFFF" style="mix-blend-mode:difference"/>
<path d="M322.609 7.70322H325.894C326.065 7.70322 326.262 7.57462 326.33 7.41732L326.425 7.20132C326.494 7.04402 326.595 7.04842 326.651 7.21012L327.113 8.54662C327.169 8.70882 327.255 8.70662 327.303 8.54222L328.113 5.79772C328.161 5.63332 328.219 5.63772 328.241 5.80762L328.792 10.0079C328.815 10.1778 328.868 10.1811 328.912 10.0156L329.737 6.85432C329.78 6.68832 329.851 6.68832 329.894 6.85432L330.041 7.41902C330.084 7.58502 330.26 7.72082 330.431 7.72082H334.12" fill="#00FFFF" style="mix-blend-mode:difference"/>
<path d="M322.609 7.70322H325.894C326.065 7.70322 326.262 7.57462 326.33 7.41732L326.425 7.20132C326.494 7.04402 326.595 7.04842 326.651 7.21012L327.113 8.54662C327.169 8.70882 327.255 8.70662 327.303 8.54222L328.113 5.79772C328.161 5.63332 328.219 5.63772 328.241 5.80762L328.792 10.0079C328.815 10.1778 328.868 10.1811 328.912 10.0156L329.737 6.85432C329.78 6.68832 329.851 6.68832 329.894 6.85432L330.041 7.41902C330.084 7.58502 330.26 7.72082 330.431 7.72082H334.12" stroke="#00FFFF" stroke-width="0.6" stroke-linejoin="bevel" style="mix-blend-mode:difference"/>
<path d="M277.33 11.8122H278.791C279.003 11.8122 279.175 11.6401 279.175 11.4273V5.30052C279.175 5.08782 279.003 4.91572 278.791 4.91572H277.33C277.117 4.91572 276.945 4.74362 276.945 4.53082V3.89972C276.945 3.70562 277.09 3.53852 277.283 3.51922C278.207 3.42962 278.957 2.95842 279.139 2.02992C279.173 1.85502 279.333 1.73242 279.511 1.73242H280.681C280.894 1.73242 281.066 1.90452 281.066 2.11732V11.4273C281.066 11.6401 281.238 11.8122 281.45 11.8122H282.905C283.117 11.8122 283.29 11.9843 283.29 12.197V13.2109C283.29 13.4236 283.117 13.5957 282.905 13.5957H277.33C277.117 13.5957 276.945 13.4236 276.945 13.2109V12.197C276.945 11.9843 277.117 11.8122 277.33 11.8122Z" fill="#00FFFF" style="mix-blend-mode:difference"/>
<path d="M291.268 11.8122H292.729C292.941 11.8122 293.113 11.6401 293.113 11.4273V5.30052C293.113 5.08782 292.941 4.91572 292.729 4.91572H291.268C291.056 4.91572 290.883 4.74362 290.883 4.53082V3.89972C290.883 3.70562 291.028 3.53852 291.221 3.51922C292.145 3.42962 292.895 2.95842 293.077 2.02992C293.111 1.85502 293.271 1.73242 293.449 1.73242H294.619C294.831 1.73242 295.004 1.90452 295.004 2.11732V11.4273C295.004 11.6401 295.176 11.8122 295.388 11.8122H296.843C297.056 11.8122 297.228 11.9843 297.228 12.197V13.2109C297.228 13.4236 297.056 13.5957 296.843 13.5957H291.268C291.056 13.5957 290.883 13.4236 290.883 13.2109V12.197C290.883 11.9843 291.056 11.8122 291.268 11.8122Z" fill="#00FFFF" style="mix-blend-mode:difference"/>
<path d="M304.682 9.91548V10.4675C304.682 12.0042 303.89 13.8316 301.481 13.8316C299.073 13.8316 298.281 12.0042 298.281 10.4675V9.91548C298.281 8.52018 298.827 7.75868 299.212 7.40348C299.371 7.25618 299.357 7.00878 299.207 6.85208C298.748 6.37268 298.35 5.60788 298.35 4.66398C298.35 3.00138 299.418 1.50098 301.482 1.50098C303.546 1.50098 304.613 3.00138 304.613 4.66398C304.613 5.60678 304.205 6.37108 303.751 6.85098C303.603 7.00768 303.59 7.25458 303.749 7.40078C304.133 7.75488 304.682 8.51688 304.682 9.91608V9.91548ZM302.89 10.4675V9.91548C302.89 8.81048 302.306 8.24088 301.481 8.24088C300.656 8.24088 300.072 8.81048 300.072 9.91548V10.4675C300.072 11.5726 300.656 12.1422 301.481 12.1422C302.306 12.1422 302.89 11.5726 302.89 10.4675ZM300.14 4.73268C300.14 5.73818 300.656 6.27538 301.481 6.27538C302.305 6.27538 302.821 5.73818 302.821 4.73268C302.821 3.72708 302.305 3.18998 301.481 3.18998C300.656 3.18998 300.14 3.72768 300.14 4.73268Z" fill="#00FFFF" style="mix-blend-mode:difference"/>
<path d="M308.292 12.7792C308.257 12.7523 308.225 12.7182 308.199 12.6819C304.211 6.96629 308.129 1.09619 313.338 1.09619C317.055 1.09619 320.114 4.08429 320.114 7.87179C320.114 13.2278 313.914 17.1236 308.292 12.7797V12.7792ZM313.338 1.59599C308.514 1.59599 304.85 7.07849 308.621 12.3614C308.646 12.3971 308.679 12.4306 308.714 12.457C313.927 16.4221 319.614 12.7995 319.614 7.87129C319.614 4.36909 316.769 1.59599 313.338 1.59599ZM309.232 11.3371L308.853 11.1155C308.624 10.9819 308.595 10.6603 308.798 10.4915C310.289 9.25289 310.853 7.92019 311.054 6.87999C311.1 6.64409 310.914 6.42749 310.673 6.42749H309.463C309.251 6.42749 309.079 6.25539 309.079 6.04269V5.66879C309.079 5.45599 309.251 5.28399 309.463 5.28399H312.025C312.248 5.28399 312.43 5.47529 312.412 5.69739C312.214 8.10709 311.199 10.0259 309.674 11.3041C309.55 11.408 309.371 11.419 309.231 11.3371H309.232ZM316.676 11.2612C316.111 10.8181 315.331 10.1556 314.633 9.22699C314.409 8.92959 313.938 9.07969 313.938 9.45189V11.0589C313.938 12.1629 313.406 12.3636 312.25 12.3976C312.089 12.4026 311.941 12.3031 311.882 12.153L311.508 11.2019C311.68 11.231 311.965 11.3025 312.28 11.3025C312.537 11.3025 312.752 11.2167 312.752 10.9451V3.64669C312.752 3.42069 312.946 3.24319 313.171 3.26349L313.867 3.32559C314.095 3.33989 314.21 3.35479 314.21 3.46909C314.21 3.54059 313.938 3.74069 313.938 3.81219V4.59839C313.938 4.89689 313.966 5.42579 314.184 6.11189C314.269 6.37859 314.607 6.46769 314.813 6.27799C315.27 5.85519 315.723 5.31969 316.098 4.72369C316.206 4.55169 316.423 4.48619 316.603 4.58019L317.326 4.95679C317.512 5.05689 317.626 5.14269 317.626 5.22789C317.626 5.29989 317.512 5.31369 317.369 5.34219C317.283 5.35649 317.268 5.38509 317.054 5.64299C316.949 5.77439 316.274 6.60889 315.208 7.45509C315.05 7.57989 315.004 7.80689 315.117 7.97299C315.818 9.00329 316.733 9.73449 317.472 10.2304C317.66 10.3574 317.695 10.618 317.549 10.7928L317.207 11.2041C317.073 11.364 316.839 11.3915 316.675 11.2629L316.676 11.2612Z" fill="#00FFFF" style="mix-blend-mode:difference"/>
<path d="M342.63 10.693V13.211C342.63 13.4238 342.457 13.5959 342.245 13.5959H336.626C336.414 13.5959 336.242 13.4238 336.242 13.211V12.3957C336.242 9.97991 337.846 8.77041 339.436 7.18041C339.989 6.62731 340.837 5.78071 340.837 4.83011C340.837 4.19071 340.715 3.25771 339.453 3.25771C338.053 3.25771 338.036 4.50191 338.036 5.00051V5.68941H336.276V5.00051C336.276 2.95041 337.243 1.50391 339.453 1.50391C341.561 1.50391 342.63 2.72721 342.63 4.82851C342.63 6.07041 342.061 7.00401 340.715 8.35371C339.648 9.42191 338.478 10.3758 338.167 11.3357C338.09 11.5738 338.291 11.8135 338.541 11.8135H340.555C340.768 11.8135 340.94 11.6414 340.94 11.4286V10.6941C340.94 10.4813 341.112 10.3093 341.325 10.3093H342.245C342.457 10.3093 342.63 10.4813 342.63 10.6941V10.693Z" fill="#00FFFF" style="mix-blend-mode:difference"/>
<path d="M350.216 10.693V13.211C350.216 13.4238 350.044 13.5959 349.831 13.5959H344.213C344 13.5959 343.828 13.4238 343.828 13.211V12.3957C343.828 9.97991 345.433 8.77041 347.022 7.18041C347.576 6.62731 348.423 5.78071 348.423 4.83011C348.423 4.19071 348.302 3.25771 347.04 3.25771C345.64 3.25771 345.623 4.50191 345.623 5.00051V5.68941H343.863V5.00051C343.863 2.95041 344.829 1.50391 347.04 1.50391C349.147 1.50391 350.216 2.72721 350.216 4.82851C350.216 6.07041 349.647 7.00401 348.302 8.35371C347.234 9.42191 346.064 10.3758 345.754 11.3357C345.677 11.5738 345.877 11.8135 346.127 11.8135H348.141C348.354 11.8135 348.526 11.6414 348.526 11.4286V10.6941C348.526 10.4813 348.698 10.3093 348.911 10.3093H349.831C350.044 10.3093 350.216 10.4813 350.216 10.6941V10.693Z" fill="#00FFFF" style="mix-blend-mode:difference"/>
<path d="M353.854 12.7785C353.819 12.7516 353.787 12.7175 353.761 12.6812C349.775 6.96567 353.691 1.09717 358.9 1.09717C362.616 1.09717 365.675 4.08417 365.675 7.87117C365.675 13.2277 359.475 17.1219 353.854 12.7785ZM358.9 1.59537C354.077 1.59537 350.408 7.08057 354.184 12.3602C354.209 12.3959 354.242 12.4289 354.276 12.4553C359.485 16.4258 365.177 12.7989 365.177 7.87117C365.177 4.36957 362.33 1.59537 358.901 1.59537H358.9ZM360.917 11.9451V11.4013H356.913V12.0022H356.041C355.829 12.0022 355.656 11.8302 355.656 11.6174V4.18367C355.656 3.97097 355.829 3.79887 356.041 3.79887H361.759C361.972 3.79887 362.144 3.97097 362.144 4.18367V11.5602C362.144 11.773 361.972 11.9451 361.759 11.9451H360.917ZM360.532 4.95447H357.298C357.085 4.95447 356.913 5.12657 356.913 5.33937V6.58687C356.913 6.79957 357.085 6.97167 357.298 6.97167H360.532C360.745 6.97167 360.917 6.79957 360.917 6.58687V5.33937C360.917 5.12657 360.745 4.95447 360.532 4.95447ZM360.532 8.07067H357.298C357.085 8.07067 356.913 8.24277 356.913 8.45557V9.86027C356.913 10.073 357.085 10.2451 357.298 10.2451H360.532C360.745 10.2451 360.917 10.073 360.917 9.86027V8.45557C360.917 8.24277 360.745 8.07067 360.532 8.07067Z" fill="#00FFFF" style="mix-blend-mode:difference"/>
<path d="M252.165 9.7026V10.0484C252.165 11.3096 252.716 11.7412 253.542 11.7412C254.369 11.7412 254.954 11.1018 254.954 9.7549C254.954 7.9582 253.955 7.7855 253.542 7.7855C253.418 7.7855 253.106 7.7965 252.81 7.9609C252.669 8.0395 252.494 8.028 252.371 7.9241L251.716 7.3715C251.556 7.2368 251.533 6.9988 251.664 6.8355L254.277 3.5918C254.48 3.34 254.301 2.9655 253.978 2.9655H252.448C252.235 2.9655 252.063 3.1376 252.063 3.3504V3.7523C252.063 3.9651 251.891 4.1371 251.678 4.1371H250.768C250.555 4.1371 250.383 3.9651 250.383 3.7523V1.7681C250.383 1.5553 250.555 1.3833 250.768 1.3833H256.319C256.532 1.3833 256.704 1.5553 256.704 1.7681V2.9348C256.704 3.0222 256.674 3.1068 256.62 3.175L254.666 5.6205C254.498 5.8305 254.59 6.1499 254.848 6.2241C256.014 6.5595 256.739 7.8944 256.739 9.7538C256.739 13.1696 254.611 13.4786 253.543 13.4786C252.408 13.4786 250.383 13.1514 250.383 10.0473V9.7021H252.166L252.165 9.7026Z" fill="#00FFFF" style="mix-blend-mode:difference"/>
<path d="M0.712281 14.1753L0.0711797 13.272C-0.10032 13.0307 0.0557804 12.697 0.35048 12.6684C1.98558 12.5089 3.70038 12.2082 5.40248 11.5529C5.64828 11.4583 5.72408 11.1422 5.55528 10.9404C5.32218 10.6617 5.08138 10.4044 4.80538 10.1471C4.68228 10.0322 4.49208 10.0162 4.34638 10.1003C3.44138 10.6221 2.88008 10.8607 2.25168 11.0784C2.11258 11.1268 1.95748 11.0894 1.85418 10.9844L1.19658 10.3191C0.99598 10.1163 1.08058 9.77875 1.34998 9.68365C2.59968 9.24105 3.68388 8.66325 4.56518 8.05025C4.94618 7.78525 4.60858 7.19315 4.18528 7.38445C3.41668 7.73135 2.49028 8.09755 1.38908 8.44335C1.23618 8.49115 1.06468 8.43945 0.96568 8.31355L0.377981 7.56475C0.20698 7.34705 0.314781 7.02215 0.583081 6.95505C2.22908 6.54165 3.31168 6.06495 4.10718 5.67355C4.33918 5.55915 4.39528 5.24905 4.21388 5.06435C3.96648 4.81195 3.70478 4.58545 3.36278 4.34465C3.23468 4.25455 3.06208 4.25615 2.93068 4.34135C2.50568 4.61795 2.11198 4.83945 1.54908 5.12095C1.41768 5.18635 1.25658 5.17265 1.13998 5.08355L0.406081 4.52335C0.179481 4.35015 0.21358 3.99665 0.47038 3.87245C2.95818 2.67445 3.91698 1.44735 4.44808 0.584147C4.52998 0.451047 4.68668 0.384047 4.84058 0.412047L6.45698 0.703447C6.64168 0.734247 6.81108 0.811248 6.81108 0.934348C6.81108 1.02675 6.74948 1.07295 6.68788 1.08825C6.64168 1.11905 6.37948 1.16525 6.33328 1.19605C6.28708 1.22685 6.11718 1.45775 6.07098 1.50395H10.0097C10.1279 1.50395 10.239 1.55785 10.3121 1.65075L10.7332 2.18565C10.8525 2.33685 10.8443 2.55015 10.7107 2.68875C10.2428 3.17305 9.24218 4.11985 8.22838 4.94335C7.99578 5.13195 8.06068 5.50145 8.34278 5.60255L8.98108 5.83075C9.10418 5.87695 9.24278 5.93855 9.24278 6.07705C9.24278 6.18425 9.18118 6.21555 9.15038 6.23045C9.07338 6.26175 8.73478 6.33815 8.67318 6.40035C8.59568 6.47725 8.24268 6.92375 8.15028 7.01605H11.5068C11.6228 7.01605 11.7327 7.06835 11.8059 7.15905L12.0313 7.43775C12.139 7.57085 12.1467 7.76155 12.0494 7.90235C9.81728 11.1279 7.08808 13.3089 1.09598 14.3337C0.94978 14.359 0.79748 14.2974 0.71168 14.1759L0.712281 14.1753ZM4.87088 2.82835C4.70098 2.98175 4.68608 2.99775 4.44038 3.21325C4.94508 3.53645 5.38488 3.90375 5.79508 4.32375C5.92918 4.46125 6.14308 4.48545 6.29808 4.37275C6.71208 4.07145 7.05568 3.79375 7.37128 3.48595C7.61648 3.24675 7.44058 2.82835 7.09798 2.82835H4.87088ZM6.48828 8.59675C6.39318 8.67475 6.32608 8.73035 6.26348 8.78255C6.07928 8.93535 6.07708 9.21355 6.25908 9.36915C6.53118 9.60175 6.83188 9.88325 7.14258 10.2158C7.28058 10.3637 7.50758 10.3862 7.66648 10.2614C8.05028 9.96015 8.39938 9.64355 8.83588 9.15475C9.05798 8.90625 8.88428 8.50935 8.55108 8.50935H6.73298C6.64388 8.50935 6.55708 8.54065 6.48828 8.59725V8.59675Z" fill="#00FFFF" style="mix-blend-mode:difference"/>
<path d="M25.866 6.83593C25.7473 6.93543 25.5785 6.95413 25.4411 6.88213C24.7483 6.51873 24.2464 6.19263 23.607 5.55213V6.27623C23.607 6.48903 23.4349 6.66114 23.2221 6.66114H22.5448C22.332 6.66114 22.1599 6.48903 22.1599 6.27623V5.65993C21.9098 5.96064 21.5277 6.35213 21.1621 6.62093C21.0219 6.72373 20.8322 6.72214 20.6948 6.61544L19.9586 6.04484L19.7739 6.16853C19.543 6.04483 19.3434 5.87603 19.1433 5.67583V6.50774C19.1433 6.72044 18.9712 6.89254 18.7584 6.89254H18.1427C17.9299 6.89254 17.7578 6.72044 17.7578 6.50774V5.55274C17.4175 6.01564 17.0381 6.38234 16.7116 6.66004C16.5703 6.77984 16.3663 6.78313 16.2212 6.66823L15.7874 6.32353C15.7148 9.38093 15.5317 11.2116 14.861 12.8736C14.7934 13.0408 14.6141 13.1364 14.436 13.1051L13.381 12.9204C13.1352 12.8775 12.9945 12.6147 13.0956 12.3865C13.7361 10.9395 14.2172 9.49143 14.2172 6.16963C14.2172 4.88973 14.1292 3.15844 14.0325 1.82734C14.0165 1.60414 14.1924 1.41393 14.4162 1.41393H18.7579C18.9706 1.41393 19.1427 1.24183 19.1427 1.02913V0.999935C19.1427 0.780635 19.3252 0.605735 19.5441 0.615635L20.9125 0.675034C21.1434 0.690434 21.4051 0.767935 21.4051 0.937235C21.4051 0.998835 21.3127 1.06044 21.2511 1.09124C21.0818 1.18364 21.0818 1.21433 21.0818 1.41453H26.2998C26.5126 1.41453 26.6847 1.58653 26.6847 1.79933V2.33593C26.6847 2.54873 26.5126 2.72083 26.2998 2.72083H23.6064V3.49214H26.2998C26.5126 3.49214 26.6847 3.66424 26.6847 3.87704V4.25963C26.6847 4.47243 26.5126 4.64454 26.2998 4.64454H25.4966C25.12 4.64454 24.9655 5.12663 25.2728 5.34433C25.5312 5.52743 25.8325 5.71544 26.1657 5.88754C26.4103 6.01454 26.4505 6.34714 26.2394 6.52424L25.8655 6.83704L25.866 6.83593ZM17.7567 2.71914H15.7555C15.7643 2.77964 15.7725 2.94674 15.7786 3.11994C15.7857 3.32664 15.9562 3.49053 16.1634 3.49053H17.7567V2.71914ZM16.186 4.70494C15.9738 4.70494 15.8022 4.87484 15.8011 5.08704C15.8 5.34874 15.7962 5.63354 15.7863 5.84464C16.0788 5.70614 16.6797 5.18274 17.064 4.70494H16.186ZM22.1748 11.6322C21.962 11.6322 21.7899 11.8043 21.7899 12.0171V12.7417C21.7899 13.7742 20.3462 13.8946 19.5358 13.9193C19.3802 13.9243 19.24 13.8347 19.1757 13.6928L18.8255 12.9171C18.7095 12.6603 18.903 12.3695 19.1851 12.3739C20.0587 12.3882 20.1125 12.3123 20.1125 11.8477V11.6311H16.1871C15.9743 11.6311 15.8022 11.459 15.8022 11.2463V10.8328C15.8022 10.6201 15.9743 10.448 16.1871 10.448H20.1125V9.99993H16.8798C16.667 9.99993 16.4949 9.82783 16.4949 9.61513V9.20163C16.4949 8.98893 16.667 8.81683 16.8798 8.81683H20.1125V8.35284C18.4659 8.38024 17.8716 8.38354 17.2273 8.37314C17.0805 8.37094 16.948 8.28574 16.8847 8.15324L16.7407 7.84973C16.6132 7.57983 16.8303 7.27413 17.1278 7.30213C17.6676 7.35323 18.0184 7.37034 18.5264 7.37034C19.3577 7.37034 20.2197 7.30873 20.9741 7.24663C22.4717 7.10533 23.204 6.91233 23.9929 6.67873C24.1249 6.63963 24.2684 6.67323 24.3684 6.76833L25.1156 7.47753C25.2228 7.56993 25.3152 7.70793 25.3152 7.78483C25.3152 7.86233 25.2228 7.87723 25.1766 7.87723C25.1304 7.87723 24.9149 7.86233 24.8687 7.86233C24.7764 7.86233 24.314 7.96963 24.2068 7.98493C23.1754 8.16973 22.3287 8.23073 21.7899 8.26203V8.81793H25.3306C25.5433 8.81793 25.7154 8.99003 25.7154 9.20273V9.61623C25.7154 9.82893 25.5433 10.001 25.3306 10.001H21.7899V10.4491H26.2542C26.467 10.4491 26.639 10.6212 26.639 10.8339V11.2474C26.639 11.4601 26.467 11.6322 26.2542 11.6322H22.1748ZM22.1594 2.71914H19.1427V3.49053H19.9119C20.1246 3.49053 20.2967 3.66253 20.2967 3.87533V4.70494H19.5737C19.6909 4.79624 20.1059 5.12994 20.5474 5.34274C20.6887 5.41094 20.858 5.38503 20.9752 5.28113C21.3155 4.97933 21.4606 4.82813 21.6052 4.64283H20.8515V3.87484C20.8515 3.66204 21.0235 3.48993 21.2363 3.48993H22.1594V2.71863V2.71914Z" fill="#00FFFF" style="mix-blend-mode:difference"/>
<path d="M40.4895 14.075C39.1668 13.7787 37.1765 13.164 35.4392 11.2442C35.2781 11.0661 35.0049 11.0716 34.8498 11.2546C33.5067 12.8369 31.6462 13.6896 29.7511 14.0761C29.5928 14.1086 29.4311 14.0355 29.3459 13.898L28.7467 12.926C28.6015 12.6907 28.745 12.3801 29.0194 12.3449C30.7946 12.1162 32.2175 11.4322 33.1202 10.5229C33.3627 10.2788 33.1895 9.86314 32.8459 9.86314H29.3025C29.0897 9.86314 28.9176 9.69114 28.9176 9.47834V8.89554C28.9176 8.68274 29.0897 8.51074 29.3025 8.51074H33.8316C34.0301 8.51074 34.1934 8.35954 34.2148 8.16264C34.2192 8.12204 34.2236 8.08024 34.2269 8.03784C34.2456 7.81194 34.0702 7.61564 33.8432 7.61564H28.9473C28.7346 7.61564 28.5625 7.44354 28.5625 7.23084V6.66344C28.5625 6.45064 28.7346 6.27854 28.9473 6.27854H34.2429V5.64574H30.8716C30.6588 5.64574 30.4867 5.47364 30.4867 5.26094V4.73974C30.4867 4.52694 30.6588 4.35484 30.8716 4.35484H34.2429V3.75234H29.2404C29.0276 3.75234 28.8555 3.58024 28.8555 3.36744V2.80004C28.8555 2.58734 29.0276 2.41524 29.2404 2.41524H31.4285C31.7496 2.41524 31.9294 2.04304 31.7314 1.79064C31.6138 1.64054 31.4967 1.49984 31.3862 1.37394C31.2064 1.16834 31.2927 0.849438 31.55 0.759238L32.4335 0.451438C32.5787 0.400838 32.7425 0.439838 32.8453 0.554738C33.1972 0.947338 33.5045 1.35794 33.7398 1.69064C33.8877 1.89954 33.7931 2.18984 33.5512 2.27444L33.1504 2.41524H35.956C36.0874 2.41524 36.2078 2.35204 36.2787 2.24094C36.5635 1.79344 36.8884 1.27114 37.2112 0.658638C37.3019 0.486538 37.5047 0.403538 37.6867 0.471738L38.8149 0.892338C38.9386 0.938538 39.1695 1.03084 39.1695 1.20024C39.1695 1.24634 39.1541 1.27774 39.1382 1.30794C39.092 1.35414 38.7836 1.44654 38.7374 1.49264C38.7071 1.52344 38.1832 2.26234 38.0908 2.41634H41.2004C41.4132 2.41634 41.5853 2.58844 41.5853 2.80114V3.36854C41.5853 3.58134 41.4132 3.75344 41.2004 3.75344H36.2435V4.35594H39.5533C39.766 4.35594 39.9381 4.52804 39.9381 4.74084V5.26204C39.9381 5.47474 39.766 5.64684 39.5533 5.64684H36.2435V6.27964H41.4775C41.6903 6.27964 41.8624 6.45174 41.8624 6.66454V7.23194C41.8624 7.44464 41.6903 7.61674 41.4775 7.61674H36.5091C36.3051 7.61674 36.138 7.77504 36.1253 7.97854C36.1231 8.01594 36.1204 8.05434 36.1171 8.09394C36.0989 8.31774 36.2754 8.51124 36.5003 8.51124H41.1702C41.3829 8.51124 41.555 8.68334 41.555 8.89614V9.47884C41.555 9.69164 41.3829 9.86374 41.1702 9.86374H37.3986C37.044 9.86374 36.8769 10.303 37.1408 10.5394C38.2563 11.5389 39.9617 12.0639 41.4352 12.2794C41.7255 12.3218 41.8591 12.6604 41.6798 12.893L40.8733 13.9348C40.782 14.0525 40.6336 14.1086 40.4884 14.0761L40.4895 14.075Z" fill="#00FFFF" style="mix-blend-mode:difference"/>
<path d="M56.4887 6.44545V13.5267C56.4887 13.7394 56.3167 13.9115 56.1039 13.9115H54.0433C53.8767 13.9115 53.7294 13.8043 53.6777 13.646L53.3924 12.7729C53.3104 12.5228 53.4979 12.266 53.7613 12.2682C54.0801 12.271 54.4232 12.2726 54.5051 12.2638C54.675 12.2484 54.7982 12.2022 54.7982 11.802V6.44545C54.7982 6.23275 54.6261 6.06065 54.4133 6.06065H53.3654C53.1526 6.06065 52.9806 5.88855 52.9806 5.67575V5.46025C52.9806 5.24745 52.8085 5.07545 52.5957 5.07545H51.7172C51.5044 5.07545 51.3323 5.24745 51.3323 5.46025V13.5415C51.3323 13.7543 51.1602 13.9264 50.9475 13.9264H50.0876C49.8748 13.9264 49.7027 13.7543 49.7027 13.5415V5.46025C49.7027 5.24745 49.5307 5.07545 49.3179 5.07545H47.7774V4.78295C47.6696 4.95285 47.5459 5.18375 47.1144 5.81435C47.2073 5.86055 47.4074 5.95285 47.4074 6.12275C47.4074 6.19975 47.3612 6.24595 47.2996 6.29205C47.0995 6.47685 47.0682 6.50765 47.0682 6.63075V10.8025C47.4948 9.39675 47.6724 8.29225 47.7455 6.65605C47.7554 6.42845 47.9572 6.25745 48.1831 6.28875L49.3168 6.44605C49.4707 6.46085 49.6093 6.56915 49.6093 6.67695C49.6093 6.81545 49.4092 6.89245 49.3168 6.93865C49.2486 8.39065 49.0337 10.0872 48.7269 11.0933C48.6675 11.2879 48.469 11.4012 48.2711 11.3556L47.5393 11.1873C47.298 11.1318 47.0682 11.3149 47.0682 11.5623V13.5415C47.0682 13.7543 46.8961 13.9264 46.6833 13.9264H45.747C45.5343 13.9264 45.3622 13.7543 45.3622 13.5415V8.07725C45.2346 8.22185 45.1681 8.29605 45.0922 8.37745C44.9581 8.52205 44.7365 8.54295 44.5787 8.42525L43.8167 7.85565C43.6265 7.71325 43.6128 7.43835 43.7827 7.27185C44.8075 6.26735 45.6679 5.09575 46.3447 3.82135C46.442 3.63775 46.6641 3.56185 46.851 3.65315L47.7774 4.10505V3.42775H49.3184C49.5312 3.42775 49.7033 3.25565 49.7033 3.04285V0.953149C49.7033 0.733249 49.8869 0.55785 50.1068 0.56885L51.3026 0.626549C51.456 0.626549 51.6418 0.70355 51.6418 0.84205C51.6418 0.87285 51.6259 0.949849 51.5335 1.01135C51.395 1.11915 51.3329 1.18125 51.3329 1.30385V3.04345C51.3329 3.25615 51.5049 3.42825 51.7177 3.42825H52.6573C52.8701 3.42825 53.0421 3.60035 53.0421 3.81315V4.12095C53.0421 4.33375 53.2142 4.50585 53.427 4.50585H56.8901C57.1029 4.50585 57.2749 4.67795 57.2749 4.89065V5.67575C57.2749 5.88855 57.1029 6.06065 56.8901 6.06065H56.8752C56.6625 6.06065 56.4904 6.23275 56.4904 6.44545H56.4887ZM47.6839 1.96525C47.514 1.98065 47.4679 1.98065 47.3607 2.08895C46.5497 2.89995 45.8993 3.42825 45.1769 3.94895C45.0257 4.05775 44.8174 4.04125 44.6838 3.91095L44.007 3.25065C43.8321 3.08025 43.8602 2.79435 44.0619 2.65695C44.8371 2.12805 45.575 1.54575 46.2182 0.866849C46.354 0.723849 46.5717 0.70135 46.7284 0.82065L47.6059 1.48805C47.8219 1.64195 47.8681 1.71895 47.8681 1.79645C47.8681 1.93505 47.7609 1.94985 47.6834 1.96585L47.6839 1.96525ZM51.8799 2.77675C51.7886 2.38315 51.7001 2.10765 51.6231 1.90585C51.5429 1.69475 51.6539 1.46005 51.8706 1.39565L52.2801 1.27365C52.466 1.21815 52.6622 1.31155 52.7431 1.48805C52.8932 1.81625 53.007 2.11925 53.1059 2.45455C53.168 2.66405 53.0449 2.88565 52.8332 2.94005L52.3516 3.06485C52.1427 3.11925 51.9288 2.98675 51.8799 2.77625V2.77675ZM52.141 10.6722C52.118 9.72935 52.0531 8.47305 51.8211 6.79345C51.7914 6.57965 51.9415 6.37785 52.1559 6.35315L52.8591 6.27175C53.0641 6.24815 53.2538 6.39215 53.2857 6.59615C53.4886 7.89085 53.5837 9.08065 53.6183 10.4825C53.6227 10.6656 53.4968 10.8312 53.3181 10.8719L52.6111 11.0339C52.3742 11.0884 52.1465 10.9152 52.1405 10.6722H52.141ZM53.427 2.31875V1.56505C53.427 1.35225 53.5991 1.18015 53.8118 1.18015H56.7669C56.9797 1.18015 57.1518 1.35225 57.1518 1.56505V2.31875C57.1518 2.53155 56.9797 2.70365 56.7669 2.70365H53.8118C53.5991 2.70365 53.427 2.53155 53.427 2.31875Z" fill="#00FFFF" style="mix-blend-mode:difference"/>
<path d="M70.7377 13.8151C68.1432 12.1916 67.0195 10.9079 66.0612 8.97319C65.9221 8.69219 65.5224 8.68729 65.3773 8.96489C64.0963 11.4241 62.7245 12.787 60.4094 13.9614C60.2675 14.0334 60.0927 14.0103 59.9745 13.9037L59.1114 13.129C58.9019 12.941 58.9613 12.6045 59.218 12.4885C62.1995 11.1459 63.5311 9.28549 64.2947 6.49799C64.3613 6.25499 64.1732 6.01369 63.9209 6.01369H59.4621C59.2493 6.01369 59.0773 5.84159 59.0773 5.62879V4.73599C59.0773 4.52319 59.2493 4.35109 59.4621 4.35109H64.2463C64.4498 4.35109 64.6191 4.19279 64.6312 3.98989C64.6658 3.41649 64.6658 2.84859 64.6658 2.65779C64.6658 1.99799 64.6493 1.46529 64.6279 1.03259C64.6169 0.804988 64.8049 0.620788 65.0325 0.632888L66.6517 0.718088C66.7594 0.718088 66.9134 0.732988 66.9134 0.902888C66.9134 1.02599 66.76 1.16459 66.6214 1.28769C66.5901 1.61099 66.5901 1.41089 66.5901 2.18059C66.5901 2.29659 66.5686 3.22899 66.5439 3.95469C66.5362 4.17239 66.7105 4.35109 66.9288 4.35109H71.9318C72.1446 4.35109 72.3167 4.52319 72.3167 4.73599V5.62879C72.3167 5.84159 72.1446 6.01369 71.9318 6.01369H67.2163C66.9491 6.01369 66.7666 6.27869 66.854 6.53049C67.7298 9.04569 68.9245 10.6275 72.0808 12.2466C72.32 12.3692 72.3694 12.6897 72.1726 12.8728L71.2088 13.7706C71.0813 13.8894 70.8856 13.9064 70.7377 13.814V13.8151Z" fill="#00FFFF" style="mix-blend-mode:difference"/>
<path d="M85.049 6.75326V5.67566C85.049 5.46286 84.8769 5.29076 84.6642 5.29076H76.3058C76.093 5.29076 75.9209 5.46286 75.9209 5.67566V6.83016C75.9209 7.04296 75.7488 7.21506 75.5361 7.21506H74.6432C74.4304 7.21506 74.2584 7.04296 74.2584 6.83016V4.24566C74.2584 4.03286 74.4304 3.86076 74.6432 3.86076H81.7096C81.8262 3.86076 81.9372 3.80856 82.0103 3.71836C82.6316 2.95636 83.2028 2.15806 83.6295 1.27626C83.7141 1.10146 83.9104 1.01286 84.0946 1.07396L85.2953 1.47416C85.3877 1.50556 85.5576 1.61276 85.5576 1.73646C85.5576 1.79796 85.5262 1.81336 85.4965 1.82876C85.4503 1.87496 85.1111 1.95196 85.0501 2.01356C84.8214 2.43796 84.6009 2.80846 84.2898 3.25546C84.1127 3.51006 84.2941 3.86076 84.6048 3.86076H86.3586C86.5714 3.86076 86.7434 4.03286 86.7434 4.24566V6.75326C86.7434 6.96596 86.5714 7.13806 86.3586 7.13806H85.435C85.2222 7.13806 85.0501 6.96596 85.0501 6.75326H85.049ZM81.8311 10.4165C81.6183 10.4165 81.4463 10.5886 81.4463 10.8013V12.7426C81.4463 13.8186 80.554 14.0803 79.6144 14.0803H78.9019C78.7463 14.0803 78.6061 13.9868 78.5461 13.8427L78.2108 13.0346C78.1003 12.769 78.3103 12.4798 78.5967 12.5035C78.854 12.5244 79.108 12.543 79.1987 12.543C79.461 12.543 79.5682 12.3116 79.5682 12.0807V10.8013C79.5682 10.5886 79.3961 10.4165 79.1833 10.4165H74.6427C74.4299 10.4165 74.2578 10.2444 74.2578 10.0316V9.29486C74.2578 9.08206 74.4299 8.91006 74.6427 8.91006H79.1833C79.3961 8.91006 79.5682 8.73796 79.5682 8.52516V7.95446L80.1246 8.04746C80.24 8.06666 80.361 8.03316 80.4467 7.95336C80.6832 7.73346 80.7876 7.58726 80.8921 7.43056H77.1673C76.9545 7.43056 76.7824 7.25846 76.7824 7.04566V6.38596C76.7824 6.17316 76.9545 6.00116 77.1673 6.00116H83.5448C83.6762 6.00116 83.7988 6.06816 83.8697 6.17926L84.0116 6.40186C84.1138 6.56246 84.0836 6.77186 83.9412 6.89786C83.4904 7.29526 82.9043 7.78406 82.3468 8.22496C82.0609 8.45096 82.2226 8.91056 82.5871 8.91056H86.2805C86.4933 8.91056 86.6654 9.08266 86.6654 9.29546V10.0322C86.6654 10.2449 86.4933 10.417 86.2805 10.417H81.8317L81.8311 10.4165ZM76.4256 3.35446C76.1755 2.88216 75.9121 2.46816 75.5564 2.00806C75.4173 1.82826 75.4684 1.56546 75.6625 1.44726L76.424 0.983761C76.5856 0.885361 76.7967 0.917762 76.9182 1.06346C77.2728 1.48906 77.5978 1.93266 77.9045 2.47976C78.0035 2.65626 77.9419 2.88276 77.7709 2.99106L76.9688 3.49796C76.7808 3.61666 76.5295 3.55186 76.4251 3.35496L76.4256 3.35446ZM79.9344 3.07406C79.6562 2.54456 79.3527 2.06356 78.9436 1.53296C78.804 1.35216 78.8584 1.08826 79.0552 0.971661L79.7925 0.534062C79.9558 0.437262 80.1697 0.474661 80.2895 0.621461C80.7783 1.22346 81.1219 1.75846 81.4039 2.28126C81.5062 2.47096 81.4375 2.70676 81.2472 2.80796L80.4528 3.22966C80.2664 3.32856 80.0322 3.26046 79.9344 3.07346V3.07406Z" fill="#00FFFF" style="mix-blend-mode:difference"/>
<path d="M96.1815 8.93217C96.1015 10.2912 95.9495 11.531 95.7445 12.3866C95.7255 12.4672 95.6465 12.5181 95.5655 12.5045C95.2915 12.4588 94.6975 12.3598 94.4045 12.3111C94.3135 12.2959 94.2555 12.2065 94.2785 12.117C94.4165 11.5719 94.6245 10.6577 94.7755 8.71617C94.7825 8.62737 94.8615 8.56047 94.9495 8.56977L95.9705 8.67567C96.0165 8.67567 96.1935 8.72367 96.1815 8.93237V8.93217ZM98.6435 8.11427C98.6255 8.00607 98.6105 7.92427 98.5955 7.85397C98.5795 7.77307 98.5035 7.71957 98.4215 7.72937C98.3685 7.73577 98.3225 7.73957 98.2665 7.74357C98.1835 7.74967 98.1195 7.81847 98.1195 7.90157V13.8437C98.1195 13.931 98.0485 14.002 97.9615 14.002H96.5735C96.4865 14.002 96.4155 13.9312 96.4155 13.8437V8.11507C96.4155 8.01047 96.3285 7.92717 96.2235 7.93227C95.8795 7.94897 95.1305 7.97447 94.8355 8.00007C94.6515 8.01547 94.5585 8.01547 94.5435 7.83127L94.4365 6.77517C94.4365 6.62137 94.4805 6.54407 94.5925 6.43147C94.9925 6.03267 95.6625 5.25597 95.8935 4.93187C95.9395 4.86787 95.9265 4.77347 95.8675 4.72167C95.5585 4.45217 95.4485 4.40837 94.5995 3.71217C94.5255 3.65157 94.5095 3.54457 94.5645 3.46597C94.5645 3.46597 96.3855 1.30877 96.7635 0.620972C96.8055 0.544672 96.9015 0.518372 96.9775 0.560672L97.9895 1.12127C98.1115 1.19587 98.0335 1.31197 97.9225 1.46967C97.4285 2.21027 97.2005 2.42597 96.6575 3.16737C96.6075 3.23577 96.6185 3.33217 96.6765 3.39397C96.7135 3.43367 96.8675 3.52877 96.8935 3.55537C96.9745 3.64127 97.1025 3.61707 97.1795 3.52677C97.7525 2.85347 97.9565 2.47097 98.1835 2.14667C98.2425 2.06237 98.3435 2.02127 98.4345 2.07117L99.4245 2.72827C99.6245 2.83567 99.3025 3.09667 99.2255 3.20417C98.9345 3.63357 97.5515 5.25257 96.7395 6.23937C96.6425 6.35787 96.6715 6.50697 96.8245 6.50267C97.0375 6.49687 97.8435 6.44437 98.0505 6.43237C98.1655 6.42577 98.2465 6.31387 98.2175 6.20197C98.1485 5.94257 98.0315 5.50557 97.9565 5.27347C97.9235 5.17127 97.9835 5.06227 98.0885 5.03827C98.3805 4.97177 98.9235 4.84767 99.1735 4.79067C99.2505 4.77317 99.3275 4.81377 99.3555 4.88697C99.6895 5.76237 99.9525 6.79657 100.12 7.70937C100.135 7.78807 100.087 7.86397 100.01 7.88717L98.9345 8.21247C98.7545 8.26687 98.6595 8.20787 98.6435 8.11427ZM98.7235 11.4456C98.5155 10.4037 98.4775 9.55127 98.4855 8.88817C98.4865 8.79997 98.5505 8.72617 98.6375 8.71127C98.8615 8.67307 99.4485 8.60077 99.7025 8.55747C99.8125 8.53877 99.9115 8.62277 99.9145 8.73417C99.9395 9.56627 100.035 10.2978 100.221 11.0977C100.244 11.1935 100.187 11.2905 100.093 11.3166L98.9525 11.5862C98.8505 11.6144 98.7445 11.5496 98.7235 11.4457V11.4456ZM103.142 8.27027C103.111 11.7592 102.201 13.0434 100.242 14.0304C100.184 14.0596 100.113 14.0503 100.064 14.0072L98.8475 12.9261C98.7575 12.846 98.7865 12.6982 98.9005 12.6587C101.034 11.9206 101.415 10.6165 101.333 7.89647C101.33 7.80407 101.406 7.72757 101.499 7.73227L102.847 7.80037C103.184 7.81577 103.15 7.98187 103.142 8.27017V8.27027ZM106.479 7.73017C106.353 7.50777 106.223 7.29827 106.078 7.08257C106.046 7.03357 105.988 7.00647 105.929 7.01277C104.987 7.11387 101.007 7.44327 100.574 7.48977C100.549 7.49237 100.314 7.53957 100.298 7.37067L100.136 6.14577C100.121 6.03297 100.249 5.93007 100.359 5.83987C101.166 5.17597 101.785 4.69117 102.21 4.23177C102.299 4.13497 102.231 3.97827 102.099 3.97827H100.058C99.9705 3.97827 99.8995 3.90737 99.8995 3.81987V2.63217C99.8995 2.54487 99.9705 2.47387 100.058 2.47387H102.565C102.653 2.47387 102.724 2.40297 102.724 2.31547V0.828471C102.724 0.738271 102.799 0.666171 102.889 0.670371L104.397 0.739572C104.627 0.753972 104.581 1.03917 104.581 1.08537V2.31587C104.581 2.40327 104.652 2.47427 104.739 2.47427H107.585C107.672 2.47427 107.743 2.54507 107.743 2.63257V3.82027C107.743 3.90767 107.672 3.97867 107.585 3.97867H104.687C104.617 3.97867 104.537 3.97397 104.391 4.11737C103.986 4.51357 103.056 5.25397 102.654 5.71297C102.56 5.82037 102.58 5.92507 102.722 5.91957C103.209 5.90097 104.426 5.81897 104.813 5.78127C104.959 5.76707 105.029 5.59527 104.936 5.48237C104.841 5.36717 104.746 5.25177 104.647 5.13657C104.587 5.06667 104.598 4.96067 104.672 4.90607L105.759 4.10657C105.823 4.05967 105.912 4.06707 105.967 4.12417C106.692 4.87487 107.271 5.61817 107.971 6.77887C108.015 6.85167 107.994 6.94687 107.923 6.99317C107.646 7.17297 106.991 7.59867 106.702 7.78607C106.626 7.83567 106.524 7.80967 106.479 7.73047V7.73017ZM106.392 13.9407H104.888C104.013 13.9407 103.722 13.3112 103.722 12.8509V7.82897C103.722 7.73837 103.797 7.66627 103.888 7.67087L105.226 7.73917C105.425 7.75447 105.41 7.90037 105.41 7.94637V11.7302C105.41 11.9298 105.502 12.2061 105.886 12.2061C106.291 12.2061 106.396 12.0559 106.561 10.9063C106.577 10.7992 106.693 10.7375 106.79 10.7863L107.925 11.3601C107.982 11.3891 108.017 11.451 108.011 11.5149C107.883 13.1321 107.564 13.9408 106.393 13.9408L106.392 13.9407Z" fill="#00FFFF" style="mix-blend-mode:difference"/>
<path d="M121.951 7.00415C121.102 6.64955 120.383 6.29445 119.404 5.63625C119.299 5.56565 119.157 5.64035 119.157 5.76705V6.55256C119.157 6.63996 119.086 6.71095 118.999 6.71095H113.144C113.057 6.71095 112.986 6.64006 112.986 6.55256V6.06595C112.986 5.93785 112.841 5.86345 112.736 5.93705C111.584 6.74465 110.856 7.08106 110.354 7.30976C110.294 7.33736 110.223 7.32425 110.176 7.27695L109.124 6.21206C109.046 6.13376 109.071 6.00315 109.171 5.95685C111.085 5.06885 113.715 3.43955 115.264 0.656255C115.297 0.596455 115.365 0.564455 115.432 0.577655L116.783 0.843254C116.921 0.873954 117.148 1.38855 117.205 1.46405C117.58 1.96985 118.242 2.82595 119.525 3.73305C120.996 4.75985 122.342 5.20975 123.142 5.44535C123.253 5.47785 123.293 5.61305 123.218 5.70045L122.133 6.96136C122.089 7.01336 122.015 7.03065 121.951 7.00415ZM118.728 13.5393H113.538C113.437 13.5393 113.273 13.5408 113.172 13.5408H111.84C111.752 13.5408 111.681 13.47 111.681 13.3825V8.06645C111.681 7.97915 111.752 7.90815 111.84 7.90815H120.488C120.575 7.90815 120.646 7.97895 120.646 8.06645V13.3817C120.646 13.4691 120.575 13.54 120.488 13.54H119.094C118.993 13.54 118.829 13.5393 118.728 13.5393ZM118.753 9.41245H113.513C113.426 9.41245 113.355 9.48335 113.355 9.57085V11.7999C113.355 11.8873 113.426 11.9582 113.513 11.9582H118.753C118.841 11.9582 118.912 11.8874 118.912 11.7999V9.57085C118.912 9.48345 118.841 9.41245 118.753 9.41245ZM115.97 2.76905C115.643 3.24495 115.145 3.91675 114.096 4.86875C113.988 4.96625 114.056 5.14495 114.201 5.14495H118.264C118.412 5.14495 118.48 4.95885 118.365 4.86465C117.736 4.35015 117.07 3.75545 116.222 2.75705C116.154 2.67725 116.029 2.68255 115.97 2.76895V2.76905Z" fill="#00FFFF" style="mix-blend-mode:difference"/>
<path d="M131.703 7.11316C131.571 10.4907 130.232 12.2316 127.468 13.5169C127.376 13.5598 127.266 13.5431 127.19 13.4753L126.202 12.5918C126.06 12.4649 126.103 12.2327 126.281 12.1643C128.622 11.2625 129.804 10.029 129.923 7.12826C129.929 6.98456 129.812 6.86566 129.668 6.86566H125.107C124.966 6.86566 124.852 6.75146 124.852 6.61066V5.53906C124.852 5.39826 124.966 5.28406 125.107 5.28406H136.017C136.158 5.28406 136.272 5.39826 136.272 5.53906V6.61066C136.272 6.75146 136.158 6.86566 136.017 6.86566H131.957C131.819 6.86566 131.708 6.97546 131.703 7.11316ZM126.905 2.83936V1.69186C126.905 1.55106 127.019 1.43686 127.16 1.43686H134.086C134.227 1.43686 134.341 1.55106 134.341 1.69186V2.83936C134.341 2.98016 134.227 3.09436 134.086 3.09436H127.16C127.019 3.09436 126.905 2.98016 126.905 2.83936ZM136.65 3.84066C136.188 3.46046 135.808 3.21446 135.494 3.02026C135.371 2.94406 135.337 2.78056 135.418 2.66086L135.713 2.22686L136.056 2.15116C136.535 2.43476 136.875 2.68096 137.27 3.01966C137.369 3.10436 137.389 3.25006 137.316 3.35766L137.024 3.78796C136.94 3.91216 136.766 3.93606 136.651 3.84076L136.65 3.84066ZM137.097 1.90426C136.888 1.73016 136.592 1.52276 136.013 1.19306C135.883 1.11906 135.843 0.949956 135.928 0.826856L136.201 0.428856C136.276 0.319256 136.424 0.286156 136.539 0.352356C137.182 0.720556 137.487 0.938656 137.697 1.11576C137.797 1.20026 137.816 1.34646 137.742 1.45446L137.47 1.85196L137.097 1.90426Z" fill="#00FFFF" style="mix-blend-mode:difference"/>
<path d="M148.05 5.93261C147.871 10.2558 146.859 11.773 144.097 13.4787C143.999 13.5394 143.871 13.5261 143.787 13.4464L142.931 12.6325C142.808 12.5156 142.832 12.3129 142.979 12.2279C145.366 10.844 146.271 9.40391 146.357 6.19321C146.361 6.05051 146.245 5.93261 146.102 5.93261H143.743C143.602 5.93261 143.488 6.04671 143.488 6.18751V9.08391C143.488 9.22471 143.374 9.33891 143.233 9.33891H141.933C141.792 9.33891 141.678 9.22471 141.678 9.08391V6.18751C141.678 6.04671 141.564 5.93261 141.423 5.93261H139.075C138.934 5.93261 138.82 5.81841 138.82 5.67761V4.46921C138.82 4.32841 138.934 4.21421 139.075 4.21421H141.423C141.564 4.21421 141.678 4.10011 141.678 3.95931V1.57881C141.678 1.42701 141.81 1.30891 141.961 1.32521L143.263 1.46731C143.613 1.51291 143.488 1.88771 143.488 2.07001V3.95911C143.488 4.09991 143.602 4.21411 143.743 4.21411H146.106C146.247 4.21411 146.362 4.09891 146.362 3.95811C146.362 2.86861 146.361 2.09821 146.341 1.36631C146.337 1.20911 146.474 1.08591 146.63 1.10731L147.883 1.27921C148.202 1.32481 148.065 1.82671 148.065 2.03961V3.95911C148.065 4.09991 148.179 4.21411 148.32 4.21411H150.35C150.491 4.21411 150.605 4.32831 150.605 4.46911V5.67751C150.605 5.81831 150.491 5.93241 150.35 5.93241H148.05V5.93261ZM149.867 1.39121C150.281 1.64381 150.656 1.93031 151.017 2.24431C151.119 2.33311 151.132 2.48771 151.048 2.59401L150.724 3.00251C150.634 3.11601 150.469 3.13091 150.358 3.03731C150.01 2.74241 149.656 2.47191 149.269 2.23121C149.14 2.15111 149.113 1.97431 149.209 1.85651L149.538 1.45031C149.618 1.35201 149.759 1.32521 149.867 1.39121ZM150.814 0.0353429C151.252 0.290413 151.613 0.551113 151.971 0.857713C152.075 0.947113 152.091 1.10321 152.005 1.21081L151.684 1.61561C151.595 1.72911 151.428 1.74561 151.319 1.65041C150.981 1.35631 150.636 1.08641 150.245 0.846313C150.115 0.766613 150.086 0.590013 150.182 0.471213L150.484 0.0947625C150.564 -0.00417745 150.704 -0.0284971 150.814 0.0353429Z" fill="#00FFFF" style="mix-blend-mode:difference"/>
<path d="M161.747 2.84952C160.987 3.71632 160.135 4.50702 159.238 5.22182V13.072C159.238 13.2129 159.124 13.327 158.983 13.327H157.593C157.452 13.327 157.338 13.2129 157.338 13.072V7.10812C157.338 6.90572 157.113 6.78442 156.944 6.89452C156.066 7.46412 155.129 8.02322 153.671 8.71702C153.573 8.76382 153.454 8.74312 153.378 8.66522L152.448 7.71362C152.323 7.58572 152.364 7.37052 152.529 7.30132C155.528 6.04472 158.636 3.71802 160.84 1.16862C160.931 1.06372 161.088 1.04992 161.195 1.13852L162.325 2.07412C162.386 2.11962 161.96 2.62152 161.747 2.84962V2.84952ZM162.325 2.07402C162.524 2.24232 161.96 2.62132 161.747 2.84952C161.019 3.67982 160.207 4.44022 159.352 5.13082" fill="#00FFFF" style="mix-blend-mode:difference"/>
<path d="M168.132 5.24087C167.411 4.66407 165.638 3.61507 164.662 3.15577C164.522 3.08977 164.473 2.91637 164.557 2.78657L165.206 1.78707L165.524 1.69287C166.393 2.08467 168.331 3.14727 169.164 3.80397C169.27 3.88747 169.293 4.03807 169.216 4.14917L168.504 5.18487C168.42 5.30807 168.249 5.33387 168.132 5.24067V5.24087ZM171.97 9.08557C169.623 10.987 168.19 11.6406 166.367 12.4211C166.283 12.4571 165.781 12.8569 165.674 12.6592L164.782 11.1299C164.697 10.9834 164.775 10.7953 164.94 10.7544C166.171 10.4472 168.027 9.87207 170.252 8.20367C172.358 6.63397 173.754 4.83987 174.496 3.83727C174.6 3.69657 174.811 3.70087 174.91 3.84497L175.652 4.92007C175.714 5.01047 175.713 5.12957 175.647 5.21717C175.023 6.04787 173.861 7.55337 171.97 9.08567V9.08557Z" fill="#00FFFF" style="mix-blend-mode:difference"/>
<path d="M198.131 10.7106V13.7152C198.131 13.7884 198.072 13.8477 197.999 13.8477H196.361C196.287 13.8477 196.228 13.7884 196.228 13.7152V10.7106C196.228 10.6374 196.169 10.5782 196.096 10.5782H190.727C190.654 10.5782 190.594 10.5189 190.594 10.4457V9.09885C190.594 9.02565 190.654 8.96635 190.727 8.96635H196.096C196.169 8.96635 196.228 8.90705 196.228 8.83385V7.73605C196.228 7.54855 196.39 7.40255 196.577 7.42225C196.701 7.43555 196.773 7.28525 196.685 7.19695L196.416 6.92805C196.358 6.87035 196.366 6.77495 196.432 6.72685C196.695 6.53565 196.858 6.37705 197.579 5.69665C197.824 5.45195 198.406 4.78855 198.984 3.80775C199.036 3.72005 198.971 3.60915 198.869 3.60915H195.465L195.474 3.46885C195.689 3.57635 195.215 4.43795 195.169 4.48415C195.148 4.50465 195.038 4.67745 194.953 4.81205C194.901 4.89525 194.923 5.00405 195.004 5.05935C195.42 5.34365 196.762 6.12785 197.303 6.36845C197.38 6.40265 197.407 6.49755 197.358 6.56625L196.454 7.84585C195.654 7.43095 194.41 6.68635 194.048 6.37015L193.856 6.39165C193.169 7.28665 192.656 7.80985 192.189 8.27785C192.145 8.32165 192.077 8.32895 192.025 8.29605L190.735 7.48355C190.659 7.43525 190.653 7.32675 190.723 7.26935C191.884 6.31975 192.878 5.17285 193.466 3.79285C193.503 3.70595 193.438 3.60895 193.343 3.60895H191.448C191.375 3.60895 191.316 3.54975 191.316 3.47655V2.20635C191.316 2.13315 191.375 2.07385 191.448 2.07385H196.172C196.246 2.07385 196.305 2.01455 196.305 1.94135V0.762647C196.305 0.657847 196.393 0.574347 196.497 0.579847L197.923 0.661848C198.151 0.663848 198.193 0.866047 198.193 0.988747V1.94165C198.193 2.01485 198.252 2.07415 198.325 2.07415H203.049C203.123 2.07415 203.182 2.13345 203.182 2.20665V3.47675C203.182 3.54995 203.123 3.60925 203.049 3.60925H201.283C201.13 3.60925 200.833 4.23865 200.803 4.26935C200.778 4.29365 200.609 4.55995 200.509 4.70715C200.475 4.75755 200.48 4.82565 200.52 4.87125C201.597 6.07845 202.607 6.66625 203.36 7.03275C203.439 7.07145 203.458 7.17575 203.398 7.24075L202.382 8.34685C202.339 8.39445 202.266 8.40345 202.212 8.36825C200.962 7.56215 200.214 6.78385 199.642 6.10595C199.59 6.04375 199.494 6.04425 199.441 6.10555C199.042 6.56145 198.653 6.91805 198.271 7.28065C198.179 7.36785 198.081 7.39145 198.048 7.41865C198.019 7.44285 198.138 7.43585 198.138 7.52005C198.139 7.73715 198.132 8.03415 198.132 8.09145V8.83405C198.132 8.90725 198.191 8.96655 198.264 8.96655H203.725C203.798 8.96655 203.857 9.02575 203.857 9.09895V10.4458C203.857 10.519 203.798 10.5783 203.725 10.5783H198.264C198.191 10.5783 198.132 10.6376 198.132 10.7108L198.131 10.7106Z" fill="#00FFFF" style="mix-blend-mode:difference"/>
<path d="M218.146 14.2193C218.096 14.2702 218.021 14.2875 217.954 14.2628C217.45 14.0778 215.781 13.3229 214.544 12.3488C213.069 11.1883 212.412 9.9463 212.093 9.2912C212.071 9.2455 212.025 9.2175 211.974 9.2175H211.483C211.41 9.2175 211.351 9.2762 211.35 9.3492L211.336 11.6267C211.336 11.7078 211.409 11.7702 211.489 11.7584C212.103 11.6683 212.642 11.5838 213.266 11.4384C213.352 11.4184 213.434 11.4854 213.429 11.5735L213.367 12.7857C213.364 12.845 213.322 12.8952 213.264 12.9083C211.294 13.3546 209.319 13.698 208.383 13.8491C208.149 13.8928 207.912 13.9453 207.897 13.7611L207.73 12.3561C207.721 12.2794 207.779 12.211 207.856 12.2083C208.079 12.2001 208.427 12.1667 209.437 12.0412C209.504 12.033 209.555 11.9764 209.555 11.9096V9.35C209.555 9.2768 209.495 9.2175 209.422 9.2175H207.937C207.87 9.2175 207.815 9.2664 207.806 9.3328C207.676 10.3779 207.344 11.8252 206.566 13.4417C206.538 13.5013 206.469 13.5313 206.406 13.5113L205.023 13.072C204.945 13.0471 204.907 12.9586 204.945 12.8855C205.153 12.4818 205.475 11.8191 205.748 10.7678C206.101 9.4629 206.331 7.8974 206.331 6.04C206.331 4.516 206.244 2.5997 206.154 0.913202C206.15 0.837402 206.211 0.774902 206.287 0.774902H217.972C218.046 0.774902 218.105 0.834202 218.105 0.907402V4.2191C218.105 4.2923 218.046 4.3515 217.972 4.3515H215.249C215.464 4.3824 215.511 4.5158 215.511 4.5743V5.3091C215.511 5.3823 215.57 5.4416 215.643 5.4416H217.88C217.953 5.4416 218.013 5.5009 218.013 5.5741V6.6293C218.013 6.7025 217.953 6.7618 217.88 6.7618H215.643C215.57 6.7618 215.511 6.8211 215.511 6.8943V7.7191C215.511 7.7923 215.57 7.8516 215.643 7.8516H218.31C218.383 7.8516 218.442 7.9109 218.442 7.9841V9.0855C218.442 9.1587 218.383 9.218 218.31 9.218H217.246C217.078 9.218 216.998 9.4246 217.123 9.5369L217.549 9.9421C217.642 10.0229 217.559 10.1332 217.457 10.2116C217.218 10.4082 216.568 10.9354 216.122 11.3364C216.048 11.4024 216.056 11.4977 216.141 11.5492C216.733 11.911 218.355 12.4562 219.094 12.6291C219.233 12.6616 219.283 12.8337 219.183 12.9353L218.146 14.2193ZM209.837 6.7613H208.521C208.448 6.7613 208.388 6.702 208.388 6.6288V5.5736C208.388 5.5004 208.448 5.4411 208.521 5.4411H209.837C209.91 5.4411 209.97 5.3818 209.97 5.3086V4.4835C209.97 4.4103 209.91 4.351 209.837 4.351H208.106C208.033 4.351 207.974 4.4103 207.974 4.4835V6.1009C207.974 6.4174 207.974 7.0306 207.949 7.7128C207.946 7.7878 208.006 7.8508 208.081 7.8508H209.837C209.91 7.8508 209.969 7.7916 209.969 7.7184V6.8935C209.969 6.8203 209.91 6.7613 209.837 6.7613ZM216.269 2.1102H208.106C208.033 2.1102 207.974 2.1695 207.974 2.2427V2.8834C207.974 2.9566 208.033 3.0159 208.106 3.0159H216.269C216.342 3.0159 216.401 2.9566 216.401 2.8834V2.2427C216.401 2.1695 216.342 2.1102 216.269 2.1102ZM213.792 4.4838C213.792 4.4106 213.732 4.3513 213.659 4.3513H211.49C211.697 4.3961 211.658 4.5832 211.658 4.6401V5.3089C211.658 5.3821 211.717 5.4414 211.79 5.4414H213.659C213.732 5.4414 213.792 5.3821 213.792 5.3089V4.4838ZM213.659 6.7613H211.79C211.717 6.7613 211.658 6.8206 211.658 6.8938V7.7186C211.658 7.7918 211.717 7.8511 211.79 7.8511H213.659C213.732 7.8511 213.792 7.7918 213.792 7.7186V6.8938C213.792 6.8206 213.732 6.7613 213.659 6.7613ZM213.927 9.4208C214.252 9.9506 214.559 10.2605 214.769 10.4502C214.817 10.4927 214.888 10.495 214.939 10.4567C215.371 10.128 215.685 9.7893 215.971 9.4329C216.041 9.3463 215.979 9.2175 215.868 9.2175H214.039C213.935 9.2175 213.872 9.3324 213.927 9.4208Z" fill="#00FFFF" style="mix-blend-mode:difference"/>
<path d="M187.888 10.2145C186.931 11.6297 185.634 12.2455 184.852 12.5715C184.743 12.617 184.617 12.5806 184.548 12.4845L183.851 11.5148C183.75 11.3732 183.817 11.1748 183.983 11.1223C184.6 10.9278 185.428 10.5858 186.131 9.74434C186.975 8.74884 187.127 7.60104 187.127 6.99264C187.127 6.23224 186.906 5.30574 186.131 4.57284C185.383 3.86014 184.564 3.71884 184.023 3.66694C183.887 3.65394 183.767 3.75164 183.747 3.88674C183.298 7.03194 182.511 8.89604 182.066 9.79974C181.651 10.6569 181.015 11.8185 180.296 11.8185C179.798 11.8185 177.531 10.574 177.531 8.09874C177.531 5.02904 180.061 2.23584 183.629 2.23584C186.505 2.23584 188.773 4.18564 188.773 7.26924C188.773 8.48594 188.399 9.45394 187.887 10.2145H187.888ZM180.448 4.89084C179.466 5.83114 179.066 7.11714 179.066 7.96064C179.066 9.08064 179.702 9.66144 179.951 9.66144C180.624 9.66144 181.708 6.50044 182.071 4.32684C182.105 4.12774 181.908 3.97094 181.721 4.04774C181.359 4.19704 180.914 4.43524 180.448 4.89084Z" fill="#00FFFF" style="mix-blend-mode:difference"/>
<path d="M233.036 10.3419V12.8599C233.036 13.0727 232.864 13.2448 232.651 13.2448H227.032C226.82 13.2448 226.648 13.0727 226.648 12.8599V12.0446C226.648 9.62883 228.252 8.41933 229.842 6.82933C230.396 6.27623 231.243 5.42963 231.243 4.47903C231.243 3.83963 231.121 2.90663 229.859 2.90663C228.459 2.90663 228.442 4.15083 228.442 4.64943V5.33833H226.682V4.64943C226.682 2.59933 227.649 1.15283 229.859 1.15283C231.967 1.15283 233.036 2.37613 233.036 4.47733C233.036 5.71933 232.467 6.65283 231.121 8.00263C230.054 9.07083 228.884 10.0247 228.573 10.9846C228.496 11.2227 228.697 11.4624 228.947 11.4624H230.961C231.174 11.4624 231.346 11.2903 231.346 11.0775V10.343C231.346 10.1302 231.518 9.95823 231.731 9.95823H232.651C232.864 9.95823 233.036 10.1302 233.036 10.343V10.3419Z" fill="#00FFFF" style="mix-blend-mode:difference"/>
<path d="M240.919 4.65358V9.97718C240.919 12.0334 239.887 13.4799 237.749 13.4799C235.611 13.4799 234.578 12.0334 234.578 9.97718V4.65358C234.578 2.59798 235.611 1.15088 237.749 1.15088C239.887 1.15088 240.919 2.59798 240.919 4.65358ZM236.316 4.65358V6.70708C236.316 7.07428 236.78 7.23268 237.005 6.94238L239.075 4.26768C239.132 4.19288 239.167 4.09998 239.156 4.00598C239.094 3.47928 238.695 2.87288 237.749 2.87288C236.351 2.87288 236.316 4.15168 236.316 4.65308V4.65358ZM239.181 9.97718V7.94238C239.181 7.57518 238.716 7.41628 238.492 7.70708L236.44 10.3637C236.383 10.4379 236.349 10.5303 236.359 10.6237C236.418 11.1504 236.802 11.7579 237.749 11.7579C239.147 11.7579 239.181 10.4791 239.181 9.97768V9.97718Z" fill="#00FFFF" style="mix-blend-mode:difference"/>
<path d="M248.825 10.3419V12.8599C248.825 13.0727 248.653 13.2448 248.441 13.2448H242.822C242.61 13.2448 242.438 13.0727 242.438 12.8599V12.0446C242.438 9.62883 244.042 8.41933 245.632 6.82933C246.186 6.27623 247.033 5.42963 247.033 4.47903C247.033 3.83963 246.912 2.90663 245.649 2.90663C244.25 2.90663 244.234 4.15083 244.234 4.64943V5.33833H242.473V4.64943C242.473 2.59933 243.439 1.15283 245.649 1.15283C247.757 1.15283 248.825 2.37613 248.825 4.47733C248.825 5.71933 248.257 6.65283 246.912 8.00263C245.844 9.07083 244.674 10.0247 244.363 10.9846C244.286 11.2227 244.488 11.4624 244.738 11.4624H246.751C246.964 11.4624 247.136 11.2903 247.136 11.0775V10.343C247.136 10.1302 247.308 9.95823 247.521 9.95823H248.441C248.653 9.95823 248.825 10.1302 248.825 10.343V10.3419Z" fill="#00FFFF" style="mix-blend-mode:difference"/>
<path d="M385.12 9.79356V9.60336H386.846V9.70676C386.846 10.4506 386.95 11.4188 388.225 11.4188C389.38 11.4188 389.62 10.5545 389.62 9.56876V8.40646C389.62 8.12716 389.331 7.93536 389.079 8.05576C388.816 8.18216 388.465 8.28886 388.035 8.28886C385.794 8.28886 385 6.63506 385 4.54203C385 2.98449 385.621 0.779297 388.207 0.779297C390.794 0.779297 391.415 2.98449 391.415 4.54203V9.56876C391.415 11.5046 390.639 13.1083 388.224 13.1083C385.897 13.1083 385.12 11.6948 385.12 9.79306V9.79356ZM386.812 4.54258C386.812 6.0479 387.345 6.56746 388.207 6.56746C389.069 6.56746 389.602 6.04845 389.602 4.54258C389.602 3.03672 389.068 2.51717 388.207 2.51717C387.346 2.51717 386.812 3.03617 386.812 4.54258Z" fill="#00FFFF" style="mix-blend-mode:difference"/>
<path d="M394.604 3.44238H395.971C396.184 3.44238 396.356 3.61446 396.356 3.82723V5.1951C396.356 5.40786 396.184 5.57995 395.971 5.57995H394.604C394.391 5.57995 394.219 5.40786 394.219 5.1951V3.82723C394.219 3.61446 394.391 3.44238 394.604 3.44238ZM396.357 8.69224V10.0601C396.357 10.2729 396.185 10.445 395.972 10.445H394.604C394.391 10.445 394.219 10.2729 394.219 10.0601V8.69224C394.219 8.47954 394.391 8.30744 394.604 8.30744H395.972C396.185 8.30744 396.357 8.47954 396.357 8.69224Z" fill="#00FFFF" style="mix-blend-mode:difference"/>
<path d="M405.418 4.2815V9.60505C405.418 11.6612 404.386 13.1077 402.248 13.1077C400.11 13.1077 399.078 11.6612 399.078 9.60505V4.2815C399.078 2.22585 400.11 0.778809 402.248 0.778809C404.386 0.778809 405.418 2.22585 405.418 4.2815ZM400.816 4.2815V6.33495C400.816 6.70225 401.281 6.86055 401.505 6.57025L403.574 3.89555C403.632 3.82078 403.666 3.72786 403.655 3.63385C403.594 3.10715 403.195 2.50074 402.248 2.50074C400.85 2.50074 400.816 3.77954 400.816 4.28095V4.2815ZM403.681 9.60505V7.57035C403.681 7.20305 403.216 7.04415 402.992 7.33505L400.94 9.99155C400.883 10.0657 400.848 10.1581 400.859 10.2516C400.918 10.7783 401.301 11.3858 402.249 11.3858C403.647 11.3858 403.681 10.107 403.681 9.60565V9.60505Z" fill="#00FFFF" style="mix-blend-mode:difference"/>
<path d="M413.005 4.2815V9.60505C413.005 11.6612 411.972 13.1077 409.834 13.1077C407.696 13.1077 406.664 11.6612 406.664 9.60505V4.2815C406.664 2.22585 407.696 0.778809 409.834 0.778809C411.972 0.778809 413.005 2.22585 413.005 4.2815ZM408.402 4.2815V6.33495C408.402 6.70225 408.866 6.86055 409.091 6.57025L411.161 3.89555C411.219 3.82078 411.253 3.72786 411.242 3.63385C411.181 3.10715 410.781 2.50074 409.834 2.50074C408.436 2.50074 408.402 3.77954 408.402 4.28095V4.2815ZM411.268 9.60505V7.56975C411.268 7.20255 410.803 7.04365 410.578 7.33445L408.526 9.99105C408.468 10.0652 408.434 10.1581 408.445 10.251C408.504 10.7777 408.888 11.3852 409.835 11.3852C411.233 11.3852 411.268 10.1064 411.268 9.60505Z" fill="#00FFFF" style="mix-blend-mode:difference"/>
<path d="M429.979 11.0896H431.44C431.653 11.0896 431.825 10.9175 431.825 10.7047V4.57788C431.825 4.36511 431.653 4.19303 431.44 4.19303H429.979C429.766 4.19303 429.594 4.02094 429.594 3.80818V3.17702C429.594 2.98295 429.738 2.81581 429.931 2.79657C430.856 2.70696 431.606 2.23579 431.788 1.3072C431.822 1.13237 431.983 1.00977 432.161 1.00977H433.331C433.543 1.00977 433.715 1.18185 433.715 1.39462V10.7047C433.715 10.9175 433.888 11.0896 434.1 11.0896H435.555C435.767 11.0896 435.939 11.2616 435.939 11.4744V12.4882C435.939 12.701 435.767 12.8731 435.555 12.8731H429.979C429.766 12.8731 429.594 12.701 429.594 12.4882V11.4744C429.594 11.2616 429.766 11.0896 429.979 11.0896H429.979Z" fill="#00FFFF" style="mix-blend-mode:difference"/>
<path d="M443.396 1.39364V2.59052C443.396 2.66089 443.377 2.72907 443.34 2.78899C441.948 5.02882 440.879 7.6205 440.915 10.8054C440.917 11.016 441.093 11.1881 441.304 11.1881H441.684C441.897 11.1881 442.069 11.3602 442.069 11.5729V12.4927C442.069 12.7055 441.897 12.8776 441.684 12.8776H438.255C438.042 12.8776 437.87 12.7055 437.87 12.4927V11.5729C437.87 11.3602 438.042 11.1881 438.255 11.1881H438.72C438.934 11.1881 439.107 11.016 439.104 10.8021C439.077 9.1748 439.479 6.4539 441.224 3.27336C441.366 3.01441 441.186 2.69773 440.89 2.69773H439.083C438.87 2.69773 438.698 2.86981 438.698 3.08258V3.89901C438.698 4.11178 438.526 4.28386 438.313 4.28386H437.393C437.18 4.28386 437.008 4.11178 437.008 3.89901V1.39364C437.008 1.18087 437.18 1.00879 437.393 1.00879H443.012C443.225 1.00879 443.397 1.18087 443.397 1.39364H443.396Z" fill="#00FFFF" style="mix-blend-mode:difference"/>
<path d="M446.471 3.44238H447.839C448.051 3.44238 448.224 3.61446 448.224 3.82723V5.1951C448.224 5.40786 448.051 5.57995 447.839 5.57995H446.471C446.258 5.57995 446.086 5.40786 446.086 5.1951V3.82723C446.086 3.61446 446.258 3.44238 446.471 3.44238ZM448.224 8.69224V10.0601C448.224 10.2729 448.052 10.445 447.839 10.445H446.471C446.259 10.445 446.087 10.2729 446.087 10.0601V8.69224C446.087 8.47954 446.259 8.30744 446.471 8.30744H447.839C448.052 8.30744 448.224 8.47954 448.224 8.69224Z" fill="#00FFFF" style="mix-blend-mode:difference"/>
<path d="M457.293 4.2815V9.60505C457.293 11.6612 456.261 13.1077 454.123 13.1077C451.985 13.1077 450.953 11.6612 450.953 9.60505V4.2815C450.953 2.22585 451.985 0.778809 454.123 0.778809C456.261 0.778809 457.293 2.22585 457.293 4.2815ZM452.691 4.2815V6.33495C452.691 6.70225 453.156 6.86055 453.38 6.57025L455.449 3.89555C455.507 3.82078 455.541 3.72786 455.53 3.63385C455.469 3.10715 455.07 2.50074 454.123 2.50074C452.725 2.50074 452.691 3.77954 452.691 4.28095V4.2815ZM455.556 9.60505V7.57035C455.556 7.20305 455.091 7.04415 454.867 7.33505L452.815 9.99155C452.758 10.0657 452.723 10.1581 452.734 10.2516C452.793 10.7783 453.176 11.3858 454.124 11.3858C455.522 11.3858 455.556 10.107 455.556 9.60565V9.60505Z" fill="#00FFFF" style="mix-blend-mode:difference"/>
<path d="M464.88 4.2815V9.60505C464.88 11.6612 463.847 13.1077 461.709 13.1077C459.571 13.1077 458.539 11.6612 458.539 9.60505V4.2815C458.539 2.22585 459.571 0.778809 461.709 0.778809C463.847 0.778809 464.88 2.22585 464.88 4.2815ZM460.277 4.2815V6.33495C460.277 6.70225 460.741 6.86055 460.966 6.57025L463.036 3.89555C463.094 3.82078 463.128 3.72786 463.117 3.63385C463.055 3.10715 462.656 2.50074 461.709 2.50074C460.311 2.50074 460.277 3.77954 460.277 4.28095V4.2815ZM463.143 9.60505V7.56975C463.143 7.20255 462.678 7.04365 462.453 7.33445L460.401 9.99105C460.343 10.0652 460.309 10.1581 460.32 10.251C460.379 10.7777 460.763 11.3852 461.71 11.3852C463.108 11.3852 463.143 10.1064 463.143 9.60505Z" fill="#00FFFF" style="mix-blend-mode:difference"/>
<path d="M493.946 12.6467V11.7082C493.946 11.4954 494.118 11.3233 494.33 11.3233H498.918C499.131 11.3233 499.303 11.1513 499.303 10.9385V0.718527C499.303 0.493657 499.495 0.316627 499.719 0.334777L501.381 0.470017C501.474 0.470017 501.612 0.516207 501.612 0.639357C501.612 0.762507 501.52 0.809237 501.442 0.855417C501.35 0.901607 501.212 0.963177 501.212 1.04015V4.42683C501.212 4.6396 501.384 4.81168 501.596 4.81168H505.814C506.027 4.81168 506.199 4.98376 506.199 5.19653V6.21253C506.199 6.4253 506.027 6.5974 505.814 6.5974H501.596C501.384 6.5974 501.212 6.7695 501.212 6.9822V10.9379C501.212 11.1507 501.384 11.3228 501.596 11.3228H506.815C507.028 11.3228 507.2 11.4949 507.2 11.7076V12.6461C507.2 12.8589 507.028 13.031 506.815 13.031H494.33C494.117 13.031 493.945 12.8589 493.945 12.6461L493.946 12.6467Z" fill="#00FFFF" style="mix-blend-mode:difference"/>
<path d="M512.191 12.2912C511.946 12.3374 510.714 12.5375 510.422 12.5837C510.206 12.615 509.713 12.7074 509.621 12.8146C509.467 12.9686 509.421 13.0147 509.329 13.0147C509.251 13.0147 509.144 12.984 509.128 12.8916L508.853 11.6276C508.803 11.4006 508.969 11.1812 509.2 11.162C510.061 11.0894 510.465 11.0432 511.157 10.9613C511.351 10.9382 511.499 10.7738 511.499 10.5786V9.78152C511.499 9.56872 511.327 9.39662 511.114 9.39662H509.637C509.424 9.39662 509.252 9.22452 509.252 9.01182V8.45982C509.252 8.24702 509.424 8.07492 509.637 8.07492H511.114C511.327 8.07492 511.499 7.90282 511.499 7.69012V7.33382C511.499 7.12102 511.327 6.94902 511.114 6.94902H509.637C509.424 6.94902 509.252 6.77692 509.252 6.56412V1.14874C509.252 0.935972 509.424 0.763892 509.637 0.763892H514.809C515.022 0.763892 515.194 0.935972 515.194 1.14874V6.56522C515.194 6.77802 515.022 6.95012 514.809 6.95012H513.254C513.041 6.95012 512.869 7.12212 512.869 7.33492V7.69122C512.869 7.90392 513.041 8.07602 513.254 8.07602H514.809C515.022 8.07602 515.194 8.24812 515.194 8.46092V9.01292C515.194 9.22562 515.022 9.39772 514.809 9.39772H513.254C513.041 9.39772 512.869 9.56982 512.869 9.78262V10.2911C512.869 10.527 513.082 10.7067 513.315 10.6716C514.044 10.5616 514.533 10.4764 514.905 10.4033C515.143 10.3565 515.364 10.538 515.364 10.781V11.3489C515.364 11.5309 515.235 11.6898 515.057 11.7277C514.099 11.9317 513.151 12.112 512.191 12.2918V12.2912ZM511.114 2.08557H511.021C510.809 2.08557 510.637 2.25766 510.637 2.47042V2.77995C510.637 2.99272 510.809 3.1648 511.021 3.1648H511.114C511.327 3.1648 511.499 2.99272 511.499 2.77995V2.47042C511.499 2.25766 511.327 2.08557 511.114 2.08557ZM511.114 4.50243H511.021C510.809 4.50243 510.637 4.67451 510.637 4.88728V5.2276C510.637 5.44037 510.809 5.61245 511.021 5.61245H511.114C511.327 5.61245 511.499 5.44037 511.499 5.2276V4.88728C511.499 4.67451 511.327 4.50243 511.114 4.50243ZM513.423 2.08557H513.254C513.041 2.08557 512.869 2.25766 512.869 2.47042V2.77995C512.869 2.99272 513.041 3.1648 513.254 3.1648H513.423C513.636 3.1648 513.808 2.99272 513.808 2.77995V2.47042C513.808 2.25766 513.636 2.08557 513.423 2.08557ZM513.423 4.50243H513.254C513.041 4.50243 512.869 4.67451 512.869 4.88728V5.2276C512.869 5.44037 513.041 5.61245 513.254 5.61245H513.423C513.636 5.61245 513.808 5.44037 513.808 5.2276V4.88728C513.808 4.67451 513.636 4.50243 513.423 4.50243ZM520.502 9.49062L520.046 9.28662C519.791 9.17282 519.504 9.35922 519.504 9.63802V11.9542C519.504 13.0131 519.111 13.3556 517.386 13.4645C517.235 13.4738 517.088 13.3913 517.018 13.2556L516.332 11.9234H517.241C517.64 11.9234 517.825 11.8157 517.825 11.4308V7.33552C517.825 7.12272 517.652 6.95062 517.44 6.95062H516.147C515.934 6.95062 515.762 6.77852 515.762 6.56582V5.87525C515.762 5.66248 515.934 5.4904 516.147 5.4904H517.836C518.224 5.4904 518.372 4.9791 518.039 4.77787C517.733 4.5926 517.355 4.38588 516.875 4.15607C516.674 4.05985 516.599 3.8108 516.71 3.61783L517.034 3.05649C517.128 2.89431 517.328 2.82394 517.503 2.88826C517.777 2.98832 517.979 3.07684 518.212 3.1835C518.352 3.24782 518.518 3.22198 518.632 3.11917C518.75 3.01361 518.863 2.90805 518.979 2.79315C519.221 2.55069 519.049 2.1345 518.706 2.1345H516.439C516.226 2.1345 516.054 1.96242 516.054 1.74965V1.10311C516.054 0.890342 516.226 0.718262 516.439 0.718262H521.524C521.638 0.718262 521.746 0.768292 521.819 0.855702L522.057 1.13939C522.181 1.28728 522.178 1.5017 522.049 1.64465C521.591 2.14935 520.931 2.84428 520.042 3.64037C519.858 3.80585 519.874 4.09834 520.075 4.24403C520.258 4.37708 520.401 4.49199 520.524 4.59754C520.672 4.72564 520.703 4.94281 520.593 5.10555L520.333 5.4915H521.805C521.916 5.4915 522.022 5.53933 522.095 5.62289L522.448 6.02754C522.548 6.14134 522.574 6.29913 522.511 6.43602C522.159 7.20962 521.671 8.21462 520.989 9.33892C520.888 9.50442 520.676 9.57092 520.499 9.49172L520.502 9.49062ZM519.888 6.95012C519.676 6.95012 519.504 7.12212 519.504 7.33492V8.85892C519.935 8.28712 520.169 7.91932 520.383 7.51252C520.516 7.25682 520.329 6.95012 520.041 6.95012H519.888Z" fill="#00FFFF" style="mix-blend-mode:difference"/>
<path d="M531.023 9.34618C530.828 9.36708 530.68 9.53258 530.68 9.72888V10.9538C530.68 11.7389 530.864 11.9077 531.618 11.9077H533.819C534.898 11.9077 535.204 11.586 535.368 10.575C535.409 10.3166 535.685 10.1681 535.919 10.2847L536.792 10.7168C536.946 10.7932 537.032 10.9659 536.999 11.1347C536.607 13.1436 535.944 13.5086 534.62 13.5086H530.663C529.387 13.5086 528.847 12.7857 528.847 11.5998V10.012C528.847 9.78328 528.649 9.60458 528.421 9.62928L524.366 10.0659C524.155 10.0884 523.965 9.93558 523.943 9.72388L523.854 8.88768C523.832 8.67708 523.984 8.48738 524.195 8.46438L528.505 7.98988C528.7 7.96838 528.848 7.80348 528.848 7.60718V6.60938C528.848 6.38068 528.65 6.20251 528.423 6.2267L524.595 6.63408C524.385 6.65668 524.195 6.50548 524.171 6.29543L524.075 5.45975C524.05 5.24698 524.204 5.05511 524.417 5.03257L528.504 4.60154C528.7 4.58064 528.849 4.41571 528.849 4.21889V3.27545C528.849 3.04454 528.645 2.86641 528.416 2.89335C527.548 2.99671 527.161 3.03245 525.371 3.18859C525.222 3.20178 525.075 3.12756 525 2.99836L524.17 1.56287C524.724 1.59366 524.938 1.59366 525.186 1.59366C526.479 1.59366 530.445 1.37319 533.699 0.0295174C533.84 -0.0287626 534 0.000377551 534.11 0.107038L535.099 1.07026C535.237 1.20881 535.422 1.39354 535.422 1.53208C535.422 1.65578 535.33 1.71736 535.223 1.71736C535.085 1.71736 534.907 1.64644 534.73 1.57826C534.65 1.54748 534.558 1.54748 534.476 1.57277C533.112 2.0016 532.242 2.21437 530.996 2.45682C530.815 2.49201 530.681 2.65035 530.681 2.83507V3.95279C530.681 4.1815 530.879 4.35963 531.107 4.33544L535.841 3.83568C536.052 3.81314 536.242 3.96653 536.264 4.17765L536.352 4.99848C536.374 5.2096 536.221 5.39928 536.01 5.42182L531.025 5.95951C530.83 5.9804 530.682 6.14533 530.682 6.34218V7.33838C530.682 7.56768 530.881 7.74578 531.108 7.72098L536.533 7.13168C536.744 7.10858 536.935 7.26198 536.957 7.47358L537.046 8.30878C537.068 8.51988 536.915 8.70898 536.704 8.73208L531.025 9.34618H531.023Z" fill="#00FFFF" style="mix-blend-mode:difference"/>
<path d="M546.54 8.62577L547.251 12.6453C547.288 12.8514 547.152 13.0494 546.947 13.09L545.92 13.2935C545.707 13.3358 545.501 13.1939 545.466 12.9801L544.762 8.82477C544.728 8.62077 544.539 8.48057 544.334 8.50697L540.075 9.05737C539.866 9.08427 539.674 8.93747 539.645 8.72797L539.519 7.81207C539.49 7.60037 539.639 7.40577 539.851 7.37777L544.011 6.83347C544.228 6.80487 544.377 6.60257 544.341 6.38707L544.132 5.161C544.097 4.95703 543.907 4.81683 543.702 4.84377L540.724 5.23742C540.514 5.26546 540.321 5.11757 540.292 4.907L540.18 4.07187C540.151 3.85966 540.301 3.66558 540.514 3.63864L543.407 3.27523C543.625 3.24774 543.776 3.04377 543.739 2.82771L543.404 0.895205C543.365 0.668695 543.532 0.458126 543.762 0.445486L544.947 0.377856C545.285 0.362466 545.409 0.408646 545.409 0.531796C545.409 0.592826 545.147 0.870465 545.163 0.947435L545.467 2.61989C545.504 2.82166 545.692 2.95911 545.895 2.93272L548.512 2.59625C548.72 2.56931 548.912 2.715 548.942 2.92337L549.063 3.76289C549.094 3.97511 548.945 4.17193 548.731 4.19942L546.209 4.5282C545.992 4.55678 545.842 4.7613 545.88 4.97792L546.097 6.18965C546.134 6.39197 546.322 6.52997 546.526 6.50357L550.259 6.01592C550.47 5.98843 550.664 6.13742 550.691 6.34907L550.809 7.27827C550.836 7.48877 550.687 7.68117 550.477 7.70867L546.87 8.17717C546.652 8.20517 546.502 8.40967 546.54 8.62577Z" fill="#00FFFF" style="mix-blend-mode:difference"/>
<path d="M559.853 9.41765L559.167 9.12405C558.955 9.03275 558.869 8.77655 558.986 8.57645C559.107 8.36865 559.224 8.16905 559.507 7.70555C559.799 7.22835 559.83 7.18215 560.122 6.67415L557.695 7.16785C557.488 7.21025 557.353 7.41145 557.394 7.61925L558.403 12.7597C558.443 12.9631 558.315 13.1616 558.113 13.2089L557.222 13.4167C557.007 13.4667 556.795 13.3265 556.756 13.1094L555.835 7.95685C555.797 7.74355 555.59 7.60385 555.378 7.64785L553.263 8.08655C553.081 8.12455 552.897 8.02605 552.828 7.85235L552.567 7.19925C552.477 6.97495 552.614 6.72425 552.851 6.67855L555.128 6.23874C555.335 6.19861 555.472 5.99904 555.434 5.79122L555.07 3.81529C555.03 3.59647 555.183 3.38865 555.404 3.36336L556.458 3.24131C556.535 3.22592 556.858 3.21052 556.858 3.37986C556.858 3.41065 556.858 3.44143 556.735 3.59592C556.703 3.64211 556.627 3.74931 556.642 3.82683L556.982 5.48554C557.024 5.69226 557.225 5.8264 557.431 5.78627L560.66 5.16556C560.791 5.14247 560.903 5.06935 560.991 4.98853C561.124 4.86758 561.329 4.87198 561.474 4.97808L562.145 5.46629C562.306 5.5834 562.35 5.80606 562.247 5.97705C561.689 6.90835 561.196 7.75175 560.338 9.25265C560.241 9.42255 560.031 9.49515 559.851 9.41815L559.853 9.41765Z" fill="#00FFFF" style="mix-blend-mode:difference"/>
<path d="M566.791 4.30986C566.084 3.76337 565.274 3.25702 564.355 2.81224C564.146 2.71108 564.068 2.45213 564.194 2.25696L564.713 1.45647C564.817 1.29648 565.02 1.23271 565.193 1.31298C566.047 1.70662 567.02 2.23662 567.843 2.86227C568.005 2.98543 568.036 3.21854 567.921 3.38622L567.344 4.22629C567.218 4.40937 566.967 4.44566 566.791 4.30986ZM571.621 8.7521C569.26 10.6654 567.812 11.3301 565.984 12.1135C565.878 12.1586 565.795 12.2499 565.764 12.3609C565.718 12.5209 565.677 12.6617 565.587 12.6617C565.495 12.6617 565.356 12.5693 565.248 12.3697L564.43 10.9661C564.301 10.7451 564.418 10.4642 564.665 10.4004C565.91 10.0793 567.725 9.4767 569.882 7.8593C571.919 6.3413 573.3 4.61609 574.074 3.57974C574.232 3.36863 574.549 3.37467 574.699 3.59184L575.297 4.4594C575.392 4.5963 575.388 4.77608 575.288 4.90858C574.644 5.76294 573.481 7.2446 571.621 8.7521Z" fill="#00FFFF" style="mix-blend-mode:difference"/>
<path d="M581.001 3.24111C580.954 3.28729 580.677 3.42584 580.631 3.48741C580.57 3.54844 580.323 4.59578 580.262 4.7959C579.223 8.29416 577.844 10.3081 577.081 11.3472C576.978 11.4885 576.794 11.5402 576.631 11.4764L575.46 11.0157C575.212 10.9184 575.141 10.6094 575.313 10.406C577.131 8.25626 578.283 5.42431 578.789 2.84306C578.831 2.6303 579.035 2.49505 579.247 2.54233L580.723 2.87165C580.77 2.88705 581.093 2.96402 581.093 3.11796C581.093 3.17898 581.047 3.21032 581.001 3.24111ZM586.652 10.6534C586.078 8.35796 584.792 5.41386 583.44 3.57538C583.301 3.38735 583.352 3.1229 583.555 3.00745L584.475 2.4857C584.645 2.38949 584.859 2.43127 584.974 2.58851C586.251 4.34673 587.74 7.25176 588.583 9.90556C588.642 10.0915 588.549 10.2905 588.372 10.3713L587.185 10.9123C586.964 11.0129 586.711 10.8881 586.652 10.6528V10.6534ZM587.759 3.82608C586.973 3.82608 586.311 3.16414 586.311 2.33231C586.311 1.51698 586.958 0.854492 587.759 0.854492C588.59 0.854492 589.222 1.53127 589.222 2.33231C589.222 3.14819 588.559 3.82608 587.759 3.82608ZM587.759 1.4708C587.266 1.4708 586.912 1.88644 586.912 2.33231C586.912 2.80953 587.297 3.21032 587.759 3.21032C588.221 3.21032 588.62 2.82547 588.62 2.33231C588.62 1.87049 588.251 1.4708 587.759 1.4708Z" fill="#00FFFF" style="mix-blend-mode:difference"/>
<path d="M600.209 11.9969C599.042 10.5894 598.078 9.60808 597.017 8.72288C596.859 8.59148 596.625 8.61078 596.487 8.76248C595.378 9.97698 594.245 11.0529 591.726 12.3185C591.575 12.3944 591.389 12.3641 591.271 12.2432L590.499 11.4444C590.314 11.253 590.373 10.9353 590.616 10.8269C591.691 10.3464 593.358 9.49208 595.024 7.72068C596.388 6.26811 597.037 4.96072 597.421 4.05357C597.529 3.79847 597.344 3.51753 597.067 3.51753H592.16C591.948 3.51753 591.776 3.34545 591.776 3.13268V2.11667C591.776 1.90391 591.948 1.73182 592.16 1.73182H598.41C598.606 1.73182 598.774 1.6631 598.946 1.56304C599.104 1.47068 599.305 1.49762 599.429 1.63341L600.11 2.38552C600.254 2.54551 600.249 2.79896 600.085 2.93805C599.879 3.11234 599.688 3.32785 599.564 3.62584C599.077 4.77379 598.79 5.46707 597.967 6.77778C597.862 6.94488 597.899 7.16428 598.055 7.28518C599.341 8.28638 600.503 9.42278 601.612 10.6114C601.751 10.7599 601.75 10.9908 601.611 11.1392L600.788 12.0189C600.629 12.1882 600.356 12.1756 600.208 11.9969H600.209Z" fill="#00FFFF" style="mix-blend-mode:difference"/>
<path d="M622.246 13.2548C622.106 13.3681 621.908 13.3703 621.767 13.2592C621.035 12.682 619.857 11.6836 618.729 9.92204C617.924 8.65484 617.481 7.51234 617.21 6.61894C617.104 6.26821 616.615 6.26106 616.485 6.60414C615.383 9.52564 613.883 11.7358 611.645 13.3626C611.51 13.4599 611.325 13.4594 611.19 13.3632L610.226 12.6787C610.008 12.5242 610.008 12.2004 610.229 12.0497C611.105 11.4515 612.388 10.441 613.509 8.67464C614.738 6.71844 615.078 4.92783 615.227 3.82056C615.258 3.5924 615.478 3.44396 615.701 3.50004L616.114 3.60285C616.368 3.66607 616.607 3.46375 616.591 3.2026C616.582 3.05966 616.575 2.91232 616.569 2.73858C616.562 2.53131 616.392 2.36363 616.184 2.36363H613.833C613.62 2.36363 613.448 2.19155 613.448 1.97878V0.916588C613.448 0.703828 613.62 0.531738 613.833 0.531738H617.975C618.195 0.531738 618.372 0.714818 618.359 0.934738C618.337 1.31574 618.329 1.72588 618.329 2.08709C618.329 3.71885 618.606 5.81189 619.744 7.93684C620.918 10.1178 622.363 11.1948 623.29 11.7583C623.516 11.8963 623.533 12.2163 623.327 12.3829L622.246 13.2554V13.2548Z" fill="#00FFFF" style="mix-blend-mode:difference"/>
<path d="M632.433 7.21176C632.285 7.21176 632.151 7.29706 632.087 7.43066C632.029 7.55216 631.965 7.67146 631.908 7.76706H637.117C637.333 7.76706 637.51 7.94466 637.502 8.16076C637.447 9.69356 637.161 11.6684 636.665 12.4464C636.238 13.1149 635.56 13.3491 634.487 13.3931C634.326 13.3997 634.177 13.3013 634.116 13.1528L633.824 12.4376C633.721 12.1852 633.395 12.1148 633.201 12.3062C632.869 12.6322 632.468 12.9835 631.926 13.3601C631.797 13.4497 631.622 13.4508 631.491 13.3639L631.042 13.0649C630.818 12.9159 630.81 12.5866 631.031 12.4337C632.473 11.437 633.562 9.98986 634.063 9.04426H633.517C633.38 9.04426 633.255 9.11466 633.186 9.23396C632.94 9.66496 632.498 10.3748 631.784 11.062C631.109 11.7239 630.369 12.3078 629.589 12.8257C629.457 12.9137 629.282 12.9098 629.152 12.818L628.689 12.492C628.458 12.3293 628.476 11.9807 628.723 11.8438C630.44 10.8938 631.552 9.47636 631.83 9.04366H631.297C631.186 9.04366 631.079 9.09596 631.005 9.18006C630.361 9.92336 629.827 10.4078 629.279 10.8333C629.148 10.9344 628.967 10.9383 628.83 10.8465L628.326 10.5078C628.103 10.3583 628.095 10.0311 628.314 9.87666C628.564 9.70066 628.828 9.48906 629.197 9.16686C628.15 9.56766 626.457 10.1378 626.01 10.2456C625.441 10.3841 625.38 10.399 625.288 10.5073C625.118 10.6925 625.072 10.7536 624.995 10.7536C624.963 10.7536 624.902 10.7228 624.887 10.6464L624.669 9.28506C624.636 9.08326 624.765 8.89246 624.964 8.84906C625.301 8.77596 625.68 8.68356 626.028 8.59566C626.199 8.55216 626.319 8.39876 626.319 8.22236V5.31999C626.319 5.10723 626.147 4.93514 625.934 4.93514H625.211C624.998 4.93514 624.826 4.76306 624.826 4.55029V3.73496C624.826 3.52219 624.998 3.35011 625.211 3.35011H625.934C626.147 3.35011 626.319 3.17803 626.319 2.96526V0.702339C626.319 0.478029 626.51 0.300999 626.734 0.318589L628.105 0.424699C628.197 0.440099 628.304 0.486279 628.304 0.594039C628.304 0.701789 628.228 0.763369 628.135 0.839789C628.058 0.885969 627.935 0.962939 627.935 1.0707V2.96361C627.935 3.17638 628.107 3.34846 628.32 3.34846H629.151C629.364 3.34846 629.536 3.52055 629.536 3.73331V4.54864C629.536 4.76141 629.364 4.93349 629.151 4.93349H628.32C628.107 4.93349 627.935 5.10558 627.935 5.31835V7.56096C627.935 7.81766 628.182 8.00406 628.429 7.93036C628.615 7.87426 628.799 7.81716 628.981 7.75716C629.232 7.67476 629.49 7.85616 629.49 8.12006V8.85846C629.849 8.46916 630.092 8.15526 630.306 7.79736C630.459 7.53946 630.275 7.21126 629.976 7.21126H629.537C629.324 7.21126 629.152 7.03916 629.152 6.82636V6.35136C629.152 6.13863 629.324 5.96654 629.537 5.96654H637.31C637.523 5.96654 637.695 6.13863 637.695 6.35136V6.82636C637.695 7.03916 637.523 7.21126 637.31 7.21126H632.433V7.21176ZM630.292 4.99507V0.917859C630.292 0.705089 630.464 0.533009 630.677 0.533009H636.156C636.369 0.533009 636.541 0.705089 636.541 0.917859V4.99507C636.541 5.20784 636.369 5.37992 636.156 5.37992H630.677C630.464 5.37992 630.292 5.20784 630.292 4.99507ZM635.049 1.82336H631.784V2.4721H635.049V1.82336ZM635.049 3.56288H631.784V4.22702H635.049V3.56288ZM635.51 9.04366C635.233 9.69076 634.879 10.4605 633.739 11.7393C634.186 11.8317 634.509 11.8317 634.571 11.8317C634.972 11.8317 635.217 11.7393 635.387 11.4001C635.756 10.6766 635.833 9.85956 635.879 9.04366H635.51Z" fill="#00FFFF" style="mix-blend-mode:difference"/>
<path d="M650.42 6.64356V7.81296C650.42 8.02576 650.592 8.19786 650.804 8.19786H651.713C651.925 8.19786 652.097 8.36996 652.097 8.58266V9.24466C652.097 9.45736 651.925 9.62946 651.713 9.62946H640.415C640.202 9.62946 640.03 9.45736 640.03 9.24466V8.58266C640.03 8.36996 640.202 8.19786 640.415 8.19786H641.308C641.521 8.19786 641.693 8.02576 641.693 7.81296V6.64356C641.693 6.43086 641.521 6.25875 641.308 6.25875H639.846C639.633 6.25875 639.461 6.08667 639.461 5.8739V5.16578C639.461 4.95301 639.633 4.78093 639.846 4.78093H641.308C641.521 4.78093 641.693 4.60885 641.693 4.39608V3.08759C641.426 3.41526 641.187 3.65717 640.941 3.88038C640.822 3.98759 640.651 4.01453 640.507 3.94361L639.76 3.5736C639.515 3.45265 639.463 3.11673 639.671 2.93915C640.605 2.14196 641.318 1.20073 641.824 0.317771C641.912 0.163831 642.089 0.0896108 642.26 0.137441L643.708 0.547581C643.739 0.562971 643.971 0.625101 643.971 0.763651C643.971 0.814961 643.852 0.886801 643.615 0.979161C643.508 1.02534 643.416 1.07153 643.139 1.42559H651.559C651.771 1.42559 651.944 1.59767 651.944 1.81044V2.47183C651.944 2.6846 651.771 2.85668 651.559 2.85668H650.804C650.591 2.85668 650.419 3.02876 650.419 3.24153V4.39608C650.419 4.60885 650.591 4.78093 650.804 4.78093H652.235C652.448 4.78093 652.62 4.95301 652.62 5.16578V5.8739C652.62 6.08667 652.448 6.25875 652.235 6.25875H650.804C650.591 6.25875 650.419 6.43086 650.419 6.64356H650.42ZM642.878 11.3234C642.662 11.3388 642.647 11.3388 642.585 11.4158C641.894 12.3251 641.251 12.9387 640.859 13.2856C640.712 13.4154 640.494 13.4154 640.348 13.2856L639.733 12.7413C639.552 12.5808 639.567 12.3009 639.755 12.1481C640.421 11.6082 640.958 10.9892 641.391 10.358C641.517 10.1749 641.766 10.1282 641.943 10.2618L642.862 10.954C643.001 11.0612 643.032 11.1233 643.032 11.1849C643.032 11.2926 642.925 11.308 642.879 11.3234H642.878ZM643.787 2.85668H643.646C643.433 2.85668 643.261 3.02876 643.261 3.24153V4.39608C643.261 4.60885 643.433 4.78093 643.646 4.78093H643.787C644 4.78093 644.172 4.60885 644.172 4.39608V3.24153C644.172 3.02876 644 2.85668 643.787 2.85668ZM643.787 6.25875H643.646C643.433 6.25875 643.261 6.43086 643.261 6.64356V7.81296C643.261 8.02576 643.433 8.19786 643.646 8.19786H643.787C644 8.19786 644.172 8.02576 644.172 7.81296V6.64356C644.172 6.43086 644 6.25875 643.787 6.25875ZM644.066 13.0234C644.038 12.3444 643.964 11.7742 643.77 11.1293C643.708 10.9221 643.836 10.7055 644.046 10.6527L644.664 10.4965C644.853 10.4487 645.047 10.5499 645.118 10.7313C645.349 11.3152 645.561 12.0205 645.597 12.8342C645.606 13.0195 645.471 13.1828 645.29 13.2213L644.53 13.3824C644.298 13.4313 644.076 13.2598 644.066 13.0228V13.0234ZM646.142 2.85613H646.001C645.788 2.85613 645.616 3.02821 645.616 3.24098V4.39553C645.616 4.6083 645.788 4.78038 646.001 4.78038H646.142C646.354 4.78038 646.526 4.6083 646.526 4.39553V3.24098C646.526 3.02821 646.354 2.85613 646.142 2.85613ZM646.142 6.2582H646.001C645.788 6.2582 645.616 6.43026 645.616 6.64306V7.81246C645.616 8.02526 645.788 8.19726 646.001 8.19726H646.142C646.354 8.19726 646.526 8.02526 646.526 7.81246V6.64306C646.526 6.43026 646.354 6.2582 646.142 6.2582ZM647.183 12.8557C647.056 12.1998 646.843 11.6187 646.669 11.2113C646.58 11.004 646.693 10.767 646.908 10.6983L647.514 10.5059C647.685 10.4515 647.871 10.5191 647.961 10.6747C648.197 11.0815 648.522 11.7336 648.681 12.4796C648.723 12.6819 648.607 12.8843 648.408 12.9398L647.662 13.1476C647.448 13.207 647.226 13.0739 647.183 12.8557ZM648.513 2.85613H648.326C648.113 2.85613 647.941 3.02821 647.941 3.24098V4.39553C647.941 4.6083 648.113 4.78038 648.326 4.78038H648.513C648.726 4.78038 648.898 4.6083 648.898 4.39553V3.24098C648.898 3.02821 648.726 2.85613 648.513 2.85613ZM648.513 6.2582H648.326C648.113 6.2582 647.941 6.43026 647.941 6.64306V7.81246C647.941 8.02526 648.113 8.19726 648.326 8.19726H648.513C648.726 8.19726 648.898 8.02526 648.898 7.81246V6.64306C648.898 6.43026 648.726 6.2582 648.513 6.2582ZM650.963 13.0794C650.418 12.3026 649.952 11.7797 649.568 11.3828C649.414 11.2228 649.427 10.9683 649.596 10.8237L650.169 10.3349C650.313 10.2118 650.527 10.2107 650.669 10.3349C651.24 10.833 651.748 11.3548 652.272 12.0623C652.392 12.224 652.362 12.4543 652.208 12.5841L651.528 13.157C651.354 13.3037 651.093 13.2653 650.962 13.0789L650.963 13.0794Z" fill="#00FFFF" style="mix-blend-mode:difference"/>
<path d="M658.773 6.928C659.204 7.4965 659.731 7.9973 660.091 8.3217C660.238 8.4537 660.259 8.6758 660.141 8.8347L659.733 9.3856C659.594 9.573 659.322 9.5972 659.156 9.4334C659.113 9.391 659.069 9.3471 659.024 9.3009C658.784 9.054 658.364 9.2234 658.364 9.5681V13.0928C658.364 13.3055 658.191 13.4776 657.979 13.4776H657.164C656.951 13.4776 656.779 13.3055 656.779 13.0928V10.9211C656.779 10.5418 656.291 10.3917 656.077 10.705C655.923 10.9304 655.758 11.1548 655.587 11.3598C655.469 11.5022 655.262 11.5319 655.102 11.4385L654.367 11.0074C654.157 10.8843 654.118 10.6028 654.277 10.4191C655.279 9.2673 655.988 7.9825 656.35 6.8098C656.428 6.5591 656.245 6.30455 655.982 6.30455H654.685C654.472 6.30455 654.3 6.13247 654.3 5.9197V5.27315C654.3 5.06039 654.472 4.8883 654.685 4.8883H656.393C656.606 4.8883 656.778 4.71622 656.778 4.50345V0.706078C656.778 0.480118 656.972 0.302538 657.197 0.322878L658.163 0.408648C658.578 0.439988 658.641 0.532348 658.641 0.624718C658.641 0.685738 658.609 0.747868 658.517 0.809438C658.393 0.901808 658.362 0.917198 658.362 0.994168V4.504C658.362 4.71677 658.534 4.88885 658.747 4.88885H660.071C660.284 4.88885 660.456 5.06094 660.456 5.2737V5.92025C660.456 6.13302 660.284 6.3051 660.071 6.3051H659.075C658.754 6.3051 658.577 6.6729 658.771 6.9286L658.773 6.928ZM654.827 3.80797C654.692 3.25379 654.495 2.70071 654.3 2.25868C654.212 2.05966 654.306 1.83095 654.508 1.74903L655.234 1.45544C655.43 1.37572 655.654 1.47139 655.736 1.66766C655.988 2.27352 656.165 2.90468 656.282 3.3676C656.33 3.55892 656.224 3.75245 656.038 3.81952L655.33 4.07572C655.115 4.15324 654.881 4.02899 654.827 3.80743V3.80797ZM661.028 1.94805C660.873 2.02502 660.858 2.04041 660.843 2.0866C660.803 2.21909 660.579 3.13229 660.242 3.90419C660.156 4.10101 659.93 4.19502 659.733 4.10981L659.17 3.8668C658.985 3.78653 658.89 3.57597 658.96 3.38629C659.183 2.78372 659.323 2.14487 659.408 1.67041C659.446 1.45324 659.657 1.31195 659.872 1.36088L660.766 1.5632C661.089 1.64017 661.181 1.68635 661.181 1.77872C661.181 1.85624 661.057 1.93266 661.028 1.9486V1.94805ZM666.046 9.6819V13.0625C666.046 13.2753 665.874 13.4474 665.661 13.4474H664.769C664.556 13.4474 664.384 13.2753 664.384 13.0625V10.296C664.384 10.0442 664.146 9.86 663.902 9.9232L660.944 10.6896C660.719 10.7479 660.494 10.5956 660.465 10.3653L660.378 9.6731C660.354 9.4807 660.476 9.3009 660.663 9.252L664.095 8.3646C664.265 8.3206 664.384 8.1672 664.384 7.9918V0.707728C664.384 0.481218 664.579 0.303088 664.804 0.324528L666.031 0.439438C666.339 0.470228 666.4 0.531798 666.4 0.624168C666.4 0.685188 666.354 0.716528 666.293 0.762708C666.139 0.870468 666.046 0.932048 666.046 0.993618V7.3755C666.046 7.6279 666.285 7.8115 666.528 7.7477L666.886 7.6543C667.121 7.5927 667.353 7.7609 667.368 8.0028L667.412 8.711C667.423 8.8957 667.302 9.0617 667.123 9.1079L666.336 9.3091C666.166 9.3526 666.046 9.506 666.046 9.6819ZM662.511 7.5339C662.174 7.0951 661.766 6.6603 661.35 6.29685C661.187 6.15336 661.181 5.90046 661.332 5.74432L661.811 5.25171C661.955 5.10382 662.187 5.09667 662.343 5.23192C662.786 5.61567 663.245 6.08739 663.612 6.5794C663.724 6.729 663.703 6.9396 663.572 7.0732L663.086 7.5669C662.923 7.7323 662.652 7.7186 662.511 7.5344V7.5339ZM662.606 3.82447C662.284 3.41158 661.915 3.06576 661.599 2.80462C661.426 2.66112 661.413 2.40437 661.57 2.24273L662.061 1.73693C662.203 1.59069 662.431 1.58079 662.588 1.71109C662.939 2.00468 663.342 2.38788 663.699 2.85245C663.814 3.00199 663.794 3.21695 663.663 3.35165L663.18 3.85031C663.02 4.01524 662.748 4.00535 662.606 3.82447Z" fill="#00FFFF" style="mix-blend-mode:difference"/>
<path d="M688.459 9.72118V11.2298C688.459 11.4426 688.287 11.6146 688.074 11.6146H686.843V11.199H684.072C683.859 11.199 683.687 11.3711 683.687 11.5838V12.3085C683.687 13.1634 683.334 13.5664 681.404 13.6115C681.251 13.6148 681.106 13.5251 681.042 13.386L680.652 12.5377C680.53 12.2705 680.741 11.9709 681.035 11.994C681.202 12.0072 681.353 12.0165 681.47 12.0165C681.716 12.0165 681.947 11.939 681.947 11.6614V11.1984H677.637C677.424 11.1984 677.252 11.0264 677.252 10.8136V10.3848C677.252 10.172 677.424 9.99988 677.637 9.99988H681.947V9.33578H676.743C676.531 9.33578 676.359 9.16368 676.359 8.95088V8.52258C676.359 8.30988 676.531 8.13778 676.743 8.13778H681.947V7.55058H677.637C677.424 7.55058 677.252 7.37848 677.252 7.16578V6.73748C677.252 6.52468 677.424 6.35258 677.637 6.35258H681.947V5.76545H678.545C678.332 5.76545 678.16 5.59336 678.16 5.3806V3.32C678.16 3.10723 678.332 2.93515 678.545 2.93515H681.947V2.39471H676.743C676.531 2.39471 676.359 2.22263 676.359 2.00986V1.45788C676.359 1.24511 676.531 1.07303 676.743 1.07303H681.562C681.775 1.07303 681.947 0.900938 681.947 0.688178V0.494098C681.947 0.262088 682.15 0.0828585 682.38 0.111998L683.763 0.287928C683.841 0.302778 683.948 0.334109 683.948 0.426479C683.948 0.518839 683.917 0.534238 683.778 0.641988C683.748 0.657388 683.686 0.703568 683.686 0.780538V1.07303H688.874C689.087 1.07303 689.259 1.24511 689.259 1.45788V2.00986C689.259 2.22263 689.087 2.39471 688.874 2.39471H683.686V2.93515H687.073C687.286 2.93515 687.458 3.10723 687.458 3.32V5.3806C687.458 5.59336 687.286 5.76545 687.073 5.76545H683.686V6.35258H688.073C688.286 6.35258 688.458 6.52468 688.458 6.73748V7.75348C688.458 7.96628 688.63 8.13828 688.843 8.13828H688.935C689.148 8.13828 689.32 8.31038 689.32 8.52318V8.95148C689.32 9.16418 689.148 9.33628 688.935 9.33628H688.843C688.63 9.33628 688.458 9.50838 688.458 9.72118H688.459ZM681.947 3.97974H679.731V4.7203H681.947V3.97974ZM685.873 3.97974H683.687V4.7203H685.873V3.97974ZM686.843 7.55058H683.687V8.13778H686.843V7.55058ZM686.843 9.33628H683.687V10.0005H686.843V9.33628Z" fill="#00FFFF" style="mix-blend-mode:difference"/>
<path d="M691.289 3.20957V2.56468C691.289 2.35191 691.461 2.17983 691.673 2.17983H693.818C694.135 2.17983 694.318 1.81862 694.127 1.56517C694.067 1.48435 694.002 1.40023 693.934 1.31556C693.777 1.11929 693.852 0.827353 694.082 0.726193L695.023 0.312203C695.182 0.241833 695.367 0.286913 695.477 0.422713C695.711 0.712453 696.061 1.16492 696.552 1.90328L695.983 2.18038H698.794C698.923 2.18038 699.045 2.11495 699.116 2.00719C699.447 1.50579 699.639 1.18306 699.912 0.578303C699.991 0.404023 700.187 0.312753 700.37 0.366083L702.003 0.841653C702.064 0.857043 702.111 0.934013 702.111 0.995593C702.111 1.05661 702.079 1.1028 701.987 1.13413C701.957 1.14898 701.756 1.19516 701.71 1.2265C701.664 1.25729 701.201 2.04183 701.093 2.18038H704.218C704.431 2.18038 704.603 2.35246 704.603 2.56523V3.21012C704.603 3.42289 704.431 3.59497 704.218 3.59497H691.674C691.461 3.59497 691.289 3.42289 691.289 3.21012V3.20957ZM695.15 13.2217L694.815 12.3135C694.718 12.0507 694.927 11.7741 695.206 11.7967C695.458 11.817 695.614 11.817 695.614 11.817C695.923 11.817 696.046 11.6933 696.046 11.4316V10.6916C696.046 10.4788 695.874 10.3068 695.661 10.3068H694.15C693.937 10.3068 693.765 10.4788 693.765 10.6916V13.0315C693.765 13.2443 693.593 13.4163 693.38 13.4163H692.52C692.307 13.4163 692.135 13.2443 692.135 13.0315V4.9359C692.135 4.72314 692.307 4.55105 692.52 4.55105H697.321C697.534 4.55105 697.706 4.72314 697.706 4.9359V11.8011C697.706 13.1612 696.733 13.4416 695.518 13.4741C695.355 13.4785 695.207 13.3751 695.15 13.2217ZM695.661 5.90407H694.15C693.937 5.90407 693.765 6.07616 693.765 6.28892V6.3675C693.765 6.5803 693.937 6.7524 694.15 6.7524H695.661C695.874 6.7524 696.046 6.5803 696.046 6.3675V6.28892C696.046 6.07616 695.874 5.90407 695.661 5.90407ZM695.661 8.1054H694.15C693.937 8.1054 693.765 8.2775 693.765 8.4903V8.5689C693.765 8.7817 693.937 8.9537 694.15 8.9537H695.661C695.874 8.9537 696.046 8.7817 696.046 8.5689V8.4903C696.046 8.2775 695.874 8.1054 695.661 8.1054ZM700.755 4.98153C700.539 5.13492 700.508 5.15087 700.508 5.21189V10.3535C700.508 10.5663 700.336 10.7383 700.123 10.7383H699.233C699.02 10.7383 698.848 10.5663 698.848 10.3535V4.93975C698.848 4.71929 699.032 4.54445 699.252 4.55545L700.678 4.62747C700.802 4.62747 700.878 4.71984 700.878 4.79681C700.878 4.88917 700.801 4.9502 700.755 4.98153ZM703.987 4.75007C703.88 4.84244 703.772 4.96559 703.772 5.01177V11.6625C703.772 13.1024 703.154 13.3366 701.438 13.368C701.287 13.3707 701.146 13.2838 701.081 13.1475L700.371 11.6471C700.694 11.6779 700.971 11.7087 701.295 11.7087C701.833 11.7087 701.987 11.585 701.987 11.1699V4.70279C701.987 4.47903 702.177 4.30255 702.4 4.31904L703.895 4.42735C704.003 4.44274 704.079 4.50487 704.079 4.56645C704.079 4.64342 704.018 4.70444 703.987 4.75007Z" fill="#00FFFF" style="mix-blend-mode:difference"/>
<path d="M715.771 9.675L714.939 9.1433C714.744 9.0185 714.703 8.7497 714.852 8.5721C715.256 8.091 715.606 7.6441 716.08 6.9959C716.266 6.7413 716.086 6.3812 715.771 6.3812H713.983C713.77 6.3812 713.598 6.5533 713.598 6.766V11.492C713.598 13.3591 712.971 13.4861 710.727 13.5064C710.567 13.5081 710.42 13.4097 710.362 13.2601L710.003 12.3304C709.895 12.0517 710.131 11.763 710.426 11.8125C710.687 11.8565 710.967 11.8922 711.182 11.8922C711.643 11.8922 711.767 11.5536 711.767 11.1225V6.766C711.767 6.5533 711.594 6.3812 711.382 6.3812H706.486C706.274 6.3812 706.102 6.20911 706.102 5.99634V5.08865C706.102 4.87588 706.274 4.7038 706.486 4.7038H711.704C711.228 4.4388 710.809 4.21998 710.045 3.90936C709.832 3.82304 709.74 3.56904 709.851 3.36727L710.268 2.60581C710.366 2.42713 710.585 2.35457 710.769 2.44199C711.1 2.59923 711.549 2.81089 712.472 3.25127C712.597 3.3112 712.747 3.30185 712.861 3.22213C713.001 3.12317 713.158 3.00496 713.349 2.84167C713.621 2.61021 713.457 2.16324 713.1 2.16324H707.795C707.583 2.16324 707.411 1.99115 707.411 1.77839V0.931725C707.411 0.718955 707.583 0.546875 707.795 0.546875H717.142C717.257 0.546875 717.366 0.598555 717.439 0.687615L717.777 1.0983C717.916 1.26819 717.886 1.51945 717.71 1.65085C716.848 2.29519 715.798 3.06653 714.214 4.10398C714.276 4.13477 714.537 4.27332 714.6 4.30356L714.245 4.70436H718.427C718.529 4.70436 718.627 4.74503 718.699 4.81705L719.028 5.14637C719.156 5.27447 719.175 5.47845 719.076 5.63074C717.661 7.81831 716.93 8.7827 716.278 9.5925C716.154 9.7459 715.936 9.7816 715.77 9.6755L715.771 9.675Z" fill="#00FFFF" style="mix-blend-mode:difference"/>
<path d="M722.633 9.35262C722.565 10.4967 722.483 11.2581 722.147 12.1999C722.079 12.3912 721.878 12.5017 721.682 12.449L721.09 12.2906C720.878 12.234 720.756 12.0124 720.823 11.803C721.034 11.1421 721.211 10.3554 721.31 9.12722C721.329 8.90172 721.54 8.74232 721.763 8.78302L722.603 8.93642C722.695 8.95122 722.88 8.99742 722.88 9.08982C722.88 9.16732 722.803 9.22832 722.633 9.35202V9.35262ZM725.82 7.98252C725.788 7.84402 725.759 7.64382 725.696 7.35142C725.378 7.43332 725.173 7.47232 725.004 7.49982C724.817 7.53002 724.68 7.69062 724.68 7.87972V13.0933C724.68 13.3061 724.508 13.4782 724.295 13.4782H723.495C723.283 13.4782 723.11 13.3061 723.11 13.0933V8.19582C723.11 7.96712 722.912 7.78902 722.684 7.81322C722.27 7.85772 721.889 7.89782 721.74 7.92042C721.633 7.92042 721.524 7.93582 721.402 8.07432C721.279 8.19752 721.232 8.24372 721.155 8.24372C721.109 8.24372 721.032 8.18262 721.017 8.10512L720.787 6.76912C720.746 6.53442 720.928 6.32002 721.166 6.31892C721.517 6.31782 721.798 6.31282 722.186 6.29633C722.292 6.29193 722.393 6.2441 722.463 6.16383C722.548 6.06597 722.645 5.95601 722.745 5.83451C722.869 5.68552 722.865 5.46231 722.732 5.32156C722.162 4.71625 721.658 4.30776 721.138 3.9394C720.963 3.8157 720.926 3.57159 721.053 3.39896L721.772 2.42474C722.017 2.59462 722.156 2.70238 722.295 2.82554C722.861 2.00745 723.203 1.35926 723.531 0.619244C723.622 0.415274 723.868 0.332263 724.064 0.438373L725.064 0.978254C725.142 1.02444 725.173 1.08601 725.173 1.1168C725.173 1.16298 725.141 1.20916 725.08 1.2405C724.88 1.33287 724.833 1.36365 724.803 1.40984C724.104 2.46543 723.93 2.72767 723.421 3.39181C723.306 3.54191 723.318 3.75577 723.447 3.89322C723.479 3.92676 723.51 3.96029 723.54 3.99328C723.706 4.17691 723.999 4.15767 724.142 3.95589C724.702 3.1664 725.047 2.62761 725.33 2.15645C725.44 1.97392 725.677 1.91509 725.859 2.0256L726.928 2.67159C727.02 2.71778 727.036 2.81014 727.036 2.84148C727.036 2.98002 726.881 3.01081 726.866 3.01081C726.619 3.02621 726.604 3.05699 726.388 3.33409C725.603 4.3347 724.772 5.30452 723.91 6.22816C724.277 6.20562 724.549 6.18253 724.938 6.14074C725.174 6.11545 725.334 5.88344 725.27 5.65418C725.263 5.62999 725.256 5.6058 725.25 5.58161C725.189 5.37104 725.318 5.15223 725.532 5.1022L726.172 4.95266C726.365 4.90757 726.564 5.01698 726.626 5.20501C726.853 5.88234 727.029 6.54262 727.16 7.23752C727.196 7.43222 727.075 7.62462 726.885 7.67902L725.82 7.98312V7.98252ZM725.842 11.3384C725.621 10.5055 725.49 9.85292 725.388 9.10522C725.361 8.90612 725.494 8.72032 725.691 8.67912L726.19 8.57412C726.407 8.52842 726.615 8.67802 726.649 8.89622C726.791 9.78862 726.968 10.4912 727.117 10.9926C727.179 11.2015 727.056 11.4154 726.846 11.4709L726.312 11.6105C726.107 11.6639 725.896 11.5418 725.842 11.3378V11.3384ZM733.101 11.969C732.67 13.2005 731.838 13.4006 730.838 13.4006H730.421C730.272 13.4006 730.136 13.3143 730.072 13.1796L729.617 12.2093C729.491 11.9415 729.699 11.6397 729.994 11.6622C730.209 11.6787 730.448 11.6919 730.699 11.6919C731.192 11.6919 731.5 11.5688 731.792 10.5989C732.101 9.58292 732.377 7.53612 732.377 5.18082V4.51888C732.377 4.30611 732.205 4.13403 731.992 4.13403H729.104C728.967 4.13403 728.839 4.2099 728.77 4.32755C728.473 4.83225 728.247 5.18412 727.978 5.51948C727.845 5.68497 727.601 5.70916 727.436 5.57611L726.818 5.07691C726.658 4.94771 726.626 4.7157 726.749 4.55076C727.344 3.75082 727.975 2.72273 728.682 0.695124C728.751 0.496094 728.967 0.385594 729.167 0.451564L730.437 0.871054C730.514 0.901834 730.591 0.948024 730.591 1.02444C730.591 1.10196 730.545 1.14814 730.484 1.17838C730.253 1.28613 730.237 1.30153 730.16 1.50165C730.087 1.69737 730.038 1.83207 729.994 1.94698C729.896 2.19988 730.082 2.47147 730.352 2.47147H733.593C733.805 2.47147 733.978 2.64356 733.978 2.85632V5.35015C733.978 7.53662 733.669 10.3686 733.1 11.9696L733.101 11.969ZM729.336 9.00622C729.01 7.98862 728.702 7.28042 728.434 6.71962C728.337 6.51842 728.43 6.27929 728.637 6.19627L729.308 5.92853C729.496 5.8532 729.71 5.93622 729.798 6.11875C730.101 6.74382 730.412 7.49542 730.733 8.56142C730.793 8.75992 730.682 8.97382 730.485 9.03922L729.825 9.25912C729.62 9.32732 729.402 9.21182 729.336 9.00682V9.00622Z" fill="#00FFFF" style="mix-blend-mode:difference"/>
<path d="M740.521 6.30338V6.4898C740.521 6.7025 740.693 6.8746 740.906 6.8746H742.86C743.073 6.8746 743.245 7.0467 743.245 7.2595V11.3235C743.245 12.207 742.568 12.3873 741.61 12.5522C741.441 12.5814 741.272 12.494 741.198 12.3395L740.888 11.694C740.775 11.4587 740.92 11.1673 741.18 11.142C741.472 11.1135 741.617 11.0211 741.617 10.7237V8.7362C741.617 8.5234 741.445 8.3513 741.232 8.3513H740.906C740.694 8.3513 740.522 8.5234 740.522 8.7362V13.1235C740.522 13.3362 740.349 13.5083 740.137 13.5083H739.292C739.079 13.5083 738.907 13.3362 738.907 13.1235V8.7362C738.907 8.5234 738.735 8.3513 738.522 8.3513H738.212C738 8.3513 737.828 8.5234 737.828 8.7362V12.3543C737.828 12.5671 737.656 12.7392 737.443 12.7392H736.599C736.386 12.7392 736.214 12.5671 736.214 12.3543V7.2595C736.214 7.0467 736.386 6.8746 736.599 6.8746H738.522C738.735 6.8746 738.907 6.7025 738.907 6.4898V6.30338C738.907 6.09061 738.735 5.91853 738.522 5.91853H736.045C735.832 5.91853 735.66 5.74645 735.66 5.53368V4.81236C735.66 4.59959 735.832 4.42751 736.045 4.42751H738.522C738.735 4.42751 738.907 4.25543 738.907 4.04266V3.74853C738.907 3.53576 738.735 3.36368 738.522 3.36368H737.648C737.498 3.36368 737.361 3.45109 737.299 3.58854C737.265 3.66276 737.226 3.74413 737.174 3.84914C737.092 4.01517 736.901 4.09874 736.723 4.04761L735.906 3.8134C735.665 3.74413 735.55 3.46649 735.678 3.25152C735.969 2.76386 736.327 2.06673 736.645 1.12275C736.707 0.938022 736.895 0.823122 737.087 0.861602L738.198 1.08646C738.244 1.10186 738.475 1.14804 738.475 1.28713C738.475 1.44107 738.305 1.44107 738.135 1.50265L737.997 1.87266H738.521C738.734 1.87266 738.906 1.70057 738.906 1.48781V0.609252C738.906 0.390432 739.088 0.216152 739.307 0.224402L740.444 0.269482C740.536 0.269482 740.799 0.315662 740.799 0.439362C740.799 0.563072 740.66 0.654882 740.522 0.778032V1.48671C740.522 1.69947 740.694 1.87156 740.906 1.87156H742.753C742.966 1.87156 743.138 2.04364 743.138 2.25641V2.97828C743.138 3.19104 742.966 3.36313 742.753 3.36313H740.906C740.694 3.36313 740.522 3.53521 740.522 3.74798V4.04211C740.522 4.25488 740.694 4.42696 740.906 4.42696H743.294C743.506 4.42696 743.678 4.59904 743.678 4.81181V5.53313C743.678 5.7459 743.506 5.91798 743.294 5.91798H740.906C740.694 5.91798 740.522 6.09006 740.522 6.30283L740.521 6.30338ZM745.709 2.68909V10.0601C745.709 10.2728 745.537 10.4449 745.324 10.4449H744.556C744.343 10.4449 744.171 10.2728 744.171 10.0601V2.34602C744.171 2.12831 744.351 1.95402 744.569 1.96117L745.54 1.99416C745.647 1.99416 745.986 2.009 745.986 2.17889C745.986 2.25641 745.93 2.31798 745.835 2.40375C745.755 2.47632 745.708 2.58078 745.708 2.68909H745.709ZM748.587 0.778582C748.48 0.885792 748.449 0.917132 748.449 0.994102V11.9073C748.449 13.3736 747.765 13.499 746.184 13.5479C746.037 13.5523 745.897 13.472 745.829 13.3412L745.388 12.5C745.251 12.2383 745.45 11.9255 745.745 11.937C746.036 11.948 746.239 11.9535 746.294 11.9535C746.464 11.9535 746.85 11.9535 746.85 11.4763V0.655432C746.85 0.431122 747.041 0.254092 747.265 0.271682L748.402 0.361852C748.495 0.361852 748.74 0.408032 748.74 0.546572C748.74 0.608152 748.679 0.685122 748.587 0.778032V0.778582Z" fill="#00FFFF" style="mix-blend-mode:difference"/>
<path d="M415.641 6.98007H418.926C419.097 6.98007 419.293 6.85147 419.362 6.69427L419.457 6.47817C419.525 6.32097 419.627 6.32537 419.683 6.48697L420.145 7.82347C420.201 7.98567 420.286 7.98347 420.335 7.81907L421.145 5.07456C421.193 4.91017 421.251 4.91457 421.273 5.08446L421.824 9.28477C421.847 9.45467 421.9 9.45797 421.943 9.29247L422.769 6.13125C422.812 5.96521 422.882 5.96521 422.926 6.13125L423.073 6.69587C423.116 6.86187 423.291 6.99767 423.462 6.99767H427.152" fill="#00FFFF" style="mix-blend-mode:difference"/>
<path d="M415.641 6.98007H418.926C419.097 6.98007 419.293 6.85147 419.362 6.69427L419.457 6.47817C419.525 6.32097 419.627 6.32537 419.683 6.48697L420.145 7.82347C420.201 7.98567 420.286 7.98347 420.335 7.81907L421.145 5.07456C421.193 4.91017 421.251 4.91457 421.273 5.08446L421.824 9.28477C421.847 9.45467 421.9 9.45797 421.943 9.29247L422.769 6.13125C422.812 5.96521 422.882 5.96521 422.926 6.13125L423.073 6.69587C423.116 6.86187 423.291 6.99767 423.462 6.99767H427.152" fill="#00FFFF" style="mix-blend-mode:difference"/>
<path d="M415.641 6.98007H418.926C419.097 6.98007 419.293 6.85147 419.362 6.69427L419.457 6.47817C419.525 6.32097 419.627 6.32537 419.683 6.48697L420.145 7.82347C420.201 7.98567 420.286 7.98347 420.335 7.81907L421.145 5.07456C421.193 4.91017 421.251 4.91457 421.273 5.08446L421.824 9.28477C421.847 9.45467 421.9 9.45797 421.943 9.29247L422.769 6.13125C422.812 5.96521 422.882 5.96521 422.926 6.13125L423.073 6.69587C423.116 6.86187 423.291 6.99767 423.462 6.99767H427.152" stroke="#00FFFF" stroke-width="0.6" stroke-linejoin="bevel" style="mix-blend-mode:difference"/>
</svg>
