<svg width="64" height="31" viewBox="0 0 64 31" fill="none" xmlns="http://www.w3.org/2000/svg">
<path d="M12.3519 8.16763L12.3519 6.26364L3.69589 6.26363L3.69589 8.16763L12.3519 8.16763ZM13.9999 15.5596L13.9999 13.6556L1.98389 13.6556L1.98388 15.5596L13.9999 15.5596Z" fill="#00FFFF" style="mix-blend-mode:difference"/>
<path d="M29.2639 16.2316L29.2639 14.8076L26.2239 14.8076L27.2159 8.67964L20.7839 8.67964L20.7839 10.1516L25.3439 10.1516L24.5919 14.8076L18.7359 14.8076L18.7359 16.2316L29.2639 16.2316Z" fill="#00FFFF" style="mix-blend-mode:difference"/>
<path d="M45.6479 11.9276L45.6479 9.89564L34.2719 9.89564L34.2719 11.9276L45.6479 11.9276Z" fill="#00FFFF" style="mix-blend-mode:difference"/>
<path d="M62.0799 15.0796C60.7679 13.6556 59.3919 12.2956 57.8399 11.1276C58.8479 9.55964 59.1519 8.82364 59.6959 7.54364C59.8879 7.07964 60.2399 6.80764 60.5599 6.58364L59.3279 5.22364C59.0399 5.41564 58.7999 5.57564 58.4959 5.57564L51.5999 5.57564L51.5999 7.43164L57.6959 7.43164C57.3279 8.34364 56.7039 9.95964 54.9759 11.7996C52.9439 13.9596 50.9119 14.8076 49.8719 15.2556L51.2799 16.7116C54.2879 15.2396 55.4719 14.0236 56.7519 12.5996C58.0639 13.6556 59.1999 14.8076 60.6559 16.5996L62.0799 15.0796Z" fill="#00FFFF" style="mix-blend-mode:difference"/>
<path d="M0 30L64 30" stroke="#00FFFF" stroke-width="1.5" style="mix-blend-mode:difference"/>
</svg>
