<svg width="646" height="17" viewBox="0 0 646 17" fill="none" xmlns="http://www.w3.org/2000/svg">
<path d="M282.12 9.79368V9.60348H283.846V9.70688C283.846 10.4507 283.95 11.4189 285.225 11.4189C286.38 11.4189 286.62 10.5546 286.62 9.56888V8.40658C286.62 8.12728 286.331 7.93548 286.079 8.05588C285.816 8.18228 285.465 8.28898 285.035 8.28898C282.794 8.28898 282 6.63518 282 4.54215C282 2.98461 282.621 0.779419 285.207 0.779419C287.794 0.779419 288.415 2.98461 288.415 4.54215V9.56888C288.415 11.5047 287.639 13.1084 285.224 13.1084C282.897 13.1084 282.12 11.6949 282.12 9.79318V9.79368ZM283.812 4.5427C283.812 6.04802 284.345 6.56758 285.207 6.56758C286.069 6.56758 286.602 6.04857 286.602 4.5427C286.602 3.03684 286.068 2.51729 285.207 2.51729C284.346 2.51729 283.812 3.03629 283.812 4.5427Z" fill="#00FFFF" style="mix-blend-mode:difference"/>
<path d="M291.602 3.44202H292.969C293.182 3.44202 293.354 3.6141 293.354 3.82687V5.19474C293.354 5.4075 293.182 5.57959 292.969 5.57959H291.602C291.389 5.57959 291.217 5.4075 291.217 5.19474V3.82687C291.217 3.6141 291.389 3.44202 291.602 3.44202ZM293.355 8.69188V10.0598C293.355 10.2726 293.183 10.4447 292.97 10.4447H291.602C291.389 10.4447 291.217 10.2726 291.217 10.0598V8.69188C291.217 8.47918 291.389 8.30708 291.602 8.30708H292.97C293.183 8.30708 293.355 8.47918 293.355 8.69188Z" fill="#00FFFF" style="mix-blend-mode:difference"/>
<path d="M302.417 4.2815V9.60505C302.417 11.6612 301.385 13.1077 299.247 13.1077C297.109 13.1077 296.077 11.6612 296.077 9.60505V4.2815C296.077 2.22585 297.109 0.778809 299.247 0.778809C301.385 0.778809 302.417 2.22585 302.417 4.2815ZM297.815 4.2815V6.33495C297.815 6.70225 298.28 6.86055 298.504 6.57025L300.573 3.89555C300.631 3.82078 300.665 3.72786 300.654 3.63385C300.593 3.10715 300.194 2.50074 299.247 2.50074C297.849 2.50074 297.815 3.77954 297.815 4.28095V4.2815ZM300.68 9.60505V7.57035C300.68 7.20305 300.215 7.04415 299.991 7.33505L297.939 9.99155C297.882 10.0657 297.847 10.1581 297.858 10.2516C297.917 10.7783 298.3 11.3858 299.248 11.3858C300.646 11.3858 300.68 10.107 300.68 9.60565V9.60505Z" fill="#00FFFF" style="mix-blend-mode:difference"/>
<path d="M310.004 4.2815V9.60505C310.004 11.6612 308.971 13.1077 306.833 13.1077C304.695 13.1077 303.663 11.6612 303.663 9.60505V4.2815C303.663 2.22585 304.695 0.778809 306.833 0.778809C308.971 0.778809 310.004 2.22585 310.004 4.2815ZM305.401 4.2815V6.33495C305.401 6.70225 305.865 6.86055 306.09 6.57025L308.16 3.89555C308.218 3.82078 308.252 3.72786 308.241 3.63385C308.18 3.10715 307.78 2.50074 306.833 2.50074C305.435 2.50074 305.401 3.77954 305.401 4.28095V4.2815ZM308.267 9.60505V7.56975C308.267 7.20255 307.802 7.04365 307.577 7.33445L305.525 9.99105C305.467 10.0652 305.433 10.1581 305.444 10.251C305.503 10.7777 305.887 11.3852 306.834 11.3852C308.232 11.3852 308.267 10.1064 308.267 9.60505Z" fill="#00FFFF" style="mix-blend-mode:difference"/>
<path d="M326.977 11.0896H328.438C328.651 11.0896 328.823 10.9175 328.823 10.7047V4.57788C328.823 4.36511 328.651 4.19303 328.438 4.19303H326.977C326.764 4.19303 326.592 4.02094 326.592 3.80818V3.17702C326.592 2.98295 326.737 2.81581 326.93 2.79657C327.855 2.70696 328.604 2.23579 328.786 1.3072C328.821 1.13237 328.981 1.00977 329.159 1.00977H330.329C330.542 1.00977 330.714 1.18185 330.714 1.39462V10.7047C330.714 10.9175 330.886 11.0896 331.099 11.0896H332.553C332.766 11.0896 332.938 11.2616 332.938 11.4744V12.4882C332.938 12.701 332.766 12.8731 332.553 12.8731H326.978C326.765 12.8731 326.593 12.701 326.593 12.4882V11.4744C326.593 11.2616 326.765 11.0896 326.978 11.0896H326.977Z" fill="#00FFFF" style="mix-blend-mode:difference"/>
<path d="M340.397 1.39352V2.5904C340.397 2.66077 340.377 2.72895 340.34 2.78887C338.948 5.0287 337.88 7.62038 337.915 10.8053C337.917 11.0159 338.094 11.188 338.305 11.188H338.685C338.897 11.188 339.07 11.3601 339.07 11.5728V12.4926C339.07 12.7054 338.897 12.8775 338.685 12.8775H335.255C335.042 12.8775 334.87 12.7054 334.87 12.4926V11.5728C334.87 11.3601 335.042 11.188 335.255 11.188H335.72C335.934 11.188 336.107 11.0159 336.104 10.802C336.078 9.17468 336.479 6.45378 338.225 3.27324C338.366 3.01429 338.186 2.69761 337.891 2.69761H336.083C335.87 2.69761 335.698 2.86969 335.698 3.08246V3.89889C335.698 4.11166 335.526 4.28374 335.313 4.28374H334.393C334.18 4.28374 334.008 4.11166 334.008 3.89889V1.39352C334.008 1.18075 334.18 1.00867 334.393 1.00867H340.012C340.225 1.00867 340.397 1.18075 340.397 1.39352H340.397Z" fill="#00FFFF" style="mix-blend-mode:difference"/>
<path d="M343.472 3.44202H344.84C345.052 3.44202 345.225 3.6141 345.225 3.82687V5.19474C345.225 5.4075 345.052 5.57959 344.84 5.57959H343.472C343.259 5.57959 343.087 5.4075 343.087 5.19474V3.82687C343.087 3.6141 343.259 3.44202 343.472 3.44202ZM345.225 8.69188V10.0598C345.225 10.2726 345.053 10.4447 344.84 10.4447H343.472C343.26 10.4447 343.088 10.2726 343.088 10.0598V8.69188C343.088 8.47918 343.26 8.30708 343.472 8.30708H344.84C345.053 8.30708 345.225 8.47918 345.225 8.69188Z" fill="#00FFFF" style="mix-blend-mode:difference"/>
<path d="M354.287 4.2815V9.60505C354.287 11.6612 353.255 13.1077 351.117 13.1077C348.979 13.1077 347.947 11.6612 347.947 9.60505V4.2815C347.947 2.22585 348.979 0.778809 351.117 0.778809C353.255 0.778809 354.287 2.22585 354.287 4.2815ZM349.685 4.2815V6.33495C349.685 6.70225 350.15 6.86055 350.374 6.57025L352.443 3.89555C352.501 3.82078 352.535 3.72786 352.524 3.63385C352.462 3.10715 352.064 2.50074 351.117 2.50074C349.719 2.50074 349.685 3.77954 349.685 4.28095V4.2815ZM352.55 9.60505V7.57035C352.55 7.20305 352.084 7.04415 351.86 7.33505L349.808 9.99155C349.751 10.0657 349.717 10.1581 349.727 10.2516C349.786 10.7783 350.17 11.3858 351.117 11.3858C352.515 11.3858 352.55 10.107 352.55 9.60565V9.60505Z" fill="#00FFFF" style="mix-blend-mode:difference"/>
<path d="M361.873 4.2815V9.60505C361.873 11.6612 360.84 13.1077 358.702 13.1077C356.564 13.1077 355.532 11.6612 355.532 9.60505V4.2815C355.532 2.22585 356.564 0.778809 358.702 0.778809C360.84 0.778809 361.873 2.22585 361.873 4.2815ZM357.27 4.2815V6.33495C357.27 6.70225 357.735 6.86055 357.96 6.57025L360.029 3.89555C360.087 3.82078 360.121 3.72786 360.11 3.63385C360.049 3.10715 359.65 2.50074 358.702 2.50074C357.304 2.50074 357.27 3.77954 357.27 4.28095V4.2815ZM360.136 9.60505V7.56975C360.136 7.20255 359.671 7.04365 359.447 7.33445L357.394 9.99105C357.337 10.0652 357.302 10.1581 357.313 10.251C357.372 10.7777 357.756 11.3852 358.703 11.3852C360.101 11.3852 360.136 10.1064 360.136 9.60505Z" fill="#00FFFF" style="mix-blend-mode:difference"/>
<path d="M390.943 12.6466V11.7081C390.943 11.4953 391.115 11.3232 391.327 11.3232H395.915C396.128 11.3232 396.3 11.1512 396.3 10.9384V0.718405C396.3 0.493535 396.492 0.316505 396.716 0.334655L398.378 0.469895C398.471 0.469895 398.609 0.516085 398.609 0.639235C398.609 0.762385 398.517 0.809115 398.439 0.855295C398.347 0.901485 398.209 0.963055 398.209 1.04003V4.42671C398.209 4.63948 398.381 4.81155 398.593 4.81155H402.811C403.024 4.81155 403.196 4.98364 403.196 5.19641V6.21241C403.196 6.42518 403.024 6.59728 402.811 6.59728H398.593C398.381 6.59728 398.209 6.76938 398.209 6.98208V10.9378C398.209 11.1506 398.381 11.3227 398.593 11.3227H403.812C404.025 11.3227 404.197 11.4948 404.197 11.7075V12.646C404.197 12.8588 404.025 13.0309 403.812 13.0309H391.327C391.114 13.0309 390.942 12.8588 390.942 12.646L390.943 12.6466Z" fill="#00FFFF" style="mix-blend-mode:difference"/>
<path d="M409.184 12.2914C408.939 12.3376 407.707 12.5377 407.415 12.5839C407.199 12.6152 406.706 12.7076 406.614 12.8148C406.46 12.9688 406.414 13.0149 406.322 13.0149C406.244 13.0149 406.137 12.9842 406.121 12.8918L405.846 11.6278C405.796 11.4008 405.962 11.1814 406.193 11.1622C407.054 11.0896 407.458 11.0434 408.15 10.9615C408.344 10.9384 408.492 10.774 408.492 10.5788V9.7817C408.492 9.5689 408.32 9.3968 408.107 9.3968H406.63C406.417 9.3968 406.245 9.2247 406.245 9.012V8.46C406.245 8.2472 406.417 8.0751 406.63 8.0751H408.107C408.32 8.0751 408.492 7.903 408.492 7.6903V7.33401C408.492 7.12121 408.32 6.94921 408.107 6.94921H406.63C406.417 6.94921 406.245 6.77711 406.245 6.56431V1.14892C406.245 0.936155 406.417 0.764075 406.63 0.764075H411.802C412.015 0.764075 412.187 0.936155 412.187 1.14892V6.5654C412.187 6.7782 412.015 6.9503 411.802 6.9503H410.247C410.034 6.9503 409.862 7.1223 409.862 7.3351V7.69141C409.862 7.90411 410.034 8.07621 410.247 8.07621H411.802C412.015 8.07621 412.187 8.24831 412.187 8.46111V9.01311C412.187 9.22581 412.015 9.39791 411.802 9.39791H410.247C410.034 9.39791 409.862 9.57 409.862 9.7828V10.2913C409.862 10.5272 410.075 10.7069 410.308 10.6718C411.037 10.5618 411.526 10.4766 411.898 10.4035C412.136 10.3567 412.357 10.5382 412.357 10.7812V11.3491C412.357 11.5311 412.228 11.69 412.05 11.7279C411.092 11.9319 410.144 12.1122 409.184 12.292V12.2914ZM408.107 2.08575H408.014C407.802 2.08575 407.63 2.25784 407.63 2.4706V2.78014C407.63 2.99291 407.802 3.16498 408.014 3.16498H408.107C408.32 3.16498 408.492 2.99291 408.492 2.78014V2.4706C408.492 2.25784 408.32 2.08575 408.107 2.08575ZM408.107 4.50261H408.014C407.802 4.50261 407.63 4.67469 407.63 4.88746V5.22779C407.63 5.44056 407.802 5.61263 408.014 5.61263H408.107C408.32 5.61263 408.492 5.44056 408.492 5.22779V4.88746C408.492 4.67469 408.32 4.50261 408.107 4.50261ZM410.416 2.08575H410.247C410.034 2.08575 409.862 2.25784 409.862 2.4706V2.78014C409.862 2.99291 410.034 3.16498 410.247 3.16498H410.416C410.629 3.16498 410.801 2.99291 410.801 2.78014V2.4706C410.801 2.25784 410.629 2.08575 410.416 2.08575ZM410.416 4.50261H410.247C410.034 4.50261 409.862 4.67469 409.862 4.88746V5.22779C409.862 5.44056 410.034 5.61263 410.247 5.61263H410.416C410.629 5.61263 410.801 5.44056 410.801 5.22779V4.88746C410.801 4.67469 410.629 4.50261 410.416 4.50261ZM417.495 9.4908L417.039 9.28681C416.784 9.17301 416.497 9.3594 416.497 9.6382V11.9544C416.497 13.0133 416.104 13.3558 414.379 13.4647C414.228 13.474 414.081 13.3915 414.011 13.2558L413.325 11.9236H414.234C414.633 11.9236 414.818 11.8159 414.818 11.431V7.3357C414.818 7.1229 414.645 6.9508 414.433 6.9508H413.14C412.927 6.9508 412.755 6.7787 412.755 6.566V5.87543C412.755 5.66266 412.927 5.49059 413.14 5.49059H414.829C415.217 5.49059 415.365 4.97929 415.032 4.77806C414.726 4.59279 414.348 4.38606 413.868 4.15625C413.667 4.06003 413.592 3.81098 413.703 3.61801L414.027 3.05667C414.121 2.89449 414.321 2.82412 414.496 2.88844C414.77 2.9885 414.972 3.07702 415.205 3.18368C415.345 3.248 415.511 3.22216 415.625 3.11935C415.743 3.01379 415.856 2.90823 415.972 2.79333C416.214 2.55087 416.042 2.13469 415.699 2.13469H413.432C413.219 2.13469 413.047 1.96261 413.047 1.74984V1.10329C413.047 0.890525 413.219 0.718445 413.432 0.718445H418.517C418.631 0.718445 418.739 0.768475 418.812 0.855885L419.05 1.13958C419.174 1.28747 419.171 1.50188 419.042 1.64483C418.584 2.14954 417.924 2.84446 417.035 3.64055C416.851 3.80603 416.867 4.09853 417.068 4.24422C417.251 4.37727 417.394 4.49217 417.517 4.59772C417.665 4.72582 417.696 4.94299 417.586 5.10573L417.326 5.49168H418.798C418.909 5.49168 419.015 5.53951 419.088 5.62307L419.441 6.02773C419.541 6.14153 419.567 6.29931 419.504 6.4362C419.152 7.2098 418.664 8.2148 417.982 9.3391C417.881 9.5046 417.669 9.57111 417.492 9.49191L417.495 9.4908ZM416.881 6.9503C416.669 6.9503 416.497 7.1223 416.497 7.3351V8.85911C416.928 8.28731 417.162 7.9195 417.376 7.5127C417.509 7.257 417.322 6.9503 417.034 6.9503H416.881Z" fill="#00FFFF" style="mix-blend-mode:difference"/>
<path d="M428.016 9.34618C427.821 9.36708 427.673 9.53258 427.673 9.72888V10.9538C427.673 11.7389 427.857 11.9077 428.611 11.9077H430.812C431.891 11.9077 432.197 11.586 432.361 10.575C432.402 10.3166 432.678 10.1681 432.912 10.2847L433.785 10.7168C433.939 10.7932 434.025 10.9659 433.992 11.1347C433.6 13.1436 432.937 13.5086 431.613 13.5086H427.656C426.38 13.5086 425.84 12.7857 425.84 11.5998V10.012C425.84 9.78328 425.642 9.60458 425.414 9.62928L421.359 10.0659C421.148 10.0884 420.958 9.93558 420.936 9.72388L420.847 8.88768C420.825 8.67708 420.977 8.48738 421.188 8.46438L425.498 7.98988C425.693 7.96838 425.841 7.80348 425.841 7.60718V6.60938C425.841 6.38068 425.643 6.20251 425.416 6.2267L421.588 6.63408C421.378 6.65668 421.188 6.50548 421.164 6.29543L421.068 5.45975C421.043 5.24698 421.197 5.05511 421.41 5.03257L425.497 4.60154C425.693 4.58064 425.842 4.41571 425.842 4.21889V3.27545C425.842 3.04454 425.638 2.86641 425.409 2.89335C424.541 2.99671 424.154 3.03245 422.364 3.18859C422.215 3.20178 422.068 3.12756 421.993 2.99836L421.163 1.56287C421.717 1.59366 421.931 1.59366 422.179 1.59366C423.472 1.59366 427.438 1.37319 430.692 0.0295174C430.833 -0.0287626 430.993 0.000377551 431.103 0.107038L432.092 1.07026C432.23 1.20881 432.415 1.39354 432.415 1.53208C432.415 1.65578 432.323 1.71736 432.216 1.71736C432.078 1.71736 431.9 1.64644 431.723 1.57826C431.643 1.54748 431.551 1.54748 431.469 1.57277C430.105 2.0016 429.235 2.21437 427.989 2.45682C427.808 2.49201 427.674 2.65035 427.674 2.83507V3.95279C427.674 4.1815 427.872 4.35963 428.1 4.33544L432.834 3.83568C433.045 3.81314 433.235 3.96653 433.257 4.17765L433.345 4.99848C433.367 5.2096 433.214 5.39928 433.003 5.42182L428.018 5.95951C427.823 5.9804 427.675 6.14533 427.675 6.34218V7.33838C427.675 7.56768 427.874 7.74578 428.101 7.72098L433.526 7.13168C433.737 7.10858 433.928 7.26198 433.95 7.47358L434.039 8.30878C434.061 8.51988 433.908 8.70898 433.697 8.73208L428.018 9.34618H428.016Z" fill="#00FFFF" style="mix-blend-mode:difference"/>
<path d="M443.538 8.62595L444.249 12.6454C444.286 12.8515 444.15 13.0495 443.945 13.0901L442.918 13.2936C442.705 13.3359 442.499 13.194 442.464 12.9802L441.76 8.82495C441.726 8.62095 441.537 8.48075 441.332 8.50715L437.073 9.05755C436.864 9.08445 436.672 8.93765 436.643 8.72815L436.517 7.81225C436.488 7.60055 436.637 7.40595 436.849 7.37795L441.009 6.83365C441.226 6.80505 441.375 6.60275 441.339 6.38725L441.13 5.16118C441.095 4.95721 440.905 4.81701 440.7 4.84395L437.722 5.2376C437.512 5.26564 437.319 5.11775 437.29 4.90718L437.178 4.07205C437.149 3.85984 437.299 3.66576 437.512 3.63882L440.405 3.27541C440.623 3.24792 440.774 3.04395 440.737 2.82789L440.402 0.895389C440.363 0.668879 440.53 0.458309 440.76 0.445669L441.945 0.378039C442.283 0.362649 442.407 0.408829 442.407 0.531979C442.407 0.593009 442.145 0.870648 442.161 0.947618L442.465 2.62007C442.502 2.82184 442.69 2.95929 442.893 2.9329L445.51 2.59643C445.718 2.56949 445.91 2.71518 445.94 2.92355L446.061 3.76307C446.092 3.97529 445.943 4.17211 445.729 4.1996L443.207 4.52838C442.99 4.55696 442.84 4.76148 442.878 4.9781L443.095 6.18983C443.132 6.39215 443.32 6.53015 443.524 6.50375L447.257 6.0161C447.468 5.98861 447.662 6.1376 447.689 6.34925L447.807 7.27845C447.834 7.48895 447.685 7.68135 447.475 7.70885L443.868 8.17735C443.65 8.20535 443.5 8.40985 443.538 8.62595Z" fill="#00FFFF" style="mix-blend-mode:difference"/>
<path d="M456.853 9.41768L456.167 9.12408C455.955 9.03278 455.869 8.77658 455.986 8.57648C456.107 8.36868 456.224 8.16908 456.507 7.70558C456.799 7.22838 456.83 7.18218 457.122 6.67418L454.695 7.16788C454.488 7.21028 454.353 7.41148 454.394 7.61928L455.403 12.7598C455.443 12.9632 455.315 13.1617 455.113 13.209L454.222 13.4168C454.007 13.4668 453.795 13.3266 453.756 13.1095L452.835 7.95688C452.797 7.74358 452.59 7.60388 452.378 7.64788L450.263 8.08658C450.081 8.12458 449.897 8.02608 449.828 7.85238L449.567 7.19928C449.477 6.97498 449.614 6.72428 449.851 6.67858L452.128 6.23877C452.335 6.19864 452.472 5.99907 452.434 5.79125L452.07 3.81532C452.03 3.5965 452.183 3.38868 452.404 3.36339L453.458 3.24134C453.535 3.22595 453.858 3.21055 453.858 3.37989C453.858 3.41068 453.858 3.44146 453.735 3.59595C453.703 3.64214 453.627 3.74934 453.642 3.82686L453.982 5.48557C454.024 5.69229 454.225 5.82643 454.431 5.7863L457.66 5.16559C457.791 5.1425 457.903 5.06938 457.991 4.98856C458.124 4.86761 458.329 4.87201 458.474 4.97811L459.145 5.46632C459.306 5.58343 459.35 5.80609 459.247 5.97708C458.689 6.90838 458.196 7.75178 457.338 9.25268C457.241 9.42258 457.031 9.49518 456.851 9.41818L456.853 9.41768Z" fill="#00FFFF" style="mix-blend-mode:difference"/>
<path d="M463.792 4.31017C463.085 3.76368 462.275 3.25733 461.356 2.81255C461.147 2.71139 461.069 2.45244 461.195 2.25727L461.714 1.45678C461.818 1.29679 462.021 1.23302 462.194 1.31329C463.048 1.70693 464.021 2.23693 464.844 2.86258C465.006 2.98574 465.037 3.21885 464.922 3.38653L464.345 4.2266C464.219 4.40968 463.968 4.44597 463.792 4.31017ZM468.622 8.75241C466.261 10.6657 464.813 11.3304 462.985 12.1138C462.879 12.1589 462.796 12.2502 462.765 12.3612C462.719 12.5212 462.678 12.662 462.588 12.662C462.496 12.662 462.357 12.5696 462.249 12.37L461.431 10.9664C461.302 10.7454 461.419 10.4645 461.666 10.4007C462.911 10.0796 464.726 9.47701 466.883 7.85961C468.92 6.34161 470.301 4.6164 471.075 3.58005C471.233 3.36894 471.55 3.37498 471.7 3.59215L472.298 4.45971C472.393 4.59661 472.389 4.77639 472.289 4.90889C471.645 5.76325 470.482 7.24491 468.622 8.75241Z" fill="#00FFFF" style="mix-blend-mode:difference"/>
<path d="M477.997 3.24136C477.95 3.28754 477.673 3.42609 477.627 3.48766C477.566 3.54869 477.319 4.59603 477.258 4.79615C476.219 8.29441 474.84 10.3083 474.077 11.3474C473.974 11.4887 473.79 11.5404 473.627 11.4766L472.456 11.0159C472.208 10.9186 472.137 10.6096 472.309 10.4062C474.127 8.25651 475.279 5.42456 475.785 2.84331C475.827 2.63055 476.031 2.4953 476.243 2.54258L477.719 2.8719C477.766 2.8873 478.089 2.96427 478.089 3.11821C478.089 3.17923 478.043 3.21057 477.997 3.24136ZM483.648 10.6536C483.074 8.35821 481.788 5.41411 480.436 3.57563C480.297 3.3876 480.348 3.12315 480.551 3.0077L481.471 2.48595C481.641 2.38974 481.855 2.43152 481.97 2.58876C483.247 4.34698 484.736 7.25201 485.579 9.90581C485.638 10.0917 485.545 10.2907 485.368 10.3715L484.181 10.9125C483.96 11.0131 483.707 10.8883 483.648 10.653V10.6536ZM484.755 3.82633C483.969 3.82633 483.307 3.16439 483.307 2.33256C483.307 1.51723 483.954 0.854736 484.755 0.854736C485.586 0.854736 486.218 1.53152 486.218 2.33256C486.218 3.14844 485.555 3.82633 484.755 3.82633ZM484.755 1.47105C484.262 1.47105 483.908 1.88669 483.908 2.33256C483.908 2.80978 484.293 3.21057 484.755 3.21057C485.217 3.21057 485.616 2.82572 485.616 2.33256C485.616 1.87074 485.247 1.47105 484.755 1.47105Z" fill="#00FFFF" style="mix-blend-mode:difference"/>
<path d="M497.206 11.9973C496.039 10.5898 495.075 9.60848 494.014 8.72328C493.856 8.59188 493.622 8.61118 493.484 8.76288C492.375 9.97738 491.242 11.0533 488.723 12.3189C488.572 12.3948 488.386 12.3645 488.268 12.2436L487.496 11.4448C487.311 11.2534 487.37 10.9357 487.613 10.8273C488.688 10.3468 490.355 9.49248 492.021 7.72108C493.385 6.26851 494.034 4.96112 494.418 4.05397C494.526 3.79887 494.341 3.51793 494.064 3.51793H489.157C488.945 3.51793 488.773 3.34585 488.773 3.13308V2.11707C488.773 1.90431 488.945 1.73222 489.157 1.73222H495.407C495.603 1.73222 495.771 1.6635 495.943 1.56344C496.101 1.47108 496.302 1.49802 496.426 1.63381L497.107 2.38592C497.251 2.54591 497.246 2.79936 497.082 2.93845C496.876 3.11274 496.685 3.32825 496.561 3.62624C496.074 4.77419 495.787 5.46747 494.964 6.77818C494.859 6.94528 494.896 7.16467 495.052 7.28557C496.338 8.28677 497.5 9.42318 498.609 10.6118C498.748 10.7603 498.747 10.9912 498.608 11.1396L497.785 12.0193C497.626 12.1886 497.353 12.176 497.205 11.9973H497.206Z" fill="#00FFFF" style="mix-blend-mode:difference"/>
<path d="M519.241 13.2551C519.101 13.3684 518.903 13.3706 518.762 13.2595C518.03 12.6823 516.852 11.6839 515.724 9.92228C514.919 8.65508 514.476 7.51258 514.205 6.61918C514.099 6.26845 513.61 6.2613 513.48 6.60438C512.378 9.52588 510.878 11.7361 508.64 13.3629C508.505 13.4602 508.32 13.4597 508.185 13.3635L507.221 12.679C507.003 12.5245 507.003 12.2007 507.224 12.05C508.1 11.4518 509.383 10.4413 510.504 8.67488C511.733 6.71868 512.073 4.92807 512.222 3.8208C512.253 3.59264 512.473 3.4442 512.696 3.50028L513.109 3.60309C513.363 3.66631 513.602 3.46399 513.586 3.20284C513.577 3.0599 513.57 2.91256 513.564 2.73882C513.557 2.53155 513.387 2.36387 513.179 2.36387H510.828C510.615 2.36387 510.443 2.19179 510.443 1.97902V0.916832C510.443 0.704072 510.615 0.531982 510.828 0.531982H514.97C515.19 0.531982 515.367 0.715062 515.354 0.934982C515.332 1.31598 515.324 1.72612 515.324 2.08733C515.324 3.71909 515.601 5.81213 516.739 7.93708C517.913 10.1181 519.358 11.1951 520.285 11.7586C520.511 11.8966 520.528 12.2166 520.322 12.3832L519.241 13.2557V13.2551Z" fill="#00FFFF" style="mix-blend-mode:difference"/>
<path d="M529.426 7.21188C529.278 7.21188 529.144 7.29718 529.08 7.43078C529.022 7.55228 528.958 7.67158 528.901 7.76718H534.11C534.326 7.76718 534.503 7.94478 534.495 8.16088C534.44 9.69368 534.154 11.6685 533.658 12.4465C533.231 13.115 532.553 13.3492 531.48 13.3932C531.319 13.3998 531.17 13.3014 531.109 13.1529L530.817 12.4377C530.714 12.1853 530.388 12.1149 530.194 12.3063C529.862 12.6323 529.461 12.9836 528.919 13.3602C528.79 13.4498 528.615 13.4509 528.484 13.364L528.035 13.065C527.811 12.916 527.803 12.5867 528.024 12.4338C529.466 11.4371 530.555 9.98998 531.056 9.04438H530.51C530.373 9.04438 530.248 9.11478 530.179 9.23408C529.933 9.66508 529.491 10.3749 528.777 11.0621C528.102 11.724 527.362 12.3079 526.582 12.8258C526.45 12.9138 526.275 12.9099 526.145 12.8181L525.682 12.4921C525.451 12.3294 525.469 11.9808 525.716 11.8439C527.433 10.8939 528.545 9.47648 528.823 9.04378H528.29C528.179 9.04378 528.072 9.09608 527.998 9.18018C527.354 9.92348 526.82 10.4079 526.272 10.8334C526.141 10.9345 525.96 10.9384 525.823 10.8466L525.319 10.5079C525.096 10.3584 525.088 10.0312 525.307 9.87678C525.557 9.70078 525.821 9.48918 526.19 9.16698C525.143 9.56778 523.45 10.1379 523.003 10.2457C522.434 10.3842 522.373 10.3991 522.281 10.5074C522.111 10.6926 522.065 10.7537 521.988 10.7537C521.956 10.7537 521.895 10.7229 521.88 10.6465L521.662 9.28518C521.629 9.08338 521.758 8.89258 521.957 8.84918C522.294 8.77608 522.673 8.68368 523.021 8.59578C523.192 8.55228 523.312 8.39888 523.312 8.22248V5.32011C523.312 5.10735 523.14 4.93526 522.927 4.93526H522.204C521.991 4.93526 521.819 4.76318 521.819 4.55041V3.73508C521.819 3.52231 521.991 3.35023 522.204 3.35023H522.927C523.14 3.35023 523.312 3.17815 523.312 2.96538V0.702461C523.312 0.478151 523.503 0.301121 523.727 0.318711L525.098 0.424821C525.19 0.440221 525.297 0.486401 525.297 0.594161C525.297 0.701911 525.221 0.763491 525.128 0.839911C525.051 0.886091 524.928 0.963061 524.928 1.07082V2.96373C524.928 3.1765 525.1 3.34858 525.313 3.34858H526.144C526.357 3.34858 526.529 3.52067 526.529 3.73343V4.54876C526.529 4.76153 526.357 4.93361 526.144 4.93361H525.313C525.1 4.93361 524.928 5.1057 524.928 5.31847V7.56108C524.928 7.81778 525.175 8.00418 525.422 7.93048C525.608 7.87438 525.792 7.81728 525.974 7.75728C526.225 7.67488 526.483 7.85628 526.483 8.12018V8.85858C526.842 8.46928 527.085 8.15538 527.299 7.79748C527.452 7.53958 527.268 7.21138 526.969 7.21138H526.53C526.317 7.21138 526.145 7.03928 526.145 6.82648V6.35148C526.145 6.13875 526.317 5.96666 526.53 5.96666H534.303C534.516 5.96666 534.688 6.13875 534.688 6.35148V6.82648C534.688 7.03928 534.516 7.21138 534.303 7.21138H529.426V7.21188ZM527.285 4.99519V0.917981C527.285 0.705211 527.457 0.533131 527.67 0.533131H533.149C533.362 0.533131 533.534 0.705211 533.534 0.917981V4.99519C533.534 5.20796 533.362 5.38004 533.149 5.38004H527.67C527.457 5.38004 527.285 5.20796 527.285 4.99519ZM532.042 1.82348H528.777V2.47222H532.042V1.82348ZM532.042 3.563H528.777V4.22714H532.042V3.563ZM532.503 9.04378C532.226 9.69088 531.872 10.4606 530.732 11.7394C531.179 11.8318 531.502 11.8318 531.564 11.8318C531.965 11.8318 532.21 11.7394 532.38 11.4002C532.749 10.6767 532.826 9.85968 532.872 9.04378H532.503Z" fill="#00FFFF" style="mix-blend-mode:difference"/>
<path d="M547.419 6.64338V7.81278C547.419 8.02558 547.591 8.19768 547.803 8.19768H548.712C548.924 8.19768 549.096 8.36978 549.096 8.58248V9.24448C549.096 9.45718 548.924 9.62928 548.712 9.62928H537.414C537.201 9.62928 537.029 9.45718 537.029 9.24448V8.58248C537.029 8.36978 537.201 8.19768 537.414 8.19768H538.307C538.52 8.19768 538.692 8.02558 538.692 7.81278V6.64338C538.692 6.43068 538.52 6.25857 538.307 6.25857H536.845C536.632 6.25857 536.46 6.08649 536.46 5.87372V5.1656C536.46 4.95283 536.632 4.78075 536.845 4.78075H538.307C538.52 4.78075 538.692 4.60867 538.692 4.3959V3.08741C538.425 3.41508 538.186 3.65699 537.94 3.8802C537.821 3.98741 537.65 4.01435 537.506 3.94343L536.759 3.57342C536.514 3.45247 536.462 3.11655 536.67 2.93897C537.604 2.14178 538.317 1.20055 538.823 0.317588C538.911 0.163648 539.088 0.0894277 539.259 0.137258L540.707 0.547397C540.738 0.562787 540.97 0.624918 540.97 0.763468C540.97 0.814778 540.851 0.886618 540.614 0.978978C540.507 1.02516 540.415 1.07135 540.138 1.42541H548.558C548.77 1.42541 548.943 1.59749 548.943 1.81026V2.47165C548.943 2.68442 548.77 2.8565 548.558 2.8565H547.803C547.59 2.8565 547.418 3.02858 547.418 3.24135V4.3959C547.418 4.60867 547.59 4.78075 547.803 4.78075H549.234C549.447 4.78075 549.619 4.95283 549.619 5.1656V5.87372C549.619 6.08649 549.447 6.25857 549.234 6.25857H547.803C547.59 6.25857 547.418 6.43068 547.418 6.64338H547.419ZM539.877 11.3232C539.661 11.3386 539.646 11.3386 539.584 11.4156C538.893 12.3249 538.25 12.9385 537.858 13.2854C537.711 13.4152 537.493 13.4152 537.347 13.2854L536.732 12.7411C536.551 12.5806 536.566 12.3007 536.754 12.1479C537.42 11.608 537.957 10.989 538.39 10.3578C538.516 10.1747 538.765 10.128 538.942 10.2616L539.861 10.9538C540 11.061 540.031 11.1231 540.031 11.1847C540.031 11.2924 539.924 11.3078 539.878 11.3232H539.877ZM540.786 2.8565H540.645C540.432 2.8565 540.26 3.02858 540.26 3.24135V4.3959C540.26 4.60867 540.432 4.78075 540.645 4.78075H540.786C540.999 4.78075 541.171 4.60867 541.171 4.3959V3.24135C541.171 3.02858 540.999 2.8565 540.786 2.8565ZM540.786 6.25857H540.645C540.432 6.25857 540.26 6.43068 540.26 6.64338V7.81278C540.26 8.02558 540.432 8.19768 540.645 8.19768H540.786C540.999 8.19768 541.171 8.02558 541.171 7.81278V6.64338C541.171 6.43068 540.999 6.25857 540.786 6.25857ZM541.065 13.0232C541.037 12.3442 540.963 11.774 540.769 11.1291C540.707 10.9219 540.835 10.7053 541.045 10.6525L541.663 10.4963C541.852 10.4485 542.046 10.5497 542.117 10.7311C542.348 11.315 542.56 12.0203 542.596 12.834C542.605 13.0193 542.47 13.1826 542.289 13.2211L541.529 13.3822C541.297 13.4311 541.075 13.2596 541.065 13.0226V13.0232ZM543.141 2.85595H543C542.787 2.85595 542.615 3.02803 542.615 3.2408V4.39535C542.615 4.60812 542.787 4.7802 543 4.7802H543.141C543.353 4.7802 543.525 4.60812 543.525 4.39535V3.2408C543.525 3.02803 543.353 2.85595 543.141 2.85595ZM543.141 6.25802H543C542.787 6.25802 542.615 6.43008 542.615 6.64288V7.81228C542.615 8.02508 542.787 8.19708 543 8.19708H543.141C543.353 8.19708 543.525 8.02508 543.525 7.81228V6.64288C543.525 6.43008 543.353 6.25802 543.141 6.25802ZM544.182 12.8555C544.055 12.1996 543.842 11.6185 543.668 11.2111C543.579 11.0038 543.692 10.7668 543.907 10.6981L544.513 10.5057C544.684 10.4513 544.87 10.5189 544.96 10.6745C545.196 11.0813 545.521 11.7334 545.68 12.4794C545.722 12.6817 545.606 12.8841 545.407 12.9396L544.661 13.1474C544.447 13.2068 544.225 13.0737 544.182 12.8555ZM545.512 2.85595H545.325C545.112 2.85595 544.94 3.02803 544.94 3.2408V4.39535C544.94 4.60812 545.112 4.7802 545.325 4.7802H545.512C545.725 4.7802 545.897 4.60812 545.897 4.39535V3.2408C545.897 3.02803 545.725 2.85595 545.512 2.85595ZM545.512 6.25802H545.325C545.112 6.25802 544.94 6.43008 544.94 6.64288V7.81228C544.94 8.02508 545.112 8.19708 545.325 8.19708H545.512C545.725 8.19708 545.897 8.02508 545.897 7.81228V6.64288C545.897 6.43008 545.725 6.25802 545.512 6.25802ZM547.962 13.0792C547.417 12.3024 546.951 11.7795 546.567 11.3826C546.413 11.2226 546.426 10.9681 546.595 10.8235L547.168 10.3347C547.312 10.2116 547.526 10.2105 547.668 10.3347C548.239 10.8328 548.747 11.3546 549.271 12.0621C549.391 12.2238 549.361 12.4541 549.207 12.5839L548.527 13.1568C548.353 13.3035 548.092 13.2651 547.961 13.0787L547.962 13.0792Z" fill="#00FFFF" style="mix-blend-mode:difference"/>
<path d="M555.772 6.92818C556.203 7.49668 556.73 7.99748 557.09 8.32188C557.237 8.45388 557.258 8.67598 557.14 8.83488L556.732 9.38578C556.593 9.57318 556.321 9.59738 556.155 9.43358C556.112 9.39118 556.068 9.34728 556.023 9.30108C555.783 9.05418 555.363 9.22358 555.363 9.56828V13.093C555.363 13.3057 555.19 13.4778 554.978 13.4778H554.163C553.95 13.4778 553.778 13.3057 553.778 13.093V10.9213C553.778 10.542 553.29 10.3919 553.076 10.7052C552.922 10.9306 552.757 11.155 552.586 11.36C552.468 11.5024 552.261 11.5321 552.101 11.4387L551.366 11.0076C551.156 10.8845 551.117 10.603 551.276 10.4193C552.278 9.26748 552.987 7.98268 553.349 6.80998C553.427 6.55928 553.244 6.30473 552.981 6.30473H551.684C551.471 6.30473 551.299 6.13265 551.299 5.91988V5.27333C551.299 5.06057 551.471 4.88848 551.684 4.88848H553.392C553.605 4.88848 553.777 4.7164 553.777 4.50363V0.706261C553.777 0.480301 553.971 0.302721 554.196 0.323061L555.162 0.408831C555.577 0.440171 555.64 0.532531 555.64 0.624901C555.64 0.685921 555.608 0.748051 555.516 0.809621C555.392 0.901991 555.361 0.917381 555.361 0.994351V4.50418C555.361 4.71695 555.533 4.88903 555.746 4.88903H557.07C557.283 4.88903 557.455 5.06112 557.455 5.27388V5.92043C557.455 6.1332 557.283 6.30528 557.07 6.30528H556.074C555.753 6.30528 555.576 6.67308 555.77 6.92878L555.772 6.92818ZM551.826 3.80815C551.691 3.25397 551.494 2.70089 551.299 2.25886C551.211 2.05984 551.305 1.83113 551.507 1.74921L552.233 1.45562C552.429 1.3759 552.653 1.47157 552.735 1.66784C552.987 2.2737 553.164 2.90486 553.281 3.36778C553.329 3.5591 553.223 3.75263 553.037 3.8197L552.329 4.0759C552.114 4.15342 551.88 4.02917 551.826 3.80761V3.80815ZM558.027 1.94823C557.872 2.0252 557.857 2.04059 557.842 2.08678C557.802 2.21927 557.578 3.13247 557.241 3.90437C557.155 4.10119 556.929 4.1952 556.732 4.10999L556.169 3.86698C555.984 3.78671 555.889 3.57615 555.959 3.38647C556.182 2.7839 556.322 2.14505 556.407 1.67059C556.445 1.45342 556.656 1.31213 556.871 1.36106L557.765 1.56338C558.088 1.64035 558.18 1.68653 558.18 1.7789C558.18 1.85642 558.056 1.93284 558.027 1.94878V1.94823ZM563.045 9.68208V13.0627C563.045 13.2755 562.873 13.4476 562.66 13.4476H561.768C561.555 13.4476 561.383 13.2755 561.383 13.0627V10.2962C561.383 10.0444 561.145 9.86018 560.901 9.92338L557.943 10.6898C557.718 10.7481 557.493 10.5958 557.464 10.3655L557.377 9.67328C557.353 9.48088 557.475 9.30108 557.662 9.25218L561.094 8.36478C561.264 8.32078 561.383 8.16738 561.383 7.99198V0.707911C561.383 0.481401 561.578 0.303271 561.803 0.324711L563.03 0.439621C563.338 0.470411 563.399 0.531981 563.399 0.624351C563.399 0.685371 563.353 0.716711 563.292 0.762891C563.138 0.870651 563.045 0.932231 563.045 0.993801V7.37568C563.045 7.62808 563.284 7.81168 563.527 7.74788L563.885 7.65448C564.12 7.59288 564.352 7.76108 564.367 8.00298L564.411 8.71118C564.422 8.89588 564.301 9.06188 564.122 9.10808L563.335 9.30928C563.165 9.35278 563.045 9.50618 563.045 9.68208ZM559.51 7.53408C559.173 7.09528 558.765 6.66048 558.349 6.29703C558.186 6.15354 558.18 5.90064 558.331 5.7445L558.81 5.25189C558.954 5.104 559.186 5.09685 559.342 5.2321C559.785 5.61585 560.244 6.08757 560.611 6.57958C560.723 6.72918 560.702 6.93978 560.571 7.07338L560.085 7.56708C559.922 7.73248 559.651 7.71878 559.51 7.53458V7.53408ZM559.605 3.82465C559.283 3.41176 558.914 3.06594 558.598 2.8048C558.425 2.6613 558.412 2.40455 558.569 2.24291L559.06 1.73711C559.202 1.59087 559.43 1.58097 559.587 1.71127C559.938 2.00486 560.341 2.38806 560.698 2.85263C560.813 3.00217 560.793 3.21713 560.662 3.35183L560.179 3.85049C560.019 4.01542 559.747 4.00553 559.605 3.82465Z" fill="#00FFFF" style="mix-blend-mode:difference"/>
<path d="M585.455 9.72118V11.2298C585.455 11.4426 585.283 11.6146 585.07 11.6146H583.839V11.199H581.068C580.855 11.199 580.683 11.3711 580.683 11.5838V12.3085C580.683 13.1634 580.33 13.5664 578.4 13.6115C578.247 13.6148 578.102 13.5251 578.038 13.386L577.648 12.5377C577.526 12.2705 577.737 11.9709 578.031 11.994C578.198 12.0072 578.349 12.0165 578.466 12.0165C578.712 12.0165 578.943 11.939 578.943 11.6614V11.1984H574.633C574.42 11.1984 574.248 11.0264 574.248 10.8136V10.3848C574.248 10.172 574.42 9.99988 574.633 9.99988H578.943V9.33578H573.739C573.527 9.33578 573.355 9.16368 573.355 8.95088V8.52258C573.355 8.30988 573.527 8.13778 573.739 8.13778H578.943V7.55058H574.633C574.42 7.55058 574.248 7.37848 574.248 7.16578V6.73748C574.248 6.52468 574.42 6.35258 574.633 6.35258H578.943V5.76545H575.541C575.328 5.76545 575.156 5.59336 575.156 5.3806V3.32C575.156 3.10723 575.328 2.93515 575.541 2.93515H578.943V2.39471H573.739C573.527 2.39471 573.355 2.22263 573.355 2.00986V1.45788C573.355 1.24511 573.527 1.07303 573.739 1.07303H578.558C578.771 1.07303 578.943 0.900938 578.943 0.688178V0.494098C578.943 0.262088 579.146 0.0828585 579.376 0.111998L580.759 0.287928C580.837 0.302778 580.944 0.334109 580.944 0.426479C580.944 0.518839 580.913 0.534238 580.774 0.641988C580.744 0.657388 580.682 0.703568 580.682 0.780538V1.07303H585.87C586.083 1.07303 586.255 1.24511 586.255 1.45788V2.00986C586.255 2.22263 586.083 2.39471 585.87 2.39471H580.682V2.93515H584.069C584.282 2.93515 584.454 3.10723 584.454 3.32V5.3806C584.454 5.59336 584.282 5.76545 584.069 5.76545H580.682V6.35258H585.069C585.282 6.35258 585.454 6.52468 585.454 6.73748V7.75348C585.454 7.96628 585.626 8.13828 585.839 8.13828H585.931C586.144 8.13828 586.316 8.31038 586.316 8.52318V8.95148C586.316 9.16418 586.144 9.33628 585.931 9.33628H585.839C585.626 9.33628 585.454 9.50838 585.454 9.72118H585.455ZM578.943 3.97974H576.727V4.7203H578.943V3.97974ZM582.869 3.97974H580.683V4.7203H582.869V3.97974ZM583.839 7.55058H580.683V8.13778H583.839V7.55058ZM583.839 9.33628H580.683V10.0005H583.839V9.33628Z" fill="#00FFFF" style="mix-blend-mode:difference"/>
<path d="M588.29 3.20945V2.56456C588.29 2.35179 588.462 2.17971 588.674 2.17971H590.819C591.136 2.17971 591.319 1.8185 591.128 1.56505C591.068 1.48423 591.003 1.40011 590.935 1.31544C590.778 1.11917 590.853 0.827231 591.083 0.726071L592.024 0.312081C592.183 0.241711 592.368 0.286791 592.478 0.422591C592.712 0.712331 593.062 1.1648 593.553 1.90316L592.984 2.18026H595.795C595.924 2.18026 596.046 2.11483 596.117 2.00707C596.448 1.50567 596.64 1.18294 596.913 0.578181C596.992 0.403901 597.188 0.312631 597.371 0.365961L599.004 0.841531C599.065 0.856921 599.112 0.933891 599.112 0.995471C599.112 1.05649 599.08 1.10268 598.988 1.13401C598.958 1.14886 598.757 1.19504 598.711 1.22638C598.665 1.25717 598.202 2.04171 598.094 2.18026H601.219C601.432 2.18026 601.604 2.35234 601.604 2.56511V3.21C601.604 3.42277 601.432 3.59485 601.219 3.59485H588.675C588.462 3.59485 588.29 3.42277 588.29 3.21V3.20945ZM592.151 13.2216L591.816 12.3134C591.719 12.0506 591.928 11.774 592.207 11.7966C592.459 11.8169 592.615 11.8169 592.615 11.8169C592.924 11.8169 593.047 11.6932 593.047 11.4315V10.6915C593.047 10.4787 592.875 10.3067 592.662 10.3067H591.151C590.938 10.3067 590.766 10.4787 590.766 10.6915V13.0314C590.766 13.2442 590.594 13.4162 590.381 13.4162H589.521C589.308 13.4162 589.136 13.2442 589.136 13.0314V4.93578C589.136 4.72302 589.308 4.55093 589.521 4.55093H594.322C594.535 4.55093 594.707 4.72302 594.707 4.93578V11.801C594.707 13.1611 593.734 13.4415 592.519 13.474C592.356 13.4784 592.208 13.375 592.151 13.2216ZM592.662 5.90395H591.151C590.938 5.90395 590.766 6.07604 590.766 6.2888V6.36738C590.766 6.58018 590.938 6.75228 591.151 6.75228H592.662C592.875 6.75228 593.047 6.58018 593.047 6.36738V6.2888C593.047 6.07604 592.875 5.90395 592.662 5.90395ZM592.662 8.10528H591.151C590.938 8.10528 590.766 8.27738 590.766 8.49018V8.56878C590.766 8.78158 590.938 8.95358 591.151 8.95358H592.662C592.875 8.95358 593.047 8.78158 593.047 8.56878V8.49018C593.047 8.27738 592.875 8.10528 592.662 8.10528ZM597.756 4.98141C597.54 5.1348 597.509 5.15075 597.509 5.21177V10.3534C597.509 10.5662 597.337 10.7382 597.124 10.7382H596.234C596.021 10.7382 595.849 10.5662 595.849 10.3534V4.93963C595.849 4.71917 596.033 4.54433 596.253 4.55533L597.679 4.62735C597.803 4.62735 597.879 4.71972 597.879 4.79669C597.879 4.88905 597.802 4.95008 597.756 4.98141ZM600.988 4.74995C600.881 4.84232 600.773 4.96547 600.773 5.01165V11.6624C600.773 13.1023 600.155 13.3365 598.439 13.3679C598.288 13.3706 598.147 13.2837 598.082 13.1474L597.372 11.647C597.695 11.6778 597.972 11.7086 598.296 11.7086C598.834 11.7086 598.988 11.5849 598.988 11.1698V4.70267C598.988 4.47891 599.178 4.30243 599.401 4.31892L600.896 4.42723C601.004 4.44262 601.08 4.50475 601.08 4.56633C601.08 4.6433 601.019 4.70432 600.988 4.74995Z" fill="#00FFFF" style="mix-blend-mode:difference"/>
<path d="M612.766 9.675L611.934 9.1433C611.739 9.0185 611.698 8.7497 611.847 8.5721C612.251 8.091 612.601 7.6441 613.075 6.9959C613.261 6.7413 613.081 6.3812 612.766 6.3812H610.978C610.765 6.3812 610.593 6.5533 610.593 6.766V11.492C610.593 13.3591 609.966 13.4861 607.722 13.5064C607.562 13.5081 607.415 13.4097 607.357 13.2601L606.998 12.3304C606.89 12.0517 607.126 11.763 607.421 11.8125C607.682 11.8565 607.962 11.8922 608.177 11.8922C608.638 11.8922 608.762 11.5536 608.762 11.1225V6.766C608.762 6.5533 608.589 6.3812 608.377 6.3812H603.481C603.269 6.3812 603.097 6.20911 603.097 5.99634V5.08865C603.097 4.87588 603.269 4.7038 603.481 4.7038H608.699C608.223 4.4388 607.804 4.21998 607.04 3.90936C606.827 3.82304 606.735 3.56904 606.846 3.36727L607.263 2.60581C607.361 2.42713 607.58 2.35457 607.764 2.44199C608.095 2.59923 608.544 2.81089 609.467 3.25127C609.592 3.3112 609.742 3.30185 609.856 3.22213C609.996 3.12317 610.153 3.00496 610.344 2.84167C610.616 2.61021 610.452 2.16324 610.095 2.16324H604.79C604.578 2.16324 604.406 1.99115 604.406 1.77839V0.931725C604.406 0.718955 604.578 0.546875 604.79 0.546875H614.137C614.252 0.546875 614.361 0.598555 614.434 0.687615L614.772 1.0983C614.911 1.26819 614.881 1.51945 614.705 1.65085C613.843 2.29519 612.793 3.06653 611.209 4.10398C611.271 4.13477 611.532 4.27332 611.595 4.30356L611.24 4.70436H615.422C615.524 4.70436 615.622 4.74503 615.694 4.81705L616.023 5.14637C616.151 5.27447 616.17 5.47845 616.071 5.63074C614.656 7.81831 613.925 8.7827 613.273 9.5925C613.149 9.7459 612.931 9.7816 612.765 9.6755L612.766 9.675Z" fill="#00FFFF" style="mix-blend-mode:difference"/>
<path d="M619.631 9.35281C619.563 10.4969 619.481 11.2583 619.145 12.2001C619.077 12.3914 618.876 12.5019 618.68 12.4492L618.088 12.2908C617.876 12.2342 617.754 12.0126 617.821 11.8032C618.032 11.1423 618.209 10.3556 618.308 9.12741C618.327 8.90191 618.538 8.74251 618.761 8.78321L619.601 8.93661C619.693 8.95141 619.878 8.99761 619.878 9.09001C619.878 9.16751 619.801 9.22851 619.631 9.35221V9.35281ZM622.818 7.98271C622.786 7.84421 622.757 7.64401 622.694 7.35161C622.376 7.43351 622.171 7.47251 622.002 7.50001C621.815 7.53021 621.678 7.69081 621.678 7.87991V13.0935C621.678 13.3063 621.506 13.4784 621.293 13.4784H620.493C620.281 13.4784 620.108 13.3063 620.108 13.0935V8.19601C620.108 7.96731 619.91 7.78921 619.682 7.81341C619.268 7.85791 618.887 7.89801 618.738 7.92061C618.631 7.92061 618.522 7.93601 618.4 8.07451C618.277 8.19771 618.23 8.24391 618.153 8.24391C618.107 8.24391 618.03 8.18281 618.015 8.10531L617.785 6.76931C617.744 6.53461 617.926 6.32021 618.164 6.31911C618.515 6.31801 618.796 6.31301 619.184 6.29652C619.29 6.29212 619.391 6.24429 619.461 6.16402C619.546 6.06616 619.643 5.9562 619.743 5.8347C619.867 5.68571 619.863 5.4625 619.73 5.32175C619.16 4.71644 618.656 4.30795 618.136 3.93959C617.961 3.81589 617.924 3.57178 618.051 3.39915L618.77 2.42493C619.015 2.59481 619.154 2.70257 619.293 2.82573C619.859 2.00764 620.201 1.35945 620.529 0.619427C620.62 0.415457 620.866 0.332447 621.062 0.438557L622.062 0.978437C622.14 1.02463 622.171 1.0862 622.171 1.11699C622.171 1.16317 622.139 1.20935 622.078 1.24069C621.878 1.33306 621.831 1.36384 621.801 1.41003C621.102 2.46562 620.928 2.72786 620.419 3.392C620.304 3.5421 620.316 3.75596 620.445 3.89341C620.477 3.92695 620.508 3.96048 620.538 3.99347C620.704 4.1771 620.997 4.15786 621.14 3.95608C621.7 3.16659 622.045 2.6278 622.328 2.15664C622.438 1.97411 622.675 1.91528 622.857 2.02579L623.926 2.67178C624.018 2.71797 624.034 2.81033 624.034 2.84167C624.034 2.98021 623.879 3.011 623.864 3.011C623.617 3.0264 623.602 3.05718 623.386 3.33428C622.601 4.33489 621.77 5.30471 620.908 6.22835C621.275 6.20581 621.547 6.18272 621.936 6.14093C622.172 6.11564 622.332 5.88363 622.268 5.65437C622.261 5.63018 622.254 5.60599 622.248 5.5818C622.187 5.37123 622.316 5.15242 622.53 5.10239L623.17 4.95285C623.363 4.90776 623.562 5.01717 623.624 5.2052C623.851 5.88253 624.027 6.54281 624.158 7.23771C624.194 7.43241 624.073 7.62481 623.883 7.67921L622.818 7.98331V7.98271ZM622.84 11.3386C622.619 10.5057 622.488 9.85311 622.386 9.10541C622.359 8.90631 622.492 8.72051 622.689 8.67931L623.188 8.57431C623.405 8.52861 623.613 8.67821 623.647 8.89641C623.789 9.78881 623.966 10.4914 624.115 10.9928C624.177 11.2017 624.054 11.4156 623.844 11.4711L623.31 11.6107C623.105 11.6641 622.894 11.542 622.84 11.338V11.3386ZM630.099 11.9692C629.668 13.2007 628.836 13.4008 627.836 13.4008H627.419C627.27 13.4008 627.134 13.3145 627.07 13.1798L626.615 12.2095C626.489 11.9417 626.697 11.6399 626.992 11.6624C627.207 11.6789 627.446 11.6921 627.697 11.6921C628.19 11.6921 628.498 11.569 628.79 10.5991C629.099 9.58311 629.375 7.53631 629.375 5.18101V4.51907C629.375 4.3063 629.203 4.13422 628.99 4.13422H626.102C625.965 4.13422 625.837 4.21009 625.768 4.32774C625.471 4.83244 625.245 5.18431 624.976 5.51967C624.843 5.68516 624.599 5.70935 624.434 5.5763L623.816 5.0771C623.656 4.9479 623.624 4.71589 623.747 4.55095C624.342 3.75101 624.973 2.72292 625.68 0.695307C625.749 0.496277 625.965 0.385777 626.165 0.451747L627.435 0.871237C627.512 0.902017 627.589 0.948207 627.589 1.02463C627.589 1.10215 627.543 1.14833 627.482 1.17857C627.251 1.28632 627.235 1.30172 627.158 1.50184C627.085 1.69756 627.036 1.83226 626.992 1.94717C626.894 2.20007 627.08 2.47166 627.35 2.47166H630.591C630.803 2.47166 630.976 2.64375 630.976 2.85651V5.35034C630.976 7.53681 630.667 10.3688 630.098 11.9698L630.099 11.9692ZM626.334 9.00641C626.008 7.98881 625.7 7.28061 625.432 6.71981C625.335 6.51861 625.428 6.27948 625.635 6.19646L626.306 5.92872C626.494 5.85339 626.708 5.93641 626.796 6.11894C627.099 6.74401 627.41 7.49561 627.731 8.56161C627.791 8.76011 627.68 8.97401 627.483 9.03941L626.823 9.25931C626.618 9.32751 626.4 9.21201 626.334 9.00701V9.00641Z" fill="#00FFFF" style="mix-blend-mode:difference"/>
<path d="M637.518 6.30369V6.49011C637.518 6.70281 637.69 6.87491 637.903 6.87491H639.857C640.07 6.87491 640.242 7.04701 640.242 7.25981V11.3238C640.242 12.2073 639.565 12.3876 638.607 12.5525C638.438 12.5817 638.269 12.4943 638.195 12.3398L637.885 11.6943C637.772 11.459 637.917 11.1676 638.177 11.1423C638.469 11.1138 638.614 11.0214 638.614 10.724V8.73651C638.614 8.52371 638.442 8.35161 638.229 8.35161H637.903C637.691 8.35161 637.519 8.52371 637.519 8.73651V13.1238C637.519 13.3365 637.346 13.5086 637.134 13.5086H636.289C636.076 13.5086 635.904 13.3365 635.904 13.1238V8.73651C635.904 8.52371 635.732 8.35161 635.519 8.35161H635.209C634.997 8.35161 634.825 8.52371 634.825 8.73651V12.3546C634.825 12.5674 634.653 12.7395 634.44 12.7395H633.596C633.383 12.7395 633.211 12.5674 633.211 12.3546V7.25981C633.211 7.04701 633.383 6.87491 633.596 6.87491H635.519C635.732 6.87491 635.904 6.70281 635.904 6.49011V6.30369C635.904 6.09092 635.732 5.91884 635.519 5.91884H633.042C632.829 5.91884 632.657 5.74676 632.657 5.53399V4.81267C632.657 4.5999 632.829 4.42782 633.042 4.42782H635.519C635.732 4.42782 635.904 4.25574 635.904 4.04297V3.74884C635.904 3.53607 635.732 3.36399 635.519 3.36399H634.645C634.495 3.36399 634.358 3.4514 634.296 3.58885C634.262 3.66307 634.223 3.74444 634.171 3.84945C634.089 4.01548 633.898 4.09905 633.72 4.04792L632.903 3.81371C632.662 3.74444 632.547 3.4668 632.675 3.25183C632.966 2.76417 633.324 2.06704 633.642 1.12306C633.704 0.938328 633.892 0.823428 634.084 0.861908L635.195 1.08677C635.241 1.10217 635.472 1.14835 635.472 1.28744C635.472 1.44138 635.302 1.44138 635.132 1.50296L634.994 1.87297H635.518C635.731 1.87297 635.903 1.70088 635.903 1.48812V0.609557C635.903 0.390737 636.085 0.216458 636.304 0.224708L637.441 0.269787C637.533 0.269787 637.796 0.315967 637.796 0.439667C637.796 0.563377 637.657 0.655188 637.519 0.778338V1.48702C637.519 1.69978 637.691 1.87187 637.903 1.87187H639.75C639.963 1.87187 640.135 2.04395 640.135 2.25672V2.97859C640.135 3.19135 639.963 3.36344 639.75 3.36344H637.903C637.691 3.36344 637.519 3.53552 637.519 3.74829V4.04242C637.519 4.25519 637.691 4.42727 637.903 4.42727H640.291C640.503 4.42727 640.675 4.59935 640.675 4.81212V5.53344C640.675 5.74621 640.503 5.91829 640.291 5.91829H637.903C637.691 5.91829 637.519 6.09037 637.519 6.30314L637.518 6.30369ZM642.706 2.6894V10.0604C642.706 10.2731 642.534 10.4452 642.321 10.4452H641.553C641.34 10.4452 641.168 10.2731 641.168 10.0604V2.34633C641.168 2.12862 641.348 1.95433 641.566 1.96148L642.537 1.99447C642.644 1.99447 642.983 2.00931 642.983 2.1792C642.983 2.25672 642.927 2.31829 642.832 2.40406C642.752 2.47663 642.705 2.58109 642.705 2.6894H642.706ZM645.584 0.778887C645.477 0.886097 645.446 0.917437 645.446 0.994407V11.9076C645.446 13.3739 644.762 13.4993 643.181 13.5482C643.034 13.5526 642.894 13.4723 642.826 13.3415L642.385 12.5003C642.248 12.2386 642.447 11.9258 642.742 11.9373C643.033 11.9483 643.236 11.9538 643.291 11.9538C643.461 11.9538 643.847 11.9538 643.847 11.4766V0.655738C643.847 0.431428 644.038 0.254397 644.262 0.271987L645.399 0.362158C645.492 0.362158 645.737 0.408338 645.737 0.546878C645.737 0.608458 645.676 0.685428 645.584 0.778338V0.778887Z" fill="#00FFFF" style="mix-blend-mode:difference"/>
<path d="M312.641 6.98038H315.926C316.097 6.98038 316.293 6.85178 316.362 6.69458L316.457 6.47848C316.525 6.32128 316.627 6.32568 316.683 6.48728L317.145 7.82378C317.201 7.98598 317.286 7.98378 317.335 7.81938L318.145 5.07487C318.193 4.91048 318.251 4.91488 318.273 5.08477L318.824 9.28508C318.847 9.45498 318.9 9.45828 318.943 9.29278L319.769 6.13156C319.812 5.96552 319.882 5.96552 319.926 6.13156L320.073 6.69618C320.116 6.86218 320.291 6.99798 320.462 6.99798H324.152" fill="#00FFFF" style="mix-blend-mode:difference"/>
<path d="M312.641 6.98038H315.926C316.097 6.98038 316.293 6.85178 316.362 6.69458L316.457 6.47848C316.525 6.32128 316.627 6.32568 316.683 6.48728L317.145 7.82378C317.201 7.98598 317.286 7.98378 317.335 7.81938L318.145 5.07487C318.193 4.91048 318.251 4.91488 318.273 5.08477L318.824 9.28508C318.847 9.45498 318.9 9.45828 318.943 9.29278L319.769 6.13156C319.812 5.96552 319.882 5.96552 319.926 6.13156L320.073 6.69618C320.116 6.86218 320.291 6.99798 320.462 6.99798H324.152" fill="#00FFFF" style="mix-blend-mode:difference"/>
<path d="M312.641 6.98038H315.926C316.097 6.98038 316.293 6.85178 316.362 6.69458L316.457 6.47848C316.525 6.32128 316.627 6.32568 316.683 6.48728L317.145 7.82378C317.201 7.98598 317.286 7.98378 317.335 7.81938L318.145 5.07487C318.193 4.91048 318.251 4.91488 318.273 5.08477L318.824 9.28508C318.847 9.45498 318.9 9.45828 318.943 9.29278L319.769 6.13156C319.812 5.96552 319.882 5.96552 319.926 6.13156L320.073 6.69618C320.116 6.86218 320.291 6.99798 320.462 6.99798H324.152" stroke="#00FFFF" stroke-width="0.6" stroke-linejoin="bevel" style="mix-blend-mode:difference"/>
<path d="M183.327 11.5483H184.788C185 11.5483 185.172 11.3762 185.172 11.1634V5.03664C185.172 4.82384 185 4.65174 184.788 4.65174H183.327C183.114 4.65174 182.942 4.47974 182.942 4.26694V3.63574C182.942 3.44174 183.087 3.27454 183.28 3.25534C184.204 3.16574 184.954 2.69454 185.136 1.76594C185.17 1.59114 185.33 1.46854 185.508 1.46854H186.678C186.891 1.46854 187.063 1.64064 187.063 1.85334V11.1634C187.063 11.3762 187.235 11.5483 187.447 11.5483H188.902C189.114 11.5483 189.287 11.7203 189.287 11.9331V12.9469C189.287 13.1597 189.114 13.3318 188.902 13.3318H183.327C183.114 13.3318 182.942 13.1597 182.942 12.9469V11.9331C182.942 11.7203 183.114 11.5483 183.327 11.5483Z" fill="#00FFFF" style="mix-blend-mode:difference"/>
<path d="M192.236 11.1975H193.603C193.816 11.1975 193.988 11.3696 193.988 11.5823V12.9502C193.988 13.163 193.816 13.3351 193.603 13.3351H192.236C192.023 13.3351 191.851 13.163 191.851 12.9502V11.5823C191.851 11.3696 192.023 11.1975 192.236 11.1975Z" fill="#00FFFF" style="mix-blend-mode:difference"/>
<path d="M197.268 11.5483H198.729C198.941 11.5483 199.113 11.3762 199.113 11.1634V5.03664C199.113 4.82384 198.941 4.65174 198.729 4.65174H197.268C197.056 4.65174 196.883 4.47974 196.883 4.26694V3.63574C196.883 3.44174 197.028 3.27454 197.221 3.25534C198.145 3.16574 198.895 2.69454 199.077 1.76594C199.111 1.59114 199.271 1.46854 199.449 1.46854H200.619C200.831 1.46854 201.004 1.64064 201.004 1.85334V11.1634C201.004 11.3762 201.176 11.5483 201.388 11.5483H202.843C203.056 11.5483 203.228 11.7203 203.228 11.9331V12.9469C203.228 13.1597 203.056 13.3318 202.843 13.3318H197.268C197.056 13.3318 196.883 13.1597 196.883 12.9469V11.9331C196.883 11.7203 197.056 11.5483 197.268 11.5483Z" fill="#00FFFF" style="mix-blend-mode:difference"/>
<path d="M210.676 9.65156V10.2036C210.676 11.7402 209.884 13.5677 207.475 13.5677C205.067 13.5677 204.275 11.7402 204.275 10.2036V9.65156C204.275 8.25616 204.821 7.49476 205.206 7.13956C205.365 6.99226 205.351 6.74486 205.201 6.58816C204.742 6.10876 204.344 5.34396 204.344 4.39996C204.344 2.73746 205.412 1.23706 207.476 1.23706C209.54 1.23706 210.607 2.73746 210.607 4.39996C210.607 5.34286 210.199 6.10706 209.745 6.58706C209.597 6.74376 209.584 6.99056 209.743 7.13686C210.127 7.49086 210.676 8.25286 210.676 9.65206V9.65156ZM208.884 10.2036V9.65156C208.884 8.54646 208.3 7.97686 207.475 7.97686C206.65 7.97686 206.066 8.54646 206.066 9.65156V10.2036C206.066 11.3086 206.65 11.8782 207.475 11.8782C208.3 11.8782 208.884 11.3086 208.884 10.2036ZM206.134 4.46876C206.134 5.47426 206.65 6.01146 207.475 6.01146C208.299 6.01146 208.815 5.47426 208.815 4.46876C208.815 3.46316 208.299 2.92606 207.475 2.92606C206.65 2.92606 206.134 3.46366 206.134 4.46876Z" fill="#00FFFF" style="mix-blend-mode:difference"/>
<path d="M214.292 12.5155C214.257 12.4885 214.225 12.4544 214.199 12.4181C210.211 6.70256 214.129 0.832458 219.338 0.832458C223.055 0.832458 226.114 3.82056 226.114 7.60806C226.114 12.9641 219.914 16.8599 214.292 12.516V12.5155ZM219.338 1.33226C214.514 1.33226 210.85 6.81466 214.621 12.0976C214.646 12.1334 214.679 12.1669 214.714 12.1933C219.927 16.1583 225.614 12.5358 225.614 7.60746C225.614 4.10536 222.769 1.33226 219.338 1.33226ZM215.232 11.0734L214.853 10.8518C214.624 10.7182 214.595 10.3966 214.798 10.2278C216.289 8.98906 216.853 7.65636 217.054 6.61626C217.1 6.38036 216.914 6.16376 216.673 6.16376H215.463C215.251 6.16376 215.079 5.99166 215.079 5.77886V5.40506C215.079 5.19226 215.251 5.02016 215.463 5.02016H218.025C218.248 5.02016 218.43 5.21156 218.412 5.43366C218.214 7.84336 217.199 9.76206 215.674 11.0404C215.55 11.1443 215.371 11.1553 215.231 11.0734H215.232ZM222.676 10.9975C222.111 10.5544 221.331 9.89186 220.633 8.96326C220.409 8.66586 219.938 8.81586 219.938 9.18816V10.7952C219.938 11.8991 219.406 12.0998 218.25 12.1339C218.089 12.1389 217.941 12.0393 217.882 11.8892L217.508 10.9381C217.68 10.9673 217.965 11.0387 218.28 11.0387C218.537 11.0387 218.752 10.953 218.752 10.6814V3.38296C218.752 3.15696 218.946 2.97936 219.171 2.99976L219.867 3.06186C220.095 3.07616 220.21 3.09096 220.21 3.20536C220.21 3.27686 219.938 3.47696 219.938 3.54846V4.33456C219.938 4.63316 219.966 5.16206 220.184 5.84816C220.269 6.11486 220.607 6.20386 220.813 6.01416C221.27 5.59146 221.723 5.05596 222.098 4.45996C222.206 4.28786 222.423 4.22246 222.603 4.31646L223.326 4.69306C223.512 4.79316 223.626 4.87886 223.626 4.96406C223.626 5.03616 223.512 5.04986 223.369 5.07846C223.283 5.09276 223.268 5.12136 223.054 5.37916C222.949 5.51056 222.274 6.34516 221.208 7.19126C221.05 7.31606 221.004 7.54316 221.117 7.70916C221.818 8.73946 222.733 9.47066 223.472 9.96656C223.66 10.0936 223.695 10.3542 223.549 10.5291L223.207 10.9403C223.073 11.1003 222.839 11.1278 222.675 10.9991L222.676 10.9975Z" fill="#00FFFF" style="mix-blend-mode:difference"/>
<path d="M248.628 10.4289V12.9469C248.628 13.1597 248.455 13.3317 248.243 13.3317H242.624C242.412 13.3317 242.24 13.1597 242.24 12.9469V12.1316C242.24 9.71584 243.844 8.50634 245.434 6.91634C245.987 6.36324 246.835 5.51654 246.835 4.56604C246.835 3.92664 246.713 2.99364 245.451 2.99364C244.051 2.99364 244.034 4.23774 244.034 4.73644V5.42534H242.274V4.73644C242.274 2.68624 243.241 1.23984 245.451 1.23984C247.559 1.23984 248.628 2.46304 248.628 4.56434C248.628 5.80634 248.059 6.73984 246.713 8.08954C245.646 9.15784 244.476 10.1116 244.165 11.0716C244.088 11.3096 244.289 11.5493 244.539 11.5493H246.553C246.766 11.5493 246.938 11.3773 246.938 11.1645V10.43C246.938 10.2172 247.11 10.0451 247.323 10.0451H248.243C248.455 10.0451 248.628 10.2172 248.628 10.43V10.4289Z" fill="#00FFFF" style="mix-blend-mode:difference"/>
<path d="M256.214 10.4289V12.9469C256.214 13.1597 256.042 13.3317 255.829 13.3317H250.211C249.998 13.3317 249.826 13.1597 249.826 12.9469V12.1316C249.826 9.71584 251.431 8.50634 253.02 6.91634C253.574 6.36324 254.421 5.51654 254.421 4.56604C254.421 3.92664 254.3 2.99364 253.038 2.99364C251.638 2.99364 251.621 4.23774 251.621 4.73644V5.42534H249.861V4.73644C249.861 2.68624 250.827 1.23984 253.038 1.23984C255.145 1.23984 256.214 2.46304 256.214 4.56434C256.214 5.80634 255.645 6.73984 254.3 8.08954C253.232 9.15784 252.062 10.1116 251.752 11.0716C251.675 11.3096 251.875 11.5493 252.125 11.5493H254.139C254.352 11.5493 254.524 11.3773 254.524 11.1645V10.43C254.524 10.2172 254.696 10.0451 254.909 10.0451H255.829C256.042 10.0451 256.214 10.2172 256.214 10.43V10.4289Z" fill="#00FFFF" style="mix-blend-mode:difference"/>
<path d="M259.854 12.5149C259.819 12.488 259.787 12.4539 259.761 12.4176C255.775 6.70196 259.691 0.833557 264.9 0.833557C268.616 0.833557 271.675 3.82056 271.675 7.60746C271.675 12.9641 265.475 16.8582 259.854 12.5149ZM264.9 1.33166C260.077 1.33166 256.408 6.81686 260.184 12.0965C260.209 12.1323 260.242 12.1652 260.276 12.1916C265.485 16.1622 271.177 12.5352 271.177 7.60746C271.177 4.10586 268.33 1.33166 264.901 1.33166H264.9ZM266.917 11.6814V11.1377H262.913V11.7386H262.041C261.829 11.7386 261.656 11.5665 261.656 11.3538V3.92006C261.656 3.70726 261.829 3.53526 262.041 3.53526H267.759C267.972 3.53526 268.144 3.70726 268.144 3.92006V11.2966C268.144 11.5093 267.972 11.6814 267.759 11.6814H266.917ZM266.532 4.69086H263.298C263.085 4.69086 262.913 4.86296 262.913 5.07576V6.32316C262.913 6.53596 263.085 6.70806 263.298 6.70806H266.532C266.745 6.70806 266.917 6.53596 266.917 6.32316V5.07576C266.917 4.86296 266.745 4.69086 266.532 4.69086ZM266.532 7.80706H263.298C263.085 7.80706 262.913 7.97916 262.913 8.19186V9.59656C262.913 9.80936 263.085 9.98146 263.298 9.98146H266.532C266.745 9.98146 266.917 9.80936 266.917 9.59656V8.19186C266.917 7.97916 266.745 7.80706 266.532 7.80706Z" fill="#00FFFF" style="mix-blend-mode:difference"/>
<path d="M228.609 7.43925H231.894C232.065 7.43925 232.262 7.31055 232.33 7.15335L232.425 6.93725C232.494 6.78005 232.595 6.78445 232.651 6.94605L233.113 8.28255C233.169 8.44475 233.255 8.44255 233.303 8.27815L234.113 5.53365C234.161 5.36925 234.219 5.37365 234.241 5.54355L234.792 9.74395C234.815 9.91385 234.868 9.91715 234.912 9.75165L235.737 6.59035C235.78 6.42435 235.851 6.42435 235.894 6.59035L236.041 7.15495C236.084 7.32105 236.26 7.45685 236.431 7.45685H240.12" fill="#00FFFF" style="mix-blend-mode:difference"/>
<path d="M228.609 7.43925H231.894C232.065 7.43925 232.262 7.31055 232.33 7.15335L232.425 6.93725C232.494 6.78005 232.595 6.78445 232.651 6.94605L233.113 8.28255C233.169 8.44475 233.255 8.44255 233.303 8.27815L234.113 5.53365C234.161 5.36925 234.219 5.37365 234.241 5.54355L234.792 9.74395C234.815 9.91385 234.868 9.91715 234.912 9.75165L235.737 6.59035C235.78 6.42435 235.851 6.42435 235.894 6.59035L236.041 7.15495C236.084 7.32105 236.26 7.45685 236.431 7.45685H240.12" fill="#00FFFF" style="mix-blend-mode:difference"/>
<path d="M228.609 7.43925H231.894C232.065 7.43925 232.262 7.31055 232.33 7.15335L232.425 6.93725C232.494 6.78005 232.595 6.78445 232.651 6.94605L233.113 8.28255C233.169 8.44475 233.255 8.44255 233.303 8.27815L234.113 5.53365C234.161 5.36925 234.219 5.37365 234.241 5.54355L234.792 9.74395C234.815 9.91385 234.868 9.91715 234.912 9.75165L235.737 6.59035C235.78 6.42435 235.851 6.42435 235.894 6.59035L236.041 7.15495C236.084 7.32105 236.26 7.45685 236.431 7.45685H240.12" stroke="#00FFFF" stroke-width="0.6" stroke-linejoin="bevel" style="mix-blend-mode:difference"/>
<path d="M148.913 13.5546C148.196 13.5546 147.706 13.3788 147.272 13.2036C146.527 12.891 146.225 12.7698 145.82 12.7698C145.432 12.7698 145.309 12.9378 145.264 13.125C145.233 13.2528 145.126 13.3428 145.001 13.3434L144.219 13.3488C144.06 13.35 143.93 13.2054 143.943 13.0374C144.079 11.283 144.726 10.6146 146.857 9.55925C147.8 9.09785 148.555 8.69225 148.555 7.69505C148.555 6.59645 147.489 6.28385 146.905 6.28385C145.858 6.28385 145.471 6.99305 145.358 7.19645C145.472 7.15085 145.622 7.13165 145.755 7.13165C145.981 7.13165 146.754 7.30745 146.754 8.08325C146.754 8.82905 146.103 9.16265 145.594 9.16265C144.972 9.16265 144.17 8.66405 144.17 7.69505C144.17 6.50525 145.282 5.10245 147.715 5.10245C150.148 5.10245 151.195 6.48545 151.195 7.84265C151.195 9.81725 149.29 10.3068 148.479 10.509C146.574 10.9902 146.055 11.1744 145.668 11.8008C146.027 11.6358 146.47 11.4234 147.234 11.4234C147.366 11.4234 147.772 11.4324 148.375 11.5794C148.97 11.727 149.271 11.7552 149.432 11.7552C150.042 11.7552 150.197 11.3334 150.233 10.9278C150.246 10.779 150.363 10.6668 150.504 10.6668H151.15C151.308 10.6668 151.431 10.8072 151.424 10.9746C151.376 12.1854 151.032 13.5546 148.913 13.5546Z" fill="#00FFFF" style="mix-blend-mode:difference"/>
<path d="M160.203 10.2697C159.839 12.2629 158.313 13.5541 156.279 13.5541C153.939 13.5541 152.271 11.8459 152.271 9.32705C152.271 7.12685 153.566 5.51705 155.487 5.17145C158.249 4.67525 160.734 7.35785 160.203 10.2697ZM156.279 6.14525C155.119 6.14525 154.836 7.90745 154.836 9.32765C154.836 10.7581 155.119 12.5119 156.279 12.5119C157.438 12.5119 157.73 10.7497 157.73 9.32765C157.74 7.90745 157.438 6.14525 156.279 6.14525Z" fill="#00FFFF" style="mix-blend-mode:difference"/>
<path d="M168.294 10.6668C168.452 10.6668 168.575 10.8072 168.568 10.9746C168.52 12.1848 168.176 13.5546 166.057 13.5546C165.34 13.5546 164.85 13.3788 164.416 13.2036C163.671 12.891 163.369 12.7698 162.964 12.7698C162.575 12.7698 162.453 12.9378 162.408 13.1256C162.376 13.2534 162.269 13.3428 162.145 13.344L161.363 13.3494C161.204 13.3506 161.074 13.2066 161.087 13.038C161.223 11.2836 161.87 10.6152 164.001 9.55985C164.944 9.09845 165.699 8.69285 165.699 7.69565C165.699 6.59705 164.633 6.28445 164.049 6.28445C163.002 6.28445 162.615 6.99365 162.502 7.19705C162.616 7.15145 162.766 7.13225 162.898 7.13225C163.124 7.13225 163.898 7.30805 163.898 8.08385C163.898 8.82965 163.247 9.16325 162.738 9.16325C162.115 9.16325 161.314 8.66465 161.314 7.69565C161.313 6.50525 162.426 5.10245 164.859 5.10245C167.292 5.10245 168.339 6.48545 168.339 7.84265C168.339 9.81725 166.434 10.3068 165.623 10.509C163.718 10.9902 163.199 11.1744 162.812 11.8008C163.171 11.6358 163.614 11.4234 164.378 11.4234C164.51 11.4234 164.916 11.4324 165.519 11.5794C166.114 11.727 166.415 11.7552 166.575 11.7552C167.186 11.7552 167.34 11.3334 167.376 10.9278C167.389 10.779 167.506 10.6668 167.647 10.6668H168.293H168.294Z" fill="#00FFFF" style="mix-blend-mode:difference"/>
<path d="M172.264 8.82065C172.264 8.65985 172.387 8.53205 172.54 8.53025C173.095 8.52365 174 8.39165 174 7.41785C174 6.44405 173.095 6.20825 172.425 6.20825C171.652 6.20825 171.425 6.39425 171.171 6.59645C171.84 6.68945 172.123 7.07765 172.123 7.52825C172.123 8.06345 171.746 8.60765 171.02 8.60765C170.294 8.60765 169.775 8.09165 169.775 7.31585C169.774 6.04325 171.312 5.10245 173.321 5.10245C174.396 5.10245 176.64 5.41505 176.64 7.21565C176.64 7.99865 176.205 8.45105 175.745 8.71625C175.515 8.84885 175.532 9.21065 175.773 9.32105C176.797 9.79145 176.942 10.6806 176.942 11.109C176.942 12.9276 174.933 13.554 173.207 13.554C171.245 13.554 169.501 12.741 169.501 11.2758C169.501 10.3806 170.18 9.86285 170.831 9.86285C171.482 9.86285 172.019 10.3614 172.019 10.9338C172.019 11.0532 172.019 11.7468 171.019 11.9766C171.397 12.2802 171.915 12.4104 172.406 12.4104C173.132 12.4104 174.16 12.0594 174.16 10.9902C174.16 9.82865 173.16 9.66785 172.526 9.64025C172.378 9.63365 172.264 9.50705 172.264 9.35045V8.82125V8.82065Z" fill="#00FFFF" style="mix-blend-mode:difference"/>
<path d="M28.8089 6.46926C28.0869 6.16266 27.4469 5.84536 26.6429 5.32546C26.4159 5.17896 26.1159 5.33836 26.1159 5.60876V6.01456C26.1159 6.20206 25.9639 6.35426 25.7759 6.35426H20.2389C20.0509 6.35426 19.8989 6.20236 19.8989 6.01456V5.91816C19.8989 5.64496 19.5929 5.48616 19.3669 5.63896C18.4459 6.26136 17.8169 6.56726 17.3609 6.77686C17.2309 6.83636 17.0799 6.80776 16.9789 6.70626L16.1859 5.90336C16.0219 5.73796 16.0679 5.46156 16.2779 5.36076C18.1829 4.44506 20.6929 2.82356 22.1939 0.125658C22.2269 0.0654582 22.2949 0.0329585 22.3629 0.0465585L23.5989 0.0437585C23.7119 0.0437585 23.7889 0.126258 23.8339 0.209758C24.1719 0.839358 25.2539 2.21536 26.5469 3.12916C27.8839 4.06256 29.0699 4.60136 29.8809 4.87206C30.1099 4.94866 30.1869 5.23096 30.0289 5.41436L29.1999 6.37856C29.1039 6.49046 28.9449 6.52796 28.8089 6.47026V6.46926ZM25.6839 13.1045H20.4549C20.3529 13.1045 20.1879 13.106 20.0859 13.106H18.9239C18.7369 13.106 18.5849 12.9542 18.5849 12.7664V7.77066C18.5849 7.58316 18.7369 7.43096 18.9239 7.43096H27.2769C27.4639 7.43096 27.6169 7.58286 27.6169 7.77066V12.7654C27.6169 12.9529 27.4649 13.1051 27.2769 13.1051H26.0529C25.9519 13.1051 25.7859 13.1045 25.6849 13.1045H25.6839ZM25.5289 8.94696H20.6099C20.4219 8.94696 20.2699 9.09886 20.2699 9.28666V11.1723C20.2699 11.3597 20.4219 11.5119 20.6099 11.5119H25.5289C25.7169 11.5119 25.8689 11.3601 25.8689 11.1723V9.28666C25.8689 9.09916 25.7169 8.94696 25.5289 8.94696ZM22.7769 2.43786C22.4869 2.84376 22.0689 3.37186 21.3479 4.06096C21.1259 4.27306 21.2729 4.64766 21.5799 4.64766H24.7209C25.0349 4.64766 25.1829 4.25756 24.9449 4.05306C24.4559 3.63276 23.9309 3.13236 23.3069 2.41486C23.1639 2.24976 22.9039 2.25956 22.7769 2.43786Z" fill="#00FFFF" style="mix-blend-mode:difference"/>
<path d="M38.8194 7.35194C38.6694 10.7005 37.3184 12.31 34.5574 13.595C34.4644 13.6382 34.3534 13.6215 34.2764 13.5531L33.1514 12.6629C33.0084 12.535 33.0524 12.3012 33.2314 12.2322C35.5664 11.3329 36.7574 10.2322 36.8974 7.37494C36.9064 7.18304 36.7494 7.02294 36.5574 7.02294H32.1954C32.0084 7.02294 31.8564 6.87074 31.8564 6.68324V5.64024C31.8564 5.45274 32.0084 5.30054 32.1954 5.30054H43.0224C43.2104 5.30054 43.3624 5.45244 43.3624 5.64024V6.68324C43.3624 6.87074 43.2104 7.02294 43.0224 7.02294H39.1574C38.9744 7.02294 38.8274 7.16944 38.8194 7.35194ZM33.9244 2.88404V1.76444C33.9244 1.57704 34.0765 1.42484 34.2645 1.42484H41.0764C41.2644 1.42484 41.4164 1.57664 41.4164 1.76444V2.88404C41.4164 3.07154 41.2644 3.22374 41.0764 3.22374H34.2645C34.0765 3.22374 33.9244 3.07184 33.9244 2.88404ZM43.2224 1.41784C43.5914 1.64854 43.9304 1.90624 44.2564 2.18644C44.3944 2.30424 44.4114 2.51164 44.2984 2.65334L44.0754 2.93604C43.9554 3.08694 43.7364 3.10624 43.5884 2.98294C43.2834 2.72834 42.9734 2.49234 42.6404 2.27874C42.4684 2.16814 42.4234 1.93654 42.5524 1.77774L42.7814 1.49604C42.8884 1.36434 43.0784 1.32834 43.2224 1.41784ZM44.1684 0.046237C44.5594 0.277237 44.8894 0.514437 45.2134 0.786737C45.3554 0.905537 45.3774 1.11534 45.2634 1.26004L45.0434 1.53734C44.9244 1.68724 44.7034 1.71064 44.5584 1.58584C44.2594 1.32874 43.9534 1.09084 43.6124 0.875537C43.4434 0.768437 43.4084 0.535937 43.5334 0.379637L43.7354 0.128138C43.8404 -0.00196244 44.0244 -0.0388625 44.1684 0.0459375V0.046237Z" fill="#00FFFF" style="mix-blend-mode:difference"/>
<path d="M55.2287 6.01835C55.0477 10.3741 54.0927 11.9023 51.3107 13.6209C51.2117 13.682 51.0817 13.6688 50.9977 13.5885L50.0067 12.704C49.8827 12.5861 49.9067 12.3819 50.0547 12.2962C52.4377 10.9145 53.3547 9.54025 53.4557 6.36745C53.4617 6.17685 53.3057 6.01835 53.1157 6.01835H51.0357C50.8487 6.01835 50.6967 6.17025 50.6967 6.35805V9.04615C50.6967 9.23365 50.5447 9.38585 50.3567 9.38585H49.1487C48.9607 9.38585 48.8087 9.23395 48.8087 9.04615V6.35805C48.8087 6.17055 48.6567 6.01835 48.4687 6.01835H46.2677C46.0807 6.01835 45.9287 5.86645 45.9287 5.67865V4.56225C45.9287 4.37475 46.0797 4.22255 46.2677 4.22255H48.4687C48.6567 4.22255 48.8087 4.07075 48.8087 3.88295V1.56785C48.8087 1.41505 48.9417 1.29595 49.0937 1.31265L50.4697 1.33875C50.8217 1.38475 50.6957 1.76225 50.6957 1.94595V3.88355C50.6957 4.07105 50.8477 4.22325 51.0357 4.22325H53.1237C53.3107 4.22325 53.4627 4.06975 53.4627 3.88295C53.4627 2.82855 53.4607 2.07295 53.4417 1.35425C53.4377 1.19575 53.5757 1.07185 53.7327 1.09335L55.0597 1.09075C55.3807 1.13675 55.2427 1.64255 55.2427 1.85675V3.88355C55.2427 4.07105 55.3947 4.22325 55.5827 4.22325H57.4627C57.6497 4.22325 57.8017 4.37515 57.8017 4.56295V5.67935C57.8017 5.86685 57.6497 6.01895 57.4627 6.01895H55.2287V6.01835ZM57.1217 1.41755C57.4917 1.64815 57.8297 1.90595 58.1567 2.18605C58.2947 2.30395 58.3117 2.51125 58.1987 2.65305L57.9747 2.93575C57.8557 3.08665 57.6357 3.10585 57.4887 2.98265C57.1837 2.72805 56.8737 2.49205 56.5407 2.27845C56.3677 2.16785 56.3237 1.93625 56.4527 1.77735L56.6807 1.49565C56.7877 1.36395 56.9787 1.32805 57.1217 1.41755ZM58.0687 0.0458532C58.4597 0.276853 58.7897 0.514153 59.1137 0.786353C59.2547 0.905153 59.2777 1.11505 59.1627 1.25965L58.9427 1.53695C58.8247 1.68695 58.6037 1.71025 58.4587 1.58545C58.1597 1.32835 57.8527 1.09045 57.5127 0.875253C57.3437 0.768153 57.3077 0.535553 57.4337 0.379253L57.6357 0.127853C57.7407 -0.00234704 57.9247 -0.0391472 58.0687 0.0455528V0.0458532Z" fill="#00FFFF" style="mix-blend-mode:difference"/>
<path d="M68.9632 2.91204C68.2332 3.74454 67.4892 4.56164 66.6262 5.25984C66.5472 5.32384 66.5002 5.41904 66.5002 5.52044V13.0634C66.5002 13.2509 66.3482 13.4031 66.1602 13.4031H64.8602C64.6722 13.4031 64.5202 13.2512 64.5202 13.0634V7.35404C64.5202 7.08494 64.2232 6.92334 63.9972 7.06894C63.1482 7.61494 62.2262 8.15754 60.8262 8.82334C60.7272 8.87064 60.6082 8.84954 60.5312 8.77104L59.5942 7.74794C59.4682 7.61904 59.5092 7.40224 59.6762 7.33264C62.6972 6.06654 65.8282 3.72254 68.0492 1.15414C68.1402 1.04824 68.2982 1.03434 68.4062 1.12354L69.4002 2.00264C69.5152 2.09534 69.5042 2.27364 69.4242 2.38744C69.3022 2.55944 69.1172 2.74694 68.9632 2.91204Z" fill="#00FFFF" style="mix-blend-mode:difference"/>
<path d="M75.2628 5.45024C74.5358 4.86914 72.7508 3.81234 71.7668 3.34974C71.6258 3.28324 71.5758 3.10874 71.6608 2.97794C71.6608 2.97794 72.2868 2.05314 72.3788 1.90654C72.4698 1.76004 72.5628 1.74434 72.6988 1.81174C73.5748 2.20624 75.5268 3.27694 76.3658 3.93864C76.4728 4.02284 76.4958 4.17434 76.4188 4.28654L75.6378 5.39444C75.5518 5.51864 75.3798 5.54474 75.2628 5.45054V5.45024ZM79.2578 9.32384C76.8938 11.2393 75.4498 11.8978 73.6138 12.6843C73.5288 12.7206 72.9718 13.0262 72.8378 12.7949L71.9528 11.319C71.8668 11.1715 71.9478 10.9903 72.1108 10.9406C73.4078 10.5464 75.2218 9.98704 77.4628 8.30634C79.5848 6.72484 80.9918 4.91744 81.7388 3.90744C81.8438 3.76574 82.0558 3.77014 82.1558 3.91504L83.1988 4.78224C83.2618 4.87324 83.2598 4.99334 83.1928 5.08154C82.5648 5.91844 81.1628 7.78014 79.2578 9.32384Z" fill="#00FFFF" style="mix-blend-mode:difference"/>
<path d="M105.68 10.8146V13.2362C105.68 13.4237 105.528 13.5759 105.34 13.5759H104.101C103.914 13.5759 103.762 13.424 103.762 13.2362V10.8146C103.762 10.6271 103.61 10.4749 103.422 10.4749H98.4249C98.2379 10.4749 98.0859 10.3231 98.0859 10.1353V8.99706C98.0859 8.80956 98.2379 8.65736 98.4249 8.65736H103.422C103.61 8.65736 103.762 8.50546 103.762 8.31766V7.41776C103.762 7.22906 103.925 7.08186 104.113 7.10176C104.238 7.11496 104.311 6.96366 104.221 6.87456L104.116 6.76926C103.975 6.62776 103.985 6.39466 104.14 6.26826C104.335 6.10886 104.561 5.89296 105.122 5.36296C105.342 5.14366 105.829 4.59126 106.344 3.77736C106.486 3.55276 106.321 3.25996 106.055 3.25996H102.993L103.002 3.11846C103.219 3.22686 102.741 4.09496 102.695 4.14136C102.674 4.16216 102.562 4.33606 102.477 4.47156C102.425 4.55536 102.447 4.66506 102.529 4.72076C102.902 4.97536 104.011 5.62796 104.636 5.94026C104.821 6.03286 104.879 6.26956 104.759 6.43876L103.989 7.52806C103.271 7.15526 102.197 6.51876 101.713 6.15926L101.247 6.22386C100.672 6.95836 100.22 7.43196 99.8089 7.84566C99.6969 7.95876 99.5219 7.97866 99.3869 7.89356L98.4679 7.31406C98.2719 7.19086 98.2569 6.91546 98.4329 6.76516C99.4229 5.91786 100.278 4.92056 100.841 3.75056C100.95 3.52376 100.786 3.25966 100.534 3.25966H99.1519C98.9649 3.25966 98.8129 3.10776 98.8129 2.91996V1.92366C98.8129 1.73616 98.9649 1.58396 99.1519 1.58396H103.499C103.687 1.58396 103.839 1.43206 103.839 1.24426V0.392861C103.839 0.287261 103.927 0.203161 104.033 0.208861H105.469C105.699 0.210461 105.741 0.414261 105.741 0.537761V1.24586C105.741 1.43336 105.893 1.58556 106.081 1.58556H110.428C110.615 1.58556 110.767 1.73736 110.767 1.92516V2.92156C110.767 3.10906 110.616 3.26126 110.428 3.26126H108.854C108.7 3.26126 108.401 3.89526 108.37 3.92646C108.352 3.94466 108.253 4.09786 108.162 4.23616C108.077 4.36536 108.09 4.53896 108.195 4.65276C109.128 5.66736 110.005 6.22666 110.704 6.58906C110.905 6.69276 110.953 6.95556 110.801 7.12126L110.081 7.90526C109.968 8.02746 109.781 8.05146 109.642 7.95946C108.573 7.24946 107.883 6.56356 107.35 5.95066C107.218 5.79906 106.984 5.79656 106.848 5.94466C106.498 6.32596 106.157 6.64106 105.819 6.96056C105.727 7.04846 105.628 7.07206 105.595 7.09956C105.565 7.12376 105.686 7.11686 105.686 7.20156C105.686 7.42026 105.679 7.71966 105.679 7.77726V8.31926C105.679 8.50676 105.831 8.65896 106.019 8.65896H111.108C111.296 8.65896 111.448 8.81086 111.448 8.99866V10.1368C111.448 10.3243 111.296 10.4765 111.108 10.4765H106.019C105.831 10.4765 105.679 10.6284 105.679 10.8162L105.68 10.8146Z" fill="#00FFFF" style="mix-blend-mode:difference"/>
<path d="M125.845 14.1763C125.794 14.2277 125.719 14.245 125.651 14.2201C125.144 14.0336 123.463 13.2733 122.215 12.2917C120.81 11.1857 120.142 10.0059 119.801 9.32314C119.744 9.20814 119.628 9.13694 119.499 9.13694H118.782C118.595 9.13694 118.444 9.28784 118.442 9.47444L118.431 11.3915C118.43 11.5966 118.608 11.756 118.811 11.7305C119.359 11.6612 120.123 11.5909 120.681 11.4895C120.896 11.4504 121.091 11.6205 121.08 11.8392L121.037 12.7297C121.03 12.8825 120.919 13.0133 120.769 13.0461C118.883 13.4601 117.82 13.4481 116.936 13.543C116.835 13.5619 116.692 13.5666 116.695 13.3571C116.699 13.0457 116.703 12.4288 116.698 12.1625C116.697 12.0951 116.699 11.9161 116.699 11.8487V9.47594C116.699 9.28854 116.547 9.13634 116.359 9.13634H115.74C115.572 9.13634 115.428 9.25824 115.405 9.42434C115.264 10.4244 114.944 11.7516 114.256 13.2276C114.184 13.3816 114.006 13.4588 113.843 13.4075L112.853 13.093C112.655 13.0303 112.559 12.8088 112.65 12.6226C112.854 12.2079 113.121 11.5928 113.354 10.6985C113.709 9.38394 113.941 7.80654 113.941 5.93544C113.941 4.46494 113.861 2.63194 113.774 0.987143C113.764 0.792643 113.919 0.631042 114.114 0.631042H125.463C125.651 0.631042 125.803 0.783243 125.803 0.970743V3.89514C125.803 4.08264 125.651 4.23484 125.463 4.23484H122.926C123.143 4.26574 123.189 4.40034 123.189 4.45924V4.99334C123.189 5.18084 123.341 5.33304 123.529 5.33304H125.371C125.558 5.33304 125.71 5.48484 125.71 5.67264V6.32334C125.71 6.51084 125.558 6.66304 125.371 6.66304H123.529C123.342 6.66304 123.189 6.81494 123.189 7.00274V7.42154C123.189 7.60904 123.341 7.76114 123.529 7.76114H125.804C125.991 7.76114 126.144 7.91304 126.144 8.10084V8.79824C126.144 8.98564 125.992 9.13784 125.804 9.13784H124.938C124.769 9.13784 124.689 9.34614 124.814 9.45924L125.244 9.86734C125.338 9.94864 125.254 10.0598 125.151 10.1389C124.948 10.3059 124.451 10.7096 124.03 11.0741C123.814 11.2623 123.849 11.5128 124.108 11.6375C124.834 11.9883 126.153 12.4231 126.8 12.5744C126.94 12.6071 126.991 12.7804 126.89 12.8828L125.845 14.177V14.1763ZM117.268 6.66274H116.354C116.166 6.66274 116.014 6.51084 116.014 6.32304V5.67234C116.014 5.48484 116.166 5.33264 116.354 5.33264H117.268C117.455 5.33264 117.607 5.18084 117.607 4.99304V4.57394C117.607 4.38644 117.456 4.23424 117.268 4.23424H115.936C115.749 4.23424 115.597 4.38614 115.597 4.57394V5.99724C115.597 6.28304 115.597 6.80864 115.578 7.40954C115.572 7.60114 115.726 7.76024 115.917 7.76024H117.268C117.455 7.76024 117.607 7.60834 117.607 7.42054V7.00184C117.607 6.81434 117.456 6.66214 117.268 6.66214V6.66274ZM123.747 1.97684H115.936C115.749 1.97684 115.597 2.12874 115.597 2.31654V2.54974C115.597 2.73714 115.749 2.88934 115.936 2.88934H123.747C123.935 2.88934 124.087 2.73754 124.087 2.54974V2.31654C124.087 2.12904 123.935 1.97684 123.747 1.97684ZM121.458 4.57424C121.458 4.38674 121.306 4.23454 121.118 4.23454H119.139C119.348 4.27964 119.308 4.46834 119.308 4.52544V4.99304C119.308 5.18054 119.46 5.33264 119.648 5.33264H121.118C121.306 5.33264 121.458 5.18084 121.458 4.99304V4.57394V4.57424ZM121.118 6.66274H119.648C119.46 6.66274 119.308 6.81464 119.308 7.00244V7.42124C119.308 7.60864 119.46 7.76084 119.648 7.76084H121.118C121.306 7.76084 121.458 7.60904 121.458 7.42124V7.00244C121.458 6.81494 121.306 6.66274 121.118 6.66274ZM121.814 9.67354C121.996 9.92654 122.166 10.1131 122.308 10.253C122.429 10.3711 122.621 10.3834 122.752 10.2769C122.983 10.0888 123.18 9.89754 123.359 9.70124C123.555 9.48514 123.396 9.13724 123.103 9.13724H122.092C121.817 9.13724 121.653 9.45044 121.814 9.67354Z" fill="#00FFFF" style="mix-blend-mode:difference"/>
<path d="M95.103 10.5225C94.164 11.9124 92.899 12.537 92.106 12.8716C91.96 12.9334 91.792 12.8845 91.7 12.7556L91.102 11.9238C90.969 11.7375 91.053 11.4766 91.27 11.4045C91.879 11.2031 92.663 10.8515 93.334 10.0486C94.183 9.04556 94.337 7.88916 94.337 7.27626C94.337 6.50996 94.114 5.57656 93.334 4.83836C92.618 4.15676 91.838 3.99386 91.295 3.93426C91.112 3.91416 90.947 4.04426 90.92 4.22666C90.466 7.34716 89.683 9.20126 89.238 10.104C88.82 10.9677 88.179 12.138 87.455 12.138C86.953 12.138 84.668 10.8842 84.668 8.39046C84.668 5.29776 87.218 2.48386 90.812 2.48386C93.71 2.48386 95.994 4.44826 95.994 7.55486C95.994 8.78056 95.618 9.75586 95.103 10.5222V10.5225ZM87.608 5.15906C86.619 6.10626 86.215 7.40196 86.215 8.25186C86.215 9.38026 86.856 9.96536 87.107 9.96536C87.769 9.96536 88.828 6.92246 89.217 4.74036C89.265 4.47406 88.992 4.26046 88.746 4.37226C88.41 4.52546 88.017 4.75896 87.608 5.15906Z" fill="#00FFFF" style="mix-blend-mode:difference"/>
<path d="M2.96943 8.46546C2.89443 9.74666 2.75443 10.923 2.56843 11.7747C2.52943 11.9518 2.35943 12.0659 2.18043 12.0363L1.37143 11.9014C1.17643 11.869 1.05143 11.6805 1.09743 11.4889C1.22943 10.9413 1.40343 10.0644 1.53843 8.43116C1.55443 8.24086 1.72244 8.09966 1.91144 8.11946L2.75644 8.20706C2.80244 8.20706 2.98144 8.25526 2.96844 8.46576L2.96943 8.46546ZM5.45044 7.64146C5.43244 7.53246 5.41643 7.45026 5.40143 7.37936C5.38443 7.29766 5.30843 7.24386 5.22543 7.25386C5.17243 7.26026 5.12543 7.26396 5.07043 7.26806C4.98643 7.27406 4.92143 7.34376 4.92143 7.42726V13.2333C4.92143 13.4208 4.76943 13.573 4.58243 13.573H3.54443C3.35743 13.573 3.20543 13.4212 3.20543 13.2333V7.64216C3.20543 7.53686 3.11743 7.45276 3.01143 7.45806C2.66543 7.47476 1.91043 7.50066 1.61343 7.52646C1.42843 7.54196 1.33443 7.54196 1.31843 7.35636L1.21143 6.29256C1.21143 6.13746 1.25544 6.05966 1.36944 5.94626C1.72144 5.59456 2.28243 4.95176 2.57243 4.57776C2.68243 4.43596 2.65844 4.22356 2.51944 4.11016C2.29044 3.92266 2.09843 3.79876 1.37643 3.20676C1.30143 3.14556 1.28544 3.03786 1.34044 2.95876C1.34044 2.95876 2.96043 1.03916 3.47143 0.232761C3.56843 0.0799607 3.76544 0.0282603 3.92344 0.11586L4.79043 0.596361C4.91443 0.671361 4.83543 0.78866 4.72443 0.94746C4.22643 1.69356 3.99544 1.91066 3.44944 2.65786C3.39844 2.72686 3.41044 2.82386 3.46844 2.88596C3.50644 2.92596 3.66144 3.02176 3.68644 3.04856C3.76944 3.13516 3.89743 3.11066 3.97543 3.01956C4.55243 2.34116 4.75743 1.95606 4.98643 1.62936C5.04543 1.54426 5.14843 1.50296 5.23843 1.55336L6.23743 2.21536C6.43843 2.32376 6.11344 2.58656 6.03544 2.69466C5.74244 3.12736 4.34943 4.75826 3.53243 5.75246C3.43343 5.87186 3.46344 6.02186 3.61744 6.01776C3.83144 6.01176 4.64344 5.95886 4.85244 5.94686C4.96844 5.94026 5.05044 5.82746 5.02044 5.71496C4.95144 5.45376 4.83344 5.01356 4.75744 4.77976C4.72444 4.67666 4.78543 4.56666 4.89043 4.54276L5.82844 4.32876C5.99444 4.29096 6.16443 4.37926 6.22243 4.53866C6.51443 5.33586 6.74743 6.24616 6.90743 7.07336C6.94043 7.24356 6.83743 7.40956 6.67143 7.45966L5.74244 7.74016C5.56144 7.79496 5.46644 7.73536 5.45044 7.64116V7.64146ZM5.53043 10.9977C5.32143 9.94806 5.28243 9.08906 5.29043 8.42106C5.29143 8.33216 5.35543 8.25786 5.44343 8.24266C5.66943 8.20426 6.26043 8.13146 6.51643 8.08766C6.62743 8.06876 6.72744 8.15326 6.73044 8.26566C6.75544 9.10416 6.85243 9.84086 7.04043 10.6467C7.06243 10.7431 7.00644 10.8411 6.91044 10.8672L5.76143 11.1389C5.65843 11.1672 5.55143 11.102 5.53143 10.9974L5.53043 10.9977ZM9.98244 8.32206C9.98744 12.3019 8.94843 12.8329 7.15343 13.5639C7.03443 13.6127 6.89444 13.59 6.79744 13.504L5.88544 12.6936C5.69144 12.5215 5.75443 12.2052 5.99943 12.1188C7.59443 11.5551 8.27444 11.1152 8.15944 8.01076C8.15544 7.91756 8.23344 7.84066 8.32644 7.84536L9.68443 7.84846C10.0244 7.86396 9.99044 8.03126 9.98144 8.32176L9.98244 8.32206ZM13.2694 7.74486C13.1884 7.60646 13.1044 7.47166 13.0144 7.33556C12.9494 7.23756 12.8394 7.18046 12.7224 7.18396C11.5274 7.22086 7.82144 7.25076 7.39444 7.29646C7.36944 7.29896 7.13244 7.34656 7.11744 7.17636L6.95344 5.94246C6.93844 5.82866 7.06843 5.72506 7.17843 5.63426C7.83043 5.09826 8.36043 4.49546 8.76543 4.03926C8.95943 3.81996 8.80344 3.47486 8.51044 3.47486H7.05443C6.86743 3.47486 6.71544 3.32296 6.71544 3.13516V2.29896C6.71544 2.11146 6.86643 1.95926 7.05443 1.95926H9.22143C9.40843 1.95926 9.56043 1.80736 9.56043 1.61956V0.301461C9.56043 0.210361 9.63644 0.137961 9.72744 0.142061H11.2464C11.4784 0.156561 11.4314 0.44386 11.4314 0.49026V1.61956C11.4314 1.80706 11.5834 1.95926 11.7714 1.95926H14.2784C14.4654 1.95926 14.6174 2.11106 14.6174 2.29896V3.13516C14.6174 3.32266 14.4654 3.47486 14.2784 3.47486H11.5384C11.4684 3.47486 11.3874 3.47016 11.2404 3.61446C10.9244 3.92426 10.4404 4.50116 10.0504 4.96026C9.78744 5.26966 9.90543 5.51926 10.3104 5.51896C10.6724 5.51896 11.0384 5.52336 11.3024 5.49786C11.4494 5.48366 11.5194 5.31066 11.4264 5.19656C11.3314 5.08066 11.3464 5.10646 11.2474 4.99056C11.1864 4.91996 11.1974 4.81346 11.2724 4.75826L12.4724 4.09466C12.5364 4.04746 12.6264 4.05496 12.6824 4.11236C13.3804 4.83576 14.0954 5.69726 14.7734 6.79386C14.8704 6.95016 14.8224 7.15746 14.6684 7.25766L13.7464 7.85636C13.5844 7.96136 13.3684 7.91056 13.2704 7.74486H13.2694ZM13.2574 13.5116H11.7414C10.8604 13.5116 10.5664 12.8776 10.5664 12.4135V7.94306C10.5664 7.85166 10.6424 7.77916 10.7334 7.78396L12.0814 7.76726C12.2824 7.78266 12.2674 7.92976 12.2674 7.97616V11.2851C12.2674 11.4861 12.3594 11.7643 12.7464 11.7643C13.1244 11.7643 13.2434 11.6348 13.3904 10.6977C13.4264 10.4705 13.6734 10.3426 13.8784 10.4463L14.6914 10.8572C14.8154 10.9195 14.8894 11.0525 14.8774 11.1902C14.7414 12.738 14.4074 13.5119 13.2564 13.5119L13.2574 13.5116Z" fill="#00FFFF" style="mix-blend-mode:difference"/>
<path d="M82.9045 15.3629H7.69447C7.50747 15.3629 7.35547 15.515 7.35547 15.7026V15.9326C7.35547 16.1202 7.50747 16.2723 7.69447 16.2723H82.9045C83.0925 16.2723 83.2445 16.1202 83.2445 15.9326V15.7026C83.2445 15.515 83.0925 15.3629 82.9045 15.3629Z" fill="#00FFFF" style="mix-blend-mode:difference"/>
<path d="M5.73538 15.3629H1.28238C1.09438 15.3629 0.942383 15.515 0.942383 15.7026V15.9326C0.942383 16.1202 1.09438 16.2723 1.28238 16.2723H5.73538C5.92338 16.2723 6.07539 16.1202 6.07539 15.9326V15.7026C6.07539 15.515 5.92338 15.3629 5.73538 15.3629Z" fill="#00FFFF" style="mix-blend-mode:difference"/>
</svg>
