<svg width="38" height="31" viewBox="0 0 38 31" fill="none" xmlns="http://www.w3.org/2000/svg">
<path d="M9.77623 16.9999L9.77623 15.1759L3.29623 15.1759L3.29623 5.31995L1.13623 5.31995L1.13623 16.9999L9.77623 16.9999Z" fill="#00FFFF" style="mix-blend-mode:difference"/>
<path d="M13.2304 16.9999L13.2304 5.31995L11.0704 5.31995L11.0704 16.9999L13.2304 16.9999Z" fill="#00FFFF" style="mix-blend-mode:difference"/>
<path d="M25.115 17L25.115 5.31995L23.035 5.31995L23.035 12.0719L23.259 14.68L22.379 12.76L17.771 5.31995L15.467 5.31995L15.467 16.9999L17.547 16.9999L17.547 10.2479L17.323 7.63995L18.203 9.55995L22.811 17L25.115 17Z" fill="#00FFFF" style="mix-blend-mode:difference"/>
<path d="M36.6156 17L36.6156 15.176L29.6716 15.176L29.6716 11.72L35.8476 11.72L35.8476 10.04L29.6716 10.04L29.6716 7.14395L36.3596 7.14395L36.3596 5.31995L27.5276 5.31995L27.5276 17L36.6156 17Z" fill="#00FFFF" style="mix-blend-mode:difference"/>
<path d="M0 30L38 30" stroke="#00FFFF" stroke-width="1.5" style="mix-blend-mode:difference"/>
</svg>
