<svg width="400" height="27" viewBox="0 0 400 27" fill="none" xmlns="http://www.w3.org/2000/svg">
<path d="M12.178 19.6078V19.4175H13.9038V19.5209C13.9038 20.2648 14.0072 21.2329 15.2827 21.2329C16.4372 21.2329 16.6775 20.3687 16.6775 19.3829V18.2207C16.6775 17.9414 16.3883 17.7495 16.1365 17.8699C15.8732 17.9963 15.5224 18.103 15.0925 18.103C12.8515 18.103 12.0576 16.4493 12.0576 14.3562C12.0576 12.7987 12.6783 10.5935 15.2651 10.5935C17.8518 10.5935 18.4725 12.7987 18.4725 14.3562V19.3829C18.4725 21.3187 17.6962 22.9224 15.2821 22.9224C12.9543 22.9224 12.178 21.5089 12.178 19.6072V19.6078ZM13.8692 14.3568C13.8692 15.8621 14.403 16.3816 15.2651 16.3816C16.1271 16.3816 16.6599 15.8626 16.6599 14.3568C16.6599 12.8509 16.126 12.3314 15.2651 12.3314C14.4041 12.3314 13.8692 12.8504 13.8692 14.3568Z" fill="#00FFFF" style="mix-blend-mode:difference"/>
<path d="M21.6592 13.2561H23.0271C23.2399 13.2561 23.412 13.4282 23.412 13.6409V15.0088C23.412 15.2216 23.2399 15.3936 23.0271 15.3936H21.6592C21.4465 15.3936 21.2744 15.2216 21.2744 15.0088V13.6409C21.2744 13.4282 21.4465 13.2561 21.6592 13.2561ZM23.4125 18.506V19.8739C23.4125 20.0866 23.2404 20.2587 23.0277 20.2587H21.6598C21.447 20.2587 21.275 20.0866 21.275 19.8739V18.506C21.275 18.2932 21.447 18.1211 21.6598 18.1211H23.0277C23.2404 18.1211 23.4125 18.2932 23.4125 18.506Z" fill="#00FFFF" style="mix-blend-mode:difference"/>
<path d="M32.4749 14.0955V19.4191C32.4749 21.4753 31.443 22.9218 29.3049 22.9218C27.1668 22.9218 26.1348 21.4753 26.1348 19.4191V14.0955C26.1348 12.0399 27.1668 10.5928 29.3049 10.5928C31.443 10.5928 32.4749 12.0399 32.4749 14.0955ZM27.8727 14.0955V16.149C27.8727 16.5162 28.3378 16.6746 28.5621 16.3843L30.631 13.7096C30.6887 13.6348 30.7228 13.5419 30.7118 13.4479C30.6502 12.9212 30.2516 12.3148 29.3049 12.3148C27.9068 12.3148 27.8727 13.5936 27.8727 14.095V14.0955ZM30.7376 19.4191V17.3843C30.7376 17.0171 30.2725 16.8582 30.0482 17.149L27.9964 19.8056C27.9392 19.8798 27.9051 19.9722 27.9156 20.0656C27.9744 20.5923 28.3576 21.1999 29.3054 21.1999C30.7035 21.1999 30.7376 19.921 30.7376 19.4196V19.4191Z" fill="#00FFFF" style="mix-blend-mode:difference"/>
<path d="M40.0619 14.0955V19.4191C40.0619 21.4753 39.0288 22.9218 36.8907 22.9218C34.7526 22.9218 33.7207 21.4753 33.7207 19.4191V14.0955C33.7207 12.0399 34.7526 10.5928 36.8907 10.5928C39.0288 10.5928 40.0619 12.0399 40.0619 14.0955ZM35.4585 14.0955V16.149C35.4585 16.5162 35.9231 16.6746 36.148 16.3843L38.2179 13.7096C38.2756 13.6348 38.3097 13.5419 38.2987 13.4479C38.2372 12.9212 37.838 12.3148 36.8907 12.3148C35.4926 12.3148 35.4585 13.5936 35.4585 14.095V14.0955ZM38.3246 19.4191V17.3838C38.3246 17.0165 37.8594 16.8576 37.6351 17.1485L35.5822 19.805C35.525 19.8793 35.491 19.9722 35.5014 20.0651C35.5602 20.5918 35.9446 21.1993 36.8913 21.1993C38.2894 21.1993 38.3246 19.9205 38.3246 19.4191Z" fill="#00FFFF" style="mix-blend-mode:difference"/>
<path d="M57.0342 20.9035H58.4956C58.7083 20.9035 58.8804 20.7314 58.8804 20.5187V14.3918C58.8804 14.1791 58.7083 14.007 58.4956 14.007H57.0342C56.8214 14.007 56.6494 13.8349 56.6494 13.6221V12.991C56.6494 12.7969 56.794 12.6298 56.9869 12.6105C57.9117 12.5209 58.6616 12.0498 58.8436 11.1212C58.8777 10.9463 59.0382 10.8237 59.2163 10.8237H60.3863C60.599 10.8237 60.7711 10.9958 60.7711 11.2086V20.5187C60.7711 20.7314 60.9432 20.9035 61.156 20.9035H62.6102C62.8229 20.9035 62.995 21.0756 62.995 21.2884V22.3022C62.995 22.5149 62.8229 22.687 62.6102 22.687H57.0348C56.822 22.687 56.6499 22.5149 56.6499 22.3022V21.2884C56.6499 21.0756 56.822 20.9035 57.0348 20.9035H57.0342Z" fill="#00FFFF" style="mix-blend-mode:difference"/>
<path d="M70.4539 11.2074V12.4043C70.4539 12.4746 70.4341 12.5428 70.3973 12.6027C69.0052 14.8426 67.937 17.4343 67.9722 20.6192C67.9744 20.8297 68.1509 21.0018 68.362 21.0018H68.7419C68.9546 21.0018 69.1267 21.1739 69.1267 21.3867V22.3065C69.1267 22.5192 68.9546 22.6913 68.7419 22.6913H65.3123C65.0995 22.6913 64.9275 22.5192 64.9275 22.3065V21.3867C64.9275 21.1739 65.0995 21.0018 65.3123 21.0018H65.7774C65.9913 21.0018 66.1645 20.8297 66.1612 20.6159C66.1348 18.9885 66.5361 16.2676 68.2817 13.0871C68.4236 12.8282 68.2432 12.5115 67.948 12.5115H66.1403C65.9275 12.5115 65.7555 12.6836 65.7555 12.8963V13.7128C65.7555 13.9255 65.5834 14.0976 65.3706 14.0976H64.4503C64.2375 14.0976 64.0654 13.9255 64.0654 13.7128V11.2074C64.0654 10.9946 64.2375 10.8225 64.4503 10.8225H70.0696C70.2824 10.8225 70.4545 10.9946 70.4545 11.2074H70.4539Z" fill="#00FFFF" style="mix-blend-mode:difference"/>
<path d="M73.5294 13.2561H74.8972C75.11 13.2561 75.2821 13.4282 75.2821 13.6409V15.0088C75.2821 15.2216 75.11 15.3936 74.8972 15.3936H73.5294C73.3166 15.3936 73.1445 15.2216 73.1445 15.0088V13.6409C73.1445 13.4282 73.3166 13.2561 73.5294 13.2561ZM75.2826 18.506V19.8739C75.2826 20.0866 75.1106 20.2587 74.8978 20.2587H73.5299C73.3172 20.2587 73.1451 20.0866 73.1451 19.8739V18.506C73.1451 18.2932 73.3172 18.1211 73.5299 18.1211H74.8978C75.1106 18.1211 75.2826 18.2932 75.2826 18.506Z" fill="#00FFFF" style="mix-blend-mode:difference"/>
<path d="M84.345 14.0955V19.4191C84.345 21.4753 83.3131 22.9218 81.175 22.9218C79.0368 22.9218 78.0049 21.4753 78.0049 19.4191V14.0955C78.0049 12.0399 79.0368 10.5928 81.175 10.5928C83.3131 10.5928 84.345 12.0399 84.345 14.0955ZM79.7427 14.0955V16.149C79.7427 16.5162 80.2079 16.6746 80.4322 16.3843L82.501 13.7096C82.5588 13.6348 82.5928 13.5419 82.5818 13.4479C82.5203 12.9212 82.1217 12.3148 81.175 12.3148C79.7768 12.3148 79.7427 13.5936 79.7427 14.095V14.0955ZM82.6077 19.4191V17.3843C82.6077 17.0171 82.1426 16.8582 81.9183 17.149L79.8665 19.8056C79.8093 19.8798 79.7752 19.9722 79.7856 20.0656C79.8445 20.5923 80.2277 21.1999 81.1755 21.1999C82.5736 21.1999 82.6077 19.921 82.6077 19.4196V19.4191Z" fill="#00FFFF" style="mix-blend-mode:difference"/>
<path d="M91.931 14.0955V19.4191C91.931 21.4753 90.8979 22.9218 88.7598 22.9218C86.6217 22.9218 85.5898 21.4753 85.5898 19.4191V14.0955C85.5898 12.0399 86.6217 10.5928 88.7598 10.5928C90.8979 10.5928 91.931 12.0399 91.931 14.0955ZM87.3276 14.0955V16.149C87.3276 16.5162 87.7923 16.6746 88.0172 16.3843L90.087 13.7096C90.1447 13.6348 90.1788 13.5419 90.1678 13.4479C90.1062 12.9212 89.7071 12.3148 88.7598 12.3148C87.3617 12.3148 87.3276 13.5936 87.3276 14.095V14.0955ZM90.1937 19.4191V17.3838C90.1937 17.0165 89.7286 16.8576 89.5042 17.1485L87.4513 19.805C87.3942 19.8793 87.36 19.9722 87.3705 20.0651C87.4293 20.5918 87.8136 21.1993 88.7604 21.1993C90.1585 21.1993 90.1937 19.9205 90.1937 19.4191Z" fill="#00FFFF" style="mix-blend-mode:difference"/>
<path d="M106.001 22.4604V21.5219C106.001 21.3091 106.173 21.137 106.385 21.137H110.973C111.186 21.137 111.358 20.9649 111.358 20.7522V10.5322C111.358 10.3073 111.55 10.1303 111.774 10.1485L113.436 10.2837C113.529 10.2837 113.667 10.3299 113.667 10.453C113.667 10.5762 113.575 10.6229 113.497 10.6691C113.405 10.7153 113.267 10.7769 113.267 10.8538V14.2405C113.267 14.4533 113.439 14.6254 113.651 14.6254H117.869C118.082 14.6254 118.254 14.7974 118.254 15.0102V16.0262C118.254 16.239 118.082 16.4111 117.869 16.4111H113.651C113.439 16.4111 113.267 16.5832 113.267 16.7959V20.7516C113.267 20.9644 113.439 21.1365 113.651 21.1365H118.87C119.083 21.1365 119.255 21.3086 119.255 21.5213V22.4598C119.255 22.6726 119.083 22.8447 118.87 22.8447H106.385C106.172 22.8447 106 22.6726 106 22.4598L106.001 22.4604Z" fill="#00FFFF" style="mix-blend-mode:difference"/>
<path d="M124.242 22.1052C123.997 22.1514 122.765 22.3515 122.473 22.3977C122.257 22.429 121.764 22.5214 121.672 22.6286C121.518 22.7825 121.472 22.8287 121.38 22.8287C121.302 22.8287 121.195 22.7979 121.179 22.7055L120.904 21.4416C120.854 21.2145 121.02 20.9952 121.251 20.9759C122.112 20.9033 122.516 20.8572 123.208 20.7752C123.402 20.7522 123.55 20.5878 123.55 20.3926V19.5954C123.55 19.3826 123.378 19.2106 123.165 19.2106H121.688C121.475 19.2106 121.303 19.0385 121.303 18.8257V18.2737C121.303 18.061 121.475 17.8889 121.688 17.8889H123.165C123.378 17.8889 123.55 17.7168 123.55 17.504V17.1478C123.55 16.935 123.378 16.7629 123.165 16.7629H121.688C121.475 16.7629 121.303 16.5908 121.303 16.3781V10.9627C121.303 10.7499 121.475 10.5778 121.688 10.5778H126.86C127.073 10.5778 127.245 10.7499 127.245 10.9627V16.3792C127.245 16.5919 127.073 16.764 126.86 16.764H125.305C125.092 16.764 124.92 16.9361 124.92 17.1489V17.5051C124.92 17.7179 125.092 17.89 125.305 17.89H126.86C127.073 17.89 127.245 18.0621 127.245 18.2748V18.8268C127.245 19.0396 127.073 19.2117 126.86 19.2117H125.305C125.092 19.2117 124.92 19.3837 124.92 19.5965V20.1051C124.92 20.3409 125.133 20.5207 125.366 20.4855C126.095 20.3756 126.584 20.2903 126.956 20.2172C127.194 20.1705 127.415 20.3519 127.415 20.5949V21.1628C127.415 21.3448 127.286 21.5037 127.108 21.5416C126.15 21.7456 125.202 21.9259 124.242 22.1057V22.1052ZM123.165 11.8995H123.072C122.86 11.8995 122.688 12.0716 122.688 12.2844V12.5939C122.688 12.8067 122.86 12.9787 123.072 12.9787H123.165C123.378 12.9787 123.55 12.8067 123.55 12.5939V12.2844C123.55 12.0716 123.378 11.8995 123.165 11.8995ZM123.165 14.3164H123.072C122.86 14.3164 122.688 14.4884 122.688 14.7012V15.0415C122.688 15.2543 122.86 15.4264 123.072 15.4264H123.165C123.378 15.4264 123.55 15.2543 123.55 15.0415V14.7012C123.55 14.4884 123.378 14.3164 123.165 14.3164ZM125.474 11.8995H125.305C125.092 11.8995 124.92 12.0716 124.92 12.2844V12.5939C124.92 12.8067 125.092 12.9787 125.305 12.9787H125.474C125.687 12.9787 125.859 12.8067 125.859 12.5939V12.2844C125.859 12.0716 125.687 11.8995 125.474 11.8995ZM125.474 14.3164H125.305C125.092 14.3164 124.92 14.4884 124.92 14.7012V15.0415C124.92 15.2543 125.092 15.4264 125.305 15.4264H125.474C125.687 15.4264 125.859 15.2543 125.859 15.0415V14.7012C125.859 14.4884 125.687 14.3164 125.474 14.3164ZM132.553 19.3046L132.097 19.1006C131.842 18.9868 131.555 19.1732 131.555 19.4519V21.7682C131.555 22.827 131.162 23.1696 129.437 23.2784C129.286 23.2878 129.139 23.2053 129.069 23.0695L128.383 21.7374H129.292C129.691 21.7374 129.876 21.6296 129.876 21.2448V17.1494C129.876 16.9366 129.703 16.7646 129.491 16.7646H128.198C127.985 16.7646 127.813 16.5925 127.813 16.3797V15.6892C127.813 15.4764 127.985 15.3043 128.198 15.3043H129.887C130.275 15.3043 130.423 14.793 130.09 14.5918C129.784 14.4065 129.406 14.1998 128.926 13.97C128.725 13.8738 128.65 13.6247 128.761 13.4318L129.085 12.8704C129.179 12.7082 129.379 12.6379 129.554 12.7022C129.828 12.8023 130.03 12.8908 130.263 12.9974C130.403 13.0618 130.569 13.0359 130.683 12.9331C130.801 12.8275 130.914 12.722 131.03 12.6071C131.272 12.3646 131.1 11.9484 130.757 11.9484H128.49C128.277 11.9484 128.105 11.7764 128.105 11.5636V10.917C128.105 10.7043 128.277 10.5322 128.49 10.5322H133.575C133.689 10.5322 133.797 10.5822 133.87 10.6696L134.108 10.9533C134.232 11.1012 134.229 11.3156 134.1 11.4586C133.642 11.9633 132.982 12.6582 132.093 13.4543C131.909 13.6198 131.925 13.9123 132.126 14.058C132.309 14.191 132.452 14.3059 132.575 14.4115C132.723 14.5396 132.754 14.7567 132.644 14.9195L132.384 15.3054H133.856C133.967 15.3054 134.073 15.3533 134.146 15.4368L134.499 15.8415C134.599 15.9553 134.625 16.1131 134.562 16.25C134.21 17.0235 133.722 18.0285 133.04 19.1528C132.939 19.3183 132.727 19.3848 132.55 19.3057L132.553 19.3046ZM131.939 16.764C131.727 16.764 131.555 16.9361 131.555 17.1489V18.6729C131.986 18.1011 132.22 17.7333 132.434 17.3264C132.567 17.0708 132.38 16.764 132.092 16.764H131.939Z" fill="#00FFFF" style="mix-blend-mode:difference"/>
<path d="M143.074 19.1602C142.879 19.1811 142.731 19.3466 142.731 19.5428V20.7678C142.731 21.5529 142.915 21.7216 143.669 21.7216H145.87C146.949 21.7216 147.255 21.4 147.419 20.389C147.46 20.1306 147.736 19.9821 147.97 20.0987L148.843 20.5308C148.997 20.6072 149.083 20.7799 149.05 20.9486C148.658 22.9576 147.995 23.3226 146.671 23.3226H142.714C141.438 23.3226 140.898 22.5996 140.898 21.4138V19.826C140.898 19.5973 140.7 19.4186 140.472 19.4433L136.417 19.8799C136.206 19.9024 136.016 19.7496 135.994 19.5379L135.905 18.7017C135.883 18.4911 136.035 18.3014 136.246 18.2783L140.556 17.8039C140.751 17.7824 140.899 17.6175 140.899 17.4212V16.4234C140.899 16.1946 140.701 16.0165 140.474 16.0407L136.646 16.4481C136.436 16.4706 136.246 16.3194 136.222 16.1094L136.126 15.2738C136.101 15.061 136.255 14.8691 136.468 14.8466L140.555 14.4155C140.751 14.3946 140.9 14.2297 140.9 14.0329V13.0895C140.9 12.8585 140.696 12.6804 140.467 12.7074C139.599 12.8107 139.212 12.8464 137.422 13.0026C137.273 13.0158 137.126 12.9416 137.051 12.8124L136.221 11.3769C136.775 11.4077 136.989 11.4077 137.237 11.4077C138.53 11.4077 142.496 11.1872 145.75 9.84348C145.891 9.78518 146.051 9.81438 146.161 9.92098L147.15 10.8843C147.288 11.0228 147.473 11.2075 147.473 11.3461C147.473 11.4698 147.381 11.5314 147.274 11.5314C147.136 11.5314 146.958 11.4604 146.781 11.3923C146.701 11.3615 146.609 11.3615 146.527 11.3868C145.163 11.8156 144.293 12.0284 143.047 12.2708C142.866 12.306 142.732 12.4643 142.732 12.6491V13.7668C142.732 13.9955 142.93 14.1736 143.158 14.1494L147.892 13.6497C148.103 13.6271 148.293 13.7805 148.315 13.9917L148.403 14.8125C148.425 15.0236 148.272 15.2133 148.061 15.2358L143.076 15.7735C142.881 15.7944 142.733 15.9593 142.733 16.1562V17.1524C142.733 17.3816 142.932 17.5598 143.159 17.535L148.584 16.9457C148.795 16.9226 148.986 17.076 149.008 17.2876L149.097 18.1227C149.119 18.3339 148.966 18.523 148.755 18.5461L143.076 19.1602H143.074Z" fill="#00FFFF" style="mix-blend-mode:difference"/>
<path d="M158.596 18.44L159.307 22.4595C159.344 22.6656 159.208 22.8636 159.003 22.9043L157.976 23.1077C157.763 23.15 157.557 23.0082 157.522 22.7943L156.818 18.639C156.784 18.435 156.595 18.2948 156.39 18.3212L152.131 18.8716C151.922 18.8985 151.73 18.7517 151.701 18.5423L151.575 17.6263C151.546 17.4146 151.695 17.22 151.907 17.192L156.067 16.6477C156.284 16.6191 156.433 16.4168 156.397 16.2013L156.188 14.9752C156.153 14.7713 155.963 14.6311 155.758 14.658L152.78 15.0517C152.57 15.0797 152.377 14.9318 152.348 14.7212L152.236 13.8861C152.207 13.6739 152.357 13.4798 152.57 13.4529L155.463 13.0895C155.681 13.062 155.832 12.858 155.795 12.642L155.46 10.7095C155.421 10.4829 155.588 10.2724 155.818 10.2597L157.003 10.1921C157.341 10.1767 157.465 10.2229 157.465 10.346C157.465 10.4071 157.203 10.6847 157.219 10.7617L157.523 12.4341C157.56 12.6359 157.748 12.7733 157.951 12.747L160.568 12.4105C160.776 12.3836 160.968 12.5292 160.998 12.7376L161.119 13.5771C161.15 13.7894 161.001 13.9862 160.787 14.0137L158.265 14.3424C158.048 14.371 157.898 14.5755 157.936 14.7922L158.153 16.0039C158.19 16.2062 158.378 16.3442 158.582 16.3178L162.315 15.8302C162.526 15.8027 162.72 15.9517 162.747 16.1633L162.865 17.0925C162.892 17.303 162.743 17.4955 162.533 17.5229L158.926 17.9914C158.708 18.0194 158.558 18.2239 158.596 18.44Z" fill="#00FFFF" style="mix-blend-mode:difference"/>
<path d="M171.911 19.2316L171.225 18.938C171.013 18.8468 170.927 18.5906 171.044 18.3904C171.165 18.1826 171.282 17.983 171.565 17.5196C171.857 17.0424 171.888 16.9962 172.18 16.4882L169.753 16.9819C169.546 17.0242 169.411 17.2254 169.452 17.4333L170.461 22.5738C170.501 22.7772 170.373 22.9756 170.171 23.0229L169.28 23.2307C169.065 23.2808 168.853 23.1406 168.814 22.9234L167.893 17.7708C167.855 17.5575 167.648 17.4179 167.436 17.4618L165.321 17.9006C165.139 17.9385 164.955 17.8401 164.886 17.6664L164.625 17.0132C164.535 16.7889 164.672 16.5382 164.909 16.4926L167.186 16.0527C167.393 16.0126 167.53 15.813 167.492 15.6052L167.128 13.6293C167.088 13.4105 167.241 13.2027 167.462 13.1774L168.516 13.0553C168.593 13.0399 168.916 13.0245 168.916 13.1939C168.916 13.2246 168.916 13.2554 168.793 13.4099C168.761 13.4561 168.685 13.5633 168.7 13.6408L169.04 15.2995C169.082 15.5063 169.283 15.6404 169.489 15.6003L172.718 14.9796C172.849 14.9565 172.961 14.8834 173.049 14.8025C173.182 14.6816 173.387 14.686 173.532 14.7921L174.203 15.2803C174.364 15.3974 174.408 15.6201 174.305 15.791C173.747 16.7224 173.254 17.5658 172.396 19.0667C172.299 19.2366 172.089 19.3091 171.909 19.2322L171.911 19.2316Z" fill="#00FFFF" style="mix-blend-mode:difference"/>
<path d="M178.849 14.1241C178.142 13.5776 177.332 13.0712 176.413 12.6265C176.204 12.5253 176.126 12.2663 176.252 12.0712L176.771 11.2707C176.875 11.1107 177.078 11.0469 177.251 11.1272C178.105 11.5208 179.078 12.0508 179.901 12.6765C180.063 12.7996 180.094 13.0327 179.979 13.2004L179.402 14.0405C179.276 14.2236 179.025 14.2599 178.849 14.1241ZM183.679 18.5663C181.318 20.4796 179.87 21.1443 178.042 21.9277C177.936 21.9728 177.853 22.0641 177.822 22.1751C177.776 22.3351 177.735 22.4759 177.645 22.4759C177.553 22.4759 177.414 22.3835 177.306 22.1839L176.488 20.7803C176.359 20.5593 176.476 20.2784 176.723 20.2146C177.968 19.8935 179.783 19.291 181.94 17.6735C183.977 16.1555 185.358 14.4303 186.132 13.394C186.29 13.1828 186.607 13.1889 186.757 13.4061L187.355 14.2736C187.45 14.4105 187.446 14.5903 187.346 14.7228C186.702 15.5772 185.539 17.0588 183.679 18.5663Z" fill="#00FFFF" style="mix-blend-mode:difference"/>
<path d="M193.055 13.0553C193.008 13.1015 192.731 13.24 192.685 13.3016C192.624 13.3626 192.377 14.41 192.316 14.6101C191.277 18.1084 189.898 20.1222 189.135 21.1613C189.032 21.3026 188.848 21.3543 188.685 21.2905L187.514 20.8298C187.266 20.7325 187.195 20.4235 187.367 20.2201C189.185 18.0704 190.337 15.2385 190.843 12.6573C190.885 12.4445 191.089 12.3092 191.301 12.3565L192.777 12.6858C192.824 12.7012 193.147 12.7782 193.147 12.9321C193.147 12.9932 193.101 13.0245 193.055 13.0553ZM198.706 20.4675C198.132 18.1722 196.846 15.2281 195.494 13.3896C195.355 13.2015 195.406 12.9371 195.609 12.8216L196.529 12.2999C196.699 12.2037 196.913 12.2455 197.028 12.4027C198.305 14.1609 199.794 17.066 200.637 19.7198C200.696 19.9056 200.603 20.1047 200.426 20.1855L199.239 20.7265C199.018 20.8271 198.765 20.7023 198.706 20.467V20.4675ZM199.813 13.6403C199.027 13.6403 198.365 12.9783 198.365 12.1465C198.365 11.3312 199.012 10.6687 199.813 10.6687C200.644 10.6687 201.276 11.3455 201.276 12.1465C201.276 12.9624 200.613 13.6403 199.813 13.6403ZM199.813 11.285C199.32 11.285 198.966 11.7006 198.966 12.1465C198.966 12.6237 199.351 13.0245 199.813 13.0245C200.275 13.0245 200.674 12.6397 200.674 12.1465C200.674 11.6847 200.305 11.285 199.813 11.285Z" fill="#00FFFF" style="mix-blend-mode:difference"/>
<path d="M212.264 21.8111C211.097 20.4037 210.133 19.4223 209.072 18.5372C208.914 18.4058 208.68 18.425 208.542 18.5768C207.433 19.7912 206.3 20.8672 203.781 22.1328C203.63 22.2086 203.444 22.1784 203.326 22.0574L202.554 21.2586C202.369 21.0673 202.428 20.7495 202.671 20.6412C203.746 20.1607 205.413 19.3063 207.079 17.5349C208.443 16.0824 209.092 14.775 209.476 13.8678C209.584 13.6127 209.399 13.3318 209.122 13.3318H204.215C204.003 13.3318 203.831 13.1597 203.831 12.9469V11.9309C203.831 11.7182 204.003 11.5461 204.215 11.5461H210.465C210.661 11.5461 210.829 11.4774 211.001 11.3773C211.159 11.2849 211.36 11.3119 211.484 11.4477L212.165 12.1998C212.309 12.3598 212.304 12.6132 212.14 12.7523C211.934 12.9266 211.743 13.1421 211.619 13.4401C211.132 14.5881 210.845 15.2813 210.022 16.592C209.917 16.7592 209.954 16.9785 210.11 17.0995C211.396 18.1006 212.558 19.237 213.667 20.4257C213.806 20.5741 213.805 20.805 213.666 20.9535L212.843 21.8331C212.684 22.0025 212.411 21.9898 212.263 21.8111H212.264Z" fill="#00FFFF" style="mix-blend-mode:difference"/>
<path d="M234.299 23.069C234.159 23.1823 233.961 23.1845 233.82 23.0734C233.088 22.4962 231.91 21.4977 230.782 19.7362C229.977 18.469 229.534 17.3265 229.263 16.4331C229.157 16.0824 228.668 16.0752 228.538 16.4183C227.436 19.3398 225.936 21.55 223.698 23.1768C223.563 23.2741 223.378 23.2735 223.243 23.1773L222.279 22.4929C222.061 22.3384 222.061 22.0145 222.282 21.8639C223.158 21.2657 224.441 20.2552 225.562 18.4888C226.791 16.5326 227.131 14.742 227.28 13.6347C227.311 13.4065 227.531 13.2581 227.754 13.3142L228.167 13.417C228.421 13.4802 228.66 13.2779 228.644 13.0167C228.635 12.8738 228.628 12.7265 228.622 12.5527C228.615 12.3455 228.445 12.1778 228.237 12.1778H225.886C225.673 12.1778 225.501 12.0057 225.501 11.7929V10.7307C225.501 10.518 225.673 10.3459 225.886 10.3459H230.028C230.248 10.3459 230.425 10.529 230.412 10.7489C230.39 11.1299 230.382 11.54 230.382 11.9012C230.382 13.533 230.659 15.626 231.797 17.751C232.971 19.932 234.416 21.009 235.343 21.5725C235.569 21.7105 235.586 22.0305 235.38 22.1971L234.299 23.0696V23.069Z" fill="#00FFFF" style="mix-blend-mode:difference"/>
<path d="M244.484 17.0258C244.336 17.0258 244.202 17.111 244.138 17.2446C244.08 17.3661 244.016 17.4854 243.959 17.5811H249.168C249.384 17.5811 249.561 17.7587 249.553 17.9748C249.498 19.5076 249.212 21.4824 248.716 22.2603C248.289 22.9289 247.611 23.1631 246.538 23.2071C246.377 23.2137 246.228 23.1153 246.167 22.9668L245.875 22.2515C245.772 21.9992 245.446 21.9288 245.252 22.1201C244.92 22.4462 244.519 22.7975 243.977 23.1741C243.848 23.2637 243.673 23.2648 243.542 23.1779L243.093 22.8788C242.869 22.7299 242.861 22.4005 243.082 22.2477C244.524 21.2509 245.613 19.8039 246.114 18.8583H245.568C245.431 18.8583 245.306 18.9286 245.237 19.0479C244.991 19.479 244.549 20.1887 243.835 20.876C243.16 21.5379 242.42 22.1218 241.64 22.6397C241.508 22.7277 241.333 22.7238 241.203 22.632L240.74 22.306C240.509 22.1432 240.527 21.7947 240.774 21.6578C242.491 20.7077 243.603 19.2904 243.881 18.8577H243.348C243.237 18.8577 243.13 18.9099 243.056 18.9941C242.412 19.7374 241.878 20.2217 241.33 20.6473C241.199 20.7484 241.018 20.7523 240.881 20.6605L240.377 20.3218C240.154 20.1723 240.146 19.8451 240.365 19.6906C240.615 19.5147 240.879 19.303 241.248 18.9809C240.201 19.3817 238.508 19.9518 238.061 20.0595C237.492 20.1981 237.431 20.2129 237.339 20.3212C237.169 20.5065 237.123 20.5675 237.046 20.5675C237.014 20.5675 236.953 20.5368 236.938 20.4603L236.72 19.0991C236.687 18.8973 236.816 18.7065 237.015 18.6631C237.352 18.59 237.731 18.4976 238.079 18.4096C238.25 18.3662 238.37 18.2128 238.37 18.0363V15.134C238.37 14.9212 238.198 14.7492 237.985 14.7492H237.262C237.049 14.7492 236.877 14.5771 236.877 14.3643V13.549C236.877 13.3362 237.049 13.1641 237.262 13.1641H237.985C238.198 13.1641 238.37 12.9921 238.37 12.7793V10.5164C238.37 10.2921 238.561 10.115 238.785 10.1326L240.156 10.2387C240.248 10.2541 240.355 10.3003 240.355 10.4081C240.355 10.5158 240.279 10.5774 240.186 10.6538C240.109 10.7 239.986 10.777 239.986 10.8847V12.7776C239.986 12.9904 240.158 13.1625 240.371 13.1625H241.202C241.415 13.1625 241.587 13.3346 241.587 13.5473V14.3627C241.587 14.5754 241.415 14.7475 241.202 14.7475H240.371C240.158 14.7475 239.986 14.9196 239.986 15.1324V17.3749C239.986 17.6317 240.233 17.8181 240.48 17.7444C240.666 17.6883 240.85 17.6311 241.032 17.5712C241.283 17.4887 241.541 17.6702 241.541 17.9341V18.6724C241.9 18.2832 242.143 17.9693 242.357 17.6114C242.51 17.3535 242.326 17.0253 242.027 17.0253H241.588C241.375 17.0253 241.203 16.8532 241.203 16.6404V16.1654C241.203 15.9526 241.375 15.7806 241.588 15.7806H249.361C249.574 15.7806 249.746 15.9526 249.746 16.1654V16.6404C249.746 16.8532 249.574 17.0253 249.361 17.0253H244.484V17.0258ZM242.343 14.8091V10.7319C242.343 10.5191 242.515 10.347 242.728 10.347H248.207C248.42 10.347 248.592 10.5191 248.592 10.7319V14.8091C248.592 15.0219 248.42 15.1939 248.207 15.1939H242.728C242.515 15.1939 242.343 15.0219 242.343 14.8091ZM247.1 11.6374H243.835V12.2861H247.1V11.6374ZM247.1 13.3769H243.835V14.041H247.1V13.3769ZM247.561 18.8577C247.284 19.5048 246.93 20.2745 245.79 21.5533C246.237 21.6457 246.56 21.6457 246.622 21.6457C247.023 21.6457 247.268 21.5533 247.438 21.2141C247.807 20.4906 247.884 19.6736 247.93 18.8577H247.561Z" fill="#00FFFF" style="mix-blend-mode:difference"/>
<path d="M262.477 16.4573V17.6267C262.477 17.8395 262.649 18.0116 262.861 18.0116H263.77C263.982 18.0116 264.154 18.1837 264.154 18.3964V19.0584C264.154 19.2711 263.982 19.4432 263.77 19.4432H252.472C252.259 19.4432 252.087 19.2711 252.087 19.0584V18.3964C252.087 18.1837 252.259 18.0116 252.472 18.0116H253.365C253.578 18.0116 253.75 17.8395 253.75 17.6267V16.4573C253.75 16.2446 253.578 16.0725 253.365 16.0725H251.903C251.69 16.0725 251.518 15.9004 251.518 15.6876V14.9795C251.518 14.7667 251.69 14.5947 251.903 14.5947H253.365C253.578 14.5947 253.75 14.4226 253.75 14.2098V12.9013C253.483 13.229 253.244 13.4709 252.998 13.6941C252.879 13.8013 252.708 13.8283 252.564 13.7573L251.817 13.3873C251.572 13.2664 251.52 12.9305 251.728 12.7529C252.662 11.9557 253.375 11.0144 253.881 10.1315C253.969 9.97759 254.146 9.90329 254.317 9.95119L255.765 10.3613C255.796 10.3767 256.028 10.4388 256.028 10.5774C256.028 10.6287 255.909 10.7005 255.672 10.7929C255.565 10.8391 255.473 10.8852 255.196 11.2393H263.616C263.828 11.2393 264.001 11.4114 264.001 11.6242V12.2856C264.001 12.4983 263.828 12.6704 263.616 12.6704H262.861C262.648 12.6704 262.476 12.8425 262.476 13.0553V14.2098C262.476 14.4226 262.648 14.5947 262.861 14.5947H264.292C264.505 14.5947 264.677 14.7667 264.677 14.9795V15.6876C264.677 15.9004 264.505 16.0725 264.292 16.0725H262.861C262.648 16.0725 262.476 16.2446 262.476 16.4573H262.477ZM254.935 21.1371C254.719 21.1525 254.704 21.1525 254.642 21.2295C253.951 22.1388 253.308 22.7524 252.916 23.0993C252.769 23.229 252.551 23.229 252.405 23.0993L251.79 22.555C251.609 22.3945 251.624 22.1146 251.812 21.9618C252.478 21.4219 253.015 20.8028 253.448 20.1717C253.574 19.9886 253.823 19.9419 254 20.0755L254.919 20.7676C255.058 20.8749 255.089 20.937 255.089 20.9986C255.089 21.1063 254.982 21.1217 254.936 21.1371H254.935ZM255.844 12.6704H255.703C255.49 12.6704 255.318 12.8425 255.318 13.0553V14.2098C255.318 14.4226 255.49 14.5947 255.703 14.5947H255.844C256.057 14.5947 256.229 14.4226 256.229 14.2098V13.0553C256.229 12.8425 256.057 12.6704 255.844 12.6704ZM255.844 16.0725H255.703C255.49 16.0725 255.318 16.2446 255.318 16.4573V17.6267C255.318 17.8395 255.49 18.0116 255.703 18.0116H255.844C256.057 18.0116 256.229 17.8395 256.229 17.6267V16.4573C256.229 16.2446 256.057 16.0725 255.844 16.0725ZM256.123 22.837C256.095 22.1581 256.021 21.5879 255.827 20.943C255.765 20.7358 255.893 20.5191 256.103 20.4664L256.721 20.3102C256.91 20.2624 257.104 20.3636 257.175 20.545C257.406 21.1289 257.618 21.8342 257.654 22.6479C257.663 22.8332 257.528 22.9965 257.347 23.035L256.587 23.196C256.355 23.245 256.133 23.0734 256.123 22.8365V22.837ZM258.199 12.6699H258.058C257.845 12.6699 257.673 12.8419 257.673 13.0547V14.2093C257.673 14.422 257.845 14.5941 258.058 14.5941H258.199C258.411 14.5941 258.583 14.422 258.583 14.2093V13.0547C258.583 12.8419 258.411 12.6699 258.199 12.6699ZM258.199 16.0719H258.058C257.845 16.0719 257.673 16.244 257.673 16.4568V17.6262C257.673 17.8389 257.845 18.011 258.058 18.011H258.199C258.411 18.011 258.583 17.8389 258.583 17.6262V16.4568C258.583 16.244 258.411 16.0719 258.199 16.0719ZM259.24 22.6694C259.113 22.0135 258.9 21.4323 258.726 21.0249C258.637 20.8177 258.75 20.5807 258.965 20.512L259.571 20.3196C259.742 20.2651 259.928 20.3328 260.018 20.4884C260.254 20.8952 260.579 21.5472 260.738 22.2933C260.78 22.4956 260.664 22.6979 260.465 22.7535L259.719 22.9613C259.505 23.0207 259.283 22.8876 259.24 22.6694ZM260.57 12.6699H260.383C260.17 12.6699 259.998 12.8419 259.998 13.0547V14.2093C259.998 14.422 260.17 14.5941 260.383 14.5941H260.57C260.783 14.5941 260.955 14.422 260.955 14.2093V13.0547C260.955 12.8419 260.783 12.6699 260.57 12.6699ZM260.57 16.0719H260.383C260.17 16.0719 259.998 16.244 259.998 16.4568V17.6262C259.998 17.8389 260.17 18.011 260.383 18.011H260.57C260.783 18.011 260.955 17.8389 260.955 17.6262V16.4568C260.955 16.244 260.783 16.0719 260.57 16.0719ZM263.02 22.8931C262.475 22.1163 262.009 21.5934 261.625 21.1965C261.471 21.0365 261.484 20.7819 261.653 20.6373L262.226 20.1486C262.37 20.0254 262.584 20.0243 262.726 20.1486C263.297 20.6467 263.805 21.1684 264.329 21.876C264.449 22.0377 264.419 22.268 264.265 22.3978L263.585 22.9706C263.411 23.1174 263.15 23.0789 263.019 22.8926L263.02 22.8931Z" fill="#00FFFF" style="mix-blend-mode:difference"/>
<path d="M270.83 16.7422C271.261 17.3107 271.788 17.8115 272.148 18.1359C272.295 18.2678 272.316 18.49 272.198 18.6488L271.79 19.1997C271.651 19.3872 271.379 19.4114 271.213 19.2476C271.17 19.2052 271.126 19.1612 271.081 19.1151C270.841 18.8682 270.421 19.0375 270.421 19.3823V22.9069C270.421 23.1197 270.248 23.2918 270.036 23.2918H269.221C269.008 23.2918 268.836 23.1197 268.836 22.9069V20.7353C268.836 20.3559 268.348 20.2058 268.134 20.5192C267.98 20.7446 267.814 20.9689 267.644 21.174C267.526 21.3164 267.319 21.3461 267.159 21.2526L266.424 20.8216C266.214 20.6984 266.175 20.417 266.334 20.2333C267.336 19.0815 268.045 17.7967 268.407 16.624C268.485 16.3733 268.302 16.1187 268.039 16.1187H266.742C266.529 16.1187 266.357 15.9467 266.357 15.7339V15.0873C266.357 14.8746 266.529 14.7025 266.742 14.7025H268.45C268.663 14.7025 268.835 14.5304 268.835 14.3176V10.5203C268.835 10.2943 269.029 10.1167 269.254 10.1371L270.22 10.2228C270.635 10.2542 270.698 10.3465 270.698 10.4389C270.698 10.4999 270.666 10.562 270.574 10.6236C270.45 10.716 270.419 10.7314 270.419 10.8084V14.3182C270.419 14.531 270.591 14.703 270.804 14.703H272.128C272.341 14.703 272.513 14.8751 272.513 15.0879V15.7344C272.513 15.9472 272.341 16.1193 272.128 16.1193H271.132C270.811 16.1193 270.634 16.4871 270.828 16.7427L270.83 16.7422ZM266.884 13.6222C266.749 13.068 266.552 12.5149 266.357 12.0729C266.269 11.8738 266.363 11.6451 266.565 11.5632L267.291 11.2696C267.487 11.1899 267.711 11.2856 267.793 11.4818C268.045 12.0877 268.222 12.7189 268.339 13.1818C268.387 13.3731 268.281 13.5666 268.095 13.6337L267.387 13.8899C267.172 13.9674 266.938 13.8432 266.884 13.6216V13.6222ZM273.085 11.7622C272.93 11.8392 272.915 11.8546 272.9 11.9008C272.86 12.0333 272.636 12.9465 272.299 13.7184C272.213 13.9152 271.987 14.0092 271.79 13.924L271.227 13.681C271.042 13.6007 270.947 13.3901 271.017 13.2005C271.24 12.5979 271.38 11.9591 271.465 11.4846C271.503 11.2674 271.714 11.1261 271.929 11.1751L272.823 11.3774C273.146 11.4544 273.238 11.5005 273.238 11.5929C273.238 11.6704 273.114 11.7468 273.085 11.7628V11.7622ZM278.103 19.4961V22.8767C278.103 23.0895 277.931 23.2615 277.718 23.2615H276.826C276.613 23.2615 276.441 23.0895 276.441 22.8767V20.1102C276.441 19.8584 276.203 19.6742 275.959 19.7374L273.001 20.5038C272.776 20.5621 272.551 20.4098 272.522 20.1795L272.435 19.4873C272.411 19.2948 272.533 19.1151 272.72 19.0661L276.152 18.1788C276.322 18.1348 276.441 17.9814 276.441 17.806V10.5219C276.441 10.2954 276.636 10.1173 276.861 10.1387L278.088 10.2536C278.396 10.2844 278.457 10.346 278.457 10.4383C278.457 10.4994 278.411 10.5307 278.35 10.5769C278.196 10.6847 278.103 10.7462 278.103 10.8078V17.1897C278.103 17.4421 278.342 17.6257 278.585 17.5619L278.943 17.4685C279.178 17.4069 279.41 17.5751 279.425 17.817L279.469 18.5251C279.48 18.7099 279.359 18.8759 279.18 18.9221L278.393 19.1233C278.223 19.1667 278.103 19.3201 278.103 19.4961ZM274.568 17.3481C274.231 16.9093 273.823 16.4744 273.407 16.111C273.244 15.9675 273.238 15.7146 273.389 15.5585L273.868 15.0659C274.012 14.918 274.244 14.9109 274.4 15.0461C274.843 15.4299 275.302 15.9016 275.669 16.3936C275.781 16.5432 275.76 16.7537 275.629 16.8873L275.143 17.381C274.98 17.5465 274.709 17.5328 274.568 17.3486V17.3481ZM274.663 13.6387C274.341 13.2258 273.972 12.8799 273.656 12.6188C273.483 12.4753 273.47 12.2186 273.627 12.0569L274.118 11.5511C274.26 11.4049 274.488 11.395 274.645 11.5253C274.996 11.8189 275.399 12.2021 275.756 12.6666C275.871 12.8162 275.851 13.0311 275.72 13.1658L275.237 13.6645C275.077 13.8294 274.805 13.8195 274.663 13.6387Z" fill="#00FFFF" style="mix-blend-mode:difference"/>
<path d="M42.6982 16.7944H45.9832C46.1547 16.7944 46.351 16.6657 46.4197 16.5085L46.5143 16.2924C46.583 16.1352 46.6847 16.1396 46.7408 16.3012L47.2026 17.6378C47.2587 17.7999 47.3439 17.7977 47.3928 17.6334L48.2021 14.8888C48.2505 14.7244 48.3088 14.7288 48.3308 14.8987L48.8816 19.0991C48.9042 19.269 48.9575 19.2723 49.0009 19.1068L49.8262 15.9455C49.8696 15.7795 49.94 15.7795 49.9834 15.9455L50.1302 16.5102C50.1731 16.6762 50.349 16.812 50.52 16.812H54.2091" fill="#00FFFF" style="mix-blend-mode:difference"/>
<path d="M42.6982 16.7944H45.9832C46.1547 16.7944 46.351 16.6657 46.4197 16.5085L46.5143 16.2924C46.583 16.1352 46.6847 16.1396 46.7408 16.3012L47.2026 17.6378C47.2587 17.7999 47.3439 17.7977 47.3928 17.6334L48.2021 14.8888C48.2505 14.7244 48.3088 14.7288 48.3308 14.8987L48.8816 19.0991C48.9042 19.269 48.9575 19.2723 49.0009 19.1068L49.8262 15.9455C49.8696 15.7795 49.94 15.7795 49.9834 15.9455L50.1302 16.5102C50.1731 16.6762 50.349 16.812 50.52 16.812H54.2091" stroke="#00FFFF" stroke-width="0.6" stroke-linejoin="bevel" style="mix-blend-mode:difference"/>
<path d="M384.035 0.252744C383.823 0.293024 383.409 0.386494 383.113 0.461164C382.816 0.535844 382.398 0.629684 382.181 0.670334C381.888 0.730984 381.701 0.796704 381.447 0.941224C381.259 1.04828 380.877 1.24912 380.6 1.3864C379.842 1.76003 378.857 2.38137 378.204 2.90684C377.06 3.82074 376.764 4.06494 376.736 4.11761C376.688 4.19946 376.715 4.36675 376.773 4.39869C376.806 4.41429 378.382 4.2944 380.279 4.13438C384.133 3.80494 383.937 3.80732 384.196 4.12512C384.344 4.31002 384.367 4.47768 384.257 4.6425C384.179 4.75882 383.174 5.6293 382.589 6.09419C382.171 6.42166 382.034 6.58871 382.048 6.75712C382.055 6.84815 382.098 6.93165 382.162 6.98142C382.255 7.05626 382.369 7.05149 383.664 6.96837C385.163 6.86847 385.159 6.86884 385.398 7.11038C385.623 7.33484 385.585 7.48004 385.049 8.4403C384.346 9.70301 383.757 10.6218 383.595 10.7084C383.418 10.7962 383.265 10.7675 382.886 10.5603C382.392 10.2937 382.376 10.153 382.781 9.56081C383.088 9.10501 383.125 9.00571 383.044 8.80155C383.01 8.71276 382.916 8.57837 382.837 8.50696C382.693 8.37667 382.689 8.37705 382.215 8.41582C381.815 8.44863 381.72 8.47011 381.64 8.55002L381.538 8.64545L381.688 10.7592C381.83 12.7729 381.834 12.8779 381.759 13.0811C381.658 13.3597 381.43 13.5892 381.141 13.7045C381.013 13.7562 380.661 13.8308 380.362 13.8691C379.664 13.9584 379.565 13.9298 379.35 13.5396C379.102 13.0925 379.05 12.9043 379.126 12.7607C379.194 12.6406 379.203 12.6398 379.578 12.6366C379.885 12.6389 379.994 12.6208 380.112 12.5516C380.37 12.4022 380.376 12.365 380.252 10.6844C380.193 9.84611 380.125 9.07281 380.098 8.97412C380.013 8.59627 380.156 8.61202 378.033 8.75844C376.679 8.85096 376.123 8.87824 376.051 8.84287C375.736 8.69452 375.733 7.92501 376.047 7.67932C376.12 7.62292 376.451 7.5775 377.615 7.4593C378.428 7.37891 379.127 7.29418 379.171 7.27225C379.285 7.20794 379.235 7.0975 379.043 6.99408C378.396 6.65298 378.38 6.62679 378.578 6.13404C378.734 5.74098 378.736 5.70874 378.628 5.62136C378.564 5.56704 378.417 5.56531 377.762 5.619C377.102 5.67306 376.923 5.67395 376.676 5.61633C376.517 5.57894 376.258 5.55885 376.108 5.57116C375.872 5.59054 375.791 5.62001 375.558 5.78579C375.319 5.95195 375.223 6.06976 374.916 6.56235C374.396 7.38383 374.186 7.78592 373.956 8.38216C373.328 10.0052 373.028 11.4365 373.012 12.8582C373.005 13.6744 373.159 15.6046 373.287 16.2723C373.734 18.6 374.009 19.4893 374.553 20.3108C374.966 20.9413 375.97 22.1146 376.772 22.9103C377.301 23.4352 378.414 24.3291 378.956 24.6742C380.507 25.6515 382.923 26.5029 384.778 26.7175C385.98 26.8573 386.168 26.8556 387.897 26.7094C389.353 26.5856 389.562 26.5548 390.028 26.4295C391.341 26.0654 392.208 25.6874 393.218 25.0365C393.64 24.7636 394.051 24.5238 394.136 24.503C394.221 24.4777 394.358 24.4161 394.441 24.3635C394.659 24.2311 395.492 23.4389 395.572 23.2903C395.683 23.0842 395.566 23.0021 394.832 22.7598C393.598 22.3523 393.589 22.353 393.07 22.6705C392.14 23.2324 390.615 23.7559 389.366 23.9407C388.963 24.0012 388.926 23.9996 388.795 23.9095C388.635 23.8035 388.355 23.3453 388.34 23.1678C388.321 22.9266 388.423 22.8862 389.28 22.7747C390.44 22.6201 391.247 22.4074 391.342 22.2255C391.438 22.0481 391.278 21.8321 391.064 21.8496C391 21.8548 390.841 21.9183 390.709 21.9932C390.438 22.1438 390.327 22.1391 389.978 21.9615C389.462 21.6968 389.378 21.5158 389.63 21.2294C389.714 21.14 389.803 20.9998 389.838 20.9237C389.888 20.8005 389.886 20.7823 389.817 20.7192C389.748 20.6653 389.601 20.659 388.972 20.7013C388.553 20.7265 388.155 20.7316 388.084 20.7145C388.018 20.6924 387.93 20.6172 387.897 20.5466C387.804 20.3663 387.821 20.0212 387.93 19.8886C388.018 19.7898 388.063 19.7815 389.495 19.6413C390.895 19.5037 390.972 19.4928 391.087 19.3917C391.151 19.3361 391.242 19.2095 391.284 19.1098L391.361 18.934L391.245 18.8519C391.138 18.7782 391.056 18.7803 390.05 18.8627C389.417 18.9145 388.915 18.9373 388.831 18.9167C388.573 18.8462 388.553 18.77 388.446 17.4637C388.336 16.1164 388.341 16.0702 388.652 15.9576C388.746 15.9224 389.172 15.8646 389.595 15.83C390.464 15.7588 390.571 15.718 390.551 15.4767C390.53 15.2173 390.461 15.2092 389.068 15.3233C388.308 15.3856 387.756 15.4125 387.671 15.3919C387.451 15.332 387.327 15.0444 387.372 14.7016C387.424 14.3308 387.012 14.392 392.242 13.9636L396.898 13.5822L397.025 13.6772C397.185 13.7878 397.261 14.0978 397.195 14.3597C397.127 14.6448 397.038 14.6705 395.64 14.7849C394.288 14.8957 394.217 14.9153 394.238 15.1702C394.257 15.4023 394.331 15.4191 395.326 15.3651C395.832 15.3374 396.28 15.3282 396.327 15.3427C396.526 15.4135 396.561 15.5618 396.661 16.7816C396.714 17.4371 396.742 17.9938 396.72 18.0643C396.652 18.3036 396.517 18.3329 394.906 18.4649C393.445 18.5846 393.431 18.5857 393.285 18.7031C393.203 18.7648 393.104 18.8966 393.062 18.9963C392.988 19.1627 392.989 19.1718 393.073 19.2428C393.152 19.3142 393.325 19.3046 395.243 19.1704C396.387 19.0905 397.359 19.0384 397.401 19.0533C397.596 19.1335 397.698 19.6521 397.559 19.856C397.481 19.9723 397.458 19.9742 396.532 20.073C395.905 20.1426 395.557 20.1986 395.491 20.2406C395.439 20.277 395.269 20.4834 395.113 20.707C394.591 21.4461 394.591 21.4461 395.471 21.7269C395.895 21.8617 395.997 21.8763 396.297 21.8517C396.888 21.7987 397.16 21.5886 397.688 20.7664C399.35 18.1788 400.031 15.47 399.927 11.7991C399.91 11.0811 399.882 10.7398 399.816 10.4336C399.734 10.0509 398.985 7.90363 398.827 7.59583C398.784 7.51689 398.549 7.16044 398.3 6.80966C397.9 6.23756 397.706 5.99684 397.217 5.45496C397.147 5.38281 397.051 5.32199 397.005 5.32572C396.855 5.33802 396.562 5.5041 396.519 5.59923C396.5 5.65116 396.509 6.25987 396.543 6.95357C396.636 8.92997 396.543 10.4176 396.266 11.398C396.042 12.1907 395.58 12.5446 394.679 12.6184L394.247 12.6539L394.088 12.5065C393.925 12.3595 393.594 11.7818 393.58 11.6134C393.565 11.4359 393.679 11.3716 394.075 11.3391C394.562 11.2992 394.744 11.2248 394.901 11.0149C395.07 10.7903 395.132 10.5928 395.212 10.0088C395.333 9.18341 395.357 7.58221 395.276 6.58997C395.24 6.14847 395.114 5.89306 394.879 5.77478C394.736 5.70404 394.644 5.70239 393.789 5.77248C392.66 5.86494 392.673 5.85927 392.345 6.43603C392.216 6.66188 392.061 6.88997 391.992 6.946C391.885 7.03725 391.858 7.04404 391.676 7.00396C391.569 6.98067 391.425 6.95582 391.356 6.94776C391.235 6.93469 391.227 6.94454 391.239 7.09474C391.247 7.18577 391.308 7.43275 391.376 7.64257C391.604 8.36158 391.559 8.53938 391.079 8.72074C390.804 8.82579 390.698 8.81615 390.471 8.67437C390.262 8.53565 389.994 8.5622 389.857 8.73381L389.757 8.86109L389.898 10.8611C390.038 12.852 390.039 12.8611 389.947 12.9694C389.876 13.0531 389.787 13.0879 389.566 13.1198C389.185 13.1739 388.964 13.1049 388.883 12.9008C388.849 12.8211 388.772 12.2089 388.707 11.536C388.623 10.6723 388.57 10.3055 388.53 10.2721C388.422 10.1801 388.382 10.3117 388.326 10.9669C388.252 11.7428 388.168 12.1667 388.043 12.3189C387.827 12.5887 387.095 12.4333 387.068 12.1147C387.064 12.0601 387.093 11.7965 387.135 11.5319C387.173 11.2676 387.218 10.8057 387.235 10.5065C387.267 9.72491 387.373 9.62461 388.021 9.75481C388.496 9.84881 388.468 9.85101 388.514 9.68231C388.574 9.45751 388.539 9.20371 388.429 9.09361C388.349 9.00851 388.298 8.99898 388.08 9.02141C387.939 9.03751 387.669 9.10091 387.481 9.15751L387.147 9.26741L387.032 9.15311C386.908 9.03491 386.787 8.68282 386.746 8.34258C386.706 8.02509 386.804 7.93914 387.334 7.8591C387.664 7.80458 387.789 7.76683 387.892 7.68051C388.256 7.37117 388.157 7.10897 387.481 6.63281C386.605 6.01264 386.594 5.99063 386.854 5.52034C387.037 5.18914 387.179 5.0767 387.452 5.05433C387.584 5.04352 387.664 5.0095 387.735 4.92579C387.84 4.80268 388.079 4.31568 388.269 3.84188C388.433 3.42987 388.487 3.36585 388.683 3.34982C388.888 3.33304 389.407 3.5746 389.492 3.72339C389.568 3.85927 389.545 3.92067 389.276 4.37805C388.659 5.41367 388.553 5.624 388.564 5.7651C388.578 5.92896 388.707 6.05126 388.857 6.03896C388.989 6.02814 389.105 5.87661 389.463 5.21494C389.631 4.90798 389.808 4.60938 389.853 4.54611C389.986 4.37943 390.202 4.38467 390.583 4.56876C391.046 4.79659 391.124 4.95522 390.897 5.21204C390.675 5.45937 390.41 5.91637 390.419 6.03016C390.432 6.18492 390.568 6.38914 390.686 6.43899C390.834 6.50481 390.952 6.38514 391.22 5.905C391.515 5.37219 391.836 4.59443 392.049 3.88515C392.251 3.21795 392.278 3.16527 392.432 3.08395C392.533 3.03441 392.621 3.03643 392.938 3.10666C393.587 3.25511 393.638 3.32421 393.458 3.81091C393.343 4.13652 393.345 4.32881 393.47 4.40559C393.586 4.47857 395.503 4.33072 395.72 4.23507C395.892 4.15681 395.943 4.05183 395.872 3.90648C395.805 3.76075 394.54 2.70047 394.012 2.34513C393.299 1.8674 392.217 1.29624 391.416 0.976924C390.057 0.442154 388.825 0.167354 387.272 0.0517641C386.7 0.00696415 384.635 0.134884 384.035 0.252744ZM393.315 7.1447C393.49 7.22194 394.259 8.71689 394.285 9.04001C394.3 9.21301 394.158 9.38951 393.924 9.49121C393.631 9.61601 393.453 9.62141 393.329 9.50781C393.24 9.42811 392.892 8.76009 392.493 7.90849C392.332 7.56428 392.393 7.42177 392.794 7.22854C393.041 7.10753 393.177 7.08724 393.315 7.1447ZM391.161 9.38301C391.211 9.42941 391.275 9.54321 391.301 9.63281C391.35 9.78451 391.555 10.4504 391.706 10.9467C391.794 11.2328 391.718 11.3673 391.394 11.4946C390.914 11.676 390.768 11.523 390.497 10.5646C390.241 9.66921 390.256 9.52131 390.622 9.35381C390.839 9.25361 391.046 9.26421 391.161 9.38301ZM386.011 14.5885C386.213 14.6499 386.278 14.7774 386.31 15.1597C386.336 15.4738 386.291 15.6607 386.178 15.7296C386.138 15.7511 385.481 15.8325 384.712 15.9092C383.399 16.0397 383.313 16.0513 383.197 16.1524C383.009 16.3145 382.535 17.1826 382.549 17.3511C382.566 17.565 382.637 17.5912 383.07 17.5558C383.525 17.5185 383.548 17.5258 384.267 18.0213C385.223 18.6716 386.418 19.6643 386.606 19.9558C386.717 20.1346 386.685 20.2426 386.406 20.5816C385.935 21.1609 385.807 21.1622 385.249 20.6077C384.795 20.1592 383.502 19.092 383.223 18.9316C383.007 18.8073 382.749 18.7276 382.621 18.7381C382.408 18.7601 382.405 18.6687 382.615 21.5199C382.832 24.4438 382.833 24.352 382.564 24.4704C382.374 24.5547 381.835 24.585 381.647 24.5225C381.548 24.494 381.46 24.4233 381.427 24.3573C381.394 24.2867 381.302 23.3824 381.19 22.017C381.08 20.6834 380.985 19.7472 380.953 19.6812C380.88 19.5222 380.717 19.5447 380.491 19.7511C380.388 19.842 380.146 20.068 379.945 20.2494C379.442 20.7076 378.709 21.2716 378.242 21.5528C377.71 21.8804 377.644 21.8629 377.139 21.2903C376.871 20.9823 376.814 20.7945 376.946 20.6601C376.983 20.6157 377.275 20.4269 377.584 20.2366C378.653 19.5763 379.282 19.0299 380.069 18.0628C380.639 17.3609 381.072 16.6701 381.057 16.4835C381.037 16.2332 381.059 16.2313 378.818 16.392C376.745 16.5388 376.745 16.5388 376.655 16.4454C376.489 16.2666 376.422 15.6718 376.548 15.4691C376.576 15.421 376.649 15.36 376.706 15.3324C376.772 15.2995 378.546 15.1359 381.331 14.9077C385.182 14.5878 385.874 14.5402 386.011 14.5885Z" fill="#00FFFF" style="mix-blend-mode:difference"/>
<path d="M379.496 5.54104C379.415 5.61184 379.415 5.61184 379.505 5.70071C379.654 5.83973 380.33 6.09592 380.512 6.08101C380.708 6.06498 380.817 5.99649 381.018 5.77377C381.178 5.5912 381.201 5.4839 381.102 5.40033C381.014 5.32511 379.603 5.44524 379.496 5.54104Z" fill="#00FFFF" style="mix-blend-mode:difference"/>
<path d="M389.494 7.21476C389.386 7.3519 389.416 7.49606 389.561 7.52091C389.7 7.54614 389.885 7.45311 389.913 7.34999C389.942 7.25142 389.783 7.1086 389.66 7.11867C389.606 7.12314 389.531 7.16589 389.494 7.21476Z" fill="#00FFFF" style="mix-blend-mode:difference"/>
<path d="M392.125 15.1049C392.027 15.1495 391.955 15.2745 391.964 15.3883C391.977 15.5385 392.153 15.6204 392.417 15.5988C392.704 15.5753 392.842 15.4722 392.827 15.2902C392.813 15.1127 392.659 15.029 392.395 15.0552C392.282 15.0645 392.16 15.0882 392.125 15.1049Z" fill="#00FFFF" style="mix-blend-mode:difference"/>
<path d="M389.927 16.8614C389.768 16.9385 389.711 17.1402 389.76 17.4478C389.814 17.7778 389.892 17.8356 390.258 17.8285C390.528 17.8247 390.564 17.8127 390.66 17.6994C390.756 17.5861 390.765 17.5304 390.745 17.2801C390.712 16.8841 390.627 16.7903 390.288 16.7997C390.151 16.8018 389.988 16.8288 389.927 16.8614Z" fill="#00FFFF" style="mix-blend-mode:difference"/>
<path d="M392.248 16.6712C392.09 16.7484 392.033 16.9501 392.081 17.2577C392.135 17.5786 392.213 17.6455 392.557 17.6403C392.804 17.6384 392.84 17.6263 392.936 17.513C393.032 17.3997 393.041 17.344 393.02 17.0937C392.989 16.7068 392.898 16.6088 392.587 16.6114C392.463 16.6124 392.31 16.6387 392.248 16.6712Z" fill="#00FFFF" style="mix-blend-mode:difference"/>
<path d="M394.496 16.4824C394.356 16.5535 394.316 16.685 394.342 16.9991C394.361 17.2312 394.384 17.2934 394.487 17.3766C394.591 17.4644 394.647 17.4781 394.902 17.4573C395.147 17.4371 395.219 17.413 395.316 17.3133C395.426 17.2035 395.432 17.1664 395.405 16.8891C395.367 16.4844 395.278 16.4046 394.881 16.4188C394.721 16.4273 394.549 16.4506 394.496 16.4824Z" fill="#00FFFF" style="mix-blend-mode:difference"/>
<path d="M392.207 20.4685C392.015 20.5346 391.965 20.5937 391.998 20.7238C392.027 20.8543 392.155 20.908 392.662 20.9948C393.117 21.072 393.248 21.043 393.448 20.8066C393.599 20.6294 393.615 20.4951 393.494 20.4089C393.402 20.3477 392.438 20.3899 392.207 20.4685Z" fill="#00FFFF" style="mix-blend-mode:difference"/>
<path d="M369.04 21.8801C368.99 21.7501 368.97 21.5801 368.98 21.4901C369 21.3401 368.98 21.3301 368.38 21.2701C368.03 21.2301 367.62 21.1601 367.46 21.1001C367.29 21.0501 366.49 20.9001 365.69 20.7701C364.89 20.6401 364.05 20.4901 363.83 20.4201C363.61 20.3601 363.05 20.2601 362.59 20.1901C362.13 20.1201 361.13 19.9801 360.36 19.8801C360.16 19.8501 359.84 19.8101 359.45 19.7701V18.1701C359.75 18.1701 360.06 18.1701 360.32 18.1501C360.89 18.1301 361.42 18.1001 361.48 18.0901C361.54 18.0701 361.97 18.0501 362.41 18.0501C362.86 18.0401 363.28 18.0201 363.34 18.0101C363.4 18.0101 363.57 17.9801 363.72 17.9701C363.86 17.9701 364.07 17.8701 364.18 17.7901C364.29 17.7001 364.42 17.6301 364.46 17.6401C364.5 17.6401 364.61 17.5801 364.71 17.5001C364.81 17.4201 364.9 17.2901 364.91 17.2101C364.91 17.1301 364.85 16.9701 364.75 16.8601C364.64 16.7401 364.4 16.5501 364.22 16.4201C364.03 16.3001 363.61 16.1201 363.3 16.0201C362.98 15.9201 362.71 15.8301 362.69 15.8101C362.67 15.7901 362.33 15.6601 361.94 15.5201C361.55 15.3701 361.08 15.2401 360.91 15.2201C360.74 15.2001 360.53 15.1501 360.45 15.1101C360.36 15.0601 359.94 14.9801 359.52 14.9101C359.5 14.9101 359.48 14.9101 359.47 14.9101V10.8901C359.47 10.8101 359.5 10.7801 359.61 10.6701C359.7 10.5801 359.76 10.5001 359.76 10.4401C359.76 10.3001 359.52 10.2601 359.42 10.2601L358.28 10.1701C358.06 10.1501 357.86 10.3301 357.86 10.5501V14.8401C357.63 14.8401 357.38 14.8301 357.11 14.8101C356.97 14.8101 356.85 14.8001 356.72 14.7901V12.5801C356.72 12.4701 356.77 12.3701 356.85 12.2901C356.94 12.2001 357 12.1401 357 12.0701C357 11.9001 356.66 11.8901 356.55 11.8901L355.58 11.8601C355.36 11.8601 355.18 12.0301 355.18 12.2401V14.6201C355.02 14.6001 354.84 14.5701 354.65 14.5501C354.59 14.4201 354.46 14.3301 354.31 14.3301H352.92C352.47 14.2801 352.03 14.2301 351.63 14.1901C351.58 14.1201 351.54 14.0401 351.54 13.9501V13.6601C351.54 13.4501 351.71 13.2801 351.92 13.2801H353.77C353.98 13.2801 354.16 13.1101 354.16 12.9001V12.1801C354.16 11.9701 353.99 11.8001 353.77 11.8001H351.92C351.71 11.8001 351.54 11.6301 351.54 11.4201V10.6701C351.68 10.5501 351.82 10.4501 351.82 10.3301C351.82 10.2101 351.56 10.1601 351.46 10.1601L350.32 10.1101C350.1 10.1101 349.92 10.2801 349.92 10.4901V11.3701C349.92 11.5801 349.75 11.7501 349.53 11.7501H349.01L349.15 11.3801C349.32 11.3201 349.49 11.3201 349.49 11.1601C349.49 11.0201 349.26 10.9701 349.21 10.9601L348.1 10.7401C347.91 10.7001 347.72 10.8201 347.66 11.0001C347.34 11.9401 346.98 12.6401 346.69 13.1301C346.56 13.3401 346.68 13.6201 346.92 13.6901L347.48 13.8501C346.76 13.8001 346.11 13.7701 345.94 13.7901C345.75 13.8101 345.35 13.8201 345 13.8201V12.7301C345 12.5201 344.83 12.3501 344.61 12.3501H341.37C341.1 12.3501 340.91 12.0801 341.01 11.8301C341.05 11.7201 341.1 11.5801 341.18 11.3801C341.26 11.1801 341.27 11.1601 341.5 11.0601C341.56 11.0301 341.61 10.9801 341.61 10.9101C341.61 10.8401 341.53 10.7901 341.46 10.7601L340.19 10.3401C339.99 10.2701 339.77 10.3801 339.71 10.5801C339.24 11.9201 338.81 12.8201 338.4 13.5101C338.08 13.4901 337.68 13.4601 337.25 13.4301C337.31 13.3601 337.37 13.2901 337.42 13.2201C337.64 12.9401 337.65 12.9101 337.9 12.9001C337.92 12.9001 338.07 12.8701 338.07 12.7301C338.07 12.7001 338.05 12.6101 337.96 12.5601L336.89 11.9101C336.71 11.8001 336.47 11.8601 336.36 12.0401C336.14 12.4001 335.89 12.8001 335.53 13.3201C335.14 13.3001 334.78 13.2701 334.46 13.2501C334.96 12.6001 335.13 12.3301 335.83 11.2901C335.86 11.2401 335.91 11.2101 336.11 11.1201C336.17 11.0901 336.2 11.0401 336.2 11.0001C336.2 10.9701 336.17 10.9101 336.09 10.8601L335.09 10.3201C334.89 10.2101 334.65 10.3001 334.56 10.5001C334.23 11.2401 333.89 11.8901 333.32 12.7101C333.18 12.5901 333.04 12.4801 332.8 12.3101L332.08 13.2801C332.02 13.2801 331.95 13.2801 331.9 13.2801C331.61 13.2901 331.03 13.3201 330.6 13.3401C330.17 13.3601 329.55 13.4101 329.21 13.4501C328.88 13.4901 328.53 13.5201 328.43 13.5101C328.33 13.5001 328.09 13.5101 327.9 13.5601C327.71 13.6001 327.31 13.6201 327 13.6101C326.7 13.6101 326.31 13.6001 326.15 13.6101C326.08 13.6101 325.95 13.6101 325.81 13.6101C327.07 12.7701 327.99 12.1001 328.74 11.5401C328.92 11.4101 328.95 11.1601 328.81 10.9901L328.47 10.5801C328.4 10.4901 328.29 10.4401 328.17 10.4401H318.82C318.61 10.4401 318.44 10.6101 318.44 10.8201V11.6701C318.44 11.8801 318.61 12.0501 318.82 12.0501H324.12C324.48 12.0501 324.64 12.5001 324.37 12.7301C324.18 12.8901 324.02 13.0101 323.88 13.1101C323.77 13.1901 323.62 13.2001 323.49 13.1401C322.57 12.7001 322.12 12.4901 321.79 12.3301C321.61 12.2401 321.39 12.3201 321.29 12.4901L320.87 13.2501C320.79 13.4001 320.82 13.5701 320.92 13.6901C320.57 13.6801 320.06 13.6601 319.5 13.6301C318.55 13.5801 317.42 13.5101 316.99 13.4801C316.56 13.4601 315.98 13.4401 315.69 13.4501C315.57 13.4501 315.45 13.4501 315.32 13.4701C315.49 13.4301 315.62 13.2901 315.62 13.1001V12.4601C315.62 12.2501 315.45 12.0801 315.23 12.0801H312.11C312.22 11.9401 312.68 11.1601 312.73 11.1301C312.78 11.1001 312.98 11.0501 313.01 11.0401C313.1 11.0101 313.13 10.9601 313.13 10.9001C313.13 10.8401 313.08 10.7601 313.02 10.7501L311.39 10.2701C311.21 10.2201 311.01 10.3101 310.93 10.4801C310.66 11.0801 310.46 11.4101 310.13 11.9101C310.06 12.0201 309.94 12.0801 309.81 12.0801H307L307.57 11.8001C307.08 11.0601 306.73 10.6101 306.5 10.3201C306.39 10.1801 306.2 10.1401 306.05 10.2101L305.11 10.6201C304.88 10.7201 304.81 11.0101 304.96 11.2101C305.03 11.2901 305.09 11.3801 305.15 11.4601C305.34 11.7101 305.15 12.0701 304.84 12.0701H302.69C302.48 12.0701 302.31 12.2401 302.31 12.4501V13.0901C302.31 13.3001 302.48 13.4801 302.7 13.4801H304.71C304.23 13.4801 303.74 13.4801 303.3 13.4801C302.16 13.4801 301.01 13.4801 300.74 13.4801C300.47 13.4701 300.23 13.4901 300.19 13.5301C300.14 13.5601 299.68 13.5401 299.17 13.4901C298.93 13.4601 298.69 13.4501 298.49 13.4401V13.2001C298.49 12.9901 298.32 12.8201 298.1 12.8201H294.71V12.2801H299.9C300.11 12.2801 300.28 12.1101 300.28 11.9001V11.3501C300.28 11.1401 300.11 10.9701 299.9 10.9701H294.71V10.6801C294.71 10.6001 294.77 10.5601 294.8 10.5401C294.94 10.4301 294.97 10.4201 294.97 10.3201C294.97 10.2201 294.86 10.2001 294.79 10.1801L293.39 10.0001C293.16 9.9701 292.96 10.1501 292.96 10.3801V10.5701C292.96 10.7801 292.79 10.9501 292.57 10.9501H287.75C287.54 10.9501 287.37 11.1201 287.37 11.3301V11.8801C287.37 12.0901 287.54 12.2601 287.75 12.2601H292.95V12.8001H289.55C289.34 12.8001 289.16 12.9701 289.16 13.1801V14.0101C289 14.0501 288.83 14.0801 288.7 14.1101C288.39 14.1701 288.04 14.2301 287.92 14.2401C287.78 14.2601 287.7 14.3201 287.66 14.4401C287.63 14.5501 287.65 14.7001 287.73 14.8301C287.81 14.9601 287.85 15.0801 287.85 15.1201C287.85 15.1601 287.91 15.2901 287.98 15.4101C288.06 15.5401 288.16 15.6201 288.2 15.6001C288.25 15.6001 288.4 15.6501 288.56 15.7501C288.78 15.8901 288.89 15.9101 289.04 15.8701C289.16 15.8501 289.31 15.7301 289.39 15.6101C289.43 15.6301 289.48 15.6401 289.53 15.6401H292.93V16.2301H288.64C288.43 16.2301 288.25 16.4001 288.25 16.6101V17.0401C288.25 17.2501 288.42 17.4201 288.64 17.4201H292.95V17.9001C292.95 17.9001 292.92 17.9001 292.91 17.9001C292.76 17.9401 292.34 17.9701 291.98 17.9601C291.62 17.9601 291.16 17.9601 290.98 17.9701C290.79 17.9901 290.09 18.0001 289.42 17.9901C289.17 17.9901 288.91 17.9901 288.66 17.9901H287.75C287.67 17.9901 287.6 18.0201 287.53 18.0601C287.3 18.0901 287.02 18.1101 286.84 18.1101C286.59 18.1201 286.3 18.1401 286.17 18.1501C286.04 18.1601 285.74 18.1901 285.49 18.2301C285.24 18.2601 284.82 18.3401 284.54 18.4101C284.27 18.4801 283.91 18.5401 283.75 18.5501C283.59 18.5501 283.36 18.6201 283.23 18.6901C283.1 18.7701 283.01 18.8801 283 19.0001C283 19.1001 283.04 19.2501 283.12 19.3201C283.19 19.4001 283.35 19.4901 283.46 19.5201C283.57 19.5501 283.97 19.5901 284.36 19.6001C284.75 19.6101 285.15 19.6001 285.25 19.5801C285.36 19.5501 285.5 19.5601 285.6 19.6101C285.7 19.6601 285.86 19.6701 286 19.6401C286.14 19.6101 286.49 19.5801 286.77 19.5701C287.05 19.5701 287.39 19.5501 287.51 19.5401C287.64 19.5401 287.97 19.5301 288.25 19.5401C288.53 19.5501 288.87 19.5401 289 19.5001C289.13 19.4701 289.42 19.4301 289.64 19.4301C289.86 19.4301 290.34 19.3801 290.69 19.3601C291.04 19.3201 291.45 19.3001 291.59 19.3001C291.73 19.3001 292.01 19.3001 292.2 19.2701C292.4 19.2501 292.59 19.2401 292.63 19.2701C292.66 19.2901 292.8 19.2701 292.96 19.2201V19.8601H288.64C288.43 19.8601 288.25 20.0301 288.25 20.2401V20.6701C288.25 20.8801 288.42 21.0501 288.64 21.0501H292.95V21.5101C292.95 21.7901 292.72 21.8701 292.47 21.8701C292.35 21.8701 292.2 21.8701 292.04 21.8501C291.75 21.8301 291.54 22.1301 291.66 22.3901L292.05 23.2401C292.11 23.3801 292.26 23.4701 292.41 23.4701C294.34 23.4301 294.69 23.0201 294.69 22.1701V21.4501C294.69 21.2401 294.86 21.0701 295.08 21.0701H297.85V21.4901H299.08C299.29 21.4901 299.47 21.3201 299.47 21.1101V19.6001C299.47 19.3901 299.64 19.2201 299.86 19.2201H299.95C300.12 19.2201 300.26 19.1001 300.31 18.9501C300.53 18.9501 300.8 18.9701 301.09 18.9901C301.78 19.0401 302.32 19.0401 302.51 18.9901C302.64 18.9601 302.86 18.9601 303.15 18.9701V22.9001C303.15 23.1101 303.32 23.2801 303.54 23.2801H304.4C304.61 23.2801 304.79 23.1101 304.79 22.9001V20.5601C304.79 20.3501 304.96 20.1801 305.18 20.1801H306.69C306.9 20.1801 307.08 20.3501 307.08 20.5601V21.3001C307.08 21.5601 306.96 21.6901 306.65 21.6901C306.65 21.6901 306.49 21.6901 306.24 21.6701C305.96 21.6501 305.75 21.9201 305.85 22.1901L306.19 23.1001C306.25 23.2501 306.4 23.3601 306.56 23.3501C307.78 23.3201 308.75 23.0401 308.75 21.6801V18.9801C308.83 18.9901 308.91 19.0001 308.98 19.0001C309.14 19.0001 309.46 19.0001 309.69 18.9801C309.75 18.9801 309.82 18.9801 309.9 18.9701V20.2301C309.9 20.4401 310.07 20.6101 310.29 20.6101H311.18C311.39 20.6101 311.57 20.4401 311.57 20.2301V18.9901C311.67 19.0101 311.8 19.0201 311.94 19.0301C312.27 19.0401 312.56 19.0301 312.69 18.9601C312.82 18.8901 312.93 18.8701 312.96 18.9001C312.97 18.9001 313.01 18.9101 313.05 18.9101V21.0401C313.05 21.4601 312.9 21.5801 312.36 21.5801C312.04 21.5801 311.76 21.5501 311.44 21.5201L312.15 23.0201C312.22 23.1601 312.36 23.2401 312.51 23.2401C314.23 23.2101 314.84 22.9701 314.84 21.5301V18.9301C315.2 18.9301 315.51 18.9301 315.54 18.9101C315.58 18.8801 315.92 18.8501 316.29 18.8401C316.66 18.8301 317.16 18.8101 317.41 18.8001C317.66 18.8001 318.15 18.8201 318.52 18.8401C318.89 18.8701 319.27 18.8701 319.37 18.8401C319.48 18.8101 319.81 18.8201 320.11 18.8601C320.41 18.9001 320.71 18.9101 320.75 18.9001C320.8 18.8801 321.19 18.8401 321.61 18.8301C321.92 18.8201 322.41 18.8001 322.83 18.7901V20.9801C322.83 21.4101 322.71 21.7501 322.24 21.7501C322.03 21.7501 321.75 21.7101 321.48 21.6701C321.19 21.6201 320.95 21.9101 321.06 22.1901L321.42 23.1201C321.48 23.2701 321.62 23.3701 321.78 23.3701C324.02 23.3501 324.65 23.2201 324.65 21.3601V18.8301C324.77 18.8301 324.9 18.8301 325.04 18.8301C325.24 18.8301 325.54 18.8401 325.86 18.8501C325.89 18.9101 325.93 18.9701 325.99 19.0101L326.82 19.5401C326.99 19.6501 327.2 19.6101 327.33 19.4601C327.48 19.2701 327.64 19.0701 327.81 18.8501C327.93 18.8501 328.03 18.8501 328.08 18.8501C328.24 18.8501 328.64 18.8501 328.97 18.8701C329.3 18.8701 329.73 18.8501 329.94 18.8101C330.15 18.7701 330.59 18.7401 330.91 18.7701C331.24 18.7901 331.78 18.8201 332.13 18.8301C332.21 18.8301 332.31 18.8301 332.41 18.8301C332.38 18.8801 332.37 18.9301 332.36 18.9901C332.26 20.2201 332.08 21.0001 331.87 21.6701C331.8 21.8801 331.93 22.1001 332.14 22.1601L332.73 22.3201C332.93 22.3701 333.13 22.2601 333.2 22.0701C333.54 21.1301 333.62 20.3701 333.69 19.2201C333.86 19.1001 333.94 19.0301 333.94 18.9601C333.94 18.9001 333.86 18.8601 333.79 18.8401C333.95 18.8401 334.08 18.8201 334.17 18.8101V22.9701C334.17 23.1801 334.34 23.3501 334.55 23.3501H335.35C335.56 23.3501 335.73 23.1801 335.73 22.9701V18.7101C335.94 18.7101 336.2 18.7101 336.5 18.7201C336.45 18.7901 336.43 18.8801 336.44 18.9801C336.54 19.7301 336.67 20.3801 336.89 21.2101C336.94 21.4101 337.15 21.5401 337.36 21.4801L337.89 21.3401C338.1 21.2801 338.22 21.0701 338.16 20.8601C338.01 20.3601 337.83 19.6601 337.69 18.7601C337.83 18.7601 337.95 18.7601 338.02 18.7601C338.22 18.7401 338.98 18.7601 339.68 18.8201C339.9 18.8301 340.14 18.8501 340.36 18.8601C340.36 18.8601 340.36 18.8701 340.36 18.8801C340.43 19.0901 340.64 19.2001 340.85 19.1301L341.46 18.9301C341.46 18.9301 341.47 18.9301 341.48 18.9301C341.77 18.9501 342.25 18.9701 342.55 18.9701C342.89 18.9701 343.06 18.9901 343.12 19.0401C343.03 19.6301 342.93 20.1201 342.82 20.4801C342.53 21.4501 342.22 21.5701 341.73 21.5701C341.48 21.5701 341.24 21.5601 341.02 21.5401C340.73 21.5201 340.52 21.8201 340.64 22.0901L341.1 23.0601C341.16 23.1901 341.3 23.2801 341.45 23.2801H341.87C342.87 23.2801 343.7 23.0801 344.13 21.8501C344.38 21.1501 344.58 20.2001 344.72 19.1701C345.28 19.2401 346.13 19.3501 347.24 19.4701V22.2301C347.24 22.4401 347.41 22.6101 347.63 22.6101H348.47C348.68 22.6101 348.86 22.4401 348.86 22.2301V19.6401C349.24 19.6801 349.6 19.7201 349.94 19.7601V23.0001C349.94 23.2101 350.11 23.3801 350.33 23.3801H351.18C351.39 23.3801 351.56 23.2101 351.56 23.0001V19.9401C351.82 19.9701 351.99 19.9901 352 19.9901C352.02 19.9901 352.29 20.0201 352.66 20.0501V20.6101C352.66 20.9101 352.51 21.0001 352.22 21.0301C351.96 21.0601 351.82 21.3501 351.93 21.5801L352.24 22.2301C352.31 22.3801 352.48 22.4701 352.65 22.4401C353.61 22.2801 354.29 22.0901 354.29 21.2101V20.1801C354.56 20.1801 354.66 20.1801 354.7 20.1301C354.77 20.0401 354.84 20.0501 355.23 20.1601C355.25 20.1601 355.28 20.1701 355.3 20.1801C355.37 20.2701 355.47 20.3301 355.6 20.3301H355.97H355.99C356.1 20.3401 356.21 20.3301 356.31 20.3301H356.37C356.42 20.3301 356.47 20.3201 356.52 20.3001C356.64 20.2701 356.75 20.2901 356.94 20.3701C357.12 20.4501 357.31 20.4901 357.45 20.4701C357.58 20.4501 357.71 20.4701 357.75 20.4901C357.76 20.5001 357.82 20.5201 357.9 20.5301V21.3601C357.9 21.8401 357.51 21.8401 357.34 21.8401C357.29 21.8401 357.08 21.8401 356.79 21.8201C356.5 21.8101 356.3 22.1201 356.43 22.3801L356.87 23.2201C356.94 23.3501 357.08 23.4301 357.23 23.4301C358.81 23.3801 359.49 23.2601 359.49 21.7901V20.6801C359.8 20.7201 360.27 20.7901 360.78 20.8601C361.56 20.9701 362.29 21.0701 362.4 21.0701C362.52 21.0701 362.68 21.1301 362.76 21.1901C362.85 21.2401 363.13 21.3201 363.39 21.3701C363.65 21.4101 364.11 21.4801 364.39 21.5301C364.68 21.5801 364.96 21.6501 365.01 21.6801C365.06 21.7101 365.31 21.7601 365.58 21.8001C365.84 21.8401 366.2 21.9401 366.37 22.0401C366.55 22.1201 366.87 22.3601 367.1 22.5501C367.32 22.7401 367.59 22.9301 367.69 22.9701C367.83 23.0201 367.95 22.9901 368.18 22.8501C368.35 22.7401 368.53 22.6701 368.57 22.6701C368.61 22.6701 368.73 22.6301 368.84 22.5701C368.95 22.5101 369.07 22.3701 369.1 22.2801C369.14 22.1801 369.13 22.0201 369.07 21.8801H369.04ZM360 16.2501C360.17 16.2801 360.22 16.3101 360.2 16.4501C360.19 16.5801 360.11 16.6401 359.84 16.7201C359.72 16.7501 359.58 16.7701 359.46 16.7801V16.1501C359.7 16.1901 359.92 16.2301 360.01 16.2401L360 16.2501ZM357.81 15.9101C357.81 15.9101 357.84 15.9101 357.86 15.9101V16.9701C357.86 16.9701 357.8 16.9701 357.78 16.9701C357.48 16.9701 357.07 16.9901 356.72 17.0101V15.7701C357.11 15.8101 357.54 15.8601 357.81 15.8901V15.9101ZM355.18 17.1401C354.95 17.1601 354.6 17.1801 354.3 17.2001C354.29 17.2001 354.27 17.2001 354.25 17.2001V17.1501C354.25 16.9401 354.08 16.7701 353.86 16.7701H351.91C351.7 16.7701 351.52 16.6001 351.52 16.3901V16.2001C351.52 15.9901 351.69 15.8101 351.9 15.8101H354.29C354.46 15.8101 354.6 15.7001 354.65 15.5501C354.82 15.5701 354.99 15.5901 355.17 15.6201V17.1401H355.18ZM348.18 13.7401C348.23 13.6301 348.27 13.5501 348.3 13.4801C348.36 13.3401 348.5 13.2601 348.65 13.2601H349.52C349.73 13.2601 349.91 13.4301 349.91 13.6401V13.9301C349.91 13.9301 349.9 13.9901 349.89 14.0201C349.7 14.0101 349.57 14.0001 349.55 14.0101C349.52 14.0201 348.83 13.9801 348 13.9101C348.07 13.8701 348.14 13.8201 348.17 13.7401H348.18ZM322.71 14.5901H320.76C320.87 14.5701 321.01 14.5501 321.14 14.5501C321.3 14.5501 321.62 14.5501 321.84 14.5601C322.06 14.5601 322.4 14.5701 322.58 14.5601C322.6 14.5601 322.64 14.5601 322.66 14.5601C322.68 14.5601 322.69 14.5801 322.71 14.5901ZM325.28 14.5601C325.28 14.5601 325.37 14.5601 325.41 14.5601C325.59 14.5601 325.83 14.5701 325.98 14.5801H325.25L325.27 14.5501L325.28 14.5601ZM315.05 13.4801C314.96 13.4801 314.89 13.4901 314.83 13.5001C314.69 13.5201 314.24 13.5001 313.73 13.4801H315.06H315.05ZM304.79 14.4401H304C304 14.4401 304.06 14.4401 304.08 14.4401C304.24 14.4201 304.55 14.4201 304.79 14.4401ZM307.06 16.2601C307.06 16.4701 306.89 16.6401 306.67 16.6401H305.16C304.95 16.6401 304.77 16.4701 304.77 16.2601V16.1801C304.77 15.9701 304.94 15.8001 305.16 15.8001H306.67C306.88 15.8001 307.06 15.9701 307.06 16.1801V16.2601ZM297.85 17.6401C297.71 17.6401 297.58 17.6401 297.47 17.6601C297.28 17.6801 296.78 17.7301 296.35 17.7701C295.92 17.8101 295.36 17.8401 295.12 17.8501C295.02 17.8501 294.87 17.8501 294.7 17.8501V17.4401H297.86V17.6301L297.85 17.6401ZM294.69 14.3901C294.69 14.3901 294.71 14.3901 294.73 14.3901C295.18 14.4001 295.68 14.4301 295.84 14.4601C296 14.4901 296.3 14.4901 296.51 14.4801C296.61 14.4701 296.74 14.4601 296.89 14.4601V14.6201H294.7V14.4001L294.69 14.3901ZM292.89 14.6101C292.89 14.6101 292.93 14.6001 292.95 14.5901V14.6101H292.89ZM297.85 19.8901H294.69V19.2901C294.69 19.2901 294.69 19.2901 294.7 19.2901C294.82 19.2801 294.94 19.2501 295 19.2201H297.85V19.8801V19.8901ZM301.89 17.6301C301.4 17.6301 300.55 17.6301 300 17.6101C299.82 17.6101 299.64 17.6001 299.47 17.5901V16.6201C299.47 16.4101 299.3 16.2401 299.08 16.2401H294.69V15.6501H298.08C298.29 15.6501 298.47 15.4801 298.47 15.2701V14.4701C298.76 14.4701 299.07 14.4501 299.19 14.4001C299.36 14.3401 299.47 14.3401 299.6 14.4001C299.71 14.4501 299.98 14.4801 300.3 14.4801C300.59 14.4801 301.21 14.4601 301.68 14.4501C302.15 14.4301 302.82 14.4401 303.16 14.4501C303.24 14.4501 303.33 14.4501 303.42 14.4501C303.27 14.5001 303.16 14.6401 303.16 14.8101V17.6101C302.7 17.6101 302.22 17.6101 301.9 17.6101L301.89 17.6301ZM311.52 17.4701V15.1001C311.52 15.0401 311.55 15.0201 311.77 14.8701C311.82 14.8401 311.89 14.7801 311.89 14.6901C311.89 14.6101 311.81 14.5201 311.69 14.5201L310.26 14.4501C310.04 14.4401 309.86 14.6101 309.86 14.8301V17.5101C309.5 17.5101 309.07 17.5301 308.72 17.5501V14.8201C308.72 14.6101 308.55 14.4401 308.33 14.4401H305.79C305.96 14.4101 306.15 14.3801 306.25 14.3401C306.44 14.2801 306.54 14.2801 306.66 14.3501C306.77 14.4201 306.87 14.4301 307.01 14.3901C307.12 14.3601 307.28 14.3401 307.39 14.3601C307.49 14.3701 307.92 14.3801 308.35 14.3901C308.78 14.3901 309.3 14.3601 309.51 14.3201C309.72 14.2801 309.99 14.2601 310.11 14.2701C310.23 14.2801 310.67 14.3101 311.08 14.3301C311.5 14.3501 311.98 14.3301 312.16 14.3001C312.37 14.2601 312.5 14.2601 312.52 14.3001C312.54 14.3401 312.69 14.4001 312.88 14.4301C312.92 14.4301 312.98 14.4301 313.04 14.4401C313.02 14.4801 313.01 14.5301 313.01 14.5801V17.4601C312.44 17.4601 311.86 17.4601 311.53 17.4601L311.52 17.4701ZM322.08 17.4301C321.73 17.4101 321.4 17.4001 321.36 17.4301C321.32 17.4501 321.08 17.4501 320.84 17.4301C320.6 17.4101 320.26 17.4101 320.08 17.4301C319.91 17.4501 319.48 17.4601 319.11 17.4301C318.76 17.4201 318.07 17.3901 317.58 17.3701C317.09 17.3701 316.31 17.3501 315.84 17.3701C315.46 17.3701 315.04 17.3901 314.79 17.4101V14.8901C314.79 14.8901 314.9 14.7201 315.01 14.6301C315.04 14.5901 315.08 14.5401 315.09 14.4801C315.2 14.4801 315.31 14.4801 315.44 14.4901C315.77 14.4901 316.05 14.4901 316.07 14.4701C316.09 14.4701 316.38 14.4601 316.7 14.4701C317.03 14.4701 317.43 14.4701 317.59 14.4801C317.75 14.4801 318.2 14.4901 318.59 14.5101C318.97 14.5301 319.46 14.5601 319.67 14.5701C319.88 14.5801 320.08 14.5701 320.12 14.5501C320.15 14.5201 320.25 14.5501 320.34 14.5901H317.5C317.29 14.5901 317.12 14.7601 317.12 14.9701V15.8801C317.12 16.0901 317.29 16.2601 317.5 16.2601H322.4C322.61 16.2601 322.79 16.4301 322.79 16.6401V17.4401C322.71 17.4501 322.42 17.4401 322.09 17.4201L322.08 17.4301ZM324.61 17.5101V16.6501C324.61 16.4401 324.78 16.2701 325 16.2701H326.79C327.11 16.2701 327.28 16.6301 327.1 16.8801C326.95 17.0901 326.81 17.2801 326.67 17.4501C326.64 17.4501 326.59 17.4501 326.56 17.4501C326.23 17.4801 325.61 17.5101 325.18 17.5001C325.02 17.5001 324.82 17.5001 324.61 17.5001V17.5101ZM330.08 17.4801C329.93 17.4801 329.39 17.4701 328.8 17.4501C329.16 16.9301 329.58 16.3101 330.09 15.5201C330.19 15.3701 330.17 15.1601 330.04 15.0401L329.71 14.7101C329.64 14.6401 329.54 14.6001 329.44 14.6001H326.78C326.85 14.6001 326.93 14.6001 327 14.5901C327.37 14.5701 327.81 14.5301 327.97 14.4901C328.14 14.4601 328.43 14.4501 328.64 14.4601C328.84 14.4701 329.09 14.4801 329.19 14.4701C329.29 14.4701 329.43 14.4501 329.49 14.4301C329.55 14.4101 329.79 14.3801 330.02 14.3501C330.24 14.3301 330.58 14.3201 330.76 14.3201C330.94 14.3201 331.41 14.3201 331.8 14.3201C332.16 14.3201 332.55 14.3001 332.72 14.2801C333.04 14.5401 333.37 14.8401 333.73 15.2101C333.86 15.3501 333.87 15.5701 333.74 15.7201C333.64 15.8401 333.54 15.9501 333.46 16.0501C333.39 16.1301 333.29 16.1801 333.18 16.1801C332.79 16.2001 332.51 16.2001 332.16 16.2001C331.92 16.2001 331.74 16.4201 331.78 16.6501L331.94 17.6001C331.06 17.5301 330.23 17.4701 330.06 17.4701L330.08 17.4801ZM333.88 17.7301C333.79 17.7301 333.69 17.7301 333.59 17.7201C333.63 17.7201 333.67 17.7201 333.71 17.7101C333.77 17.7101 333.83 17.7101 333.89 17.7401L333.88 17.7301ZM335.78 17.7001C335.78 17.7001 335.74 17.7001 335.73 17.7001C335.76 17.5401 335.87 17.4101 336.03 17.3901C336.2 17.3601 336.4 17.3201 336.72 17.2401C336.77 17.4501 336.79 17.6101 336.82 17.7301C336.79 17.7301 336.77 17.7301 336.76 17.7201C336.73 17.7001 336.3 17.6901 335.78 17.7001V17.7001ZM343.16 17.7501C342.91 17.7601 342.48 17.7801 342.19 17.8001C341.99 17.8101 341.75 17.8201 341.56 17.8201C341.31 17.0801 341.07 16.5001 340.83 16.0001C340.74 15.8201 340.53 15.7301 340.34 15.8101L339.67 16.0801C339.46 16.1601 339.37 16.4001 339.47 16.6001C339.63 16.9401 339.82 17.3601 340.01 17.8501C339.87 17.8501 339.73 17.8301 339.61 17.8201C339.29 17.7801 338.93 17.7801 338.81 17.8201C338.69 17.8501 338.49 17.8701 338.35 17.8501C338.21 17.8401 338.09 17.7901 338.08 17.7501C338.08 17.7001 337.86 17.6901 337.45 17.7201C337.43 17.7201 337.41 17.7201 337.39 17.7201L337.93 17.5701C338.12 17.5201 338.24 17.3201 338.21 17.1301C338.08 16.4301 337.9 15.7701 337.68 15.1001C337.62 14.9101 337.42 14.8001 337.23 14.8501L336.59 15.0001C336.38 15.0501 336.25 15.2701 336.31 15.4801C336.31 15.5001 336.32 15.5301 336.33 15.5501C336.39 15.7801 336.23 16.0101 336 16.0401C335.61 16.0801 335.34 16.1001 334.97 16.1301C335.5 15.5601 336.02 14.9601 336.53 14.3601C336.64 14.3701 336.75 14.3801 336.87 14.3901C337.21 14.4301 337.55 14.4501 337.8 14.4701C337.69 14.6301 337.72 14.8501 337.88 14.9801L338.5 15.4801C338.66 15.6101 338.91 15.5901 339.04 15.4201C339.25 15.1601 339.43 14.8801 339.65 14.5401C339.72 14.5401 339.8 14.5601 339.84 14.5801C339.93 14.6301 340.02 14.6501 340.06 14.6401C340.1 14.6301 340.68 14.6401 341.38 14.6601C342.08 14.6901 342.79 14.7001 342.97 14.7001C343.07 14.7001 343.24 14.7001 343.45 14.7201V15.0901C343.45 16.0501 343.4 16.9601 343.33 17.7701C343.29 17.7701 343.24 17.7701 343.21 17.7701L343.16 17.7501ZM347.04 17.5701C346.66 17.6001 346.14 17.6301 345.86 17.6201C345.59 17.6201 345.27 17.6401 345.15 17.6701C345.1 17.6801 345 17.6901 344.89 17.7001C344.97 16.8501 345.01 15.9901 345.01 15.2201V14.7301C345.17 14.7201 345.51 14.7301 345.89 14.7701C346.09 14.7901 346.38 14.8101 346.69 14.8401V15.4101C346.69 15.6201 346.86 15.7901 347.08 15.7901H349.56C349.77 15.7901 349.95 15.9601 349.95 16.1701V16.3601C349.95 16.5701 349.78 16.7401 349.56 16.7401H347.64C347.43 16.7401 347.25 16.9101 347.25 17.1201V17.5301C347.18 17.5301 347.11 17.5401 347.05 17.5501L347.04 17.5701ZM349.43 18.5301C349.19 18.5001 349.02 18.4401 349 18.3801C349 18.3601 349.01 18.3301 349.03 18.3101C349.09 18.2701 349.16 18.2401 349.24 18.2401H349.55C349.76 18.2401 349.94 18.4101 349.94 18.6201V18.6401C349.77 18.5901 349.59 18.5501 349.44 18.5401L349.43 18.5301ZM351.54 18.8601V18.6201C351.54 18.4101 351.71 18.2401 351.92 18.2401H352.25C352.46 18.2401 352.64 18.4101 352.64 18.6201V18.9901C352.19 18.9401 351.82 18.9001 351.54 18.8601V18.8601ZM354.26 19.1701V18.1201C354.47 18.1201 354.65 18.1201 354.77 18.1201C354.89 18.1201 355.04 18.1201 355.19 18.1201V19.2601C355.13 19.2601 355.08 19.2501 355.02 19.2401C354.76 19.2101 354.51 19.1801 354.26 19.1601V19.1701ZM356.72 19.4401V18.1801C356.72 18.1801 356.77 18.1801 356.8 18.1801C357.18 18.2101 357.57 18.2101 357.65 18.1801C357.68 18.1701 357.76 18.1601 357.86 18.1601V19.5701C357.49 19.5301 357.11 19.4901 356.72 19.4401V19.4401Z" fill="#00FFFF" style="mix-blend-mode:difference"/>
</svg>
