<svg width="80" height="31" viewBox="0 0 80 31" fill="none" xmlns="http://www.w3.org/2000/svg">
<path d="M14.5759 6.77555L13.1039 5.28755C13.0079 5.39955 12.7519 5.63955 12.5439 5.63955L1.77588 5.63955L1.77588 7.36755L11.7919 7.36755C10.9439 8.82355 9.87188 9.91155 8.87988 10.8235L10.3679 12.0875C12.1119 10.3755 13.7919 7.92755 14.5759 6.77555ZM9.03988 8.03955C9.03988 7.91155 8.99188 7.91155 8.65588 7.89555L6.78388 7.79955C6.91188 11.1275 6.15988 13.6715 2.78388 16.0075L4.49588 17.0155C5.34388 16.3915 8.04788 14.3915 8.59188 9.81555C8.62388 9.60755 8.68788 8.48755 8.71988 8.45555C8.73588 8.39155 8.92788 8.23155 8.95988 8.18355C9.00788 8.11955 9.03988 8.08755 9.03988 8.03955Z" fill="#00FFFF" style="mix-blend-mode:difference"/>
<path d="M29.6479 11.9276L29.6479 9.89555L18.2719 9.89555L18.2719 11.9276L29.6479 11.9276Z" fill="#00FFFF" style="mix-blend-mode:difference"/>
<path d="M46.0159 7.46356L40.9919 7.46355C41.0879 6.34355 41.1039 5.95955 41.1039 5.28755C41.1039 5.06355 41.1039 5.04755 41.2479 4.90355C41.4079 4.75955 41.4239 4.74355 41.4239 4.66355C41.4239 4.56755 41.4079 4.48755 40.9759 4.45555L39.0879 4.29555C39.1359 5.91155 39.0559 6.79155 39.0079 7.46355L34.3679 7.46355L34.3679 9.22355L38.7519 9.22355C38.6079 9.95955 38.3199 11.2716 37.4559 12.7116C36.2079 14.7756 34.6399 15.6716 33.7599 16.1676L35.3759 17.4476C36.2559 16.8876 37.8559 15.8796 39.1999 13.5116C40.1919 11.7516 40.5599 10.0396 40.7359 9.22355L44.0159 9.22355C43.9519 11.5916 43.5359 14.1516 42.9119 14.9836C42.6879 15.3036 42.4639 15.4316 41.9039 15.4316C41.6479 15.4316 41.3119 15.3996 40.2719 15.2556L41.1839 17.3196C42.9919 17.3036 43.8079 17.0956 44.4319 16.2636C45.0559 15.4156 45.9199 12.5676 46.0159 7.46356Z" fill="#00FFFF" style="mix-blend-mode:difference"/>
<path d="M61.0079 5.81556C61.0079 5.68756 60.7999 5.47956 60.7359 5.43156L59.3439 4.27956C56.9279 7.14356 53.4079 9.76756 50.0639 11.0796L51.4559 12.5036C53.3279 11.6236 54.3999 10.9516 55.4879 10.2316L55.4879 17.2716L57.4879 17.2716L57.4879 8.74356C58.4319 7.99156 59.3279 7.15956 60.1279 6.24756C60.3519 6.00756 60.3839 5.97556 60.6239 5.95956C60.9439 5.94356 61.0079 5.92756 61.0079 5.81556Z" fill="#00FFFF" style="mix-blend-mode:difference"/>
<path d="M79.1839 4.39156C78.8799 3.99156 78.3839 3.38356 77.8239 2.93556L77.0399 3.63956C77.5679 4.05556 77.9679 4.55156 78.3519 5.07956L79.1839 4.39156ZM76.7839 4.45556C76.5919 4.19956 76.0319 3.51156 75.4559 3.04756L74.6719 3.75156C75.2639 4.23156 75.7599 4.85556 75.9999 5.15956L76.7839 4.45556ZM77.6959 6.96756L76.1279 5.49556C75.9359 5.62356 75.7759 5.75156 75.5999 5.75156L66.5439 5.75156L66.5439 7.60756L75.0719 7.60756C73.1999 13.1276 69.5679 14.9836 67.7919 15.8156L69.4719 17.1916C70.5919 16.5836 72.4479 15.5596 74.1599 13.3996C75.7439 11.3836 76.4639 9.41556 77.0719 7.76756C77.1999 7.43156 77.4399 7.19156 77.6959 6.96756Z" fill="#00FFFF" style="mix-blend-mode:difference"/>
<path d="M0 30L80 30" stroke="#00FFFF" stroke-width="1.5" style="mix-blend-mode:difference"/>
</svg>
