<svg width="56" height="31" viewBox="0 0 56 31" fill="none" xmlns="http://www.w3.org/2000/svg">
<path d="M10.7202 7.14431L10.7202 5.32031L0.240234 5.32031L0.240234 7.14431L4.40023 7.14431L4.40023 17.0003L6.56023 17.0003L6.56023 7.14431L10.7202 7.14431Z" fill="#00FFFF" style="mix-blend-mode:difference"/>
<path d="M23.6414 8.39232L21.4974 8.39232L20.2014 13.5123L19.9614 15.2883L19.6894 13.5123L18.4254 8.39232L16.5214 8.39231L15.2574 13.5123L14.9854 15.2883L14.7454 13.5123L13.4494 8.39231L11.3054 8.39231L13.8174 17.0003L16.0094 17.0003L17.2414 11.8803L17.4654 10.0563L17.7054 11.8803L18.9374 17.0003L21.1294 17.0003L23.6414 8.39232Z" fill="#00FFFF" style="mix-blend-mode:difference"/>
<path d="M28.2562 7.40032L28.2562 5.32032L26.1442 5.32032L26.1442 7.40032L28.2562 7.40032ZM28.2562 17.0003L28.2562 8.39232L26.1442 8.39232L26.1442 17.0003L28.2562 17.0003Z" fill="#00FFFF" style="mix-blend-mode:difference"/>
<path d="M34.1729 10.0883L34.1729 8.39232L32.6849 8.39232L32.6849 5.97632L30.5729 5.97632L30.5729 8.39232L29.3889 8.39232L29.3889 10.0883L30.5729 10.0883L30.5729 14.9683C30.5729 16.3283 31.1489 17.0003 32.8289 17.0003L34.1249 17.0003L34.1249 15.4003L33.2129 15.4003C32.8449 15.4003 32.6849 15.2243 32.6849 14.8403L32.6849 10.0883L34.1729 10.0883Z" fill="#00FFFF" style="mix-blend-mode:difference"/>
<path d="M40.1797 10.0883L40.1797 8.39232L38.6917 8.39232L38.6917 5.97632L36.5797 5.97632L36.5797 8.39232L35.3957 8.39232L35.3957 10.0883L36.5797 10.0883L36.5797 14.9683C36.5797 16.3283 37.1557 17.0003 38.8357 17.0003L40.1317 17.0003L40.1317 15.4003L39.2197 15.4003C38.8517 15.4003 38.6917 15.2243 38.6917 14.8403L38.6917 10.0883L40.1797 10.0883Z" fill="#00FFFF" style="mix-blend-mode:difference"/>
<path d="M48.7946 13.3203C48.7466 12.1043 48.6666 10.9363 47.9306 9.81632C47.2906 8.84032 46.1866 8.18432 44.7626 8.18432C42.6346 8.18432 40.7306 9.64032 40.7306 12.7123C40.7306 15.6563 42.4906 17.2083 44.8266 17.2083C47.6266 17.2083 48.3626 15.1763 48.6346 14.4563L46.5066 14.4563C46.1546 15.4003 45.3226 15.4963 44.9386 15.4963C43.2426 15.4963 42.9226 13.7523 42.8426 13.3203L48.7946 13.3203ZM46.5066 11.9443L42.8426 11.9443C42.9386 11.4003 43.2106 9.91232 44.7786 9.91232C45.8346 9.91232 46.4586 10.6003 46.5066 11.9443Z" fill="#00FFFF" style="mix-blend-mode:difference"/>
<path d="M55.0292 10.2963L55.0292 8.18432C53.2692 8.23232 52.6932 8.72832 51.8292 10.2803L51.9892 9.01632L51.9892 8.39232L49.8772 8.39232L49.8772 17.0003L51.9892 17.0003L51.9892 12.3763C51.9892 11.3203 52.8052 10.2963 54.2932 10.2963L55.0292 10.2963Z" fill="#00FFFF" style="mix-blend-mode:difference"/>
<path d="M0 30L56 30" stroke="#00FFFF" stroke-width="1.5" style="mix-blend-mode:difference"/>
</svg>
