<svg width="50" height="31" viewBox="0 0 50 31" fill="none" xmlns="http://www.w3.org/2000/svg">
<path d="M13.9361 11.96C13.2961 11.4 12.7041 10.872 11.4401 10.04C10.0641 9.144 9.53608 8.936 8.72008 8.584L7.96808 9.768L7.96808 5.56C7.96808 5.48 8.38408 5.224 8.38408 5.128C8.38408 4.936 8.04808 4.888 8.00008 4.872L6.08008 4.536L6.08008 17.208L7.96808 17.208L7.96808 10.296C9.88808 11.096 11.4881 12.392 12.6721 13.496L13.9361 11.96Z" fill="#00FFFF" style="mix-blend-mode:difference"/>
<path d="M24.6881 10.424C24.5121 9.768 24.1921 8.776 23.6001 7.832L22.1761 8.376C22.6721 9.192 23.0401 10.008 23.3121 10.968L24.6881 10.424ZM28.8961 8.712C28.8961 8.6 28.7841 8.488 28.5761 8.424L27.0081 7.944C26.4001 12.472 24.2241 14.664 21.1201 16.2L22.4001 17.336C23.9361 16.44 27.1681 14.568 28.3681 9.656C28.5281 9.032 28.5441 8.968 28.6881 8.888C28.8641 8.824 28.8961 8.808 28.8961 8.712ZM21.8561 11.192C21.5841 10.296 21.1681 9.464 20.6241 8.616L19.1521 9.176C19.6801 9.992 20.0961 10.84 20.3681 11.752L21.8561 11.192Z" fill="#00FFFF" style="mix-blend-mode:difference"/>
<path d="M47.6321 4.52001C47.6321 3.68801 46.9761 3.00001 46.1281 3.00001C45.2961 3.00001 44.6401 3.68801 44.6401 4.52001C44.6401 5.36801 45.3121 6.05601 46.1281 6.05601C46.9601 6.05601 47.6321 5.38401 47.6321 4.52001ZM45.7121 7.00001L44.1281 5.56001C43.9681 5.68801 43.7921 5.81601 43.6001 5.81601L34.5441 5.816L34.5441 7.67201L43.0721 7.67201C42.7841 8.50401 42.2881 9.96001 41.0721 11.592C39.1201 14.232 36.8481 15.288 35.7601 15.784L37.5041 17.192C38.6081 16.584 40.5281 15.512 42.2401 13.288C43.7601 11.32 44.4481 9.49601 45.0561 7.88001C45.2161 7.46401 45.4561 7.22401 45.7121 7.00001ZM47.0081 4.52001C47.0081 5.06401 46.5921 5.43201 46.1281 5.43201C45.6801 5.43201 45.2481 5.04801 45.2481 4.52001C45.2481 4.00801 45.6641 3.62401 46.1281 3.62401C46.6081 3.62401 47.0081 4.00801 47.0081 4.52001Z" fill="#00FFFF" style="mix-blend-mode:difference"/>
<path d="M0 30L49.5 30" stroke="#00FFFF" stroke-width="1.5" style="mix-blend-mode:difference"/>
</svg>
