<svg width="112" height="29" viewBox="0 0 112 29" fill="none" xmlns="http://www.w3.org/2000/svg">
<path d="M13.0202 10.66L13.0202 9.26003L10.0242 9.26003C10.5702 8.26603 10.6962 7.98603 10.9482 7.37003C10.9762 7.30003 10.9902 7.30003 11.1442 7.23003C11.2002 7.20203 11.2422 7.16003 11.2422 7.11803C11.2422 6.99203 11.0742 6.90803 11.0042 6.88003L9.98217 6.43203L12.4042 6.43203L12.4042 5.07403L7.78417 5.07403L7.78417 4.27603C7.78417 4.23403 7.82617 4.19203 7.92417 4.10803C7.99417 4.05203 8.05017 3.99603 8.05017 3.92603C8.05017 3.82803 7.95217 3.78603 7.79817 3.77203L6.27217 3.60403L6.27217 5.07403L1.65217 5.07403L1.65217 6.43203L3.75217 6.43203L2.67417 6.93603C3.02417 7.51003 3.52817 8.65803 3.78017 9.26003L0.966171 9.26003L0.966171 10.66L5.19417 10.66C4.21417 12.102 2.75817 13.348 0.82617 14.398L2.01617 15.532C4.10217 14.244 5.27817 13.012 6.27217 11.584L6.27217 15.686L7.78417 15.686L7.78417 11.808C8.47017 12.788 9.54817 14.244 11.7462 15.42L12.8942 14.216C11.2142 13.362 9.66017 12.256 8.66617 10.66L13.0202 10.66ZM9.68817 6.43203C9.40817 7.25803 9.14217 8.01403 8.65217 8.82603L9.36617 9.26003L7.78417 9.26003L7.78417 6.43203L9.68817 6.43203ZM6.27217 9.26003L4.28417 9.26003L5.18017 8.77003C4.92817 8.01403 4.36817 6.81003 4.08817 6.43203L6.27217 6.43203L6.27217 9.26003Z" fill="#FF0000"/>
<path d="M25.8302 8.32203L25.8302 3.91203L20.1462 3.91203L20.1462 8.32203L25.8302 8.32203ZM24.4722 5.67603L21.5042 5.67603L21.5042 5.08803L24.4722 5.08803L24.4722 5.67603ZM24.4722 7.27203L21.5042 7.27203L21.5042 6.67003L24.4722 6.67003L24.4722 7.27203ZM26.8802 9.98803L26.8802 8.85403L19.1102 8.85403L19.1102 9.98803L20.4402 9.98803C20.1602 10.576 19.9082 10.954 19.4182 11.486L19.4182 10.324C18.9562 10.492 18.4942 10.632 18.0042 10.772L18.0042 7.91603L19.4602 7.91603L19.4602 6.47403L18.0042 6.47403L18.0042 4.40203C18.0042 4.30403 18.1162 4.23403 18.1862 4.19203C18.2702 4.12203 18.3402 4.06603 18.3402 3.96803C18.3402 3.87003 18.2422 3.82803 18.1582 3.81403L16.5342 3.68803L16.5342 6.47403L15.1762 6.47403L15.1762 7.91603L16.5342 7.91603L16.5342 11.178C16.0442 11.304 15.4282 11.458 14.9802 11.542L15.2322 13.11C15.2462 13.18 15.3022 13.208 15.3302 13.208C15.4002 13.208 15.4422 13.152 15.5962 12.984C15.6802 12.886 15.7362 12.872 16.2542 12.746C16.6602 12.648 18.2002 12.13 19.1522 11.766C18.6062 12.242 18.3122 12.452 17.9202 12.69L19.0262 13.432C19.6282 12.984 20.1882 12.494 20.9022 11.654L21.5462 11.654C21.2662 12.088 20.0622 13.614 18.2142 14.454L19.3062 15.224C20.0902 14.72 20.8322 14.146 21.5042 13.488C22.2602 12.76 22.6802 12.004 22.8762 11.654L23.5762 11.654C23.0722 12.606 21.9102 14.118 20.3842 15.014L21.4342 15.714C22.2602 15.168 22.7502 14.678 23.1562 14.244L23.7162 15.616C24.8362 15.602 25.5222 15.406 25.9422 14.748C26.4322 13.978 26.6982 11.92 26.7122 10.492L21.6162 10.492C21.7002 10.352 21.7982 10.156 21.8682 9.98803L26.8802 9.98803ZM25.2282 11.654C25.1862 12.396 25.1162 13.138 24.7802 13.796C24.6262 14.104 24.4022 14.188 24.0382 14.188C23.9822 14.188 23.6882 14.188 23.2822 14.104C24.3182 12.942 24.6402 12.242 24.8922 11.654L25.2282 11.654Z" fill="#FF0000"/>
<path d="M33.0542 13.418L33.0542 4.73803L28.9662 4.73803L28.9662 13.964L30.3802 13.964L30.3802 12.956L31.6262 12.956L31.6262 13.418L33.0542 13.418ZM31.6262 8.11203L30.3802 8.11203L30.3802 6.12403L31.6262 6.12403L31.6262 8.11203ZM31.6262 11.57L30.3802 11.57L30.3802 9.51203L31.6262 9.51203L31.6262 11.57ZM41.0062 8.91003L41.0062 7.59403L37.8562 7.59403L37.8562 6.46003L40.4182 6.46003L40.4182 5.14403L37.8562 5.14403L37.8562 4.20603C37.8562 4.13603 37.8842 4.13603 38.0242 4.02403C38.0942 3.98203 38.1642 3.89803 38.1642 3.82803C38.1642 3.71603 38.0802 3.67403 37.9822 3.67403L36.2602 3.59003L36.2602 5.14403L33.9222 5.14403L33.9222 6.46003L36.2602 6.46003L36.2602 7.59403L33.5302 7.59403L33.5302 8.91003L37.8842 8.91003L37.8842 10.254L33.5582 10.254L33.5582 11.57L37.8842 11.57L37.8842 13.642C37.8842 14.076 37.6182 14.132 37.3102 14.132C37.2682 14.132 36.8762 14.132 36.3862 14.076L37.0722 15.742C38.8502 15.728 39.4522 15.476 39.4522 14.37L39.4522 11.57L40.9502 11.57L40.9502 10.254L39.4522 10.254L39.4522 8.91003L41.0062 8.91003ZM36.4842 13.18C35.7422 12.34 35.1682 11.92 34.8322 11.668L33.9502 12.704C34.2442 12.928 34.7902 13.32 35.5742 14.244L36.4842 13.18Z" fill="#FF0000"/>
<path d="M54.6982 9.65204C54.6982 6.53004 52.4022 4.55604 49.4902 4.55604C45.8782 4.55603 43.3162 7.38403 43.3162 10.492C43.3162 12.998 45.6122 14.258 46.1162 14.258C46.8442 14.258 47.4882 13.082 47.9082 12.214C48.3702 11.276 49.1962 9.31604 49.6442 5.98404C50.1622 6.02604 51.1422 6.08204 52.0242 6.92204C52.8082 7.66404 53.0322 8.60204 53.0322 9.37204C53.0322 9.98804 52.8782 11.15 52.0242 12.158C51.1702 13.18 50.1342 13.474 49.5042 13.656L50.5402 15.098C51.2962 14.79 52.7522 14.188 53.8022 12.634C54.3202 11.864 54.6982 10.884 54.6982 9.65204ZM47.9782 6.23604C47.6982 8.42003 46.4942 12.074 45.7662 12.074C45.5142 12.074 44.8702 11.486 44.8702 10.352C44.8702 9.49803 45.2762 8.19603 46.2702 7.24404C46.9422 6.58604 47.5722 6.37603 47.9782 6.23604Z" fill="#FF0000"/>
<path d="M69.0622 15.392L69.0622 13.88L65.6602 13.88L65.6602 11.052L68.0962 11.052L68.0962 9.44204L65.6602 9.44204L65.6602 7.23004L68.9502 7.23004L68.9502 5.66204L65.2122 5.66204L65.8142 5.15804C65.4222 4.59804 64.9882 4.10804 64.1762 3.53404L62.9162 4.50004C63.3922 4.86404 63.7282 5.18604 64.1062 5.66204L60.8302 5.66204L60.8302 7.23004L63.8542 7.23004L63.8542 9.44204L61.3202 9.44204L61.3202 11.052L63.8542 11.052L63.8542 13.88L60.3962 13.88L60.3962 15.392L69.0622 15.392ZM60.9422 4.89204C60.2842 4.30404 59.6402 3.92604 58.7022 3.54804L57.9042 4.89204C58.8282 5.29804 59.4162 5.64804 60.0602 6.18004L60.9422 4.89204ZM59.7802 8.22404C59.0242 7.59404 58.3102 7.21604 57.3162 6.85204L56.6022 8.28004C57.7082 8.72804 58.3522 9.09204 59.0242 9.56804L59.7802 8.22404ZM60.5082 11.444L59.2622 10.422C58.2962 12.76 57.3162 14.062 56.7842 14.734L57.7642 15.448C57.8902 15.546 58.1982 15.742 58.3382 15.742C58.4642 15.742 58.5342 15.63 58.5342 15.518C58.5342 15.476 58.5062 15.252 58.5062 15.196C58.5062 15.14 58.5342 15.098 58.7722 14.692C58.8562 14.552 59.7662 13.012 60.5082 11.444Z" fill="#FF0000"/>
<path d="M81.1722 12.368L81.1722 8.22404L72.8842 8.22404L72.8842 12.368L76.9442 12.368L76.4542 12.788C76.8882 13.222 77.1262 13.502 77.4482 13.936L78.5262 13.32C78.3722 13.11 78.2042 12.872 77.6582 12.368L81.1722 12.368ZM79.5902 9.76404L74.4242 9.76404L74.4242 9.12004L79.5902 9.12004L79.5902 9.76404ZM79.5902 11.332L74.4242 11.332L74.4242 10.674L79.5902 10.674L79.5902 11.332ZM83.0762 7.65004L83.0762 6.43204L79.8282 6.43204C80.0242 6.09604 80.0942 5.91404 80.2202 5.60604L82.2082 5.60604L82.2082 4.45804L77.8262 4.45804L77.8262 4.20604C77.8262 4.16404 77.8402 4.13604 77.9242 4.08004C77.9802 4.05204 78.0642 3.99604 78.0642 3.94004C78.0642 3.88404 77.9802 3.81404 77.7842 3.80004L76.1182 3.70204L76.1182 4.45804L71.7362 4.45804L71.7362 5.60604L73.7242 5.60604C73.8222 5.78804 73.9482 6.02604 74.0882 6.43204L70.9382 6.43204L70.9382 7.65004L83.0762 7.65004ZM78.4562 5.60604C78.3442 5.92804 78.2602 6.11004 78.1062 6.43204L75.8662 6.43204C75.7822 6.23604 75.6422 5.94204 75.4322 5.60604L78.4562 5.60604ZM82.9502 14.636C82.4322 13.866 82.0122 13.348 81.4242 12.732L80.3182 13.362C80.8082 13.88 81.2282 14.384 81.9142 15.406L82.9502 14.636ZM80.3042 13.964L79.0442 13.39C79.0442 13.992 78.9042 14.426 78.5262 14.426L76.0902 14.426C75.8242 14.426 75.7402 14.23 75.7402 14.104L75.7402 13.166C75.7402 13.124 75.7962 13.068 75.8662 12.998C75.9082 12.956 75.9502 12.914 75.9502 12.858C75.9502 12.802 75.8662 12.732 75.6562 12.718L74.4522 12.662L74.4522 14.72C74.4522 15.364 74.7602 15.672 75.8102 15.672L78.9602 15.672C80.1222 15.672 80.2622 14.3 80.3042 13.964ZM73.8922 13.516C73.8922 13.418 73.7522 13.32 73.6682 13.278L72.6462 12.676C72.2682 13.376 71.6242 14.258 71.0922 14.846L72.2262 15.56C72.6882 14.986 73.1082 14.37 73.5002 13.74C73.5422 13.67 73.5562 13.67 73.7102 13.642C73.7522 13.642 73.8922 13.628 73.8922 13.516Z" fill="#FF0000"/>
<path d="M96.8942 11.92L96.8942 10.828L96.1102 10.828L96.1102 9.20404L91.7702 9.20404L91.7702 8.67204L95.2002 8.67204L95.2002 6.09604L91.7702 6.09604L91.7702 5.60604L96.8382 5.60604L96.8382 4.40204L91.7702 4.40204L91.7702 4.13604C91.7702 4.06604 91.8262 4.02404 91.8542 4.01004C91.9802 3.91204 92.0082 3.89804 92.0082 3.81404C92.0082 3.73004 91.9102 3.70204 91.8402 3.68804L90.1882 3.47804L90.1882 4.40204L85.1062 4.40204L85.1062 5.60604L90.1882 5.60604L90.1882 6.09604L86.7442 6.09604L86.7442 8.67204L90.1882 8.67204L90.1882 9.20404L85.9182 9.20404L85.9182 10.296L90.1882 10.296L90.1882 10.828L85.1062 10.828L85.1062 11.92L90.1882 11.92L90.1882 12.522L85.9182 12.522L85.9182 13.614L90.1882 13.614L90.1882 14.034C90.1882 14.286 89.9782 14.356 89.7542 14.356C89.5162 14.356 89.1242 14.314 88.7602 14.286L89.4602 15.812C91.4202 15.798 91.7702 15.434 91.7702 14.622L91.7702 13.614L94.6402 13.614L94.6402 13.992L96.1102 13.992L96.1102 11.92L96.8942 11.92ZM93.7582 7.72004L91.7702 7.72004L91.7702 7.04804L93.7582 7.04804L93.7582 7.72004ZM90.1882 7.72004L88.1722 7.72004L88.1722 7.04804L90.1882 7.04804L90.1882 7.72004ZM94.6402 10.828L91.7702 10.828L91.7702 10.296L94.6402 10.296L94.6402 10.828ZM94.6402 12.522L91.7702 12.522L91.7702 11.92L94.6402 11.92L94.6402 12.522Z" fill="#FF0000"/>
<path d="M111.244 14.608C109.802 14.216 109.06 13.698 108.57 13.32L110.32 13.32L110.32 6.40405L107.478 6.40405C107.8 5.73205 107.884 5.45205 107.968 5.20005L111.034 5.20005L111.034 3.94005L103.404 3.94005L103.404 4.82204L98.9382 4.82204L98.9382 6.18004L100.436 6.18004L100.436 11.192C99.8762 11.304 99.2602 11.43 98.6722 11.514L98.9382 13.068C98.9382 13.124 98.9662 13.18 99.0502 13.18C99.1202 13.18 99.1342 13.166 99.2462 13.054C99.3302 12.97 99.4142 12.942 99.6942 12.886C101.514 12.48 103.026 12.004 103.628 11.808L103.628 10.408C103.082 10.59 102.34 10.772 102.032 10.842L102.032 6.18004L103.698 6.18004L103.698 5.20004L106.26 5.20005C106.148 5.69005 106.05 5.97005 105.896 6.40405L104.146 6.40405L104.146 13.32L105.224 13.32C104.524 14.02 103.824 14.426 102.774 14.79L103.866 15.826C104.86 15.406 105.588 14.846 106.218 14.314C106.372 14.188 106.4 14.188 106.61 14.16C106.624 14.16 106.75 14.132 106.75 14.048C106.75 14.006 106.736 13.964 106.708 13.936L106.078 13.32L108.416 13.32L107.576 14.132C108.486 14.986 109.424 15.392 110.306 15.714L111.244 14.608ZM108.766 10.198L105.7 10.198L105.7 9.42805L108.766 9.42805L108.766 10.198ZM108.766 8.36405L105.7 8.36405L105.7 7.60805L108.766 7.60805L108.766 8.36405ZM108.766 12.074L105.7 12.074L105.7 11.262L108.766 11.262L108.766 12.074Z" fill="#FF0000"/>
<path d="M0 28L112 28" stroke="#FF0000" stroke-width="1.5"/>
</svg>
