<svg width="55" height="26" viewBox="0 0 55 26" fill="none" xmlns="http://www.w3.org/2000/svg">
<path d="M2.36414 13L2.36414 4.23999L0.744141 4.23999L0.744139 13L2.36414 13Z" fill="#FF0000"/>
<path d="M9.27361 13L9.27361 8.66799C9.27361 7.20399 8.48161 6.38799 7.11361 6.38799C5.85361 6.38799 5.37361 7.19199 5.12161 7.63599L5.18161 7.08399L5.18161 6.54399L3.59761 6.54399L3.59761 13L5.18161 13L5.18161 9.23199C5.18161 8.04399 5.94961 7.71999 6.59761 7.71999C7.38961 7.71999 7.68961 8.19999 7.68961 8.91999L7.68961 13L9.27361 13Z" fill="#FF0000"/>
<path d="M15.4136 11.152C15.4136 10.588 15.1496 10.096 14.6936 9.77199C14.3216 9.51999 14.2616 9.48399 12.6536 8.87199C12.1496 8.67999 11.8496 8.57199 11.8496 8.24799C11.8496 8.00799 12.1016 7.64799 12.7376 7.64799C13.4216 7.64799 13.6256 8.05599 13.6616 8.52399L15.2456 8.52399C15.1736 7.79199 15.0536 7.45599 14.6576 7.05999C14.0816 6.49599 13.3136 6.38799 12.7736 6.38799C11.2976 6.38799 10.2656 7.26399 10.2656 8.34399C10.2656 9.51999 11.1536 9.83199 12.4736 10.312C13.4936 10.672 13.8176 10.816 13.8176 11.26C13.8176 11.896 13.0256 11.896 12.8936 11.896C11.9096 11.896 11.7776 11.2 11.7296 10.888L10.1456 10.888C10.2176 11.704 10.3616 12.028 10.7336 12.4C11.4056 13.072 12.3656 13.156 12.8216 13.156C14.2256 13.156 15.4136 12.412 15.4136 11.152Z" fill="#FF0000"/>
<path d="M19.4576 7.81599L19.4576 6.54399L18.3416 6.54399L18.3416 4.73199L16.7576 4.73199L16.7576 6.54399L15.8696 6.54399L15.8696 7.81599L16.7576 7.81599L16.7576 11.476C16.7576 12.496 17.1896 13 18.4496 13L19.4216 13L19.4216 11.8L18.7376 11.8C18.4616 11.8 18.3416 11.668 18.3416 11.38L18.3416 7.81599L19.4576 7.81599Z" fill="#FF0000"/>
<path d="M26.0747 13C25.7627 12.796 25.7147 12.484 25.7147 12.256L25.7147 8.70399C25.7147 7.03599 24.4187 6.38799 22.9307 6.38799C22.0667 6.38799 20.2787 6.65199 20.1587 8.65599L21.5867 8.65599C21.6227 8.34399 21.6587 8.19999 21.8387 8.01999C22.2467 7.61199 22.9307 7.62399 23.0747 7.62399C23.5667 7.62399 24.1187 7.77999 24.1187 8.29599C24.1187 8.89599 23.3387 9.02799 22.6427 9.12399C21.2027 9.32799 19.8707 9.77199 19.8707 11.26C19.8707 12.076 20.3507 13.156 22.1267 13.156C23.6387 13.156 24.0347 12.412 24.2147 12.064C24.2147 12.34 24.2267 12.76 24.4067 13L26.0747 13ZM24.2027 9.56799L24.1187 9.98799L24.1187 10.72C24.1187 11.62 23.1587 12.028 22.5107 12.028C21.9347 12.028 21.4907 11.668 21.4907 11.212C21.4907 10.432 22.3787 10.216 22.9787 10.12C23.6627 9.99999 23.9267 9.89199 24.2027 9.56799Z" fill="#FF0000"/>
<path d="M32.7667 7.552L32.7667 6.388C32.1187 6.388 31.9267 6.484 31.4467 7.024C31.2067 6.808 30.7027 6.388 29.5387 6.388C28.0627 6.388 26.8027 7.09599 26.8027 8.46399C26.8027 9.43599 27.3907 9.832 27.6907 10.024C27.3307 10.252 26.7427 10.624 26.7427 11.236C26.7427 11.824 27.2827 12.016 27.5947 12.124C27.3187 12.172 26.5507 12.304 26.5507 13.228C26.5507 14.284 27.7867 14.608 29.2987 14.608C31.3147 14.608 32.5747 13.996 32.5747 12.844C32.5747 12.424 32.4187 12.052 32.1667 11.8C31.6867 11.32 30.9667 11.248 29.3107 11.128C28.8787 11.092 28.3507 11.032 28.3507 10.732C28.3507 10.564 28.4707 10.48 28.7707 10.396C28.9387 10.42 29.1067 10.444 29.4547 10.444C31.3147 10.444 32.0707 9.436 32.0707 8.404C32.0707 8.176 32.0347 8.044 31.9987 7.924C32.3347 7.552 32.4787 7.552 32.7667 7.552ZM30.6427 8.428C30.6427 9.22 29.6827 9.268 29.4067 9.268C29.1187 9.268 28.2307 9.244 28.2307 8.488C28.2307 8.008 28.6267 7.58799 29.4787 7.58799C30.0907 7.58799 30.6427 7.816 30.6427 8.428ZM30.8587 12.928C30.8587 13.192 30.7627 13.432 29.5747 13.432C28.2427 13.432 28.2307 13.12 28.2307 12.916C28.2307 12.58 28.4347 12.484 28.8667 12.328C29.0227 12.34 29.7547 12.352 29.8987 12.364C30.3427 12.412 30.8587 12.532 30.8587 12.928Z" fill="#FF0000"/>
<path d="M37.2627 7.972L37.2627 6.388C35.9427 6.424 35.5107 6.796 34.8627 7.96L34.9827 7.012L34.9827 6.544L33.3987 6.544L33.3987 13L34.9827 13L34.9827 9.532C34.9827 8.74 35.5947 7.972 36.7107 7.972L37.2627 7.972Z" fill="#FF0000"/>
<path d="M43.8521 13C43.5401 12.796 43.4921 12.484 43.4921 12.256L43.4921 8.704C43.4921 7.036 42.1961 6.388 40.7081 6.388C39.8441 6.388 38.0561 6.652 37.9361 8.656L39.3641 8.656C39.4001 8.344 39.4361 8.2 39.6161 8.02C40.0241 7.612 40.7081 7.624 40.8521 7.624C41.3441 7.624 41.8961 7.78 41.8961 8.296C41.8961 8.896 41.1161 9.028 40.4201 9.124C38.9801 9.328 37.6481 9.772 37.6481 11.26C37.6481 12.076 38.1281 13.156 39.9041 13.156C41.4161 13.156 41.8121 12.412 41.9921 12.064C41.9921 12.34 42.0041 12.76 42.1841 13L43.8521 13ZM41.9801 9.568L41.8961 9.988L41.8961 10.72C41.8961 11.62 40.9361 12.028 40.2881 12.028C39.7121 12.028 39.2681 11.668 39.2681 11.212C39.2681 10.432 40.1561 10.216 40.7561 10.12C41.4401 10 41.7041 9.892 41.9801 9.568Z" fill="#FF0000"/>
<path d="M53.808 13L53.808 8.884C53.808 7.48 53.316 6.388 51.852 6.388C50.712 6.388 50.148 7.048 49.8 7.456C49.488 6.988 49.08 6.388 47.988 6.388C46.848 6.388 46.452 7.036 46.176 7.468L46.224 6.892L46.224 6.544L44.64 6.544L44.64 13L46.224 13L46.224 8.98C46.224 8.548 46.56 7.744 47.388 7.744C48.276 7.744 48.42 8.572 48.42 9.076L48.42 13L50.004 13L50.004 9.076C50.004 8.572 50.328 7.72 51.228 7.72C52.008 7.72 52.224 8.32 52.224 9.076L52.224 13L53.808 13Z" fill="#FF0000"/>
<path d="M0 25L55 25" stroke="#FF0000" stroke-width="1.5"/>
</svg>
