<svg width="33" height="31" viewBox="0 0 33 31" fill="none" xmlns="http://www.w3.org/2000/svg">
<path d="M8.22376 17L8.22376 11.224C8.22376 9.27195 7.16776 8.18395 5.34376 8.18395C3.66376 8.18395 3.02376 9.25595 2.68776 9.84795L2.76776 9.11195L2.76776 8.39195L0.655761 8.39195L0.65576 17L2.76776 17L2.76776 11.976C2.76776 10.392 3.79176 9.95995 4.65576 9.95995C5.71176 9.95995 6.11176 10.6 6.11176 11.56L6.11176 17L8.22376 17Z" fill="#FF0000"/>
<path d="M18.4264 12.728C18.4264 10.232 16.7944 8.18396 13.9304 8.18395C11.4824 8.18395 9.41839 9.89595 9.41839 12.76C9.41838 14.872 10.5544 17.208 13.8824 17.208C17.0824 17.208 18.4264 14.936 18.4264 12.728ZM16.2824 12.696C16.2824 13.768 15.9784 15.528 13.9944 15.528C12.4744 15.528 11.5784 14.312 11.5784 12.68C11.5784 10.792 12.7464 9.86395 13.9304 9.86395C15.1144 9.86396 16.2824 10.728 16.2824 12.696Z" fill="#FF0000"/>
<path d="M23.8805 10.088L23.8805 8.39196L22.3925 8.39196L22.3925 5.97596L20.2805 5.97596L20.2805 8.39195L19.0965 8.39195L19.0965 10.088L20.2805 10.088L20.2805 14.968C20.2805 16.328 20.8565 17 22.5365 17L23.8325 17L23.8325 15.4L22.9205 15.4C22.5525 15.4 22.3925 15.224 22.3925 14.84L22.3925 10.088L23.8805 10.088Z" fill="#FF0000"/>
<path d="M32.4954 13.32C32.4474 12.104 32.3674 10.936 31.6314 9.81596C30.9914 8.83996 29.8874 8.18396 28.4634 8.18396C26.3354 8.18396 24.4314 9.63996 24.4314 12.712C24.4314 15.656 26.1914 17.208 28.5274 17.208C31.3274 17.208 32.0634 15.176 32.3354 14.456L30.2074 14.456C29.8554 15.4 29.0234 15.496 28.6394 15.496C26.9434 15.496 26.6234 13.752 26.5434 13.32L32.4954 13.32ZM30.2074 11.944L26.5434 11.944C26.6394 11.4 26.9114 9.91196 28.4794 9.91196C29.5354 9.91196 30.1594 10.6 30.2074 11.944Z" fill="#FF0000"/>
<path d="M0 30L33 30" stroke="#FF0000" stroke-width="1.5"/>
</svg>
