<svg width="70" height="29" viewBox="0 0 70 29" fill="none" xmlns="http://www.w3.org/2000/svg">
<path d="M12.7542 6.05409L11.4662 4.75209C11.3822 4.85009 11.1582 5.06009 10.9762 5.06009L1.5542 5.06009L1.5542 6.57209L10.3182 6.57209C9.5762 7.84609 8.6382 8.79809 7.7702 9.59609L9.0722 10.7021C10.5982 9.20409 12.0682 7.06209 12.7542 6.05409ZM7.9102 7.16009C7.9102 7.04809 7.8682 7.04809 7.5742 7.03409L5.9362 6.95009C6.0482 9.86209 5.3902 12.0881 2.4362 14.1321L3.9342 15.0141C4.6762 14.4681 7.0422 12.7181 7.5182 8.71409C7.5462 8.53209 7.6022 7.55209 7.6302 7.52409C7.6442 7.46809 7.8122 7.32809 7.8402 7.28609C7.8822 7.23009 7.9102 7.20209 7.9102 7.16009Z" fill="#FF0000"/>
<path d="M25.9422 10.5621L25.9422 8.7841L15.9882 8.78409L15.9882 10.5621L25.9422 10.5621Z" fill="#FF0000"/>
<path d="M40.2642 6.6561L35.8682 6.6561C35.9522 5.6761 35.9662 5.3401 35.9662 4.7521C35.9662 4.5561 35.9662 4.5421 36.0922 4.4161C36.2322 4.2901 36.2462 4.2761 36.2462 4.2061C36.2462 4.1221 36.2322 4.0521 35.8542 4.0241L34.2022 3.8841C34.2442 5.2981 34.1742 6.0681 34.1322 6.6561L30.0722 6.6561L30.0722 8.1961L33.9082 8.1961C33.7822 8.8401 33.5302 9.9881 32.7742 11.2481C31.6822 13.0541 30.3102 13.8381 29.5402 14.2721L30.9542 15.3921C31.7242 14.9021 33.1242 14.0201 34.3002 11.9481C35.1682 10.4081 35.4902 8.9101 35.6442 8.1961L38.5142 8.1961C38.4582 10.2681 38.0942 12.5081 37.5482 13.2361C37.3522 13.5161 37.1562 13.6281 36.6662 13.6281C36.4422 13.6281 36.1482 13.6001 35.2382 13.4741L36.0362 15.2801C37.6182 15.2661 38.3322 15.0841 38.8782 14.3561C39.4242 13.6141 40.1802 11.1221 40.2642 6.6561Z" fill="#FF0000"/>
<path d="M53.3822 5.2141C53.3822 5.1021 53.2002 4.9201 53.1442 4.8781L51.9262 3.8701C49.8122 6.3761 46.7322 8.6721 43.8062 9.8201L45.0242 11.0661C46.6622 10.2961 47.6002 9.7081 48.5522 9.0781L48.5522 15.2381L50.3022 15.2381L50.3022 7.7761C51.1282 7.1181 51.9122 6.3901 52.6122 5.5921C52.8082 5.3821 52.8362 5.3541 53.0462 5.3401C53.3262 5.3261 53.3822 5.3121 53.3822 5.2141Z" fill="#FF0000"/>
<path d="M69.2862 3.9681C69.0202 3.6181 68.5862 3.0861 68.0962 2.6941L67.4102 3.3101C67.8722 3.6741 68.2222 4.1081 68.5582 4.5701L69.2862 3.9681ZM67.1862 4.0241C67.0182 3.8001 66.5282 3.1981 66.0242 2.7921L65.3382 3.4081C65.8562 3.8281 66.2902 4.3741 66.5002 4.6401L67.1862 4.0241ZM67.9842 6.2221L66.6122 4.9341C66.4442 5.0461 66.3042 5.1581 66.1502 5.1581L58.2262 5.1581L58.2262 6.7821L65.6882 6.7821C64.0502 11.6121 60.8722 13.2361 59.3182 13.9641L60.7882 15.1681C61.7682 14.6361 63.3922 13.7401 64.8902 11.8501C66.2762 10.0861 66.9062 8.3641 67.4382 6.9221C67.5502 6.6281 67.7602 6.4181 67.9842 6.2221Z" fill="#FF0000"/>
<path d="M0 28L70 28" stroke="#FF0000" stroke-width="1.5"/>
</svg>
