<svg width="42" height="26" viewBox="0 0 42 26" fill="none" xmlns="http://www.w3.org/2000/svg">
<path d="M8.04018 5.60799L8.04018 4.23999L0.180176 4.23999L0.180176 5.60799L3.30018 5.60799L3.30017 13L4.92017 13L4.92018 5.60799L8.04018 5.60799Z" fill="#FF0000"/>
<path d="M17.731 6.54399L16.123 6.54399L15.151 10.384L14.971 11.716L14.767 10.384L13.819 6.54399L12.391 6.54399L11.443 10.384L11.239 11.716L11.059 10.384L10.087 6.54399L8.47902 6.54399L10.363 13L12.007 13L12.931 9.15999L13.099 7.79199L13.279 9.15999L14.203 13L15.847 13L17.731 6.54399Z" fill="#FF0000"/>
<path d="M21.1922 5.79999L21.1922 4.23999L19.6082 4.23999L19.6082 5.79999L21.1922 5.79999ZM21.1922 13L21.1922 6.54399L19.6082 6.54399L19.6082 13L21.1922 13Z" fill="#FF0000"/>
<path d="M25.6296 7.81599L25.6296 6.54399L24.5136 6.54399L24.5136 4.73199L22.9296 4.73199L22.9296 6.54399L22.0416 6.54399L22.0416 7.81599L22.9296 7.81599L22.9296 11.476C22.9296 12.496 23.3616 13 24.6216 13L25.5936 13L25.5936 11.8L24.9096 11.8C24.6336 11.8 24.5136 11.668 24.5136 11.38L24.5136 7.81599L25.6296 7.81599Z" fill="#FF0000"/>
<path d="M30.1348 7.816L30.1348 6.544L29.0188 6.544L29.0188 4.732L27.4348 4.732L27.4348 6.54399L26.5468 6.54399L26.5468 7.816L27.4348 7.816L27.4348 11.476C27.4348 12.496 27.8668 13 29.1268 13L30.0988 13L30.0988 11.8L29.4148 11.8C29.1388 11.8 29.0188 11.668 29.0188 11.38L29.0188 7.816L30.1348 7.816Z" fill="#FF0000"/>
<path d="M36.596 10.24C36.56 9.328 36.5 8.452 35.948 7.612C35.468 6.88 34.64 6.388 33.572 6.388C31.976 6.388 30.548 7.48 30.548 9.784C30.548 11.992 31.868 13.156 33.62 13.156C35.72 13.156 36.272 11.632 36.476 11.092L34.88 11.092C34.616 11.8 33.992 11.872 33.704 11.872C32.432 11.872 32.192 10.564 32.132 10.24L36.596 10.24ZM34.88 9.208L32.132 9.208C32.204 8.8 32.408 7.684 33.584 7.684C34.376 7.684 34.844 8.2 34.88 9.208Z" fill="#FF0000"/>
<path d="M41.2719 7.972L41.2719 6.388C39.9519 6.424 39.5199 6.796 38.8719 7.96L38.9919 7.012L38.9919 6.544L37.4079 6.544L37.4079 13L38.9919 13L38.9919 9.532C38.9919 8.74 39.6039 7.972 40.7199 7.972L41.2719 7.972Z" fill="#FF0000"/>
<path d="M0 25L42 25" stroke="#FF0000" stroke-width="1.5"/>
</svg>
