<svg width="128" height="31" viewBox="0 0 128 31" fill="none" xmlns="http://www.w3.org/2000/svg">
<path d="M14.8798 12.04L14.8798 10.44L11.4558 10.44C12.0798 9.30403 12.2238 8.98403 12.5118 8.28003C12.5438 8.20003 12.5598 8.20003 12.7358 8.12003C12.7998 8.08803 12.8478 8.04003 12.8478 7.99203C12.8478 7.84803 12.6558 7.75203 12.5758 7.72003L11.4078 7.20803L14.1758 7.20803L14.1758 5.65603L8.89585 5.65603L8.89585 4.74403C8.89585 4.69603 8.94385 4.64803 9.05585 4.55203C9.13585 4.48803 9.19985 4.42403 9.19985 4.34403C9.19985 4.23203 9.08785 4.18403 8.91185 4.16803L7.16785 3.97603L7.16785 5.65603L1.88785 5.65603L1.88785 7.20803L4.28785 7.20803L3.05585 7.78403C3.45585 8.44003 4.03185 9.75203 4.31985 10.44L1.10385 10.44L1.10385 12.04L5.93585 12.04C4.81585 13.688 3.15185 15.112 0.943845 16.312L2.30385 17.608C4.68785 16.136 6.03185 14.728 7.16785 13.096L7.16785 17.784L8.89585 17.784L8.89585 13.352C9.67985 14.472 10.9118 16.136 13.4238 17.48L14.7358 16.104C12.8158 15.128 11.0398 13.864 9.90385 12.04L14.8798 12.04ZM11.0718 7.20803C10.7518 8.15203 10.4478 9.01603 9.88785 9.94403L10.7038 10.44L8.89585 10.44L8.89585 7.20803L11.0718 7.20803ZM7.16785 10.44L4.89585 10.44L5.91985 9.88003C5.63185 9.01603 4.99185 7.64003 4.67185 7.20803L7.16785 7.20803L7.16785 10.44Z" fill="#00FFFF" style="mix-blend-mode:difference"/>
<path d="M29.5198 9.36804L29.5198 4.32804L23.0238 4.32803L23.0238 9.36804L29.5198 9.36804ZM27.9678 6.34404L24.5758 6.34404L24.5758 5.67204L27.9678 5.67204L27.9678 6.34404ZM27.9678 8.16804L24.5758 8.16803L24.5758 7.48004L27.9678 7.48004L27.9678 8.16804ZM30.7198 11.272L30.7198 9.97604L21.8398 9.97603L21.8398 11.272L23.3598 11.272C23.0398 11.944 22.7518 12.376 22.1918 12.984L22.1918 11.656C21.6638 11.848 21.1358 12.008 20.5758 12.168L20.5758 8.90403L22.2398 8.90403L22.2398 7.25603L20.5758 7.25603L20.5758 4.88803C20.5758 4.77603 20.7038 4.69603 20.7838 4.64803C20.8798 4.56803 20.9598 4.50403 20.9598 4.39203C20.9598 4.28003 20.8478 4.23203 20.7518 4.21603L18.8958 4.07203L18.8958 7.25603L17.3438 7.25603L17.3438 8.90403L18.8958 8.90403L18.8958 12.632C18.3358 12.776 17.6318 12.952 17.1198 13.048L17.4078 14.84C17.4238 14.92 17.4878 14.952 17.5198 14.952C17.5998 14.952 17.6478 14.888 17.8238 14.696C17.9198 14.584 17.9838 14.568 18.5758 14.424C19.0398 14.312 20.7998 13.72 21.8878 13.304C21.2638 13.848 20.9278 14.088 20.4798 14.36L21.7438 15.208C22.4318 14.696 23.0718 14.136 23.8878 13.176L24.6238 13.176C24.3038 13.672 22.9278 15.416 20.8158 16.376L22.0638 17.256C22.9598 16.68 23.8078 16.024 24.5758 15.272C25.4398 14.44 25.9198 13.576 26.1438 13.176L26.9438 13.176C26.3678 14.264 25.0398 15.992 23.2958 17.016L24.4958 17.816C25.4398 17.192 25.9998 16.632 26.4638 16.136L27.1038 17.704C28.3838 17.688 29.1678 17.464 29.6478 16.712C30.2078 15.832 30.5118 13.48 30.5278 11.848L24.7038 11.848C24.7998 11.688 24.9118 11.464 24.9918 11.272L30.7198 11.272ZM28.8318 13.176C28.7838 14.024 28.7038 14.872 28.3198 15.624C28.1438 15.976 27.8878 16.072 27.4718 16.072C27.4078 16.072 27.0718 16.072 26.6078 15.976C27.7918 14.648 28.1598 13.848 28.4478 13.176L28.8318 13.176Z" fill="#00FFFF" style="mix-blend-mode:difference"/>
<path d="M37.7758 15.192L37.7758 5.27204L33.1038 5.27204L33.1038 15.816L34.7198 15.816L34.7198 14.664L36.1438 14.664L36.1438 15.192L37.7758 15.192ZM36.1438 9.12804L34.7198 9.12804L34.7198 6.85604L36.1438 6.85604L36.1438 9.12804ZM36.1438 13.08L34.7198 13.08L34.7198 10.728L36.1438 10.728L36.1438 13.08ZM46.8638 10.04L46.8638 8.53604L43.2638 8.53604L43.2638 7.24004L46.1918 7.24004L46.1918 5.73604L43.2638 5.73604L43.2638 4.66404C43.2638 4.58404 43.2958 4.58404 43.4558 4.45604C43.5358 4.40804 43.6158 4.31204 43.6158 4.23204C43.6158 4.10404 43.5198 4.05604 43.4078 4.05604L41.4398 3.96004L41.4398 5.73604L38.7678 5.73604L38.7678 7.24004L41.4398 7.24004L41.4398 8.53604L38.3198 8.53604L38.3198 10.04L43.2958 10.04L43.2958 11.576L38.3518 11.576L38.3518 13.08L43.2958 13.08L43.2958 15.448C43.2958 15.944 42.9918 16.008 42.6398 16.008C42.5918 16.008 42.1438 16.008 41.5838 15.944L42.3678 17.848C44.3998 17.832 45.0878 17.544 45.0878 16.28L45.0878 13.08L46.7998 13.08L46.7998 11.576L45.0878 11.576L45.0878 10.04L46.8638 10.04ZM41.6958 14.92C40.8478 13.96 40.1918 13.48 39.8078 13.192L38.7998 14.376C39.1358 14.632 39.7598 15.08 40.6558 16.136L41.6958 14.92Z" fill="#00FFFF" style="mix-blend-mode:difference"/>
<path d="M62.5118 10.888C62.5118 7.32004 59.8878 5.06404 56.5598 5.06404C52.4318 5.06404 49.5038 8.29604 49.5038 11.848C49.5038 14.712 52.1278 16.152 52.7038 16.152C53.5358 16.152 54.2718 14.808 54.7518 13.816C55.2798 12.744 56.2238 10.504 56.7358 6.69604C57.3278 6.74404 58.4478 6.80804 59.4558 7.76804C60.3518 8.61604 60.6078 9.68804 60.6078 10.568C60.6078 11.272 60.4318 12.6 59.4558 13.752C58.4798 14.92 57.2958 15.256 56.5758 15.464L57.7598 17.112C58.6238 16.76 60.2878 16.072 61.4878 14.296C62.0798 13.416 62.5118 12.296 62.5118 10.888ZM54.8318 6.98404C54.5118 9.48004 53.1358 13.656 52.3038 13.656C52.0158 13.656 51.2798 12.984 51.2798 11.688C51.2798 10.712 51.7438 9.22404 52.8798 8.13604C53.6478 7.38404 54.3678 7.14404 54.8318 6.98404Z" fill="#00FFFF" style="mix-blend-mode:difference"/>
<path d="M78.9278 17.448L78.9278 15.72L75.0398 15.72L75.0398 12.488L77.8238 12.488L77.8238 10.648L75.0398 10.648L75.0398 8.12004L78.7998 8.12004L78.7999 6.32804L74.5278 6.32804L75.2159 5.75204C74.7679 5.11204 74.2718 4.55204 73.3438 3.89604L71.9038 5.00004C72.4478 5.41604 72.8318 5.78404 73.2638 6.32804L69.5199 6.32804L69.5199 8.12004L72.9758 8.12004L72.9758 10.648L70.0798 10.648L70.0798 12.488L72.9758 12.488L72.9758 15.72L69.0238 15.72L69.0238 17.448L78.9278 17.448ZM69.6478 5.44804C68.8959 4.77604 68.1598 4.34404 67.0878 3.91204L66.1758 5.44804C67.2318 5.91204 67.9038 6.31204 68.6398 6.92004L69.6478 5.44804ZM68.3198 9.25604C67.4558 8.53604 66.6398 8.10404 65.5038 7.68804L64.6878 9.32004C65.9519 9.83204 66.6878 10.248 67.4558 10.792L68.3198 9.25604ZM69.1518 12.936L67.7278 11.768C66.6238 14.44 65.5038 15.928 64.8958 16.696L66.0158 17.512C66.1598 17.624 66.5118 17.848 66.6718 17.848C66.8158 17.848 66.8958 17.72 66.8958 17.592C66.8958 17.544 66.8638 17.288 66.8638 17.224C66.8638 17.16 66.8958 17.112 67.1678 16.648C67.2638 16.488 68.3038 14.728 69.1518 12.936Z" fill="#00FFFF" style="mix-blend-mode:difference"/>
<path d="M92.7678 13.992L92.7678 9.25605L83.2958 9.25605L83.2958 13.992L87.9358 13.992L87.3758 14.472C87.8718 14.968 88.1438 15.288 88.5118 15.784L89.7438 15.08C89.5678 14.84 89.3758 14.568 88.7518 13.992L92.7678 13.992ZM90.9598 11.016L85.0558 11.016L85.0558 10.28L90.9598 10.28L90.9598 11.016ZM90.9598 12.808L85.0558 12.808L85.0558 12.056L90.9598 12.056L90.9598 12.808ZM94.9438 8.60005L94.9438 7.20805L91.2318 7.20805C91.4558 6.82405 91.5358 6.61605 91.6798 6.26405L93.9519 6.26405L93.9519 4.95205L88.9438 4.95205L88.9438 4.66405C88.9438 4.61605 88.9598 4.58405 89.0558 4.52005C89.1198 4.48805 89.2159 4.42405 89.2159 4.36005C89.2159 4.29605 89.1199 4.21605 88.8959 4.20005L86.9918 4.08805L86.9918 4.95205L81.9838 4.95205L81.9838 6.26405L84.2558 6.26405C84.3678 6.47205 84.5118 6.74405 84.6718 7.20805L81.0718 7.20804L81.0718 8.60004L94.9438 8.60005ZM89.6638 6.26405C89.5358 6.63205 89.4398 6.84005 89.2638 7.20805L86.7038 7.20805C86.6078 6.98405 86.4478 6.64805 86.2078 6.26405L89.6638 6.26405ZM94.7998 16.584C94.2078 15.704 93.7278 15.112 93.0558 14.408L91.7918 15.128C92.3518 15.72 92.8318 16.296 93.6158 17.464L94.7998 16.584ZM91.7758 15.816L90.3358 15.16C90.3358 15.848 90.1758 16.344 89.7438 16.344L86.9598 16.344C86.6558 16.344 86.5598 16.12 86.5598 15.976L86.5598 14.904C86.5598 14.856 86.6238 14.792 86.7038 14.712C86.7518 14.664 86.7998 14.616 86.7998 14.552C86.7998 14.488 86.7038 14.408 86.4638 14.392L85.0878 14.328L85.0878 16.68C85.0878 17.416 85.4398 17.768 86.6398 17.768L90.2398 17.768C91.5678 17.768 91.7278 16.2 91.7758 15.816ZM84.4478 15.304C84.4478 15.192 84.2878 15.08 84.1918 15.032L83.0238 14.344C82.5918 15.144 81.8558 16.152 81.2478 16.824L82.5438 17.64C83.0718 16.984 83.5518 16.28 83.9998 15.56C84.0478 15.48 84.0638 15.48 84.2398 15.448C84.2878 15.448 84.4478 15.432 84.4478 15.304Z" fill="#00FFFF" style="mix-blend-mode:difference"/>
<path d="M110.736 13.4801L110.736 12.2321L109.84 12.2321L109.84 10.376L104.88 10.376L104.88 9.76805L108.8 9.76805L108.8 6.82405L104.88 6.82405L104.88 6.26405L110.672 6.26405L110.672 4.88805L104.88 4.88805L104.88 4.58405C104.88 4.50405 104.944 4.45605 104.976 4.44005C105.12 4.32805 105.152 4.31205 105.152 4.21605C105.152 4.12005 105.04 4.08805 104.96 4.07205L103.072 3.83205L103.072 4.88805L97.2638 4.88805L97.2638 6.26405L103.072 6.26405L103.072 6.82405L99.1358 6.82405L99.1358 9.76805L103.072 9.76805L103.072 10.376L98.1918 10.376L98.1918 11.624L103.072 11.624L103.072 12.232L97.2638 12.232L97.2638 13.48L103.072 13.48L103.072 14.168L98.1918 14.168L98.1918 15.416L103.072 15.416L103.072 15.896C103.072 16.184 102.832 16.264 102.576 16.264C102.304 16.264 101.856 16.216 101.44 16.184L102.24 17.928C104.48 17.912 104.88 17.4961 104.88 16.5681L104.88 15.4161L108.16 15.4161L108.16 15.848L109.84 15.8481L109.84 13.4801L110.736 13.4801ZM107.152 8.68005L104.88 8.68005L104.88 7.91205L107.152 7.91205L107.152 8.68005ZM103.072 8.68005L100.768 8.68005L100.768 7.91205L103.072 7.91205L103.072 8.68005ZM108.16 12.2321L104.88 12.232L104.88 11.624L108.16 11.624L108.16 12.2321ZM108.16 14.1681L104.88 14.168L104.88 13.48L108.16 13.48L108.16 14.1681Z" fill="#00FFFF" style="mix-blend-mode:difference"/>
<path d="M127.136 16.5521C125.488 16.1041 124.64 15.5121 124.08 15.0801L126.08 15.0801L126.08 7.17605L122.832 7.17605C123.2 6.40805 123.296 6.08805 123.392 5.80005L126.896 5.80005L126.896 4.36005L118.176 4.36005L118.176 5.36805L113.072 5.36805L113.072 6.92005L114.784 6.92005L114.784 12.6481C114.144 12.7761 113.44 12.9201 112.768 13.0161L113.072 14.7921C113.072 14.8561 113.104 14.9201 113.2 14.9201C113.28 14.9201 113.296 14.9041 113.424 14.7761C113.52 14.6801 113.616 14.6481 113.936 14.5841C116.016 14.1201 117.744 13.5761 118.432 13.3521L118.432 11.7521C117.808 11.9601 116.96 12.1681 116.608 12.2481L116.608 6.92005L118.512 6.92005L118.512 5.80005L121.44 5.80005C121.312 6.36005 121.2 6.68005 121.024 7.17605L119.024 7.17605L119.024 15.0801L120.256 15.0801C119.456 15.8801 118.656 16.3441 117.456 16.7601L118.704 17.9441C119.84 17.4641 120.672 16.8241 121.392 16.2161C121.568 16.0721 121.6 16.0721 121.84 16.0401C121.856 16.0401 122 16.0081 122 15.9121C122 15.8641 121.984 15.8161 121.952 15.7841L121.232 15.0801L123.904 15.0801L122.944 16.0081C123.984 16.9841 125.056 17.4481 126.064 17.8161L127.136 16.5521ZM124.304 11.5121L120.8 11.5121L120.8 10.6321L124.304 10.6321L124.304 11.5121ZM124.304 9.41605L120.8 9.41605L120.8 8.55205L124.304 8.55205L124.304 9.41605ZM124.304 13.6561L120.8 13.6561L120.8 12.7281L124.304 12.7281L124.304 13.6561Z" fill="#00FFFF" style="mix-blend-mode:difference"/>
<path d="M0 30L128 30" stroke="#00FFFF" stroke-width="1.5" style="mix-blend-mode:difference"/>
</svg>
