<svg width="32" height="31" viewBox="0 0 32 31" fill="none" xmlns="http://www.w3.org/2000/svg">
<path d="M9.77623 16.9998L9.77623 15.1758L3.29623 15.1758L3.29623 5.31982L1.13623 5.31982L1.13623 16.9998L9.77623 16.9998Z" fill="#00FFFF" style="mix-blend-mode:difference"/>
<path d="M13.2144 7.39983L13.2144 5.31983L11.1024 5.31983L11.1024 7.39983L13.2144 7.39983ZM13.2144 16.9998L13.2144 8.39183L11.1024 8.39183L11.1024 16.9998L13.2144 16.9998Z" fill="#00FFFF" style="mix-blend-mode:difference"/>
<path d="M22.443 16.9998L22.443 11.2238C22.443 9.27183 21.387 8.18383 19.563 8.18383C17.883 8.18383 17.243 9.25583 16.907 9.84783L16.987 9.11183L16.987 8.39183L14.875 8.39183L14.875 16.9998L16.987 16.9998L16.987 11.9758C16.987 10.3918 18.011 9.95983 18.875 9.95983C19.931 9.95983 20.331 10.5998 20.331 11.5598L20.331 16.9998L22.443 16.9998Z" fill="#00FFFF" style="mix-blend-mode:difference"/>
<path d="M31.5896 13.3198C31.5416 12.1038 31.4616 10.9358 30.7256 9.81583C30.0856 8.83983 28.9816 8.18383 27.5576 8.18383C25.4296 8.18383 23.5256 9.63983 23.5256 12.7118C23.5256 15.6558 25.2856 17.2078 27.6216 17.2078C30.4216 17.2078 31.1576 15.1758 31.4296 14.4558L29.3016 14.4558C28.9496 15.3998 28.1176 15.4958 27.7336 15.4958C26.0376 15.4958 25.7176 13.7518 25.6376 13.3198L31.5896 13.3198ZM29.3016 11.9438L25.6376 11.9438C25.7336 11.3998 26.0056 9.91183 27.5736 9.91183C28.6296 9.91183 29.2536 10.5998 29.3016 11.9438Z" fill="#00FFFF" style="mix-blend-mode:difference"/>
<path d="M0 30L32 30" stroke="#00FFFF" stroke-width="1.5" style="mix-blend-mode:difference"/>
</svg>
