<svg width="73" height="31" viewBox="0 0 73 31" fill="none" xmlns="http://www.w3.org/2000/svg">
<path d="M3.15219 16.9998L3.15219 5.31982L0.992188 5.31982L0.992185 16.9998L3.15219 16.9998Z" fill="#00FFFF" style="mix-blend-mode:difference"/>
<path d="M12.3648 16.9998L12.3648 11.2238C12.3648 9.27183 11.3088 8.18383 9.48481 8.18383C7.80481 8.18383 7.16481 9.25583 6.82881 9.84783L6.90881 9.11183L6.90881 8.39182L4.79681 8.39182L4.79681 16.9998L6.90881 16.9998L6.90881 11.9758C6.90881 10.3918 7.93281 9.95982 8.79681 9.95982C9.85281 9.95983 10.2528 10.5998 10.2528 11.5598L10.2528 16.9998L12.3648 16.9998Z" fill="#00FFFF" style="mix-blend-mode:difference"/>
<path d="M20.5514 14.5358C20.5514 13.7838 20.1994 13.1278 19.5914 12.6958C19.0954 12.3598 19.0154 12.3118 16.8714 11.4958C16.1994 11.2398 15.7994 11.0958 15.7994 10.6638C15.7994 10.3438 16.1354 9.86383 16.9834 9.86383C17.8954 9.86383 18.1674 10.4078 18.2154 11.0318L20.3274 11.0318C20.2314 10.0558 20.0714 9.60783 19.5434 9.07983C18.7754 8.32783 17.7514 8.18383 17.0314 8.18383C15.0634 8.18383 13.6874 9.35183 13.6874 10.7918C13.6874 12.3598 14.8714 12.7758 16.6314 13.4158C17.9914 13.8958 18.4234 14.0878 18.4234 14.6798C18.4234 15.5278 17.3674 15.5278 17.1914 15.5278C15.8794 15.5278 15.7034 14.5998 15.6394 14.1838L13.5274 14.1838C13.6234 15.2718 13.8154 15.7038 14.3114 16.1998C15.2074 17.0958 16.4874 17.2078 17.0954 17.2078C18.9674 17.2078 20.5514 16.2158 20.5514 14.5358Z" fill="#00FFFF" style="mix-blend-mode:difference"/>
<path d="M25.9434 10.0878L25.9434 8.39183L24.4554 8.39183L24.4554 5.97583L22.3434 5.97583L22.3434 8.39183L21.1594 8.39183L21.1594 10.0878L22.3434 10.0878L22.3434 14.9678C22.3434 16.3278 22.9194 16.9998 24.5994 16.9998L25.8954 16.9998L25.8954 15.3998L24.9834 15.3998C24.6154 15.3998 24.4554 15.2238 24.4554 14.8398L24.4554 10.0878L25.9434 10.0878Z" fill="#00FFFF" style="mix-blend-mode:difference"/>
<path d="M34.7663 16.9998C34.3503 16.7278 34.2863 16.3118 34.2863 16.0078L34.2863 11.2718C34.2863 9.04783 32.5583 8.18383 30.5743 8.18383C29.4223 8.18383 27.0383 8.53583 26.8783 11.2078L28.7823 11.2078C28.8303 10.7918 28.8783 10.5998 29.1183 10.3598C29.6623 9.81583 30.5743 9.83183 30.7663 9.83183C31.4223 9.83183 32.1583 10.0398 32.1583 10.7278C32.1583 11.5278 31.1183 11.7038 30.1903 11.8318C28.2703 12.1038 26.4943 12.6958 26.4943 14.6798C26.4943 15.7678 27.1343 17.2078 29.5023 17.2078C31.5183 17.2078 32.0463 16.2158 32.2863 15.7518C32.2863 16.1198 32.3023 16.6798 32.5423 16.9998L34.7663 16.9998ZM32.2703 12.4238L32.1583 12.9838L32.1583 13.9598C32.1583 15.1598 30.8783 15.7038 30.0143 15.7038C29.2463 15.7038 28.6543 15.2238 28.6543 14.6158C28.6543 13.5758 29.8383 13.2878 30.6383 13.1598C31.5503 12.9998 31.9023 12.8558 32.2703 12.4238Z" fill="#00FFFF" style="mix-blend-mode:difference"/>
<path d="M43.6889 9.73583L43.6889 8.18383C42.8249 8.18383 42.5689 8.31183 41.9289 9.03183C41.6089 8.74383 40.9369 8.18383 39.3849 8.18383C37.4169 8.18383 35.7369 9.12783 35.7369 10.9518C35.7369 12.2478 36.5209 12.7758 36.9209 13.0318C36.4409 13.3358 35.6569 13.8318 35.6569 14.6478C35.6569 15.4318 36.3769 15.6878 36.7929 15.8318C36.4249 15.8958 35.4009 16.0718 35.4009 17.3038C35.4009 18.7118 37.0489 19.1438 39.0649 19.1438C41.7529 19.1438 43.4329 18.3278 43.4329 16.7918C43.4329 16.2318 43.2249 15.7358 42.8889 15.3998C42.2489 14.7598 41.2889 14.6638 39.0809 14.5038C38.5049 14.4558 37.8009 14.3758 37.8009 13.9758C37.8009 13.7518 37.9609 13.6398 38.3609 13.5278C38.5849 13.5598 38.8089 13.5918 39.2729 13.5918C41.7529 13.5918 42.7609 12.2478 42.7609 10.8718C42.7609 10.5678 42.7129 10.3918 42.6649 10.2318C43.1129 9.73583 43.3049 9.73583 43.6889 9.73583ZM40.8569 10.9038C40.8569 11.9598 39.5769 12.0238 39.2089 12.0238C38.8249 12.0238 37.6409 11.9918 37.6409 10.9838C37.6409 10.3438 38.1689 9.78383 39.3049 9.78383C40.1209 9.78383 40.8569 10.0878 40.8569 10.9038ZM41.1449 16.9038C41.1449 17.2558 41.0169 17.5758 39.4329 17.5758C37.6569 17.5758 37.6409 17.1598 37.6409 16.8878C37.6409 16.4398 37.9129 16.3118 38.4889 16.1038C38.6969 16.1198 39.6729 16.1358 39.8649 16.1518C40.4569 16.2158 41.1449 16.3758 41.1449 16.9038Z" fill="#00FFFF" style="mix-blend-mode:difference"/>
<path d="M49.6836 10.2958L49.6836 8.18383C47.9236 8.23183 47.3476 8.72783 46.4836 10.2798L46.6436 9.01583L46.6436 8.39183L44.5316 8.39183L44.5316 16.9998L46.6436 16.9998L46.6436 12.3758C46.6436 11.3198 47.4596 10.2958 48.9476 10.2958L49.6836 10.2958Z" fill="#00FFFF" style="mix-blend-mode:difference"/>
<path d="M58.4694 16.9998C58.0534 16.7278 57.9894 16.3118 57.9894 16.0078L57.9894 11.2718C57.9894 9.04783 56.2614 8.18383 54.2774 8.18383C53.1254 8.18383 50.7414 8.53583 50.5814 11.2078L52.4854 11.2078C52.5334 10.7918 52.5814 10.5998 52.8214 10.3598C53.3654 9.81583 54.2774 9.83183 54.4694 9.83183C55.1254 9.83183 55.8614 10.0398 55.8614 10.7278C55.8614 11.5278 54.8214 11.7038 53.8934 11.8318C51.9734 12.1038 50.1974 12.6958 50.1974 14.6798C50.1974 15.7678 50.8374 17.2078 53.2054 17.2078C55.2214 17.2078 55.7494 16.2158 55.9894 15.7518C55.9894 16.1198 56.0054 16.6798 56.2454 16.9998L58.4694 16.9998ZM55.9734 12.4238L55.8614 12.9838L55.8614 13.9598C55.8614 15.1598 54.5814 15.7038 53.7174 15.7038C52.9494 15.7038 52.3574 15.2238 52.3574 14.6158C52.3574 13.5758 53.5414 13.2878 54.3414 13.1598C55.2534 12.9998 55.6054 12.8558 55.9734 12.4238Z" fill="#00FFFF" style="mix-blend-mode:difference"/>
<path d="M71.7441 16.9998L71.7441 11.5118C71.7441 9.63984 71.0881 8.18384 69.1361 8.18384C67.6161 8.18384 66.8641 9.06384 66.4001 9.60784C65.9841 8.98384 65.4401 8.18384 63.9841 8.18384C62.4641 8.18384 61.9361 9.04784 61.5681 9.62383L61.6321 8.85584L61.6321 8.39183L59.5201 8.39183L59.5201 16.9998L61.6321 16.9998L61.6321 11.6398C61.6321 11.0638 62.0801 9.99183 63.1841 9.99184C64.3681 9.99184 64.5601 11.0958 64.5601 11.7678L64.5601 16.9998L66.6721 16.9998L66.6721 11.7678C66.6721 11.0958 67.1041 9.95984 68.3041 9.95984C69.3441 9.95984 69.6321 10.7598 69.6321 11.7678L69.6321 16.9998L71.7441 16.9998Z" fill="#00FFFF" style="mix-blend-mode:difference"/>
<path d="M0 30L73 30" stroke="#00FFFF" stroke-width="1.5" style="mix-blend-mode:difference"/>
</svg>
