<svg width="25" height="71" viewBox="0 0 25 71" fill="none" xmlns="http://www.w3.org/2000/svg">
<path d="M0.448119 16.32L3.80812 16.32L3.80812 5.504C5.76012 6.496 6.65612 7.296 8.83212 10.432C10.9441 13.472 13.0561 16.128 16.8001 16.128C20.8961 16.128 24.2241 13.024 24.2241 8.224C24.2241 0.992 17.6641 0.736 15.5841 0.672L15.5841 4.736C17.3121 4.768 20.6721 4.864 20.6721 8.096C20.6721 10.208 19.0081 11.744 16.8001 11.744C14.7521 11.744 13.4721 10.72 10.9761 7.296C7.10412 2.016 4.60812 0.575999 0.44812 -1.03928e-06L0.448119 16.32Z" fill="#FF0000"/>
<path d="M12.1281 36.6292C15.1361 36.6292 18.2401 36.2452 20.8001 34.6452C22.7841 33.3972 24.2241 31.4453 24.2241 28.5013C24.2241 21.0453 15.5521 20.3732 11.7121 20.3732C8.70412 20.3732 0.000119242 21.0772 0.000118917 28.5013C0.000118583 36.1492 9.18412 36.6292 12.1281 36.6292ZM12.1281 32.2132C5.24812 32.2132 3.45612 30.8372 3.45612 28.5013C3.45612 26.4212 4.73612 24.7252 12.1281 24.7572C19.2001 24.7572 20.7681 26.2932 20.7681 28.4372C20.7681 30.5492 19.5201 32.2132 12.1281 32.2132Z" fill="#FF0000"/>
<path d="M0.448118 57.0025L3.80812 57.0025L3.80812 46.1865C5.76012 47.1785 6.65612 47.9785 8.83212 51.1145C10.9441 54.1545 13.0561 56.8105 16.8001 56.8105C20.8961 56.8105 24.2241 53.7065 24.2241 48.9065C24.2241 41.6745 17.6641 41.4185 15.5841 41.3545L15.5841 45.4185C17.3121 45.4505 20.6721 45.5465 20.6721 48.7785C20.6721 50.8905 19.0081 52.4265 16.8001 52.4265C14.7521 52.4265 13.4721 51.4025 10.9761 47.9785C7.10412 42.6985 4.60812 41.2585 0.448118 40.6825L0.448118 57.0025Z" fill="#FF0000"/>
<path d="M0.448117 70.9117L23.8081 70.9118L23.8081 67.4557C20.7681 66.7517 19.7441 64.0638 19.7441 62.3678L19.7441 60.5117L16.7041 60.5117L16.7041 66.8478L0.448117 66.8478L0.448117 70.9117Z" fill="#FF0000"/>
</svg>
