<svg width="38" height="65" viewBox="0 0 38 65" fill="none" xmlns="http://www.w3.org/2000/svg">
<path d="M16.112 9.79201L13.328 9.79201L13.328 4.51201C15.408 4.51201 17.424 7.07201 19.728 9.37601C22.224 11.872 23.952 12.928 26.256 12.928C30.16 12.928 32.432 10.944 32.432 7.04001C32.432 2.94401 29.744 1.15201 25.936 1.15201L24.656 1.15201L24.656 4.41601L25.936 4.41601C26.864 4.41601 29.168 4.44801 29.168 7.04001C29.168 9.37601 27.44 9.60001 26.256 9.60001C24.496 9.60001 22.928 8.03201 21.904 7.00801C18.96 4.06401 16.72 1.08801 12.24 1.08801L10 1.08801L10 12.928L16.112 12.928L16.112 9.79201Z" fill="#FF0000"/>
<path d="M32.432 23.6938C32.432 19.7258 29.744 17.8058 25.936 17.8058L16.08 17.8058C12.272 17.8058 9.584 19.7258 9.584 23.6938C9.584 27.6618 12.272 29.5818 16.08 29.5818L25.936 29.5818C29.744 29.5818 32.432 27.6618 32.432 23.6938ZM12.784 23.6938C12.784 21.7738 14.128 21.1018 15.152 21.1018L21.936 26.3498L16.08 26.3498C15.152 26.3498 12.784 26.2858 12.784 23.6938ZM29.232 23.6938C29.232 25.6138 27.888 26.3178 26.864 26.3178L20.048 21.0378L25.936 21.0378C26.864 21.0378 29.232 21.1018 29.232 23.6938Z" fill="#FF0000"/>
<path d="M16.112 43.0995L13.328 43.0995L13.328 37.8195C15.408 37.8195 17.424 40.3795 19.728 42.6835C22.224 45.1795 23.952 46.2355 26.256 46.2355C30.16 46.2355 32.432 44.2515 32.432 40.3475C32.432 36.2515 29.744 34.4595 25.936 34.4595L24.656 34.4595L24.656 37.7235L25.936 37.7235C26.864 37.7235 29.168 37.7555 29.168 40.3475C29.168 42.6835 27.44 42.9075 26.256 42.9075C24.496 42.9075 22.928 41.3395 21.904 40.3155C18.96 37.3715 16.72 34.3955 12.24 34.3955L10 34.3955L10 46.2355L16.112 46.2355L16.112 43.0995Z" fill="#FF0000"/>
<path d="M16.112 58.7933L13.328 58.7933L13.328 53.5133C15.408 53.5133 17.424 56.0733 19.728 58.3773C22.224 60.8733 23.952 61.9293 26.256 61.9293C30.16 61.9293 32.432 59.9453 32.432 56.0413C32.432 51.9453 29.744 50.1533 25.936 50.1533L24.656 50.1533L24.656 53.4173L25.936 53.4173C26.864 53.4173 29.168 53.4493 29.168 56.0413C29.168 58.3773 27.44 58.6013 26.256 58.6013C24.496 58.6013 22.928 57.0333 21.904 56.0093C18.96 53.0653 16.72 50.0893 12.24 50.0893L10 50.0893L10 61.9293L16.112 61.9293L16.112 58.7933Z" fill="#FF0000"/>
</svg>
