<svg width="38" height="65" viewBox="0 0 38 65" fill="none" xmlns="http://www.w3.org/2000/svg">
<path d="M16.1119 9.792L13.3279 9.792L13.3279 4.512C15.4079 4.512 17.4239 7.072 19.7279 9.376C22.2239 11.872 23.9519 12.928 26.2559 12.928C30.1599 12.928 32.4319 10.944 32.4319 7.04C32.4319 2.944 29.7439 1.152 25.9359 1.152L24.6559 1.152L24.6559 4.416L25.9359 4.416C26.8639 4.416 29.1679 4.448 29.1679 7.04C29.1679 9.376 27.4399 9.6 26.2559 9.6C24.4959 9.6 22.9279 8.032 21.9039 7.008C18.9599 4.064 16.7199 1.088 12.2399 1.088L9.99988 1.088L9.99988 12.928L16.1119 12.928L16.1119 9.792Z" fill="#FF0000"/>
<path d="M32.4319 23.6937C32.4319 19.7257 29.7439 17.8057 25.9359 17.8057L16.0799 17.8057C12.2719 17.8057 9.58388 19.7257 9.58388 23.6937C9.58388 27.6617 12.2719 29.5817 16.0799 29.5817L25.9359 29.5817C29.7439 29.5817 32.4319 27.6617 32.4319 23.6937ZM12.7839 23.6937C12.7839 21.7737 14.1279 21.1017 15.1519 21.1017L21.9359 26.3497L16.0799 26.3497C15.1519 26.3497 12.7839 26.2857 12.7839 23.6937ZM29.2319 23.6937C29.2319 25.6137 27.8879 26.3177 26.8639 26.3177L20.0479 21.0377L25.9359 21.0377C26.8639 21.0377 29.2319 21.1017 29.2319 23.6937Z" fill="#FF0000"/>
<path d="M16.1119 43.0995L13.3279 43.0995L13.3279 37.8195C15.4079 37.8195 17.4239 40.3795 19.7279 42.6835C22.2239 45.1795 23.9519 46.2355 26.2559 46.2355C30.1599 46.2355 32.4319 44.2515 32.4319 40.3475C32.4319 36.2515 29.7439 34.4595 25.9359 34.4595L24.6559 34.4595L24.6559 37.7235L25.9359 37.7235C26.8639 37.7235 29.1679 37.7555 29.1679 40.3475C29.1679 42.6835 27.4399 42.9075 26.2559 42.9075C24.4959 42.9075 22.9279 41.3395 21.9039 40.3155C18.9599 37.3715 16.7199 34.3955 12.2399 34.3955L9.99988 34.3955L9.99988 46.2355L16.1119 46.2355L16.1119 43.0995Z" fill="#FF0000"/>
<path d="M9.99988 50.4732L9.99988 62.2492L13.3279 62.2492L13.3279 58.1212L32.0159 58.1213L32.0159 54.6012C29.7119 54.4732 28.6879 52.6492 28.6879 50.4732L26.1279 50.4732L26.1279 54.6012L13.3279 54.6012L13.3279 50.4732L9.99988 50.4732Z" fill="#FF0000"/>
</svg>
