<svg width="25" height="78" viewBox="0 0 25 78" fill="none" xmlns="http://www.w3.org/2000/svg">
<path d="M0.448119 16.32L3.80812 16.32L3.80812 5.504C5.76012 6.496 6.65612 7.296 8.83212 10.432C10.9441 13.472 13.0561 16.128 16.8001 16.128C20.8961 16.128 24.2241 13.024 24.2241 8.224C24.2241 0.992 17.6641 0.736 15.5841 0.672L15.5841 4.736C17.3121 4.768 20.6721 4.864 20.6721 8.096C20.6721 10.208 19.0081 11.744 16.8001 11.744C14.7521 11.744 13.4721 10.72 10.9761 7.296C7.10412 2.016 4.60812 0.575999 0.44812 -1.03928e-06L0.448119 16.32Z" fill="#FF0000"/>
<path d="M12.1281 36.6292C15.1361 36.6292 18.2401 36.2452 20.8001 34.6452C22.7841 33.3972 24.2241 31.4453 24.2241 28.5013C24.2241 21.0453 15.5521 20.3732 11.7121 20.3732C8.70412 20.3732 0.000119242 21.0772 0.000118917 28.5013C0.000118583 36.1492 9.18412 36.6292 12.1281 36.6292ZM12.1281 32.2132C5.24812 32.2132 3.45612 30.8372 3.45612 28.5013C3.45612 26.4212 4.73612 24.7252 12.1281 24.7572C19.2001 24.7572 20.7681 26.2932 20.7681 28.4372C20.7681 30.5492 19.5201 32.2132 12.1281 32.2132Z" fill="#FF0000"/>
<path d="M0.448118 51.5305L23.8081 51.5305L23.8081 48.0745C20.7681 47.3705 19.7441 44.6825 19.7441 42.9865L19.7441 41.1305L16.7041 41.1305L16.7041 47.4665L0.448118 47.4665L0.448118 51.5305Z" fill="#FF0000"/>
<path d="M13.1841 77.1838C18.0161 77.1838 24.2241 75.4238 24.2241 68.9598C24.2241 63.8718 19.6801 61.1837 15.8721 61.1837C11.5521 61.1837 8.28812 64.3198 8.28812 68.2558C8.28812 69.5038 8.70412 71.7757 10.8161 73.0237C7.68012 72.6397 3.55212 72.1278 3.55212 68.6718C3.55212 66.9118 4.86412 65.8557 6.33612 65.7597L6.33612 61.5358C4.19212 61.9198 3.16812 62.3358 1.95212 63.6158C0.704117 64.9598 0.000117248 66.6878 0.000117165 68.5758C0.0001168 76.9278 10.7521 77.1838 13.1841 77.1838ZM16.2561 72.8317C14.0801 72.8317 11.8401 71.5198 11.8401 68.9598C11.8401 66.8798 13.7281 65.5358 16.1921 65.5358C18.9441 65.5358 20.4161 67.1677 20.4161 69.1517C20.4161 71.3277 18.6881 72.8317 16.2561 72.8317Z" fill="#FF0000"/>
</svg>
