<svg width="64" height="118" viewBox="0 0 64 118" fill="none" xmlns="http://www.w3.org/2000/svg">
<path d="M6.51602 18V4.86H4.57202C4.17602 6.57 2.66402 7.146 1.71002 7.146H0.666016V8.856H4.23002V18H6.51602Z" fill="#00FFFF" style="mix-blend-mode:difference"/>
<path d="M13.188 18V15.516H10.758V18H13.188Z" fill="#00FFFF" style="mix-blend-mode:difference"/>
<path d="M50.3201 12.56V10.16H45.1841C46.1201 8.456 46.3361 7.976 46.7681 6.92C46.8161 6.8 46.8401 6.8 47.1041 6.68001C47.2001 6.632 47.2721 6.56 47.2721 6.488C47.2721 6.272 46.9841 6.128 46.8641 6.08L45.1121 5.312H49.2641V2.984H41.3441V1.616C41.3441 1.544 41.4161 1.472 41.5841 1.328C41.7041 1.232 41.8001 1.136 41.8001 1.016C41.8001 0.848004 41.6321 0.776003 41.3681 0.752004L38.7521 0.464005V2.984L30.8321 2.984V5.312H34.4321L32.5841 6.176C33.1841 7.16 34.0481 9.12801 34.4801 10.16H29.6561V12.56H36.9041C35.2241 15.032 32.7281 17.168 29.4161 18.968L31.4561 20.912C35.0321 18.704 37.0481 16.592 38.7521 14.144V21.176H41.3441V14.528C42.5201 16.208 44.3681 18.704 48.1361 20.72L50.1041 18.656C47.2241 17.192 44.5601 15.296 42.8561 12.56H50.3201ZM44.6081 5.312C44.1281 6.728 43.6721 8.024 42.8321 9.416L44.0561 10.16H41.3441V5.312H44.6081ZM38.7521 10.16H35.3441L36.8801 9.32C36.4481 8.024 35.4881 5.96 35.0081 5.312H38.7521V10.16Z" fill="#00FFFF" style="mix-blend-mode:difference"/>
<path d="M48.2801 40.552V32.992H38.5361V40.552H48.2801ZM45.9521 36.016H40.8641V35.008H45.9521V36.016ZM45.9521 38.752H40.8641V37.72H45.9521V38.752ZM50.0801 43.408V41.464H36.7601V43.408H39.0401C38.5601 44.416 38.1281 45.064 37.2881 45.976V43.984C36.4961 44.272 35.7041 44.512 34.8641 44.752V39.856H37.3601V37.384H34.8641V33.832C34.8641 33.664 35.0561 33.544 35.1761 33.472C35.3201 33.352 35.4401 33.256 35.4401 33.088C35.4401 32.92 35.2721 32.848 35.1281 32.824L32.3441 32.608V37.384H30.0161V39.856H32.3441V45.448C31.5041 45.664 30.4481 45.928 29.6801 46.072L30.1121 48.76C30.1361 48.88 30.2321 48.928 30.2801 48.928C30.4001 48.928 30.4721 48.832 30.7361 48.544C30.8801 48.376 30.9761 48.352 31.8641 48.136C32.5601 47.968 35.2001 47.08 36.8321 46.456C35.8961 47.272 35.3921 47.632 34.7201 48.04L36.6161 49.312C37.6481 48.544 38.6081 47.704 39.8321 46.264H40.9361C40.4561 47.008 38.3921 49.624 35.2241 51.064L37.0961 52.384C38.4401 51.52 39.7121 50.536 40.8641 49.408C42.1601 48.16 42.8801 46.864 43.2161 46.264H44.4161C43.5521 47.896 41.5601 50.488 38.9441 52.024L40.7441 53.224C42.1601 52.288 43.0001 51.448 43.6961 50.704L44.6561 53.056C46.5761 53.032 47.7521 52.696 48.4721 51.568C49.3121 50.248 49.7681 46.72 49.7921 44.272H41.0561C41.2001 44.032 41.3681 43.696 41.4881 43.408H50.0801ZM47.2481 46.264C47.1761 47.536 47.0561 48.808 46.4801 49.936C46.2161 50.464 45.8321 50.608 45.2081 50.608C45.1121 50.608 44.6081 50.608 43.9121 50.464C45.6881 48.472 46.2401 47.272 46.6721 46.264H47.2481Z" fill="#00FFFF" style="mix-blend-mode:difference"/>
<path d="M50.1761 70.56V68.016H41.4401V65.688C41.6801 65.472 41.9681 65.28 41.9681 65.136C41.9681 64.92 41.6321 64.848 41.5361 64.848L38.4641 64.608V68.016H29.7521V70.56H37.1681C37.1441 72.768 37.1201 75.336 35.2721 78.24C33.5441 80.976 31.4081 82.032 29.6321 82.896L31.7681 84.936C33.1841 84.12 34.7681 83.232 36.4481 81.168C38.2241 78.984 38.8241 77.088 39.3281 75.48H44.4641C44.5841 78.24 44.2241 80.424 43.7681 81.408C43.3121 82.392 42.7601 82.584 41.8241 82.584C40.9121 82.584 40.5281 82.56 39.9761 82.512L41.2241 85.176C44.5361 85.08 45.8081 84.192 46.6721 81.048C47.3681 78.504 47.3201 76.008 47.2481 73.056H39.8321C39.9761 72.12 40.0481 71.4 40.0721 70.56H50.1761Z" fill="#00FFFF" style="mix-blend-mode:difference"/>
<path d="M50.3921 115.52C48.6161 112.328 47.0801 110.6 45.6161 109.064L43.5041 110.456C44.1041 111.056 44.5121 111.536 45.3281 112.616C44.0801 112.808 43.3121 112.904 40.8401 113.12C41.6801 111.392 42.4481 109.64 43.1921 107.864H50.2481V105.464H43.7921V102.488H49.1201V100.016H43.7921V98.024C43.7921 97.928 43.8641 97.856 44.1281 97.664C44.3201 97.544 44.4161 97.424 44.4161 97.304C44.4161 96.992 43.9841 96.968 43.5521 96.92L41.0321 96.704V100.016H36.4001V102.488H41.0321V105.464H35.1281V107.864H40.0481C39.4241 109.424 38.7761 111.08 37.7921 113.36C37.1921 113.384 35.9921 113.456 35.0081 113.456L35.7041 116.264C35.7521 116.408 35.8481 116.768 36.0401 116.768C36.1841 116.768 36.2321 116.672 36.3521 116.36C36.4001 116.192 36.4721 116.192 36.9521 116.12C40.7201 115.616 42.9281 115.28 46.6721 114.656C46.9601 115.184 47.3441 115.808 47.8961 116.984L50.3921 115.52ZM35.5361 99.632C34.4801 98.432 33.2801 97.472 32.4881 96.92L30.8081 98.768C32.5601 100.184 33.2561 101 33.6881 101.528L35.5361 99.632ZM33.6161 105.104C32.7041 104.168 31.4081 103.28 30.3521 102.728L28.8881 104.6C30.1121 105.344 31.0241 106.04 32.0561 107.12L33.6161 105.104ZM34.4801 110.336L32.3441 108.776C31.4561 111.392 30.1121 113.864 28.9121 115.544L31.0961 117.032C31.2881 117.152 31.4801 117.296 31.6481 117.296C31.8161 117.296 31.8641 117.104 31.8641 117.032C31.8641 116.96 31.7681 116.672 31.7681 116.6C31.7681 116.456 31.9841 116.048 32.0801 115.856C32.5121 115.04 33.8321 111.992 34.4801 110.336Z" fill="#00FFFF" style="mix-blend-mode:difference"/>
</svg>
