<svg width="248" height="71" viewBox="0 0 248 71" fill="none" xmlns="http://www.w3.org/2000/svg">
<path d="M28.7599 17.08V13.88H21.9119C23.1599 11.608 23.4479 10.968 24.0239 9.56003C24.0879 9.40003 24.1199 9.40003 24.4719 9.24003C24.5999 9.17603 24.6959 9.08003 24.6959 8.98403C24.6959 8.69603 24.3119 8.50403 24.1519 8.44003L21.8159 7.41603H27.3519V4.31203L16.7919 4.31203V2.48803C16.7919 2.39203 16.8879 2.29603 17.1119 2.10403C17.2719 1.97603 17.3999 1.84803 17.3999 1.68803C17.3999 1.46403 17.1759 1.36803 16.8239 1.33603L13.3359 0.952028V4.31203H2.77594V7.41603H7.57594L5.11194 8.56803C5.91194 9.88003 7.06394 12.504 7.63994 13.88H1.20794V17.08H10.8719C8.63194 20.376 5.30394 23.224 0.887939 25.624L3.60794 28.216C8.37594 25.272 11.0639 22.456 13.3359 19.192V28.568H16.7919V19.704C18.3599 21.944 20.8239 25.272 25.8479 27.96L28.4719 25.208C24.6319 23.256 21.0799 20.728 18.8079 17.08H28.7599ZM21.1439 7.41603C20.5039 9.30403 19.8959 11.032 18.7759 12.888L20.4079 13.88H16.7919V7.41603L21.1439 7.41603ZM13.3359 13.88H8.79194L10.8399 12.76C10.2639 11.032 8.98394 8.28003 8.34394 7.41603H13.3359V13.88Z" fill="#00FFFF" style="mix-blend-mode:difference"/>
<path d="M57.3999 11.736V1.65603L44.4079 1.65603V11.736H57.3999ZM54.2959 5.68803L47.5119 5.68803V4.34403H54.2959V5.68803ZM54.2959 9.33603H47.5119V7.96003L54.2959 7.96003V9.33603ZM59.7999 15.544V12.952H42.0399V15.544H45.0799C44.4399 16.888 43.8639 17.752 42.7439 18.968V16.312C41.6879 16.696 40.6319 17.016 39.5119 17.336V10.808H42.8399V7.51203H39.5119V2.77603C39.5119 2.55203 39.7679 2.39203 39.9279 2.29603C40.1199 2.13603 40.2799 2.00803 40.2799 1.78403C40.2799 1.56003 40.0559 1.46403 39.8639 1.43203L36.1519 1.14403V7.51203H33.0479V10.808H36.1519V18.264C35.0319 18.552 33.6239 18.904 32.5999 19.096L33.1759 22.68C33.2079 22.84 33.3359 22.904 33.3999 22.904C33.5599 22.904 33.6559 22.776 34.0079 22.392C34.1999 22.168 34.3279 22.136 35.5119 21.848C36.4399 21.624 39.9599 20.44 42.1359 19.608C40.8879 20.696 40.2159 21.176 39.3199 21.72L41.8479 23.416C43.2239 22.392 44.5039 21.272 46.1359 19.352H47.6079C46.9679 20.344 44.2159 23.832 39.9919 25.752L42.4879 27.512C44.2799 26.36 45.9759 25.048 47.5119 23.544C49.2399 21.88 50.1999 20.152 50.6479 19.352H52.2479C51.0959 21.528 48.4399 24.984 44.9519 27.032L47.3519 28.632C49.2399 27.384 50.3599 26.264 51.2879 25.272L52.5679 28.408C55.1279 28.376 56.6959 27.928 57.6559 26.424C58.7759 24.664 59.3839 19.96 59.4159 16.696H47.7679C47.9599 16.376 48.1839 15.928 48.3439 15.544H59.7999ZM56.0239 19.352C55.9279 21.048 55.7679 22.744 54.9999 24.248C54.6479 24.952 54.1359 25.144 53.3039 25.144C53.1759 25.144 52.5039 25.144 51.5759 24.952C53.9439 22.296 54.6799 20.696 55.2559 19.352H56.0239Z" fill="#00FFFF" style="mix-blend-mode:difference"/>
<path d="M91.2879 12.44V9.33603H84.4399C85.4639 8.08803 86.6159 6.45603 86.8399 6.10403C87.8639 4.37603 87.9599 4.34403 88.4079 4.28003C89.0479 4.21603 89.3039 4.15203 89.3039 3.89603C89.3039 3.70403 89.1439 3.57603 89.0479 3.51203L85.4639 1.40003C84.6319 3.03203 83.8639 4.34403 82.5199 6.20003V3.89603H78.8719V2.39203C78.8719 2.20003 79.1279 2.07203 79.3199 1.97603C79.4479 1.88003 79.6399 1.78403 79.6399 1.56003C79.6399 1.43203 79.4799 1.30403 79.1919 1.30403L75.0959 1.14403V3.89603L66.7439 3.89603V6.90403H75.0959V9.33603H64.0559V12.44H76.2159C71.8319 15.48 68.1199 16.952 63.9599 18.136L65.9439 21.24C67.7999 20.536 68.6319 20.216 70.0719 19.608V28.664H73.5279V27.832H84.3759V28.504H87.8959V15.128H78.4239C80.1199 13.848 80.9839 13.048 81.6239 12.44H91.2879ZM84.3759 19.96H73.5279V17.88H84.3759V19.96ZM84.3759 24.984H73.5279V22.712H84.3759V24.984ZM81.9439 6.90403C81.5279 7.44803 80.9839 8.18403 79.8639 9.33603H78.8719V6.90403L81.9439 6.90403Z" fill="#00FFFF" style="mix-blend-mode:difference"/>
<path d="M122.104 14.776C122.104 7.64003 116.856 3.12803 110.2 3.12803C101.944 3.12803 96.0879 9.59203 96.0879 16.696C96.0879 22.424 101.336 25.304 102.488 25.304C104.152 25.304 105.624 22.616 106.584 20.632C107.64 18.488 109.528 14.008 110.552 6.39203C111.736 6.48803 113.976 6.61603 115.992 8.53603C117.784 10.232 118.296 12.376 118.296 14.136C118.296 15.544 117.944 18.2 115.992 20.504C114.04 22.84 111.672 23.512 110.232 23.928L112.6 27.224C114.328 26.52 117.656 25.144 120.056 21.592C121.24 19.832 122.104 17.592 122.104 14.776ZM106.744 6.96803C106.104 11.96 103.352 20.312 101.688 20.312C101.112 20.312 99.6399 18.968 99.6399 16.376C99.6399 14.424 100.568 11.448 102.84 9.27203C104.376 7.76803 105.816 7.28803 106.744 6.96803Z" fill="#00FFFF" style="mix-blend-mode:difference"/>
<path d="M154.328 10.36L151.512 8.82403C151.48 9.24003 151.448 9.88003 151.064 10.68C150.648 11.48 150.2 11.704 149.176 11.704H145.912C144.696 11.704 144.44 11.352 144.44 10.456V8.37603C146.744 7.60803 148.952 6.55203 151.096 5.43203C151.64 5.14403 151.704 5.11203 151.96 5.11203C152.088 5.11203 152.792 5.17603 152.92 5.14403C153.016 5.11203 153.048 5.01603 153.048 4.92003C153.048 4.76003 152.856 4.56803 152.568 4.34403L150.232 2.48803C148.728 3.57603 147.16 4.50403 144.44 5.49603V2.61603C144.44 2.48803 144.504 2.32803 144.792 2.10403C145.08 1.91203 145.144 1.88003 145.144 1.72003C145.144 1.36803 144.536 1.30403 144.28 1.30403L140.856 1.14403V10.52C140.856 12.632 141.048 13.112 141.208 13.432L137.912 12.856C138.136 12.792 139.256 12.568 139.48 12.536V9.68803C137.88 9.97603 136.504 10.232 133.24 10.744V7.25603H139.992V4.44003H133.24V2.45603C133.24 2.26403 133.272 2.26403 133.848 1.88003C134.008 1.78403 134.104 1.68803 134.104 1.52803C134.104 1.36803 134.008 1.17603 133.304 1.14403L129.88 0.952028V11.256C128.504 11.448 127.896 11.544 126.616 11.704L127.384 14.36C127.608 15.096 127.736 15.224 127.928 15.224C128.056 15.224 128.088 15.16 128.408 14.712C128.504 14.616 128.536 14.584 129.592 14.424C133.208 13.816 135.448 13.368 137.464 12.952C137.272 13.848 136.888 15.16 136.44 16.12H130.168V28.504H133.816V27.736H146.968V28.504H150.648V16.12H140.152C140.504 15.32 140.792 14.584 140.888 14.328C140.952 14.2 140.984 14.2 141.208 14.04C141.336 13.944 141.368 13.88 141.4 13.784C141.784 14.2 142.168 14.52 144.472 14.52H150.36C153.016 14.52 153.784 13.432 154.328 10.36ZM146.968 20.6H133.816V18.744H146.968V20.6ZM146.968 24.92H133.816V23.064H146.968V24.92Z" fill="#00FFFF" style="mix-blend-mode:difference"/>
<path d="M185.464 17.24C185.464 17.016 185.112 16.792 185.016 16.728L182.712 15.192C182.136 16.408 181.176 17.976 180.152 18.808L182.52 20.568C183.672 19.416 184.344 18.328 184.76 17.656C184.824 17.592 184.856 17.56 185.144 17.528C185.24 17.528 185.464 17.496 185.464 17.24ZM186.36 24.312C180.344 21.336 178.04 16.6 178.04 15.672V14.872H185.592V12.44H178.04V10.808H183.416V8.37603H178.04V6.84003H184.92V4.40803H180.92C181.08 4.12003 181.816 2.61603 181.848 2.58403C181.912 2.48803 181.976 2.48803 182.264 2.39203C182.648 2.29603 182.712 2.16803 182.712 2.00803C182.712 1.65603 182.008 1.49603 181.784 1.43203L179.16 0.824028C178.776 2.13603 178.424 3.12803 177.816 4.40803H175.096C174.776 3.73603 173.976 2.00803 173.112 0.728027L170.584 1.68803C171.16 2.61603 171.704 3.67203 171.992 4.40803L168.536 4.40803V6.84003H174.648V8.37603H169.848V10.808H174.648V12.44H168.12V14.872H174.648V19.352C172.28 20.696 169.112 21.976 166.648 22.712L167.704 25.176C167.832 25.464 168.12 26.104 168.376 26.104C168.504 26.104 168.6 25.784 168.728 25.432C168.824 25.176 168.888 25.176 169.4 24.952C170.008 24.696 173.272 22.904 174.648 22.072V24.824C174.648 25.496 173.976 25.656 171.832 25.496L173.304 28.664C177.112 28.6 178.04 27.96 178.04 25.08V21.432C179.736 23.768 181.656 25.496 184.088 26.968L186.36 24.312ZM172.792 18.904C172.344 18.104 171.512 16.76 170.424 15.608L168.152 17.4C169.24 18.424 170.072 19.832 170.52 20.6L172.792 18.904ZM168.504 16.248C167.48 15.288 165.656 13.176 165.144 11.64V9.43203H167.64V6.48803H165.144V2.52003C165.144 2.42403 165.464 2.16803 165.624 2.00803C165.688 1.94403 165.784 1.88003 165.784 1.75203C165.784 1.46403 165.24 1.40003 164.696 1.36803L161.944 1.20803V6.48803H158.008V9.43203L161.592 9.43203C161.24 12.856 159.512 17.272 157.24 20.44L159.96 22.072C160.664 21.016 161.464 19.736 161.944 18.328V28.472H165.144V16.856C165.464 17.304 165.624 17.496 166.552 18.488L168.504 16.248Z" fill="#00FFFF" style="mix-blend-mode:difference"/>
<path d="M217.176 20.696C213.208 17.976 210.008 14.584 204.28 8.02403C202.744 6.23203 202.072 5.49603 200.568 5.49603C198.744 5.49603 197.624 7.06403 197.144 7.70403C194.008 11.928 192.088 14.552 189.176 17.144L192.76 19.448C194.456 17.592 197.912 12.952 198.968 11.512C199.256 11.096 199.928 10.2 200.824 10.2C201.624 10.2 202.008 10.712 203.064 12.024C206.456 16.376 210.04 20.6 214.296 24.152L217.176 20.696Z" fill="#00FFFF" style="mix-blend-mode:difference"/>
<path d="M247.544 14.776C247.544 7.64003 242.296 3.12803 235.64 3.12803C227.384 3.12803 221.528 9.59203 221.528 16.696C221.528 22.424 226.776 25.304 227.928 25.304C229.592 25.304 231.064 22.616 232.024 20.632C233.08 18.488 234.968 14.008 235.992 6.39203C237.176 6.48803 239.416 6.61603 241.432 8.53603C243.224 10.232 243.736 12.376 243.736 14.136C243.736 15.544 243.384 18.2 241.432 20.504C239.48 22.84 237.112 23.512 235.672 23.928L238.04 27.224C239.768 26.52 243.096 25.144 245.496 21.592C246.68 19.832 247.544 17.592 247.544 14.776ZM232.184 6.96803C231.544 11.96 228.792 20.312 227.128 20.312C226.552 20.312 225.08 18.968 225.08 16.376C225.08 14.424 226.008 11.448 228.28 9.27203C229.816 7.76803 231.256 7.28803 232.184 6.96803Z" fill="#00FFFF" style="mix-blend-mode:difference"/>
<path d="M3.92794 65.608C4.37594 65.128 4.43994 65.096 4.88794 64.68C7.79994 67.752 8.59994 68.616 9.97594 70.088L13.3679 68.744C13.3999 64.84 13.3999 64.264 13.4319 59.176C14.5519 58.76 16.4079 58.056 18.2959 58.056C21.2079 58.056 22.7439 60.168 22.7439 62.312C22.7439 64.552 21.4319 65.704 20.2799 65.704C19.2879 65.704 19.0319 64.872 18.6479 63.56L15.6719 64.744C16.1199 67.08 16.5679 69.288 20.0879 69.288C23.5119 69.288 26.0719 66.184 26.0719 62.248C26.0719 58.248 23.3199 54.952 18.3599 54.952C16.0879 54.952 14.3599 55.432 13.4319 55.688L13.4639 52.52C14.9359 52.232 16.4399 51.912 18.4559 51.144V47.496C16.6639 48.328 15.5759 48.712 13.5279 49.16C13.5599 48.552 13.6559 45.416 13.7839 45.224C13.8479 45.128 14.3279 44.744 14.3279 44.616C14.3279 44.456 14.3279 44.232 13.4319 44.104L9.87994 43.624C9.91194 45.704 9.91194 45.992 9.94394 49.608C9.01594 49.672 8.53594 49.704 7.73594 49.704C6.26394 49.704 5.49594 49.64 4.59994 49.544L5.07994 53.16C6.87194 53.224 8.02394 53.192 9.94394 53L9.97594 57.128C7.83194 58.28 7.22394 58.632 1.97594 62.024L3.92794 65.608ZM9.97594 65.864C9.39994 65.352 8.08794 64.136 7.06394 62.856C8.40794 61.864 9.07994 61.448 9.97594 60.904V65.864ZM28.5039 52.328C26.9359 51.112 24.8239 49.672 22.1999 48.712L20.1199 51.528C23.3199 52.712 24.9839 53.928 26.4239 55.176L28.5039 52.328Z" fill="#00FFFF" style="mix-blend-mode:difference"/>
<path d="M46.6799 46.6V43.464H33.2079C33.4639 49.032 33.5599 51.176 33.5599 54.92C33.5599 61.704 32.9839 65.96 31.6719 69.48L34.9679 70.184C35.1919 69.64 35.5119 68.872 36.0239 66.44L38.1679 67.4L38.7759 70.76C41.6239 70.824 43.5119 70.856 43.5119 67.976V60.008H46.6479V48.968H42.8719C43.4479 47.848 43.5119 47.752 44.0239 46.6H46.6799ZM55.9599 53.544H50.7759V51.688H55.9599V53.544ZM60.7919 68.52C58.7439 67.624 57.3999 66.728 56.0559 65.352H59.1599V48.968H54.3279C55.0959 47.496 55.1919 47.336 55.5439 46.568H60.1519V43.528H47.4479V46.568H51.7359C51.3199 47.72 51.1279 48.136 50.7759 48.968H47.6719V65.352H50.1359C48.7599 66.76 46.9999 67.72 45.1119 68.296L47.4479 70.792C48.7279 70.216 50.2639 69.416 52.0559 67.656C52.5359 67.688 53.0159 67.688 53.0159 67.336C53.0159 67.112 52.8559 66.984 52.7599 66.888L50.9679 65.352H54.7439L53.0799 66.856C54.6159 68.52 56.1199 69.64 58.1679 70.696L60.7919 68.52ZM55.9599 57.864H50.7759V56.008H55.9599V57.864ZM55.9599 62.408H50.7759V60.328H55.9599V62.408ZM43.7999 53.128H40.2799V51.24H43.7999V53.128ZM43.7999 57.544H40.2799V55.432H43.7999V57.544ZM40.5359 61.384C40.3439 61.256 40.0879 61.16 39.9919 61.128L37.7199 60.744C37.3999 62.472 37.0159 63.944 36.0879 65.928C36.6639 61.992 36.7919 58.056 36.7919 54.088C36.7919 50.632 36.6639 48.008 36.5679 46.6H40.3439C40.1839 47.08 39.9919 47.688 39.4799 48.968H37.4319V60.008H40.5359V61.384ZM40.5359 66.664C40.5359 66.888 40.4079 67.656 39.6399 67.656C39.4159 67.656 39.1919 67.624 38.6799 67.528C39.3199 66.28 39.7679 64.84 40.1839 62.696C40.2159 62.632 40.2479 62.568 40.5359 62.184V66.664ZM47.5439 66.024C47.1279 63.816 46.6799 62.376 46.1359 60.808L43.6399 61.512C44.3119 63.528 44.6639 64.936 45.0479 66.76L47.5439 66.024Z" fill="#00FFFF" style="mix-blend-mode:difference"/>
<path d="M91.0959 60.84C90.2319 53.448 87.3839 49.416 85.8479 47.24L82.5519 48.84C84.2159 51.4 86.3279 55.176 87.2559 61.832L91.0959 60.84ZM76.9839 60.36L74.3279 57.992C73.7199 59.528 72.4079 62.92 71.2559 62.92C70.6159 62.92 69.0799 61.768 69.0799 55.528C69.0799 52.008 69.3359 50.152 69.6879 48.392C70.2319 48.2 70.6159 48.072 70.6159 47.72C70.6159 47.336 70.1039 47.176 69.8799 47.112L66.3599 46.152C65.8479 48.296 65.3999 50.376 65.3999 54.472C65.3999 60.552 66.4239 64.296 68.6639 66.472C69.2079 66.984 70.0079 67.528 71.0319 67.528C73.6239 67.528 75.2239 64.136 76.9839 60.36Z" fill="#00FFFF" style="mix-blend-mode:difference"/>
</svg>
