<svg width="63" height="128" viewBox="0 0 63 128" fill="none" xmlns="http://www.w3.org/2000/svg">
<path d="M6.51602 23V9.85999H4.57202C4.17602 11.57 2.66402 12.146 1.71002 12.146H0.666016V13.856H4.23002V23H6.51602Z" fill="#FF0000"/>
<path d="M13.188 23V20.516H10.758V23H13.188Z" fill="#FF0000"/>
<path d="M50.3199 17.56V15.16H45.1839C46.1199 13.456 46.3359 12.976 46.7679 11.92C46.8159 11.8 46.8399 11.8 47.1039 11.68C47.1999 11.632 47.2719 11.56 47.2719 11.488C47.2719 11.272 46.9839 11.128 46.8639 11.08L45.1119 10.312H49.2639V7.98399H41.3439V6.61599C41.3439 6.54399 41.4159 6.47199 41.5839 6.32799C41.7039 6.23199 41.7999 6.13599 41.7999 6.01599C41.7999 5.84799 41.6319 5.77599 41.3679 5.75199L38.7519 5.46399V7.98399H30.8319V10.312H34.4319L32.5839 11.176C33.1839 12.16 34.0479 14.128 34.4799 15.16H29.6559V17.56H36.9039C35.2239 20.032 32.7279 22.168 29.4159 23.968L31.4559 25.912C35.0319 23.704 37.0479 21.592 38.7519 19.144V26.176H41.3439V19.528C42.5199 21.208 44.3679 23.704 48.1359 25.72L50.1039 23.656C47.2239 22.192 44.5599 20.296 42.8559 17.56H50.3199ZM44.6079 10.312C44.1279 11.728 43.6719 13.024 42.8319 14.416L44.0559 15.16H41.3439V10.312H44.6079ZM38.7519 15.16H35.3439L36.8799 14.32C36.4479 13.024 35.4879 10.96 35.0079 10.312H38.7519V15.16Z" fill="#FF0000"/>
<path d="M48.2799 45.552V37.992H38.5359V45.552H48.2799ZM45.9519 41.016H40.8639V40.008H45.9519V41.016ZM45.9519 43.752H40.8639V42.72H45.9519V43.752ZM50.0799 48.408V46.464H36.7599V48.408H39.0399C38.5599 49.416 38.1279 50.064 37.2879 50.976V48.984C36.4959 49.272 35.7039 49.512 34.8639 49.752V44.856H37.3599V42.384H34.8639V38.832C34.8639 38.664 35.0559 38.544 35.1759 38.472C35.3199 38.352 35.4399 38.256 35.4399 38.088C35.4399 37.92 35.2719 37.848 35.1279 37.824L32.3439 37.608V42.384H30.0159V44.856H32.3439V50.448C31.5039 50.664 30.4479 50.928 29.6799 51.072L30.1119 53.76C30.1359 53.88 30.2319 53.928 30.2799 53.928C30.3999 53.928 30.4719 53.832 30.7359 53.544C30.8799 53.376 30.9759 53.352 31.8639 53.136C32.5599 52.968 35.1999 52.08 36.8319 51.456C35.8959 52.272 35.3919 52.632 34.7199 53.04L36.6159 54.312C37.6479 53.544 38.6079 52.704 39.8319 51.264H40.9359C40.4559 52.008 38.3919 54.624 35.2239 56.064L37.0959 57.384C38.4399 56.52 39.7119 55.536 40.8639 54.408C42.1599 53.16 42.8799 51.864 43.2159 51.264H44.4159C43.5519 52.896 41.5599 55.488 38.9439 57.024L40.7439 58.224C42.1599 57.288 42.9999 56.448 43.6959 55.704L44.6559 58.056C46.5759 58.032 47.7519 57.696 48.4719 56.568C49.3119 55.248 49.7679 51.72 49.7919 49.272H41.0559C41.1999 49.032 41.3679 48.696 41.4879 48.408H50.0799ZM47.2479 51.264C47.1759 52.536 47.0559 53.808 46.4799 54.936C46.2159 55.464 45.8319 55.608 45.2079 55.608C45.1119 55.608 44.6079 55.608 43.9119 55.464C45.6879 53.472 46.2399 52.272 46.6719 51.264H47.2479Z" fill="#FF0000"/>
<path d="M50.1759 75.56V73.016H41.4399V70.688C41.6799 70.472 41.9679 70.28 41.9679 70.136C41.9679 69.92 41.6319 69.848 41.5359 69.848L38.4639 69.608V73.016H29.7519V75.56H37.1679C37.1439 77.768 37.1199 80.336 35.2719 83.24C33.5439 85.976 31.4079 87.032 29.6319 87.896L31.7679 89.936C33.1839 89.12 34.7679 88.232 36.4479 86.168C38.2239 83.984 38.8239 82.088 39.3279 80.48H44.4639C44.5839 83.24 44.2239 85.424 43.7679 86.408C43.3119 87.392 42.7599 87.584 41.8239 87.584C40.9119 87.584 40.5279 87.56 39.9759 87.512L41.2239 90.176C44.5359 90.08 45.8079 89.192 46.6719 86.048C47.3679 83.504 47.3199 81.008 47.2479 78.056H39.8319C39.9759 77.12 40.0479 76.4 40.0719 75.56H50.1759Z" fill="#FF0000"/>
<path d="M50.3919 120.52C48.6159 117.328 47.0799 115.6 45.6159 114.064L43.5039 115.456C44.1039 116.056 44.5119 116.536 45.3279 117.616C44.0799 117.808 43.3119 117.904 40.8399 118.12C41.6799 116.392 42.4479 114.64 43.1919 112.864H50.2479V110.464H43.7919V107.488H49.1199V105.016H43.7919V103.024C43.7919 102.928 43.8639 102.856 44.1279 102.664C44.3199 102.544 44.4159 102.424 44.4159 102.304C44.4159 101.992 43.9839 101.968 43.5519 101.92L41.0319 101.704V105.016H36.3999V107.488H41.0319V110.464H35.1279V112.864H40.0479C39.4239 114.424 38.7759 116.08 37.7919 118.36C37.1919 118.384 35.9919 118.456 35.0079 118.456L35.7039 121.264C35.7519 121.408 35.8479 121.768 36.0399 121.768C36.1839 121.768 36.2319 121.672 36.3519 121.36C36.3999 121.192 36.4719 121.192 36.9519 121.12C40.7199 120.616 42.9279 120.28 46.6719 119.656C46.9599 120.184 47.3439 120.808 47.8959 121.984L50.3919 120.52ZM35.5359 104.632C34.4799 103.432 33.2799 102.472 32.4879 101.92L30.8079 103.768C32.5599 105.184 33.2559 106 33.6879 106.528L35.5359 104.632ZM33.6159 110.104C32.7039 109.168 31.4079 108.28 30.3519 107.728L28.8879 109.6C30.1119 110.344 31.0239 111.04 32.0559 112.12L33.6159 110.104ZM34.4799 115.336L32.3439 113.776C31.4559 116.392 30.1119 118.864 28.9119 120.544L31.0959 122.032C31.2879 122.152 31.4799 122.296 31.6479 122.296C31.8159 122.296 31.8639 122.104 31.8639 122.032C31.8639 121.96 31.7679 121.672 31.7679 121.6C31.7679 121.456 31.9839 121.048 32.0799 120.856C32.5119 120.04 33.8319 116.992 34.4799 115.336Z" fill="#FF0000"/>
</svg>
