<svg width="256" height="84" viewBox="0 0 256 84" fill="none" xmlns="http://www.w3.org/2000/svg">
<path d="M30.176 17.72C27.648 16.984 25.088 15.576 23.968 14.904C21.952 13.656 20.128 12.12 18.56 10.328C18.72 10.264 18.848 10.104 18.848 9.91204C18.848 9.68805 18.624 9.52804 18.368 9.49604L13.792 8.69604C10.88 13.336 7.55201 16.312 2.11201 18.456L4.54401 21.272C5.95201 20.664 6.91201 20.184 8.54401 19.192V21.816H23.968V19.096C24.928 19.64 26.016 20.248 27.648 20.792L30.176 17.72ZM23.168 18.648H9.40801C12.032 16.76 13.728 15.192 16.032 12.376C18.56 15.384 20.448 16.856 23.168 18.648ZM28.448 34.392C26.56 31.96 23.744 29.016 20.992 26.84H27.744V23.736H4.22401V26.84H11.488C10.048 29.592 9.37601 30.712 8.57601 31.992C6.97601 32.056 6.08001 32.088 4.06401 32.088L5.08801 36.28C5.12001 36.44 5.28001 36.568 5.37601 36.568C5.47201 36.568 5.56801 36.472 5.76001 36.088C5.82401 35.96 5.92001 35.896 6.08001 35.864C6.84801 35.736 10.24 35.448 10.912 35.384C11.84 35.288 19.04 34.488 23.424 33.944C24.832 35.608 25.216 36.312 25.536 36.792L28.448 34.392ZM20.832 31.16C18.176 31.48 15.52 31.64 12.832 31.768C13.408 30.904 14.336 29.496 15.84 26.84H20.64L18.336 29.176C19.616 30.04 20.384 30.744 20.832 31.16Z" fill="#FF0000"/>
<path d="M58.4 19.736V9.65604H45.408V19.736H58.4ZM55.296 13.688L48.512 13.688V12.344H55.296V13.688ZM55.296 17.336H48.512V15.96L55.296 15.96V17.336ZM60.8 23.544V20.952H43.04V23.544H46.08C45.44 24.888 44.864 25.752 43.744 26.968V24.312C42.688 24.696 41.632 25.016 40.512 25.336V18.808H43.84V15.512H40.512V10.776C40.512 10.552 40.768 10.392 40.928 10.296C41.12 10.136 41.28 10.008 41.28 9.78404C41.28 9.56005 41.056 9.46404 40.864 9.43204L37.152 9.14404V15.512H34.048V18.808H37.152V26.264C36.032 26.552 34.624 26.904 33.6 27.096L34.176 30.68C34.208 30.84 34.336 30.904 34.4 30.904C34.56 30.904 34.656 30.776 35.008 30.392C35.2 30.168 35.328 30.136 36.512 29.848C37.44 29.624 40.96 28.44 43.136 27.608C41.888 28.696 41.216 29.176 40.32 29.72L42.848 31.416C44.224 30.392 45.504 29.272 47.136 27.352H48.608C47.968 28.344 45.216 31.832 40.992 33.752L43.488 35.512C45.28 34.36 46.976 33.048 48.512 31.544C50.24 29.88 51.2 28.152 51.648 27.352H53.248C52.096 29.528 49.44 32.984 45.952 35.032L48.352 36.632C50.24 35.384 51.36 34.264 52.288 33.272L53.568 36.408C56.128 36.376 57.696 35.928 58.656 34.424C59.776 32.664 60.384 27.96 60.416 24.696H48.768C48.96 24.376 49.184 23.928 49.344 23.544H60.8ZM57.024 27.352C56.928 29.048 56.768 30.744 56 32.248C55.648 32.952 55.136 33.144 54.304 33.144C54.176 33.144 53.504 33.144 52.576 32.952C54.944 30.296 55.68 28.696 56.256 27.352H57.024Z" fill="#FF0000"/>
<path d="M64.704 29.752C67.2 31.768 69.216 34.072 70.88 36.856L74.208 34.2C72.224 30.84 69.792 28.824 67.104 27.256L64.704 29.752Z" fill="#FF0000"/>
<path d="M122.24 31.16C119.616 28.312 116.864 25.592 113.76 23.256C115.776 20.12 116.384 18.648 117.472 16.088C117.856 15.16 118.56 14.616 119.2 14.168L116.736 11.448C116.16 11.832 115.68 12.152 115.072 12.152H101.28V15.864H113.472C112.736 17.688 111.488 20.92 108.032 24.6C103.968 28.92 99.904 30.616 97.824 31.512L100.64 34.424C106.656 31.48 109.024 29.048 111.584 26.2C114.208 28.312 116.48 30.616 119.392 34.2L122.24 31.16Z" fill="#FF0000"/>
<path d="M152.512 16.248L150.144 13.784C149.664 14.104 149.088 14.552 148.704 14.552H141.344C141.984 13.464 142.592 12.216 142.976 11.448C143.424 11.256 143.712 11.128 143.712 10.936C143.712 10.712 143.264 10.52 143.072 10.456L139.552 9.43204C138.176 13.432 135.104 18.904 130.592 21.976L133.568 24.184C135.68 22.52 137.248 20.632 139.36 17.688H147.552C147.104 19.288 146.592 20.76 144.672 23.608C142.464 22.104 141.152 21.4 139.232 20.568L137.28 22.968C139.712 24.28 141.216 25.336 142.56 26.328C140.16 28.856 137.44 31.576 132.256 33.368L135.136 36.376C140.512 33.56 142.816 31.32 145.28 28.568C146.624 29.752 147.232 30.392 147.776 30.904L150.144 28.152C149.024 27.064 148.256 26.392 147.456 25.72C149.6 22.36 150.24 20.536 151.136 18.04C151.392 17.304 151.936 16.728 152.512 16.248Z" fill="#FF0000"/>
<path d="M174.176 21.848C173.824 20.536 173.184 18.552 172 16.664L169.152 17.752C170.144 19.384 170.88 21.016 171.424 22.936L174.176 21.848ZM182.592 18.424C182.592 18.2 182.368 17.976 181.952 17.848L178.816 16.888C177.6 25.944 173.248 30.328 167.04 33.4L169.6 35.672C172.672 33.88 179.136 30.136 181.536 20.312C181.856 19.064 181.888 18.936 182.176 18.776C182.528 18.648 182.592 18.616 182.592 18.424ZM168.512 23.384C167.968 21.592 167.136 19.928 166.048 18.232L163.104 19.352C164.16 20.984 164.992 22.68 165.536 24.504L168.512 23.384Z" fill="#FF0000"/>
<path d="M215.52 14.648L212.352 11.768C212.032 12.024 211.68 12.28 211.296 12.28H193.216V16.024H210.24C206.944 25.688 201.248 29.816 195.712 32.408L199.2 35.224C201.12 34.168 204.672 32.248 207.968 28.216C211.424 24.024 212.96 19.992 214.4 16.248C214.656 15.576 214.944 15.192 215.52 14.648Z" fill="#FF0000"/>
<path d="M248.544 22.776C248.544 15.64 243.296 11.128 236.64 11.128C228.384 11.128 222.528 17.592 222.528 24.696C222.528 30.424 227.776 33.304 228.928 33.304C230.592 33.304 232.064 30.616 233.024 28.632C234.08 26.488 235.968 22.008 236.992 14.392C238.176 14.488 240.416 14.616 242.432 16.536C244.224 18.232 244.736 20.376 244.736 22.136C244.736 23.544 244.384 26.2 242.432 28.504C240.48 30.84 238.112 31.512 236.672 31.928L239.04 35.224C240.768 34.52 244.096 33.144 246.496 29.592C247.68 27.832 248.544 25.592 248.544 22.776ZM233.184 14.968C232.544 19.96 229.792 28.312 228.128 28.312C227.552 28.312 226.08 26.968 226.08 24.376C226.08 22.424 227.008 19.448 229.28 17.272C230.816 15.768 232.256 15.288 233.184 14.968Z" fill="#FF0000"/>
<path d="M29.824 65.384L27.008 63.656C26.944 64.552 26.848 65.864 26.08 65.864C25.504 65.864 24.608 65.096 24.096 64.616C25.216 63.048 26.272 61.448 26.976 59.816C27.04 59.688 27.168 59.656 27.328 59.624C27.52 59.592 27.744 59.56 27.744 59.368C27.744 59.272 27.712 59.144 27.104 58.856L24.32 57.48C23.52 59.496 22.912 60.616 22.144 61.864C21.696 61 21.12 59.816 20.64 57.192H29.664V54.056H25.504L27.008 53.096C26.208 52.072 25.504 51.4 24.704 50.792L22.08 52.232C22.912 53.096 23.328 53.512 23.808 54.056H20.32C20.32 53.896 20.256 52.296 20.32 52.168C20.416 52.04 21.056 51.656 21.056 51.528C21.056 51.272 20.704 51.176 20.128 51.144L16.96 50.952C16.928 52.072 16.928 52.808 17.024 54.056H4.19201C4.25601 55.496 4.32001 56.968 4.32001 58.312C4.32001 63.848 3.20001 66.056 1.76001 68.648L4.86401 70.248C6.94401 66.888 7.58401 64.072 7.52001 57.192H17.472C18.272 61.256 19.2 63.144 20.064 64.68C18.496 66.408 17.44 67.016 16.704 67.464V61.928H8.19201V68.84H10.912V67.784H16.416L18.976 70.088C20.16 69.32 21.024 68.392 22.016 67.272C24.544 69.768 26.4 70.056 26.944 70.056C29.056 70.056 29.76 66.216 29.824 65.384ZM14.304 65.64H10.912V63.912H14.304V65.64ZM16.832 60.712V58.28H8.38401V60.712H16.832ZM29.984 75.688C28.896 73.544 27.168 71.24 26.272 70.088L23.2 71.976C24.352 73.192 25.6 74.76 27.072 77.608L29.984 75.688ZM19.264 72.424C18.624 71.432 17.568 70.088 16.416 68.872L13.984 70.536C14.976 71.624 16.032 73.128 16.576 74.056L19.264 72.424ZM23.808 74.024L20.864 72.2C20.64 75.016 19.456 75.112 18.592 75.112H14.56C14.176 75.112 13.056 75.048 13.056 74.152V71.432C13.056 71.304 13.216 71.208 13.312 71.144C13.536 71.016 13.6 70.888 13.6 70.76C13.6 70.504 13.408 70.504 12.896 70.472L9.56801 70.28V76.488C9.56801 77.608 10.976 78.376 12.192 78.376H19.584C22.112 78.376 22.752 77.288 23.04 76.808C23.776 75.56 23.808 74.696 23.808 74.024ZM8.96001 72.008C8.96001 71.752 8.57601 71.56 8.38401 71.464L5.40801 70.056C4.86401 71.656 3.77601 74.344 2.11201 76.488L4.99201 78.408C6.59201 76.424 7.55201 74.216 8.19201 72.456C8.25601 72.36 8.32001 72.328 8.76801 72.2C8.89601 72.168 8.96001 72.136 8.96001 72.008Z" fill="#FF0000"/>
<path d="M41.536 53.256C40.352 52.584 38.656 51.72 36.512 51.144L35.136 54.024C36.384 54.376 38.08 54.92 39.872 55.848L41.536 53.256ZM61.856 60.488L58.208 59.56C58.208 60.232 58.144 60.904 57.984 61.576C57.792 62.28 57.504 62.504 57.088 62.504C56.576 62.504 56.416 62.248 56.416 61.544C56.416 61.416 56.64 54.888 56.672 53.64L50.976 53.96C51.008 53.576 50.944 53 51.008 52.616C51.04 52.488 51.104 52.36 51.36 52.168C51.648 51.976 51.712 51.912 51.712 51.752C51.712 51.4 51.264 51.304 50.944 51.304L47.328 51.144C47.328 52.68 47.296 53.256 47.296 54.184L42.432 54.44L42.496 57.96L46.976 57.704C46.336 61.288 44.864 62.632 40.672 64.52L43.552 66.888C44.032 66.728 44.576 66.504 45.376 66.056V67.336H36.32C36.352 66.504 36.448 66.408 37.248 65.8C39.2 64.296 41.024 62.92 42.656 61.544L41.248 58.728C38.528 61.064 36.704 62.312 33.504 64.04L35.296 67.016C35.36 67.112 35.392 67.144 35.52 67.336H33.664V70.472H42.496C40.224 72.936 38.24 74.024 33.024 75.752L35.968 78.568C39.616 77.16 42.784 75.176 45.376 72.264V78.568H49.216V72.424C52.224 75.176 54.304 76.488 58.72 78.28L61.824 75.112C57.472 74.216 54.72 73.064 52.096 70.472H61.088V67.336H49.216V66.184C49.216 66.024 49.344 65.928 49.536 65.768C49.696 65.672 49.856 65.576 49.856 65.384C49.856 65 49.344 64.936 49.024 64.904L47.104 64.808C48.576 63.368 49.856 61.768 50.656 57.448L52.992 57.32C52.896 59.144 52.768 62.184 52.768 63.4C52.768 65.608 53.216 66.056 55.296 66.056H57.76C59.744 66.056 61.088 66.024 61.856 60.488ZM39.296 57.352C37.44 56.36 35.712 55.848 34.336 55.528L33.184 58.536C34.656 58.888 36.512 59.4 38.144 60.264L39.296 57.352Z" fill="#FF0000"/>
<path d="M92.416 62.792V59.528H89.664V52.68C89.664 52.488 89.728 52.424 90.176 52.04C90.368 51.88 90.464 51.752 90.464 51.56C90.464 51.176 89.984 51.08 89.728 51.08L86.144 50.888V59.528H78.976V62.792H86.144V73.992C86.144 75.112 85.888 75.336 82.592 75.144L84.32 78.6C88.64 78.536 89.664 78.152 89.664 74.76V62.792H92.416ZM84.192 69.736C83.584 67.592 82.624 65.992 81.44 64.488L78.336 66.216C79.712 68.104 80.384 69.672 80.896 71.304L84.192 69.736ZM80.384 58.824V55.56H74.56V52.424C74.912 52.072 75.2 52.008 75.2 51.688C75.2 51.432 74.944 51.336 74.784 51.336L70.752 51.08V55.56H64.992V58.824H74.176C73.44 62.504 73.312 63.08 72.512 65.16C70.624 62.632 69.632 61.672 68.448 60.648L65.6 62.728C67.776 64.648 69.024 66.184 70.752 68.68C68.576 72.456 66.08 74.568 63.744 76.488L67.072 78.664C70.24 75.976 71.712 73.864 72.864 72.104C73.728 73.736 74.304 74.952 75.072 76.808L78.432 74.76C76.96 71.848 75.872 70.088 74.88 68.488C75.744 66.568 76.832 64.104 77.824 58.824H80.384Z" fill="#FF0000"/>
<path d="M123.712 62.312V59.464H111.84V58.888C111.84 58.728 111.872 58.664 112.16 58.376C112.224 58.312 112.288 58.216 112.288 58.056C112.288 57.896 112.192 57.8 112.064 57.736L111.616 57.48C112.032 57.064 112.224 56.84 112.768 56.104H114.784C115.104 56.936 115.264 57.736 115.36 58.344L118.784 58.184C118.656 57.576 118.496 56.968 118.144 56.104H123.616V53.256H114.592C114.656 53.096 114.944 52.456 115.008 52.328C115.04 52.264 115.392 52.104 115.424 52.104C115.552 52.04 115.584 51.912 115.584 51.816C115.584 51.656 115.456 51.56 115.296 51.528L111.968 50.696C111.68 51.656 111.264 53.032 109.568 55.368V53.256H102.624C102.72 53.096 103.04 52.328 103.136 52.2C103.2 52.104 103.68 51.848 103.776 51.784C103.808 51.752 103.904 51.656 103.904 51.56C103.904 51.432 103.776 51.336 103.584 51.272L100.416 50.408C98.976 53.704 97.632 55.336 96.224 56.84L98.88 58.248C99.424 57.704 99.84 57.256 100.736 56.104H102.368C102.592 56.68 102.784 57.288 103.008 58.376L106.368 58.056C106.272 57.352 106.144 56.808 105.856 56.104H108.96C108.48 56.68 108.224 56.936 107.872 57.256L108.128 57.384V59.464H96.608V62.312H108.128V64.04H98.4V71.816H102.208V66.984H107.328C103.008 72.328 99.808 74.28 96.16 75.688L98.624 78.344C102.4 76.552 105.632 74.088 108.128 71.08V78.632H111.84V71.304C114.272 74.248 117.568 76.648 120.704 78.344L123.36 75.56C118.88 73.864 114.944 71.208 112.512 66.984H118.24V68.36C118.24 68.904 117.888 68.968 117.632 68.968C117.248 68.968 116.832 68.904 116.448 68.84L117.536 72.072H119.264C121.088 72.072 121.888 71.368 121.888 69.928V64.04H111.84V62.312H123.712Z" fill="#FF0000"/>
</svg>
