<svg width="64" height="79" viewBox="0 0 64 79" fill="none" xmlns="http://www.w3.org/2000/svg">
<path d="M49.904 12.096V9.696H44.768C45.704 7.992 45.92 7.512 46.352 6.456C46.4 6.336 46.424 6.336 46.688 6.216C46.784 6.168 46.856 6.096 46.856 6.024C46.856 5.808 46.568 5.664 46.448 5.616L44.696 4.848L48.848 4.848V2.52H40.928V1.152C40.928 1.08 41 1.008 41.168 0.863999C41.288 0.767999 41.384 0.672 41.384 0.552C41.384 0.383999 41.216 0.311999 40.952 0.287999L38.336 0V2.52L30.416 2.52V4.848H34.016L32.168 5.712C32.768 6.696 33.632 8.664 34.064 9.696H29.24V12.096H36.488C34.808 14.568 32.312 16.704 29 18.504L31.04 20.448C34.616 18.24 36.632 16.128 38.336 13.68V20.712H40.928V14.064C42.104 15.744 43.952 18.24 47.72 20.256L49.688 18.192C46.808 16.728 44.144 14.832 42.44 12.096H49.904ZM44.192 4.848C43.712 6.264 43.256 7.56 42.416 8.952L43.64 9.696H40.928V4.848H44.192ZM38.336 9.696H34.928L36.464 8.856C36.032 7.56 35.072 5.496 34.592 4.848H38.336V9.696Z" fill="#FF0000"/>
<path d="M47.864 37.088V29.528H38.12V37.088H47.864ZM45.536 32.552H40.448V31.544H45.536V32.552ZM45.536 35.288H40.448V34.256H45.536V35.288ZM49.664 39.944V38H36.344V39.944H38.624C38.144 40.952 37.712 41.6 36.872 42.512V40.52C36.08 40.808 35.288 41.048 34.448 41.288V36.392H36.944V33.92H34.448V30.368C34.448 30.2 34.64 30.08 34.76 30.008C34.904 29.888 35.024 29.792 35.024 29.624C35.024 29.456 34.856 29.384 34.712 29.36L31.928 29.144V33.92H29.6V36.392H31.928V41.984C31.088 42.2 30.032 42.464 29.264 42.608L29.696 45.296C29.72 45.416 29.816 45.464 29.864 45.464C29.984 45.464 30.056 45.368 30.32 45.08C30.464 44.912 30.56 44.888 31.448 44.672C32.144 44.504 34.784 43.616 36.416 42.992C35.48 43.808 34.976 44.168 34.304 44.576L36.2 45.848C37.232 45.08 38.192 44.24 39.416 42.8H40.52C40.04 43.544 37.976 46.16 34.808 47.6L36.68 48.92C38.024 48.056 39.296 47.072 40.448 45.944C41.744 44.696 42.464 43.4 42.8 42.8H44C43.136 44.432 41.144 47.024 38.528 48.56L40.328 49.76C41.744 48.824 42.584 47.984 43.28 47.24L44.24 49.592C46.16 49.568 47.336 49.232 48.056 48.104C48.896 46.784 49.352 43.256 49.376 40.808H40.64C40.784 40.568 40.952 40.232 41.072 39.944H49.664ZM46.832 42.8C46.76 44.072 46.64 45.344 46.064 46.472C45.8 47 45.416 47.144 44.792 47.144C44.696 47.144 44.192 47.144 43.496 47C45.272 45.008 45.824 43.808 46.256 42.8H46.832Z" fill="#FF0000"/>
<path d="M36.248 74.824V59.944H29.24L29.24 75.76H31.664V74.032H33.8V74.824H36.248ZM33.8 65.728H31.664V62.32H33.8V65.728ZM33.8 71.656H31.664V68.128H33.8V71.656ZM49.88 67.096V64.84H44.48V62.896H48.872V60.64H44.48V59.032C44.48 58.912 44.528 58.912 44.768 58.72C44.888 58.648 45.008 58.504 45.008 58.384C45.008 58.192 44.864 58.12 44.696 58.12L41.744 57.976V60.64H37.736V62.896H41.744V64.84H37.064V67.096H44.528V69.4H37.112V71.656H44.528V75.208C44.528 75.952 44.072 76.048 43.544 76.048C43.472 76.048 42.8 76.048 41.96 75.952L43.136 78.808C46.184 78.784 47.216 78.352 47.216 76.456V71.656H49.784V69.4H47.216V67.096H49.88ZM42.128 74.416C40.856 72.976 39.872 72.256 39.296 71.824L37.784 73.6C38.288 73.984 39.224 74.656 40.568 76.24L42.128 74.416Z" fill="#FF0000"/>
</svg>
