<svg width="64" height="128" viewBox="0 0 64 128" fill="none" xmlns="http://www.w3.org/2000/svg">
<path d="M50.296 10.768V8.75202H42.592C42.616 8.53602 42.616 8.32002 42.616 8.10402C43.312 8.08002 44.872 8.03202 47.08 7.79202C47.368 7.76802 48.616 7.60002 48.808 7.60002C48.928 7.60002 49.504 7.69602 49.624 7.69602C49.72 7.69602 49.888 7.64802 49.888 7.48002C49.888 7.38402 49.816 7.21602 49.648 7.00002L48.256 5.29602C46.384 5.77602 44.704 6.08802 42.208 6.23202L40.024 5.99202C40.12 6.90402 40.168 7.67202 40.168 8.08002C40.168 11.272 38.056 12.28 37.168 12.688L38.272 13.552H35.968V11.224C36.568 11.128 38.272 10.912 38.92 10.816L38.992 8.92002C38.008 9.01602 37.792 9.04002 35.968 9.25602V8.51202H39.328V6.40002H35.968C35.968 6.32802 36.184 6.11202 36.232 6.04002C36.28 5.99202 36.328 5.92002 36.328 5.82402C36.328 5.65602 36.232 5.56002 35.608 5.51202L33.136 5.29602V6.40002H29.776V8.51202H33.136V9.56802C31.504 9.76002 30.52 9.85602 29.704 9.90402L29.968 11.848C30.016 12.256 30.04 12.376 30.184 12.376C30.256 12.376 30.28 12.352 30.544 12.136C30.664 12.016 30.808 11.92 30.952 11.896C31.288 11.848 32.824 11.656 33.136 11.632C33.136 12.256 33.136 12.52 32.32 12.52C31.984 12.52 31.648 12.496 31.288 12.448L32.704 15.04C33.76 15.04 34.312 14.944 34.936 14.728V15.328H45.208V14.584H47.56V10.768H50.296ZM44.992 13.552H40.504C41.56 12.256 41.896 11.68 42.232 10.768H44.992V13.552ZM47.944 26.248V22.024H32.128V26.224H34.792V25.624H45.256V26.248H47.944ZM45.256 24.16H34.792V23.56H45.256V24.16ZM50.248 17.56V15.88H29.752V17.56H50.248ZM47.224 19.504V18.04H32.728V19.504H47.224ZM47.2 21.52V20.032H32.728V21.52H47.2Z" fill="#FF0000"/>
<path d="M50.128 45.504V41.016H43.552C43.84 40.44 43.888 40.272 44.176 39.504C44.296 39.192 44.32 39.168 44.68 39C44.776 38.952 44.848 38.88 44.848 38.76C44.848 38.64 44.728 38.568 44.608 38.52L42.064 37.68C40.744 41.64 39.592 43.32 38.512 44.712L40.384 46.224C41.056 45.48 41.488 44.808 42.184 43.608H47.632V45.24C47.632 48.912 47.2 52.104 46.72 53.688C46.264 55.2 45.784 55.392 45.016 55.392C44.152 55.392 43.384 55.296 42.88 55.248L44.2 58.056H45.232C46.792 58.056 48.088 57.744 48.76 55.824C49.648 53.328 50.128 48.912 50.128 45.504ZM45.232 51.072C44.584 48.792 43.96 47.376 43.36 46.2L41.2 47.064C41.728 48.12 42.376 49.488 43.072 51.792L45.232 51.072ZM39.592 48.984C39.352 47.52 38.992 46.176 38.488 44.76L36.328 45.264C36.496 45.72 36.616 46.224 36.736 46.656C35.704 46.776 35.2 46.824 34.432 46.872C35.776 45.432 37.072 43.92 38.296 42.36C38.632 41.928 38.656 41.88 39.04 41.856C39.064 41.856 39.304 41.808 39.304 41.592C39.304 41.544 39.28 41.4 39.136 41.328L36.952 40.008C36.376 40.992 35.728 42.048 34.336 43.968C34.024 43.56 33.76 43.272 33.352 42.864C34.408 41.496 34.6 41.208 35.824 39.36C35.872 39.288 35.944 39.24 36.256 39.096C36.352 39.048 36.4 38.976 36.4 38.904C36.4 38.856 36.352 38.76 36.232 38.688L34.096 37.536C33.496 38.952 32.944 40.08 31.912 41.568C31.696 41.376 31.48 41.208 31.096 40.944L29.608 42.96C30.712 43.704 31.72 44.472 32.944 45.84C32.608 46.296 32.248 46.68 32.008 46.968C31 47.016 30.472 47.016 29.44 47.016L29.92 49.8C29.944 49.92 30.064 50.016 30.136 50.016C30.256 50.016 30.328 49.944 30.52 49.752C30.712 49.536 30.88 49.512 31.048 49.512C31.36 49.464 32.32 49.368 33.184 49.272V58.176H35.632V48.936C36.04 48.864 36.376 48.84 37.216 48.624C37.312 49.08 37.36 49.392 37.408 49.608L39.592 48.984ZM39.616 54.888C39.328 54.024 38.896 52.512 38.608 50.4L36.664 50.808C36.856 52.392 37.096 53.616 37.6 55.416L39.616 54.888ZM32.824 51.336C32.824 51.192 32.536 51.12 32.392 51.096L30.424 50.736C30.256 53.448 29.872 54.888 29.416 56.16L31.48 56.712C32.176 54.984 32.32 53.736 32.44 51.744C32.704 51.552 32.824 51.456 32.824 51.336Z" fill="#FF0000"/>
<path d="M50.104 83.72V81.848H48.76V79.064H41.32V78.152H47.2V73.736H41.32V72.896H50.008V70.832H41.32V70.376C41.32 70.256 41.416 70.184 41.464 70.16C41.68 69.992 41.728 69.968 41.728 69.824C41.728 69.68 41.56 69.632 41.44 69.608L38.608 69.248V70.832H29.896L29.896 72.896H38.608V73.736H32.704V78.152H38.608V79.064H31.288V80.936H38.608V81.848H29.896V83.72H38.608V84.752H31.288V86.624H38.608V87.344C38.608 87.776 38.248 87.896 37.864 87.896C37.456 87.896 36.784 87.824 36.16 87.776L37.36 90.392C40.72 90.368 41.32 89.744 41.32 88.352V86.624H46.24V87.272H48.76V83.72H50.104ZM44.728 76.52H41.32V75.368H44.728V76.52ZM38.608 76.52H35.152V75.368H38.608V76.52ZM46.24 81.848H41.32V80.936H46.24V81.848ZM46.24 84.752H41.32V83.72H46.24V84.752Z" fill="#FF0000"/>
<path d="M50.704 120.328C48.232 119.656 46.96 118.768 46.12 118.12H49.12V106.264H44.248C44.8 105.112 44.944 104.632 45.088 104.2H50.344V102.04H37.264V103.552H29.608V105.88H32.176V114.472C31.216 114.664 30.16 114.88 29.152 115.024L29.608 117.688C29.608 117.784 29.656 117.88 29.8 117.88C29.92 117.88 29.944 117.856 30.136 117.664C30.28 117.52 30.424 117.472 30.904 117.376C34.024 116.68 36.616 115.864 37.648 115.528V113.128C36.712 113.44 35.44 113.752 34.912 113.872V105.88H37.768V104.2H42.16C41.968 105.04 41.8 105.52 41.536 106.264H38.536V118.12H40.384C39.184 119.32 37.984 120.016 36.184 120.64L38.056 122.416C39.76 121.696 41.008 120.736 42.088 119.824C42.352 119.608 42.4 119.608 42.76 119.56C42.784 119.56 43 119.512 43 119.368C43 119.296 42.976 119.224 42.928 119.176L41.848 118.12H45.856L44.416 119.512C45.976 120.976 47.584 121.672 49.096 122.224L50.704 120.328ZM46.456 112.768H41.2V111.448H46.456V112.768ZM46.456 109.624H41.2V108.328H46.456V109.624ZM46.456 115.984H41.2V114.592H46.456V115.984Z" fill="#FF0000"/>
<path d="M9.59394 22V20.11H3.50994C4.06794 19.012 4.51794 18.508 6.28194 17.284C7.99194 16.096 9.48594 14.908 9.48594 12.802C9.48594 10.498 7.73994 8.62598 5.03994 8.62598C0.971941 8.62598 0.82794 12.316 0.79194 13.486H3.07794C3.09594 12.514 3.14994 10.624 4.96794 10.624C6.15594 10.624 7.01994 11.56 7.01994 12.802C7.01994 13.954 6.44394 14.674 4.51794 16.078C1.54794 18.256 0.73794 19.66 0.41394 22H9.59394Z" fill="#FF0000"/>
<path d="M13.1879 22V19.516H10.7579V22H13.1879Z" fill="#FF0000"/>
</svg>
