<svg width="180" height="25" viewBox="0 0 180 25" fill="none" xmlns="http://www.w3.org/2000/svg">
<path d="M16.74 13.4201V11.6201H12.888C13.59 10.3421 13.752 9.9821 14.076 9.1901C14.112 9.1001 14.13 9.1001 14.328 9.0101C14.4 8.9741 14.454 8.9201 14.454 8.8661C14.454 8.7041 14.238 8.5961 14.148 8.5601L12.834 7.9841H15.948V6.2381H10.008V5.2121C10.008 5.1581 10.062 5.1041 10.188 4.9961C10.278 4.9241 10.35 4.8521 10.35 4.7621C10.35 4.6361 10.224 4.5821 10.026 4.5641L8.06401 4.3481V6.2381H2.12401V7.9841H4.82401L3.43801 8.6321C3.88801 9.3701 4.53601 10.8461 4.86001 11.6201H1.24201V13.4201H6.67801C5.41801 15.2741 3.54601 16.8761 1.06201 18.2261L2.59201 19.6841C5.27401 18.0281 6.78601 16.4441 8.06401 14.6081V19.8821H10.008V14.8961C10.89 16.1561 12.276 18.0281 15.102 19.5401L16.578 17.9921C14.418 16.8941 12.42 15.4721 11.142 13.4201H16.74ZM12.456 7.9841C12.096 9.0461 11.754 10.0181 11.124 11.0621L12.042 11.6201H10.008V7.9841H12.456ZM8.06401 11.6201H5.50801L6.66001 10.9901C6.33601 10.0181 5.61601 8.4701 5.25601 7.9841H8.06401V11.6201Z" fill="#FF0000"/>
<path d="M33.21 10.4141V4.7441H25.902V10.4141H33.21ZM31.464 7.0121H27.648V6.2561H31.464V7.0121ZM31.464 9.0641H27.648V8.2901H31.464V9.0641ZM34.56 12.5561V11.0981H24.57V12.5561H26.28C25.92 13.3121 25.596 13.7981 24.966 14.4821V12.9881C24.372 13.2041 23.778 13.3841 23.148 13.5641V9.8921H25.02V8.0381H23.148V5.3741C23.148 5.2481 23.292 5.1581 23.382 5.1041C23.49 5.0141 23.58 4.9421 23.58 4.8161C23.58 4.6901 23.454 4.6361 23.346 4.6181L21.258 4.4561V8.0381H19.512V9.8921H21.258V14.0861C20.628 14.2481 19.836 14.4461 19.26 14.5541L19.584 16.5701C19.602 16.6601 19.674 16.6961 19.71 16.6961C19.8 16.6961 19.854 16.6241 20.052 16.4081C20.16 16.2821 20.232 16.2641 20.898 16.1021C21.42 15.9761 23.4 15.3101 24.624 14.8421C23.922 15.4541 23.544 15.7241 23.04 16.0301L24.462 16.9841C25.236 16.4081 25.956 15.7781 26.874 14.6981H27.702C27.342 15.2561 25.794 17.2181 23.418 18.2981L24.822 19.2881C25.83 18.6401 26.784 17.9021 27.648 17.0561C28.62 16.1201 29.16 15.1481 29.412 14.6981H30.312C29.664 15.9221 28.17 17.8661 26.208 19.0181L27.558 19.9181C28.62 19.2161 29.25 18.5861 29.772 18.0281L30.492 19.7921C31.932 19.7741 32.814 19.5221 33.354 18.6761C33.984 17.6861 34.326 15.0401 34.344 13.2041H27.792C27.9 13.0241 28.026 12.7721 28.116 12.5561H34.56ZM32.436 14.6981C32.382 15.6521 32.292 16.6061 31.86 17.4521C31.662 17.8481 31.374 17.9561 30.906 17.9561C30.834 17.9561 30.456 17.9561 29.934 17.8481C31.266 16.3541 31.68 15.4541 32.004 14.6981H32.436Z" fill="#FF0000"/>
<path d="M52.65 10.3961L51.876 9.6221H46.8L47.214 9.1541C47.142 9.1181 46.836 8.9561 46.764 8.9201C48.852 7.5521 50.148 6.5801 51.228 5.7701L50.4 4.7621H38.808V6.6521H46.602C45.774 7.4801 45.342 7.7861 44.964 8.0381C43.308 7.2461 42.84 7.0301 42.354 6.7961L41.418 8.5061C42.624 8.9741 43.182 9.2621 43.83 9.6221H37.278V11.5841H43.902V17.1281C43.902 17.6321 43.758 18.0281 43.218 18.0281C42.696 18.0281 41.85 17.8481 41.544 17.7761L42.372 19.9181C45.252 19.9001 46.044 19.8281 46.044 17.5601V11.5841H49.464C48.474 12.9701 47.952 13.6361 47.178 14.5361L48.924 15.6521C49.788 14.5901 50.67 13.4741 52.65 10.3961Z" fill="#FF0000"/>
<path d="M70.596 10.3781V7.0121H65.664C65.88 6.5801 65.916 6.4541 66.132 5.8781C66.222 5.6441 66.24 5.6261 66.51 5.5001C66.582 5.4641 66.636 5.4101 66.636 5.3201C66.636 5.2301 66.546 5.1761 66.456 5.1401L64.548 4.5101C63.558 7.4801 62.694 8.7401 61.884 9.7841L63.288 10.9181C63.792 10.3601 64.116 9.8561 64.638 8.9561H68.724V10.1801C68.724 12.9341 68.4 15.3281 68.04 16.5161C67.698 17.6501 67.338 17.7941 66.762 17.7941C66.114 17.7941 65.538 17.7221 65.16 17.6861L66.15 19.7921H66.924C68.094 19.7921 69.066 19.5581 69.57 18.1181C70.236 16.2461 70.596 12.9341 70.596 10.3781ZM66.924 14.5541C66.438 12.8441 65.97 11.7821 65.52 10.9001L63.9 11.5481C64.296 12.3401 64.782 13.3661 65.304 15.0941L66.924 14.5541ZM62.694 12.9881C62.514 11.8901 62.244 10.8821 61.866 9.8201L60.246 10.1981C60.372 10.5401 60.462 10.9181 60.552 11.2421C59.778 11.3321 59.4 11.3681 58.824 11.4041C59.832 10.3241 60.804 9.1901 61.722 8.0201C61.974 7.6961 61.992 7.6601 62.28 7.6421C62.298 7.6421 62.478 7.6061 62.478 7.4441C62.478 7.4081 62.46 7.3001 62.352 7.2461L60.714 6.2561C60.282 6.9941 59.796 7.7861 58.752 9.2261C58.518 8.9201 58.32 8.7041 58.014 8.3981C58.806 7.3721 58.95 7.1561 59.868 5.7701C59.904 5.7161 59.958 5.6801 60.192 5.5721C60.264 5.5361 60.3 5.4821 60.3 5.4281C60.3 5.3921 60.264 5.3201 60.174 5.2661L58.572 4.4021C58.122 5.4641 57.708 6.3101 56.934 7.4261C56.772 7.2821 56.61 7.1561 56.322 6.9581L55.206 8.4701C56.034 9.0281 56.79 9.6041 57.708 10.6301C57.456 10.9721 57.186 11.2601 57.006 11.4761C56.25 11.5121 55.854 11.5121 55.08 11.5121L55.44 13.6001C55.458 13.6901 55.548 13.7621 55.602 13.7621C55.692 13.7621 55.746 13.7081 55.89 13.5641C56.034 13.4021 56.16 13.3841 56.286 13.3841C56.52 13.3481 57.24 13.2761 57.888 13.2041V19.8821H59.724V12.9521C60.03 12.8981 60.282 12.8801 60.912 12.7181C60.984 13.0601 61.02 13.2941 61.056 13.4561L62.694 12.9881ZM62.712 17.4161C62.496 16.7681 62.172 15.6341 61.956 14.0501L60.498 14.3561C60.642 15.5441 60.822 16.4621 61.2 17.8121L62.712 17.4161ZM57.618 14.7521C57.618 14.6441 57.402 14.5901 57.294 14.5721L55.818 14.3021C55.692 16.3361 55.404 17.4161 55.062 18.3701L56.61 18.7841C57.132 17.4881 57.24 16.5521 57.33 15.0581C57.528 14.9141 57.618 14.8421 57.618 14.7521Z" fill="#FF0000"/>
<path d="M88.56 16.3901C86.94 15.2921 86.166 14.9861 85.464 14.6981C85.266 12.6821 85.23 11.8181 85.212 9.8741C85.788 9.7661 86.724 9.6221 87.462 9.3701V7.4261C86.778 7.8401 85.734 8.0561 85.23 8.1641C85.32 7.1741 85.374 6.3821 85.482 5.9321C85.662 5.8241 85.824 5.7341 85.824 5.6441C85.824 5.5361 85.77 5.4461 85.392 5.3921L83.376 5.0681C83.34 6.8501 83.34 7.0481 83.304 8.3981C82.8 8.4521 82.314 8.5061 81.63 8.5061C80.784 8.5061 80.334 8.4521 80.01 8.3981L80.028 10.2521C81.144 10.3061 82.116 10.2341 83.286 10.1081C83.322 11.3321 83.376 12.0881 83.52 14.2301C83.16 14.1941 82.782 14.1581 82.422 14.1581C80.676 14.1581 79.254 14.8601 79.254 16.4801C79.254 19.0721 82.278 19.0721 82.8 19.0721C85.248 19.0721 85.608 18.1361 85.644 16.7501C86.4 17.2001 86.886 17.5601 87.534 18.1721L88.56 16.3901ZM78.282 14.8061L77.148 14.0321L76.41 15.1121C76.32 14.3741 76.32 13.4201 76.32 13.2221C76.32 11.8361 76.824 8.4521 76.986 7.6421C77.04 7.4261 77.256 6.5081 77.382 6.4181C77.436 6.4001 77.67 6.3101 77.724 6.2741C77.778 6.2381 77.796 6.1841 77.796 6.1481C77.796 5.9681 77.418 5.8061 77.364 5.7881L75.618 5.1041C74.916 7.8581 74.52 10.6841 74.52 13.5281C74.52 15.4181 74.664 17.3081 75.204 19.1081L76.86 18.8381C77.058 17.3981 77.886 15.6521 78.282 14.8061ZM83.628 15.9401C83.664 16.8761 83.7 17.2901 82.512 17.2901C81.45 17.2901 80.928 16.9121 80.928 16.4981C80.928 16.0841 81.504 15.7781 82.35 15.7781C82.89 15.7781 83.358 15.8861 83.628 15.9401Z" fill="#FF0000"/>
<path d="M103.824 7.4441L102.978 5.9321C101.664 6.1121 100.332 6.1481 99.018 6.1481C97.38 6.1481 95.76 6.0041 94.158 5.7341L94.644 7.8041C95.706 7.8941 96.93 7.9121 99.918 7.9121L98.082 9.4601L99.396 10.8821C100.386 10.0541 102.24 8.5241 103.824 7.4441ZM104.544 18.3341L104.436 16.1021C103.086 16.3721 101.916 16.5881 98.82 16.5881C98.028 16.5881 96.264 16.5881 95.76 16.1561C95.652 16.0661 95.508 15.9221 95.508 15.5801C95.508 14.9681 96.12 14.4101 96.57 14.0321L94.914 12.6821C94.068 13.5101 93.114 14.5181 93.114 16.1201C93.114 16.8761 93.42 17.2721 93.708 17.5241C94.752 18.5141 97.326 18.6581 98.928 18.6581C101.016 18.6581 102.96 18.4781 104.544 18.3341Z" fill="#FF0000"/>
<path d="M122.976 14.8961C122.976 12.7001 121.194 11.2601 118.98 11.2601C118.242 11.2601 116.982 11.4581 115.164 12.6461C115.524 11.4581 115.902 10.0361 116.046 9.4781C118.296 9.1541 119.466 8.8661 121.05 8.2721V6.3101C119.682 6.9761 118.62 7.3181 116.496 7.7141C116.586 7.3361 117.018 5.5721 117.108 5.2301C117.324 5.1041 117.558 5.1041 117.558 4.9061C117.558 4.7801 117.306 4.7081 117.18 4.6721L115.128 4.2041C115.002 5.6081 114.678 7.1021 114.48 7.9481C114.192 7.9661 113.886 7.9841 113.544 7.9841C113.436 7.9841 112.266 7.9841 111.024 7.6961L111.276 9.6041C111.996 9.6761 112.806 9.6761 112.968 9.6761C113.31 9.6761 113.706 9.6761 114.084 9.6401C113.796 10.8101 113.292 12.8081 112.68 14.3741L114.192 15.5621C115.56 14.2841 117.036 12.9521 118.692 12.9521C119.934 12.9521 121.032 13.7801 121.032 15.0041C121.032 16.4981 119.394 17.9561 115.83 17.9561C115.614 17.9561 114.588 17.9561 113.49 17.8121L114.084 19.8641C116.154 19.8281 118.872 19.7381 120.456 18.9281C122.04 18.1181 122.976 16.6241 122.976 14.8961Z" fill="#FF0000"/>
<path d="M137.268 6.4181C135.882 5.5901 134.172 4.9421 132.966 4.5641L132.192 6.3461C134.334 7.1021 135.198 7.5701 136.35 8.3081L137.268 6.4181ZM140.58 14.4461C140.58 11.8361 138.474 10.5041 136.584 10.5041C135.666 10.5041 133.776 10.8461 132.156 12.3221C132.39 10.9721 132.768 9.6401 133.236 8.3621L131.166 7.5521C130.77 8.9201 129.906 11.9801 129.762 14.4281L131.328 15.2561C133.182 13.0961 135 12.3761 136.242 12.3761C137.592 12.3761 138.51 13.1141 138.51 14.2661C138.51 15.9221 136.98 17.6681 133.632 17.6681C132.804 17.6681 131.958 17.5421 131.382 17.4701L132.336 19.6841C134.568 19.6301 140.58 19.5221 140.58 14.4461Z" fill="#FF0000"/>
<path d="M160.326 12.3401C160.326 11.6921 159.876 9.5681 157.518 7.0481L156.024 8.1281C157.014 9.2621 158.022 11.0621 158.022 11.6201C158.022 12.0521 157.608 12.0881 156.834 12.1601L158.058 14.0141C159.21 13.7981 160.326 13.3661 160.326 12.3401ZM156.06 11.5481C156.06 10.4501 155.862 8.4521 153.414 8.4521C152.928 8.4521 152.388 8.5241 151.992 8.5961C152.118 7.9121 152.244 7.2821 152.334 6.6341C152.352 6.4541 152.388 6.4361 152.712 6.2381C152.91 6.1121 152.946 6.0581 152.946 5.9861C152.946 5.8241 152.586 5.7161 152.442 5.6981L150.246 5.3921C150.228 6.8861 150.066 7.8401 149.85 8.9921C149.058 9.1181 147.402 9.4241 146.088 9.5321L146.808 11.7101C147.744 11.3681 148.482 11.1521 149.364 10.9361C148.302 14.3561 147.384 15.9581 145.8 17.9741L147.852 18.8921C149.688 15.9041 150.642 13.7981 151.578 10.5041C151.92 10.4501 152.28 10.4141 152.604 10.4141C153.9 10.4141 154.098 10.9901 154.098 11.9441C154.098 13.7621 153.342 15.9401 153 16.4261C152.748 16.7861 152.46 16.8761 151.92 16.8761C151.218 16.8761 150.696 16.7141 150.3 16.5881L150.552 18.7661C151.056 18.8381 151.614 18.8741 152.1 18.8741C152.874 18.8741 154.026 18.8021 154.8 17.4881C155.754 15.8321 156.06 13.0421 156.06 11.5481Z" fill="#FF0000"/>
<path d="M173.268 6.4181C171.882 5.5901 170.172 4.9421 168.966 4.5641L168.192 6.3461C170.334 7.1021 171.198 7.5701 172.35 8.3081L173.268 6.4181ZM176.58 14.4461C176.58 11.8361 174.474 10.5041 172.584 10.5041C171.666 10.5041 169.776 10.8461 168.156 12.3221C168.39 10.9721 168.768 9.6401 169.236 8.3621L167.166 7.5521C166.77 8.9201 165.906 11.9801 165.762 14.4281L167.328 15.2561C169.182 13.0961 171 12.3761 172.242 12.3761C173.592 12.3761 174.51 13.1141 174.51 14.2661C174.51 15.9221 172.98 17.6681 169.632 17.6681C168.804 17.6681 167.958 17.5421 167.382 17.4701L168.336 19.6841C170.568 19.6301 176.58 19.5221 176.58 14.4461Z" fill="#FF0000"/>
<path d="M180 13H0" stroke="#FF0000" stroke-width="2"/>
</svg>
