<svg width="140" height="25" viewBox="0 0 140 25" fill="none" xmlns="http://www.w3.org/2000/svg">
<path d="M16.6498 10.396L15.8758 9.62197H10.7998L11.2138 9.15397C11.1418 9.11797 10.8358 8.95597 10.7638 8.91997C12.8518 7.55197 14.1478 6.57997 15.2278 5.76997L14.3998 4.76197H2.80783V6.65197H10.6018C9.77383 7.47997 9.34183 7.78597 8.96383 8.03797C7.30783 7.24597 6.83983 7.02997 6.35383 6.79597L5.41783 8.50597C6.62383 8.97397 7.18183 9.26197 7.82983 9.62197H1.27783V11.584H7.90183V17.128C7.90183 17.632 7.75783 18.028 7.21783 18.028C6.69583 18.028 5.84983 17.848 5.54383 17.776L6.37183 19.918C9.25183 19.9 10.0438 19.828 10.0438 17.56V11.584H13.4638C12.4738 12.97 11.9518 13.636 11.1778 14.536L12.9238 15.652C13.7878 14.59 14.6698 13.474 16.6498 10.396Z" fill="#FF0000"/>
<path d="M34.5958 10.378V7.01197H29.6638C29.8798 6.57997 29.9158 6.45397 30.1318 5.87797C30.2218 5.64397 30.2398 5.62597 30.5098 5.49997C30.5818 5.46397 30.6358 5.40997 30.6358 5.31997C30.6358 5.22997 30.5458 5.17597 30.4558 5.13997L28.5478 4.50997C27.5578 7.47997 26.6938 8.73997 25.8838 9.78397L27.2878 10.918C27.7918 10.36 28.1158 9.85597 28.6378 8.95597H32.7238V10.18C32.7238 12.934 32.3998 15.328 32.0398 16.516C31.6978 17.65 31.3378 17.794 30.7618 17.794C30.1138 17.794 29.5378 17.722 29.1598 17.686L30.1498 19.792H30.9238C32.0938 19.792 33.0658 19.558 33.5698 18.118C34.2358 16.246 34.5958 12.934 34.5958 10.378ZM30.9238 14.554C30.4378 12.844 29.9698 11.782 29.5198 10.9L27.8998 11.548C28.2958 12.34 28.7818 13.366 29.3038 15.094L30.9238 14.554ZM26.6938 12.988C26.5138 11.89 26.2438 10.882 25.8658 9.81997L24.2458 10.198C24.3718 10.54 24.4618 10.918 24.5518 11.242C23.7778 11.332 23.3998 11.368 22.8238 11.404C23.8318 10.324 24.8038 9.18997 25.7218 8.01997C25.9738 7.69597 25.9918 7.65997 26.2798 7.64197C26.2978 7.64197 26.4778 7.60597 26.4778 7.44397C26.4778 7.40797 26.4598 7.29997 26.3518 7.24597L24.7138 6.25597C24.2818 6.99397 23.7958 7.78597 22.7518 9.22597C22.5178 8.91997 22.3198 8.70397 22.0138 8.39797C22.8058 7.37197 22.9498 7.15597 23.8678 5.76997C23.9038 5.71597 23.9578 5.67997 24.1918 5.57197C24.2638 5.53597 24.2998 5.48197 24.2998 5.42797C24.2998 5.39197 24.2638 5.31997 24.1738 5.26597L22.5718 4.40197C22.1218 5.46397 21.7078 6.30997 20.9338 7.42597C20.7718 7.28197 20.6098 7.15597 20.3218 6.95797L19.2058 8.46997C20.0338 9.02797 20.7898 9.60397 21.7078 10.63C21.4558 10.972 21.1858 11.26 21.0058 11.476C20.2498 11.512 19.8538 11.512 19.0798 11.512L19.4398 13.6C19.4578 13.69 19.5478 13.762 19.6018 13.762C19.6918 13.762 19.7458 13.708 19.8898 13.564C20.0338 13.402 20.1598 13.384 20.2858 13.384C20.5198 13.348 21.2398 13.276 21.8878 13.204V19.882H23.7238V12.952C24.0298 12.898 24.2818 12.88 24.9118 12.718C24.9838 13.06 25.0198 13.294 25.0558 13.456L26.6938 12.988ZM26.7118 17.416C26.4958 16.768 26.1718 15.634 25.9558 14.05L24.4978 14.356C24.6418 15.544 24.8218 16.462 25.1998 17.812L26.7118 17.416ZM21.6178 14.752C21.6178 14.644 21.4018 14.59 21.2938 14.572L19.8178 14.302C19.6918 16.336 19.4038 17.416 19.0618 18.37L20.6098 18.784C21.1318 17.488 21.2398 16.552 21.3298 15.058C21.5278 14.914 21.6178 14.842 21.6178 14.752Z" fill="#FF0000"/>
<path d="M52.4518 17.812V4.88797H45.5038V10.414H50.5618V17.326C50.5618 17.776 50.3278 17.956 49.8778 17.956H48.6898L49.5538 19.846H50.6518C52.0558 19.846 52.4518 18.964 52.4518 17.812ZM49.6438 15.724V14.122H47.4118V12.808H49.1758V11.26H40.7158V12.808H42.5338C42.5338 13.366 42.5338 13.582 42.4978 14.122H40.1938V15.724H42.3178C41.9938 16.93 41.6158 17.578 39.9958 18.586L41.5618 19.792C43.0198 18.568 43.7218 17.686 44.0998 15.724H45.5578V19.468H47.4118V15.724H49.6438ZM50.5618 7.01197H47.4658V6.29197H50.5618V7.01197ZM50.5618 9.00997H47.4658V8.23597H50.5618V9.00997ZM45.5578 14.122H44.2618C44.2798 13.78 44.2798 13.564 44.2978 12.808H45.5578V14.122ZM44.4238 10.414V4.88797H37.4758V19.756H39.4738V10.414H44.4238ZM42.6058 7.01197H39.4738V6.29197H42.6058V7.01197ZM42.6058 9.00997H39.4738V8.23597H42.6058V9.00997Z" fill="#FF0000"/>
<path d="M70.0198 19.972V12.898H62.5858V19.972H64.6558V19.36H67.9498V19.972H70.0198ZM67.9498 17.416H64.6558V14.788H67.9498V17.416ZM62.0638 17.002C61.8658 16.66 61.5058 15.976 60.3898 14.644C61.4878 11.71 61.5238 9.13597 61.4878 7.20997H58.8598C58.9138 6.88597 59.0578 6.14797 59.1838 5.31997C59.2018 5.22997 59.2198 5.17597 59.3818 5.06797C59.4898 4.99597 59.5438 4.95997 59.5438 4.86997C59.5438 4.70797 59.3278 4.65397 59.1838 4.63597L57.2398 4.36597C57.1858 5.31997 57.0778 6.00397 56.8618 7.20997H55.2778V9.26197H56.4478C55.9618 11.386 55.6918 12.52 55.0978 14.194L56.9698 14.644C57.0778 14.41 57.1318 14.212 57.2038 14.014C57.7078 14.464 57.7798 14.536 58.2118 15.022C57.3838 16.822 56.3038 17.956 55.1158 18.91L57.0418 19.936C58.0498 18.964 58.7158 18.1 59.4718 16.714C60.0118 17.524 60.1918 17.902 60.3898 18.334L62.0638 17.002ZM59.4898 9.26197C59.3638 11.26 59.1478 12.196 58.9138 13.042C58.4098 12.574 58.1938 12.394 57.7618 12.07C58.0138 11.134 58.2478 10.198 58.4278 9.26197H59.4898ZM71.1898 11.764C70.5598 9.63997 69.5158 7.92997 68.6158 6.70597L66.8878 7.55197C67.5358 8.57797 67.7518 8.97397 68.0578 9.60397C66.5278 9.69397 66.3838 9.69397 65.2678 9.72997C65.9518 7.82197 66.2218 7.06597 66.7438 5.51797C66.7978 5.42797 66.8158 5.39197 67.0138 5.31997C67.1398 5.28397 67.2838 5.21197 67.2838 5.06797C67.2838 4.88797 67.0318 4.81597 66.8338 4.77997L64.7278 4.36597C64.2778 6.74197 63.8278 8.36197 63.3958 9.80197C62.0998 9.83797 61.9558 9.83797 61.7038 9.83797L62.0278 11.782C62.0818 12.088 62.1358 12.196 62.2438 12.196C62.3338 12.196 62.6218 11.908 62.6938 11.89C62.7658 11.872 63.5938 11.818 63.7198 11.818C65.6638 11.692 67.6798 11.494 68.8318 11.368C69.0838 12.034 69.1738 12.376 69.2458 12.61L71.1898 11.764Z" fill="#FF0000"/>
<path d="M88.5598 16.39C86.9398 15.292 86.1658 14.986 85.4638 14.698C85.2658 12.682 85.2298 11.818 85.2118 9.87397C85.7878 9.76597 86.7238 9.62197 87.4618 9.36997V7.42597C86.7778 7.83997 85.7338 8.05597 85.2298 8.16397C85.3198 7.17397 85.3738 6.38197 85.4818 5.93197C85.6618 5.82397 85.8238 5.73397 85.8238 5.64397C85.8238 5.53597 85.7698 5.44597 85.3918 5.39197L83.3758 5.06797C83.3398 6.84997 83.3398 7.04797 83.3038 8.39797C82.7998 8.45197 82.3138 8.50597 81.6298 8.50597C80.7838 8.50597 80.3338 8.45197 80.0098 8.39797L80.0278 10.252C81.1438 10.306 82.1158 10.234 83.2858 10.108C83.3218 11.332 83.3758 12.088 83.5198 14.23C83.1598 14.194 82.7818 14.158 82.4218 14.158C80.6758 14.158 79.2538 14.86 79.2538 16.48C79.2538 19.072 82.2778 19.072 82.7998 19.072C85.2478 19.072 85.6078 18.136 85.6438 16.75C86.3998 17.2 86.8858 17.56 87.5338 18.172L88.5598 16.39ZM78.2818 14.806L77.1478 14.032L76.4098 15.112C76.3198 14.374 76.3198 13.42 76.3198 13.222C76.3198 11.836 76.8238 8.45197 76.9858 7.64197C77.0398 7.42597 77.2558 6.50797 77.3818 6.41797C77.4358 6.39997 77.6698 6.30997 77.7238 6.27397C77.7778 6.23797 77.7958 6.18397 77.7958 6.14797C77.7958 5.96797 77.4178 5.80597 77.3638 5.78797L75.6178 5.10397C74.9158 7.85797 74.5198 10.684 74.5198 13.528C74.5198 15.418 74.6638 17.308 75.2038 19.108L76.8598 18.838C77.0578 17.398 77.8858 15.652 78.2818 14.806ZM83.6278 15.94C83.6638 16.876 83.6998 17.29 82.5118 17.29C81.4498 17.29 80.9278 16.912 80.9278 16.498C80.9278 16.084 81.5038 15.778 82.3498 15.778C82.8898 15.778 83.3578 15.886 83.6278 15.94Z" fill="#FF0000"/>
<path d="M96.5158 19V5.85997H94.5718C94.1758 7.56997 92.6638 8.14597 91.7098 8.14597H90.6658V9.85597H94.2298V19H96.5158Z" fill="#FF0000"/>
<path d="M109.596 19V17.11H103.512C104.07 16.012 104.52 15.508 106.284 14.284C107.994 13.096 109.488 11.908 109.488 9.80197C109.488 7.49797 107.742 5.62597 105.042 5.62597C100.974 5.62597 100.83 9.31597 100.794 10.486H103.08C103.098 9.51397 103.152 7.62397 104.97 7.62397C106.158 7.62397 107.022 8.55997 107.022 9.80197C107.022 10.954 106.446 11.674 104.52 13.078C101.55 15.256 100.74 16.66 100.416 19H109.596Z" fill="#FF0000"/>
<path d="M118.77 5.85997H117.006L110.238 19H112.002L118.77 5.85997Z" fill="#FF0000"/>
<path d="M128.598 19V17.11H122.514C123.072 16.012 123.522 15.508 125.286 14.284C126.996 13.096 128.49 11.908 128.49 9.80197C128.49 7.49797 126.744 5.62597 124.044 5.62597C119.976 5.62597 119.832 9.31597 119.796 10.486H122.082C122.1 9.51397 122.154 7.62397 123.972 7.62397C125.16 7.62397 126.024 8.55997 126.024 9.80197C126.024 10.954 125.448 11.674 123.522 13.078C120.552 15.256 119.742 16.66 119.418 19H128.598Z" fill="#FF0000"/>
<path d="M135.522 19V5.85997H133.578C133.182 7.56997 131.67 8.14597 130.716 8.14597H129.672V9.85597H133.236V19H135.522Z" fill="#FF0000"/>
</svg>
