<svg width="135" height="16" viewBox="0 0 135 16" fill="none" xmlns="http://www.w3.org/2000/svg">
<path d="M15.6498 6.39597L14.8758 5.62197H9.79983L10.2138 5.15397C10.1418 5.11797 9.83583 4.95597 9.76383 4.91997C11.8518 3.55197 13.1478 2.57997 14.2278 1.76997L13.3998 0.761967H1.80783V2.65197H9.60183C8.77383 3.47997 8.34183 3.78597 7.96383 4.03797C6.30783 3.24597 5.83983 3.02997 5.35383 2.79597L4.41783 4.50597C5.62383 4.97397 6.18183 5.26197 6.82983 5.62197H0.277832V7.58397H6.90183V13.128C6.90183 13.632 6.75783 14.028 6.21783 14.028C5.69583 14.028 4.84983 13.848 4.54383 13.776L5.37183 15.918C8.25183 15.9 9.04383 15.828 9.04383 13.56V7.58397H12.4638C11.4738 8.96997 10.9518 9.63597 10.1778 10.536L11.9238 11.652C12.7878 10.59 13.6698 9.47397 15.6498 6.39597Z" fill="#00FFFF" style="mix-blend-mode:difference"/>
<path d="M33.5958 6.37797V3.01197H28.6638C28.8798 2.57997 28.9158 2.45397 29.1318 1.87797C29.2218 1.64397 29.2398 1.62597 29.5098 1.49997C29.5818 1.46397 29.6358 1.40997 29.6358 1.31997C29.6358 1.22997 29.5458 1.17597 29.4558 1.13997L27.5478 0.509966C26.5578 3.47997 25.6938 4.73997 24.8838 5.78397L26.2878 6.91797C26.7918 6.35997 27.1158 5.85597 27.6378 4.95597H31.7238V6.17997C31.7238 8.93397 31.3998 11.328 31.0398 12.516C30.6978 13.65 30.3378 13.794 29.7618 13.794C29.1138 13.794 28.5378 13.722 28.1598 13.686L29.1498 15.792H29.9238C31.0938 15.792 32.0658 15.558 32.5698 14.118C33.2358 12.246 33.5958 8.93397 33.5958 6.37797ZM29.9238 10.554C29.4378 8.84397 28.9698 7.78197 28.5198 6.89997L26.8998 7.54797C27.2958 8.33997 27.7818 9.36597 28.3038 11.094L29.9238 10.554ZM25.6938 8.98797C25.5138 7.88997 25.2438 6.88197 24.8658 5.81997L23.2458 6.19797C23.3718 6.53997 23.4618 6.91797 23.5518 7.24197C22.7778 7.33197 22.3998 7.36797 21.8238 7.40397C22.8318 6.32397 23.8038 5.18997 24.7218 4.01997C24.9738 3.69597 24.9918 3.65997 25.2798 3.64197C25.2978 3.64197 25.4778 3.60597 25.4778 3.44397C25.4778 3.40797 25.4598 3.29997 25.3518 3.24597L23.7138 2.25597C23.2818 2.99397 22.7958 3.78597 21.7518 5.22597C21.5178 4.91997 21.3198 4.70397 21.0138 4.39797C21.8058 3.37197 21.9498 3.15597 22.8678 1.76997C22.9038 1.71597 22.9578 1.67997 23.1918 1.57197C23.2638 1.53597 23.2998 1.48197 23.2998 1.42797C23.2998 1.39197 23.2638 1.31997 23.1738 1.26597L21.5718 0.401966C21.1218 1.46397 20.7078 2.30997 19.9338 3.42597C19.7718 3.28197 19.6098 3.15597 19.3218 2.95797L18.2058 4.46997C19.0338 5.02797 19.7898 5.60397 20.7078 6.62997C20.4558 6.97197 20.1858 7.25997 20.0058 7.47597C19.2498 7.51197 18.8538 7.51197 18.0798 7.51197L18.4398 9.59997C18.4578 9.68997 18.5478 9.76197 18.6018 9.76197C18.6918 9.76197 18.7458 9.70797 18.8898 9.56397C19.0338 9.40197 19.1598 9.38397 19.2858 9.38397C19.5198 9.34797 20.2398 9.27597 20.8878 9.20397V15.882H22.7238V8.95197C23.0298 8.89797 23.2818 8.87997 23.9118 8.71797C23.9838 9.05997 24.0198 9.29397 24.0558 9.45597L25.6938 8.98797ZM25.7118 13.416C25.4958 12.768 25.1718 11.634 24.9558 10.05L23.4978 10.356C23.6418 11.544 23.8218 12.462 24.1998 13.812L25.7118 13.416ZM20.6178 10.752C20.6178 10.644 20.4018 10.59 20.2938 10.572L18.8178 10.302C18.6918 12.336 18.4038 13.416 18.0618 14.37L19.6098 14.784C20.1318 13.488 20.2398 12.552 20.3298 11.058C20.5278 10.914 20.6178 10.842 20.6178 10.752Z" fill="#00FFFF" style="mix-blend-mode:difference"/>
<path d="M51.4518 13.812V0.887967H44.5038V6.41397H49.5618V13.326C49.5618 13.776 49.3278 13.956 48.8778 13.956H47.6898L48.5538 15.846H49.6518C51.0558 15.846 51.4518 14.964 51.4518 13.812ZM48.6438 11.724V10.122H46.4118V8.80797H48.1758V7.25997H39.7158V8.80797H41.5338C41.5338 9.36597 41.5338 9.58197 41.4978 10.122H39.1938V11.724H41.3178C40.9938 12.93 40.6158 13.578 38.9958 14.586L40.5618 15.792C42.0198 14.568 42.7218 13.686 43.0998 11.724H44.5578V15.468H46.4118V11.724H48.6438ZM49.5618 3.01197H46.4658V2.29197H49.5618V3.01197ZM49.5618 5.00997H46.4658V4.23597H49.5618V5.00997ZM44.5578 10.122H43.2618C43.2798 9.77997 43.2798 9.56397 43.2978 8.80797H44.5578V10.122ZM43.4238 6.41397V0.887967H36.4758V15.756H38.4738V6.41397H43.4238ZM41.6058 3.01197H38.4738V2.29197H41.6058V3.01197ZM41.6058 5.00997H38.4738V4.23597H41.6058V5.00997Z" fill="#00FFFF" style="mix-blend-mode:difference"/>
<path d="M69.0198 15.972V8.89797H61.5858V15.972H63.6558V15.36H66.9498V15.972H69.0198ZM66.9498 13.416H63.6558V10.788H66.9498V13.416ZM61.0638 13.002C60.8658 12.66 60.5058 11.976 59.3898 10.644C60.4878 7.70997 60.5238 5.13597 60.4878 3.20997H57.8598C57.9138 2.88597 58.0578 2.14797 58.1838 1.31997C58.2018 1.22997 58.2198 1.17597 58.3818 1.06797C58.4898 0.995966 58.5438 0.959966 58.5438 0.869967C58.5438 0.707966 58.3278 0.653966 58.1838 0.635966L56.2398 0.365967C56.1858 1.31997 56.0778 2.00397 55.8618 3.20997H54.2778V5.26197H55.4478C54.9618 7.38597 54.6918 8.51997 54.0978 10.194L55.9698 10.644C56.0778 10.41 56.1318 10.212 56.2038 10.014C56.7078 10.464 56.7798 10.536 57.2118 11.022C56.3838 12.822 55.3038 13.956 54.1158 14.91L56.0418 15.936C57.0498 14.964 57.7158 14.1 58.4718 12.714C59.0118 13.524 59.1918 13.902 59.3898 14.334L61.0638 13.002ZM58.4898 5.26197C58.3638 7.25997 58.1478 8.19597 57.9138 9.04197C57.4098 8.57397 57.1938 8.39397 56.7618 8.06997C57.0138 7.13397 57.2478 6.19797 57.4278 5.26197H58.4898ZM70.1898 7.76397C69.5598 5.63997 68.5158 3.92997 67.6158 2.70597L65.8878 3.55197C66.5358 4.57797 66.7518 4.97397 67.0578 5.60397C65.5278 5.69397 65.3838 5.69397 64.2678 5.72997C64.9518 3.82197 65.2218 3.06597 65.7438 1.51797C65.7978 1.42797 65.8158 1.39197 66.0138 1.31997C66.1398 1.28397 66.2838 1.21197 66.2838 1.06797C66.2838 0.887966 66.0318 0.815966 65.8338 0.779967L63.7278 0.365967C63.2778 2.74197 62.8278 4.36197 62.3958 5.80197C61.0998 5.83797 60.9558 5.83797 60.7038 5.83797L61.0278 7.78197C61.0818 8.08797 61.1358 8.19597 61.2438 8.19597C61.3338 8.19597 61.6218 7.90797 61.6938 7.88997C61.7658 7.87197 62.5938 7.81797 62.7198 7.81797C64.6638 7.69197 66.6798 7.49397 67.8318 7.36797C68.0838 8.03397 68.1738 8.37597 68.2458 8.60997L70.1898 7.76397Z" fill="#00FFFF" style="mix-blend-mode:difference"/>
<path d="M87.5598 12.39C85.9398 11.292 85.1658 10.986 84.4638 10.698C84.2658 8.68197 84.2298 7.81797 84.2118 5.87397C84.7878 5.76597 85.7238 5.62197 86.4618 5.36997V3.42597C85.7778 3.83997 84.7338 4.05597 84.2298 4.16397C84.3198 3.17397 84.3738 2.38197 84.4818 1.93197C84.6618 1.82397 84.8238 1.73397 84.8238 1.64397C84.8238 1.53597 84.7698 1.44597 84.3918 1.39197L82.3758 1.06797C82.3398 2.84997 82.3398 3.04797 82.3038 4.39797C81.7998 4.45197 81.3138 4.50597 80.6298 4.50597C79.7838 4.50597 79.3338 4.45197 79.0098 4.39797L79.0278 6.25197C80.1438 6.30597 81.1158 6.23397 82.2858 6.10797C82.3218 7.33197 82.3758 8.08797 82.5198 10.23C82.1598 10.194 81.7818 10.158 81.4218 10.158C79.6758 10.158 78.2538 10.86 78.2538 12.48C78.2538 15.072 81.2778 15.072 81.7998 15.072C84.2478 15.072 84.6078 14.136 84.6438 12.75C85.3998 13.2 85.8858 13.56 86.5338 14.172L87.5598 12.39ZM77.2818 10.806L76.1478 10.032L75.4098 11.112C75.3198 10.374 75.3198 9.41997 75.3198 9.22197C75.3198 7.83597 75.8238 4.45197 75.9858 3.64197C76.0398 3.42597 76.2558 2.50797 76.3818 2.41797C76.4358 2.39997 76.6698 2.30997 76.7238 2.27397C76.7778 2.23797 76.7958 2.18397 76.7958 2.14797C76.7958 1.96797 76.4178 1.80597 76.3638 1.78797L74.6178 1.10397C73.9158 3.85797 73.5198 6.68397 73.5198 9.52797C73.5198 11.418 73.6638 13.308 74.2038 15.108L75.8598 14.838C76.0578 13.398 76.8858 11.652 77.2818 10.806ZM82.6278 11.94C82.6638 12.876 82.6998 13.29 81.5118 13.29C80.4498 13.29 79.9278 12.912 79.9278 12.498C79.9278 12.084 80.5038 11.778 81.3498 11.778C81.8898 11.778 82.3578 11.886 82.6278 11.94Z" fill="#00FFFF" style="mix-blend-mode:difference"/>
<path d="M95.5158 15V1.85997H93.5718C93.1758 3.56997 91.6638 4.14597 90.7098 4.14597H89.6658V5.85597H93.2298V15H95.5158Z" fill="#00FFFF" style="mix-blend-mode:difference"/>
<path d="M108.596 15V13.11H102.512C103.07 12.012 103.52 11.508 105.284 10.284C106.994 9.09597 108.488 7.90797 108.488 5.80197C108.488 3.49797 106.742 1.62597 104.042 1.62597C99.9738 1.62597 99.8298 5.31597 99.7938 6.48597H102.08C102.098 5.51397 102.152 3.62397 103.97 3.62397C105.158 3.62397 106.022 4.55997 106.022 5.80197C106.022 6.95397 105.446 7.67397 103.52 9.07797C100.55 11.256 99.7398 12.66 99.4158 15H108.596Z" fill="#00FFFF" style="mix-blend-mode:difference"/>
<path d="M117.77 1.85997H116.006L109.238 15H111.002L117.77 1.85997Z" fill="#00FFFF" style="mix-blend-mode:difference"/>
<path d="M127.598 15V13.11H121.514C122.072 12.012 122.522 11.508 124.286 10.284C125.996 9.09597 127.49 7.90797 127.49 5.80197C127.49 3.49797 125.744 1.62597 123.044 1.62597C118.976 1.62597 118.832 5.31597 118.796 6.48597H121.082C121.1 5.51397 121.154 3.62397 122.972 3.62397C124.16 3.62397 125.024 4.55997 125.024 5.80197C125.024 6.95397 124.448 7.67397 122.522 9.07797C119.552 11.256 118.742 12.66 118.418 15H127.598Z" fill="#00FFFF" style="mix-blend-mode:difference"/>
<path d="M134.522 15V1.85997H132.578C132.182 3.56997 130.67 4.14597 129.716 4.14597H128.672V5.85597H132.236V15H134.522Z" fill="#00FFFF" style="mix-blend-mode:difference"/>
</svg>
