<svg width="64" height="126" viewBox="0 0 64 126" fill="none" xmlns="http://www.w3.org/2000/svg">
<path d="M29.1841 34.344V7.65596L2.78406 7.65596L2.78406 34.472H6.36806V33.224H25.5681V34.344H29.1841ZM25.5681 30.056H10.0801C12.2561 28.936 14.2721 27.656 16.8001 25.288C19.4241 27.112 20.4801 28.232 21.3441 29.192L24.0001 26.472C23.2001 25.64 21.8561 24.328 19.3601 22.536C21.3761 20.04 22.5281 17.96 23.7441 15.4C23.9361 15.112 24.0001 15.08 24.7041 14.76C24.8961 14.696 25.0241 14.6 25.0241 14.376C25.0241 14.056 24.7041 13.8 24.1601 13.608L20.9281 12.456C19.6481 15.848 18.1441 18.312 16.3521 20.584C14.0161 19.272 12.6721 18.696 10.9441 18.152L8.99206 20.968C10.4001 21.384 10.5601 21.48 13.5041 23.144C13.6001 23.176 13.6961 23.24 13.8241 23.304C11.0721 25.768 8.73606 26.632 6.88006 27.176L9.56806 30.056H6.36806L6.36806 10.92H25.5681V30.056ZM18.2721 16.36C17.9521 15.08 17.4721 13.576 16.0961 11.432L13.0881 12.904C14.1761 14.504 14.7841 15.816 15.2641 17.48L18.2721 16.36ZM13.0881 15.688C11.8081 13.672 10.4961 12.488 9.76006 11.88L7.16806 14.024C8.73606 15.4 9.63206 16.424 10.5921 17.736L13.0881 15.688Z" fill="white"/>
<path d="M45.8881 12.104C43.6161 10.728 42.5601 9.63996 41.6641 8.51996C41.7601 8.42396 41.7921 8.35996 41.7921 8.26396C41.7921 7.94396 41.3761 7.71996 41.2161 7.68796L38.4961 7.07996C37.3761 9.86396 35.1041 12.232 32.6081 13.8L35.0081 16.168C35.2641 15.944 35.3281 15.848 35.5521 15.592V17.672H38.1761V19.56H34.2401V22.856H38.1761V29.928C36.6401 30.056 35.0081 30.216 33.4401 30.28L33.6961 33.608C33.7281 33.896 33.7601 34.472 34.1121 34.472C34.3361 34.472 34.9441 33.672 35.1361 33.608C35.2641 33.544 37.2161 33.224 37.5361 33.16C41.9841 32.392 43.6161 32.04 44.6721 31.784L44.9281 28.808C44.3521 28.968 43.6801 29.16 41.4721 29.512V22.856H44.5761V19.56H41.4721V17.672H43.9681V14.376L45.8881 12.104ZM62.1761 30.184C58.4321 28.104 55.6161 25.256 54.8161 23.624V20.616H61.0561V17.512H59.2961V7.94396L46.2401 7.94396V11.016H55.8081V12.744L47.6801 12.744V15.688H55.8081V17.512H45.6321V20.616H51.3921V25.704C49.7281 26.984 47.6481 27.848 45.4401 28.52L45.9841 31.272C46.0161 31.432 46.1441 32.072 46.4961 32.072C46.6561 32.072 46.7521 31.848 46.8801 31.592C47.0401 31.304 47.0721 31.24 48.0001 30.824C49.1521 30.344 50.4001 29.608 51.3921 29.032V29.992C51.3921 30.76 50.9761 30.888 50.3681 30.888C49.4401 30.888 48.7041 30.792 48.2881 30.76L49.6641 34.376C53.6961 34.312 54.8161 34.056 54.8161 31.656V28.296C56.4161 30.568 58.2081 31.88 59.8401 32.904L62.1761 30.184ZM46.0801 24.84C46.0801 24.808 46.0801 24.488 45.3761 24.328L42.8481 23.72C42.5601 25.992 42.1121 27.144 41.6001 28.264L44.3841 28.904C44.6081 28.328 44.9921 27.368 45.3441 25.224C45.6321 25.16 46.0801 25.064 46.0801 24.84ZM43.3921 14.376H37.1201C37.7601 13.736 38.6881 12.84 39.9361 11.112C40.8001 12.168 41.6961 13.032 43.3921 14.376ZM61.1841 23.112C61.1841 23.016 61.1841 22.824 60.7361 22.6L58.0801 21.192C57.1841 22.92 56.6401 23.624 55.8401 24.488L58.4961 26.216C59.4241 25.16 60.2241 23.848 60.4481 23.4C60.8001 23.368 61.1841 23.336 61.1841 23.112ZM51.0721 25.192C50.5601 24.2 49.9521 23.144 48.4481 21.416L45.8241 22.984C46.6561 23.976 47.3601 24.904 48.2241 26.664L51.0721 25.192ZM37.9201 28.648C37.6961 26.984 37.3761 25.48 36.6081 23.624L33.8561 24.616C34.4001 26.056 34.7841 27.4 35.2321 29.416L37.9201 28.648Z" fill="white"/>
<path d="M29.0241 62.776C29.0241 55.64 23.7761 51.128 17.1201 51.128C8.86406 51.128 3.00806 57.592 3.00806 64.696C3.00806 70.424 8.25606 73.304 9.40806 73.304C11.0721 73.304 12.5441 70.616 13.5041 68.632C14.5601 66.488 16.4481 62.008 17.4721 54.392C18.6561 54.488 20.8961 54.616 22.9121 56.536C24.7041 58.232 25.2161 60.376 25.2161 62.136C25.2161 63.544 24.8641 66.2 22.9121 68.504C20.9601 70.84 18.5921 71.512 17.1521 71.928L19.5201 75.224C21.2481 74.52 24.5761 73.144 26.9761 69.592C28.1601 67.832 29.0241 65.592 29.0241 62.776ZM13.6641 54.968C13.0241 59.96 10.2721 68.312 8.60806 68.312C8.03206 68.312 6.56006 66.968 6.56006 64.376C6.56006 62.424 7.48806 59.448 9.76006 57.272C11.2961 55.768 12.7361 55.288 13.6641 54.968Z" fill="white"/>
<path d="M30.4001 115.816C27.8401 114.376 26.5601 113.352 25.1521 111.752C25.8881 110.472 26.4641 109.448 27.2961 106.824C28.2241 103.88 28.5121 101.896 28.7361 100.296L27.4561 99.272H17.8241C17.7601 96.68 17.7281 96.008 17.6641 94.696H29.6001V91.464H13.9521C14.1121 93.608 14.4001 97.8 14.4001 101C14.4001 102.92 14.3361 106.152 13.7601 109.128C13.4401 110.76 13.1201 111.656 12.6081 113.032C12.2241 112.52 11.5841 111.56 11.1361 110.6H12.3841L12.3841 91.528H3.07206V110.6H4.60806C4.00006 113 3.32806 114.632 1.66406 117.032L4.92806 118.568C6.14406 116.488 7.07206 114.312 7.58406 112.904C7.61606 112.808 7.64806 112.808 7.77606 112.744C7.84006 112.712 8.12806 112.584 8.19206 112.552C8.64006 113.384 9.53606 114.696 10.1441 115.496L12.0641 114.248C11.5201 115.24 10.9761 116.072 9.92006 117.096L13.3761 118.568C14.0161 117.8 14.3681 117.288 14.8161 116.488L17.7601 118.92C20.0001 117.608 21.3441 116.552 23.0721 114.632C24.5761 116.392 25.6641 117.32 27.4241 118.408L30.4001 115.816ZM9.44006 102.184H6.01606V99.784H9.44006V102.184ZM9.44006 107.432H6.01606V104.84H9.44006V107.432ZM9.44006 97.128H6.01606V94.728H9.44006V97.128ZM24.7681 102.568C24.3201 105.768 23.5521 107.432 23.1041 108.488C22.4641 107.048 21.7601 104.488 21.4401 102.568H24.7681ZM21.0241 111.752C19.5841 113.448 17.9841 115.048 14.9441 116.264C16.9601 112.104 17.5681 108.68 17.8241 102.728C18.6241 107.208 20.2561 110.28 21.0241 111.752ZM10.4321 110.6L8.22406 112.072C8.16006 112.008 8.03206 111.944 7.96806 111.912L4.89606 110.6H10.4321Z" fill="white"/>
<path d="M60.8961 112.712L57.4081 111.528C57.1521 114.44 56.6401 114.824 55.6161 114.824H53.1841C52.1601 114.824 51.9041 114.536 51.9041 113.544V107.784C51.9041 107.688 52.0321 107.56 52.0961 107.496C52.3521 107.336 52.4481 107.24 52.4481 107.048C52.4481 106.856 52.2881 106.728 52.0641 106.696L48.4161 106.312V115.752C48.4161 117.48 49.7281 118.248 51.3281 118.248H56.8001C58.6561 118.248 59.9361 117.768 60.8961 112.712ZM60.2241 108.744V102.44H34.5601V108.744H38.1121V105.384H56.6721V108.744H60.2241ZM60.6081 96.84V93.832H49.3121V92.904C49.3121 92.744 49.4401 92.648 49.7281 92.328C49.7921 92.264 49.9201 92.136 49.9201 92.04C49.9201 91.848 49.7281 91.72 49.5041 91.688L45.4721 91.304V93.832H34.3361V96.84H45.4721V98.376H37.1201V101.16H57.6001V98.376H49.3121V96.84H60.6081ZM46.4961 107.272C46.4961 107.08 46.3041 106.952 46.0481 106.92L42.1121 106.344C42.0161 111.752 39.9681 113.96 33.9841 115.816L36.6401 118.76C42.9121 116.424 44.7361 113.832 45.6641 108.168C45.6961 107.944 45.7281 107.816 46.1441 107.624C46.2721 107.56 46.4961 107.464 46.4961 107.272Z" fill="white"/>
</svg>
