<svg width="126" height="45" viewBox="0 0 126 45" fill="none" xmlns="http://www.w3.org/2000/svg">
<path d="M16.4159 25.756L16.4159 10.744L1.56592 10.744L1.56592 25.828L3.58192 25.828L3.58192 25.126L14.3819 25.126L14.3819 25.756L16.4159 25.756ZM14.3819 23.344L5.66992 23.344C6.89392 22.714 8.02792 21.994 9.44992 20.662C10.9259 21.688 11.5199 22.318 12.0059 22.858L13.4999 21.328C13.0499 20.86 12.2939 20.122 10.8899 19.114C12.0239 17.71 12.6719 16.54 13.3559 15.1C13.4639 14.938 13.4999 14.92 13.8959 14.74C14.0039 14.704 14.0759 14.65 14.0759 14.524C14.0759 14.344 13.8959 14.2 13.5899 14.092L11.7719 13.444C11.0519 15.352 10.2059 16.738 9.19792 18.016C7.88392 17.278 7.12792 16.954 6.15592 16.648L5.05792 18.232C5.84992 18.466 5.93992 18.52 7.59592 19.456C7.64992 19.474 7.70392 19.51 7.77592 19.546C6.22792 20.932 4.91392 21.418 3.86992 21.724L5.38192 23.344L3.58192 23.344L3.58192 12.58L14.3819 12.58L14.3819 23.344ZM10.2779 15.64C10.0979 14.92 9.82792 14.074 9.05392 12.868L7.36192 13.696C7.97392 14.596 8.31592 15.334 8.58592 16.27L10.2779 15.64ZM7.36192 15.262C6.64192 14.128 5.90392 13.462 5.48992 13.12L4.03192 14.326C4.91392 15.1 5.41792 15.676 5.95792 16.414L7.36192 15.262Z" fill="white"/>
<path d="M26.1719 13.246C24.8939 12.472 24.2999 11.86 23.7959 11.23C23.8499 11.176 23.8679 11.14 23.8679 11.086C23.8679 10.906 23.6339 10.78 23.5439 10.762L22.0139 10.42C21.3839 11.986 20.1059 13.318 18.7019 14.2L20.0519 15.532C20.1959 15.406 20.2319 15.352 20.3579 15.208L20.3579 16.378L21.8339 16.378L21.8339 17.44L19.6199 17.44L19.6199 19.294L21.8339 19.294L21.8339 23.272C20.9699 23.344 20.0519 23.434 19.1699 23.47L19.3139 25.342C19.3319 25.504 19.3499 25.828 19.5479 25.828C19.6739 25.828 20.0159 25.378 20.1239 25.342C20.1959 25.306 21.2939 25.126 21.4739 25.09C23.9759 24.658 24.8939 24.46 25.4879 24.316L25.6319 22.642C25.3079 22.732 24.9299 22.84 23.6879 23.038L23.6879 19.294L25.4339 19.294L25.4339 17.44L23.6879 17.44L23.6879 16.378L25.0919 16.378L25.0919 14.524L26.1719 13.246ZM35.3339 23.416C33.2279 22.246 31.6439 20.644 31.1939 19.726L31.1939 18.034L34.7039 18.034L34.7039 16.288L33.7139 16.288L33.7139 10.906L26.3699 10.906L26.3699 12.634L31.7519 12.634L31.7519 13.606L27.1799 13.606L27.1799 15.262L31.7519 15.262L31.7519 16.288L26.0279 16.288L26.0279 18.034L29.2679 18.034L29.2679 20.896C28.3319 21.616 27.1619 22.102 25.9199 22.48L26.2259 24.028C26.2439 24.118 26.3159 24.478 26.5139 24.478C26.6039 24.478 26.6579 24.352 26.7299 24.208C26.8199 24.046 26.8379 24.01 27.3599 23.776C28.0079 23.506 28.7099 23.092 29.2679 22.768L29.2679 23.308C29.2679 23.74 29.0339 23.812 28.6919 23.812C28.1699 23.812 27.7559 23.758 27.5219 23.74L28.2959 25.774C30.5639 25.738 31.1939 25.594 31.1939 24.244L31.1939 22.354C32.0939 23.632 33.1019 24.37 34.0199 24.946L35.3339 23.416ZM26.2799 20.41C26.2799 20.392 26.2799 20.212 25.8839 20.122L24.4619 19.78C24.2999 21.058 24.0479 21.706 23.7599 22.336L25.3259 22.696C25.4519 22.372 25.6679 21.832 25.8659 20.626C26.0279 20.59 26.2799 20.536 26.2799 20.41ZM24.7679 14.524L21.2399 14.524C21.5999 14.164 22.1219 13.66 22.8239 12.688C23.3099 13.282 23.8139 13.768 24.7679 14.524ZM34.7759 19.438C34.7759 19.384 34.7759 19.276 34.5239 19.15L33.0299 18.358C32.5259 19.33 32.2199 19.726 31.7699 20.212L33.2639 21.184C33.7859 20.59 34.2359 19.852 34.3619 19.6C34.5599 19.582 34.7759 19.564 34.7759 19.438ZM29.0879 20.608C28.7999 20.05 28.4579 19.456 27.6119 18.484L26.1359 19.366C26.6039 19.924 26.9999 20.446 27.4859 21.436L29.0879 20.608ZM21.6899 22.552C21.5639 21.616 21.3839 20.77 20.9519 19.726L19.4039 20.284C19.7099 21.094 19.9259 21.85 20.1779 22.984L21.6899 22.552Z" fill="white"/>
<path d="M52.3259 18.124C52.3259 14.11 49.3739 11.572 45.6299 11.572C40.9859 11.572 37.6919 15.208 37.6919 19.204C37.6919 22.426 40.6439 24.046 41.2919 24.046C42.2279 24.046 43.0559 22.534 43.5959 21.418C44.1899 20.212 45.2519 17.692 45.8279 13.408C46.4939 13.462 47.7539 13.534 48.8879 14.614C49.8959 15.568 50.1839 16.774 50.1839 17.764C50.1839 18.556 49.9859 20.05 48.8879 21.346C47.7899 22.66 46.4579 23.038 45.6479 23.272L46.9799 25.126C47.9519 24.73 49.8239 23.956 51.1739 21.958C51.8399 20.968 52.3259 19.708 52.3259 18.124ZM43.6859 13.732C43.3259 16.54 41.7779 21.238 40.8419 21.238C40.5179 21.238 39.6899 20.482 39.6899 19.024C39.6899 17.926 40.2119 16.252 41.4899 15.028C42.3539 14.182 43.1639 13.912 43.6859 13.732Z" fill="white"/>
<path d="M70.7939 17.17L70.7939 15.766L67.9679 15.766L67.9679 14.956L69.5879 14.956L69.5879 13.678L67.9679 13.678L67.9679 12.868L70.6319 12.868L70.6319 11.428L67.9679 11.428C67.9679 11.05 67.9679 10.996 68.1299 10.87C68.2739 10.762 68.2919 10.69 68.2919 10.618C68.2919 10.492 68.1659 10.456 67.9319 10.438L66.1139 10.33L66.1139 11.428L64.4759 11.428L64.4759 11.104C64.4759 11.032 64.5839 10.942 64.6559 10.906C64.6919 10.87 64.8359 10.78 64.8359 10.69C64.8359 10.528 64.6199 10.492 64.4399 10.474L62.6579 10.33L62.6579 11.428L60.8579 11.428L60.8579 12.868L62.6579 12.868L62.6579 13.678L61.1999 13.678L61.1999 14.956L62.6579 14.956L62.6579 15.766L60.7499 15.766L60.7499 17.17L64.3319 17.17L64.3319 17.692L61.1279 17.692L61.1279 21.832L60.3179 21.832L60.3179 23.236L61.1279 23.236L61.1279 25.882L62.8919 25.882L62.8919 23.236L67.6079 23.236L67.6079 23.56C67.6079 23.902 67.2839 24.046 66.9779 24.046C66.7619 24.046 66.3839 24.01 65.8259 23.902L66.5459 25.846L67.6259 25.846C68.4539 25.846 69.3719 25.63 69.3719 24.64L69.3719 23.236L70.6319 23.236L70.6319 21.832L69.3719 21.832L69.3719 17.692L66.1319 17.692L66.1319 17.17L70.7939 17.17ZM67.6079 19.834L66.1319 19.834L66.1319 18.988L67.6079 18.988L67.6079 19.834ZM67.6079 21.832L66.1319 21.832L66.1319 20.968L67.6079 20.968L67.6079 21.832ZM64.3319 19.834L62.8919 19.834L62.8919 18.988L64.3319 18.988L64.3319 19.834ZM64.3319 21.832L62.8919 21.832L62.8919 20.968L64.3319 20.968L64.3319 21.832ZM66.1139 13.678L64.4759 13.678L64.4759 12.868L66.1139 12.868L66.1139 13.678ZM66.1139 15.766L64.4759 15.766L64.4759 14.956L66.1139 14.956L66.1139 15.766ZM60.8039 24.496C60.4799 23.848 59.9579 22.66 59.6519 21.742L60.2819 21.742L60.2819 10.672L55.6019 10.672L55.6019 21.742L56.1959 21.742C56.0339 22.354 55.7279 23.434 54.6119 25L56.3939 25.63C57.0239 24.658 57.4559 23.524 57.6719 22.966C57.6899 22.912 57.7079 22.876 57.8879 22.822C58.0319 22.786 58.0499 22.768 58.0859 22.696C58.3019 23.38 58.6619 24.388 59.1479 25.36L60.8039 24.496ZM58.7879 16.9L57.2219 16.9L57.2219 15.37L58.7879 15.37L58.7879 16.9ZM58.7879 20.032L57.2219 20.032L57.2219 18.43L58.7879 18.43L58.7879 20.032ZM58.7879 13.804L57.2219 13.804L57.2219 12.31L58.7879 12.31L58.7879 13.804ZM59.4179 21.742L57.9599 22.444L56.6819 21.742L59.4179 21.742Z" fill="white"/>
<path d="M89.1899 24.19C88.2179 23.65 86.1299 22.444 84.4919 19.402C83.1599 16.918 82.8359 14.47 82.8359 12.562C82.8359 11.986 82.8539 11.302 82.9079 10.744L77.1299 10.744L77.1299 12.886L80.7659 12.886C80.7839 13.606 80.8019 13.948 80.8559 14.488L79.2719 14.092C79.1279 15.298 78.8399 17.656 77.2019 20.266C75.6359 22.732 73.7999 23.938 72.8279 24.568L74.7539 25.936C77.8679 23.776 79.7939 20.698 81.1619 16.468C81.4139 17.53 81.8639 19.456 83.3039 21.724C84.7799 24.028 86.3279 25.216 87.1379 25.846L89.1899 24.19Z" fill="white"/>
<path d="M106.65 16.396L105.876 15.622L100.8 15.622L101.214 15.154C101.142 15.118 100.836 14.956 100.764 14.92C102.852 13.552 104.148 12.58 105.228 11.77L104.4 10.762L92.8079 10.762L92.8079 12.652L100.602 12.652C99.7739 13.48 99.3419 13.786 98.9639 14.038C97.3079 13.246 96.8399 13.03 96.3539 12.796L95.4179 14.506C96.6239 14.974 97.1819 15.262 97.8299 15.622L91.2779 15.622L91.2779 17.584L97.9019 17.584L97.9019 23.128C97.9019 23.632 97.7579 24.028 97.2179 24.028C96.6959 24.028 95.8499 23.848 95.5439 23.776L96.3719 25.918C99.2519 25.9 100.044 25.828 100.044 23.56L100.044 17.584L103.464 17.584C102.474 18.97 101.952 19.636 101.178 20.536L102.924 21.652C103.788 20.59 104.67 19.474 106.65 16.396Z" fill="white"/>
<path d="M124.596 16.378L124.596 13.012L119.664 13.012C119.88 12.58 119.916 12.454 120.132 11.878C120.222 11.644 120.24 11.626 120.51 11.5C120.582 11.464 120.636 11.41 120.636 11.32C120.636 11.23 120.546 11.176 120.456 11.14L118.548 10.51C117.558 13.48 116.694 14.74 115.884 15.784L117.288 16.918C117.792 16.36 118.116 15.856 118.638 14.956L122.724 14.956L122.724 16.18C122.724 18.934 122.4 21.328 122.04 22.516C121.698 23.65 121.338 23.794 120.762 23.794C120.114 23.794 119.538 23.722 119.16 23.686L120.15 25.792L120.924 25.792C122.094 25.792 123.066 25.558 123.57 24.118C124.236 22.246 124.596 18.934 124.596 16.378ZM120.924 20.554C120.438 18.844 119.97 17.782 119.52 16.9L117.9 17.548C118.296 18.34 118.782 19.366 119.304 21.094L120.924 20.554ZM116.694 18.988C116.514 17.89 116.244 16.882 115.866 15.82L114.246 16.198C114.372 16.54 114.462 16.918 114.552 17.242C113.778 17.332 113.4 17.368 112.824 17.404C113.832 16.324 114.804 15.19 115.722 14.02C115.974 13.696 115.992 13.66 116.28 13.642C116.298 13.642 116.478 13.606 116.478 13.444C116.478 13.408 116.46 13.3 116.352 13.246L114.714 12.256C114.282 12.994 113.796 13.786 112.752 15.226C112.518 14.92 112.32 14.704 112.014 14.398C112.806 13.372 112.95 13.156 113.868 11.77C113.904 11.716 113.958 11.68 114.192 11.572C114.264 11.536 114.3 11.482 114.3 11.428C114.3 11.392 114.264 11.32 114.174 11.266L112.572 10.402C112.122 11.464 111.708 12.31 110.934 13.426C110.772 13.282 110.61 13.156 110.322 12.958L109.206 14.47C110.034 15.028 110.79 15.604 111.708 16.63C111.456 16.972 111.186 17.26 111.006 17.476C110.25 17.512 109.854 17.512 109.08 17.512L109.44 19.6C109.458 19.69 109.548 19.762 109.602 19.762C109.692 19.762 109.746 19.708 109.89 19.564C110.034 19.402 110.16 19.384 110.286 19.384C110.52 19.348 111.24 19.276 111.888 19.204L111.888 25.882L113.724 25.882L113.724 18.952C114.03 18.898 114.282 18.88 114.912 18.718C114.984 19.06 115.02 19.294 115.056 19.456L116.694 18.988ZM116.712 23.416C116.496 22.768 116.172 21.634 115.956 20.05L114.498 20.356C114.642 21.544 114.822 22.462 115.2 23.812L116.712 23.416ZM111.618 20.752C111.618 20.644 111.402 20.59 111.294 20.572L109.818 20.302C109.692 22.336 109.404 23.416 109.062 24.37L110.61 24.784C111.132 23.488 111.24 22.552 111.33 21.058C111.528 20.914 111.618 20.842 111.618 20.752Z" fill="white"/>
<path d="M0 44L126 44" stroke="white"/>
</svg>
