<svg width="249" height="45" viewBox="0 0 249 45" fill="none" xmlns="http://www.w3.org/2000/svg">
<path d="M21.2001 14.5281L20.1681 13.4961L13.4001 13.4961L13.9521 12.8721C13.8561 12.8241 13.4481 12.6081 13.3521 12.5601C16.1361 10.7361 17.8641 9.44013 19.3041 8.36013L18.2001 7.01613L2.7441 7.01613L2.7441 9.53613L13.1361 9.53613C12.0321 10.6401 11.4561 11.0481 10.9521 11.3841C8.7441 10.3281 8.1201 10.0401 7.4721 9.72813L6.2241 12.0081C7.8321 12.6321 8.5761 13.0161 9.4401 13.4961L0.704102 13.4961L0.704102 16.1121L9.5361 16.1121L9.5361 23.5041C9.5361 24.1761 9.3441 24.7041 8.6241 24.7041C7.9281 24.7041 6.8001 24.4641 6.3921 24.3681L7.4961 27.2241C11.3361 27.2001 12.3921 27.1041 12.3921 24.0801L12.3921 16.1121L16.9521 16.1121C15.6321 17.9601 14.9361 18.8481 13.9041 20.0481L16.2321 21.5361C17.3841 20.1201 18.5601 18.6321 21.2001 14.5281Z" fill="#FF0000"/>
<path d="M45.1281 14.5041L45.1281 10.0161L38.5521 10.0161C38.8401 9.44013 38.8881 9.27213 39.1761 8.50413C39.2961 8.19213 39.3201 8.16813 39.6801 8.00013C39.7761 7.95213 39.8481 7.88013 39.8481 7.76013C39.8481 7.64013 39.7281 7.56813 39.6081 7.52013L37.0641 6.68013C35.7441 10.6401 34.5921 12.3201 33.5121 13.7121L35.3841 15.2241C36.0561 14.4801 36.4881 13.8081 37.1841 12.6081L42.6321 12.6081L42.6321 14.2401C42.6321 17.9121 42.2001 21.1041 41.7201 22.6881C41.2641 24.2001 40.7841 24.3921 40.0161 24.3921C39.1521 24.3921 38.3841 24.2961 37.8801 24.2481L39.2001 27.0561H40.2321C41.7921 27.0561 43.0881 26.7441 43.7601 24.8241C44.6481 22.3281 45.1281 17.9121 45.1281 14.5041ZM40.2321 20.0721C39.5841 17.7921 38.9601 16.3761 38.3601 15.2001L36.2001 16.0641C36.7281 17.1201 37.3761 18.4881 38.0721 20.7921L40.2321 20.0721ZM34.5921 17.9841C34.3521 16.5201 33.9921 15.1761 33.4881 13.7601L31.3281 14.2641C31.4961 14.7201 31.6161 15.2241 31.7361 15.6561C30.7041 15.7761 30.2001 15.8241 29.4321 15.8721C30.7761 14.4321 32.0721 12.9201 33.2961 11.3601C33.6321 10.9281 33.6561 10.8801 34.0401 10.8561C34.0641 10.8561 34.3041 10.8081 34.3041 10.5921C34.3041 10.5441 34.2801 10.4001 34.1361 10.3281L31.9521 9.00813C31.3761 9.99213 30.7281 11.0481 29.3361 12.9681C29.0241 12.5601 28.7601 12.2721 28.3521 11.8641C29.4081 10.4961 29.6001 10.2081 30.8241 8.36013C30.8721 8.28813 30.9441 8.24013 31.2561 8.09613C31.3521 8.04813 31.4001 7.97613 31.4001 7.90413C31.4001 7.85613 31.3521 7.76013 31.2321 7.68813L29.0961 6.53613C28.4961 7.95213 27.9441 9.08013 26.9121 10.5681C26.6961 10.3761 26.4801 10.2081 26.0961 9.94413L24.6081 11.9601C25.7121 12.7041 26.7201 13.4721 27.9441 14.8401C27.6081 15.2961 27.2481 15.6801 27.0081 15.9681C26.0001 16.0161 25.4721 16.0161 24.4401 16.0161L24.9201 18.8001C24.9441 18.9201 25.0641 19.0161 25.1361 19.0161C25.2561 19.0161 25.3281 18.9441 25.5201 18.7521C25.7121 18.5361 25.8801 18.5121 26.0481 18.5121C26.3601 18.4641 27.3201 18.3681 28.1841 18.2721L28.1841 27.1761L30.6321 27.1761L30.6321 17.9361C31.0401 17.8641 31.3761 17.8401 32.2161 17.6241C32.3121 18.0801 32.3601 18.3921 32.4081 18.6081L34.5921 17.9841ZM34.6161 23.8881C34.3281 23.0241 33.8961 21.5121 33.6081 19.4001L31.6641 19.8081C31.8561 21.3921 32.0961 22.6161 32.6001 24.4161L34.6161 23.8881ZM27.8241 20.3361C27.8241 20.1921 27.5361 20.1201 27.3921 20.0961L25.4241 19.7361C25.2561 22.4481 24.8721 23.8881 24.4161 25.1601L26.4801 25.7121C27.1761 23.9841 27.3201 22.7361 27.4401 20.7441C27.7041 20.5521 27.8241 20.4561 27.8241 20.3361Z" fill="#FF0000"/>
<path d="M69.4401 18.8481C67.3281 16.5201 65.2641 14.5521 62.6721 12.7281L60.9921 14.6481C63.6801 16.7361 65.5041 18.6561 67.3281 20.8881L69.4401 18.8481ZM69.2241 9.72813V7.18413L48.8481 7.18413L48.8481 9.72813L58.7361 9.72813C57.9201 11.3121 56.7441 12.6801 55.4961 13.9521C52.9521 16.5441 49.9281 17.8641 48.3201 18.5841L50.1681 20.9841C52.9521 19.6161 54.8961 18.3201 57.5601 15.9201L57.5601 27.2001L60.4401 27.2001L60.4401 13.6401C60.4401 13.4961 60.4881 13.4481 60.8481 13.1361C60.8721 13.1121 60.9921 13.0161 60.9921 12.8721C60.9921 12.6561 60.7761 12.5841 60.6561 12.5601C61.2321 11.8161 61.5201 11.4561 62.5281 9.72813L69.2241 9.72813Z" fill="#FF0000"/>
<path d="M93.2481 9.20013V7.04013L72.7761 7.04013V9.20013L79.4241 9.20013V10.5441L74.5761 10.5441L74.5761 16.7121L80.8641 16.7121C80.6241 17.0961 80.3841 17.5041 79.6401 18.3921L72.8241 18.3921L72.8241 20.3841L77.7921 20.3841C77.1441 21.0081 76.5201 21.5841 75.5841 22.3041L77.9601 23.7681C78.3201 23.4801 78.6081 23.2161 78.9201 22.9281C79.7601 23.0961 80.7201 23.3601 81.4881 23.5761C79.4721 24.5361 77.7441 24.8961 73.0161 24.9201L74.1681 27.2961C79.1361 26.8641 81.4881 26.1201 84.3201 24.5841C86.2161 25.3041 88.4001 26.1921 90.4641 27.4881L92.0721 25.2801C90.3441 24.5121 88.8321 23.8641 86.3601 22.9761C86.9841 22.4001 87.6801 21.7041 88.5201 20.3841L93.2001 20.3841L93.2001 18.3921L83.0481 18.3921C83.5521 17.7681 83.9121 17.3121 84.3201 16.7121L91.6401 16.7121L91.6401 10.5441L86.7441 10.5441V9.20013L93.2481 9.20013ZM84.2001 14.7921L81.9921 14.7921V12.4641L84.2001 12.4641V14.7921ZM89.1681 14.7921L86.7441 14.7921V12.4641L89.1681 12.4641V14.7921ZM84.2001 10.5441L81.9921 10.5441V9.20013L84.2001 9.20013V10.5441ZM79.4241 14.7921L77.1441 14.7921V12.4641L79.4241 12.4641V14.7921ZM85.3521 20.3841C85.0881 20.7921 84.5601 21.4881 83.7921 22.0881C82.1841 21.6081 81.4161 21.4161 80.5761 21.2481C80.8881 20.9121 80.9841 20.8401 81.3681 20.3841L85.3521 20.3841Z" fill="#FF0000"/>
<path d="M114.872 11.6481L114.872 8.86413C113.96 9.17613 111.992 9.84813 109.184 9.84813C107.888 9.84813 106.808 9.68013 106.112 9.58413L106.112 12.2241C107.384 12.3441 108.488 12.3441 108.68 12.3441C111.344 12.3441 113.768 11.8641 114.872 11.6481ZM116.024 24.2481V21.2721C115.16 21.5121 113.288 22.0161 110.552 22.0161C108.128 22.0161 107.888 21.3681 107.864 19.0881L105.248 19.4481C105.32 23.5041 106.232 24.6801 110.6 24.6801C113.144 24.6801 114.752 24.4401 116.024 24.2481ZM103.472 19.9761L102.056 19.2081C101.528 20.1441 101.384 20.3841 101.096 20.8881C100.76 19.8561 100.76 18.0081 100.76 17.6001C100.76 13.9761 101.792 9.63213 102.152 9.41613C102.2 9.39213 102.512 9.27213 102.56 9.24813C102.656 9.17613 102.68 9.08013 102.68 9.03213C102.68 8.84013 102.224 8.67213 102.056 8.60013L99.6081 7.71213C99.2721 9.12813 98.9361 10.5921 98.6001 13.1841C98.4321 14.6001 98.2401 16.3761 98.2401 17.9121C98.2401 19.7601 98.5041 21.9921 99.2241 24.2241C99.5121 25.1121 99.7281 25.4961 100.112 26.1201L102.008 25.3761C102.248 23.8401 102.608 21.9441 103.472 19.9761Z" fill="#FF0000"/>
<path d="M139.232 23.1681C137.72 22.2081 136.688 21.6081 135.104 20.9841C134.84 19.2081 134.792 18.1521 134.792 17.6481C134.792 16.9521 134.936 16.3521 135.704 15.7281L133.208 14.3841C132.728 14.9601 132.176 15.6801 132.176 16.8321C132.176 17.3361 132.464 19.7841 132.512 20.3361C132.032 20.2641 131.432 20.1921 130.64 20.1921C127.328 20.1921 126.392 22.3041 126.392 23.6001C126.392 24.6081 126.896 25.3041 127.28 25.6401C128.288 26.5281 129.656 26.7681 131.192 26.7681C134.336 26.7681 135.056 25.7601 135.272 23.8401C136.208 24.3441 136.832 24.7521 137.648 25.4241L139.232 23.1681ZM132.632 22.7361C132.632 23.6001 132.656 24.6081 130.712 24.6081C129.392 24.6081 128.72 24.0561 128.72 23.5281C128.72 23.0481 129.296 22.3761 130.544 22.3761C131.36 22.3761 132.2 22.6161 132.632 22.7361ZM139.904 13.1361C138.128 11.7921 136.328 11.2401 134.552 10.9281L133.472 12.9921C135.848 13.5921 137.144 14.2161 138.728 15.1761L139.904 13.1361ZM132.752 11.8881V9.20013C132.128 9.41613 131.408 9.65613 129.992 10.0161C130.088 9.70413 130.544 8.16813 130.568 8.14413C130.712 8.00013 131.12 7.85613 131.12 7.61613C131.12 7.35213 130.664 7.23213 130.544 7.20813L127.928 6.63213C127.76 8.09613 127.472 9.15213 127.064 10.5921C125.576 10.7841 124.568 10.8801 122.984 10.9041L123.344 13.4001C124.472 13.3281 125.144 13.2561 126.248 13.1121C125.264 15.8241 124.064 18.9201 122.144 21.8481L124.712 22.9521C125.96 20.6721 127.208 18.2721 129.152 12.6561C131.192 12.2961 131.936 12.1041 132.752 11.8881Z" fill="#FF0000"/>
<path d="M161.72 14.8161C161.72 13.2321 161.576 11.4561 161.432 9.77613C161.408 9.53613 161.288 8.52813 161.288 8.31213C161.288 8.09613 161.72 7.95213 161.72 7.73613C161.72 7.42413 161.288 7.42413 161.216 7.42413L158.312 7.42413C158.84 10.9281 158.912 14.6241 158.912 14.8881C158.912 17.0961 158.432 19.3281 157.448 21.3201C156.272 23.6721 154.904 24.7281 154.04 25.3761L156.896 26.8881C157.76 25.9761 159.128 24.5361 160.256 21.9681C161.576 18.9681 161.72 16.2561 161.72 14.8161ZM154.016 14.0721L152.336 12.9681C151.736 14.3121 151.256 15.5601 150.944 16.3761C150.824 15.8481 150.776 15.5841 150.776 14.8881C150.776 13.4481 151.16 8.86413 151.664 8.45613C151.76 8.36013 152 8.26413 152 8.09613C152 7.85613 151.64 7.80813 151.496 7.80813L148.88 7.66413C148.664 9.03213 148.208 11.8161 148.208 14.7681C148.208 16.9761 148.52 19.2081 149.288 21.2961H151.328C152.024 18.8241 152.984 16.4241 154.016 14.0721Z" fill="#FF0000"/>
<path d="M186.584 23.1921C184.088 21.6081 182.504 21.0321 180.512 20.4801C180.44 19.0641 180.44 18.8241 180.392 17.6241C183.224 17.4081 184.496 17.1921 185.528 17.0241L185.528 14.4081C183.32 14.8161 182.432 14.9601 180.344 15.2241L180.344 12.3921C181.544 12.3681 183.776 12.3201 186.44 12.3201L186.536 9.77613C184.28 9.94413 183.464 9.99213 180.392 10.1361C180.416 8.88813 180.44 8.43213 180.44 8.40813C180.488 8.19213 180.656 8.04813 180.752 7.97613C181.016 7.76013 181.064 7.73613 181.064 7.64013C181.064 7.47213 180.92 7.40013 180.464 7.35213L177.536 7.06413L177.608 10.2561C175.472 10.3041 174.176 10.3521 171.44 10.3521L171.488 12.9441C173.552 12.7041 174.92 12.6081 177.68 12.4881L177.728 15.4881C177.176 15.5361 176.864 15.5361 176.072 15.5361C175.664 15.5361 175.16 15.5361 175.16 15.2001C175.16 14.8881 175.52 14.6241 175.952 14.3121L174.584 13.1361C173.648 13.8081 172.016 14.9361 172.016 16.1121C172.016 17.0481 173.12 17.8401 175.328 17.8401C176.024 17.8401 177.344 17.7921 177.776 17.7681L177.824 20.0721L177.152 20.0481C171.752 19.8561 171.512 22.6401 171.512 23.3361C171.512 25.2801 173.576 26.4561 176.888 26.4561C179.96 26.4561 180.536 25.4961 180.632 23.0481C182.408 23.7441 183.464 24.3201 185.024 25.4241L186.584 23.1921ZM177.848 22.3521C177.872 23.6961 177.776 24.1281 176.216 24.1281C175.928 24.1281 174.392 24.1281 174.392 23.3121C174.392 22.6881 175.16 22.2801 176.72 22.2801C177.272 22.2801 177.584 22.3041 177.848 22.3521Z" fill="#FF0000"/>
<path d="M211.64 20.1441L209.288 18.2001C206.936 22.8081 203.72 23.6481 202.376 23.6481C200.84 23.6481 200.312 22.7121 200.264 22.6401C199.808 21.8241 199.808 19.4961 199.808 18.3921C199.808 15.7521 200.288 9.41613 200.48 8.79213C200.864 8.48013 201.152 8.28813 201.152 8.09613C201.152 7.95213 200.936 7.78413 200.36 7.71213L197.168 7.25613C197.24 8.86413 197.048 15.9921 197.048 17.4561C197.048 23.2161 197.432 24.4401 198.56 25.4241C199.328 26.0961 200.552 26.6481 202.064 26.6481C203.072 26.6481 204.824 26.4321 206.84 25.1121C209.216 23.5761 210.656 21.5121 211.64 20.1441Z" fill="#FF0000"/>
<path d="M235.64 17.2641L235.64 14.7201C234.92 14.6481 234.152 14.5761 232.472 14.5761C231.2 14.5761 230 14.6481 228.752 14.7441L228.752 17.2641C229.328 17.1921 230.816 17.0001 232.352 17.0001C232.712 17.0001 233.84 17.0241 235.64 17.2641ZM230.216 12.4401V9.77613C229.256 10.2321 227.816 10.8801 226.4 11.1921C226.568 10.5201 226.76 9.65613 226.976 8.57613C227.024 8.33613 227.072 8.31213 227.384 8.16813C227.6 8.07213 227.672 8.00013 227.672 7.83213C227.672 7.56813 227.12 7.44813 227.072 7.44813L224.12 6.75213C224.072 8.36013 223.664 10.2081 223.304 11.8401C222.776 11.9601 221.264 11.9841 220.928 11.9841C219.752 11.9841 219.248 11.8881 218.984 11.8401L219.176 14.3361C220.016 14.3121 220.832 14.2881 222.752 14.0481C220.856 20.5521 219.32 23.1441 217.88 25.4721L220.808 26.3601C223.328 21.4401 224.576 17.5761 225.752 13.5921C228.392 13.0881 229.4 12.7041 230.216 12.4401ZM236.024 26.1681L235.784 23.3841C235.088 23.5521 233.792 23.9121 231.56 23.9121C231.008 23.9121 229.184 23.8881 228.512 23.2641C228.272 23.0481 228.224 22.8561 228.224 22.5441C228.224 22.4961 228.224 22.1121 228.32 21.6561L225.944 21.1521C225.656 21.9921 225.656 22.7601 225.656 22.8801C225.656 25.3281 227.504 26.5281 231.824 26.5281C233.504 26.5281 234.8 26.3841 236.024 26.1681Z" fill="#FF0000"/>
<path d="M244.112 22.7601V26.0001L247.328 26.0001V22.7601L244.112 22.7601ZM244.112 8.48013V13.3521L244.928 21.2721H246.512L247.328 13.3521V8.48013L244.112 8.48013Z" fill="#FF0000"/>
<path d="M0 44L249 44" stroke="white"/>
</svg>
