<svg width="92" height="18" viewBox="0 0 92 18" fill="none" xmlns="http://www.w3.org/2000/svg">
<path d="M12.9499 6.30804L12.3479 5.70604H8.3999L8.7219 5.34204C8.6659 5.31404 8.4279 5.18804 8.3719 5.16004C9.9959 4.09604 11.0039 3.34004 11.8439 2.71004L11.1999 1.92604H2.1839V3.39604H8.2459C7.6019 4.04004 7.2659 4.27804 6.9719 4.47404C5.6839 3.85804 5.3199 3.69004 4.9419 3.50804L4.2139 4.83804C5.1519 5.20204 5.5859 5.42604 6.0899 5.70604H0.993896V7.23204H6.1459V11.544C6.1459 11.936 6.0339 12.244 5.6139 12.244C5.2079 12.244 4.5499 12.104 4.3119 12.048L4.9559 13.714C7.1959 13.7 7.8119 13.644 7.8119 11.88V7.23204H10.4719C9.7019 8.31004 9.2959 8.82804 8.6939 9.52804L10.0519 10.396C10.7239 9.57004 11.4099 8.70204 12.9499 6.30804Z" fill="white"/>
<path d="M26.9079 6.29404V3.67604H23.0719C23.2399 3.34004 23.2679 3.24204 23.4359 2.79404C23.5059 2.61204 23.5199 2.59804 23.7299 2.50004C23.7859 2.47204 23.8279 2.43004 23.8279 2.36004C23.8279 2.29004 23.7579 2.24804 23.6879 2.22004L22.2039 1.73004C21.4339 4.04004 20.7619 5.02004 20.1319 5.83204L21.2239 6.71404C21.6159 6.28004 21.8679 5.88804 22.2739 5.18804H25.4519V6.14004C25.4519 8.28204 25.1999 10.144 24.9199 11.068C24.6539 11.95 24.3739 12.062 23.9259 12.062C23.4219 12.062 22.9739 12.006 22.6799 11.978L23.4499 13.616H24.0519C24.9619 13.616 25.7179 13.434 26.1099 12.314C26.6279 10.858 26.9079 8.28204 26.9079 6.29404ZM24.0519 9.54204C23.6739 8.21204 23.3099 7.38604 22.9599 6.70004L21.6999 7.20404C22.0079 7.82004 22.3859 8.61804 22.7919 9.96204L24.0519 9.54204ZM20.7619 8.32404C20.6219 7.47004 20.4119 6.68604 20.1179 5.86004L18.8579 6.15404C18.9559 6.42004 19.0259 6.71404 19.0959 6.96604C18.4939 7.03604 18.1999 7.06404 17.7519 7.09204C18.5359 6.25204 19.2919 5.37004 20.0059 4.46004C20.2019 4.20804 20.2159 4.18004 20.4399 4.16604C20.4539 4.16604 20.5939 4.13804 20.5939 4.01204C20.5939 3.98404 20.5799 3.90004 20.4959 3.85804L19.2219 3.08804C18.8859 3.66204 18.5079 4.27804 17.6959 5.39804C17.5139 5.16004 17.3599 4.99204 17.1219 4.75404C17.7379 3.95604 17.8499 3.78804 18.5639 2.71004C18.5919 2.66804 18.6339 2.64004 18.8159 2.55604C18.8719 2.52804 18.8999 2.48604 18.8999 2.44404C18.8999 2.41604 18.8719 2.36004 18.8019 2.31804L17.5559 1.64604C17.2059 2.47204 16.8839 3.13004 16.2819 3.99804C16.1559 3.88604 16.0299 3.78804 15.8059 3.63404L14.9379 4.81004C15.5819 5.24404 16.1699 5.69204 16.8839 6.49004C16.6879 6.75604 16.4779 6.98004 16.3379 7.14804C15.7499 7.17604 15.4419 7.17604 14.8399 7.17604L15.1199 8.80004C15.1339 8.87004 15.2039 8.92604 15.2459 8.92604C15.3159 8.92604 15.3579 8.88404 15.4699 8.77204C15.5819 8.64604 15.6799 8.63204 15.7779 8.63204C15.9599 8.60404 16.5199 8.54804 17.0239 8.49204V13.686H18.4519V8.29604C18.6899 8.25404 18.8859 8.24004 19.3759 8.11404C19.4319 8.38004 19.4599 8.56204 19.4879 8.68804L20.7619 8.32404ZM20.7759 11.768C20.6079 11.264 20.3559 10.382 20.1879 9.15004L19.0539 9.38804C19.1659 10.312 19.3059 11.026 19.5999 12.076L20.7759 11.768ZM16.8139 9.69604C16.8139 9.61204 16.6459 9.57004 16.5619 9.55604L15.4139 9.34604C15.3159 10.928 15.0919 11.768 14.8259 12.51L16.0299 12.832C16.4359 11.824 16.5199 11.096 16.5899 9.93404C16.7439 9.82204 16.8139 9.76604 16.8139 9.69604Z" fill="white"/>
<path d="M40.7959 12.076V2.02404H35.3919V6.32204H39.3259V11.698C39.3259 12.048 39.1439 12.188 38.7939 12.188H37.8699L38.5419 13.658H39.3959C40.4879 13.658 40.7959 12.972 40.7959 12.076ZM38.6119 10.452V9.20604H36.8759V8.18404H38.2479V6.98004H31.6679V8.18404H33.0819C33.0819 8.61804 33.0819 8.78604 33.0539 9.20604H31.2619V10.452H32.9139C32.6619 11.39 32.3679 11.894 31.1079 12.678L32.3259 13.616C33.4599 12.664 34.0059 11.978 34.2999 10.452H35.4339V13.364H36.8759V10.452H38.6119ZM39.3259 3.67604H36.9179V3.11604H39.3259V3.67604ZM39.3259 5.23004H36.9179V4.62804H39.3259V5.23004ZM35.4339 9.20604H34.4259C34.4399 8.94004 34.4399 8.77204 34.4539 8.18404H35.4339V9.20604ZM34.5519 6.32204V2.02404H29.1479V13.588H30.7019V6.32204H34.5519ZM33.1379 3.67604H30.7019V3.11604H33.1379V3.67604ZM33.1379 5.23004H30.7019V4.62804H33.1379V5.23004Z" fill="white"/>
<path d="M54.4599 13.756V8.25404H48.6779V13.756H50.2879V13.28H52.8499V13.756H54.4599ZM52.8499 11.768H50.2879V9.72404H52.8499V11.768ZM48.2719 11.446C48.1179 11.18 47.8379 10.648 46.9699 9.61204C47.8239 7.33004 47.8519 5.32804 47.8239 3.83004H45.7799C45.8219 3.57804 45.9339 3.00404 46.0319 2.36004C46.0459 2.29004 46.0599 2.24804 46.1859 2.16404C46.2699 2.10804 46.3119 2.08004 46.3119 2.01004C46.3119 1.88404 46.1439 1.84204 46.0319 1.82804L44.5199 1.61804C44.4779 2.36004 44.3939 2.89204 44.2259 3.83004H42.9939V5.42604H43.9039C43.5259 7.07804 43.3159 7.96004 42.8539 9.26204L44.3099 9.61204C44.3939 9.43004 44.4359 9.27604 44.4919 9.12204C44.8839 9.47204 44.9399 9.52804 45.2759 9.90604C44.6319 11.306 43.7919 12.188 42.8679 12.93L44.3659 13.728C45.1499 12.972 45.6679 12.3 46.2559 11.222C46.6759 11.852 46.8159 12.146 46.9699 12.482L48.2719 11.446ZM46.2699 5.42604C46.1719 6.98004 46.0039 7.70804 45.8219 8.36604C45.4299 8.00204 45.2619 7.86204 44.9259 7.61004C45.1219 6.88204 45.3039 6.15404 45.4439 5.42604H46.2699ZM55.3699 7.37204C54.8799 5.72004 54.0679 4.39004 53.3679 3.43804L52.0239 4.09604C52.5279 4.89404 52.6959 5.20204 52.9339 5.69204C51.7439 5.76204 51.6319 5.76204 50.7639 5.79004C51.2959 4.30604 51.5059 3.71804 51.9119 2.51404C51.9539 2.44404 51.9679 2.41604 52.1219 2.36004C52.2199 2.33204 52.3319 2.27604 52.3319 2.16404C52.3319 2.02404 52.1359 1.96804 51.9819 1.94004L50.3439 1.61804C49.9939 3.46604 49.6439 4.72604 49.3079 5.84604C48.2999 5.87404 48.1879 5.87404 47.9919 5.87404L48.2439 7.38604C48.2859 7.62404 48.3279 7.70804 48.4119 7.70804C48.4819 7.70804 48.7059 7.48404 48.7619 7.47004C48.8179 7.45604 49.4619 7.41404 49.5599 7.41404C51.0719 7.31604 52.6399 7.16204 53.5359 7.06404C53.7319 7.58204 53.8019 7.84804 53.8579 8.03004L55.3699 7.37204Z" fill="white"/>
<path d="M68.8799 10.97C67.6199 10.116 67.0179 9.87804 66.4719 9.65404C66.3179 8.08604 66.2899 7.41404 66.2759 5.90204C66.7239 5.81804 67.4519 5.70604 68.0259 5.51004V3.99804C67.4939 4.32004 66.6819 4.48804 66.2899 4.57204C66.3599 3.80204 66.4019 3.18604 66.4859 2.83604C66.6259 2.75204 66.7519 2.68204 66.7519 2.61204C66.7519 2.52804 66.7099 2.45804 66.4159 2.41604L64.8479 2.16404C64.8199 3.55004 64.8199 3.70404 64.7919 4.75404C64.3999 4.79604 64.0219 4.83804 63.4899 4.83804C62.8319 4.83804 62.4819 4.79604 62.2299 4.75404L62.2439 6.19604C63.1119 6.23804 63.8679 6.18204 64.7779 6.08404C64.8059 7.03604 64.8479 7.62404 64.9599 9.29004C64.6799 9.26204 64.3859 9.23404 64.1059 9.23404C62.7479 9.23404 61.6419 9.78004 61.6419 11.04C61.6419 13.056 63.9939 13.056 64.3999 13.056C66.3039 13.056 66.5839 12.328 66.6119 11.25C67.1999 11.6 67.5779 11.88 68.0819 12.356L68.8799 10.97ZM60.8859 9.73804L60.0039 9.13604L59.4299 9.97604C59.3599 9.40204 59.3599 8.66004 59.3599 8.50604C59.3599 7.42804 59.7519 4.79604 59.8779 4.16604C59.9199 3.99804 60.0879 3.28404 60.1859 3.21404C60.2279 3.20004 60.4099 3.13004 60.4519 3.10204C60.4939 3.07404 60.5079 3.03204 60.5079 3.00404C60.5079 2.86404 60.2139 2.73804 60.1719 2.72404L58.8139 2.19204C58.2679 4.33404 57.9599 6.53204 57.9599 8.74404C57.9599 10.214 58.0719 11.684 58.4919 13.084L59.7799 12.874C59.9339 11.754 60.5779 10.396 60.8859 9.73804ZM65.0439 10.62C65.0719 11.348 65.0999 11.67 64.1759 11.67C63.3499 11.67 62.9439 11.376 62.9439 11.054C62.9439 10.732 63.3919 10.494 64.0499 10.494C64.4699 10.494 64.8339 10.578 65.0439 10.62Z" fill="white"/>
<path d="M71.2499 13H76.7699V11.44H74.8349V2.68004H73.1849C73.1249 3.76004 72.2699 4.24004 71.2499 4.24004V5.44004H73.1849V11.44H71.2499V13Z" fill="white"/>
<path d="M88.1843 12.3V1.98204H80.8763V7.20404C80.8763 10.326 79.2663 11.6 78.2723 12.398L79.6583 13.546C81.2683 12.314 81.8843 11.222 82.3463 9.23404H86.5603V11.544C86.5603 11.852 86.4483 11.964 86.0423 11.964C85.4963 11.964 85.1743 11.922 84.9363 11.88L85.6223 13.714C87.0503 13.714 88.1843 13.616 88.1843 12.3ZM86.5603 4.90804H82.5843V3.45204H86.5603V4.90804ZM86.5603 7.76404H82.5283C82.5563 7.45604 82.5843 7.09204 82.5843 6.30804H86.5603V7.76404Z" fill="white"/>
</svg>
