<svg width="189" height="126" viewBox="0 0 189 126" fill="none" xmlns="http://www.w3.org/2000/svg">
<path d="M13.9518 21.8319C13.5678 19.6879 13.1518 18.0559 12.3518 16.0079L9.40784 16.6799C9.69584 17.5759 9.79184 17.8319 10.0478 18.8559C9.02384 18.9199 8.89584 18.9199 7.64784 18.9519C9.21584 16.9359 11.7438 13.3519 12.4158 12.3599C12.5758 12.1359 12.7358 12.1039 13.0558 12.0399C13.1838 12.0079 13.3118 11.9759 13.3118 11.8159C13.3118 11.7199 13.2478 11.5919 12.8318 11.3679L10.1758 9.89594C9.75984 10.7279 9.31184 11.5599 7.83984 13.8319C7.64784 13.6399 7.58384 13.5759 7.10384 13.0639C8.35184 11.1759 8.51184 10.9199 9.40784 9.19195C9.59984 8.83994 9.66384 8.80795 10.0478 8.71194C10.1438 8.67994 10.2718 8.64795 10.2718 8.42395C10.2718 8.10394 9.88784 7.91195 9.79184 7.87995L7.26384 6.82395C6.43184 8.80795 5.79184 9.92795 5.02384 11.0799C4.67184 10.7599 4.41584 10.5359 4.03184 10.2159L2.17584 12.9039C4.31984 14.6319 5.21584 15.6879 5.95184 16.6159C5.05584 17.8639 4.67184 18.3119 4.06384 19.0159C2.75184 19.0159 2.36784 18.9839 1.75984 18.9519L2.04784 21.7999C2.07984 22.1839 2.17584 22.6639 2.46384 22.6639C2.59184 22.6639 2.68784 22.5679 2.94384 22.3119C3.00784 22.2479 3.13584 22.1839 3.51984 22.1519C4.25584 22.0879 5.43984 22.0239 6.17584 21.9919V34.6639H9.72784V21.6399C10.1438 21.6079 10.2718 21.6079 10.6558 21.5439C10.7198 21.8319 10.7838 22.1199 10.8798 22.7599L13.9518 21.8319ZM13.8558 28.9679C13.3758 27.0159 13.1518 25.2879 13.1198 23.2399L10.4958 23.6879C10.4638 25.1919 10.5278 27.2079 11.0718 29.7359L13.8558 28.9679ZM30.4318 19.8799C28.8318 17.1919 27.5518 15.5599 25.8878 13.8639L23.1038 15.9119C23.5518 16.4239 23.9678 16.9359 24.3838 17.4479C23.1038 17.6079 22.1118 17.6399 20.4158 17.7039C21.3758 16.0399 21.8238 15.1119 22.4958 13.7679H29.7918V10.6319H23.1998V8.19995C23.1998 8.10394 23.2318 8.07195 23.6798 7.78395C23.8718 7.65594 23.9678 7.59195 23.9678 7.46395C23.9678 7.14395 23.5198 7.04795 22.8158 7.01595L19.3278 6.85595V10.6319H13.4398V13.7679H18.4638C17.9518 15.1119 17.4078 16.4559 16.8318 17.7679C15.6798 17.7679 14.7198 17.7679 13.8558 17.7039L14.2718 20.8399C14.3038 21.1919 14.4318 21.5759 14.7518 21.5759C14.9118 21.5759 15.4558 21.1599 15.5838 21.0959C15.9038 20.9999 24.5438 20.2639 26.2078 20.0719C26.6238 20.6799 26.9758 21.2559 27.3278 21.8959L30.4318 19.8799ZM30.3678 29.2559L27.3918 27.7519C27.0078 30.5679 26.8158 30.9199 25.9198 30.9199C25.1198 30.9199 24.9278 30.3439 24.9278 29.9279V22.9519C24.9278 22.8559 24.9598 22.8239 25.3438 22.5359C25.5678 22.3759 25.6638 22.2799 25.6638 22.1199C25.6638 21.7039 24.9598 21.6399 24.5438 21.6079L21.4078 21.4479V32.2639C21.4078 33.2239 22.0158 34.5359 23.8398 34.5359H26.9758C29.4718 34.5359 30.1118 32.7759 30.3678 29.2559ZM20.6398 22.1839C20.6398 21.8639 20.2878 21.7679 19.5838 21.7359L16.4158 21.5759C16.6398 27.7199 15.8398 30.5039 10.8158 32.0399L13.9518 34.8239C18.1758 32.7439 20.1278 30.3119 20.1918 22.9199C20.2238 22.7599 20.2238 22.6959 20.4478 22.5039C20.5758 22.3759 20.6398 22.2799 20.6398 22.1839ZM5.95184 23.9119C5.95184 23.6559 5.34384 23.5599 5.24784 23.5599L2.78384 23.3039C2.43184 28.0399 1.91984 29.9599 1.63184 31.0799L4.70384 31.5919C5.18384 29.7359 5.43984 27.3359 5.69584 24.3599C5.75984 24.2639 5.95184 24.0719 5.95184 23.9119Z" fill="#00FFFF" style="mix-blend-mode:difference"/>
<path d="M62.4958 17.0639C60.9278 16.6159 57.8558 15.7199 54.4638 13.3519C51.5198 11.2719 50.1438 9.31995 49.4078 8.32795C49.5998 8.19995 49.8878 7.94394 49.8878 7.81594C49.8878 7.71995 49.7278 7.52794 49.4398 7.46395L45.6958 6.72795C42.3678 12.8719 36.5118 16.3599 32.4478 18.1839L35.1358 20.9039C36.2558 20.3919 37.9518 19.6559 40.8318 17.5759V19.5599H53.6958V16.9679C56.0958 18.6319 57.7278 19.4319 59.7438 20.2639L62.4958 17.0639ZM52.7678 16.2959H42.4958C45.4398 13.7359 46.5598 12.0719 47.2958 10.9839C49.5358 13.6719 51.1678 15.0159 52.7678 16.2959ZM56.7998 34.3439V22.0559H38.1118V34.4719H41.5998V33.3839H53.1838V34.3439H56.7998ZM53.1838 30.0879H41.5998V25.1919H53.1838V30.0879Z" fill="#00FFFF" style="mix-blend-mode:difference"/>
<path d="M94.0798 8.35995C93.5678 7.87995 92.9598 7.36794 90.8478 6.18394L89.6638 7.91195C91.7438 9.06395 92.3518 9.57594 92.8958 10.0879L94.0798 8.35995ZM93.1838 12.3599C92.0638 11.3679 91.2318 10.7599 89.8238 9.95995L88.6078 11.7519C89.4398 12.2639 90.5278 12.9039 91.9678 14.1519L93.1838 12.3599ZM86.6558 12.1999V8.71194H71.0078V12.1999L86.6558 12.1999ZM90.7198 20.1359V16.8079H66.6878V20.1359H77.3758C77.2478 26.9839 74.4958 29.6079 68.8638 31.5919L71.8718 34.2799C78.0478 31.4959 80.9598 27.7199 81.1198 20.1359H90.7198Z" fill="#00FFFF" style="mix-blend-mode:difference"/>
<path d="M122.464 18.1839V14.5679H117.12V9.99195C117.12 9.54395 117.152 9.51195 117.472 9.25595C117.76 9.06395 117.76 8.99994 117.76 8.90395C117.76 8.64795 117.408 8.48795 116.736 8.39194L113.472 7.94394C113.536 9.79995 113.536 11.6559 113.536 14.5679H107.488V10.0559C107.488 9.89594 108.16 9.41595 108.16 9.25595C108.16 8.96795 107.936 8.90395 107.2 8.80795L103.68 8.42395V14.5679H97.6638V18.1839H103.68V25.3519H107.488V18.1839H113.536C113.44 25.6079 111.424 28.6799 105.792 31.7839L108.416 34.2799C114.496 30.5999 116.704 27.4639 117.088 18.1839H122.464ZM119.136 10.0879C120.32 10.7599 121.344 11.5599 122.368 12.4559L123.712 10.7599C122.72 9.86395 121.696 9.06395 120.512 8.39194L119.136 10.0879ZM121.184 7.17595C122.4 7.84795 123.392 8.64795 124.384 9.54395L125.728 7.84795C124.736 6.95195 123.776 6.24795 122.496 5.54395L121.184 7.17595Z" fill="#00FFFF" style="mix-blend-mode:difference"/>
<path d="M151.456 10.6319C151.456 10.3759 151.04 9.95995 150.912 9.86395L148.128 7.55995C143.296 13.2879 136.256 18.5359 129.568 21.1599L132.352 24.0079C136.096 22.2479 138.24 20.9039 140.416 19.4639V33.5439H144.416V16.4879C146.304 14.9839 148.096 13.3199 149.696 11.4959C150.144 11.0159 150.208 10.9519 150.688 10.9199C151.328 10.8879 151.456 10.8559 151.456 10.6319Z" fill="#00FFFF" style="mix-blend-mode:difference"/>
<path d="M170.208 12.9679C168.192 11.3039 165.6 9.92795 163.488 8.99994L161.536 12.0079C164.096 13.1599 166.272 14.5359 168.096 16.0399L170.208 12.9679ZM185.44 16.2959L183.232 13.0959C181.824 15.0159 178.752 19.2399 173.856 22.8879C168.736 26.7279 164.544 27.8159 161.984 28.4239L164.224 32.2639C164.448 32.6799 164.736 32.8719 164.928 32.8719C165.184 32.8719 165.248 32.3279 165.408 31.8799C169.376 30.1839 172.416 28.8399 177.472 24.7439C181.696 21.3199 184.192 17.9599 185.44 16.2959Z" fill="#00FFFF" style="mix-blend-mode:difference"/>
<path d="M29.0238 62.7759C29.0238 55.6399 23.7758 51.1279 17.1198 51.1279C8.86384 51.1279 3.00784 57.5919 3.00784 64.6959C3.00784 70.4239 8.25584 73.3039 9.40784 73.3039C11.0718 73.3039 12.5438 70.6159 13.5038 68.6319C14.5598 66.4879 16.4478 62.0079 17.4718 54.3919C18.6558 54.4879 20.8958 54.6159 22.9118 56.5359C24.7038 58.2319 25.2158 60.3759 25.2158 62.1359C25.2158 63.5439 24.8638 66.1999 22.9118 68.5039C20.9598 70.8399 18.5918 71.5119 17.1518 71.9279L19.5198 75.2239C21.2478 74.5199 24.5758 73.1439 26.9758 69.5919C28.1598 67.8319 29.0238 65.5919 29.0238 62.7759ZM13.6638 54.9679C13.0238 59.9599 10.2718 68.3119 8.60784 68.3119C8.03184 68.3119 6.55984 66.9679 6.55984 64.3759C6.55984 62.4239 7.48784 59.4479 9.75984 57.2719C11.2958 55.7679 12.7358 55.2879 13.6638 54.9679Z" fill="#00FFFF" style="mix-blend-mode:difference"/>
<path d="M29.7918 111.752V108.392H17.8558V106.568C17.8558 106.376 17.9198 106.344 18.2078 106.024C18.3038 105.928 18.3678 105.896 18.3678 105.768C18.3678 105.48 18.1118 105.448 17.5358 105.352C18.7198 104.488 19.6798 103.464 20.7998 102.184C22.0478 103.688 23.6798 105.448 26.5598 107.272L29.0878 104.52C27.4558 103.752 25.1518 102.504 22.6878 99.688C22.8158 99.528 23.3598 98.6639 23.4238 98.5999C23.4878 98.5359 23.9998 98.4079 24.0958 98.3439C24.1278 98.3119 24.2238 98.2799 24.2238 98.1199C24.2238 97.7359 23.6158 97.3839 23.3278 97.2239H28.3838V94.0239H17.9838V92.3919C17.9838 92.1359 18.1118 92.0079 18.3038 91.8799C18.4318 91.7839 18.5598 91.6559 18.5598 91.4319C18.5598 91.1119 17.8558 91.0799 17.7278 91.0799L14.0478 90.8879V94.0239H3.64784V97.2239H8.28784C7.03984 100.392 4.76784 102.984 2.11184 105.096L5.31184 107.112C6.36784 106.056 7.51984 104.904 9.11984 102.792C10.0478 103.592 10.9758 104.232 12.9918 105.288L15.0718 102.344C13.6318 101.736 11.9358 100.68 11.0398 100.04C11.1358 99.8799 11.6158 99.1119 11.6798 99.0479C11.7758 98.9519 12.2878 98.7919 12.3838 98.7279C12.5118 98.6639 12.5438 98.5359 12.5438 98.4399C12.5438 98.2479 12.3518 98.0239 11.9038 97.7999L10.6878 97.2239H19.8718C18.5918 99.4959 17.2478 101.032 16.7038 101.576C14.9758 103.208 14.7838 103.4 14.0478 103.912L15.3918 105.256L13.8878 105.096V108.392H2.14384L2.14384 111.752H13.8878V118.568H17.8558V111.752H29.7918Z" fill="#00FFFF" style="mix-blend-mode:difference"/>
<path d="M60.9278 115.528C58.9758 115.144 57.3758 114.536 55.6798 113.512C56.7998 112.488 57.6318 111.848 58.1758 111.4C58.3678 111.304 58.4958 111.208 58.9438 111.208C59.2638 111.208 59.4558 111.208 59.4558 110.952C59.4558 110.824 59.3598 110.696 59.2638 110.6L57.3118 108.84H60.7998V105.992H54.6878V103.72H59.9038V100.968H54.6878V99.9119C54.9118 99.816 55.1678 99.7199 55.1678 99.4959C55.1678 99.1759 54.5918 99.0799 54.1438 99.0159L52.1278 98.6959H60.0958V91.2399H35.1678C35.3598 94.8239 35.5518 98.952 35.5518 102.216C35.5518 106.088 35.0718 109.352 34.3358 112.072C33.6958 114.536 32.9278 115.976 32.5118 116.776L35.9358 117.864C37.6958 114.28 38.3998 111.08 38.6558 108.84H42.2718V114.696C39.4558 115.048 38.9438 115.08 38.4318 115.08L38.8158 118.312C38.8478 118.696 38.9758 119.144 39.3278 119.144C39.4558 119.144 39.8398 118.696 39.9038 118.632C40.1918 118.44 40.3838 118.44 40.8958 118.344C42.8798 118.024 45.9838 117.448 50.2078 116.488L50.3678 113.384C48.7998 113.768 47.5198 113.96 45.9838 114.184L46.0158 108.84H47.4878C48.1278 110.152 49.4398 112.904 52.6718 115.368C55.0398 117.192 57.2158 117.96 58.1758 118.312L60.9278 115.528ZM51.1038 100.968H46.6558V99.8799C46.8158 99.7839 47.0078 99.6559 47.0078 99.4959C47.0078 99.1439 46.1758 99.0159 46.1118 99.0159L44.1278 98.6959H51.1038V100.968ZM51.1038 105.992H46.6558V103.72H51.1038V105.992ZM43.1358 105.992H38.9118C38.9758 104.456 38.9758 103.048 38.9758 102.344V98.6959H43.1358V100.968H39.8398V103.72H43.1358V105.992ZM56.5438 95.9119H38.9758V94.0239H56.5438V95.9119ZM55.9998 108.84C55.2638 109.8 54.4958 110.696 53.3118 111.56C52.8318 111.144 51.9998 110.376 51.1358 108.84H55.9998Z" fill="#00FFFF" style="mix-blend-mode:difference"/>
</svg>
