<svg width="32" height="140" viewBox="0 0 32 140" fill="none" xmlns="http://www.w3.org/2000/svg">
<path d="M29.1518 9.55217L26.2078 6.57617C26.0158 6.80017 25.5038 7.28017 25.0878 7.28017L3.55176 7.28017V10.7362H23.5838C21.8878 13.6482 19.7438 15.8242 17.7598 17.6482L20.7358 20.1762C24.2238 16.7522 27.5838 11.8562 29.1518 9.55217ZM18.0798 12.0802C18.0798 11.8242 17.9838 11.8242 17.3118 11.7922L13.5678 11.6002C13.8238 18.2562 12.3198 23.3442 5.56776 28.0162L8.99176 30.0322C10.6878 28.7842 16.0958 24.7842 17.1838 15.6322C17.2478 15.2162 17.3758 12.9762 17.4398 12.9122C17.4718 12.7842 17.8558 12.4642 17.9198 12.3682C18.0158 12.2402 18.0798 12.1762 18.0798 12.0802Z" fill="#00FFFF" style="mix-blend-mode:difference"/>
<path d="M27.0398 46.0562L24.4478 43.0162C23.9358 43.3362 23.4238 43.6242 23.0398 43.6242H15.8718C16.1918 43.0162 16.5758 42.3762 16.7678 41.8962C17.2158 41.7682 17.5678 41.7042 17.5678 41.4482C17.5678 41.1282 16.9278 40.8402 16.7358 40.7762L13.4398 39.5282C12.1598 43.3682 9.18376 48.1362 4.60776 51.8162L7.77576 53.9922C11.0078 50.8882 12.7678 48.4242 13.8558 46.8562H22.0478C21.5358 48.5842 20.5758 51.5602 17.8238 55.2722C14.0158 60.3922 9.79176 62.5682 7.80776 63.6242L11.2958 66.0242C13.3438 64.7442 16.7358 62.6002 19.9678 58.4402C23.1038 54.4082 24.5118 50.6962 25.6638 47.5922C25.9198 46.9202 26.3998 46.5042 27.0398 46.0562Z" fill="#00FFFF" style="mix-blend-mode:difference"/>
<path d="M28.5438 83.8402L25.8238 81.0882C25.4078 81.4402 25.0238 81.7922 24.4158 81.8562L14.2718 83.0722V76.9922C14.2718 76.8322 14.3358 76.7682 14.7198 76.4162C14.9758 76.1922 15.0078 76.1282 15.0078 76.0322C15.0078 75.6802 14.3998 75.6162 13.8558 75.5522L10.7198 75.1682V83.4562L3.87176 84.2882L4.15976 87.6802L10.7198 86.9122V95.2962C10.7198 98.6562 11.2958 99.7762 18.9438 99.7762C19.6158 99.7762 22.9118 99.7762 26.0798 99.4242L26.1118 95.5522C22.7198 96.1282 21.0558 96.3202 18.1438 96.3202C14.5598 96.3202 14.2718 95.8722 14.2718 93.9842V86.4962L23.0398 85.4082C21.7278 87.6162 19.8398 89.9842 18.9438 91.1042L21.8878 92.8002C23.1998 91.1362 25.1198 88.4802 27.2318 85.2162C27.5838 84.6402 27.9358 84.3522 28.5438 83.8402Z" fill="#00FFFF" style="mix-blend-mode:difference"/>
<path d="M28.1598 131.16C25.5358 128.312 22.7838 125.592 19.6798 123.256C21.6958 120.12 22.3038 118.648 23.3918 116.088C23.7758 115.16 24.4798 114.616 25.1198 114.168L22.6558 111.448C22.0798 111.832 21.5998 112.152 20.9918 112.152H7.19976V115.864H19.3918C18.6558 117.688 17.4078 120.92 13.9518 124.6C9.88776 128.92 5.82376 130.616 3.74376 131.512L6.55976 134.424C12.5758 131.48 14.9438 129.048 17.5038 126.2C20.1278 128.312 22.3998 130.616 25.3118 134.2L28.1598 131.16Z" fill="#00FFFF" style="mix-blend-mode:difference"/>
</svg>
