<svg width="26" height="187" viewBox="0 0 26 187" fill="none" xmlns="http://www.w3.org/2000/svg">
<path d="M25.3499 29.028V19.824H0.779902L0.779902 22.476H22.6719V29.028H25.3499Z" fill="white"/>
<path d="M24.4919 53.84C22.8279 48.796 20.2799 43.622 17.8879 40.476L15.1839 42.01C17.6539 45.468 20.2539 50.98 21.2679 55.296L24.4919 53.84ZM11.5439 41.75C11.5439 41.49 10.9979 41.36 10.9199 41.334L7.7739 40.632C6.9159 45.546 4.5499 51.136 1.1439 54.646L4.4719 56.05C6.0579 53.866 8.4239 50.486 10.2439 44.532C10.3479 44.168 10.7379 42.426 10.8939 42.296C10.9719 42.244 11.3359 42.01 11.3879 41.984C11.4919 41.906 11.5439 41.854 11.5439 41.75Z" fill="white"/>
<path d="M15.3399 71.306C15.3399 71.072 15.1059 70.942 14.4819 70.89L11.2319 70.552V89.584H14.7419V72.034C14.7419 71.93 14.9499 71.774 15.0279 71.722C15.2619 71.566 15.3399 71.436 15.3399 71.306Z" fill="white"/>
<path d="M22.6459 112.81C21.6059 111.9 20.6439 111.042 18.5899 109.69C16.3539 108.234 15.4959 107.896 14.1699 107.324L12.9479 109.248V102.41C12.9479 102.28 13.6239 101.864 13.6239 101.708C13.6239 101.396 13.0779 101.318 12.9999 101.292L9.8799 100.746L9.8799 121.338H12.9479L12.9479 110.106C16.0679 111.406 18.6679 113.512 20.5919 115.306L22.6459 112.81Z" fill="white"/>
<path d="M25.2199 142.416V139.764H3.3279V133.212H0.649902L0.649902 142.416H25.2199Z" fill="white"/>
<path d="M12.7359 163.016V160.968C11.1199 161.368 9.4559 161.688 7.7919 161.688C6.1119 161.688 4.8479 161.128 4.8479 159.976C4.8479 158.904 6.0319 158.088 6.7519 157.64C7.7759 156.984 10.1439 155.8 12.6719 155.112L12.0799 153.16C10.1119 154.088 9.9039 154.184 8.0639 155.048C7.6959 154.824 7.3599 154.568 7.1359 153.96C6.7039 152.76 6.6879 151.064 6.6719 150.168L4.6239 150.472C5.1359 153.528 5.2159 153.992 5.4399 154.52C5.6319 154.968 5.9359 155.48 6.3839 155.96C4.6239 157 3.0719 158.024 3.0719 160.024C3.0719 161.032 3.5519 162.152 4.7039 162.76C5.5039 163.176 6.3359 163.4 8.2239 163.4C10.2239 163.4 11.7759 163.16 12.7359 163.016Z" fill="white"/>
<path d="M14.7199 180.68C13.2799 179.704 12.5919 179.432 11.9679 179.176C11.7919 177.384 11.7599 176.616 11.7439 174.888C12.2559 174.792 13.0879 174.664 13.7439 174.44V172.712C13.1359 173.08 12.2079 173.272 11.7599 173.368C11.8399 172.488 11.8879 171.784 11.9839 171.384C12.1439 171.288 12.2879 171.208 12.2879 171.128C12.2879 171.032 12.2399 170.952 11.9039 170.904L10.1119 170.616C10.0799 172.2 10.0799 172.376 10.0479 173.576C9.5999 173.624 9.1679 173.672 8.5599 173.672C7.8079 173.672 7.4079 173.624 7.1199 173.576L7.1359 175.224C8.1279 175.272 8.9919 175.208 10.0319 175.096C10.0639 176.184 10.1119 176.856 10.2399 178.76C9.9199 178.728 9.5839 178.696 9.2639 178.696C7.7119 178.696 6.4479 179.32 6.4479 180.76C6.4479 183.064 9.1359 183.064 9.5999 183.064C11.7759 183.064 12.0959 182.232 12.1279 181C12.7999 181.4 13.2319 181.72 13.8079 182.264L14.7199 180.68ZM5.5839 179.272L4.5759 178.584L3.9199 179.544C3.8399 178.888 3.8399 178.04 3.8399 177.864C3.8399 176.632 4.2879 173.624 4.4319 172.904C4.4799 172.712 4.6719 171.896 4.7839 171.816C4.8319 171.8 5.0399 171.72 5.0879 171.688C5.1359 171.656 5.1519 171.608 5.1519 171.576C5.1519 171.416 4.8159 171.272 4.7679 171.256L3.2159 170.648C2.5919 173.096 2.2399 175.608 2.2399 178.136C2.2399 179.816 2.3679 181.496 2.8479 183.096L4.3199 182.856C4.4959 181.576 5.2319 180.024 5.5839 179.272ZM10.3359 180.28C10.3679 181.112 10.3999 181.48 9.3439 181.48C8.3999 181.48 7.9359 181.144 7.9359 180.776C7.9359 180.408 8.4479 180.136 9.1999 180.136C9.6799 180.136 10.0959 180.232 10.3359 180.28Z" fill="white"/>
</svg>
