<svg width="158" height="41" viewBox="0 0 158 41" fill="none" xmlns="http://www.w3.org/2000/svg">
<path d="M14.88 17.04L14.88 15.44L11.456 15.44C12.08 14.304 12.224 13.984 12.512 13.28C12.544 13.2 12.56 13.2 12.736 13.12C12.8 13.088 12.848 13.04 12.848 12.992C12.848 12.848 12.656 12.752 12.576 12.72L11.408 12.208L14.176 12.208L14.176 10.656L8.896 10.656L8.896 9.744C8.896 9.696 8.944 9.648 9.056 9.552C9.136 9.488 9.2 9.424 9.2 9.344C9.2 9.232 9.088 9.184 8.912 9.168L7.168 8.976L7.168 10.656L1.888 10.656L1.888 12.208L4.288 12.208L3.056 12.784C3.456 13.44 4.032 14.752 4.32 15.44L1.104 15.44L1.104 17.04L5.936 17.04C4.816 18.688 3.152 20.112 0.943996 21.312L2.304 22.608C4.688 21.136 6.032 19.728 7.168 18.096L7.168 22.784L8.896 22.784L8.896 18.352C9.68 19.472 10.912 21.136 13.424 22.48L14.736 21.104C12.816 20.128 11.04 18.864 9.904 17.04L14.88 17.04ZM11.072 12.208C10.752 13.152 10.448 14.016 9.888 14.944L10.704 15.44L8.896 15.44L8.896 12.208L11.072 12.208ZM7.168 15.44L4.896 15.44L5.92 14.88C5.632 14.016 4.992 12.64 4.672 12.208L7.168 12.208L7.168 15.44ZM29.52 14.368L29.52 9.328L23.024 9.328L23.024 14.368L29.52 14.368ZM27.968 11.344L24.576 11.344L24.576 10.672L27.968 10.672L27.968 11.344ZM27.968 13.168L24.576 13.168L24.576 12.48L27.968 12.48L27.968 13.168ZM30.72 16.272L30.72 14.976L21.84 14.976L21.84 16.272L23.36 16.272C23.04 16.944 22.752 17.376 22.192 17.984L22.192 16.656C21.664 16.848 21.136 17.008 20.576 17.168L20.576 13.904L22.24 13.904L22.24 12.256L20.576 12.256L20.576 9.888C20.576 9.776 20.704 9.696 20.784 9.648C20.88 9.568 20.96 9.504 20.96 9.392C20.96 9.28 20.848 9.232 20.752 9.216L18.896 9.072L18.896 12.256L17.344 12.256L17.344 13.904L18.896 13.904L18.896 17.632C18.336 17.776 17.632 17.952 17.12 18.048L17.408 19.84C17.424 19.92 17.488 19.952 17.52 19.952C17.6 19.952 17.648 19.888 17.824 19.696C17.92 19.584 17.984 19.568 18.576 19.424C19.04 19.312 20.8 18.72 21.888 18.304C21.264 18.848 20.928 19.088 20.48 19.36L21.744 20.208C22.432 19.696 23.072 19.136 23.888 18.176L24.624 18.176C24.304 18.672 22.928 20.416 20.816 21.376L22.064 22.256C22.96 21.68 23.808 21.024 24.576 20.272C25.44 19.44 25.92 18.576 26.144 18.176L26.944 18.176C26.368 19.264 25.04 20.992 23.296 22.016L24.496 22.816C25.44 22.192 26 21.632 26.464 21.136L27.104 22.704C28.384 22.688 29.168 22.464 29.648 21.712C30.208 20.832 30.512 18.48 30.528 16.848L24.704 16.848C24.8 16.688 24.912 16.464 24.992 16.272L30.72 16.272ZM28.832 18.176C28.784 19.024 28.704 19.872 28.32 20.624C28.144 20.976 27.888 21.072 27.472 21.072C27.408 21.072 27.072 21.072 26.608 20.976C27.792 19.648 28.16 18.848 28.448 18.176L28.832 18.176ZM46.8 14.352L46.112 13.664L41.6 13.664L41.968 13.248C41.904 13.216 41.632 13.072 41.568 13.04C43.424 11.824 44.576 10.96 45.536 10.24L44.8 9.34401L34.496 9.34401L34.496 11.024L41.424 11.024C40.688 11.76 40.304 12.032 39.968 12.256C38.496 11.552 38.08 11.36 37.648 11.152L36.816 12.672C37.888 13.088 38.384 13.344 38.96 13.664L33.136 13.664L33.136 15.408L39.024 15.408L39.024 20.336C39.024 20.784 38.896 21.136 38.416 21.136C37.952 21.136 37.2 20.976 36.928 20.912L37.664 22.816C40.224 22.8 40.928 22.736 40.928 20.72L40.928 15.408L43.968 15.408C43.088 16.64 42.624 17.232 41.936 18.032L43.488 19.024C44.256 18.08 45.04 17.088 46.8 14.352ZM62.752 14.336L62.752 11.344L58.368 11.344C58.56 10.96 58.592 10.848 58.784 10.336C58.864 10.128 58.88 10.112 59.12 10C59.184 9.96801 59.232 9.92001 59.232 9.84001C59.232 9.76001 59.152 9.71201 59.072 9.68001L57.376 9.12001C56.496 11.76 55.728 12.88 55.008 13.808L56.256 14.816C56.704 14.32 56.992 13.872 57.456 13.072L61.088 13.072L61.088 14.16C61.088 16.608 60.8 18.736 60.48 19.792C60.176 20.8 59.856 20.928 59.344 20.928C58.768 20.928 58.256 20.864 57.92 20.832L58.8 22.704L59.488 22.704C60.528 22.704 61.392 22.496 61.84 21.216C62.432 19.552 62.752 16.608 62.752 14.336ZM59.488 18.048C59.056 16.528 58.64 15.584 58.24 14.8L56.8 15.376C57.152 16.08 57.584 16.992 58.048 18.528L59.488 18.048ZM55.728 16.656C55.568 15.68 55.328 14.784 54.992 13.84L53.552 14.176C53.664 14.48 53.744 14.816 53.824 15.104C53.136 15.184 52.8 15.216 52.288 15.248C53.184 14.288 54.048 13.28 54.864 12.24C55.088 11.952 55.104 11.92 55.36 11.904C55.376 11.904 55.536 11.872 55.536 11.728C55.536 11.696 55.52 11.6 55.424 11.552L53.968 10.672C53.584 11.328 53.152 12.032 52.224 13.312C52.016 13.04 51.84 12.848 51.568 12.576C52.272 11.664 52.4 11.472 53.216 10.24C53.248 10.192 53.296 10.16 53.504 10.064C53.568 10.032 53.6 9.98401 53.6 9.93601C53.6 9.90401 53.568 9.84001 53.488 9.79201L52.064 9.02401C51.664 9.96801 51.296 10.72 50.608 11.712C50.464 11.584 50.32 11.472 50.064 11.296L49.072 12.64C49.808 13.136 50.48 13.648 51.296 14.56C51.072 14.864 50.832 15.12 50.672 15.312C50 15.344 49.648 15.344 48.96 15.344L49.28 17.2C49.296 17.28 49.376 17.344 49.424 17.344C49.504 17.344 49.552 17.296 49.68 17.168C49.808 17.024 49.92 17.008 50.032 17.008C50.24 16.976 50.88 16.912 51.456 16.848L51.456 22.784L53.088 22.784L53.088 16.624C53.36 16.576 53.584 16.56 54.144 16.416C54.208 16.72 54.24 16.928 54.272 17.072L55.728 16.656ZM55.744 20.592C55.552 20.016 55.264 19.008 55.072 17.6L53.776 17.872C53.904 18.928 54.064 19.744 54.4 20.944L55.744 20.592ZM51.216 18.224C51.216 18.128 51.024 18.08 50.928 18.064L49.616 17.824C49.504 19.632 49.248 20.592 48.944 21.44L50.32 21.808C50.784 20.656 50.88 19.824 50.96 18.496C51.136 18.368 51.216 18.304 51.216 18.224ZM78.72 19.68C77.28 18.704 76.592 18.432 75.968 18.176C75.792 16.384 75.76 15.616 75.744 13.888C76.256 13.792 77.088 13.664 77.744 13.44L77.744 11.712C77.136 12.08 76.208 12.272 75.76 12.368C75.84 11.488 75.888 10.784 75.984 10.384C76.144 10.288 76.288 10.208 76.288 10.128C76.288 10.032 76.24 9.95201 75.904 9.90401L74.112 9.61601C74.08 11.2 74.08 11.376 74.048 12.576C73.6 12.624 73.168 12.672 72.56 12.672C71.808 12.672 71.408 12.624 71.12 12.576L71.136 14.224C72.128 14.272 72.992 14.208 74.032 14.096C74.064 15.184 74.112 15.856 74.24 17.76C73.92 17.728 73.584 17.696 73.264 17.696C71.712 17.696 70.448 18.32 70.448 19.76C70.448 22.064 73.136 22.064 73.6 22.064C75.776 22.064 76.096 21.232 76.128 20C76.8 20.4 77.232 20.72 77.808 21.264L78.72 19.68ZM69.584 18.272L68.576 17.584L67.92 18.544C67.84 17.888 67.84 17.04 67.84 16.864C67.84 15.632 68.288 12.624 68.432 11.904C68.48 11.712 68.672 10.896 68.784 10.816C68.832 10.8 69.04 10.72 69.088 10.688C69.136 10.656 69.152 10.608 69.152 10.576C69.152 10.416 68.816 10.272 68.768 10.256L67.216 9.64801C66.592 12.096 66.24 14.608 66.24 17.136C66.24 18.816 66.368 20.496 66.848 22.096L68.32 21.856C68.496 20.576 69.232 19.024 69.584 18.272ZM74.336 19.28C74.368 20.112 74.4 20.48 73.344 20.48C72.4 20.48 71.936 20.144 71.936 19.776C71.936 19.408 72.448 19.136 73.2 19.136C73.68 19.136 74.096 19.232 74.336 19.28ZM86.432 22L86.432 10.32L84.704 10.32C84.352 11.84 83.008 12.352 82.16 12.352L81.232 12.352L81.232 13.872L84.4 13.872L84.4 22L86.432 22ZM98.0586 22L98.0586 20.32L92.6506 20.32C93.1466 19.344 93.5466 18.896 95.1146 17.808C96.6346 16.752 97.9626 15.696 97.9626 13.824C97.9626 11.776 96.4106 10.112 94.0106 10.112C90.3946 10.112 90.2666 13.392 90.2346 14.432L92.2666 14.432C92.2826 13.568 92.3306 11.888 93.9466 11.888C95.0026 11.888 95.7706 12.72 95.7706 13.824C95.7706 14.848 95.2586 15.488 93.5466 16.736C90.9066 18.672 90.1866 19.92 89.8986 22L98.0586 22ZM107.333 10.32L105.765 10.32L99.7492 22L101.317 22L107.333 10.32ZM116.869 22L116.869 20.32L111.461 20.32C111.957 19.344 112.357 18.896 113.925 17.808C115.445 16.752 116.773 15.696 116.773 13.824C116.773 11.776 115.221 10.112 112.821 10.112C109.205 10.112 109.077 13.392 109.045 14.432L111.077 14.432C111.093 13.568 111.141 11.888 112.757 11.888C113.813 11.888 114.581 12.72 114.581 13.824C114.581 14.848 114.069 15.488 112.357 16.736C109.717 18.672 108.997 19.92 108.709 22L116.869 22ZM123.024 22L123.024 10.32L121.296 10.32C120.944 11.84 119.6 12.352 118.752 12.352L117.824 12.352L117.824 13.872L120.992 13.872L120.992 22L123.024 22ZM139.994 16.08C139.994 15.504 139.594 13.616 137.498 11.376L136.17 12.336C137.05 13.344 137.946 14.944 137.946 15.44C137.946 15.824 137.578 15.856 136.89 15.92L137.978 17.568C139.002 17.376 139.994 16.992 139.994 16.08ZM136.202 15.376C136.202 14.4 136.026 12.624 133.85 12.624C133.418 12.624 132.938 12.688 132.586 12.752C132.698 12.144 132.81 11.584 132.89 11.008C132.906 10.848 132.938 10.832 133.226 10.656C133.402 10.544 133.434 10.496 133.434 10.432C133.434 10.288 133.114 10.192 132.986 10.176L131.034 9.90402C131.018 11.232 130.874 12.08 130.682 13.104C129.978 13.216 128.506 13.488 127.338 13.584L127.978 15.52C128.81 15.216 129.466 15.024 130.25 14.832C129.306 17.872 128.49 19.296 127.082 21.088L128.906 21.904C130.538 19.248 131.386 17.376 132.218 14.448C132.522 14.4 132.842 14.368 133.13 14.368C134.282 14.368 134.458 14.88 134.458 15.728C134.458 17.344 133.786 19.28 133.482 19.712C133.258 20.032 133.002 20.112 132.522 20.112C131.898 20.112 131.434 19.968 131.082 19.856L131.306 21.792C131.754 21.856 132.25 21.888 132.682 21.888C133.37 21.888 134.394 21.824 135.082 20.656C135.93 19.184 136.202 16.704 136.202 15.376ZM151.498 10.816C150.266 10.08 148.746 9.50403 147.674 9.16803L146.986 10.752C148.89 11.424 149.658 11.84 150.682 12.496L151.498 10.816ZM154.442 17.952C154.442 15.632 152.57 14.448 150.89 14.448C150.074 14.448 148.394 14.752 146.954 16.064C147.162 14.864 147.498 13.68 147.914 12.544L146.074 11.824C145.722 13.04 144.954 15.76 144.826 17.936L146.218 18.672C147.866 16.752 149.482 16.112 150.586 16.112C151.786 16.112 152.602 16.768 152.602 17.792C152.602 19.264 151.242 20.816 148.266 20.816C147.53 20.816 146.778 20.704 146.266 20.64L147.114 22.608C149.098 22.56 154.442 22.464 154.442 17.952Z" fill="#FF0000"/>
<path d="M0 40L158 40" stroke="#FF0000"/>
</svg>
