<svg width="126" height="45" viewBox="0 0 126 45" fill="none" xmlns="http://www.w3.org/2000/svg">
<path d="M16.4159 25.7561L16.4159 10.7441L1.56592 10.7441L1.56592 25.8281L3.58192 25.8281L3.58192 25.1261L14.3819 25.1261L14.3819 25.7561L16.4159 25.7561ZM14.3819 23.3441L5.66992 23.3441C6.89392 22.7141 8.02792 21.9941 9.44992 20.6621C10.9259 21.6881 11.5199 22.3181 12.0059 22.8581L13.4999 21.3281C13.0499 20.8601 12.2939 20.1221 10.8899 19.1141C12.0239 17.7101 12.6719 16.5401 13.3559 15.1001C13.4639 14.9381 13.4999 14.9201 13.8959 14.7401C14.0039 14.7041 14.0759 14.6501 14.0759 14.5241C14.0759 14.3441 13.8959 14.2001 13.5899 14.0921L11.7719 13.4441C11.0519 15.3521 10.2059 16.7381 9.19792 18.0161C7.88392 17.2781 7.12792 16.9541 6.15592 16.6481L5.05792 18.2321C5.84992 18.4661 5.93992 18.5201 7.59592 19.4561C7.64992 19.4741 7.70392 19.5101 7.77592 19.5461C6.22792 20.9321 4.91392 21.4181 3.86992 21.7241L5.38192 23.3441L3.58192 23.3441L3.58192 12.5801L14.3819 12.5801L14.3819 23.3441ZM10.2779 15.6401C10.0979 14.9201 9.82792 14.0741 9.05392 12.8681L7.36192 13.6961C7.97392 14.5961 8.31592 15.3341 8.58592 16.2701L10.2779 15.6401ZM7.36192 15.2621C6.64192 14.1281 5.90392 13.4621 5.48992 13.1201L4.03192 14.3261C4.91392 15.1001 5.41792 15.6761 5.95792 16.4141L7.36192 15.2621Z" fill="#00FFFF" style="mix-blend-mode:difference"/>
<path d="M26.1719 13.2461C24.8939 12.4721 24.2999 11.8601 23.7959 11.2301C23.8499 11.1761 23.8679 11.1401 23.8679 11.0861C23.8679 10.9061 23.6339 10.7801 23.5439 10.7621L22.0139 10.4201C21.3839 11.9861 20.1059 13.3181 18.7019 14.2001L20.0519 15.5321C20.1959 15.4061 20.2319 15.3521 20.3579 15.2081L20.3579 16.3781L21.8339 16.3781L21.8339 17.4401L19.6199 17.4401L19.6199 19.2941L21.8339 19.2941L21.8339 23.2721C20.9699 23.3441 20.0519 23.4341 19.1699 23.4701L19.3139 25.3421C19.3319 25.5041 19.3499 25.8281 19.5479 25.8281C19.6739 25.8281 20.0159 25.3781 20.1239 25.3421C20.1959 25.3061 21.2939 25.1261 21.4739 25.0901C23.9759 24.6581 24.8939 24.4601 25.4879 24.3161L25.6319 22.6421C25.3079 22.7321 24.9299 22.8401 23.6879 23.0381L23.6879 19.2941L25.4339 19.2941L25.4339 17.4401L23.6879 17.4401L23.6879 16.3781L25.0919 16.3781L25.0919 14.5241L26.1719 13.2461ZM35.3339 23.4161C33.2279 22.2461 31.6439 20.6441 31.1939 19.7261L31.1939 18.0341L34.7039 18.0341L34.7039 16.2881L33.7139 16.2881L33.7139 10.9061L26.3699 10.9061L26.3699 12.6341L31.7519 12.6341L31.7519 13.6061L27.1799 13.6061L27.1799 15.2621L31.7519 15.2621L31.7519 16.2881L26.0279 16.2881L26.0279 18.0341L29.2679 18.0341L29.2679 20.8961C28.3319 21.6161 27.1619 22.1021 25.9199 22.4801L26.2259 24.0281C26.2439 24.1181 26.3159 24.4781 26.5139 24.4781C26.6039 24.4781 26.6579 24.3521 26.7299 24.2081C26.8199 24.0461 26.8379 24.0101 27.3599 23.7761C28.0079 23.5061 28.7099 23.0921 29.2679 22.7681L29.2679 23.3081C29.2679 23.7401 29.0339 23.8121 28.6919 23.8121C28.1699 23.8121 27.7559 23.7581 27.5219 23.7401L28.2959 25.7741C30.5639 25.7381 31.1939 25.5941 31.1939 24.2441L31.1939 22.3541C32.0939 23.6321 33.1019 24.3701 34.0199 24.9461L35.3339 23.4161ZM26.2799 20.4101C26.2799 20.3921 26.2799 20.2121 25.8839 20.1221L24.4619 19.7801C24.2999 21.0581 24.0479 21.7061 23.7599 22.3361L25.3259 22.6961C25.4519 22.3721 25.6679 21.8321 25.8659 20.6261C26.0279 20.5901 26.2799 20.5361 26.2799 20.4101ZM24.7679 14.5241L21.2399 14.5241C21.5999 14.1641 22.1219 13.6601 22.8239 12.6881C23.3099 13.2821 23.8139 13.7681 24.7679 14.5241ZM34.7759 19.4381C34.7759 19.3841 34.7759 19.2761 34.5239 19.1501L33.0299 18.3581C32.5259 19.3301 32.2199 19.7261 31.7699 20.2121L33.2639 21.1841C33.7859 20.5901 34.2359 19.8521 34.3619 19.6001C34.5599 19.5821 34.7759 19.5641 34.7759 19.4381ZM29.0879 20.6081C28.7999 20.0501 28.4579 19.4561 27.6119 18.4841L26.1359 19.3661C26.6039 19.9241 26.9999 20.4461 27.4859 21.4361L29.0879 20.6081ZM21.6899 22.5521C21.5639 21.6161 21.3839 20.7701 20.9519 19.7261L19.4039 20.2841C19.7099 21.0941 19.9259 21.8501 20.1779 22.9841L21.6899 22.5521Z" fill="#00FFFF" style="mix-blend-mode:difference"/>
<path d="M52.3259 18.1241C52.3259 14.1101 49.3739 11.5721 45.6299 11.5721C40.9859 11.5721 37.6919 15.2081 37.6919 19.2041C37.6919 22.4261 40.6439 24.0461 41.2919 24.0461C42.2279 24.0461 43.0559 22.5341 43.5959 21.4181C44.1899 20.2121 45.2519 17.6921 45.8279 13.4081C46.4939 13.4621 47.7539 13.5341 48.8879 14.6141C49.8959 15.5681 50.1839 16.7741 50.1839 17.7641C50.1839 18.5561 49.9859 20.0501 48.8879 21.3461C47.7899 22.6601 46.4579 23.0381 45.6479 23.2721L46.9799 25.1261C47.9519 24.7301 49.8239 23.9561 51.1739 21.9581C51.8399 20.9681 52.3259 19.7081 52.3259 18.1241ZM43.6859 13.7321C43.3259 16.5401 41.7779 21.2381 40.8419 21.2381C40.5179 21.2381 39.6899 20.4821 39.6899 19.0241C39.6899 17.9261 40.2119 16.2521 41.4899 15.0281C42.3539 14.1821 43.1639 13.9121 43.6859 13.7321Z" fill="#00FFFF" style="mix-blend-mode:difference"/>
<path d="M70.7939 17.1701L70.7939 15.7661L67.9679 15.7661L67.9679 14.9561L69.5879 14.9561L69.5879 13.6781L67.9679 13.6781L67.9679 12.8681L70.6319 12.8681L70.6319 11.4281L67.9679 11.4281C67.9679 11.0501 67.9679 10.9961 68.1299 10.8701C68.2739 10.7621 68.2919 10.6901 68.2919 10.6181C68.2919 10.4921 68.1659 10.4561 67.9319 10.4381L66.1139 10.3301L66.1139 11.4281L64.4759 11.4281L64.4759 11.1041C64.4759 11.0321 64.5839 10.9421 64.6559 10.9061C64.6919 10.8701 64.8359 10.7801 64.8359 10.6901C64.8359 10.5281 64.6199 10.4921 64.4399 10.4741L62.6579 10.3301L62.6579 11.4281L60.8579 11.4281L60.8579 12.8681L62.6579 12.8681L62.6579 13.6781L61.1999 13.6781L61.1999 14.9561L62.6579 14.9561L62.6579 15.7661L60.7499 15.7661L60.7499 17.1701L64.3319 17.1701L64.3319 17.6921L61.1279 17.6921L61.1279 21.8321L60.3179 21.8321L60.3179 23.2361L61.1279 23.2361L61.1279 25.8821L62.8919 25.8821L62.8919 23.2361L67.6079 23.2361L67.6079 23.5601C67.6079 23.9021 67.2839 24.0461 66.9779 24.0461C66.7619 24.0461 66.3839 24.0101 65.8259 23.9021L66.5459 25.8461L67.6259 25.8461C68.4539 25.8461 69.3719 25.6301 69.3719 24.6401L69.3719 23.2361L70.6319 23.2361L70.6319 21.8321L69.3719 21.8321L69.3719 17.6921L66.1319 17.6921L66.1319 17.1701L70.7939 17.1701ZM67.6079 19.8341L66.1319 19.8341L66.1319 18.9881L67.6079 18.9881L67.6079 19.8341ZM67.6079 21.8321L66.1319 21.8321L66.1319 20.9681L67.6079 20.9681L67.6079 21.8321ZM64.3319 19.8341L62.8919 19.8341L62.8919 18.9881L64.3319 18.9881L64.3319 19.8341ZM64.3319 21.8321L62.8919 21.8321L62.8919 20.9681L64.3319 20.9681L64.3319 21.8321ZM66.1139 13.6781L64.4759 13.6781L64.4759 12.8681L66.1139 12.8681L66.1139 13.6781ZM66.1139 15.7661L64.4759 15.7661L64.4759 14.9561L66.1139 14.9561L66.1139 15.7661ZM60.8039 24.4961C60.4799 23.8481 59.9579 22.6601 59.6519 21.7421L60.2819 21.7421L60.2819 10.6721L55.6019 10.6721L55.6019 21.7421L56.1959 21.7421C56.0339 22.3541 55.7279 23.4341 54.6119 25.0001L56.3939 25.6301C57.0239 24.6581 57.4559 23.5241 57.6719 22.9661C57.6899 22.9121 57.7079 22.8761 57.8879 22.8221C58.0319 22.7861 58.0499 22.7681 58.0859 22.6961C58.3019 23.3801 58.6619 24.3881 59.1479 25.3601L60.8039 24.4961ZM58.7879 16.9001L57.2219 16.9001L57.2219 15.3701L58.7879 15.3701L58.7879 16.9001ZM58.7879 20.0321L57.2219 20.0321L57.2219 18.4301L58.7879 18.4301L58.7879 20.0321ZM58.7879 13.8041L57.2219 13.8041L57.2219 12.3101L58.7879 12.3101L58.7879 13.8041ZM59.4179 21.7421L57.9599 22.4441L56.6819 21.7421L59.4179 21.7421Z" fill="#00FFFF" style="mix-blend-mode:difference"/>
<path d="M89.1899 24.1901C88.2179 23.6501 86.1299 22.4441 84.4919 19.4021C83.1599 16.9181 82.8359 14.4701 82.8359 12.5621C82.8359 11.9861 82.8539 11.3021 82.9079 10.7441L77.1299 10.7441L77.1299 12.8861L80.7659 12.8861C80.7839 13.6061 80.8019 13.9481 80.8559 14.4881L79.2719 14.0921C79.1279 15.2981 78.8399 17.6561 77.2019 20.2661C75.6359 22.7321 73.7999 23.9381 72.8279 24.5681L74.7539 25.9361C77.8679 23.7761 79.7939 20.6981 81.1619 16.4681C81.4139 17.5301 81.8639 19.4561 83.3039 21.7241C84.7799 24.0281 86.3279 25.2161 87.1379 25.8461L89.1899 24.1901Z" fill="#00FFFF" style="mix-blend-mode:difference"/>
<path d="M106.65 16.3961L105.876 15.6221L100.8 15.6221L101.214 15.1541C101.142 15.1181 100.836 14.9561 100.764 14.9201C102.852 13.5521 104.148 12.5801 105.228 11.7701L104.4 10.7621L92.8079 10.7621L92.8079 12.6521L100.602 12.6521C99.7739 13.4801 99.3419 13.7861 98.9639 14.0381C97.3079 13.2461 96.8399 13.0301 96.3539 12.7961L95.4179 14.5061C96.6239 14.9741 97.1819 15.2621 97.8299 15.6221L91.2779 15.6221L91.2779 17.5841L97.9019 17.5841L97.9019 23.1281C97.9019 23.6321 97.7579 24.0281 97.2179 24.0281C96.6959 24.0281 95.8499 23.8481 95.5439 23.7761L96.3719 25.9181C99.2519 25.9001 100.044 25.8281 100.044 23.5601L100.044 17.5841L103.464 17.5841C102.474 18.9701 101.952 19.6361 101.178 20.5361L102.924 21.6521C103.788 20.5901 104.67 19.4741 106.65 16.3961Z" fill="#00FFFF" style="mix-blend-mode:difference"/>
<path d="M124.596 16.3781L124.596 13.0121L119.664 13.0121C119.88 12.5801 119.916 12.4541 120.132 11.8781C120.222 11.6441 120.24 11.6261 120.51 11.5001C120.582 11.4641 120.636 11.4101 120.636 11.3201C120.636 11.2301 120.546 11.1761 120.456 11.1401L118.548 10.5101C117.558 13.4801 116.694 14.7401 115.884 15.7841L117.288 16.9181C117.792 16.3601 118.116 15.8561 118.638 14.9561L122.724 14.9561L122.724 16.1801C122.724 18.9341 122.4 21.3281 122.04 22.5161C121.698 23.6501 121.338 23.7941 120.762 23.7941C120.114 23.7941 119.538 23.7221 119.16 23.6861L120.15 25.7921L120.924 25.7921C122.094 25.7921 123.066 25.5581 123.57 24.1181C124.236 22.2461 124.596 18.9341 124.596 16.3781ZM120.924 20.5541C120.438 18.8441 119.97 17.7821 119.52 16.9001L117.9 17.5481C118.296 18.3401 118.782 19.3661 119.304 21.0941L120.924 20.5541ZM116.694 18.9881C116.514 17.8901 116.244 16.8821 115.866 15.8201L114.246 16.1981C114.372 16.5401 114.462 16.9181 114.552 17.2421C113.778 17.3321 113.4 17.3681 112.824 17.4041C113.832 16.3241 114.804 15.1901 115.722 14.0201C115.974 13.6961 115.992 13.6601 116.28 13.6421C116.298 13.6421 116.478 13.6061 116.478 13.4441C116.478 13.4081 116.46 13.3001 116.352 13.2461L114.714 12.2561C114.282 12.9941 113.796 13.7861 112.752 15.2261C112.518 14.9201 112.32 14.7041 112.014 14.3981C112.806 13.3721 112.95 13.1561 113.868 11.7701C113.904 11.7161 113.958 11.6801 114.192 11.5721C114.264 11.5361 114.3 11.4821 114.3 11.4281C114.3 11.3921 114.264 11.3201 114.174 11.2661L112.572 10.4021C112.122 11.4641 111.708 12.3101 110.934 13.4261C110.772 13.2821 110.61 13.1561 110.322 12.9581L109.206 14.4701C110.034 15.0281 110.79 15.6041 111.708 16.6301C111.456 16.9721 111.186 17.2601 111.006 17.4761C110.25 17.5121 109.854 17.5121 109.08 17.5121L109.44 19.6001C109.458 19.6901 109.548 19.7621 109.602 19.7621C109.692 19.7621 109.746 19.7081 109.89 19.5641C110.034 19.4021 110.16 19.3841 110.286 19.3841C110.52 19.3481 111.24 19.2761 111.888 19.2041L111.888 25.8821L113.724 25.8821L113.724 18.9521C114.03 18.8981 114.282 18.8801 114.912 18.7181C114.984 19.0601 115.02 19.2941 115.056 19.4561L116.694 18.9881ZM116.712 23.4161C116.496 22.7681 116.172 21.6341 115.956 20.0501L114.498 20.3561C114.642 21.5441 114.822 22.4621 115.2 23.8121L116.712 23.4161ZM111.618 20.7521C111.618 20.6441 111.402 20.5901 111.294 20.5721L109.818 20.3021C109.692 22.3361 109.404 23.4161 109.062 24.3701L110.61 24.7841C111.132 23.4881 111.24 22.5521 111.33 21.0581C111.528 20.9141 111.618 20.8421 111.618 20.7521Z" fill="#00FFFF" style="mix-blend-mode:difference"/>
<path d="M0 44L126 44" stroke="#00FFFF" style="mix-blend-mode:difference"/>
</svg>
