<svg width="185" height="115" viewBox="0 0 185 115" fill="none" xmlns="http://www.w3.org/2000/svg">
<path d="M12.9518 16.8319C12.5678 14.6879 12.1518 13.0559 11.3518 11.0079L8.40784 11.6799C8.69584 12.5759 8.79184 12.8319 9.04784 13.8559C8.02384 13.9199 7.89584 13.9199 6.64784 13.9519C8.21584 11.9359 10.7438 8.35195 11.4158 7.35995C11.5758 7.13595 11.7358 7.10394 12.0558 7.03995C12.1838 7.00795 12.3118 6.97595 12.3118 6.81594C12.3118 6.71995 12.2478 6.59195 11.8318 6.36794L9.17584 4.89594C8.75984 5.72795 8.31184 6.55995 6.83984 8.83195C6.64784 8.63995 6.58384 8.57594 6.10384 8.06395C7.35184 6.17595 7.51184 5.91994 8.40784 4.19195C8.59984 3.83994 8.66384 3.80795 9.04784 3.71194C9.14384 3.67994 9.27184 3.64795 9.27184 3.42395C9.27184 3.10394 8.88784 2.91195 8.79184 2.87995L6.26384 1.82395C5.43184 3.80795 4.79184 4.92795 4.02384 6.07994C3.67184 5.75994 3.41584 5.53595 3.03184 5.21595L1.17584 7.90395C3.31984 9.63195 4.21584 10.6879 4.95184 11.6159C4.05584 12.8639 3.67184 13.3119 3.06384 14.0159C1.75184 14.0159 1.36784 13.9839 0.759836 13.9519L1.04784 16.7999C1.07984 17.1839 1.17584 17.6639 1.46384 17.6639C1.59184 17.6639 1.68784 17.5679 1.94384 17.3119C2.00784 17.2479 2.13584 17.1839 2.51984 17.1519C3.25584 17.0879 4.43984 17.0239 5.17584 16.9919V29.6639H8.72784V16.6399C9.14384 16.6079 9.27184 16.6079 9.65584 16.5439C9.71984 16.8319 9.78384 17.1199 9.87984 17.7599L12.9518 16.8319ZM12.8558 23.9679C12.3758 22.0159 12.1518 20.2879 12.1198 18.2399L9.49584 18.6879C9.46384 20.1919 9.52784 22.2079 10.0718 24.7359L12.8558 23.9679ZM29.4318 14.8799C27.8318 12.1919 26.5518 10.5599 24.8878 8.86395L22.1038 10.9119C22.5518 11.4239 22.9678 11.9359 23.3838 12.4479C22.1038 12.6079 21.1118 12.6399 19.4158 12.7039C20.3758 11.0399 20.8238 10.1119 21.4958 8.76795H28.7918V5.63194H22.1998V3.19995C22.1998 3.10394 22.2318 3.07195 22.6798 2.78395C22.8718 2.65594 22.9678 2.59195 22.9678 2.46395C22.9678 2.14395 22.5198 2.04795 21.8158 2.01595L18.3278 1.85595V5.63194L12.4398 5.63194V8.76795H17.4638C16.9518 10.1119 16.4078 11.4559 15.8318 12.7679C14.6798 12.7679 13.7198 12.7679 12.8558 12.7039L13.2718 15.8399C13.3038 16.1919 13.4318 16.5759 13.7518 16.5759C13.9118 16.5759 14.4558 16.1599 14.5838 16.0959C14.9038 15.9999 23.5438 15.2639 25.2078 15.0719C25.6238 15.6799 25.9758 16.2559 26.3278 16.8959L29.4318 14.8799ZM29.3678 24.2559L26.3918 22.7519C26.0078 25.5679 25.8158 25.9199 24.9198 25.9199C24.1198 25.9199 23.9278 25.3439 23.9278 24.9279V17.9519C23.9278 17.8559 23.9598 17.8239 24.3438 17.5359C24.5678 17.3759 24.6638 17.2799 24.6638 17.1199C24.6638 16.7039 23.9598 16.6399 23.5438 16.6079L20.4078 16.4479V27.2639C20.4078 28.2239 21.0158 29.5359 22.8398 29.5359H25.9758C28.4718 29.5359 29.1118 27.7759 29.3678 24.2559ZM19.6398 17.1839C19.6398 16.8639 19.2878 16.7679 18.5838 16.7359L15.4158 16.5759C15.6398 22.7199 14.8398 25.5039 9.81584 27.0399L12.9518 29.8239C17.1758 27.7439 19.1278 25.3119 19.1918 17.9199C19.2238 17.7599 19.2238 17.6959 19.4478 17.5039C19.5758 17.3759 19.6398 17.2799 19.6398 17.1839ZM4.95184 18.9119C4.95184 18.6559 4.34384 18.5599 4.24784 18.5599L1.78384 18.3039C1.43184 23.0399 0.919836 24.9599 0.631836 26.0799L3.70384 26.5919C4.18384 24.7359 4.43984 22.3359 4.69584 19.3599C4.75984 19.2639 4.95184 19.0719 4.95184 18.9119Z" fill="white"/>
<path d="M61.4958 12.0639C59.9278 11.6159 56.8558 10.7199 53.4638 8.35195C50.5198 6.27195 49.1438 4.31995 48.4078 3.32795C48.5998 3.19995 48.8878 2.94394 48.8878 2.81594C48.8878 2.71995 48.7278 2.52794 48.4398 2.46395L44.6958 1.72795C41.3678 7.87195 35.5118 11.3599 31.4478 13.1839L34.1358 15.9039C35.2558 15.3919 36.9518 14.6559 39.8318 12.5759V14.5599H52.6958V11.9679C55.0958 13.6319 56.7278 14.4319 58.7438 15.2639L61.4958 12.0639ZM51.7678 11.2959H41.4958C44.4398 8.73594 45.5598 7.07195 46.2958 5.98395C48.5358 8.67195 50.1678 10.0159 51.7678 11.2959ZM55.7998 29.3439V17.0559H37.1118V29.4719H40.5998V28.3839H52.1838V29.3439H55.7998ZM52.1838 25.0879H40.5998V20.1919H52.1838V25.0879Z" fill="white"/>
<path d="M93.0798 3.35995C92.5678 2.87995 91.9598 2.36794 89.8478 1.18394L88.6638 2.91195C90.7438 4.06395 91.3518 4.57594 91.8958 5.08795L93.0798 3.35995ZM92.1838 7.35995C91.0638 6.36794 90.2318 5.75994 88.8238 4.95995L87.6078 6.75195C88.4398 7.26395 89.5278 7.90395 90.9678 9.15195L92.1838 7.35995ZM85.6558 7.19995V3.71194L70.0078 3.71194V7.19995L85.6558 7.19995ZM89.7198 15.1359V11.8079H65.6878V15.1359H76.3758C76.2478 21.9839 73.4958 24.6079 67.8638 26.5919L70.8718 29.2799C77.0478 26.4959 79.9598 22.7199 80.1198 15.1359H89.7198Z" fill="white"/>
<path d="M121.464 13.1839V9.56795H116.12V4.99195C116.12 4.54395 116.152 4.51195 116.472 4.25595C116.76 4.06395 116.76 3.99994 116.76 3.90395C116.76 3.64795 116.408 3.48795 115.736 3.39194L112.472 2.94394C112.536 4.79995 112.536 6.65594 112.536 9.56795H106.488V5.05595C106.488 4.89594 107.16 4.41595 107.16 4.25595C107.16 3.96795 106.936 3.90395 106.2 3.80795L102.68 3.42395V9.56795H96.6638V13.1839H102.68V20.3519H106.488V13.1839H112.536C112.44 20.6079 110.424 23.6799 104.792 26.7839L107.416 29.2799C113.496 25.5999 115.704 22.4639 116.088 13.1839H121.464ZM118.136 5.08795C119.32 5.75994 120.344 6.55995 121.368 7.45595L122.712 5.75994C121.72 4.86395 120.696 4.06395 119.512 3.39194L118.136 5.08795ZM120.184 2.17595C121.4 2.84795 122.392 3.64795 123.384 4.54395L124.728 2.84795C123.736 1.95195 122.776 1.24795 121.496 0.543945L120.184 2.17595Z" fill="white"/>
<path d="M150.456 5.63194C150.456 5.37595 150.04 4.95995 149.912 4.86395L147.128 2.55995C142.296 8.28794 135.256 13.5359 128.568 16.1599L131.352 19.0079C135.096 17.2479 137.24 15.9039 139.416 14.4639V28.5439H143.416V11.4879C145.304 9.98395 147.096 8.31995 148.696 6.49594C149.144 6.01595 149.208 5.95195 149.688 5.91994C150.328 5.88795 150.456 5.85595 150.456 5.63194Z" fill="white"/>
<path d="M169.208 7.96795C167.192 6.30395 164.6 4.92795 162.488 3.99994L160.536 7.00795C163.096 8.15995 165.272 9.53595 167.096 11.0399L169.208 7.96795ZM184.44 11.2959L182.232 8.09595C180.824 10.0159 177.752 14.2399 172.856 17.8879C167.736 21.7279 163.544 22.8159 160.984 23.4239L163.224 27.2639C163.448 27.6799 163.736 27.8719 163.928 27.8719C164.184 27.8719 164.248 27.3279 164.408 26.8799C168.376 25.1839 171.416 23.8399 176.472 19.7439C180.696 16.3199 183.192 12.9599 184.44 11.2959Z" fill="white"/>
<path d="M28.0238 57.7759C28.0238 50.6399 22.7758 46.1279 16.1198 46.1279C7.86384 46.1279 2.00784 52.5919 2.00784 59.6959C2.00784 65.4239 7.25584 68.3039 8.40784 68.3039C10.0718 68.3039 11.5438 65.6159 12.5038 63.6319C13.5598 61.4879 15.4478 57.0079 16.4718 49.3919C17.6558 49.4879 19.8958 49.6159 21.9118 51.5359C23.7038 53.2319 24.2158 55.3759 24.2158 57.1359C24.2158 58.5439 23.8638 61.1999 21.9118 63.5039C19.9598 65.8399 17.5918 66.5119 16.1518 66.9279L18.5198 70.2239C20.2478 69.5199 23.5758 68.1439 25.9758 64.5919C27.1598 62.8319 28.0238 60.5919 28.0238 57.7759ZM12.6638 49.9679C12.0238 54.9599 9.27184 63.3119 7.60784 63.3119C7.03184 63.3119 5.55984 61.9679 5.55984 59.3759C5.55984 57.4239 6.48784 54.4479 8.75984 52.2719C10.2958 50.7679 11.7358 50.2879 12.6638 49.9679Z" fill="white"/>
<path d="M28.7918 106.752V103.392H16.8558V101.568C16.8558 101.376 16.9198 101.344 17.2078 101.024C17.3038 100.928 17.3678 100.896 17.3678 100.768C17.3678 100.48 17.1118 100.448 16.5358 100.352C17.7198 99.4879 18.6798 98.4639 19.7998 97.1839C21.0478 98.6879 22.6798 100.448 25.5598 102.272L28.0878 99.5199C26.4558 98.7519 24.1518 97.504 21.6878 94.688C21.8158 94.528 22.3598 93.6639 22.4238 93.5999C22.4878 93.5359 22.9998 93.4079 23.0958 93.3439C23.1278 93.3119 23.2238 93.2799 23.2238 93.1199C23.2238 92.7359 22.6158 92.3839 22.3278 92.2239H27.3838V89.0239H16.9838V87.3919C16.9838 87.1359 17.1118 87.0079 17.3038 86.8799C17.4318 86.7839 17.5598 86.6559 17.5598 86.4319C17.5598 86.1119 16.8558 86.0799 16.7278 86.0799L13.0478 85.8879V89.0239H2.64784V92.2239H7.28784C6.03984 95.3919 3.76784 97.9839 1.11184 100.096L4.31184 102.112C5.36784 101.056 6.51984 99.9039 8.11984 97.7919C9.04784 98.5919 9.97584 99.2319 11.9918 100.288L14.0718 97.3439C12.6318 96.7359 10.9358 95.6799 10.0398 95.0399C10.1358 94.8799 10.6158 94.1119 10.6798 94.0479C10.7758 93.9519 11.2878 93.7919 11.3838 93.7279C11.5118 93.6639 11.5438 93.5359 11.5438 93.4399C11.5438 93.2479 11.3518 93.0239 10.9038 92.7999L9.68784 92.2239H18.8718C17.5918 94.4959 16.2478 96.0319 15.7038 96.5759C13.9758 98.2079 13.7838 98.3999 13.0478 98.9119L14.3918 100.256L12.8878 100.096V103.392H1.14384L1.14384 106.752H12.8878V113.568H16.8558V106.752H28.7918Z" fill="white"/>
<path d="M59.9278 110.528C57.9758 110.144 56.3758 109.536 54.6798 108.512C55.7998 107.488 56.6318 106.848 57.1758 106.4C57.3678 106.304 57.4958 106.208 57.9438 106.208C58.2638 106.208 58.4558 106.208 58.4558 105.952C58.4558 105.824 58.3598 105.696 58.2638 105.6L56.3118 103.84H59.7998V100.992H53.6878V98.7199H58.9038V95.9679H53.6878V94.9119C53.9118 94.816 54.1678 94.7199 54.1678 94.4959C54.1678 94.1759 53.5918 94.0799 53.1438 94.0159L51.1278 93.6959H59.0958V86.2399H34.1678C34.3598 89.8239 34.5518 93.952 34.5518 97.216C34.5518 101.088 34.0718 104.352 33.3358 107.072C32.6958 109.536 31.9278 110.976 31.5118 111.776L34.9358 112.864C36.6958 109.28 37.3998 106.08 37.6558 103.84H41.2718V109.696C38.4558 110.048 37.9438 110.08 37.4318 110.08L37.8158 113.312C37.8478 113.696 37.9758 114.144 38.3278 114.144C38.4558 114.144 38.8398 113.696 38.9038 113.632C39.1918 113.44 39.3838 113.44 39.8958 113.344C41.8798 113.024 44.9838 112.448 49.2078 111.488L49.3678 108.384C47.7998 108.768 46.5198 108.96 44.9838 109.184L45.0158 103.84H46.4878C47.1278 105.152 48.4398 107.904 51.6718 110.368C54.0398 112.192 56.2158 112.96 57.1758 113.312L59.9278 110.528ZM50.1038 95.9679H45.6558V94.8799C45.8158 94.7839 46.0078 94.6559 46.0078 94.4959C46.0078 94.1439 45.1758 94.0159 45.1118 94.0159L43.1278 93.6959H50.1038V95.9679ZM50.1038 100.992H45.6558V98.7199H50.1038V100.992ZM42.1358 100.992H37.9118C37.9758 99.4559 37.9758 98.0479 37.9758 97.3439V93.6959H42.1358V95.9679H38.8398V98.7199H42.1358V100.992ZM55.5438 90.9119H37.9758V89.0239H55.5438V90.9119ZM54.9998 103.84C54.2638 104.8 53.4958 105.696 52.3118 106.56C51.8318 106.144 50.9998 105.376 50.1358 103.84H54.9998Z" fill="white"/>
</svg>
